<svg width="57" height="40" viewBox="0 0 57 40" fill="none" xmlns="http://www.w3.org/2000/svg">
<path fill-rule="evenodd" clip-rule="evenodd" d="M28.9466 1.34375L30.121 2.38886C30.8122 3.00392 31.4707 3.6706 32.091 4.38824C39.2562 12.6773 38.8931 24.9175 31.6085 32.7665C34.511 34.836 38.061 36.0521 41.898 36.0521C46.4199 36.0521 50.5431 34.3631 53.6777 31.5789C54.408 30.9302 55.5258 30.9964 56.1744 31.7267C56.8231 32.4569 56.7569 33.5748 56.0266 34.2234C52.2697 37.5604 47.3187 39.5892 41.898 39.5892C37.0249 39.5892 32.5313 37.9496 28.9437 35.1938C20.8114 41.4438 9.41576 40.9477 1.85959 34.2248C1.12987 33.5756 1.06463 32.4577 1.71389 31.728C2.36314 30.9982 3.48102 30.933 4.21075 31.5823C10.3522 37.0465 19.5414 37.5733 26.2805 32.7652C22.7661 28.9705 20.6151 23.8887 20.6151 18.3063C20.6151 11.9728 23.3837 6.2838 27.771 2.38768L28.9466 1.34375ZM28.9449 30.4362C35.0843 23.8952 35.4116 13.6385 29.4151 6.70134C29.2607 6.52278 29.1037 6.34809 28.944 6.17729C25.9701 9.35172 24.1522 13.6158 24.1522 18.3063C24.1522 22.9972 25.9705 27.2617 28.9449 30.4362Z" fill="white" stroke="black" stroke-width="0.608528" stroke-linecap="round"/>
</svg>
