<svg width="209" height="145" viewBox="0 0 209 145" fill="none" xmlns="http://www.w3.org/2000/svg">
<path fill-rule="evenodd" clip-rule="evenodd" d="M104.607 9.84375C89.479 23.2777 79.9471 42.8743 79.9471 64.6971C79.9471 86.5171 89.4766 106.111 104.601 119.545C134.57 92.9588 137.677 47.1374 111.4 16.7388C109.259 14.2617 106.988 11.9629 104.607 9.84375Z" fill="#43B71B"/>
<path fill-rule="evenodd" clip-rule="evenodd" d="M104.607 9.84375C89.479 23.2777 79.9471 42.8743 79.9471 64.6971C79.9471 86.5171 89.4766 106.111 104.601 119.545C134.57 92.9588 137.677 47.1374 111.4 16.7388C109.259 14.2617 106.988 11.9629 104.607 9.84375Z" fill="#43B71B"/>
<path d="M104.601 119.545C104.361 119.758 104.12 119.969 103.877 120.179C75.7142 144.523 34.3133 143.647 7.23462 119.554M104.601 119.545C117.55 131.047 134.601 138.033 153.283 138.033C171.966 138.033 189.016 131.048 201.966 119.546M104.601 119.545C89.4766 106.111 79.9471 86.5171 79.9471 64.6971C79.9471 42.8743 89.479 23.2777 104.607 9.84375C106.988 11.9629 109.259 14.2617 111.4 16.7388C137.677 47.1374 134.57 92.9588 104.601 119.545Z" stroke="#43B71B" stroke-width="13.2926" stroke-linecap="round"/>
</svg>
