<svg width="209" height="144" viewBox="0 0 209 144" fill="none" xmlns="http://www.w3.org/2000/svg">
<path fill-rule="evenodd" clip-rule="evenodd" d="M104.724 9.04688C89.596 22.4808 80.0641 42.0774 80.0641 63.9003C80.0641 85.7203 89.5935 105.315 104.718 118.748C134.687 92.1619 137.794 46.3405 111.517 15.9419C109.376 13.4649 107.105 11.1661 104.724 9.04688Z" fill="#34BAF3"/>
<path fill-rule="evenodd" clip-rule="evenodd" d="M104.724 9.04688C89.596 22.4808 80.0641 42.0774 80.0641 63.9003C80.0641 85.7203 89.5935 105.315 104.718 118.748C134.687 92.1619 137.794 46.3405 111.517 15.9419C109.376 13.4649 107.105 11.1661 104.724 9.04688Z" fill="#34BAF3"/>
<path d="M104.718 118.748C104.478 118.961 104.237 119.172 103.994 119.382C75.8311 143.726 34.4302 142.85 7.35156 118.758M104.718 118.748C117.667 130.251 134.718 137.237 153.4 137.237C172.083 137.237 189.133 130.251 202.083 118.749M104.718 118.748C89.5935 105.315 80.0641 85.7203 80.0641 63.9003C80.0641 42.0774 89.596 22.4808 104.724 9.04688C107.105 11.1661 109.376 13.4649 111.517 15.9419C137.794 46.3405 134.687 92.162 104.718 118.748Z" stroke="#34BAF3" stroke-width="13.2926" stroke-linecap="round"/>
</svg>
