<svg width="201" height="201" viewBox="0 0 201 201" fill="none" xmlns="http://www.w3.org/2000/svg">
<g clip-path="url(#clip0_157_6515)">
<path d="M71.1825 36.2441L22.1536 36.2441" stroke="#222222" stroke-width="0.679485" stroke-linecap="round"/>
<path d="M22.1537 51.4199L22.1537 39.7099" stroke="#222222" stroke-width="0.679485" stroke-linecap="round" stroke-dasharray="1.36 1.36"/>
<path d="M71.1827 51.4199L71.1827 39.7099" stroke="#222222" stroke-width="0.679485" stroke-linecap="round" stroke-dasharray="1.36 1.36"/>
<path d="M22.1537 33.3145L22.1537 21.6006" stroke="#222222" stroke-width="0.679485" stroke-linecap="round"/>
<path d="M22.1537 85.1387L22.1537 73.4287" stroke="#222222" stroke-width="0.679485" stroke-linecap="round"/>
<rect x="8.49343" y="0.855368" width="28.3205" height="15.4743" rx="7.73717" stroke="#424242" stroke-width="0.679485"/>
<path d="M15.5886 6.35297L15.9962 6.02681C16.0959 6.11288 16.2001 6.21027 16.3088 6.31899C16.4221 6.42771 16.5262 6.53643 16.6214 6.64515C16.721 6.74933 16.8003 6.84446 16.8592 6.93053L16.4311 7.30425C16.3768 7.21365 16.302 7.11399 16.2069 7.00527C16.1118 6.89202 16.0098 6.77878 15.9011 6.66553C15.7969 6.55228 15.6927 6.44809 15.5886 6.35297ZM15.3507 8.1536L15.738 7.81386C15.8468 7.89087 15.9577 7.97694 16.071 8.07206C16.1842 8.16266 16.2907 8.25779 16.3903 8.35745C16.4945 8.45258 16.5761 8.53864 16.635 8.61565L16.2273 9.00296C16.1684 8.92142 16.0891 8.83082 15.9895 8.73116C15.8943 8.63151 15.7901 8.53185 15.6769 8.43219C15.5636 8.328 15.4549 8.23514 15.3507 8.1536ZM15.4934 11.6054C15.5795 11.4378 15.6746 11.2385 15.7788 11.0074C15.8875 10.7719 15.994 10.525 16.0982 10.2668C16.2069 10.0041 16.3043 9.75266 16.3903 9.51257L16.8252 9.81155C16.7437 10.0426 16.6553 10.2827 16.5602 10.5318C16.4651 10.7764 16.3677 11.0188 16.268 11.2588C16.1684 11.4944 16.071 11.7141 15.9759 11.9179L15.4934 11.6054ZM16.9883 9.95424H19.6111V10.4027H16.9883V9.95424ZM17.5251 9.17283H19.1287V9.6077H17.5251V9.17283ZM16.7777 11.4695C17.0223 11.4468 17.3054 11.4219 17.627 11.3947C17.9532 11.3676 18.2974 11.3381 18.6598 11.3064C19.0268 11.2702 19.3914 11.2339 19.7538 11.1977V11.6597C19.405 11.7005 19.0562 11.739 18.7074 11.7753C18.3586 11.8115 18.0234 11.8432 17.7018 11.8704C17.3847 11.9021 17.1015 11.9315 16.8524 11.9587L16.7777 11.4695ZM17.1786 10.6201L17.5387 10.4774C17.6066 10.5907 17.6678 10.7153 17.7221 10.8512C17.781 10.9871 17.8241 11.1048 17.8512 11.2045L17.4707 11.3676C17.4436 11.2679 17.4028 11.1479 17.3484 11.0074C17.2941 10.8625 17.2374 10.7334 17.1786 10.6201ZM19.0335 10.4639L19.4412 10.5997C19.3823 10.7538 19.3189 10.9078 19.251 11.0618C19.1876 11.2113 19.1287 11.3427 19.0743 11.4559L18.721 11.3268C18.7527 11.2453 18.7867 11.1547 18.8229 11.055C18.8637 10.9553 18.9022 10.8534 18.9384 10.7492C18.9792 10.6405 19.0109 10.5454 19.0335 10.4639ZM18.3337 6.13553L19.5092 6.13553V6.5704L18.3337 6.5704V6.13553ZM19.3937 6.13553H19.8014C19.8014 6.13553 19.8014 6.16045 19.8014 6.21027C19.8014 6.2601 19.7991 6.30314 19.7946 6.33938C19.781 6.73801 19.7651 7.05963 19.747 7.30425C19.7334 7.54886 19.713 7.73685 19.6859 7.86822C19.6632 7.99506 19.6338 8.08565 19.5975 8.14001C19.5613 8.1989 19.5205 8.24194 19.4752 8.26911C19.4299 8.29176 19.3756 8.30762 19.3121 8.31668C19.2714 8.32121 19.217 8.32347 19.1491 8.32347C19.0811 8.32347 19.0086 8.32121 18.9316 8.31668C18.9316 8.25326 18.9226 8.18078 18.9044 8.09924C18.8863 8.01318 18.8637 7.94296 18.8365 7.8886C18.9044 7.89766 18.9633 7.90446 19.0132 7.90899C19.063 7.90899 19.1015 7.90899 19.1287 7.90899C19.183 7.91352 19.2238 7.89087 19.251 7.84104C19.2736 7.80933 19.2918 7.73685 19.3053 7.6236C19.3235 7.51036 19.3393 7.34275 19.3529 7.12078C19.3665 6.89429 19.3801 6.59305 19.3937 6.21707V6.13553ZM17.96 5.85694L18.2861 6.21027C18.1185 6.32352 17.9283 6.42318 17.7153 6.50925C17.5024 6.59532 17.2986 6.67006 17.1038 6.73348C17.0902 6.67912 17.0698 6.6157 17.0427 6.54322C17.02 6.47074 16.9974 6.40733 16.9747 6.35297C17.1514 6.28955 17.3303 6.21254 17.5115 6.12194C17.6972 6.03134 17.8467 5.94301 17.96 5.85694ZM17.6066 6.9713L17.9668 6.84899C18.0438 7.0166 18.1162 7.20232 18.1842 7.40617C18.2521 7.60548 18.2997 7.77989 18.3269 7.92937L17.9464 8.07886C17.9237 7.92484 17.8807 7.74591 17.8173 7.54207C17.7538 7.33822 17.6836 7.14796 17.6066 6.9713ZM18.0619 9.41065H18.5171V11.4763H18.0619V9.41065ZM16.9815 8.44578L16.9136 7.99053L17.0562 7.82065L17.9668 7.35181C17.9894 7.4107 18.0166 7.47638 18.0483 7.54886C18.0845 7.62134 18.1162 7.67796 18.1434 7.71873C17.8354 7.89087 17.6021 8.02224 17.4436 8.11283C17.2895 8.20343 17.1808 8.27364 17.1174 8.32347C17.054 8.36877 17.0087 8.40954 16.9815 8.44578ZM18.2929 8.00412L18.6394 8.20796C18.5126 8.40275 18.3586 8.59074 18.1774 8.77193C18.0007 8.9486 17.8127 9.11168 17.6134 9.26116C17.4141 9.40612 17.2148 9.53069 17.0155 9.63488C16.9838 9.56693 16.9407 9.49219 16.8864 9.41065C16.832 9.32458 16.7799 9.2521 16.7301 9.19321C16.9203 9.10715 17.1129 9.00522 17.3077 8.88745C17.507 8.76514 17.6927 8.62924 17.8648 8.47975C18.037 8.33027 18.1797 8.17172 18.2929 8.00412ZM18.1366 8.59527L18.388 8.24194C18.5511 8.31894 18.7232 8.40954 18.9044 8.51373C19.0902 8.61339 19.2646 8.71757 19.4276 8.82629C19.5907 8.93048 19.7266 9.03014 19.8353 9.12527L19.5635 9.51937C19.4639 9.42424 19.3325 9.32232 19.1694 9.2136C19.0109 9.10035 18.841 8.98937 18.6598 8.88065C18.4786 8.77193 18.3042 8.67681 18.1366 8.59527ZM20.0324 6.5772H20.4944V10.4978H20.0324V6.5772ZM20.8885 5.88412H21.3982V11.4083C21.3982 11.5714 21.38 11.696 21.3438 11.7821C21.3076 11.8681 21.2441 11.9338 21.1535 11.9791C21.0584 12.0244 20.9316 12.0516 20.773 12.0606C20.6145 12.0742 20.4152 12.081 20.1751 12.081C20.166 12.0085 20.1479 11.9179 20.1207 11.8092C20.0981 11.705 20.0709 11.6122 20.0392 11.5306C20.1977 11.5352 20.345 11.5374 20.4808 11.5374C20.6213 11.5374 20.7141 11.5374 20.7594 11.5374C20.8047 11.5329 20.8364 11.5238 20.8546 11.5103C20.8772 11.4921 20.8885 11.4582 20.8885 11.4083V5.88412ZM18.6802 6.38694H19.0811C19.0675 6.76292 19.0245 7.10267 18.952 7.40617C18.8841 7.70967 18.7482 7.95655 18.5443 8.14681C18.5217 8.10151 18.4832 8.04941 18.4288 7.99053C18.3744 7.93164 18.3224 7.88634 18.2725 7.85463C18.4311 7.70061 18.5353 7.49677 18.5851 7.24309C18.6394 6.98489 18.6712 6.6995 18.6802 6.38694ZM16.9815 8.44578C16.9679 8.38689 16.943 8.31894 16.9068 8.24194C16.8705 8.1604 16.8343 8.09698 16.798 8.05168C16.8433 8.02903 16.8818 7.99279 16.9136 7.94296C16.9498 7.8886 16.9679 7.79801 16.9679 7.67117V6.35297H17.396V8.06527C17.396 8.06527 17.3733 8.07886 17.328 8.10604C17.2873 8.12869 17.2397 8.1604 17.1853 8.20117C17.1355 8.23741 17.088 8.27817 17.0427 8.32347C17.0019 8.36424 16.9815 8.40501 16.9815 8.44578ZM24.517 9.75719V10.0358H27.5067V9.75719H24.517ZM24.517 10.3823V10.6677H27.5067V10.3823H24.517ZM24.517 9.13886V9.41744H27.5067V9.13886H24.517ZM23.9122 8.78552H28.1386V11.021H23.9122V8.78552ZM26.3788 10.8104H27.0039V11.4083C27.0039 11.4853 27.0243 11.5352 27.0651 11.5578C27.1104 11.5759 27.2078 11.585 27.3572 11.585C27.3889 11.585 27.4478 11.585 27.5339 11.585C27.6245 11.585 27.7219 11.585 27.8261 11.585C27.9303 11.585 28.0277 11.585 28.1183 11.585C28.2089 11.585 28.2768 11.585 28.3221 11.585C28.4036 11.585 28.4648 11.5737 28.5056 11.551C28.5463 11.5238 28.5758 11.4695 28.5939 11.388C28.612 11.3064 28.6233 11.1818 28.6279 11.0142C28.6913 11.055 28.7751 11.0935 28.8793 11.1297C28.988 11.166 29.0831 11.1909 29.1647 11.2045C29.142 11.44 29.1035 11.6212 29.0492 11.7481C28.9993 11.8749 28.9223 11.961 28.8181 12.0063C28.7139 12.0561 28.5713 12.081 28.3901 12.081C28.3583 12.081 28.304 12.081 28.227 12.081C28.1545 12.081 28.0707 12.081 27.9756 12.081C27.8804 12.081 27.7853 12.081 27.6902 12.081C27.5996 12.081 27.5158 12.081 27.4388 12.081C27.3663 12.081 27.3165 12.081 27.2893 12.081C27.0492 12.081 26.8612 12.0606 26.7253 12.0199C26.594 11.9836 26.5034 11.9179 26.4535 11.8228C26.4037 11.7277 26.3788 11.5918 26.3788 11.4151V10.8104ZM24.9043 10.8444H25.5362C25.4909 11.0437 25.4184 11.2181 25.3188 11.3676C25.2237 11.5125 25.0855 11.6371 24.9043 11.7413C24.7276 11.8455 24.4966 11.9315 24.2112 11.9995C23.9258 12.0674 23.5725 12.1218 23.1512 12.1626C23.1331 12.0901 23.0946 12.004 23.0357 11.9044C22.9768 11.8047 22.9225 11.7254 22.8726 11.6665C23.2441 11.6439 23.5521 11.6122 23.7967 11.5714C24.0414 11.5306 24.2384 11.4785 24.3879 11.4151C24.5419 11.3517 24.6574 11.2747 24.7344 11.1841C24.8114 11.089 24.8681 10.9757 24.9043 10.8444ZM26.6778 6.88297H28.7366V7.26348H26.6778V6.88297ZM26.6438 6.23066H29.0695V6.65194H26.6438V6.23066ZM24.3675 6.23745H24.8771V6.87617H24.3675V6.23745ZM24.3675 7.60322H24.8771V8.25552H24.3675V7.60322ZM23.5385 6.75386H25.7808V7.80706H23.5385V7.45373H25.2372V7.12078H23.5385V6.75386ZM28.1319 7.82065V8.24194H28.4988V7.82065H28.1319ZM27.4252 7.82065V8.24194H27.7921V7.82065H27.4252ZM26.7321 7.82065V8.24194H27.0854V7.82065H26.7321ZM26.2904 7.4945H28.9608V8.56809H26.2904V7.4945ZM26.6302 5.86374L27.1942 5.95207C27.099 6.20121 26.9767 6.44583 26.8272 6.68591C26.6778 6.92147 26.483 7.1389 26.2429 7.33822C26.1931 7.27933 26.1251 7.21365 26.039 7.14117C25.9575 7.06416 25.8828 7.0098 25.8148 6.97809C26.0277 6.81502 26.1998 6.63382 26.3312 6.4345C26.4626 6.23519 26.5622 6.04493 26.6302 5.86374ZM25.9507 6.07438V6.46168H23.756V8.1536H26.0051V8.53411H23.1988V6.07438H25.9507Z" fill="#424242"/>
<rect x="0.493429" y="54.6894" width="43.3205" height="15.4705" stroke="#43B71B" stroke-width="0.679485"/>
<path d="M11.217 61.9585H13.6971V62.5564H11.217V61.9585ZM7.54779 60.382H10.5715V60.912H7.54779V60.382ZM7.47304 63.0796H10.5851V63.63H7.47304V63.0796ZM7.43907 61.9177H10.6802V62.4545H7.43907V61.9177ZM12.3721 62.2167H12.9973V65.9606H12.3721V62.2167ZM7.94868 61.0547L8.47189 60.9324C8.53078 61.0638 8.58287 61.2088 8.62817 61.3673C8.678 61.5258 8.71197 61.6617 8.73009 61.775L8.1865 61.9245C8.17291 61.8067 8.14347 61.6663 8.09817 61.5032C8.0574 61.3401 8.00757 61.1906 7.94868 61.0547ZM9.6406 60.9188L10.2318 61.0411C10.1593 61.2314 10.0845 61.4239 10.0075 61.6187C9.93052 61.8135 9.85804 61.9788 9.79009 62.1147L9.26689 61.9992C9.31218 61.8996 9.35748 61.7863 9.40278 61.6595C9.44808 61.5326 9.49112 61.4035 9.53188 61.2722C9.57718 61.1408 9.61342 61.023 9.6406 60.9188ZM13.072 59.7841L13.5748 60.2597C13.3529 60.3458 13.1037 60.4251 12.8274 60.4976C12.5556 60.5655 12.277 60.6267 11.9916 60.681C11.7108 60.7354 11.4344 60.7829 11.1626 60.8237C11.1491 60.7558 11.1219 60.6742 11.0811 60.5791C11.0449 60.484 11.0064 60.4047 10.9656 60.3413C11.2238 60.296 11.482 60.2439 11.7402 60.185C11.9984 60.1261 12.243 60.0627 12.4741 59.9947C12.7096 59.9223 12.9089 59.8521 13.072 59.7841ZM8.55343 59.7977L9.19214 59.6346C9.26915 59.775 9.34389 59.9313 9.41637 60.1035C9.49338 60.2711 9.55 60.416 9.58624 60.5383L8.92035 60.7286C8.88864 60.6017 8.83654 60.4523 8.76407 60.2801C8.69612 60.1035 8.6259 59.9426 8.55343 59.7977ZM10.9656 60.3413H11.5703V62.7263C11.5703 62.9754 11.5613 63.2427 11.5432 63.5281C11.5296 63.8134 11.4979 64.1011 11.448 64.391C11.3982 64.6809 11.328 64.9618 11.2374 65.2336C11.1468 65.5054 11.0245 65.75 10.8705 65.9674C10.8388 65.9266 10.7912 65.8813 10.7278 65.8315C10.6689 65.7817 10.6055 65.7341 10.5375 65.6888C10.4741 65.6435 10.4197 65.6096 10.3744 65.5869C10.5556 65.3196 10.6893 65.0207 10.7753 64.69C10.8614 64.3593 10.9135 64.0241 10.9316 63.6843C10.9543 63.3446 10.9656 63.0252 10.9656 62.7263V60.3413ZM9.66099 64.0988L10.0891 63.8678C10.2023 64.0309 10.311 64.2098 10.4152 64.4046C10.5194 64.5949 10.5987 64.7602 10.653 64.9006L10.2114 65.1656C10.157 65.0252 10.0755 64.8531 9.96675 64.6492C9.86257 64.4454 9.76064 64.2619 9.66099 64.0988ZM8.03022 63.929L8.53304 64.0717C8.4515 64.3163 8.34505 64.5654 8.21368 64.8191C8.08685 65.0682 7.96001 65.2811 7.83317 65.4578C7.78334 65.4125 7.71313 65.3604 7.62253 65.3015C7.53646 65.2381 7.46172 65.1905 7.3983 65.1588C7.52514 64.9958 7.64292 64.8055 7.75163 64.5881C7.86488 64.3661 7.95774 64.1464 8.03022 63.929ZM8.79804 62.2099H9.42317L9.42317 65.9606H8.79804L8.79804 62.2099ZM14.9678 61.3333H16.8975V61.9245H14.9678V61.3333ZM15.6472 59.7705H16.2452V64.3299H15.6472L15.6472 59.7705ZM14.8726 64.4793C15.1263 64.4023 15.4321 64.3004 15.7899 64.1736C16.1478 64.0422 16.5102 63.9086 16.8771 63.7727L16.9994 64.3434C16.6687 64.4793 16.3358 64.6152 16.0006 64.7511C15.6654 64.8825 15.3573 65.0048 15.0765 65.1181L14.8726 64.4793ZM17.5906 59.9132L18.1274 59.689C18.227 59.8068 18.3222 59.9381 18.4128 60.0831C18.5079 60.2235 18.5781 60.3481 18.6234 60.4568L18.0594 60.7286C18.0141 60.6153 17.9462 60.484 17.8556 60.3345C17.7695 60.1805 17.6812 60.04 17.5906 59.9132ZM19.8601 59.6686L20.5327 59.886C20.4104 60.0627 20.2859 60.2439 20.159 60.4296C20.0322 60.6108 19.9144 60.7648 19.8057 60.8917L19.3097 60.6946C19.3731 60.5995 19.4388 60.493 19.5067 60.3753C19.5792 60.2529 19.6472 60.1306 19.7106 60.0083C19.774 59.886 19.8238 59.7728 19.8601 59.6686ZM18.7457 60.8849H19.2281V62.7535H18.7457V60.8849ZM17.8828 64.2959H20.2813V64.7579H17.8828V64.2959ZM17.876 65.1792H20.2745V65.6549H17.876V65.1792ZM17.4887 63.3378H20.5395V65.981H19.9348V63.8202H18.0798V65.981H17.4887V63.3378ZM17.6721 61.1091V62.536H20.3017V61.1091H17.6721ZM17.1489 60.6742H20.8453V62.9709H17.1489V60.6742ZM17.8148 61.3945L18.1613 61.2722C18.261 61.4171 18.3539 61.5779 18.4399 61.7546C18.526 61.9313 18.5826 62.0853 18.6098 62.2167L18.2429 62.3661C18.2112 62.2348 18.1546 62.0785 18.073 61.8973C17.996 61.7161 17.9099 61.5485 17.8148 61.3945ZM19.8057 61.2722L20.2134 61.4217C20.1228 61.5893 20.0254 61.7591 19.9212 61.9313C19.8216 62.1034 19.7287 62.2506 19.6426 62.3729L19.3233 62.2438C19.3776 62.1532 19.4342 62.0513 19.4931 61.9381C19.5566 61.8248 19.6154 61.7093 19.6698 61.5915C19.7242 61.4738 19.7695 61.3673 19.8057 61.2722ZM26.784 61.1703H28.6594V61.7614H26.784V61.1703ZM25.6832 65.1113H28.0682V65.6888H25.6832V65.1113ZM25.3707 62.9641H28.3536V65.9674H27.7285V63.5349H25.9686V65.9946H25.3707V62.9641ZM26.4443 59.6958H27.083V63.2223H26.4443V59.6958ZM23.074 64.3774L23.6788 64.5269C23.5791 64.8032 23.45 65.075 23.2915 65.3423C23.1374 65.605 22.9744 65.827 22.8022 66.0082C22.766 65.9719 22.7162 65.9289 22.6527 65.8791C22.5893 65.8338 22.5236 65.7885 22.4557 65.7432C22.3923 65.7024 22.3356 65.6684 22.2858 65.6413C22.458 65.4872 22.612 65.2993 22.7479 65.0773C22.8838 64.8508 22.9925 64.6175 23.074 64.3774ZM23.9845 64.5949L24.5009 64.3638C24.6368 64.5314 24.7682 64.7172 24.895 64.921C25.0219 65.1249 25.117 65.3038 25.1804 65.4578L24.6368 65.7228C24.5825 65.5688 24.4919 65.3853 24.365 65.1724C24.2427 64.9595 24.1159 64.767 23.9845 64.5949ZM23.2575 61.7206V62.4885H24.3379V61.7206H23.2575ZM23.2575 62.9777V63.7523H24.3379V62.9777H23.2575ZM23.2575 60.4704V61.2314H24.3379V60.4704H23.2575ZM22.6731 59.954H24.9494V64.2755H22.6731V59.954ZM34.401 61.1567L35.0669 61.3401C34.7861 62.1691 34.4214 62.8826 33.973 63.4805C33.529 64.0784 32.9945 64.5813 32.3694 64.989C31.7443 65.3921 31.0172 65.7228 30.1882 65.981C30.1611 65.9312 30.1248 65.8678 30.0795 65.7908C30.0342 65.7137 29.9844 65.6367 29.93 65.5597C29.8802 65.4872 29.8326 65.4261 29.7873 65.3763C30.5982 65.1588 31.3026 64.8667 31.9005 64.4997C32.4985 64.1328 33.0036 63.6753 33.4158 63.1272C33.828 62.5791 34.1564 61.9222 34.401 61.1567ZM31.5132 61.1974C31.7624 61.8814 32.0998 62.502 32.5257 63.0592C32.956 63.6119 33.4747 64.083 34.0817 64.4725C34.6932 64.8621 35.3931 65.1543 36.1813 65.3491C36.136 65.3944 36.0839 65.4533 36.025 65.5258C35.9706 65.5982 35.9186 65.6707 35.8687 65.7432C35.8189 65.8157 35.7781 65.8836 35.7464 65.947C34.9265 65.7205 34.2063 65.3966 33.5857 64.9754C32.9696 64.5541 32.4419 64.0422 32.0025 63.4397C31.5676 62.8327 31.2075 62.1464 30.9221 61.3809L31.5132 61.1974ZM29.9028 60.8645L36.0794 60.8645V61.4896L29.9028 61.4896V60.8645ZM32.4169 59.8317L33.0964 59.6278C33.1961 59.7909 33.2935 59.9698 33.3886 60.1646C33.4883 60.3594 33.5585 60.5293 33.5992 60.6742L32.8858 60.8985C32.8495 60.758 32.7861 60.5882 32.6955 60.3888C32.6049 60.185 32.5121 59.9993 32.4169 59.8317Z" fill="#43B71B"/>
<rect x="49.5225" y="54.6894" width="43.3205" height="15.4705" stroke="#424242" stroke-width="0.679485"/>
<path d="M58.3163 63.8746V64.3638L60.7896 64.3638V63.8746H58.3163ZM58.3163 62.9709V63.4465H60.7896V62.9709H58.3163ZM57.6844 62.5224H61.4555V64.8123H57.6844V62.5224ZM56.5565 60.5044H62.6107V61.0683H56.5565V60.5044ZM59.2404 59.689H59.8791V62.6991H59.2404V59.689ZM58.9414 60.6742L59.4782 60.8849C59.3288 61.1068 59.1544 61.322 58.955 61.5304C58.7603 61.7388 58.5473 61.9335 58.3163 62.1147C58.0853 62.2959 57.8452 62.459 57.5961 62.604C57.3469 62.7489 57.0955 62.8712 56.8418 62.9709C56.8101 62.9211 56.7694 62.8644 56.7195 62.801C56.6697 62.7376 56.6199 62.6764 56.57 62.6176C56.5202 62.5541 56.4704 62.502 56.4206 62.4613C56.6652 62.3797 56.9098 62.2755 57.1544 62.1487C57.399 62.0219 57.6323 61.8814 57.8543 61.7274C58.0808 61.5689 58.2846 61.4013 58.4658 61.2246C58.6515 61.0479 58.8101 60.8645 58.9414 60.6742ZM56.6448 65.22H62.5359V65.7908H56.6448V65.22ZM59.6277 61.0683L60.015 60.6742C60.2234 60.8011 60.4476 60.9415 60.6877 61.0955C60.9278 61.245 61.1656 61.4013 61.4012 61.5644C61.6367 61.7229 61.8564 61.8792 62.0603 62.0332C62.2641 62.1827 62.4385 62.3208 62.5835 62.4477L62.1622 62.9165C62.0263 62.7942 61.8587 62.6538 61.6594 62.4952C61.4646 62.3367 61.2494 62.1736 61.0139 62.006C60.7829 61.8384 60.5473 61.6753 60.3072 61.5168C60.0717 61.3537 59.8452 61.2042 59.6277 61.0683ZM65.4034 62.7059H69.4055V66.015H68.7668V63.2019H66.0217V66.015H65.4034V62.7059ZM64.0444 61.7886H70.0646V62.3118H64.0444V61.7886ZM64.5268 60.8849H69.6841V61.3809H64.5268V60.8849ZM65.8178 63.5892H69.025V64.0105H65.8178V63.5892ZM65.8178 64.4114H69.025V64.8327H65.8178V64.4114ZM65.7567 65.254H69.0318V65.75H65.7567V65.254ZM69.2424 59.7297L69.6365 60.1918C69.3059 60.2507 68.9344 60.3028 68.5222 60.3481C68.1145 60.3888 67.6864 60.4228 67.238 60.45C66.7895 60.4726 66.3365 60.4908 65.879 60.5044C65.426 60.5179 64.9889 60.5247 64.5676 60.5247C64.5631 60.4523 64.5472 60.3685 64.52 60.2733C64.4974 60.1782 64.4725 60.0989 64.4453 60.0355C64.8575 60.031 65.2856 60.0242 65.7295 60.0151C66.178 60.0015 66.6174 59.9834 67.0477 59.9608C67.4826 59.9336 67.888 59.9019 68.264 59.8656C68.64 59.8249 68.9661 59.7796 69.2424 59.7297ZM66.409 60.2394L67.0749 60.3753C66.9254 60.9279 66.7283 61.4647 66.4837 61.9856C66.2391 62.5066 65.9356 62.9845 65.5732 63.4193C65.2108 63.8542 64.7714 64.2234 64.255 64.5269C64.2278 64.4771 64.1893 64.4205 64.1395 64.357C64.0942 64.2936 64.0444 64.2325 63.99 64.1736C63.9402 64.1102 63.8949 64.0581 63.8541 64.0173C64.3343 63.75 64.742 63.4171 65.0772 63.0185C65.4169 62.6153 65.6955 62.1759 65.913 61.7002C66.1304 61.2201 66.2957 60.7331 66.409 60.2394ZM75.8131 61.1703H77.6884V61.7614H75.8131V61.1703ZM74.7123 65.1113H77.0973V65.6888H74.7123V65.1113ZM74.3997 62.9641H77.3827V65.9674H76.7575V63.5349H74.9977V65.9946H74.3997V62.9641ZM75.4733 59.6958H76.112V63.2223H75.4733V59.6958ZM72.1031 64.3774L72.7078 64.5269C72.6082 64.8032 72.4791 65.075 72.3205 65.3423C72.1665 65.605 72.0034 65.827 71.8313 66.0082C71.795 65.9719 71.7452 65.9289 71.6818 65.8791C71.6184 65.8338 71.5527 65.7885 71.4847 65.7432C71.4213 65.7024 71.3647 65.6684 71.3149 65.6413C71.487 65.4872 71.641 65.2993 71.7769 65.0773C71.9128 64.8508 72.0215 64.6175 72.1031 64.3774ZM73.0136 64.5949L73.53 64.3638C73.6659 64.5314 73.7973 64.7172 73.9241 64.921C74.0509 65.1249 74.1461 65.3038 74.2095 65.4578L73.6659 65.7228C73.6115 65.5688 73.5209 65.3853 73.3941 65.1724C73.2718 64.9595 73.145 64.767 73.0136 64.5949ZM72.2865 61.7206V62.4885H73.3669V61.7206H72.2865ZM72.2865 62.9777V63.7523H73.3669V62.9777H72.2865ZM72.2865 60.4704V61.2314H73.3669V60.4704H72.2865ZM71.7022 59.954H73.9785V64.2755H71.7022V59.954ZM83.4301 61.1567L84.096 61.3401C83.8151 62.1691 83.4505 62.8826 83.002 63.4805C82.5581 64.0784 82.0236 64.5813 81.3984 64.989C80.7733 65.3921 80.0463 65.7228 79.2173 65.981C79.1901 65.9312 79.1539 65.8678 79.1086 65.7908C79.0633 65.7137 79.0134 65.6367 78.9591 65.5597C78.9093 65.4872 78.8617 65.4261 78.8164 65.3763C79.6272 65.1588 80.3316 64.8667 80.9296 64.4997C81.5275 64.1328 82.0326 63.6753 82.4448 63.1272C82.8571 62.5791 83.1855 61.9222 83.4301 61.1567ZM80.5423 61.1974C80.7914 61.8814 81.1289 62.502 81.5547 63.0592C81.9851 63.6119 82.5037 64.083 83.1107 64.4725C83.7223 64.8621 84.4221 65.1543 85.2103 65.3491C85.165 65.3944 85.1129 65.4533 85.0541 65.5258C84.9997 65.5982 84.9476 65.6707 84.8978 65.7432C84.848 65.8157 84.8072 65.8836 84.7755 65.947C83.9556 65.7205 83.2353 65.3966 82.6147 64.9754C81.9986 64.5541 81.4709 64.0422 81.0315 63.4397C80.5966 62.8327 80.2365 62.1464 79.9511 61.3809L80.5423 61.1974ZM78.9319 60.8645L85.1084 60.8645V61.4896L78.9319 61.4896V60.8645ZM81.446 59.8317L82.1255 59.6278C82.2251 59.7909 82.3225 59.9698 82.4177 60.1646C82.5173 60.3594 82.5875 60.5293 82.6283 60.6742L81.9148 60.8985C81.8786 60.758 81.8152 60.5882 81.7246 60.3888C81.634 60.185 81.5411 59.9993 81.446 59.8317Z" fill="#424242"/>
<rect x="8.49343" y="88.4784" width="28.3205" height="15.4705" stroke="#424242" stroke-width="0.679485" stroke-dasharray="1.36 1.36"/>
<path d="M16.9951 96.2028L17.43 96.0465C17.4979 96.1824 17.5636 96.3296 17.627 96.4882C17.6904 96.6467 17.7448 96.8007 17.7901 96.9502C17.8399 97.0952 17.8716 97.2243 17.8852 97.3375L17.4232 97.521C17.405 97.4077 17.3733 97.2764 17.328 97.1269C17.2873 96.9729 17.2374 96.8166 17.1786 96.658C17.1242 96.495 17.063 96.3432 16.9951 96.2028ZM16.3496 97.9626L16.7912 97.8607C16.8365 98.0827 16.875 98.325 16.9068 98.5878C16.9385 98.8505 16.9611 99.077 16.9747 99.2672L16.4991 99.3896C16.4945 99.1902 16.4764 98.9592 16.4447 98.6965C16.4175 98.4292 16.3858 98.1846 16.3496 97.9626ZM15.6293 97.9015L16.1186 97.983C16.0868 98.2775 16.0438 98.5742 15.9895 98.8731C15.9351 99.1721 15.8717 99.4281 15.7992 99.641C15.7448 99.6093 15.6678 99.5753 15.5682 99.539C15.473 99.5073 15.3938 99.4824 15.3304 99.4643C15.4074 99.2605 15.4685 99.0181 15.5138 98.7373C15.5636 98.4564 15.6021 98.1778 15.6293 97.9015ZM15.5274 96.0873C15.5183 96.051 15.5025 96.0012 15.4798 95.9378C15.4617 95.8698 15.4391 95.8019 15.4119 95.7339C15.3892 95.666 15.3689 95.6071 15.3507 95.5573C15.4051 95.5391 15.4617 95.4984 15.5206 95.435C15.584 95.3715 15.6497 95.2877 15.7177 95.1835C15.763 95.1201 15.8354 95.0001 15.9351 94.8234C16.0393 94.6468 16.1457 94.4406 16.2545 94.2051C16.3677 93.9695 16.4651 93.7294 16.5466 93.4848L17.0834 93.7091C16.9203 94.085 16.7324 94.4565 16.5195 94.8234C16.3111 95.1903 16.0982 95.5097 15.8807 95.7815V95.7951C15.8807 95.7951 15.8626 95.8041 15.8264 95.8223C15.7947 95.8404 15.7539 95.8653 15.7041 95.897C15.6588 95.9287 15.618 95.9627 15.5818 95.9989C15.5455 96.0306 15.5274 96.0601 15.5274 96.0873ZM15.5342 96.0737L15.5206 95.6524L15.7788 95.4825L16.9475 95.3874C16.9294 95.4644 16.9158 95.5482 16.9068 95.6388C16.8977 95.7294 16.8909 95.8041 16.8864 95.863C16.5376 95.8993 16.2726 95.931 16.0914 95.9582C15.9102 95.9853 15.7811 96.008 15.7041 96.0261C15.6316 96.0397 15.575 96.0555 15.5342 96.0737ZM15.575 97.6433C15.5659 97.6025 15.5501 97.5504 15.5274 97.487C15.5093 97.419 15.4889 97.3511 15.4662 97.2832C15.4436 97.2107 15.421 97.1518 15.3983 97.1065C15.4753 97.0884 15.5523 97.0385 15.6293 96.957C15.7063 96.8755 15.7947 96.7713 15.8943 96.6444C15.9487 96.581 16.028 96.4768 16.1321 96.3319C16.2363 96.1869 16.3518 96.0148 16.4787 95.8155C16.61 95.6116 16.7392 95.3942 16.866 95.1632C16.9974 94.9276 17.1151 94.6943 17.2193 94.4633L17.7086 94.7623C17.55 95.0748 17.3711 95.3851 17.1718 95.6932C16.977 96.0012 16.7731 96.2956 16.5602 96.5765C16.3518 96.8528 16.1412 97.1065 15.9283 97.3375V97.3511C15.9283 97.3511 15.9102 97.3602 15.8739 97.3783C15.8422 97.3964 15.8015 97.4213 15.7516 97.453C15.7063 97.4802 15.6656 97.5119 15.6293 97.5482C15.5931 97.5799 15.575 97.6116 15.575 97.6433ZM15.575 97.6433L15.5546 97.2084L15.8196 97.0249L17.5998 96.7803C17.5862 96.8528 17.5772 96.9344 17.5727 97.0249C17.5727 97.1155 17.5749 97.1903 17.5794 97.2492C17.1718 97.3126 16.8433 97.367 16.5942 97.4123C16.3451 97.453 16.1525 97.487 16.0166 97.5142C15.8853 97.5414 15.7879 97.564 15.7245 97.5821C15.661 97.6002 15.6112 97.6206 15.575 97.6433ZM17.0698 97.8199L17.4911 97.6773C17.5545 97.8494 17.6157 98.0374 17.6746 98.2412C17.738 98.4405 17.7856 98.6149 17.8173 98.7644L17.3688 98.9343C17.3462 98.7803 17.3054 98.5991 17.2465 98.3907C17.1876 98.1823 17.1287 97.9921 17.0698 97.8199ZM18.0143 93.9469H18.5919V95.6184C18.5919 95.9038 18.5851 96.2232 18.5715 96.5765C18.5579 96.9298 18.5307 97.2945 18.49 97.6705C18.4537 98.0464 18.3994 98.4156 18.3269 98.778C18.2589 99.1359 18.1661 99.4643 18.0483 99.7633C18.0121 99.727 17.9622 99.6885 17.8988 99.6478C17.8399 99.6115 17.7765 99.5753 17.7086 99.539C17.6451 99.5073 17.5885 99.4847 17.5387 99.4711C17.6474 99.1812 17.7335 98.8709 17.7969 98.5402C17.8648 98.2095 17.9124 97.872 17.9396 97.5278C17.9713 97.1835 17.9917 96.8483 18.0007 96.5221C18.0098 96.1914 18.0143 95.8925 18.0143 95.6252V93.9469ZM19.4344 96.9366H19.8014V99.6953H19.4344V96.9366ZM20.1887 96.9366H20.5624V99.6614H20.1887V96.9366ZM18.3609 94.7215H21.3098V96.3047H18.3609V95.8019H20.7458V95.2243H18.3609V94.7215ZM18.5647 96.7056H21.1807V97.2288H19.0403V99.7905H18.5647V96.7056ZM20.9633 96.7056H21.4661V99.2401C21.4661 99.3488 21.4548 99.4349 21.4321 99.4983C21.4095 99.5617 21.3664 99.6161 21.303 99.6614C21.2351 99.6976 21.1581 99.7202 21.072 99.7293C20.9905 99.7384 20.8908 99.7429 20.773 99.7429C20.7685 99.6795 20.7526 99.6047 20.7255 99.5187C20.6983 99.4326 20.6711 99.3601 20.6439 99.3012C20.7028 99.3058 20.7572 99.308 20.807 99.308C20.8568 99.308 20.8931 99.3058 20.9157 99.3012C20.9474 99.3012 20.9633 99.2808 20.9633 99.2401V96.7056ZM18.8229 97.8879H21.14V98.4043H18.8229V97.8879ZM20.8342 93.4848L21.3166 93.9129C21.0312 93.999 20.7119 94.076 20.3585 94.1439C20.0052 94.2074 19.6406 94.2617 19.2646 94.307C18.8931 94.3523 18.5307 94.3885 18.1774 94.4157C18.1638 94.3523 18.1412 94.2753 18.1094 94.1847C18.0777 94.0896 18.046 94.0103 18.0143 93.9469C18.3495 93.9197 18.6915 93.8835 19.0403 93.8382C19.3937 93.7883 19.7266 93.734 20.0392 93.6751C20.3563 93.6162 20.6213 93.5528 20.8342 93.4848ZM28.2134 95.7H28.8113V99.7837H28.2134V95.7ZM26.7865 94.1507V94.7215H28.1998V94.1507H26.7865ZM26.1817 93.6887H28.8317V95.1903H26.1817V93.6887ZM25.8012 95.5369H29.1918V96.0533H25.8012V95.5369ZM26.4943 96.5493H28.5056V97.0182H26.4943V96.5493ZM26.4943 97.521H28.5056V97.9898H26.4943V97.521ZM26.2157 95.6796H26.8069V98.6965L26.2157 98.7576V95.6796ZM22.9406 94.1779H25.7604V94.7419H22.9406V94.1779ZM22.8658 98.0782H25.842V98.6421H22.8658V98.0782ZM24.0685 93.478H24.6461V95.3942H24.0685V93.478ZM24.1297 95.4078H24.5849V97.3511H24.6461V99.7905H24.0685V97.3511H24.1297V95.4078ZM23.5861 96.6037V97.1269H25.1557V96.6037H23.5861ZM23.5861 95.6456V96.162H25.1557V95.6456H23.5861ZM23.1037 95.1835H25.6517V97.5889H23.1037V95.1835ZM25.6993 98.4994H29.1715V99.0702L25.6993 99.0702V98.4994Z" fill="#424242"/>
</g>
<defs>
<clipPath id="clip0_157_6515">
<rect width="200" height="200" fill="white" transform="translate(0.153687 0.515625)"/>
</clipPath>
</defs>
</svg>
