<svg width="201" height="200" viewBox="0 0 201 200" fill="none" xmlns="http://www.w3.org/2000/svg">
<g clip-path="url(#clip0_152_6095)">
<path d="M47.489 9.07422L47.489 75.5254" stroke="#222222" stroke-width="0.679485" stroke-linecap="round"/>
<path d="M62.3167 75.5234H50.6067" stroke="#222222" stroke-width="0.679485" stroke-linecap="round" stroke-dasharray="1.36 1.36"/>
<path d="M62.3167 53.375H50.6067" stroke="#222222" stroke-width="0.679485" stroke-linecap="round" stroke-dasharray="1.36 1.36"/>
<path d="M62.3167 31.2227H50.6067" stroke="#222222" stroke-width="0.679485" stroke-linecap="round" stroke-dasharray="1.36 1.36"/>
<path d="M44.3708 9.07422L32.657 9.07422" stroke="#222222" stroke-width="0.679485" stroke-linecap="round"/>
<path d="M62.3167 9.07422L50.6067 9.07422" stroke="#222222" stroke-width="0.679485" stroke-linecap="round" stroke-dasharray="1.36 1.36"/>
<rect x="0.878561" y="0.335836" width="28.3205" height="15.4743" rx="7.73717" stroke="#424242" stroke-width="0.679485"/>
<path d="M8.29305 7.49817L13.3348 7.49817V8.02138H8.91138L8.91138 11.6294H8.29305L8.29305 7.49817ZM13.0087 7.49817H13.6066V10.9975C13.6066 11.147 13.584 11.2603 13.5387 11.3373C13.4934 11.4188 13.4164 11.48 13.3076 11.5207C13.1944 11.5615 13.0449 11.5864 12.8592 11.5955C12.678 11.6045 12.4447 11.6091 12.1593 11.6091C12.1503 11.5321 12.1276 11.4482 12.0914 11.3576C12.0551 11.2671 12.0166 11.1878 11.9759 11.1198C12.1072 11.1244 12.2318 11.1266 12.3496 11.1266C12.4719 11.1312 12.5783 11.1312 12.6689 11.1266C12.7595 11.1266 12.8229 11.1266 12.8592 11.1266C12.9135 11.1266 12.952 11.1153 12.9747 11.0927C12.9973 11.0745 13.0087 11.0406 13.0087 10.9907V7.49817ZM9.97817 9.1833H12.2069V10.7869H9.97817V10.3316H11.6769V9.64535H9.97817V9.1833ZM9.63843 9.1833H10.182L10.182 11.0859H9.63843L9.63843 9.1833ZM7.93292 6.03049L13.9532 6.03049V6.58087L7.93292 6.58087V6.03049ZM9.37343 6.73715L9.92381 6.55369C9.99629 6.67147 10.071 6.80283 10.148 6.94779C10.2296 7.09275 10.293 7.21279 10.3383 7.30792L9.76073 7.53215C9.71997 7.42796 9.66108 7.30112 9.58407 7.15164C9.51159 6.99762 9.44138 6.85946 9.37343 6.73715ZM11.9215 6.59446L12.5738 6.73036C12.4651 6.91155 12.3518 7.09501 12.2341 7.28074C12.1163 7.46646 12.0098 7.62275 11.9147 7.74958L11.4119 7.60689C11.4753 7.51176 11.5387 7.40531 11.6021 7.28753C11.6656 7.16976 11.7244 7.04971 11.7788 6.92741C11.8377 6.8051 11.8853 6.69412 11.9215 6.59446ZM10.5014 5.44613L11.1061 5.29664C11.165 5.43254 11.2239 5.58203 11.2828 5.7451C11.3417 5.90818 11.387 6.04861 11.4187 6.16638L10.7868 6.34305C10.7596 6.22527 10.7165 6.08258 10.6577 5.91497C10.6033 5.74284 10.5512 5.58656 10.5014 5.44613ZM10.0121 7.76997H10.5761C10.558 8.04629 10.5059 8.28185 10.4198 8.47663C10.3383 8.67142 10.2001 8.83223 10.0053 8.95907C9.81509 9.0859 9.54556 9.18783 9.19676 9.26484C9.17411 9.20142 9.13108 9.12667 9.06766 9.04061C9.00877 8.95001 8.95215 8.87979 8.89779 8.82996C9.19223 8.77561 9.41646 8.70539 9.57048 8.61932C9.7245 8.53326 9.83321 8.42227 9.89663 8.28638C9.96005 8.14595 9.99855 7.97381 10.0121 7.76997ZM11.1944 7.78356L11.772 7.78356V8.34753C11.772 8.42001 11.7788 8.4721 11.7924 8.50381C11.806 8.53552 11.8422 8.55138 11.9011 8.55138C11.9238 8.55138 11.9555 8.55138 11.9962 8.55138C12.0415 8.55138 12.0891 8.55138 12.1389 8.55138C12.1933 8.55138 12.2431 8.55138 12.2884 8.55138C12.3337 8.55138 12.3677 8.55138 12.3903 8.55138C12.4402 8.55138 12.5059 8.54911 12.5874 8.54458C12.6689 8.53552 12.7323 8.52646 12.7776 8.5174C12.7822 8.58988 12.7867 8.66462 12.7912 8.74163C12.7958 8.81411 12.8048 8.88659 12.8184 8.95907C12.7731 8.97266 12.712 8.98398 12.635 8.99304C12.5579 8.99757 12.4809 8.99984 12.4039 8.99984C12.3722 8.99984 12.3269 8.99984 12.268 8.99984C12.2091 8.99984 12.1457 8.99984 12.0778 8.99984C12.0098 8.99984 11.9464 8.99984 11.8875 8.99984C11.8332 8.99984 11.7924 8.99984 11.7652 8.99984C11.6067 8.99984 11.4866 8.97492 11.4051 8.92509C11.3236 8.87526 11.2669 8.80279 11.2352 8.70766C11.208 8.608 11.1944 8.48569 11.1944 8.34074V7.78356ZM18.7639 7.70202H21.2712V8.28638H18.7639V7.70202ZM17.337 10.7189H20.6325V11.2897H17.337V10.7189ZM18.4513 6.96818H19.1172V9.46868H18.4513V6.96818ZM16.9973 9.07458H20.9519V11.5479H20.2928V9.67253H17.6224V11.5615H16.9973V9.07458ZM16.1207 6.13241H21.4683V6.74395H16.1207V6.13241ZM15.8285 6.13241H16.4876V7.89228C16.4876 8.16407 16.4786 8.46304 16.4605 8.7892C16.4423 9.11082 16.4084 9.4415 16.3585 9.78124C16.3087 10.121 16.234 10.4517 16.1343 10.7733C16.0392 11.0949 15.9146 11.3848 15.7606 11.643C15.7198 11.6068 15.6632 11.5638 15.5907 11.5139C15.5228 11.4641 15.4526 11.4165 15.3801 11.3712C15.3076 11.3259 15.2442 11.2942 15.1898 11.2761C15.3348 11.0315 15.4503 10.7642 15.5364 10.4743C15.6224 10.1844 15.6858 9.88996 15.7266 9.59099C15.7674 9.28748 15.7946 8.99078 15.8082 8.70086C15.8217 8.40642 15.8285 8.13689 15.8285 7.89228V6.13241ZM18.1388 5.4869L18.7775 5.34421C18.8772 5.48916 18.9678 5.64997 19.0493 5.82664C19.1308 6.00331 19.1875 6.15959 19.2192 6.29549L18.5397 6.45856C18.517 6.32266 18.4672 6.16412 18.3902 5.98292C18.3132 5.7972 18.2294 5.63185 18.1388 5.4869Z" fill="#424242"/>
<rect x="65.7746" y="1.33779" width="28.3205" height="15.4705" stroke="#424242" stroke-width="0.679485"/>
<path d="M72.8697 6.83344L73.2774 6.50728C73.377 6.59335 73.4812 6.69074 73.5899 6.79946C73.7032 6.90818 73.8074 7.0169 73.9025 7.12561C74.0022 7.2298 74.0814 7.32493 74.1403 7.411L73.7122 7.78471C73.6579 7.69412 73.5831 7.59446 73.488 7.48574C73.3929 7.37249 73.291 7.25925 73.1822 7.146C73.0781 7.03275 72.9739 6.92856 72.8697 6.83344ZM72.6319 8.63407L73.0192 8.29433C73.1279 8.37134 73.2389 8.4574 73.3521 8.55253C73.4654 8.64313 73.5718 8.73826 73.6715 8.83792C73.7757 8.93304 73.8572 9.01911 73.9161 9.09612L73.5084 9.48343C73.4495 9.40189 73.3702 9.31129 73.2706 9.21163C73.1755 9.11198 73.0713 9.01232 72.958 8.91266C72.8448 8.80847 72.7361 8.71561 72.6319 8.63407ZM72.7746 12.0859C72.8606 11.9182 72.9558 11.7189 73.0599 11.4879C73.1687 11.2524 73.2751 11.0055 73.3793 10.7473C73.488 10.4845 73.5854 10.2331 73.6715 9.99304L74.1063 10.292C74.0248 10.523 73.9365 10.7631 73.8413 11.0123C73.7462 11.2569 73.6488 11.4992 73.5492 11.7393C73.4495 11.9749 73.3521 12.1946 73.257 12.3984L72.7746 12.0859ZM74.2694 10.4347H76.8922V10.8832H74.2694V10.4347ZM74.8062 9.6533H76.4098V10.0882H74.8062V9.6533ZM74.0588 11.95C74.3034 11.9273 74.5865 11.9024 74.9081 11.8752C75.2343 11.848 75.5786 11.8186 75.941 11.7869C76.3079 11.7506 76.6725 11.7144 77.0349 11.6782V12.1402C76.6861 12.181 76.3373 12.2195 75.9885 12.2557C75.6397 12.292 75.3045 12.3237 74.9829 12.3509C74.6658 12.3826 74.3827 12.412 74.1335 12.4392L74.0588 11.95ZM74.4597 11.1006L74.8198 10.9579C74.8878 11.0712 74.9489 11.1957 75.0033 11.3316C75.0622 11.4675 75.1052 11.5853 75.1324 11.685L74.7519 11.848C74.7247 11.7484 74.6839 11.6283 74.6296 11.4879C74.5752 11.343 74.5186 11.2138 74.4597 11.1006ZM76.3147 10.9443L76.7224 11.0802C76.6635 11.2342 76.6001 11.3883 76.5321 11.5423C76.4687 11.6918 76.4098 11.8231 76.3554 11.9364L76.0021 11.8073C76.0338 11.7257 76.0678 11.6351 76.104 11.5355C76.1448 11.4358 76.1833 11.3339 76.2195 11.2297C76.2603 11.121 76.292 11.0259 76.3147 10.9443ZM75.6148 6.616L76.7903 6.616V7.05087L75.6148 7.05087V6.616ZM76.6748 6.616H77.0825C77.0825 6.616 77.0825 6.64091 77.0825 6.69074C77.0825 6.74057 77.0802 6.78361 77.0757 6.81985C77.0621 7.21848 77.0463 7.5401 77.0281 7.78471C77.0145 8.02933 76.9942 8.21732 76.967 8.34869C76.9443 8.47552 76.9149 8.56612 76.8786 8.62048C76.8424 8.67937 76.8016 8.7224 76.7563 8.74958C76.711 8.77223 76.6567 8.78809 76.5933 8.79715C76.5525 8.80168 76.4981 8.80394 76.4302 8.80394C76.3622 8.80394 76.2898 8.80168 76.2128 8.79715C76.2128 8.73373 76.2037 8.66125 76.1856 8.57971C76.1675 8.49364 76.1448 8.42343 76.1176 8.36907C76.1856 8.37813 76.2445 8.38493 76.2943 8.38946C76.3441 8.38946 76.3826 8.38946 76.4098 8.38946C76.4642 8.39399 76.5049 8.37134 76.5321 8.32151C76.5548 8.2898 76.5729 8.21732 76.5865 8.10407C76.6046 7.99082 76.6204 7.82322 76.634 7.60125C76.6476 7.37476 76.6612 7.07352 76.6748 6.69754V6.616ZM75.2411 6.33741L75.5672 6.69074C75.3996 6.80399 75.2094 6.90365 74.9965 6.98972C74.7836 7.07579 74.5797 7.15053 74.3849 7.21395C74.3713 7.15959 74.351 7.09617 74.3238 7.02369C74.3011 6.95121 74.2785 6.88779 74.2558 6.83344C74.4325 6.77002 74.6114 6.69301 74.7926 6.60241C74.9784 6.51181 75.1278 6.42348 75.2411 6.33741ZM74.8878 7.45177L75.2479 7.32946C75.3249 7.49707 75.3974 7.68279 75.4653 7.88664C75.5333 8.08595 75.5808 8.26035 75.608 8.40984L75.2275 8.55933C75.2048 8.40531 75.1618 8.22638 75.0984 8.02253C75.035 7.81869 74.9648 7.62843 74.8878 7.45177ZM75.343 9.89112H75.7983V11.9568H75.343V9.89112ZM74.2626 8.92625L74.1947 8.47099L74.3374 8.30112L75.2479 7.83228C75.2705 7.89117 75.2977 7.95685 75.3294 8.02933C75.3657 8.10181 75.3974 8.15843 75.4245 8.1992C75.1165 8.37134 74.8832 8.5027 74.7247 8.5933C74.5707 8.6839 74.4619 8.75411 74.3985 8.80394C74.3351 8.84924 74.2898 8.89001 74.2626 8.92625ZM75.574 8.48458L75.9206 8.68843C75.7937 8.88322 75.6397 9.07121 75.4585 9.2524C75.2819 9.42907 75.0939 9.59214 74.8946 9.74163C74.6952 9.88659 74.4959 10.0112 74.2966 10.1153C74.2649 10.0474 74.2219 9.97266 74.1675 9.89112C74.1131 9.80505 74.061 9.73257 74.0112 9.67368C74.2015 9.58762 74.394 9.48569 74.5888 9.36791C74.7881 9.24561 74.9738 9.10971 75.146 8.96022C75.3181 8.81074 75.4608 8.65219 75.574 8.48458ZM75.4178 9.07574L75.6692 8.7224C75.8322 8.79941 76.0044 8.89001 76.1856 8.9942C76.3713 9.09386 76.5457 9.19804 76.7088 9.30676C76.8719 9.41095 77.0077 9.51061 77.1165 9.60573L76.8447 9.99984C76.745 9.90471 76.6136 9.80279 76.4506 9.69407C76.292 9.58082 76.1222 9.46984 75.941 9.36112C75.7598 9.2524 75.5854 9.15727 75.4178 9.07574ZM77.3135 7.05767H77.7756V10.9783H77.3135V7.05767ZM78.1697 6.36459H78.6793V11.8888C78.6793 12.0519 78.6612 12.1765 78.6249 12.2625C78.5887 12.3486 78.5253 12.4143 78.4347 12.4596C78.3395 12.5049 78.2127 12.5321 78.0542 12.5411C77.8956 12.5547 77.6963 12.5615 77.4562 12.5615C77.4471 12.489 77.429 12.3984 77.4019 12.2897C77.3792 12.1855 77.352 12.0927 77.3203 12.0111C77.4789 12.0156 77.6261 12.0179 77.762 12.0179C77.9024 12.0179 77.9953 12.0179 78.0406 12.0179C78.0859 12.0134 78.1176 12.0043 78.1357 11.9907C78.1583 11.9726 78.1697 11.9386 78.1697 11.8888V6.36459ZM75.9613 6.86741H76.3622C76.3486 7.24339 76.3056 7.58313 76.2331 7.88664C76.1652 8.19014 76.0293 8.43702 75.8254 8.62728C75.8028 8.58198 75.7643 8.52988 75.7099 8.47099C75.6556 8.41211 75.6035 8.36681 75.5537 8.3351C75.7122 8.18108 75.8164 7.97724 75.8662 7.72356C75.9206 7.46536 75.9523 7.17997 75.9613 6.86741ZM74.2626 8.92625C74.249 8.86736 74.2241 8.79941 74.1879 8.7224C74.1516 8.64087 74.1154 8.57745 74.0792 8.53215C74.1245 8.5095 74.163 8.47326 74.1947 8.42343C74.2309 8.36907 74.249 8.27847 74.249 8.15164V6.83344H74.6771V8.54574C74.6771 8.54574 74.6545 8.55933 74.6092 8.58651C74.5684 8.60916 74.5208 8.64087 74.4665 8.68163C74.4166 8.71787 74.3691 8.75864 74.3238 8.80394C74.283 8.84471 74.2626 8.88548 74.2626 8.92625ZM81.7981 10.2377V10.5162H84.7879V10.2377H81.7981ZM81.7981 10.8628V11.1482H84.7879V10.8628H81.7981ZM81.7981 9.61932V9.89791H84.7879V9.61932H81.7981ZM81.1934 9.26599H85.4198V11.5015H81.1934V9.26599ZM83.6599 11.2909H84.285V11.8888C84.285 11.9658 84.3054 12.0156 84.3462 12.0383C84.3915 12.0564 84.4889 12.0655 84.6384 12.0655C84.6701 12.0655 84.729 12.0655 84.815 12.0655C84.9056 12.0655 85.003 12.0655 85.1072 12.0655C85.2114 12.0655 85.3088 12.0655 85.3994 12.0655C85.49 12.0655 85.5579 12.0655 85.6032 12.0655C85.6848 12.0655 85.7459 12.0541 85.7867 12.0315C85.8275 12.0043 85.8569 11.95 85.875 11.8684C85.8931 11.7869 85.9045 11.6623 85.909 11.4947C85.9724 11.5355 86.0562 11.574 86.1604 11.6102C86.2691 11.6465 86.3643 11.6714 86.4458 11.685C86.4231 11.9205 86.3846 12.1017 86.3303 12.2285C86.2805 12.3554 86.2034 12.4415 86.0993 12.4868C85.9951 12.5366 85.8524 12.5615 85.6712 12.5615C85.6395 12.5615 85.5851 12.5615 85.5081 12.5615C85.4356 12.5615 85.3518 12.5615 85.2567 12.5615C85.1616 12.5615 85.0664 12.5615 84.9713 12.5615C84.8807 12.5615 84.7969 12.5615 84.7199 12.5615C84.6474 12.5615 84.5976 12.5615 84.5704 12.5615C84.3303 12.5615 84.1423 12.5411 84.0064 12.5003C83.8751 12.4641 83.7845 12.3984 83.7347 12.3033C83.6848 12.2082 83.6599 12.0723 83.6599 11.8956V11.2909ZM82.1854 11.3248H82.8173C82.772 11.5241 82.6996 11.6985 82.5999 11.848C82.5048 11.993 82.3666 12.1176 82.1854 12.2218C82.0088 12.3259 81.7777 12.412 81.4924 12.48C81.207 12.5479 80.8536 12.6023 80.4324 12.643C80.4142 12.5706 80.3757 12.4845 80.3168 12.3848C80.258 12.2852 80.2036 12.2059 80.1538 12.147C80.5252 12.1244 80.8332 12.0927 81.0779 12.0519C81.3225 12.0111 81.5195 11.959 81.669 11.8956C81.823 11.8322 81.9385 11.7552 82.0156 11.6646C82.0926 11.5694 82.1492 11.4562 82.1854 11.3248ZM83.9589 7.36343H86.0177V7.74395H83.9589V7.36343ZM83.9249 6.71113H86.3507V7.13241H83.9249V6.71113ZM81.6486 6.71792H82.1582V7.35664H81.6486V6.71792ZM81.6486 8.08369H82.1582V8.73599H81.6486V8.08369ZM80.8197 7.23433H83.062V8.28753H80.8197V7.9342H82.5184V7.60125H80.8197V7.23433ZM85.413 8.30112V8.7224H85.7799V8.30112H85.413ZM84.7063 8.30112V8.7224H85.0732V8.30112H84.7063ZM84.0132 8.30112V8.7224H84.3666V8.30112H84.0132ZM83.5716 7.97497H86.242V9.04856H83.5716V7.97497ZM83.9113 6.34421L84.4753 6.43254C84.3802 6.68168 84.2579 6.9263 84.1084 7.16638C83.9589 7.40194 83.7641 7.61937 83.524 7.81869C83.4742 7.7598 83.4062 7.69412 83.3202 7.62164C83.2386 7.54463 83.1639 7.49027 83.0959 7.45856C83.3088 7.29549 83.481 7.11429 83.6123 6.91497C83.7437 6.71566 83.8434 6.5254 83.9113 6.34421ZM83.2318 6.55485V6.94215H81.0371V8.63407H83.2862V9.01458H80.4799V6.55485H83.2318Z" fill="#424242"/>
<rect x="65.7746" y="23.4882" width="43.3205" height="15.4705" stroke="#43B71B" stroke-width="0.679485"/>
<path d="M77.2184 29.0042L77.7076 28.6713C77.8345 28.7755 77.9658 28.8955 78.1017 29.0314C78.2376 29.1628 78.3645 29.2964 78.4822 29.4323C78.6 29.5637 78.6951 29.6814 78.7676 29.7856L78.2444 30.1525C78.181 30.0438 78.0927 29.9238 77.9794 29.7924C77.8707 29.6565 77.7484 29.5206 77.6125 29.3847C77.4811 29.2443 77.3498 29.1175 77.2184 29.0042ZM72.7949 30.4651H78.8831V31.0698H72.7949V30.4651ZM72.6794 32.422C72.9512 32.3767 73.2661 32.3201 73.6239 32.2521C73.9863 32.1842 74.3691 32.1117 74.7722 32.0347C75.1754 31.9577 75.5763 31.8784 75.9749 31.7969L76.0225 32.3813C75.6556 32.4628 75.2819 32.5443 74.9013 32.6259C74.5254 32.7074 74.163 32.7867 73.8142 32.8637C73.4654 32.9407 73.146 33.0109 72.8561 33.0743L72.6794 32.422ZM74.1811 29.242H74.8266V34.0052C74.8266 34.1955 74.8017 34.3404 74.7519 34.4401C74.7066 34.5443 74.6228 34.6213 74.5004 34.6711C74.3781 34.7255 74.2196 34.7594 74.0248 34.773C73.8346 34.7912 73.599 34.798 73.3181 34.7934C73.3091 34.7345 73.291 34.6666 73.2638 34.5896C73.2411 34.5126 73.214 34.4333 73.1822 34.3518C73.1505 34.2748 73.1188 34.2068 73.0871 34.1479C73.291 34.1524 73.4812 34.157 73.6579 34.1615C73.8391 34.1615 73.9591 34.1592 74.018 34.1547C74.0814 34.1502 74.1245 34.1389 74.1471 34.1207C74.1698 34.0981 74.1811 34.0596 74.1811 34.0052V29.242ZM75.5129 28.549L75.9613 29.0925C75.685 29.1831 75.3792 29.2669 75.044 29.344C74.7088 29.4164 74.3646 29.4821 74.0112 29.541C73.6624 29.5999 73.3227 29.6497 72.992 29.6905C72.9784 29.6135 72.9535 29.5229 72.9172 29.4187C72.881 29.3145 72.8425 29.2262 72.8017 29.1537C73.1234 29.1039 73.4495 29.0495 73.7802 28.9906C74.1154 28.9272 74.4325 28.8593 74.7315 28.7868C75.0304 28.7098 75.2909 28.6305 75.5129 28.549ZM76.1924 28.5422H76.8651C76.856 29.131 76.8741 29.7018 76.9194 30.2545C76.9647 30.8071 77.0281 31.3213 77.1097 31.7969C77.1957 32.268 77.2954 32.6825 77.4086 33.0404C77.5264 33.3937 77.6533 33.67 77.7892 33.8693C77.9251 34.0641 78.0655 34.1615 78.2104 34.1615C78.2965 34.1615 78.3599 34.0709 78.4007 33.8897C78.446 33.704 78.4777 33.4005 78.4958 32.9792C78.5638 33.0517 78.6476 33.1219 78.7472 33.1898C78.8514 33.2578 78.9465 33.3076 79.0326 33.3393C78.9964 33.7244 78.9443 34.0233 78.8763 34.2362C78.8129 34.4537 78.7223 34.6054 78.6045 34.6915C78.4868 34.7776 78.335 34.8206 78.1493 34.8206C77.9228 34.8206 77.7167 34.7391 77.531 34.576C77.3498 34.4129 77.1867 34.1864 77.0417 33.8965C76.8968 33.6021 76.7722 33.2578 76.668 32.8637C76.5638 32.4696 76.4755 32.0392 76.403 31.5727C76.3351 31.1061 76.283 30.6169 76.2467 30.105C76.215 29.5886 76.1969 29.0676 76.1924 28.5422ZM78.0338 31.3484L78.6045 31.5863C78.378 32.0075 78.1063 32.4016 77.7892 32.7686C77.4766 33.1355 77.1301 33.4707 76.7495 33.7742C76.3736 34.0732 75.9772 34.3336 75.5604 34.5556C75.5151 34.4786 75.4517 34.3903 75.3702 34.2906C75.2887 34.1955 75.2071 34.1117 75.1256 34.0392C75.5242 33.8535 75.907 33.6224 76.2739 33.3461C76.6408 33.0698 76.976 32.7618 77.2795 32.422C77.583 32.0823 77.8345 31.7244 78.0338 31.3484ZM80.8332 29.5818H82.9125V34.0868H80.8332V33.5092H82.3213V30.1525H80.8332V29.5818ZM80.4595 29.5818H81.0507V34.61H80.4595V29.5818ZM80.8061 31.4436H82.6203V32.0007H80.8061V31.4436ZM81.4652 28.4742L82.165 28.5897C82.0926 28.8072 82.0156 29.0269 81.934 29.2488C81.8525 29.4708 81.7777 29.6588 81.7098 29.8128L81.2002 29.6905C81.2319 29.5772 81.2659 29.4504 81.3021 29.31C81.3383 29.165 81.37 29.0201 81.3972 28.8751C81.4289 28.7256 81.4516 28.592 81.4652 28.4742ZM83.8502 29.5478L85.8886 29.5478V30.139L83.8502 30.139V29.5478ZM85.6644 29.5478H86.2623C86.2623 29.5478 86.2623 29.5682 86.2623 29.609C86.2623 29.6452 86.2623 29.6882 86.2623 29.7381C86.2623 29.7879 86.2623 29.8264 86.2623 29.8536C86.2397 30.6282 86.2148 31.285 86.1876 31.8241C86.1604 32.3586 86.1287 32.798 86.0925 33.1423C86.0608 33.4865 86.02 33.7538 85.9702 33.9441C85.9249 34.1343 85.8682 34.2725 85.8003 34.3586C85.7142 34.4718 85.6259 34.5488 85.5353 34.5896C85.4447 34.6349 85.3337 34.6666 85.2023 34.6847C85.0846 34.6983 84.9305 34.7028 84.7403 34.6983C84.5546 34.6983 84.3643 34.6938 84.1695 34.6847C84.165 34.5941 84.1423 34.4877 84.1016 34.3653C84.0653 34.2476 84.0155 34.1456 83.9521 34.0596C84.1741 34.0777 84.3779 34.089 84.5636 34.0936C84.7493 34.0981 84.8852 34.1003 84.9713 34.1003C85.0393 34.1003 85.0936 34.0936 85.1344 34.08C85.1797 34.0664 85.2227 34.0369 85.2635 33.9916C85.3179 33.9282 85.3654 33.8059 85.4062 33.6247C85.447 33.439 85.4832 33.1785 85.5149 32.8433C85.5466 32.5036 85.5738 32.0732 85.5964 31.5523C85.6236 31.0313 85.6463 30.4062 85.6644 29.6769V29.5478ZM83.9385 28.4742L84.5568 28.6169C84.4708 28.9521 84.3666 29.2828 84.2443 29.609C84.1265 29.9351 83.9974 30.2431 83.857 30.5331C83.7165 30.8184 83.567 31.0698 83.4085 31.2873C83.3723 31.251 83.3202 31.2103 83.2522 31.165C83.1888 31.1151 83.1231 31.0676 83.0552 31.0223C82.9917 30.977 82.9329 30.9407 82.8785 30.9136C83.0325 30.7188 83.1752 30.49 83.3066 30.2273C83.4425 29.9645 83.5625 29.6837 83.6667 29.3847C83.7754 29.0812 83.866 28.7777 83.9385 28.4742ZM83.6123 31.4028L84.1152 31.1174C84.2375 31.2714 84.3643 31.4436 84.4957 31.6338C84.6316 31.8195 84.7561 32.0007 84.8694 32.1774C84.9872 32.3541 85.0823 32.5104 85.1548 32.6463L84.6112 32.986C84.5478 32.8456 84.4594 32.6848 84.3462 32.5036C84.2329 32.3224 84.1129 32.1344 83.9861 31.9396C83.8592 31.7448 83.7347 31.5659 83.6123 31.4028ZM88.1377 30.6486H93.1795V31.1718H88.756V34.7798H88.1377V30.6486ZM92.8533 30.6486H93.4513V34.1479C93.4513 34.2974 93.4286 34.4106 93.3833 34.4877C93.338 34.5692 93.261 34.6303 93.1523 34.6711C93.0391 34.7119 92.8896 34.7368 92.7039 34.7459C92.5227 34.7549 92.2894 34.7594 92.004 34.7594C91.9949 34.6824 91.9723 34.5986 91.936 34.508C91.8998 34.4174 91.8613 34.3382 91.8205 34.2702C91.9519 34.2748 92.0765 34.277 92.1942 34.277C92.3165 34.2815 92.423 34.2815 92.5136 34.277C92.6042 34.277 92.6676 34.277 92.7039 34.277C92.7582 34.277 92.7967 34.2657 92.8194 34.243C92.842 34.2249 92.8533 34.1909 92.8533 34.1411V30.6486ZM89.8228 32.3337H92.0515V33.9373H89.8228V33.482H91.5216V32.7957H89.8228V32.3337ZM89.4831 32.3337H90.0267V34.2362H89.4831V32.3337ZM87.7776 29.1809H93.7978V29.7313H87.7776V29.1809ZM89.2181 29.8875L89.7685 29.7041C89.841 29.8219 89.9157 29.9532 89.9927 30.0982C90.0742 30.2431 90.1377 30.3632 90.183 30.4583L89.6054 30.6825C89.5646 30.5784 89.5057 30.4515 89.4287 30.302C89.3563 30.148 89.286 30.0098 89.2181 29.8875ZM91.7662 29.7448L92.4185 29.8807C92.3098 30.0619 92.1965 30.2454 92.0787 30.4311C91.961 30.6169 91.8545 30.7731 91.7594 30.9L91.2566 30.7573C91.32 30.6622 91.3834 30.5557 91.4468 30.4379C91.5102 30.3201 91.5691 30.2001 91.6235 30.0778C91.6824 29.9555 91.7299 29.8445 91.7662 29.7448ZM90.346 28.5965L90.9508 28.447C91.0097 28.5829 91.0686 28.7324 91.1274 28.8955C91.1863 29.0586 91.2316 29.199 91.2633 29.3168L90.6314 29.4934C90.6042 29.3757 90.5612 29.233 90.5023 29.0654C90.448 28.8932 90.3959 28.7369 90.346 28.5965ZM89.8568 30.9204H90.4208C90.4027 31.1967 90.3506 31.4322 90.2645 31.627C90.183 31.8218 90.0448 31.9826 89.85 32.1095C89.6598 32.2363 89.3902 32.3382 89.0414 32.4152C89.0188 32.3518 88.9757 32.2771 88.9123 32.191C88.8534 32.1004 88.7968 32.0302 88.7425 31.9804C89.0369 31.926 89.2611 31.8558 89.4151 31.7697C89.5692 31.6836 89.6779 31.5727 89.7413 31.4368C89.8047 31.2963 89.8432 31.1242 89.8568 30.9204ZM91.0391 30.9339H91.6167V31.4979C91.6167 31.5704 91.6235 31.6225 91.6371 31.6542C91.6507 31.6859 91.6869 31.7018 91.7458 31.7018C91.7684 31.7018 91.8001 31.7018 91.8409 31.7018C91.8862 31.7018 91.9338 31.7018 91.9836 31.7018C92.038 31.7018 92.0878 31.7018 92.1331 31.7018C92.1784 31.7018 92.2124 31.7018 92.235 31.7018C92.2848 31.7018 92.3505 31.6995 92.4321 31.695C92.5136 31.6859 92.577 31.6769 92.6223 31.6678C92.6268 31.7403 92.6314 31.815 92.6359 31.892C92.6404 31.9645 92.6495 32.037 92.6631 32.1095C92.6178 32.123 92.5566 32.1344 92.4796 32.1434C92.4026 32.148 92.3256 32.1502 92.2486 32.1502C92.2169 32.1502 92.1716 32.1502 92.1127 32.1502C92.0538 32.1502 91.9904 32.1502 91.9224 32.1502C91.8545 32.1502 91.7911 32.1502 91.7322 32.1502C91.6778 32.1502 91.6371 32.1502 91.6099 32.1502C91.4513 32.1502 91.3313 32.1253 91.2498 32.0755C91.1682 32.0257 91.1116 31.9532 91.0799 31.858C91.0527 31.7584 91.0391 31.6361 91.0391 31.4911V30.9339ZM98.6086 30.8524H101.116V31.4368H98.6086V30.8524ZM97.1817 33.8693H100.477V34.4401H97.1817V33.8693ZM98.296 30.1186H98.9619V32.6191H98.296V30.1186ZM96.8419 32.225L100.797 32.225V34.6983H100.137V32.8229H97.467V34.7119H96.8419V32.225ZM95.9654 29.2828H101.313V29.8943H95.9654V29.2828ZM95.6732 29.2828H96.3323V31.0427C96.3323 31.3145 96.3232 31.6134 96.3051 31.9396C96.287 32.2612 96.253 32.5919 96.2032 32.9316C96.1534 33.2714 96.0786 33.6021 95.979 33.9237C95.8838 34.2453 95.7593 34.5352 95.6053 34.7934C95.5645 34.7572 95.5079 34.7142 95.4354 34.6643C95.3674 34.6145 95.2972 34.5669 95.2247 34.5216C95.1523 34.4763 95.0888 34.4446 95.0345 34.4265C95.1794 34.1819 95.295 33.9146 95.381 33.6247C95.4671 33.3348 95.5305 33.0404 95.5713 32.7414C95.6121 32.4379 95.6392 32.1412 95.6528 31.8513C95.6664 31.5568 95.6732 31.2873 95.6732 31.0427V29.2828ZM97.9835 28.6373L98.6222 28.4946C98.7218 28.6396 98.8124 28.8004 98.894 28.977C98.9755 29.1537 99.0321 29.31 99.0638 29.4459L98.3844 29.609C98.3617 29.4731 98.3119 29.3145 98.2349 29.1333C98.1579 28.9476 98.0741 28.7822 97.9835 28.6373Z" fill="#43B71B"/>
<rect x="65.7746" y="45.6386" width="43.3205" height="15.4705" stroke="#424242" stroke-width="0.679485"/>
<path d="M76.8039 53.4784L77.4562 53.6687C77.2025 54.2802 76.8673 54.8012 76.4506 55.2315C76.0384 55.6573 75.5537 56.0084 74.9965 56.2847C74.4393 56.5565 73.8187 56.7785 73.1347 56.9506C73.112 56.9008 73.0781 56.8396 73.0328 56.7671C72.9875 56.6947 72.9376 56.6222 72.8833 56.5497C72.8334 56.4772 72.7881 56.4183 72.7474 56.373C73.4178 56.2371 74.0203 56.0492 74.5548 55.8091C75.0893 55.5645 75.5469 55.2519 75.9274 54.8714C76.3079 54.4909 76.6001 54.0266 76.8039 53.4784ZM74.5344 52.3165L75.1595 52.5611C75.001 52.7559 74.8198 52.9507 74.616 53.1455C74.4166 53.3403 74.2083 53.5237 73.9908 53.6959C73.7734 53.8635 73.565 54.013 73.3657 54.1443C73.3295 54.099 73.2796 54.0469 73.2162 53.9881C73.1528 53.9292 73.0894 53.8703 73.026 53.8114C72.9625 53.748 72.9059 53.7004 72.8561 53.6687C73.0599 53.56 73.2638 53.4331 73.4676 53.2882C73.676 53.1387 73.8731 52.9824 74.0588 52.8193C74.2445 52.6517 74.4031 52.4841 74.5344 52.3165ZM74.8878 53.5124C75.2003 54.2734 75.6963 54.8918 76.3758 55.3674C77.0553 55.8385 77.9115 56.1579 78.9443 56.3255C78.9035 56.3663 78.8559 56.4206 78.8016 56.4886C78.7518 56.561 78.7042 56.6335 78.6589 56.706C78.6136 56.7785 78.5774 56.8442 78.5502 56.903C77.8299 56.7671 77.198 56.561 76.6544 56.2847C76.1154 56.0039 75.651 55.6483 75.2615 55.2179C74.8764 54.7876 74.5593 54.2802 74.3102 53.6959L74.8878 53.5124ZM72.8629 51.5419H78.788V52.167H72.8629V51.5419ZM76.5661 52.6631L77.0757 52.2961C77.275 52.432 77.4857 52.586 77.7076 52.7582C77.9341 52.9303 78.147 53.1025 78.3463 53.2746C78.5457 53.4467 78.7065 53.6053 78.8288 53.7502L78.2852 54.1715C78.1719 54.0266 78.0202 53.8657 77.8299 53.6891C77.6397 53.5079 77.4336 53.329 77.2116 53.1523C76.9896 52.9711 76.7745 52.808 76.5661 52.6631ZM75.2207 50.7741L75.8322 50.5634C75.9274 50.7039 76.0225 50.8602 76.1176 51.0323C76.2128 51.2044 76.283 51.3517 76.3283 51.474L75.6895 51.7186C75.6488 51.5917 75.5831 51.44 75.4925 51.2633C75.4064 51.0867 75.3158 50.9236 75.2207 50.7741ZM83.0008 51.8545L83.4085 51.5011C83.6214 51.5781 83.8502 51.6665 84.0948 51.7661C84.3394 51.8658 84.5727 51.9677 84.7946 52.0719C85.0211 52.1761 85.2114 52.2735 85.3654 52.3641L84.9305 52.7582C84.7901 52.6721 84.6089 52.5747 84.387 52.466C84.1695 52.3573 83.9385 52.2486 83.6939 52.1399C83.4538 52.0311 83.2228 51.936 83.0008 51.8545ZM82.3553 52.3437H85.8071V52.8193H82.9329V55.8498H82.3553V52.3437ZM85.5829 52.3437H86.1604V55.2859C86.1604 55.4263 86.1423 55.5328 86.1061 55.6052C86.0743 55.6777 86.0109 55.7366 85.9158 55.7819C85.8252 55.8227 85.7052 55.8476 85.5557 55.8566C85.4107 55.8657 85.2295 55.8702 85.0121 55.8702C85.003 55.7932 84.9826 55.7094 84.9509 55.6188C84.9192 55.5282 84.8852 55.4489 84.849 55.381C84.9894 55.3855 85.1185 55.3878 85.2363 55.3878C85.3541 55.3878 85.4334 55.3878 85.4741 55.3878C85.5149 55.3833 85.5421 55.3742 85.5557 55.3606C85.5738 55.347 85.5829 55.3198 85.5829 55.2791V52.3437ZM82.3961 50.8964H85.7187V51.3788H82.3961V50.8964ZM82.7018 53.3222H85.7799V53.7842H82.7018V53.3222ZM82.7018 54.3006H85.7799V54.7831H82.7018V54.3006ZM83.9521 52.5543H84.5093V55.8363H83.9521V52.5543ZM85.5013 50.8964H85.644L85.7731 50.8624L86.1604 51.1682C86.0064 51.3131 85.832 51.4581 85.6372 51.6031C85.4424 51.748 85.2386 51.8839 85.0257 52.0108C84.8128 52.1331 84.6021 52.2418 84.3938 52.3369C84.353 52.278 84.2986 52.2123 84.2307 52.1399C84.1673 52.0674 84.1106 52.0108 84.0608 51.97C84.242 51.8884 84.4232 51.7933 84.6044 51.6846C84.7901 51.5759 84.9623 51.4626 85.1208 51.3449C85.2793 51.2271 85.4062 51.1161 85.5013 51.0119V50.8964ZM80.4324 50.9304L80.908 50.6382C81.0167 50.7469 81.1254 50.8647 81.2341 50.9915C81.3474 51.1184 81.4538 51.2407 81.5535 51.3584C81.6532 51.4762 81.7347 51.5804 81.7981 51.671L81.3089 52.0243C81.2455 51.9292 81.1639 51.8182 81.0643 51.6914C80.9691 51.5646 80.865 51.4355 80.7517 51.3041C80.643 51.1682 80.5365 51.0436 80.4324 50.9304ZM80.2149 52.2146H81.6826V52.7378H80.2149V52.2146ZM81.5059 55.2587C81.6373 55.5577 81.8185 55.7796 82.0495 55.9246C82.2806 56.0695 82.5614 56.1647 82.8921 56.21C83.2273 56.2553 83.6101 56.2779 84.0404 56.2779C84.2805 56.2779 84.5478 56.2734 84.8422 56.2643C85.1367 56.2553 85.4334 56.2439 85.7323 56.2304C86.0313 56.2168 86.3008 56.1986 86.5409 56.176C86.5092 56.2213 86.4798 56.2802 86.4526 56.3527C86.4254 56.4251 86.4005 56.4999 86.3778 56.5769C86.3597 56.6539 86.3439 56.7218 86.3303 56.7807C86.1083 56.7943 85.8682 56.8057 85.61 56.8147C85.3518 56.8238 85.0891 56.8306 84.8218 56.8351C84.5546 56.8396 84.2918 56.8419 84.0336 56.8419C83.635 56.8419 83.2794 56.8238 82.9668 56.7875C82.6588 56.7513 82.3847 56.6856 82.1447 56.5905C81.9091 56.4954 81.703 56.3572 81.5263 56.176C81.3497 55.9903 81.1979 55.7457 81.0711 55.4422L81.5059 55.2587ZM81.4788 53.8861H81.635L81.737 53.8725L82.0495 53.9881C81.9363 54.7264 81.7438 55.3425 81.472 55.8363C81.2002 56.3255 80.8718 56.6992 80.4867 56.9574C80.4595 56.9121 80.421 56.86 80.3712 56.8011C80.3214 56.7468 80.2693 56.6924 80.2149 56.638C80.1606 56.5882 80.1107 56.5497 80.0654 56.5225C80.4324 56.296 80.7381 55.9699 80.9827 55.5441C81.2274 55.1183 81.3927 54.6019 81.4788 53.9948V53.8861ZM80.3236 54.4977V54.022L80.5886 53.8861H81.6758V54.3957H80.7381C80.6521 54.3957 80.5683 54.4071 80.4867 54.4297C80.4052 54.4478 80.3508 54.4705 80.3236 54.4977ZM80.3236 54.4977C80.3146 54.4478 80.2942 54.389 80.2625 54.321C80.2353 54.2531 80.2081 54.1851 80.1809 54.1172C80.1538 54.0447 80.1289 53.9881 80.1062 53.9473C80.1606 53.9337 80.2149 53.9133 80.2693 53.8861C80.3236 53.8544 80.3825 53.8046 80.4459 53.7366C80.5003 53.6868 80.575 53.6007 80.6702 53.4784C80.7653 53.3561 80.8672 53.2202 80.9759 53.0707C81.0892 52.9167 81.1934 52.7695 81.2885 52.6291C81.3882 52.4841 81.4674 52.3663 81.5263 52.2758V52.2554L81.7098 52.1806L82.1107 52.3641C82.0291 52.4819 81.9318 52.62 81.8185 52.7786C81.7098 52.9326 81.5943 53.0934 81.472 53.261C81.3497 53.4241 81.2274 53.5826 81.105 53.7366C80.9873 53.8861 80.8785 54.0152 80.7789 54.124C80.7789 54.124 80.7562 54.1375 80.7109 54.1647C80.6656 54.1874 80.6113 54.2191 80.5479 54.2598C80.489 54.2961 80.4369 54.3369 80.3916 54.3822C80.3463 54.4229 80.3236 54.4614 80.3236 54.4977ZM93.295 50.6858L93.6823 51.2293C93.406 51.3154 93.0934 51.3947 92.7446 51.4672C92.4004 51.5351 92.0448 51.5963 91.6778 51.6506C91.3154 51.7005 90.9666 51.7435 90.6314 51.7797C90.6178 51.7027 90.5929 51.6144 90.5567 51.5147C90.5204 51.4105 90.4842 51.3222 90.448 51.2497C90.6971 51.2225 90.9508 51.1886 91.209 51.1478C91.4717 51.1025 91.7277 51.0572 91.9768 51.0119C92.2305 50.9621 92.4683 50.91 92.6903 50.8556C92.9168 50.8013 93.1183 50.7446 93.295 50.6858ZM90.7741 52.9009H93.9269V53.5124H90.7741V52.9009ZM92.2146 53.2338H92.8533V56.9098H92.2146V53.2338ZM87.6077 54.1783C87.8206 54.1285 88.0607 54.0696 88.328 54.0016C88.5998 53.9292 88.8874 53.8522 89.1909 53.7706C89.4944 53.6846 89.7957 53.6007 90.0946 53.5192L90.1694 54.1104C89.7572 54.2372 89.3381 54.3618 88.9123 54.4841C88.491 54.6019 88.1128 54.706 87.7776 54.7966L87.6077 54.1783ZM87.7096 51.97H90.1218V52.5679H87.7096V51.97ZM88.6134 50.6382H89.2453V56.2032C89.2453 56.3663 89.2249 56.4931 89.1841 56.5837C89.1479 56.6743 89.0777 56.7468 88.9735 56.8011C88.8738 56.8464 88.747 56.8759 88.593 56.8895C88.439 56.9076 88.2442 56.9166 88.0086 56.9166C87.9996 56.8306 87.9769 56.7309 87.9407 56.6177C87.9044 56.5044 87.8659 56.4048 87.8252 56.3187C87.9656 56.3232 88.0992 56.3277 88.226 56.3323C88.3529 56.3323 88.439 56.3323 88.4843 56.3323C88.5296 56.3277 88.5613 56.3164 88.5794 56.2983C88.602 56.2802 88.6134 56.2485 88.6134 56.2032V50.6382ZM90.448 51.2497H91.0799V53.3561C91.0799 53.7729 91.0595 54.1874 91.0187 54.5996C90.9825 55.0118 90.9032 55.415 90.7809 55.8091C90.6631 56.2032 90.4819 56.5814 90.2373 56.9438C90.1739 56.8759 90.0924 56.8034 89.9927 56.7264C89.8931 56.6494 89.8025 56.5837 89.7209 56.5293C89.9383 56.1941 90.0969 55.8498 90.1966 55.4965C90.3007 55.1386 90.3687 54.7808 90.4004 54.4229C90.4321 54.0605 90.448 53.7049 90.448 53.3561V51.2497ZM97.8204 51.2022H101.014V56.6856H100.348V51.8137H98.4591V56.74H97.8204V51.2022ZM98.1873 55.5237H100.674V56.1352H98.1873V55.5237ZM95.0481 54.2938C95.2565 54.244 95.492 54.1851 95.7547 54.1172C96.022 54.0492 96.3029 53.9745 96.5973 53.8929C96.8963 53.8114 97.1907 53.7298 97.4806 53.6483L97.5622 54.2395C97.1545 54.3618 96.74 54.4818 96.3187 54.5996C95.902 54.7174 95.5282 54.8261 95.1976 54.9257L95.0481 54.2938ZM95.1364 51.8477L97.4806 51.8477V52.4456L95.1364 52.4456V51.8477ZM96.0673 50.6382H96.7196V56.21C96.7196 56.3776 96.6992 56.5067 96.6585 56.5973C96.6177 56.6924 96.5452 56.7671 96.441 56.8215C96.3414 56.8713 96.2123 56.903 96.0537 56.9166C95.8997 56.9348 95.7049 56.9415 95.4694 56.937C95.4603 56.851 95.4354 56.749 95.3946 56.6313C95.3584 56.518 95.3176 56.4161 95.2723 56.3255C95.4173 56.33 95.5532 56.3345 95.68 56.3391C95.8068 56.3391 95.8929 56.3368 95.9382 56.3323C95.9835 56.3323 96.0152 56.3232 96.0333 56.3051C96.056 56.287 96.0673 56.253 96.0673 56.2032V50.6382Z" fill="#424242"/>
<rect x="65.7746" y="67.789" width="43.3205" height="15.4705" stroke="#424242" stroke-width="0.679485"/>
<path d="M76.8039 75.6288L77.4562 75.8191C77.2025 76.4306 76.8673 76.9516 76.4506 77.3819C76.0384 77.8077 75.5537 78.1588 74.9965 78.4351C74.4393 78.7069 73.8187 78.9289 73.1347 79.101C73.112 79.0512 73.0781 78.99 73.0328 78.9175C72.9875 78.8451 72.9376 78.7726 72.8833 78.7001C72.8334 78.6276 72.7881 78.5687 72.7474 78.5234C73.4178 78.3875 74.0203 78.1995 74.5548 77.9595C75.0893 77.7149 75.5469 77.4023 75.9274 77.0218C76.3079 76.6413 76.6001 76.1769 76.8039 75.6288ZM74.5344 74.4669L75.1595 74.7115C75.001 74.9063 74.8198 75.1011 74.616 75.2959C74.4166 75.4907 74.2083 75.6741 73.9908 75.8463C73.7734 76.0139 73.565 76.1634 73.3657 76.2947C73.3295 76.2494 73.2796 76.1973 73.2162 76.1384C73.1528 76.0796 73.0894 76.0207 73.026 75.9618C72.9625 75.8984 72.9059 75.8508 72.8561 75.8191C73.0599 75.7104 73.2638 75.5835 73.4676 75.4386C73.676 75.2891 73.8731 75.1328 74.0588 74.9697C74.2445 74.8021 74.4031 74.6345 74.5344 74.4669ZM74.8878 75.6628C75.2003 76.4238 75.6963 77.0422 76.3758 77.5178C77.0553 77.9889 77.9115 78.3083 78.9443 78.4759C78.9035 78.5166 78.8559 78.571 78.8016 78.6389C78.7518 78.7114 78.7042 78.7839 78.6589 78.8564C78.6136 78.9289 78.5774 78.9945 78.5502 79.0534C77.8299 78.9175 77.198 78.7114 76.6544 78.4351C76.1154 78.1543 75.651 77.7987 75.2615 77.3683C74.8764 76.938 74.5593 76.4306 74.3102 75.8463L74.8878 75.6628ZM72.8629 73.6923H78.788V74.3174H72.8629V73.6923ZM76.5661 74.8134L77.0757 74.4465C77.275 74.5824 77.4857 74.7364 77.7076 74.9086C77.9341 75.0807 78.147 75.2528 78.3463 75.425C78.5457 75.5971 78.7065 75.7557 78.8288 75.9006L78.2852 76.3219C78.1719 76.1769 78.0202 76.0161 77.8299 75.8395C77.6397 75.6583 77.4336 75.4793 77.2116 75.3027C76.9896 75.1215 76.7745 74.9584 76.5661 74.8134ZM75.2207 72.9245L75.8322 72.7138C75.9274 72.8543 76.0225 73.0105 76.1176 73.1827C76.2128 73.3548 76.283 73.502 76.3283 73.6243L75.6895 73.869C75.6488 73.7421 75.5831 73.5904 75.4925 73.4137C75.4064 73.237 75.3158 73.074 75.2207 72.9245ZM81.7709 74.6708V75.2415H84.9102V74.6708H81.7709ZM81.7709 73.6176V74.1747H84.9102V73.6176H81.7709ZM81.139 73.0944H85.5693V75.7647H81.139V73.0944ZM81.5399 76.2743H85.5693V76.8383H81.5399V76.2743ZM85.413 76.2743H86.0653C86.0653 76.2743 86.063 76.2902 86.0585 76.3219C86.0585 76.3536 86.0562 76.3921 86.0517 76.4374C86.0517 76.4782 86.0494 76.5122 86.0449 76.5393C85.9996 77.0422 85.952 77.4521 85.9022 77.7692C85.8524 78.0863 85.798 78.3309 85.7391 78.5031C85.6848 78.6752 85.6214 78.7998 85.5489 78.8768C85.4809 78.9538 85.4062 79.0059 85.3246 79.0331C85.2431 79.0648 85.1502 79.0851 85.0461 79.0942C84.9555 79.1033 84.8332 79.1078 84.6791 79.1078C84.5296 79.1078 84.3688 79.1033 84.1967 79.0942C84.1922 79.0127 84.1741 78.9198 84.1423 78.8156C84.1152 78.7114 84.0767 78.6208 84.0268 78.5438C84.1854 78.5574 84.3326 78.5665 84.4685 78.571C84.6044 78.5755 84.7018 78.5778 84.7607 78.5778C84.8196 78.5778 84.8671 78.571 84.9034 78.5574C84.9396 78.5484 84.9736 78.528 85.0053 78.4963C85.0596 78.4419 85.1095 78.3377 85.1548 78.1837C85.2046 78.0297 85.2499 77.8054 85.2907 77.511C85.336 77.2166 85.3767 76.836 85.413 76.3695V76.2743ZM82.0088 75.4861L82.6271 75.6832C82.464 75.955 82.2715 76.2177 82.0495 76.4714C81.8321 76.7205 81.6011 76.9493 81.3565 77.1577C81.1118 77.366 80.865 77.5495 80.6158 77.7081C80.5841 77.6673 80.5365 77.6175 80.4731 77.5586C80.4142 77.4997 80.3531 77.4431 80.2897 77.3887C80.2308 77.3298 80.1741 77.2845 80.1198 77.2528C80.4958 77.049 80.8514 76.793 81.1866 76.485C81.5263 76.1724 81.8004 75.8395 82.0088 75.4861ZM82.7154 76.4578L83.327 76.6481C83.1594 76.9652 82.96 77.2664 82.729 77.5518C82.498 77.8326 82.2488 78.0931 81.9816 78.3332C81.7188 78.5687 81.4493 78.7748 81.173 78.9515C81.1413 78.9107 81.0937 78.8609 81.0303 78.802C80.9714 78.7431 80.9103 78.6842 80.8468 78.6254C80.788 78.571 80.7336 78.5257 80.6838 78.4895C81.105 78.263 81.4946 77.9731 81.8525 77.6197C82.2149 77.2619 82.5025 76.8746 82.7154 76.4578ZM84.1152 76.4986L84.7267 76.6481C84.55 77.1599 84.3145 77.631 84.02 78.0614C83.7301 78.4917 83.413 78.8496 83.0688 79.135C83.037 79.0987 82.9895 79.0557 82.9261 79.0059C82.8626 78.956 82.797 78.9062 82.729 78.8564C82.6656 78.8066 82.6112 78.7681 82.5659 78.7409C82.9102 78.4872 83.216 78.1656 83.4832 77.776C83.7505 77.3819 83.9611 76.9561 84.1152 76.4986ZM90.5567 73.1351H93.5328V76.3015H92.8805V73.7942H90.5567V73.1351ZM91.0255 75.3163H93.1931V75.9482H91.0255V75.3163ZM90.6994 75.3163H91.3721V78.0614C91.3721 78.1973 91.3947 78.2856 91.44 78.3264C91.4898 78.3672 91.6008 78.3875 91.773 78.3875C91.8047 78.3875 91.8568 78.3875 91.9292 78.3875C92.0062 78.3875 92.0901 78.3875 92.1807 78.3875C92.2758 78.3875 92.3732 78.3875 92.4728 78.3875C92.5725 78.3875 92.6608 78.3875 92.7378 78.3875C92.8194 78.3875 92.8805 78.3875 92.9213 78.3875C93.03 78.3875 93.1093 78.3626 93.1591 78.3128C93.2135 78.2584 93.252 78.1543 93.2746 78.0002C93.2973 77.8462 93.3154 77.622 93.329 77.3275C93.3788 77.3638 93.44 77.4 93.5124 77.4363C93.5849 77.4725 93.6574 77.5065 93.7299 77.5382C93.8069 77.5654 93.8771 77.5857 93.9405 77.5993C93.9179 77.9572 93.8748 78.2381 93.8114 78.4419C93.748 78.6412 93.6506 78.7816 93.5192 78.8632C93.3879 78.9447 93.2044 78.9855 92.9689 78.9855C92.9326 78.9855 92.8715 78.9855 92.7854 78.9855C92.7039 78.9855 92.6065 78.9855 92.4932 78.9855C92.3845 78.9855 92.2735 78.9855 92.1603 78.9855C92.0515 78.9855 91.9542 78.9855 91.8681 78.9855C91.7865 78.9855 91.7299 78.9855 91.6982 78.9855C91.4445 78.9855 91.2452 78.9583 91.1003 78.9039C90.9553 78.8541 90.8511 78.7613 90.7877 78.6254C90.7288 78.494 90.6994 78.306 90.6994 78.0614V75.3163ZM89.4355 75.5065L89.918 75.3299C89.9904 75.4748 90.0607 75.6311 90.1286 75.7987C90.1966 75.9663 90.2577 76.1294 90.3121 76.2879C90.3664 76.4419 90.4072 76.5778 90.4344 76.6956L89.918 76.9131C89.8908 76.7953 89.8523 76.6549 89.8025 76.4918C89.7526 76.3287 89.696 76.1611 89.6326 75.989C89.5692 75.8168 89.5035 75.656 89.4355 75.5065ZM88.7628 77.2732L89.286 77.1509C89.3313 77.3955 89.3721 77.6605 89.4084 77.9459C89.4446 78.2267 89.4695 78.4713 89.4831 78.6797L88.9327 78.8088C88.9327 78.6684 88.9237 78.5098 88.9055 78.3332C88.8874 78.1565 88.8648 77.9776 88.8376 77.7964C88.8149 77.6107 88.79 77.4363 88.7628 77.2732ZM87.9746 77.212L88.525 77.3004C88.4888 77.5993 88.4367 77.9006 88.3687 78.2041C88.3053 78.5031 88.2351 78.7567 88.1581 78.9651C88.1173 78.9425 88.0652 78.9198 88.0018 78.8972C87.9384 78.8745 87.8727 78.8519 87.8048 78.8292C87.7368 78.8066 87.6802 78.7884 87.6349 78.7748C87.721 78.571 87.7912 78.3287 87.8455 78.0478C87.8999 77.7669 87.9429 77.4884 87.9746 77.212ZM87.8455 75.3978C87.8365 75.357 87.8184 75.3027 87.7912 75.2347C87.7685 75.1623 87.7436 75.0898 87.7164 75.0173C87.6938 74.9403 87.6711 74.8769 87.6485 74.827C87.7119 74.8134 87.7753 74.7749 87.8387 74.7115C87.9022 74.6436 87.9701 74.5575 88.0426 74.4533C88.0788 74.4035 88.1332 74.322 88.2057 74.2087C88.2781 74.0955 88.3597 73.9596 88.4503 73.801C88.5409 73.6425 88.6292 73.4749 88.7153 73.2982C88.8059 73.117 88.8874 72.9335 88.9599 72.7478L89.5442 72.9924C89.3631 73.3684 89.1547 73.7421 88.9191 74.1136C88.6881 74.4805 88.4548 74.7999 88.2193 75.0717V75.0852C88.2193 75.0852 88.2011 75.0966 88.1649 75.1192C88.1287 75.1419 88.0834 75.169 88.029 75.2008C87.9792 75.2325 87.9361 75.2664 87.8999 75.3027C87.8637 75.3344 87.8455 75.3661 87.8455 75.3978ZM87.8455 75.3978L87.8252 74.929L88.1105 74.7455L89.3404 74.6504C89.3223 74.7319 89.3064 74.8248 89.2928 74.929C89.2838 75.0286 89.2792 75.1102 89.2792 75.1736C89.0029 75.2008 88.7764 75.2257 88.5998 75.2483C88.4276 75.271 88.2917 75.2914 88.1921 75.3095C88.0924 75.3231 88.0154 75.3389 87.961 75.357C87.9112 75.3706 87.8727 75.3842 87.8455 75.3978ZM87.8931 76.9538C87.884 76.9131 87.8659 76.8564 87.8387 76.784C87.8161 76.7069 87.7912 76.6299 87.764 76.5529C87.7368 76.4759 87.7096 76.4102 87.6825 76.3559C87.7685 76.3423 87.8523 76.2947 87.9339 76.2132C88.0199 76.1316 88.1196 76.0297 88.2328 75.9074C88.2917 75.8485 88.3778 75.7489 88.491 75.6084C88.6043 75.4635 88.7289 75.2936 88.8648 75.0988C89.0052 74.8995 89.1456 74.6866 89.286 74.4601C89.431 74.2291 89.5601 73.9981 89.6734 73.767L90.2237 74.1068C90.0471 74.4148 89.85 74.7206 89.6326 75.0241C89.4197 75.3231 89.1977 75.6084 88.9667 75.8802C88.7402 76.152 88.5114 76.3989 88.2804 76.6209V76.6413C88.2804 76.6413 88.26 76.6526 88.2193 76.6752C88.183 76.6934 88.1377 76.7183 88.0834 76.75C88.0335 76.7817 87.9882 76.8157 87.9475 76.8519C87.9112 76.8881 87.8931 76.9221 87.8931 76.9538ZM87.8931 76.9538L87.8591 76.4646L88.1513 76.2675L89.9927 76.0161C89.9836 76.0977 89.9746 76.1905 89.9655 76.2947C89.961 76.3989 89.961 76.4827 89.9655 76.5461C89.5488 76.6141 89.2113 76.6707 88.9531 76.716C88.6994 76.7568 88.5024 76.7908 88.3619 76.8179C88.2215 76.8451 88.1173 76.87 88.0494 76.8927C87.9814 76.9108 87.9293 76.9312 87.8931 76.9538ZM89.5578 77.1305L90.0471 76.9674C90.1241 77.1758 90.2011 77.4023 90.2781 77.6469C90.3596 77.8915 90.4185 78.1022 90.4548 78.2788L89.9451 78.4623C89.9089 78.2811 89.8523 78.0659 89.7753 77.8168C89.7028 77.5676 89.6303 77.3389 89.5578 77.1305ZM95.5645 74.5145H97.2292V75.0581H95.5645V74.5145ZM95.1908 75.6968H97.5078V76.2472H95.1908V75.6968ZM95.2247 76.6141L95.6664 76.5122C95.7162 76.7024 95.7661 76.9108 95.8159 77.1373C95.8657 77.3638 95.902 77.5586 95.9246 77.7216L95.4626 77.8507C95.449 77.6786 95.4195 77.4793 95.3742 77.2528C95.3289 77.0218 95.2791 76.8089 95.2247 76.6141ZM95.0753 78.306C95.3788 78.2607 95.7502 78.2018 96.1896 78.1293C96.6335 78.0569 97.0843 77.9821 97.5418 77.9051L97.5758 78.4147C97.1635 78.5008 96.7491 78.5846 96.3323 78.6661C95.9156 78.7477 95.5441 78.8201 95.2179 78.8836L95.0753 78.306ZM97.1545 76.451L97.5894 76.5665C97.535 76.7704 97.4784 76.9833 97.4195 77.2052C97.3651 77.4227 97.313 77.6084 97.2632 77.7624L96.9167 77.6605C96.9484 77.5472 96.9778 77.4204 97.005 77.28C97.0367 77.135 97.0661 76.9901 97.0933 76.8451C97.1205 76.7002 97.1409 76.5688 97.1545 76.451ZM96.1624 74.7387H96.6856V78.3875L96.1624 78.4827V74.7387ZM96.3187 72.775L96.8147 72.9585C96.6924 73.2167 96.5452 73.4749 96.3731 73.7331C96.2009 73.9913 96.0152 74.2336 95.8159 74.4601C95.6211 74.6866 95.4195 74.8859 95.2112 75.0581C95.2066 75.0128 95.1908 74.9516 95.1636 74.8746C95.1409 74.7976 95.1138 74.7183 95.0821 74.6368C95.0503 74.5507 95.0209 74.485 94.9937 74.4397C95.2474 74.2359 95.4943 73.989 95.7344 73.6991C95.9744 73.4046 96.1692 73.0966 96.3187 72.775ZM96.2236 73.3797L96.5701 73.0128C96.7106 73.1442 96.86 73.2869 97.0186 73.4409C97.1817 73.5949 97.3357 73.7444 97.4806 73.8893C97.6301 74.0343 97.7524 74.1589 97.8476 74.2631L97.4806 74.6911C97.39 74.5779 97.2723 74.4443 97.1273 74.2902C96.9823 74.1362 96.8306 73.9799 96.672 73.8214C96.5135 73.6583 96.364 73.5111 96.2236 73.3797ZM100.844 76.0501L101.279 76.4102C101.139 76.5643 100.987 76.7205 100.824 76.8791C100.661 77.0331 100.513 77.1645 100.382 77.2732L100.029 76.947C100.115 76.87 100.208 76.7794 100.307 76.6752C100.407 76.5711 100.504 76.4646 100.599 76.3559C100.695 76.2426 100.776 76.1407 100.844 76.0501ZM97.7524 76.3695L98.1737 76.0637C98.3051 76.1905 98.441 76.3355 98.5814 76.4986C98.7264 76.6571 98.8373 76.793 98.9143 76.9063L98.4659 77.2528C98.4206 77.1758 98.3572 77.0852 98.2756 76.981C98.1941 76.8768 98.108 76.7704 98.0174 76.6616C97.9268 76.5529 97.8385 76.4555 97.7524 76.3695ZM98.5746 73.3729H100.396V73.869H98.5746V73.3729ZM98.364 74.3922H100.239V74.895H98.364V74.3922ZM97.6097 75.3095H101.388V75.8734H97.6097V75.3095ZM99.1793 75.6424H99.7705V78.4623C99.7705 78.6072 99.7546 78.7205 99.7229 78.802C99.6912 78.8881 99.6255 78.9538 99.5259 78.9991C99.4353 79.0444 99.3198 79.0716 99.1793 79.0806C99.0435 79.0942 98.8781 79.101 98.6833 79.101C98.6743 79.0195 98.6516 78.9243 98.6154 78.8156C98.5791 78.7114 98.5406 78.6208 98.4999 78.5438C98.6267 78.5484 98.7445 78.5506 98.8532 78.5506C98.9619 78.5506 99.0367 78.5506 99.0774 78.5506C99.1454 78.5461 99.1793 78.5144 99.1793 78.4555V75.6424ZM97.4738 78.1701C97.6414 78.0704 97.8408 77.9436 98.0718 77.7896C98.3028 77.631 98.5406 77.468 98.7852 77.3004L98.9755 77.7692C98.7807 77.9187 98.5814 78.0704 98.3776 78.2245C98.1782 78.374 97.988 78.5166 97.8068 78.6525L97.4738 78.1701ZM98.5067 72.7818L99.1046 72.8497C99.0548 73.0717 98.9982 73.3095 98.9347 73.5632C98.8758 73.8123 98.8147 74.0524 98.7513 74.2835C98.6924 74.5145 98.6358 74.7183 98.5814 74.895H97.9631C98.022 74.7093 98.0854 74.4964 98.1533 74.2563C98.2213 74.0117 98.2847 73.7602 98.3436 73.502C98.407 73.2438 98.4614 73.0038 98.5067 72.7818ZM100.219 73.3729H100.287L100.389 73.3458L100.83 73.4069C100.799 73.6198 100.758 73.8508 100.708 74.1C100.658 74.3491 100.606 74.596 100.552 74.8406C100.502 75.0852 100.452 75.3163 100.402 75.5337L99.8113 75.459C99.8656 75.237 99.9177 75.0014 99.9676 74.7523C100.022 74.4986 100.072 74.2563 100.117 74.0252C100.162 73.7897 100.196 73.5949 100.219 73.4409V73.3729ZM99.8792 77.6537L100.226 77.2732C100.362 77.3638 100.504 77.4657 100.654 77.579C100.808 77.6922 100.955 77.8054 101.095 77.9187C101.236 78.0274 101.349 78.1248 101.435 78.2109L101.068 78.6457C100.987 78.5597 100.878 78.4578 100.742 78.34C100.606 78.2222 100.461 78.1044 100.307 77.9866C100.158 77.8643 100.015 77.7534 99.8792 77.6537Z" fill="#424242"/>
</g>
<defs>
<clipPath id="clip0_152_6095">
<rect width="200" height="200" fill="white" transform="translate(0.538818 -0.00390625)"/>
</clipPath>
</defs>
</svg>
