<svg width="201" height="201" viewBox="0 0 201 201" fill="none" xmlns="http://www.w3.org/2000/svg">
<g clip-path="url(#clip0_152_5804)">
<rect x="79.7918" y="62.4901" width="28.3205" height="15.4743" stroke="#424242" stroke-width="0.679485"/>
<path d="M88.8302 71.2493V70.3931C88.6196 70.7261 88.3478 71.0386 88.0896 71.2357C88.0216 71.1405 87.9197 71.0046 87.8178 70.9095C87.7566 71.8812 87.6072 72.9548 87.2063 73.7498C87.0907 73.6546 86.8257 73.5052 86.6763 73.4576C87.2063 72.4044 87.2538 70.9027 87.2538 69.8359V67.8179H92.8596V68.3886H87.845V69.8427C87.845 70.1349 87.8382 70.4543 87.8246 70.794C88.11 70.597 88.4021 70.2844 88.6196 69.965H88.0216V69.5098H88.8302V69.1021C88.5992 69.1361 88.3682 69.1632 88.1507 69.1768C88.1236 69.0749 88.0624 68.9118 88.008 68.8031C88.5924 68.7488 89.2719 68.6468 89.632 68.4973L90.0397 68.8167C89.8495 68.8982 89.6116 68.9594 89.3602 69.007V69.5098H90.1077V69.965H89.3602V69.9718C89.5369 70.0805 89.9786 70.3863 90.0941 70.4814L89.7883 70.8755C89.7 70.7736 89.5301 70.6105 89.3602 70.4746V71.2493H88.8302ZM90.6512 72.3364V73.0567H92.8664V73.5867H87.7363V73.0567H88.538V71.7045H89.1428V73.0567H90.0397V71.2153H90.2911C90.2028 71.093 90.0533 70.9231 89.9446 70.8348C90.2775 70.6581 90.6173 70.3184 90.8619 69.965H90.2979V69.5098H91.1609V69.0953C90.9094 69.1293 90.6444 69.1564 90.4066 69.17C90.3862 69.0613 90.3251 68.8982 90.2639 68.7963C90.9094 68.742 91.6637 68.6264 92.0578 68.477L92.4655 68.8031C92.2412 68.8914 91.9762 68.9594 91.6909 69.007V69.5098H92.7373V69.965H91.6909V69.9854L91.6977 69.9786C91.9287 70.1145 92.6965 70.6513 92.8868 70.794L92.5946 71.2153C92.4111 71.0318 92.0034 70.6921 91.6909 70.4543V71.2493H91.1609V70.2504C90.9298 70.6377 90.6241 70.9979 90.3183 71.2221H90.6512V71.8404H92.248V72.3364H90.6512ZM95.3737 69.1564V70.2844H97.0044V69.1564H95.3737ZM99.2875 69.1564H97.6567V70.2844H99.2875V69.1564ZM99.9398 70.8891H97.6431C97.6024 71.4735 97.4597 72.0307 97.0724 72.5063C97.9081 72.914 99.0225 73.0363 100.483 73.0771C100.368 73.2334 100.239 73.5119 100.191 73.7294C98.676 73.6478 97.4801 73.4712 96.5764 72.9616C96.1279 73.2877 95.4892 73.5663 94.5923 73.7769C94.5243 73.6275 94.3544 73.3557 94.2185 73.213C95.0339 73.0499 95.6115 72.8393 96.026 72.5743C95.6319 72.2413 95.3125 71.8132 95.0475 71.2629L95.6251 71.0522C95.8629 71.5211 96.1687 71.8812 96.5152 72.1666C96.8414 71.7928 96.9569 71.358 96.9908 70.8891H94.7553V68.5517H97.0044V67.5529H97.6567V68.5517H99.9398V70.8891Z" fill="#424242"/>
<path d="M48.2263 62.2812L15.2052 62.2813" stroke="#222222" stroke-width="0.679485" stroke-linecap="round"/>
<path d="M65.3141 34.3711H60.3538" stroke="#222222" stroke-width="0.679485" stroke-linecap="round"/>
<path d="M15.205 76.8301L15.205 65.1201" stroke="#222222" stroke-width="0.679485" stroke-linecap="round" stroke-dasharray="1.36 1.36"/>
<path d="M129.205 59.8594L129.205 20.7295" stroke="#222222" stroke-width="0.679485" stroke-linecap="round" stroke-dasharray="1.36 1.36"/>
<path d="M49.4982 76.8301L49.4982 65.1201" stroke="#222222" stroke-width="0.679485" stroke-linecap="round" stroke-dasharray="1.36 1.36"/>
<path d="M31.7158 58.998L31.7158 47.2842" stroke="#222222" stroke-width="0.679485" stroke-linecap="round"/>
<path d="M93.952 58.998L93.952 47.2842" stroke="#222222" stroke-width="0.679485" stroke-linecap="round"/>
<rect x="6.55556" y="26.6308" width="50.3205" height="15.4743" rx="7.73717" stroke="#424242" stroke-width="0.679485"/>
<path d="M17.5849 34.4726L18.2372 34.6628C17.9835 35.2744 17.6483 35.7953 17.2316 36.2257C16.8194 36.6515 16.3347 37.0025 15.7775 37.2789C15.2203 37.5506 14.5997 37.7726 13.9157 37.9447C13.893 37.8949 13.8591 37.8338 13.8138 37.7613C13.7685 37.6888 13.7186 37.6163 13.6643 37.5439C13.6145 37.4714 13.5692 37.4125 13.5284 37.3672C14.1988 37.2313 14.8013 37.0433 15.3358 36.8032C15.8703 36.5586 16.3279 36.246 16.7084 35.8655C17.0889 35.485 17.3811 35.0207 17.5849 34.4726ZM15.3154 33.3107L15.9406 33.5553C15.782 33.7501 15.6008 33.9448 15.397 34.1396C15.1977 34.3344 14.9893 34.5179 14.7718 34.69C14.5544 34.8576 14.346 35.0071 14.1467 35.1385C14.1105 35.0932 14.0606 35.0411 13.9972 34.9822C13.9338 34.9233 13.8704 34.8644 13.807 34.8055C13.7436 34.7421 13.6869 34.6945 13.6371 34.6628C13.8409 34.5541 14.0448 34.4273 14.2486 34.2823C14.457 34.1328 14.6541 33.9766 14.8398 33.8135C15.0255 33.6459 15.1841 33.4783 15.3154 33.3107ZM15.6688 34.5066C15.9813 35.2676 16.4773 35.8859 17.1568 36.3615C17.8363 36.8327 18.6925 37.152 19.7253 37.3196C19.6845 37.3604 19.637 37.4148 19.5826 37.4827C19.5328 37.5552 19.4852 37.6277 19.4399 37.7001C19.3946 37.7726 19.3584 37.8383 19.3312 37.8972C18.6109 37.7613 17.979 37.5552 17.4354 37.2789C16.8964 36.998 16.432 36.6424 16.0425 36.2121C15.6574 35.7817 15.3403 35.2744 15.0912 34.69L15.6688 34.5066ZM13.6439 32.536H19.569V33.1612H13.6439V32.536ZM17.3471 33.6572L17.8567 33.2903C18.056 33.4262 18.2667 33.5802 18.4886 33.7523C18.7151 33.9245 18.928 34.0966 19.1273 34.2687C19.3267 34.4409 19.4875 34.5994 19.6098 34.7444L19.0662 35.1657C18.9529 35.0207 18.8012 34.8599 18.6109 34.6832C18.4207 34.502 18.2146 34.3231 17.9926 34.1464C17.7706 33.9652 17.5555 33.8022 17.3471 33.6572ZM16.0017 31.7682L16.6132 31.5576C16.7084 31.698 16.8035 31.8543 16.8986 32.0264C16.9938 32.1986 17.064 32.3458 17.1093 32.4681L16.4706 32.7127C16.4298 32.5859 16.3641 32.4341 16.2735 32.2575C16.1874 32.0808 16.0968 31.9177 16.0017 31.7682ZM23.7818 32.8486L24.1895 32.4953C24.4024 32.5723 24.6312 32.6606 24.8758 32.7603C25.1204 32.8599 25.3537 32.9619 25.5757 33.066C25.8021 33.1702 25.9924 33.2676 26.1464 33.3582L25.7116 33.7523C25.5711 33.6663 25.3899 33.5689 25.168 33.4601C24.9505 33.3514 24.7195 33.2427 24.4749 33.134C24.2348 33.0253 24.0038 32.9301 23.7818 32.8486ZM23.1363 33.3378H26.5881V33.8135H23.7139V36.844H23.1363V33.3378ZM26.3639 33.3378H26.9414V36.28C26.9414 36.4204 26.9233 36.5269 26.8871 36.5994C26.8554 36.6718 26.7919 36.7307 26.6968 36.776C26.6062 36.8168 26.4862 36.8417 26.3367 36.8508C26.1917 36.8598 26.0105 36.8644 25.7931 36.8644C25.784 36.7874 25.7636 36.7036 25.7319 36.613C25.7002 36.5224 25.6663 36.4431 25.63 36.3751C25.7704 36.3797 25.8995 36.3819 26.0173 36.3819C26.1351 36.3819 26.2144 36.3819 26.2551 36.3819C26.2959 36.3774 26.3231 36.3683 26.3367 36.3548C26.3548 36.3412 26.3639 36.314 26.3639 36.2732V33.3378ZM23.1771 31.8905L26.4998 31.8905V32.373H23.1771V31.8905ZM23.4828 34.3163H26.5609V34.7783H23.4828V34.3163ZM23.4828 35.2948H26.5609V35.7772H23.4828V35.2948ZM24.7331 33.5485H25.2903V36.8304H24.7331V33.5485ZM26.2823 31.8905H26.425L26.5541 31.8566L26.9414 32.1623C26.7874 32.3073 26.613 32.4522 26.4182 32.5972C26.2234 32.7422 26.0196 32.8781 25.8067 33.0049C25.5938 33.1272 25.3831 33.2359 25.1748 33.331C25.134 33.2722 25.0796 33.2065 25.0117 33.134C24.9483 33.0615 24.8916 33.0049 24.8418 32.9641C25.023 32.8826 25.2042 32.7875 25.3854 32.6787C25.5711 32.57 25.7433 32.4568 25.9018 32.339C26.0604 32.2212 26.1872 32.1102 26.2823 32.006V31.8905ZM21.2134 31.9245L21.689 31.6323C21.7977 31.7411 21.9064 31.8588 22.0152 31.9857C22.1284 32.1125 22.2349 32.2348 22.3345 32.3526C22.4342 32.4704 22.5157 32.5746 22.5791 32.6652L22.0899 33.0185C22.0265 32.9234 21.9449 32.8124 21.8453 32.6855C21.7502 32.5587 21.646 32.4296 21.5327 32.2982C21.424 32.1623 21.3175 32.0378 21.2134 31.9245ZM20.9959 33.2087H22.4636V33.7319H20.9959V33.2087ZM22.2869 36.2528C22.4183 36.5518 22.5995 36.7738 22.8305 36.9187C23.0616 37.0637 23.3424 37.1588 23.6731 37.2041C24.0083 37.2494 24.3911 37.2721 24.8214 37.2721C25.0615 37.2721 25.3288 37.2675 25.6232 37.2585C25.9177 37.2494 26.2144 37.2381 26.5133 37.2245C26.8123 37.2109 27.0818 37.1928 27.3219 37.1701C27.2902 37.2154 27.2608 37.2743 27.2336 37.3468C27.2064 37.4193 27.1815 37.494 27.1589 37.571C27.1407 37.648 27.1249 37.716 27.1113 37.7749C26.8893 37.7885 26.6492 37.7998 26.391 37.8089C26.1328 37.8179 25.8701 37.8247 25.6028 37.8292C25.3356 37.8338 25.0728 37.836 24.8146 37.836C24.416 37.836 24.0604 37.8179 23.7478 37.7817C23.4398 37.7454 23.1657 37.6798 22.9257 37.5846C22.6901 37.4895 22.484 37.3513 22.3073 37.1701C22.1307 36.9844 21.9789 36.7398 21.8521 36.4363L22.2869 36.2528ZM22.2598 34.8803H22.416L22.518 34.8667L22.8305 34.9822C22.7173 35.7206 22.5248 36.3366 22.253 36.8304C21.9812 37.3196 21.6528 37.6933 21.2677 37.9515C21.2405 37.9062 21.202 37.8542 21.1522 37.7953C21.1024 37.7409 21.0503 37.6865 20.9959 37.6322C20.9416 37.5824 20.8917 37.5439 20.8464 37.5167C21.2134 37.2902 21.5191 36.964 21.7637 36.5382C22.0084 36.1124 22.1737 35.596 22.2598 34.989V34.8803ZM21.1046 35.4918V35.0162L21.3696 34.8803H22.4568V35.3899H21.5191C21.4331 35.3899 21.3493 35.4012 21.2677 35.4239C21.1862 35.442 21.1318 35.4646 21.1046 35.4918ZM21.1046 35.4918C21.0956 35.442 21.0752 35.3831 21.0435 35.3151C21.0163 35.2472 20.9891 35.1792 20.962 35.1113C20.9348 35.0388 20.9099 34.9822 20.8872 34.9414C20.9416 34.9278 20.9959 34.9075 21.0503 34.8803C21.1046 34.8486 21.1635 34.7987 21.2269 34.7308C21.2813 34.681 21.3561 34.5949 21.4512 34.4726C21.5463 34.3503 21.6482 34.2144 21.7569 34.0649C21.8702 33.9109 21.9744 33.7637 22.0695 33.6232C22.1692 33.4783 22.2484 33.3605 22.3073 33.2699V33.2495L22.4908 33.1748L22.8917 33.3582C22.8101 33.476 22.7128 33.6142 22.5995 33.7727C22.4908 33.9267 22.3753 34.0875 22.253 34.2551C22.1307 34.4182 22.0084 34.5768 21.886 34.7308C21.7683 34.8803 21.6596 35.0094 21.5599 35.1181C21.5599 35.1181 21.5372 35.1317 21.4919 35.1589C21.4466 35.1815 21.3923 35.2132 21.3289 35.254C21.27 35.2902 21.2179 35.331 21.1726 35.3763C21.1273 35.4171 21.1046 35.4556 21.1046 35.4918ZM34.1711 34.8395L34.6604 35.1725C34.5154 35.3446 34.3727 35.5235 34.2323 35.7092C34.0964 35.8904 33.9673 36.0445 33.845 36.1713L33.4917 35.9063C33.5641 35.8112 33.6434 35.7024 33.7295 35.5801C33.8155 35.4533 33.8971 35.3242 33.9741 35.1928C34.0556 35.0615 34.1213 34.9437 34.1711 34.8395ZM32.4452 31.6323H33.016V33.0932H32.4452V31.6323ZM32.7578 34.459H33.3286C33.3105 34.8622 33.2787 35.2404 33.2335 35.5937C33.1882 35.9425 33.1111 36.2642 33.0024 36.5586C32.8982 36.8485 32.7465 37.109 32.5472 37.34C32.3479 37.571 32.0851 37.7681 31.759 37.9312C31.7273 37.8587 31.6752 37.7771 31.6027 37.6865C31.5302 37.5959 31.46 37.5235 31.392 37.4691C31.6865 37.3332 31.9198 37.1656 32.0919 36.9663C32.2686 36.767 32.4022 36.5405 32.4928 36.2868C32.5834 36.0331 32.6468 35.7545 32.6831 35.451C32.7193 35.143 32.7442 34.8123 32.7578 34.459ZM33.2131 35.4171C33.2946 35.707 33.4056 35.9833 33.546 36.246C33.6864 36.5088 33.8518 36.7421 34.042 36.9459C34.2323 37.1498 34.4475 37.3106 34.6875 37.4283C34.6241 37.4827 34.5562 37.5552 34.4837 37.6458C34.4112 37.7364 34.3523 37.8202 34.307 37.8972C34.0534 37.7432 33.8269 37.5484 33.6276 37.3128C33.4282 37.0727 33.2561 36.8009 33.1111 36.4974C32.9662 36.1894 32.8484 35.8633 32.7578 35.519L33.2131 35.4171ZM31.2018 33.664H34.64V34.2076H31.2018V33.664ZM30.9708 33.664H31.5347V35.0162C31.5347 35.2291 31.5257 35.4624 31.5076 35.716C31.494 35.9697 31.4645 36.2302 31.4192 36.4974C31.3785 36.7602 31.3173 37.0161 31.2358 37.2653C31.1588 37.5144 31.0546 37.7409 30.9232 37.9447C30.8915 37.913 30.8439 37.8768 30.7805 37.836C30.7216 37.7953 30.6605 37.7545 30.597 37.7137C30.5336 37.673 30.477 37.6435 30.4272 37.6254C30.5903 37.3672 30.7103 37.0841 30.7873 36.776C30.8643 36.468 30.9141 36.16 30.9368 35.8519C30.9594 35.5439 30.9708 35.263 30.9708 35.0094V33.664ZM31.4804 35.1045L31.8881 34.8667C31.9605 34.9799 32.0353 35.1045 32.1123 35.2404C32.1938 35.3718 32.2686 35.4986 32.3365 35.6209C32.409 35.7432 32.4679 35.8497 32.5132 35.9403L32.0783 36.2257C32.0421 36.126 31.99 36.0127 31.922 35.8859C31.8541 35.7545 31.7816 35.6209 31.7046 35.485C31.6276 35.3446 31.5529 35.2177 31.4804 35.1045ZM31.0727 31.843H31.6503V32.7467H33.8382V31.843H34.4497V33.2767H31.0727V31.843ZM28.4838 31.9653H30.7873V32.5496H28.4838V31.9653ZM29.1905 34.0717H30.6174V37.0954H29.1905V36.5246H30.135V34.6357H29.1905V34.0717ZM29.3196 32.2643L29.9108 32.3934C29.8292 32.8192 29.7273 33.2404 29.605 33.6572C29.4872 34.0739 29.3445 34.4635 29.1769 34.8259C29.0093 35.1883 28.8145 35.5054 28.5926 35.7772C28.5835 35.7228 28.5631 35.6504 28.5314 35.5598C28.5042 35.4646 28.4725 35.3718 28.4363 35.2812C28.4046 35.186 28.3706 35.109 28.3344 35.0501C28.588 34.7104 28.7941 34.2982 28.9527 33.8135C29.1112 33.3243 29.2335 32.8078 29.3196 32.2643ZM28.9187 34.0717H29.4487V37.6254H28.9187L28.9187 34.0717ZM39.1382 31.6255H39.7225V34.5066C39.7225 34.8463 39.7067 35.177 39.675 35.4986C39.6478 35.8202 39.5866 36.1283 39.4915 36.4227C39.3964 36.7126 39.2582 36.9867 39.077 37.2449C38.9004 37.4986 38.658 37.7318 38.35 37.9447C38.3183 37.8995 38.273 37.8496 38.2141 37.7953C38.1597 37.7409 38.1054 37.6888 38.051 37.639C37.9966 37.5892 37.9445 37.5484 37.8947 37.5167C38.171 37.3309 38.393 37.1248 38.5606 36.8983C38.7282 36.6718 38.8528 36.4318 38.9343 36.1781C39.0159 35.9244 39.0702 35.6571 39.0974 35.3763C39.1246 35.0954 39.1382 34.8055 39.1382 34.5066V31.6255ZM40.3273 31.6255H40.932V37.9312H40.3273V31.6255ZM38.0714 32.7671H39.3964V33.3514H38.0714V32.7671ZM40.6466 32.7671H42.0736V33.3514H40.6466V32.7671ZM40.6806 34.2008H41.9988V34.7648H40.6806V34.2008ZM40.6398 35.6685H42.1891V36.2596H40.6398V35.6685ZM38.1257 34.2008H39.4168V34.7648H38.1257V34.2008ZM37.7248 35.9607C37.9196 35.9108 38.1461 35.8451 38.4043 35.7636C38.6671 35.6821 38.9366 35.5983 39.2129 35.5122L39.308 36.015C39.077 36.1011 38.846 36.1871 38.615 36.2732C38.3885 36.3593 38.1733 36.4408 37.9695 36.5178L37.7248 35.9607ZM35.8087 35.1113C36.076 35.0388 36.3976 34.9505 36.7736 34.8463C37.1496 34.7376 37.5301 34.6243 37.9151 34.5066L37.9966 35.0909C37.6478 35.2042 37.2945 35.3174 36.9366 35.4307C36.5788 35.5394 36.2526 35.639 35.9582 35.7296L35.8087 35.1113ZM35.9106 32.9641L37.9763 32.9641V33.5621L35.9106 33.5621V32.9641ZM36.6988 31.6391H37.2968V37.2313C37.2968 37.3898 37.2787 37.5144 37.2424 37.605C37.2062 37.6956 37.1405 37.7681 37.0454 37.8224C36.9548 37.8723 36.837 37.904 36.692 37.9176C36.5516 37.9357 36.3704 37.9447 36.1484 37.9447C36.1439 37.8632 36.1235 37.7636 36.0873 37.6458C36.0556 37.5325 36.0193 37.4329 35.9786 37.3468C36.1145 37.3513 36.239 37.3536 36.3523 37.3536C36.4655 37.3536 36.5425 37.3513 36.5833 37.3468C36.6241 37.3468 36.6535 37.34 36.6716 37.3264C36.6898 37.3083 36.6988 37.2766 36.6988 37.2313V31.6391ZM44.4721 31.7614L45.0361 31.6119C45.1041 31.7569 45.1697 31.9155 45.2332 32.0876C45.3011 32.2552 45.3532 32.3979 45.3894 32.5157L44.7983 32.6991C44.7711 32.5723 44.7235 32.4205 44.6556 32.2439C44.5922 32.0672 44.531 31.9064 44.4721 31.7614ZM43.3985 32.7059H46.4087V33.3039H43.3985V32.7059ZM44.5129 34.1057H45.7496V34.69H44.5129V34.1057ZM45.5321 34.1057H46.1437C46.1437 34.1057 46.1437 34.1238 46.1437 34.16C46.1437 34.1917 46.1437 34.2302 46.1437 34.2755C46.1437 34.3163 46.1414 34.3503 46.1369 34.3775C46.1278 34.9301 46.1165 35.3989 46.1029 35.784C46.0938 36.169 46.0802 36.4861 46.0621 36.7353C46.044 36.9799 46.0191 37.1724 45.9874 37.3128C45.9602 37.4487 45.924 37.5484 45.8787 37.6118C45.8198 37.6933 45.7564 37.7522 45.6884 37.7885C45.625 37.8247 45.5457 37.8496 45.4506 37.8632C45.3691 37.8768 45.2626 37.8836 45.1312 37.8836C44.9999 37.8881 44.8617 37.8859 44.7167 37.8768C44.7077 37.7907 44.6896 37.6911 44.6624 37.5778C44.6352 37.4646 44.599 37.3672 44.5537 37.2856C44.676 37.2992 44.7892 37.3083 44.8934 37.3128C45.0021 37.3128 45.0837 37.3128 45.138 37.3128C45.1833 37.3128 45.2218 37.306 45.2535 37.2924C45.2853 37.2789 45.3147 37.2539 45.3419 37.2177C45.3691 37.1769 45.3917 37.0977 45.4098 36.9799C45.4325 36.8576 45.4506 36.6832 45.4642 36.4567C45.4778 36.2257 45.4891 35.9289 45.4982 35.5666C45.5117 35.1996 45.5231 34.7534 45.5321 34.228V34.1057ZM47.0949 32.8826H49.677V33.4805H47.0949V32.8826ZM47.2105 31.6255L47.8696 31.7343C47.788 32.1782 47.6861 32.6108 47.5638 33.0321C47.4415 33.4534 47.2988 33.8452 47.1357 34.2076C46.9726 34.57 46.7846 34.8871 46.5717 35.1589C46.54 35.1136 46.4947 35.0592 46.4358 34.9958C46.377 34.9324 46.3158 34.8689 46.2524 34.8055C46.189 34.7421 46.1323 34.6923 46.0825 34.656C46.2773 34.4205 46.4449 34.1419 46.5853 33.8203C46.7303 33.4987 46.8549 33.1521 46.959 32.7807C47.0632 32.4047 47.147 32.0196 47.2105 31.6255ZM48.5694 33.2291L49.2013 33.2971C49.0881 34.0672 48.9228 34.7489 48.7053 35.3423C48.4879 35.9312 48.1934 36.4408 47.822 36.8712C47.4551 37.3015 46.9862 37.6639 46.4155 37.9583C46.3973 37.9085 46.3656 37.8474 46.3203 37.7749C46.2796 37.7024 46.2343 37.6322 46.1844 37.5642C46.1346 37.4963 46.0893 37.4397 46.0485 37.3944C46.5831 37.1498 47.0179 36.8372 47.3531 36.4567C47.6929 36.0716 47.9579 35.6119 48.1481 35.0773C48.3384 34.5383 48.4788 33.9222 48.5694 33.2291ZM47.3803 33.399C47.489 34.006 47.6385 34.5722 47.8288 35.0977C48.0236 35.6186 48.2772 36.0739 48.5898 36.4635C48.9069 36.853 49.2919 37.152 49.7449 37.3604C49.6996 37.4057 49.6475 37.4601 49.5887 37.5235C49.5343 37.5869 49.4799 37.6526 49.4256 37.7205C49.3758 37.793 49.335 37.8587 49.3033 37.9176C48.8186 37.6639 48.4131 37.3219 48.087 36.8915C47.7654 36.4612 47.5049 35.9584 47.3056 35.3831C47.1063 34.8078 46.9455 34.1781 46.8232 33.4941L47.3803 33.399ZM44.1392 33.0117H44.7507V34.6832C44.7507 35.0547 44.7258 35.4284 44.676 35.8044C44.6307 36.1804 44.5356 36.5473 44.3906 36.9051C44.2456 37.263 44.0237 37.6005 43.7247 37.9176C43.6703 37.8496 43.5979 37.7771 43.5073 37.7001C43.4167 37.6231 43.3306 37.5574 43.2491 37.5031C43.5163 37.2132 43.7111 36.9097 43.8334 36.5926C43.9603 36.271 44.0418 35.9471 44.078 35.6209C44.1188 35.2948 44.1392 34.9799 44.1392 34.6764V33.0117Z" fill="#424242"/>
<rect x="115.045" y="0.494039" width="28.3205" height="15.4743" rx="7.73717" stroke="#424242" stroke-width="0.679485" stroke-dasharray="1.36 1.36"/>
<path d="M122.289 7.55445H124.335V8.05727H122.289V7.55445ZM122.289 8.46496H124.348V8.96099H122.289V8.46496ZM121.997 6.63715H124.62V7.15356H121.997V6.63715ZM122.568 9.38227H124.335V11.4071H122.568V10.8771H123.777V9.90547H122.568V9.38227ZM122.289 9.38227H122.84V11.7129H122.289V9.38227ZM122.717 5.71305L123.213 5.46164C123.313 5.60207 123.41 5.75608 123.506 5.92369C123.601 6.08677 123.675 6.23172 123.73 6.35856L123.213 6.64394C123.159 6.52164 123.084 6.37215 122.989 6.19548C122.899 6.01429 122.808 5.85348 122.717 5.71305ZM125.272 5.72664H127.053V6.32459L125.272 6.32459V5.72664ZM124.532 8.47176H127.521V9.0765H124.532V8.47176ZM127.297 8.47176H127.419L127.528 8.45137L127.929 8.62125C127.802 9.06518 127.63 9.46154 127.413 9.81034C127.195 10.1546 126.942 10.4559 126.652 10.7141C126.366 10.9723 126.049 11.1897 125.7 11.3664C125.356 11.543 124.989 11.688 124.6 11.8012C124.581 11.7423 124.554 11.6767 124.518 11.6042C124.482 11.5317 124.441 11.4615 124.396 11.3935C124.355 11.3256 124.314 11.269 124.273 11.2237C124.627 11.1421 124.962 11.0266 125.279 10.8771C125.596 10.7231 125.888 10.5351 126.156 10.3132C126.423 10.0912 126.654 9.83526 126.849 9.54535C127.043 9.25543 127.193 8.93154 127.297 8.57368V8.47176ZM125.327 9.00855C125.494 9.37547 125.718 9.70616 125.999 10.0006C126.285 10.2905 126.62 10.5374 127.005 10.7412C127.395 10.9451 127.825 11.0968 128.296 11.1965C128.251 11.2418 128.203 11.2984 128.153 11.3664C128.103 11.4388 128.056 11.5113 128.011 11.5838C127.965 11.6563 127.927 11.722 127.895 11.7809C127.157 11.5951 126.527 11.2826 126.006 10.8432C125.49 10.4038 125.08 9.85564 124.776 9.19881L125.327 9.00855ZM125.15 5.72664L125.741 5.72664V6.48766C125.741 6.70057 125.714 6.92027 125.66 7.14676C125.61 7.36873 125.512 7.5839 125.367 7.79227C125.222 8.00065 125.01 8.18411 124.729 8.34266C124.701 8.29736 124.661 8.24526 124.606 8.18638C124.557 8.12296 124.504 8.0618 124.45 8.00291C124.396 7.94403 124.35 7.90099 124.314 7.87381C124.559 7.73792 124.74 7.59296 124.858 7.43894C124.98 7.2804 125.059 7.11958 125.096 6.95651C125.132 6.7889 125.15 6.62809 125.15 6.47407V5.72664ZM126.74 5.72664H127.331V7.26907C127.331 7.3642 127.336 7.43215 127.345 7.47292C127.358 7.51369 127.388 7.53407 127.433 7.53407C127.456 7.53407 127.49 7.53407 127.535 7.53407C127.585 7.53407 127.632 7.53407 127.678 7.53407C127.727 7.53407 127.761 7.53407 127.78 7.53407C127.825 7.53407 127.877 7.5318 127.936 7.52727C127.999 7.51821 128.051 7.50689 128.092 7.4933C128.101 7.57484 128.108 7.6677 128.113 7.77189C128.117 7.87608 128.126 7.96441 128.14 8.03689C128.099 8.05501 128.047 8.06633 127.983 8.07086C127.92 8.07539 127.854 8.07766 127.786 8.07766C127.759 8.07766 127.718 8.07766 127.664 8.07766C127.61 8.07766 127.555 8.07766 127.501 8.07766C127.447 8.07766 127.406 8.07766 127.379 8.07766C127.197 8.07766 127.062 8.05048 126.971 7.99612C126.88 7.94176 126.819 7.85569 126.788 7.73792C126.756 7.61561 126.74 7.4548 126.74 7.25548V5.72664ZM130.647 7.58843H134.527V8.19997H130.647V7.58843ZM132.577 9.18522H134.867V9.78996H132.577V9.18522ZM132.237 7.90099H132.903V11.2712L132.237 11.1829L132.237 7.90099ZM130.64 8.65522L131.292 8.71637C131.197 9.40492 131.041 10.0097 130.824 10.5306C130.606 11.0515 130.303 11.4796 129.913 11.8148C129.881 11.7786 129.834 11.731 129.77 11.6721C129.707 11.6178 129.641 11.5634 129.573 11.5091C129.505 11.4592 129.447 11.4185 129.397 11.3868C129.773 11.1014 130.056 10.7254 130.246 10.2588C130.441 9.79223 130.572 9.2577 130.64 8.65522ZM131.109 9.51137C131.222 9.84205 131.367 10.1093 131.544 10.3132C131.725 10.517 131.936 10.6733 132.176 10.782C132.416 10.8862 132.679 10.9587 132.964 10.9994C133.249 11.0357 133.555 11.0538 133.881 11.0538C133.94 11.0538 134.029 11.0538 134.146 11.0538C134.269 11.0538 134.402 11.0538 134.547 11.0538C134.697 11.0538 134.846 11.0538 134.996 11.0538C135.15 11.0538 135.29 11.0538 135.417 11.0538C135.548 11.0493 135.653 11.047 135.73 11.047C135.698 11.0968 135.664 11.1603 135.628 11.2373C135.596 11.3143 135.569 11.3935 135.546 11.4751C135.523 11.5612 135.505 11.6359 135.492 11.6993H135.152H133.847C133.449 11.6993 133.08 11.6721 132.74 11.6178C132.405 11.5634 132.101 11.466 131.829 11.3256C131.562 11.1852 131.322 10.9836 131.109 10.7209C130.901 10.4581 130.724 10.1161 130.579 9.69483L131.109 9.51137ZM129.702 6.23625H135.451V7.82625H134.792V6.84779H130.334V7.82625H129.702V6.23625ZM132.02 5.61792L132.658 5.43446C132.74 5.57036 132.819 5.72211 132.896 5.88972C132.973 6.05279 133.027 6.19548 133.059 6.31779L132.386 6.52164C132.359 6.40386 132.312 6.2589 132.244 6.08677C132.176 5.91463 132.101 5.75835 132.02 5.61792Z" fill="#424242"/>
<rect x="68.7918" y="26.6347" width="50.3205" height="15.4705" rx="7.73526" stroke="#34BAF3" stroke-width="0.679485"/>
<path d="M78.2923 33.5572H81.1937V34.1416H78.2923V33.5572ZM77.9933 33.5572H78.5912V35.5413C78.5912 35.7905 78.5799 36.0645 78.5573 36.3635C78.5392 36.6579 78.4984 36.9456 78.435 37.2264C78.3715 37.5073 78.2719 37.7587 78.136 37.9807C78.1043 37.9444 78.0567 37.9014 77.9933 37.8516C77.9344 37.8063 77.871 37.761 77.803 37.7157C77.7396 37.6704 77.6853 37.6364 77.64 37.6138C77.7487 37.419 77.828 37.2038 77.8778 36.9682C77.9321 36.7282 77.9639 36.4858 77.9729 36.2412C77.9865 35.9921 77.9933 35.7565 77.9933 35.5345V33.5572ZM78.6388 36.0577C78.8472 36.017 79.0873 35.9671 79.3591 35.9082C79.6309 35.8494 79.9162 35.7859 80.2152 35.718C80.5187 35.6455 80.8222 35.5753 81.1257 35.5074L81.1869 36.0102C80.7792 36.1189 80.3692 36.2253 79.957 36.3295C79.5493 36.4292 79.1779 36.5198 78.8427 36.6013L78.6388 36.0577ZM78.7475 34.9026L79.0057 34.5017C79.196 34.538 79.3953 34.5878 79.6037 34.6512C79.8121 34.7146 80.0114 34.7826 80.2016 34.855C80.3919 34.923 80.5482 34.9909 80.6705 35.0589L80.4055 35.5074C80.2832 35.4394 80.1269 35.3669 79.9366 35.2899C79.7509 35.2129 79.5539 35.1404 79.3455 35.0725C79.1371 35 78.9378 34.9434 78.7475 34.9026ZM81.248 31.8042L81.8732 32.042C81.7599 32.273 81.6376 32.504 81.5062 32.7351C81.3749 32.9615 81.2526 33.1586 81.1393 33.3262L80.5821 33.102C80.6591 32.9842 80.7384 32.8528 80.82 32.7079C80.9015 32.5584 80.9808 32.4044 81.0578 32.2458C81.1348 32.0873 81.1982 31.9401 81.248 31.8042ZM77.8166 32.0895L78.3602 31.8517C78.4508 31.974 78.5437 32.1099 78.6388 32.2594C78.7339 32.4089 78.8177 32.5561 78.8902 32.7011C78.9627 32.8415 79.0171 32.9706 79.0533 33.0884L78.4689 33.367C78.4372 33.2492 78.3874 33.1178 78.3195 32.9729C78.2515 32.8234 78.1745 32.6716 78.0884 32.5176C78.0024 32.3636 77.9118 32.2209 77.8166 32.0895ZM80.9966 33.5572H81.6218V37.1993C81.6218 37.3623 81.6014 37.4914 81.5606 37.5866C81.5244 37.6817 81.4474 37.7564 81.3296 37.8108C81.2209 37.8606 81.0759 37.8901 80.8947 37.8991C80.7135 37.9082 80.4938 37.9127 80.2356 37.9127C80.2265 37.8312 80.2016 37.7293 80.1609 37.607C80.1246 37.4892 80.0838 37.3895 80.0386 37.308C80.2152 37.3125 80.3828 37.317 80.5414 37.3216C80.6999 37.3216 80.8064 37.3216 80.8607 37.3216C80.9513 37.317 80.9966 37.274 80.9966 37.1925V33.5572ZM79.5018 31.6275H80.1541V33.9445H79.5018V31.6275ZM76.0432 32.1779L76.4237 31.7294C76.5551 31.8019 76.6977 31.8834 76.8518 31.974C77.0103 32.0601 77.1621 32.1462 77.307 32.2322C77.452 32.3183 77.572 32.3953 77.6671 32.4633L77.273 32.9797C77.187 32.9072 77.0715 32.8257 76.9265 32.7351C76.7861 32.6399 76.6366 32.5448 76.478 32.4497C76.324 32.35 76.1791 32.2594 76.0432 32.1779ZM75.6627 34.0533L76.016 33.5844C76.1474 33.6433 76.2923 33.7158 76.4509 33.8018C76.6094 33.8834 76.7634 33.9649 76.9129 34.0465C77.0669 34.1235 77.1915 34.1959 77.2866 34.2639L76.9265 34.7939C76.8359 34.7259 76.7159 34.6489 76.5664 34.5629C76.4214 34.4768 76.2697 34.3885 76.1111 34.2979C75.9526 34.2073 75.8031 34.1257 75.6627 34.0533ZM75.8937 37.4235C76.016 37.2514 76.1519 37.0453 76.3014 36.8052C76.4554 36.5651 76.6094 36.3114 76.7634 36.0441C76.9174 35.7724 77.0601 35.5074 77.1915 35.2491L77.6604 35.6772C77.5426 35.9128 77.4135 36.1597 77.273 36.4179C77.1371 36.6715 76.9967 36.9207 76.8518 37.1653C76.7113 37.4099 76.5732 37.6409 76.4373 37.8584L75.8937 37.4235ZM84.1223 32.7079H88.2943V32.3749H83.6534V31.974L88.8854 31.974V33.1088H84.1223V32.7079ZM83.932 32.7079H84.5028C84.4756 32.9072 84.4461 33.1133 84.4144 33.3262C84.3827 33.5346 84.3488 33.7158 84.3125 33.8698H83.7485C83.7848 33.7067 83.8188 33.521 83.8505 33.3126C83.8867 33.0997 83.9139 32.8981 83.932 32.7079ZM84.0135 33.4689H88.9126V33.8698H83.8912L84.0135 33.4689ZM88.7088 33.4689H89.3135C89.3135 33.4689 89.3113 33.4915 89.3067 33.5368C89.3067 33.5821 89.3045 33.6206 89.2999 33.6524C89.2818 33.8517 89.2592 34.008 89.232 34.1212C89.2093 34.2344 89.1708 34.3183 89.1165 34.3726C89.0712 34.4179 89.0168 34.4519 88.9534 34.4745C88.8945 34.4972 88.8311 34.5108 88.7631 34.5153C88.6997 34.5153 88.6114 34.5153 88.4981 34.5153C88.3894 34.5153 88.2716 34.513 88.1448 34.5085C88.1403 34.4496 88.1267 34.3817 88.104 34.3047C88.0814 34.2277 88.0565 34.162 88.0293 34.1076C88.1244 34.1167 88.2105 34.1235 88.2875 34.128C88.3645 34.1325 88.4211 34.1325 88.4574 34.128C88.4936 34.128 88.5231 34.1257 88.5457 34.1212C88.5684 34.1167 88.5887 34.1053 88.6069 34.0872C88.634 34.06 88.6544 34.0057 88.668 33.9242C88.6861 33.8381 88.6997 33.709 88.7088 33.5368V33.4689ZM85.2706 31.6343H85.8549V32.9389C85.8549 33.1699 85.8278 33.3874 85.7734 33.5912C85.719 33.795 85.6126 33.983 85.454 34.1552C85.3 34.3228 85.0713 34.4723 84.7678 34.6036C84.4643 34.735 84.0634 34.846 83.5651 34.9366C83.5515 34.8868 83.5266 34.8324 83.4903 34.7735C83.4541 34.7101 83.4156 34.6489 83.3748 34.59C83.3386 34.5266 83.3023 34.4745 83.2661 34.4338C83.71 34.3613 84.0634 34.2752 84.3261 34.1756C84.5934 34.0714 84.7949 33.9559 84.9308 33.829C85.0667 33.6977 85.1573 33.5572 85.2026 33.4077C85.2479 33.2583 85.2706 33.0974 85.2706 32.9253V31.6343ZM86.7858 31.6343L87.3906 31.6343V34.325H86.7858V31.6343ZM84.761 35.4394V35.7927H87.9613V35.4394H84.761ZM84.761 36.1665V36.5266H87.9613V36.1665H84.761ZM84.761 34.7191V35.0725H87.9613V34.7191H84.761ZM84.1358 34.3318H88.6137V36.9139H84.1358V34.3318ZM86.8946 37.1721L87.2683 36.7984C87.5219 36.8754 87.7756 36.9569 88.0293 37.043C88.2875 37.1291 88.5321 37.2151 88.7631 37.3012C88.9942 37.3827 89.1912 37.4597 89.3543 37.5322L88.8787 37.9263C88.7292 37.8538 88.548 37.7723 88.3351 37.6817C88.1222 37.5956 87.8911 37.5073 87.642 37.4167C87.3974 37.3306 87.1482 37.2491 86.8946 37.1721ZM85.2638 36.8731L85.8414 37.1381C85.6556 37.2423 85.4405 37.3442 85.1958 37.4439C84.9558 37.5481 84.7066 37.6432 84.4484 37.7293C84.1947 37.8153 83.9524 37.8878 83.7214 37.9467C83.6897 37.9014 83.6444 37.8493 83.5855 37.7904C83.5311 37.7315 83.4745 37.6726 83.4156 37.6138C83.3567 37.5594 83.3046 37.5141 83.2593 37.4779C83.4949 37.4326 83.7372 37.3805 83.9864 37.3216C84.2355 37.2582 84.4711 37.1902 84.693 37.1177C84.915 37.0407 85.1052 36.9592 85.2638 36.8731ZM96.4073 34.8415L96.8966 35.1744C96.7516 35.3465 96.6089 35.5255 96.4685 35.7112C96.3326 35.8924 96.2035 36.0464 96.0812 36.1732L95.7279 35.9082C95.8003 35.8131 95.8796 35.7044 95.9657 35.5821C96.0517 35.4553 96.1333 35.3262 96.2103 35.1948C96.2918 35.0634 96.3575 34.9456 96.4073 34.8415ZM94.6815 31.6343H95.2522V33.0952H94.6815V31.6343ZM94.994 34.4609H95.5648C95.5467 34.8641 95.515 35.2424 95.4697 35.5957C95.4244 35.9445 95.3473 36.2661 95.2386 36.5606C95.1344 36.8505 94.9827 37.1109 94.7834 37.342C94.5841 37.573 94.3213 37.77 93.9952 37.9331C93.9635 37.8606 93.9114 37.7791 93.8389 37.6885C93.7664 37.5979 93.6962 37.5254 93.6283 37.4711C93.9227 37.3352 94.156 37.1676 94.3281 36.9682C94.5048 36.7689 94.6384 36.5424 94.729 36.2888C94.8196 36.0351 94.883 35.7565 94.9193 35.453C94.9555 35.145 94.9804 34.8143 94.994 34.4609ZM95.4493 35.419C95.5308 35.7089 95.6418 35.9853 95.7822 36.248C95.9226 36.5107 96.088 36.744 96.2782 36.9479C96.4685 37.1517 96.6837 37.3125 96.9238 37.4303C96.8603 37.4847 96.7924 37.5571 96.7199 37.6477C96.6474 37.7383 96.5885 37.8221 96.5432 37.8991C96.2896 37.7451 96.0631 37.5503 95.8638 37.3148C95.6644 37.0747 95.4923 36.8029 95.3473 36.4994C95.2024 36.1914 95.0846 35.8652 94.994 35.5209L95.4493 35.419ZM93.438 33.6659H96.8762V34.2095H93.438V33.6659ZM93.207 33.6659H93.7709V35.0181C93.7709 35.231 93.7619 35.4643 93.7438 35.718C93.7302 35.9717 93.7007 36.2321 93.6554 36.4994C93.6147 36.7621 93.5535 37.0181 93.472 37.2672C93.395 37.5164 93.2908 37.7429 93.1594 37.9467C93.1277 37.915 93.0801 37.8788 93.0167 37.838C92.9578 37.7972 92.8967 37.7564 92.8333 37.7157C92.7698 37.6749 92.7132 37.6455 92.6634 37.6273C92.8265 37.3691 92.9465 37.086 93.0235 36.778C93.1005 36.47 93.1503 36.1619 93.173 35.8539C93.1956 35.5459 93.207 35.265 93.207 35.0113V33.6659ZM93.7166 35.1065L94.1243 34.8686C94.1968 34.9819 94.2715 35.1065 94.3485 35.2424C94.43 35.3737 94.5048 35.5006 94.5727 35.6229C94.6452 35.7452 94.7041 35.8516 94.7494 35.9422L94.3145 36.2276C94.2783 36.1279 94.2262 36.0147 94.1583 35.8879C94.0903 35.7565 94.0178 35.6229 93.9408 35.487C93.8638 35.3465 93.7891 35.2197 93.7166 35.1065ZM93.3089 31.8449H93.8865V32.7486H96.0744V31.8449H96.6859V33.2786H93.3089V31.8449ZM90.7201 31.9672H93.0235V32.5516H90.7201V31.9672ZM91.4267 34.0736H92.8536V37.0973H91.4267V36.5266H92.3712V34.6376H91.4267V34.0736ZM91.5558 32.2662L92.147 32.3953C92.0654 32.8211 91.9635 33.2424 91.8412 33.6592C91.7234 34.0759 91.5807 34.4655 91.4131 34.8279C91.2455 35.1903 91.0507 35.5074 90.8288 35.7791C90.8197 35.7248 90.7993 35.6523 90.7676 35.5617C90.7404 35.4666 90.7087 35.3737 90.6725 35.2831C90.6408 35.188 90.6068 35.111 90.5706 35.0521C90.8242 34.7124 91.0304 34.3001 91.1889 33.8154C91.3474 33.3262 91.4698 32.8098 91.5558 32.2662ZM91.1549 34.0736H91.6849V37.6273H91.1549V34.0736ZM101.272 35.2967H103.916V35.8947H101.272V35.2967ZM99.8048 35.6297C99.9271 35.9649 100.086 36.2389 100.28 36.4518C100.48 36.6647 100.706 36.8301 100.96 36.9479C101.214 37.0611 101.494 37.1404 101.802 37.1857C102.11 37.2264 102.437 37.2468 102.781 37.2468C102.831 37.2468 102.908 37.2468 103.012 37.2468C103.121 37.2468 103.243 37.2468 103.379 37.2468C103.515 37.2468 103.653 37.2468 103.793 37.2468C103.934 37.2468 104.061 37.2468 104.174 37.2468C104.292 37.2423 104.385 37.2378 104.452 37.2332C104.421 37.2831 104.389 37.3465 104.357 37.4235C104.326 37.5005 104.298 37.5775 104.276 37.6545C104.253 37.7315 104.235 37.8017 104.221 37.8652H103.909H102.747C102.33 37.8652 101.945 37.8357 101.592 37.7768C101.243 37.7225 100.924 37.6228 100.634 37.4779C100.344 37.3329 100.086 37.1268 99.8591 36.8595C99.6326 36.5923 99.4401 36.2503 99.2816 35.8335L99.8048 35.6297ZM100.987 34.1688H101.646V37.539L100.987 37.3216V34.1688ZM99.6281 32.5652V33.7203H103.032V32.5652H99.6281ZM98.9894 31.9468H103.712V34.3318H98.9894V31.9468ZM99.3359 34.8007L100.009 34.8754C99.9543 35.2514 99.8705 35.6319 99.7572 36.017C99.6485 36.3975 99.499 36.7553 99.3087 37.0906C99.123 37.4258 98.8875 37.7066 98.6021 37.9331C98.5658 37.8878 98.5205 37.838 98.4662 37.7836C98.4118 37.7293 98.3552 37.6749 98.2963 37.6206C98.242 37.5707 98.1921 37.53 98.1468 37.4982C98.405 37.2944 98.6157 37.0453 98.7787 36.7508C98.9418 36.4518 99.0664 36.1325 99.1525 35.7927C99.2431 35.4485 99.3042 35.1178 99.3359 34.8007ZM106.443 32.4429V33.5504H107.422V32.4429H106.443ZM105.9 31.9061L107.993 31.9061V34.0872H105.9V31.9061ZM106.776 33.8222H107.32V36.9682H106.776V33.8222ZM105.879 34.6512H106.389V37.1517H105.879V34.6512ZM105.526 36.9682C105.743 36.9229 105.99 36.8686 106.267 36.8052C106.543 36.7417 106.835 36.6738 107.143 36.6013C107.456 36.5243 107.766 36.4473 108.074 36.3703L108.142 36.9207C107.703 37.0385 107.263 37.154 106.824 37.2672C106.384 37.3759 105.993 37.4733 105.648 37.5594L105.526 36.9682ZM106.994 34.9366H108.04V35.4938H106.994V34.9366ZM108.176 32.7351H111.879V33.3466H108.176V32.7351ZM110.235 33.1359H110.833V37.2264C110.833 37.385 110.815 37.5118 110.778 37.607C110.742 37.7021 110.672 37.7746 110.568 37.8244C110.468 37.8788 110.339 37.9127 110.181 37.9263C110.026 37.9399 109.832 37.9467 109.596 37.9467C109.592 37.8606 109.571 37.7587 109.535 37.6409C109.499 37.5232 109.46 37.419 109.419 37.3284C109.574 37.3329 109.716 37.3374 109.848 37.342C109.979 37.342 110.067 37.3397 110.113 37.3352C110.158 37.3306 110.19 37.3216 110.208 37.308C110.226 37.2944 110.235 37.265 110.235 37.2197V33.1359ZM108.468 34.094L109.019 34.1892C108.951 34.5923 108.856 34.9796 108.733 35.3511C108.615 35.7225 108.475 36.0373 108.312 36.2956C108.28 36.2684 108.235 36.2344 108.176 36.1936C108.117 36.1529 108.056 36.1144 107.993 36.0781C107.934 36.0419 107.884 36.0147 107.843 35.9966C108.002 35.761 108.133 35.4756 108.237 35.1404C108.341 34.8007 108.418 34.4519 108.468 34.094ZM110.833 34.2435L111.336 34.0397C111.44 34.248 111.535 34.4723 111.621 34.7124C111.712 34.9524 111.789 35.188 111.852 35.419C111.915 35.6455 111.963 35.8494 111.995 36.0306L111.444 36.248C111.426 36.0668 111.385 35.8607 111.322 35.6297C111.259 35.3941 111.184 35.1563 111.098 34.9162C111.016 34.6761 110.928 34.4519 110.833 34.2435ZM109.216 32.9593H109.766V34.427C109.766 34.7214 109.748 35.0249 109.712 35.3375C109.68 35.6455 109.612 35.9535 109.508 36.2616C109.408 36.5651 109.259 36.8595 109.059 37.1449C108.86 37.4303 108.593 37.6976 108.258 37.9467C108.208 37.8788 108.14 37.8063 108.054 37.7293C107.968 37.6523 107.886 37.5866 107.809 37.5322C108.126 37.3012 108.378 37.0566 108.563 36.7984C108.749 36.5402 108.889 36.2752 108.985 36.0034C109.08 35.7316 109.141 35.4621 109.168 35.1948C109.2 34.9275 109.216 34.6716 109.216 34.427V32.9593ZM109.453 31.777L110.038 31.6139C110.128 31.7724 110.217 31.9468 110.303 32.1371C110.393 32.3274 110.455 32.4904 110.486 32.6263L109.868 32.8234C109.836 32.683 109.782 32.5154 109.705 32.3206C109.628 32.1258 109.544 31.9446 109.453 31.777Z" fill="#34BAF3"/>
<rect x="1.0447" y="80.3222" width="28.3205" height="15.4705" stroke="#424242" stroke-width="0.679485"/>
<path d="M8.88047 85.614H14.1465V86.1915H8.88047V85.614ZM8.9688 90.9139H14.1601V91.4507H8.9688V90.9139ZM11.6324 89.6841H13.5349V90.1869H11.6324V89.6841ZM8.47277 85.614H9.07752V87.666C9.07752 87.9469 9.07072 88.2594 9.05713 88.6037C9.04354 88.9434 9.0141 89.2922 8.9688 89.6501C8.9235 90.0034 8.85782 90.35 8.77175 90.6897C8.68568 91.0249 8.57243 91.333 8.43201 91.6138C8.39577 91.5821 8.34367 91.5459 8.27572 91.5051C8.2123 91.4643 8.14436 91.4258 8.07188 91.3896C8.00393 91.3579 7.94278 91.333 7.88842 91.3148C8.02431 91.0476 8.13077 90.7577 8.20778 90.4451C8.28478 90.1325 8.34141 89.8154 8.37765 89.4938C8.41842 89.1677 8.44333 88.8483 8.45239 88.5358C8.46598 88.2232 8.47277 87.931 8.47277 87.6592V85.614ZM11.2926 89.0522H11.9178V91.2129H11.2926L11.2926 89.0522ZM9.77739 89.5414H10.3957L10.3957 91.2197H9.77739L9.77739 89.5414ZM9.25418 87.3263H11.3674V87.7883H9.25418V87.3263ZM10.0764 86.5924H10.6132V89.0793H10.0764V86.5924ZM10.0016 87.5301L10.3685 87.6592C10.2961 87.8359 10.2032 88.0148 10.0899 88.196C9.98123 88.3727 9.86119 88.538 9.72982 88.692C9.59845 88.8415 9.46482 88.9661 9.32893 89.0657C9.28816 89.0069 9.23153 88.9389 9.15905 88.8619C9.09111 88.7849 9.02769 88.7237 8.9688 88.6784C9.1047 88.5969 9.23606 88.495 9.3629 88.3727C9.49427 88.2458 9.61431 88.1099 9.72303 87.965C9.83627 87.82 9.92914 87.6751 10.0016 87.5301ZM11.5576 87.3263H14.0242V87.7883H11.5576V87.3263ZM12.4274 86.5924H12.971V89.0793H12.4274V86.5924ZM12.2779 87.5233L12.6448 87.6524C12.5723 87.8291 12.4772 88.008 12.3594 88.1892C12.2417 88.3704 12.1148 88.538 11.9789 88.692C11.843 88.8415 11.7049 88.9661 11.5644 89.0657C11.5237 89.0069 11.467 88.9389 11.3946 88.8619C11.3266 88.7804 11.2632 88.7169 11.2043 88.6716C11.3447 88.5946 11.4829 88.495 11.6188 88.3727C11.7547 88.2458 11.8793 88.1099 11.9925 87.965C12.1103 87.8155 12.2054 87.6683 12.2779 87.5233ZM10.5792 87.7747C10.6199 87.7928 10.6766 87.8268 10.749 87.8767C10.8215 87.9265 10.8985 87.9786 10.9801 88.0329C11.0616 88.0873 11.1364 88.1394 11.2043 88.1892C11.2768 88.239 11.3266 88.2775 11.3538 88.3047L11.0412 88.6988C11.0005 88.6581 10.9461 88.606 10.8782 88.5425C10.8147 88.4791 10.7445 88.4134 10.6675 88.3455C10.5905 88.2775 10.5158 88.2141 10.4433 88.1552C10.3753 88.0918 10.3187 88.0443 10.2734 88.0125L10.5792 87.7747ZM10.8849 86.307L11.2994 86.6332C11.1318 86.7011 10.9393 86.76 10.7219 86.8099C10.5044 86.8552 10.2802 86.8937 10.0492 86.9254C9.82268 86.9526 9.60072 86.9729 9.38328 86.9865C9.37422 86.9367 9.35384 86.8755 9.32213 86.8031C9.29495 86.7306 9.26777 86.6672 9.24059 86.6128C9.43991 86.5947 9.64149 86.572 9.84533 86.5449C10.0537 86.5132 10.2485 86.4769 10.4297 86.4361C10.6154 86.3954 10.7672 86.3523 10.8849 86.307ZM13.3379 86.2799L13.7524 86.6128C13.5712 86.6762 13.3628 86.7351 13.1272 86.7895C12.8917 86.8393 12.6471 86.8801 12.3934 86.9118C12.1443 86.9435 11.9019 86.9661 11.6664 86.9797C11.6573 86.9254 11.6392 86.862 11.612 86.7895C11.5848 86.7125 11.5554 86.649 11.5237 86.5992C11.7411 86.5811 11.9631 86.5584 12.1896 86.5313C12.4206 86.4996 12.6358 86.4633 12.8351 86.4226C13.0389 86.3773 13.2065 86.3297 13.3379 86.2799ZM12.9778 87.8019C13.0366 87.8336 13.1205 87.888 13.2292 87.965C13.3424 88.0375 13.4625 88.119 13.5893 88.2096C13.7207 88.2957 13.8384 88.3772 13.9426 88.4542C14.0513 88.5312 14.1306 88.5878 14.1804 88.6241L13.8815 89.0522C13.8181 88.9887 13.7343 88.9117 13.6301 88.8211C13.5259 88.7305 13.4149 88.6377 13.2971 88.5425C13.1793 88.4429 13.0661 88.3523 12.9574 88.2708C12.8487 88.1847 12.7603 88.1167 12.6924 88.0669L12.9778 87.8019ZM18.2506 85.349H18.9165V88.2775C18.9165 88.5675 18.8938 88.8506 18.8485 89.1269C18.8077 89.3987 18.7262 89.6592 18.6039 89.9083C18.4861 90.1529 18.3117 90.384 18.0807 90.6014C17.8542 90.8188 17.5575 91.0136 17.1906 91.1857C16.8236 91.3624 16.3661 91.5119 15.818 91.6342C15.7954 91.5889 15.7614 91.53 15.7161 91.4575C15.6753 91.3851 15.6278 91.3126 15.5734 91.2401C15.5236 91.1722 15.476 91.1133 15.4307 91.0634C15.9516 90.9638 16.3842 90.8415 16.7285 90.6965C17.0728 90.5516 17.3468 90.3907 17.5507 90.2141C17.7591 90.0374 17.9131 89.8449 18.0127 89.6365C18.1124 89.4281 18.1758 89.2107 18.203 88.9842C18.2347 88.7532 18.2506 88.5176 18.2506 88.2775V85.349ZM16.6062 86.9729V88.1077H20.5608V86.9729H16.6062ZM15.9743 86.3546H21.2199V88.726H15.9743V86.3546ZM16.8576 88.8823C17.0751 89.299 17.3333 89.6388 17.6322 89.9015C17.9312 90.1597 18.28 90.3613 18.6786 90.5063C19.0773 90.6467 19.5325 90.7486 20.0444 90.812C20.5563 90.8709 21.1361 90.9094 21.7839 90.9275C21.7205 91.0045 21.6593 91.1065 21.6004 91.2333C21.5415 91.3601 21.5008 91.4802 21.4781 91.5934C20.8168 91.5572 20.2165 91.4938 19.6775 91.4032C19.1384 91.3171 18.656 91.1857 18.2302 91.0091C17.8044 90.8324 17.4284 90.5901 17.1022 90.282C16.7761 89.974 16.4998 89.5799 16.2733 89.0997L16.8576 88.8823Z" fill="#424242"/>
<rect x="35.3379" y="80.3222" width="28.3205" height="15.4705" stroke="#424242" stroke-width="0.679485"/>
<path d="M42.7048 87.0477H44.3696V87.5913H42.7048V87.0477ZM42.3311 88.23H44.6482V88.7804H42.3311V88.23ZM42.3651 89.1473L42.8068 89.0454C42.8566 89.2356 42.9064 89.444 42.9562 89.6705C43.0061 89.897 43.0423 90.0918 43.065 90.2548L42.6029 90.384C42.5893 90.2118 42.5599 90.0125 42.5146 89.786C42.4693 89.555 42.4194 89.3421 42.3651 89.1473ZM42.2156 90.8392C42.5191 90.7939 42.8906 90.735 43.33 90.6625C43.7739 90.5901 44.2246 90.5153 44.6821 90.4383L44.7161 90.9479C44.3039 91.034 43.8894 91.1178 43.4727 91.1993C43.0559 91.2809 42.6844 91.3533 42.3583 91.4168L42.2156 90.8392ZM44.2948 88.9842L44.7297 89.0997C44.6753 89.3036 44.6187 89.5165 44.5598 89.7384C44.5055 89.9559 44.4534 90.1416 44.4035 90.2956L44.057 90.1937C44.0887 90.0804 44.1182 89.9536 44.1453 89.8132C44.1771 89.6682 44.2065 89.5233 44.2337 89.3783C44.2609 89.2334 44.2812 89.102 44.2948 88.9842ZM43.3028 87.2719H43.826V90.9207L43.3028 91.0159V87.2719ZM43.4591 85.3082L43.9551 85.4917C43.8328 85.7499 43.6856 86.0081 43.5134 86.2663C43.3413 86.5245 43.1556 86.7668 42.9562 86.9933C42.7615 87.2198 42.5599 87.4191 42.3515 87.5913C42.347 87.546 42.3311 87.4848 42.3039 87.4078C42.2813 87.3308 42.2541 87.2515 42.2224 87.17C42.1907 87.0839 42.1612 87.0182 42.1341 86.9729C42.3877 86.7691 42.6346 86.5222 42.8747 86.2323C43.1148 85.9379 43.3096 85.6298 43.4591 85.3082ZM43.3639 85.9129L43.7105 85.546C43.8509 85.6774 44.0004 85.8201 44.1589 85.9741C44.322 86.1281 44.476 86.2776 44.621 86.4226C44.7705 86.5675 44.8928 86.6921 44.9879 86.7963L44.621 87.2243C44.5304 87.1111 44.4126 86.9775 44.2676 86.8234C44.1227 86.6694 43.9709 86.5132 43.8124 86.3546C43.6538 86.1915 43.5044 86.0443 43.3639 85.9129ZM47.9844 88.5833L48.4193 88.9434C48.2789 89.0975 48.1271 89.2537 47.964 89.4123C47.801 89.5663 47.6538 89.6977 47.5224 89.8064L47.1691 89.4802C47.2551 89.4032 47.348 89.3126 47.4476 89.2084C47.5473 89.1043 47.6447 88.9978 47.7398 88.8891C47.8349 88.7758 47.9165 88.6739 47.9844 88.5833ZM44.8928 88.9027L45.3141 88.5969C45.4454 88.7237 45.5813 88.8687 45.7217 89.0318C45.8667 89.1903 45.9777 89.3262 46.0547 89.4395L45.6062 89.786C45.5609 89.709 45.4975 89.6184 45.416 89.5142C45.3344 89.41 45.2484 89.3036 45.1578 89.1949C45.0672 89.0861 44.9788 88.9887 44.8928 88.9027ZM45.715 85.9061H47.536V86.4022H45.715V85.9061ZM45.5043 86.9254H47.3797V87.4282H45.5043V86.9254ZM44.7501 87.8427H48.528V88.4066H44.7501V87.8427ZM46.3197 88.1756H46.9108V90.9955C46.9108 91.1404 46.895 91.2537 46.8633 91.3352C46.8316 91.4213 46.7659 91.487 46.6662 91.5323C46.5756 91.5776 46.4601 91.6048 46.3197 91.6138C46.1838 91.6274 46.0185 91.6342 45.8237 91.6342C45.8146 91.5527 45.792 91.4575 45.7557 91.3488C45.7195 91.2446 45.681 91.154 45.6402 91.077C45.767 91.0816 45.8848 91.0838 45.9935 91.0838C46.1023 91.0838 46.177 91.0838 46.2178 91.0838C46.2857 91.0793 46.3197 91.0476 46.3197 90.9887V88.1756ZM44.6142 90.7033C44.7818 90.6037 44.9811 90.4768 45.2121 90.3228C45.4432 90.1643 45.681 90.0012 45.9256 89.8336L46.1158 90.3024C45.9211 90.4519 45.7217 90.6037 45.5179 90.7577C45.3186 90.9072 45.1283 91.0498 44.9471 91.1857L44.6142 90.7033ZM45.647 85.315L46.245 85.3829C46.1951 85.6049 46.1385 85.8427 46.0751 86.0964C46.0162 86.3455 45.955 86.5856 45.8916 86.8167C45.8327 87.0477 45.7761 87.2515 45.7217 87.4282H45.1034C45.1623 87.2425 45.2257 87.0296 45.2937 86.7895C45.3616 86.5449 45.425 86.2934 45.4839 86.0352C45.5473 85.777 45.6017 85.537 45.647 85.315ZM47.3593 85.9061H47.4273L47.5292 85.879L47.9708 85.9401C47.9391 86.153 47.8984 86.384 47.8485 86.6332C47.7987 86.8823 47.7466 87.1292 47.6923 87.3738C47.6424 87.6184 47.5926 87.8495 47.5428 88.0669L46.9516 87.9922C47.006 87.7702 47.0581 87.5346 47.1079 87.2855C47.1623 87.0318 47.2121 86.7895 47.2574 86.5584C47.3027 86.3229 47.3367 86.1281 47.3593 85.9741V85.9061ZM47.0196 90.1869L47.3661 89.8064C47.502 89.897 47.6447 89.9989 47.7942 90.1122C47.9482 90.2254 48.0954 90.3387 48.2358 90.4519C48.3763 90.5606 48.4895 90.658 48.5756 90.7441L48.2087 91.1789C48.1271 91.0929 48.0184 90.991 47.8825 90.8732C47.7466 90.7554 47.6017 90.6376 47.4476 90.5198C47.2982 90.3975 47.1555 90.2866 47.0196 90.1869ZM55.1054 85.4509L55.7102 85.6955C55.5562 85.9039 55.3795 86.1077 55.1802 86.307C54.9854 86.5064 54.7793 86.6943 54.5618 86.871C54.3444 87.0431 54.1292 87.1949 53.9163 87.3263C53.862 87.2583 53.7918 87.1813 53.7057 87.0952C53.6196 87.0092 53.5358 86.9367 53.4543 86.8778C53.6536 86.7691 53.8552 86.6377 54.059 86.4837C54.2674 86.3297 54.4622 86.1643 54.6434 85.9877C54.8291 85.8065 54.9831 85.6276 55.1054 85.4509ZM55.3093 87.2923L55.8936 87.5369C55.7306 87.7589 55.538 87.9763 55.3161 88.1892C55.0986 88.4021 54.8699 88.5992 54.6298 88.7804C54.3897 88.957 54.1496 89.1156 53.9095 89.256C53.8642 89.1835 53.7986 89.1043 53.7125 89.0182C53.631 88.9321 53.5494 88.8596 53.4679 88.8008C53.6898 88.6875 53.9141 88.5516 54.1406 88.3931C54.3716 88.23 54.589 88.0533 54.7929 87.8631C55.0012 87.6728 55.1734 87.4825 55.3093 87.2923ZM55.4316 89.2288L56.0295 89.4531C55.8574 89.7475 55.649 90.0284 55.4044 90.2956C55.1643 90.5584 54.9016 90.7984 54.6162 91.0159C54.3354 91.2333 54.0409 91.4213 53.7329 91.5798C53.683 91.5028 53.6151 91.4168 53.529 91.3216C53.4475 91.2265 53.3682 91.1472 53.2912 91.0838C53.5766 90.9525 53.8552 90.7916 54.127 90.6014C54.3988 90.4111 54.6479 90.1982 54.8744 89.9627C55.1009 89.7271 55.2866 89.4825 55.4316 89.2288ZM49.8326 87.8427H53.5426V88.3455H49.8326V87.8427ZM50.8315 89.0725V89.5482H52.5981V89.0725H50.8315ZM50.2335 88.6377H53.2233V89.9831H50.2335V88.6377ZM52.2584 90.2752L52.7136 90.0714C52.8314 90.2299 52.9492 90.4066 53.067 90.6014C53.1848 90.7962 53.2731 90.9615 53.332 91.0974L52.8495 91.3352C52.7907 91.1948 52.7046 91.0249 52.5913 90.8256C52.4826 90.6218 52.3716 90.4383 52.2584 90.2752ZM50.7635 86.7011V87.0477H52.6729V86.7011H50.7635ZM50.7635 85.9673V86.3138H52.6729V85.9673H50.7635ZM50.152 85.5596H53.3116V87.4622H50.152V85.5596ZM51.3887 89.752H52.0138V91.0091C52.0138 91.1495 51.9979 91.2582 51.9662 91.3352C51.939 91.4122 51.8756 91.4734 51.776 91.5187C51.6808 91.5595 51.5631 91.5844 51.4226 91.5934C51.2867 91.6025 51.1259 91.607 50.9402 91.607C50.9266 91.521 50.9017 91.4304 50.8654 91.3352C50.8292 91.2401 50.7907 91.154 50.7499 91.077C50.8722 91.0816 50.9832 91.0838 51.0829 91.0838C51.1871 91.0838 51.2573 91.0838 51.2935 91.0838C51.3343 91.0838 51.3592 91.077 51.3683 91.0634C51.3819 91.0544 51.3887 91.034 51.3887 91.0023V89.752ZM50.4646 90.085L51.0013 90.2413C50.9107 90.4451 50.7975 90.6535 50.6616 90.8664C50.5302 91.0748 50.3966 91.2492 50.2607 91.3896C50.229 91.3579 50.186 91.3194 50.1316 91.2741C50.0772 91.2333 50.0206 91.1903 49.9617 91.145C49.9074 91.1042 49.8598 91.0702 49.819 91.0431C49.9459 90.9162 50.0659 90.769 50.1792 90.6014C50.2924 90.4292 50.3875 90.2571 50.4646 90.085ZM51.2663 87.5777L51.8711 87.4486C51.9254 87.5301 51.9775 87.623 52.0274 87.7272C52.0817 87.8268 52.1202 87.9174 52.1429 87.999L51.5042 88.1416C51.486 88.0646 51.4543 87.974 51.409 87.8699C51.3637 87.7611 51.3162 87.6637 51.2663 87.5777Z" fill="#424242"/>
<rect x="115.493" y="62.621" width="28.3205" height="15.4743" stroke="#424242" stroke-width="0.679485" stroke-dasharray="1.36 1.36"/>
<path d="M125.796 73.1128H127.997V73.67H125.796V73.1128ZM126.115 68.2953H127.875V68.8456H126.115V68.2953ZM125.544 71.4345H128.276V73.8942H127.658V71.9781H126.135V73.9146H125.544V71.4345ZM127.651 68.2953H127.766L127.882 68.2681L128.289 68.4447C128.163 68.866 127.995 69.2511 127.787 69.5999C127.578 69.9487 127.34 70.2635 127.073 70.5444C126.806 70.8207 126.516 71.063 126.203 71.2714C125.895 71.4798 125.576 71.6542 125.245 71.7946C125.205 71.7221 125.148 71.6383 125.075 71.5432C125.008 71.4435 124.942 71.3665 124.878 71.3122C125.177 71.1989 125.47 71.0494 125.755 70.8637C126.045 70.6735 126.314 70.4538 126.564 70.2046C126.813 69.9555 127.03 69.6791 127.216 69.3756C127.402 69.0721 127.547 68.7482 127.651 68.404V68.2953ZM126.19 67.6158L126.801 67.7653C126.702 68.0733 126.582 68.3723 126.441 68.6622C126.301 68.9521 126.145 69.2216 125.972 69.4708C125.805 69.7154 125.626 69.9328 125.436 70.1231C125.404 70.0823 125.356 70.037 125.293 69.9872C125.234 69.9328 125.171 69.8807 125.103 69.8309C125.039 69.7765 124.985 69.7335 124.94 69.7018C125.211 69.4572 125.456 69.1514 125.673 68.7845C125.895 68.413 126.068 68.0235 126.19 67.6158ZM126.122 68.6214C126.222 68.857 126.351 69.0993 126.509 69.3485C126.672 69.5976 126.865 69.8377 127.087 70.0687C127.313 70.2997 127.569 70.5104 127.855 70.7006C128.14 70.8909 128.457 71.0472 128.806 71.1695C128.765 71.2102 128.718 71.2646 128.663 71.3326C128.613 71.396 128.566 71.4617 128.52 71.5296C128.475 71.593 128.437 71.6542 128.405 71.7131C128.056 71.5681 127.737 71.3892 127.447 71.1763C127.161 70.9634 126.906 70.7301 126.679 70.4764C126.457 70.2227 126.262 69.9645 126.095 69.7018C125.932 69.4345 125.798 69.1786 125.694 68.934L126.122 68.6214ZM122.704 70.6259H123.234V73.0924H122.704V70.6259ZM123.295 68.4447V69.4979H124.403V68.4447H123.295ZM122.724 67.8944H125.001V70.0551H122.724V67.8944ZM123.683 69.8105H124.26V72.8818H123.683V69.8105ZM122.378 73.0109C122.609 72.9656 122.874 72.9112 123.173 72.8478C123.472 72.7844 123.787 72.7142 124.117 72.6372C124.453 72.5602 124.786 72.4832 125.116 72.4061L125.177 72.9769C124.702 73.0947 124.226 73.2125 123.75 73.3302C123.279 73.4435 122.858 73.5431 122.487 73.6292L122.378 73.0109ZM123.9 70.9588H125.062V71.5228H123.9V70.9588ZM133.929 67.6158L134.649 67.7585C134.568 67.9261 134.484 68.0914 134.398 68.2545C134.316 68.413 134.242 68.5489 134.174 68.6622L133.63 68.5263C133.689 68.3949 133.746 68.2432 133.8 68.071C133.854 67.8989 133.897 67.7471 133.929 67.6158ZM133.29 69.7901V70.2794H135.241V69.7901H133.29ZM133.29 68.8388V69.3213H135.241V68.8388H133.29ZM132.693 68.3428H135.866V70.7822H132.693V68.3428ZM134.024 70.5647H134.636V73.2623C134.636 73.4163 134.618 73.5364 134.581 73.6224C134.545 73.713 134.475 73.7855 134.371 73.8399C134.271 73.8852 134.144 73.9123 133.99 73.9214C133.836 73.935 133.651 73.9418 133.433 73.9418C133.42 73.8557 133.395 73.7561 133.358 73.6428C133.327 73.5296 133.29 73.4322 133.25 73.3506C133.395 73.3552 133.531 73.3574 133.657 73.3574C133.784 73.362 133.868 73.362 133.909 73.3574C133.954 73.3529 133.984 73.3438 133.997 73.3302C134.015 73.3167 134.024 73.2917 134.024 73.2555V70.5647ZM132.448 71.285H133.481V71.815H132.448V71.285ZM133.338 71.285H133.447L133.549 71.2646L133.922 71.3937C133.845 71.7425 133.734 72.0596 133.589 72.345C133.444 72.6258 133.275 72.8727 133.08 73.0856C132.885 73.294 132.67 73.4661 132.434 73.602C132.394 73.5341 132.337 73.4548 132.264 73.3642C132.196 73.2781 132.131 73.2079 132.067 73.1536C132.267 73.0494 132.45 72.909 132.618 72.7323C132.79 72.5511 132.939 72.345 133.066 72.114C133.193 71.8829 133.284 71.6361 133.338 71.3733V71.285ZM135.607 70.9588L136.083 71.3529C135.902 71.5115 135.716 71.6723 135.526 71.8354C135.336 71.9939 135.159 72.1276 134.996 72.2363L134.643 71.9237C134.747 71.8376 134.858 71.7402 134.976 71.6315C135.093 71.5183 135.209 71.4028 135.322 71.285C135.435 71.1672 135.53 71.0585 135.607 70.9588ZM134.609 70.9181C134.699 71.2306 134.822 71.5319 134.976 71.8218C135.13 72.1117 135.311 72.3722 135.519 72.6032C135.728 72.8297 135.959 73.0086 136.212 73.14C136.171 73.1808 136.124 73.2306 136.07 73.2895C136.015 73.3484 135.963 73.4095 135.913 73.4729C135.868 73.5364 135.827 73.5975 135.791 73.6564C135.528 73.4843 135.293 73.2646 135.084 72.9973C134.876 72.73 134.695 72.4288 134.541 72.0936C134.387 71.7538 134.26 71.3982 134.16 71.0268L134.609 70.9181ZM131.449 70.3541L131.925 70.225C131.979 70.379 132.031 70.5444 132.081 70.721C132.135 70.8977 132.181 71.0698 132.217 71.2374C132.258 71.4005 132.287 71.5432 132.305 71.6655L131.796 71.8218C131.777 71.6949 131.75 71.5477 131.714 71.3801C131.682 71.2125 131.642 71.0381 131.592 70.8569C131.546 70.6757 131.499 70.5081 131.449 70.3541ZM130.844 72.114L131.313 72.0324C131.354 72.2635 131.388 72.5149 131.415 72.7867C131.447 73.0539 131.465 73.2872 131.469 73.4865L130.98 73.5749C130.98 73.3755 130.967 73.14 130.939 72.8682C130.912 72.5964 130.881 72.345 130.844 72.114ZM130.151 72.046L130.661 72.1276C130.629 72.4311 130.584 72.7368 130.525 73.0449C130.466 73.3529 130.4 73.6156 130.328 73.8331C130.292 73.8104 130.244 73.7878 130.185 73.7651C130.126 73.7425 130.065 73.7221 130.002 73.704C129.938 73.6858 129.886 73.67 129.845 73.6564C129.927 73.448 129.99 73.1989 130.036 72.909C130.086 72.6145 130.124 72.3269 130.151 72.046ZM130.029 70.2318C130.02 70.191 130.002 70.1367 129.975 70.0687C129.952 69.9962 129.927 69.9238 129.9 69.8513C129.877 69.7743 129.855 69.7109 129.832 69.661C129.891 69.6474 129.95 69.6089 130.009 69.5455C130.072 69.4776 130.135 69.3915 130.199 69.2873C130.249 69.2239 130.321 69.1061 130.416 68.934C130.516 68.7573 130.62 68.5535 130.729 68.3224C130.842 68.0869 130.939 67.8468 131.021 67.6022L131.612 67.8468C131.503 68.0914 131.383 68.3383 131.252 68.5874C131.121 68.8366 130.982 69.0744 130.838 69.3009C130.693 69.5229 130.548 69.7244 130.403 69.9056V69.9192C130.403 69.9192 130.385 69.9306 130.348 69.9532C130.312 69.9759 130.267 70.003 130.212 70.0347C130.163 70.0664 130.12 70.1004 130.083 70.1367C130.047 70.1684 130.029 70.2001 130.029 70.2318ZM130.029 70.2318L130.015 69.7765L130.294 69.5999L131.476 69.5047C131.463 69.5817 131.449 69.6701 131.435 69.7697C131.426 69.8694 131.42 69.9509 131.415 70.0144C131.152 70.0461 130.937 70.0732 130.77 70.0959C130.602 70.114 130.468 70.1321 130.369 70.1503C130.274 70.1638 130.201 70.1774 130.151 70.191C130.101 70.2046 130.061 70.2182 130.029 70.2318ZM130.076 71.7878C130.067 71.7425 130.049 71.6836 130.022 71.6111C129.999 71.5387 129.975 71.4639 129.947 71.3869C129.92 71.3099 129.895 71.2442 129.873 71.1899C129.954 71.1717 130.033 71.1242 130.11 71.0472C130.192 70.9656 130.285 70.8614 130.389 70.7346C130.448 70.6757 130.529 70.5761 130.634 70.4356C130.738 70.2907 130.856 70.1208 130.987 69.926C131.118 69.7312 131.25 69.5206 131.381 69.2941C131.517 69.0676 131.637 68.8388 131.741 68.6078L132.298 68.9408C132.131 69.2443 131.945 69.5478 131.741 69.8513C131.542 70.1548 131.334 70.4424 131.116 70.7142C130.903 70.986 130.686 71.2329 130.464 71.4549V71.4752C130.464 71.4752 130.443 71.4866 130.403 71.5092C130.366 71.5273 130.321 71.5523 130.267 71.584C130.217 71.6157 130.172 71.6496 130.131 71.6859C130.095 71.7221 130.076 71.7561 130.076 71.7878ZM130.076 71.7878L130.056 71.319L130.335 71.1287L131.979 70.9249C131.965 71.0019 131.954 71.0902 131.945 71.1899C131.941 71.2895 131.941 71.3711 131.945 71.4345C131.574 71.4888 131.272 71.5364 131.041 71.5772C130.815 71.6134 130.636 71.6429 130.505 71.6655C130.378 71.6882 130.283 71.7085 130.219 71.7267C130.16 71.7448 130.113 71.7652 130.076 71.7878ZM131.503 71.9849L131.931 71.849C131.995 72.012 132.056 72.191 132.115 72.3858C132.174 72.576 132.217 72.7414 132.244 72.8818L131.789 73.0313C131.766 72.8908 131.728 72.7232 131.673 72.5285C131.619 72.3291 131.562 72.1479 131.503 71.9849Z" fill="#424242"/>
</g>
<defs>
<clipPath id="clip0_152_5804">
<rect width="200" height="200" fill="white" transform="translate(0.704956 0.154297)"/>
</clipPath>
</defs>
</svg>
