<svg width="200" height="201" viewBox="0 0 200 201" fill="none" xmlns="http://www.w3.org/2000/svg">
<g clip-path="url(#clip0_152_5803)">
<rect x="79.0868" y="62.4901" width="28.3205" height="15.4743" stroke="#424242" stroke-width="0.679485"/>
<path d="M88.1253 71.2493V70.3931C87.9146 70.7261 87.6428 71.0386 87.3846 71.2357C87.3167 71.1405 87.2148 71.0046 87.1128 70.9095C87.0517 71.8812 86.9022 72.9548 86.5013 73.7498C86.3858 73.6546 86.1208 73.5052 85.9713 73.4576C86.5013 72.4044 86.5489 70.9027 86.5489 69.8359V67.8179H92.1546V68.3886H87.14V69.8427C87.14 70.1349 87.1332 70.4543 87.1196 70.794C87.405 70.597 87.6972 70.2844 87.9146 69.965H87.3167V69.5098H88.1253V69.1021C87.8942 69.1361 87.6632 69.1632 87.4458 69.1768C87.4186 69.0749 87.3575 68.9118 87.3031 68.8031C87.8874 68.7488 88.5669 68.6468 88.9271 68.4973L89.3348 68.8167C89.1445 68.8982 88.9067 68.9594 88.6553 69.007V69.5098H89.4027V69.965H88.6553V69.9718C88.8319 70.0805 89.2736 70.3863 89.3891 70.4814L89.0833 70.8755C88.995 70.7736 88.8251 70.6105 88.6553 70.4746V71.2493H88.1253ZM89.9463 72.3364V73.0567H92.1614V73.5867H87.0313V73.0567H87.8331V71.7045H88.4378V73.0567H89.3348V71.2153H89.5862C89.4978 71.093 89.3483 70.9231 89.2396 70.8348C89.5726 70.6581 89.9123 70.3184 90.1569 69.965H89.593V69.5098H90.4559V69.0953C90.2045 69.1293 89.9395 69.1564 89.7017 69.17C89.6813 69.0613 89.6201 68.8982 89.559 68.7963C90.2045 68.742 90.9587 68.6264 91.3528 68.477L91.7605 68.8031C91.5363 68.8914 91.2713 68.9594 90.9859 69.007V69.5098H92.0323V69.965H90.9859V69.9854L90.9927 69.9786C91.2237 70.1145 91.9915 70.6513 92.1818 70.794L91.8896 71.2153C91.7062 71.0318 91.2985 70.6921 90.9859 70.4543V71.2493H90.4559V70.2504C90.2249 70.6377 89.9191 70.9979 89.6133 71.2221H89.9463V71.8404H91.5431V72.3364H89.9463ZM94.6687 69.1564V70.2844H96.2995V69.1564H94.6687ZM98.5825 69.1564H96.9518V70.2844H98.5825V69.1564ZM99.2348 70.8891H96.9382C96.8974 71.4735 96.7547 72.0307 96.3674 72.5063C97.2032 72.914 98.3175 73.0363 99.7784 73.0771C99.6629 73.2334 99.5338 73.5119 99.4863 73.7294C97.971 73.6478 96.7751 73.4712 95.8714 72.9616C95.4229 73.2877 94.7842 73.5663 93.8873 73.7769C93.8194 73.6275 93.6495 73.3557 93.5136 73.213C94.329 73.0499 94.9065 72.8393 95.321 72.5743C94.9269 72.2413 94.6076 71.8132 94.3426 71.2629L94.9201 71.0522C95.1579 71.5211 95.4637 71.8812 95.8102 72.1666C96.1364 71.7928 96.2519 71.358 96.2859 70.8891H94.0504V68.5517H96.2995V67.5529H96.9518V68.5517H99.2348V70.8891Z" fill="#424242"/>
<path d="M47.5214 62.2812L14.5002 62.2813" stroke="#222222" stroke-width="0.679485" stroke-linecap="round"/>
<path d="M64.6091 34.3711H59.6488" stroke="#222222" stroke-width="0.679485" stroke-linecap="round"/>
<path d="M14.5 76.8301L14.5 65.1201" stroke="#222222" stroke-width="0.679485" stroke-linecap="round" stroke-dasharray="1.36 1.36"/>
<path d="M128.5 59.8594L128.5 20.7295" stroke="#222222" stroke-width="0.679485" stroke-linecap="round" stroke-dasharray="1.36 1.36"/>
<path d="M48.7932 76.8301L48.7932 65.1201" stroke="#222222" stroke-width="0.679485" stroke-linecap="round" stroke-dasharray="1.36 1.36"/>
<path d="M31.0109 58.998L31.0109 47.2842" stroke="#222222" stroke-width="0.679485" stroke-linecap="round"/>
<path d="M93.2471 58.998L93.2471 47.2842" stroke="#222222" stroke-width="0.679485" stroke-linecap="round"/>
<rect x="5.85061" y="26.6308" width="50.3205" height="15.4743" rx="7.73717" stroke="#43B71B" stroke-width="0.679485"/>
<path d="M16.88 34.4726L17.5323 34.6628C17.2786 35.2744 16.9434 35.7953 16.5266 36.2257C16.1144 36.6515 15.6297 37.0025 15.0725 37.2789C14.5153 37.5506 13.8947 37.7726 13.2107 37.9447C13.1881 37.8949 13.1541 37.8338 13.1088 37.7613C13.0635 37.6888 13.0137 37.6163 12.9593 37.5439C12.9095 37.4714 12.8642 37.4125 12.8234 37.3672C13.4939 37.2313 14.0963 37.0433 14.6309 36.8032C15.1654 36.5586 15.6229 36.246 16.0034 35.8655C16.3839 35.485 16.6761 35.0207 16.88 34.4726ZM14.6105 33.3107L15.2356 33.5553C15.0771 33.7501 14.8959 33.9448 14.692 34.1396C14.4927 34.3344 14.2843 34.5179 14.0669 34.69C13.8494 34.8576 13.6411 35.0071 13.4418 35.1385C13.4055 35.0932 13.3557 35.0411 13.2923 34.9822C13.2289 34.9233 13.1654 34.8644 13.102 34.8055C13.0386 34.7421 12.982 34.6945 12.9321 34.6628C13.136 34.5541 13.3398 34.4273 13.5437 34.2823C13.7521 34.1328 13.9491 33.9766 14.1348 33.8135C14.3206 33.6459 14.4791 33.4783 14.6105 33.3107ZM14.9638 34.5066C15.2764 35.2676 15.7724 35.8859 16.4519 36.3615C17.1314 36.8327 17.9875 37.152 19.0203 37.3196C18.9796 37.3604 18.932 37.4148 18.8776 37.4827C18.8278 37.5552 18.7802 37.6277 18.7349 37.7001C18.6896 37.7726 18.6534 37.8383 18.6262 37.8972C17.906 37.7613 17.2741 37.5552 16.7305 37.2789C16.1914 36.998 15.7271 36.6424 15.3375 36.2121C14.9525 35.7817 14.6354 35.2744 14.3862 34.69L14.9638 34.5066ZM12.9389 32.536H18.8641V33.1612H12.9389V32.536ZM16.6421 33.6572L17.1517 33.2903C17.3511 33.4262 17.5617 33.5802 17.7837 33.7523C18.0102 33.9245 18.2231 34.0966 18.4224 34.2687C18.6217 34.4409 18.7825 34.5994 18.9048 34.7444L18.3612 35.1657C18.248 35.0207 18.0962 34.8599 17.906 34.6832C17.7157 34.502 17.5096 34.3231 17.2876 34.1464C17.0657 33.9652 16.8505 33.8022 16.6421 33.6572ZM15.2968 31.7682L15.9083 31.5576C16.0034 31.698 16.0985 31.8543 16.1937 32.0264C16.2888 32.1986 16.359 32.3458 16.4043 32.4681L15.7656 32.7127C15.7248 32.5859 15.6591 32.4341 15.5685 32.2575C15.4825 32.0808 15.3919 31.9177 15.2968 31.7682ZM23.0769 32.8486L23.4845 32.4953C23.6975 32.5723 23.9262 32.6606 24.1708 32.7603C24.4154 32.8599 24.6487 32.9619 24.8707 33.066C25.0972 33.1702 25.2874 33.2676 25.4415 33.3582L25.0066 33.7523C24.8662 33.6663 24.685 33.5689 24.463 33.4601C24.2456 33.3514 24.0145 33.2427 23.7699 33.134C23.5298 33.0253 23.2988 32.9301 23.0769 32.8486ZM22.4313 33.3378H25.8831V33.8135H23.0089V36.844H22.4313V33.3378ZM25.6589 33.3378H26.2365V36.28C26.2365 36.4204 26.2183 36.5269 26.1821 36.5994C26.1504 36.6718 26.087 36.7307 25.9918 36.776C25.9013 36.8168 25.7812 36.8417 25.6317 36.8508C25.4868 36.8598 25.3056 36.8644 25.0881 36.8644C25.0791 36.7874 25.0587 36.7036 25.027 36.613C24.9953 36.5224 24.9613 36.4431 24.9251 36.3751C25.0655 36.3797 25.1946 36.3819 25.3124 36.3819C25.4301 36.3819 25.5094 36.3819 25.5502 36.3819C25.591 36.3774 25.6181 36.3683 25.6317 36.3548C25.6498 36.3412 25.6589 36.314 25.6589 36.2732V33.3378ZM22.4721 31.8905L25.7948 31.8905V32.373H22.4721V31.8905ZM22.7779 34.3163H25.856V34.7783H22.7779V34.3163ZM22.7779 35.2948H25.856V35.7772H22.7779V35.2948ZM24.0281 33.5485H24.5853V36.8304H24.0281V33.5485ZM25.5774 31.8905H25.7201L25.8492 31.8566L26.2365 32.1623C26.0824 32.3073 25.908 32.4522 25.7133 32.5972C25.5185 32.7422 25.3146 32.8781 25.1017 33.0049C24.8888 33.1272 24.6782 33.2359 24.4698 33.331C24.429 33.2722 24.3747 33.2065 24.3067 33.134C24.2433 33.0615 24.1867 33.0049 24.1369 32.9641C24.318 32.8826 24.4992 32.7875 24.6804 32.6787C24.8662 32.57 25.0383 32.4568 25.1969 32.339C25.3554 32.2212 25.4822 32.1102 25.5774 32.006V31.8905ZM20.5084 31.9245L20.984 31.6323C21.0928 31.7411 21.2015 31.8588 21.3102 31.9857C21.4234 32.1125 21.5299 32.2348 21.6296 32.3526C21.7292 32.4704 21.8107 32.5746 21.8742 32.6652L21.3849 33.0185C21.3215 32.9234 21.24 32.8124 21.1403 32.6855C21.0452 32.5587 20.941 32.4296 20.8278 32.2982C20.719 32.1623 20.6126 32.0378 20.5084 31.9245ZM20.291 33.2087H21.7587V33.7319H20.291V33.2087ZM21.582 36.2528C21.7134 36.5518 21.8946 36.7738 22.1256 36.9187C22.3566 37.0637 22.6375 37.1588 22.9681 37.2041C23.3034 37.2494 23.6861 37.2721 24.1165 37.2721C24.3566 37.2721 24.6238 37.2675 24.9183 37.2585C25.2127 37.2494 25.5094 37.2381 25.8084 37.2245C26.1074 37.2109 26.3769 37.1928 26.617 37.1701C26.5853 37.2154 26.5558 37.2743 26.5286 37.3468C26.5015 37.4193 26.4765 37.494 26.4539 37.571C26.4358 37.648 26.4199 37.716 26.4063 37.7749C26.1844 37.7885 25.9443 37.7998 25.6861 37.8089C25.4279 37.8179 25.1651 37.8247 24.8979 37.8292C24.6306 37.8338 24.3679 37.836 24.1097 37.836C23.711 37.836 23.3554 37.8179 23.0429 37.7817C22.7348 37.7454 22.4608 37.6798 22.2207 37.5846C21.9852 37.4895 21.779 37.3513 21.6024 37.1701C21.4257 36.9844 21.274 36.7398 21.1471 36.4363L21.582 36.2528ZM21.5548 34.8803H21.7111L21.813 34.8667L22.1256 34.9822C22.0123 35.7206 21.8198 36.3366 21.548 36.8304C21.2762 37.3196 20.9478 37.6933 20.5628 37.9515C20.5356 37.9062 20.4971 37.8542 20.4472 37.7953C20.3974 37.7409 20.3453 37.6865 20.291 37.6322C20.2366 37.5824 20.1868 37.5439 20.1415 37.5167C20.5084 37.2902 20.8142 36.964 21.0588 36.5382C21.3034 36.1124 21.4687 35.596 21.5548 34.989V34.8803ZM20.3997 35.4918V35.0162L20.6647 34.8803H21.7519V35.3899H20.8142C20.7281 35.3899 20.6443 35.4012 20.5628 35.4239C20.4812 35.442 20.4269 35.4646 20.3997 35.4918ZM20.3997 35.4918C20.3906 35.442 20.3702 35.3831 20.3385 35.3151C20.3114 35.2472 20.2842 35.1792 20.257 35.1113C20.2298 35.0388 20.2049 34.9822 20.1823 34.9414C20.2366 34.9278 20.291 34.9075 20.3453 34.8803C20.3997 34.8486 20.4586 34.7987 20.522 34.7308C20.5764 34.681 20.6511 34.5949 20.7462 34.4726C20.8414 34.3503 20.9433 34.2144 21.052 34.0649C21.1652 33.9109 21.2694 33.7637 21.3646 33.6232C21.4642 33.4783 21.5435 33.3605 21.6024 33.2699V33.2495L21.7858 33.1748L22.1867 33.3582C22.1052 33.476 22.0078 33.6142 21.8946 33.7727C21.7858 33.9267 21.6703 34.0875 21.548 34.2551C21.4257 34.4182 21.3034 34.5768 21.1811 34.7308C21.0633 34.8803 20.9546 35.0094 20.8549 35.1181C20.8549 35.1181 20.8323 35.1317 20.787 35.1589C20.7417 35.1815 20.6873 35.2132 20.6239 35.254C20.565 35.2902 20.5129 35.331 20.4676 35.3763C20.4223 35.4171 20.3997 35.4556 20.3997 35.4918ZM33.4662 34.8395L33.9554 35.1725C33.8105 35.3446 33.6678 35.5235 33.5273 35.7092C33.3914 35.8904 33.2623 36.0445 33.14 36.1713L32.7867 35.9063C32.8592 35.8112 32.9385 35.7024 33.0245 35.5801C33.1106 35.4533 33.1921 35.3242 33.2691 35.1928C33.3507 35.0615 33.4164 34.9437 33.4662 34.8395ZM31.7403 31.6323H32.3111V33.0932H31.7403V31.6323ZM32.0529 34.459H32.6236C32.6055 34.8622 32.5738 35.2404 32.5285 35.5937C32.4832 35.9425 32.4062 36.2642 32.2975 36.5586C32.1933 36.8485 32.0415 37.109 31.8422 37.34C31.6429 37.571 31.3802 37.7681 31.054 37.9312C31.0223 37.8587 30.9702 37.7771 30.8977 37.6865C30.8253 37.5959 30.755 37.5235 30.6871 37.4691C30.9815 37.3332 31.2148 37.1656 31.387 36.9663C31.5636 36.767 31.6973 36.5405 31.7879 36.2868C31.8785 36.0331 31.9419 35.7545 31.9781 35.451C32.0144 35.143 32.0393 34.8123 32.0529 34.459ZM32.5081 35.4171C32.5896 35.707 32.7006 35.9833 32.8411 36.246C32.9815 36.5088 33.1468 36.7421 33.3371 36.9459C33.5273 37.1498 33.7425 37.3106 33.9826 37.4283C33.9192 37.4827 33.8512 37.5552 33.7787 37.6458C33.7063 37.7364 33.6474 37.8202 33.6021 37.8972C33.3484 37.7432 33.1219 37.5484 32.9226 37.3128C32.7233 37.0727 32.5511 36.8009 32.4062 36.4974C32.2612 36.1894 32.1435 35.8633 32.0529 35.519L32.5081 35.4171ZM30.4968 33.664H33.935V34.2076H30.4968V33.664ZM30.2658 33.664H30.8298V35.0162C30.8298 35.2291 30.8207 35.4624 30.8026 35.716C30.789 35.9697 30.7596 36.2302 30.7143 36.4974C30.6735 36.7602 30.6123 37.0161 30.5308 37.2653C30.4538 37.5144 30.3496 37.7409 30.2182 37.9447C30.1865 37.913 30.139 37.8768 30.0756 37.836C30.0167 37.7953 29.9555 37.7545 29.8921 37.7137C29.8287 37.673 29.772 37.6435 29.7222 37.6254C29.8853 37.3672 30.0053 37.0841 30.0823 36.776C30.1594 36.468 30.2092 36.16 30.2318 35.8519C30.2545 35.5439 30.2658 35.263 30.2658 35.0094V33.664ZM30.7754 35.1045L31.1831 34.8667C31.2556 34.9799 31.3303 35.1045 31.4073 35.2404C31.4889 35.3718 31.5636 35.4986 31.6316 35.6209C31.7041 35.7432 31.7629 35.8497 31.8082 35.9403L31.3734 36.2257C31.3371 36.126 31.285 36.0127 31.2171 35.8859C31.1491 35.7545 31.0767 35.6209 30.9997 35.485C30.9226 35.3446 30.8479 35.2177 30.7754 35.1045ZM30.3677 31.843H30.9453V32.7467H33.1332V31.843H33.7448V33.2767H30.3677V31.843ZM27.7789 31.9653H30.0823V32.5496H27.7789V31.9653ZM28.4856 34.0717H29.9125V37.0954H28.4856V36.5246H29.43V34.6357H28.4856V34.0717ZM28.6147 32.2643L29.2058 32.3934C29.1243 32.8192 29.0224 33.2404 28.9 33.6572C28.7823 34.0739 28.6396 34.4635 28.472 34.8259C28.3044 35.1883 28.1096 35.5054 27.8876 35.7772C27.8786 35.7228 27.8582 35.6504 27.8265 35.5598C27.7993 35.4646 27.7676 35.3718 27.7313 35.2812C27.6996 35.186 27.6656 35.109 27.6294 35.0501C27.8831 34.7104 28.0892 34.2982 28.2477 33.8135C28.4063 33.3243 28.5286 32.8078 28.6147 32.2643ZM28.2138 34.0717H28.7438V37.6254H28.2138L28.2138 34.0717ZM38.4332 31.6255H39.0176V34.5066C39.0176 34.8463 39.0017 35.177 38.97 35.4986C38.9428 35.8202 38.8817 36.1283 38.7866 36.4227C38.6914 36.7126 38.5533 36.9867 38.3721 37.2449C38.1954 37.4986 37.9531 37.7318 37.645 37.9447C37.6133 37.8995 37.568 37.8496 37.5091 37.7953C37.4548 37.7409 37.4004 37.6888 37.346 37.639C37.2917 37.5892 37.2396 37.5484 37.1898 37.5167C37.4661 37.3309 37.6881 37.1248 37.8557 36.8983C38.0233 36.6718 38.1478 36.4318 38.2294 36.1781C38.3109 35.9244 38.3653 35.6571 38.3925 35.3763C38.4196 35.0954 38.4332 34.8055 38.4332 34.5066V31.6255ZM39.6223 31.6255H40.2271V37.9312H39.6223V31.6255ZM37.3664 32.7671H38.6914V33.3514H37.3664V32.7671ZM39.9417 32.7671H41.3686V33.3514H39.9417V32.7671ZM39.9757 34.2008H41.2939V34.7648H39.9757V34.2008ZM39.9349 35.6685H41.4841V36.2596H39.9349V35.6685ZM37.4208 34.2008H38.7118V34.7648H37.4208V34.2008ZM37.0199 35.9607C37.2147 35.9108 37.4412 35.8451 37.6994 35.7636C37.9621 35.6821 38.2316 35.5983 38.508 35.5122L38.6031 36.015C38.3721 36.1011 38.141 36.1871 37.91 36.2732C37.6835 36.3593 37.4684 36.4408 37.2645 36.5178L37.0199 35.9607ZM35.1037 35.1113C35.371 35.0388 35.6926 34.9505 36.0686 34.8463C36.4446 34.7376 36.8251 34.6243 37.2101 34.5066L37.2917 35.0909C36.9429 35.2042 36.5896 35.3174 36.2317 35.4307C35.8738 35.5394 35.5477 35.639 35.2532 35.7296L35.1037 35.1113ZM35.2057 32.9641L37.2713 32.9641V33.5621L35.2057 33.5621V32.9641ZM35.9939 31.6391H36.5918V37.2313C36.5918 37.3898 36.5737 37.5144 36.5375 37.605C36.5012 37.6956 36.4355 37.7681 36.3404 37.8224C36.2498 37.8723 36.132 37.904 35.9871 37.9176C35.8466 37.9357 35.6655 37.9447 35.4435 37.9447C35.439 37.8632 35.4186 37.7636 35.3823 37.6458C35.3506 37.5325 35.3144 37.4329 35.2736 37.3468C35.4095 37.3513 35.5341 37.3536 35.6473 37.3536C35.7606 37.3536 35.8376 37.3513 35.8784 37.3468C35.9191 37.3468 35.9486 37.34 35.9667 37.3264C35.9848 37.3083 35.9939 37.2766 35.9939 37.2313V31.6391ZM43.7672 31.7614L44.3311 31.6119C44.3991 31.7569 44.4648 31.9155 44.5282 32.0876C44.5961 32.2552 44.6482 32.3979 44.6845 32.5157L44.0933 32.6991C44.0662 32.5723 44.0186 32.4205 43.9506 32.2439C43.8872 32.0672 43.8261 31.9064 43.7672 31.7614ZM42.6936 32.7059H45.7037V33.3039H42.6936V32.7059ZM43.8079 34.1057H45.0446V34.69H43.8079V34.1057ZM44.8272 34.1057H45.4387C45.4387 34.1057 45.4387 34.1238 45.4387 34.16C45.4387 34.1917 45.4387 34.2302 45.4387 34.2755C45.4387 34.3163 45.4364 34.3503 45.4319 34.3775C45.4229 34.9301 45.4115 35.3989 45.3979 35.784C45.3889 36.169 45.3753 36.4861 45.3572 36.7353C45.3391 36.9799 45.3141 37.1724 45.2824 37.3128C45.2552 37.4487 45.219 37.5484 45.1737 37.6118C45.1148 37.6933 45.0514 37.7522 44.9835 37.7885C44.92 37.8247 44.8408 37.8496 44.7456 37.8632C44.6641 37.8768 44.5576 37.8836 44.4263 37.8836C44.2949 37.8881 44.1567 37.8859 44.0118 37.8768C44.0027 37.7907 43.9846 37.6911 43.9574 37.5778C43.9303 37.4646 43.894 37.3672 43.8487 37.2856C43.971 37.2992 44.0843 37.3083 44.1885 37.3128C44.2972 37.3128 44.3787 37.3128 44.4331 37.3128C44.4784 37.3128 44.5169 37.306 44.5486 37.2924C44.5803 37.2789 44.6097 37.2539 44.6369 37.2177C44.6641 37.1769 44.6867 37.0977 44.7049 36.9799C44.7275 36.8576 44.7456 36.6832 44.7592 36.4567C44.7728 36.2257 44.7841 35.9289 44.7932 35.5666C44.8068 35.1996 44.8181 34.7534 44.8272 34.228V34.1057ZM46.39 32.8826H48.972V33.4805H46.39V32.8826ZM46.5055 31.6255L47.1646 31.7343C47.0831 32.1782 46.9811 32.6108 46.8588 33.0321C46.7365 33.4534 46.5938 33.8452 46.4308 34.2076C46.2677 34.57 46.0797 34.8871 45.8668 35.1589C45.8351 35.1136 45.7898 35.0592 45.7309 34.9958C45.672 34.9324 45.6108 34.8689 45.5474 34.8055C45.484 34.7421 45.4274 34.6923 45.3776 34.656C45.5723 34.4205 45.7399 34.1419 45.8804 33.8203C46.0253 33.4987 46.1499 33.1521 46.2541 32.7807C46.3583 32.4047 46.4421 32.0196 46.5055 31.6255ZM47.8645 33.2291L48.4964 33.2971C48.3831 34.0672 48.2178 34.7489 48.0004 35.3423C47.7829 35.9312 47.4885 36.4408 47.117 36.8712C46.7501 37.3015 46.2813 37.6639 45.7105 37.9583C45.6924 37.9085 45.6607 37.8474 45.6154 37.7749C45.5746 37.7024 45.5293 37.6322 45.4795 37.5642C45.4297 37.4963 45.3844 37.4397 45.3436 37.3944C45.8781 37.1498 46.313 36.8372 46.6482 36.4567C46.9879 36.0716 47.2529 35.6119 47.4432 35.0773C47.6334 34.5383 47.7739 33.9222 47.8645 33.2291ZM46.6754 33.399C46.7841 34.006 46.9336 34.5722 47.1238 35.0977C47.3186 35.6186 47.5723 36.0739 47.8849 36.4635C48.202 36.853 48.587 37.152 49.04 37.3604C48.9947 37.4057 48.9426 37.4601 48.8837 37.5235C48.8293 37.5869 48.775 37.6526 48.7206 37.7205C48.6708 37.793 48.63 37.8587 48.5983 37.9176C48.1136 37.6639 47.7082 37.3219 47.382 36.8915C47.0604 36.4612 46.7999 35.9584 46.6006 35.3831C46.4013 34.8078 46.2405 34.1781 46.1182 33.4941L46.6754 33.399ZM43.4342 33.0117H44.0458V34.6832C44.0458 35.0547 44.0209 35.4284 43.971 35.8044C43.9257 36.1804 43.8306 36.5473 43.6856 36.9051C43.5407 37.263 43.3187 37.6005 43.0197 37.9176C42.9654 37.8496 42.8929 37.7771 42.8023 37.7001C42.7117 37.6231 42.6256 37.5574 42.5441 37.5031C42.8114 37.2132 43.0062 36.9097 43.1285 36.5926C43.2553 36.271 43.3368 35.9471 43.3731 35.6209C43.4138 35.2948 43.4342 34.9799 43.4342 34.6764V33.0117Z" fill="#43B71B"/>
<rect x="114.34" y="0.494039" width="28.3205" height="15.4743" rx="7.73717" stroke="#424242" stroke-width="0.679485" stroke-dasharray="1.36 1.36"/>
<path d="M121.584 7.55445H123.63V8.05727H121.584V7.55445ZM121.584 8.46496H123.643V8.96099H121.584V8.46496ZM121.292 6.63715H123.915V7.15356H121.292V6.63715ZM121.863 9.38227H123.63V11.4071H121.863V10.8771H123.072V9.90547H121.863V9.38227ZM121.584 9.38227H122.135V11.7129H121.584V9.38227ZM122.012 5.71305L122.508 5.46164C122.608 5.60207 122.706 5.75608 122.801 5.92369C122.896 6.08677 122.971 6.23172 123.025 6.35856L122.508 6.64394C122.454 6.52164 122.379 6.37215 122.284 6.19548C122.194 6.01429 122.103 5.85348 122.012 5.71305ZM124.567 5.72664H126.348V6.32459L124.567 6.32459V5.72664ZM123.827 8.47176H126.816V9.0765H123.827V8.47176ZM126.592 8.47176H126.714L126.823 8.45137L127.224 8.62125C127.097 9.06518 126.925 9.46154 126.708 9.81034C126.49 10.1546 126.237 10.4559 125.947 10.7141C125.661 10.9723 125.344 11.1897 124.995 11.3664C124.651 11.543 124.284 11.688 123.895 11.8012C123.876 11.7423 123.849 11.6767 123.813 11.6042C123.777 11.5317 123.736 11.4615 123.691 11.3935C123.65 11.3256 123.609 11.269 123.568 11.2237C123.922 11.1421 124.257 11.0266 124.574 10.8771C124.891 10.7231 125.183 10.5351 125.451 10.3132C125.718 10.0912 125.949 9.83526 126.144 9.54535C126.338 9.25543 126.488 8.93154 126.592 8.57368V8.47176ZM124.622 9.00855C124.789 9.37547 125.013 9.70616 125.294 10.0006C125.58 10.2905 125.915 10.5374 126.3 10.7412C126.69 10.9451 127.12 11.0968 127.591 11.1965C127.546 11.2418 127.498 11.2984 127.448 11.3664C127.398 11.4388 127.351 11.5113 127.306 11.5838C127.26 11.6563 127.222 11.722 127.19 11.7809C126.452 11.5951 125.822 11.2826 125.301 10.8432C124.785 10.4038 124.375 9.85564 124.071 9.19881L124.622 9.00855ZM124.445 5.72664L125.036 5.72664V6.48766C125.036 6.70057 125.009 6.92027 124.955 7.14676C124.905 7.36873 124.807 7.5839 124.662 7.79227C124.517 8.00065 124.305 8.18411 124.024 8.34266C123.997 8.29736 123.956 8.24526 123.901 8.18638C123.852 8.12296 123.799 8.0618 123.745 8.00291C123.691 7.94403 123.645 7.90099 123.609 7.87381C123.854 7.73792 124.035 7.59296 124.153 7.43894C124.275 7.2804 124.354 7.11958 124.391 6.95651C124.427 6.7889 124.445 6.62809 124.445 6.47407V5.72664ZM126.035 5.72664H126.626V7.26907C126.626 7.3642 126.631 7.43215 126.64 7.47292C126.653 7.51369 126.683 7.53407 126.728 7.53407C126.751 7.53407 126.785 7.53407 126.83 7.53407C126.88 7.53407 126.927 7.53407 126.973 7.53407C127.023 7.53407 127.056 7.53407 127.075 7.53407C127.12 7.53407 127.172 7.5318 127.231 7.52727C127.294 7.51821 127.346 7.50689 127.387 7.4933C127.396 7.57484 127.403 7.6677 127.408 7.77189C127.412 7.87608 127.421 7.96441 127.435 8.03689C127.394 8.05501 127.342 8.06633 127.278 8.07086C127.215 8.07539 127.149 8.07766 127.081 8.07766C127.054 8.07766 127.013 8.07766 126.959 8.07766C126.905 8.07766 126.85 8.07766 126.796 8.07766C126.742 8.07766 126.701 8.07766 126.674 8.07766C126.493 8.07766 126.357 8.05048 126.266 7.99612C126.175 7.94176 126.114 7.85569 126.083 7.73792C126.051 7.61561 126.035 7.4548 126.035 7.25548V5.72664ZM129.942 7.58843H133.822V8.19997H129.942V7.58843ZM131.872 9.18522H134.162V9.78996H131.872V9.18522ZM131.532 7.90099H132.198V11.2712L131.532 11.1829L131.532 7.90099ZM129.935 8.65522L130.588 8.71637C130.492 9.40492 130.336 10.0097 130.119 10.5306C129.901 11.0515 129.598 11.4796 129.208 11.8148C129.176 11.7786 129.129 11.731 129.065 11.6721C129.002 11.6178 128.936 11.5634 128.868 11.5091C128.8 11.4592 128.742 11.4185 128.692 11.3868C129.068 11.1014 129.351 10.7254 129.541 10.2588C129.736 9.79223 129.867 9.2577 129.935 8.65522ZM130.404 9.51137C130.517 9.84205 130.662 10.1093 130.839 10.3132C131.02 10.517 131.231 10.6733 131.471 10.782C131.711 10.8862 131.974 10.9587 132.259 10.9994C132.544 11.0357 132.85 11.0538 133.176 11.0538C133.235 11.0538 133.324 11.0538 133.441 11.0538C133.564 11.0538 133.697 11.0538 133.842 11.0538C133.992 11.0538 134.141 11.0538 134.291 11.0538C134.445 11.0538 134.585 11.0538 134.712 11.0538C134.843 11.0493 134.948 11.047 135.025 11.047C134.993 11.0968 134.959 11.1603 134.923 11.2373C134.891 11.3143 134.864 11.3935 134.841 11.4751C134.818 11.5612 134.8 11.6359 134.787 11.6993H134.447H133.142C132.744 11.6993 132.375 11.6721 132.035 11.6178C131.7 11.5634 131.396 11.466 131.124 11.3256C130.857 11.1852 130.617 10.9836 130.404 10.7209C130.196 10.4581 130.019 10.1161 129.874 9.69483L130.404 9.51137ZM128.998 6.23625H134.746V7.82625H134.087V6.84779H129.629V7.82625H128.998V6.23625ZM131.315 5.61792L131.953 5.43446C132.035 5.57036 132.114 5.72211 132.191 5.88972C132.268 6.05279 132.322 6.19548 132.354 6.31779L131.682 6.52164C131.654 6.40386 131.607 6.2589 131.539 6.08677C131.471 5.91463 131.396 5.75835 131.315 5.61792Z" fill="#424242"/>
<rect x="68.0868" y="26.6347" width="50.3205" height="15.4705" rx="7.73526" stroke="#424242" stroke-width="0.679485"/>
<path d="M77.5873 33.5572H80.4887V34.1416H77.5873V33.5572ZM77.2883 33.5572H77.8863V35.5413C77.8863 35.7905 77.875 36.0645 77.8523 36.3635C77.8342 36.6579 77.7934 36.9456 77.73 37.2264C77.6666 37.5073 77.5669 37.7587 77.431 37.9807C77.3993 37.9444 77.3518 37.9014 77.2883 37.8516C77.2295 37.8063 77.166 37.761 77.0981 37.7157C77.0347 37.6704 76.9803 37.6364 76.935 37.6138C77.0437 37.419 77.123 37.2038 77.1728 36.9682C77.2272 36.7282 77.2589 36.4858 77.268 36.2412C77.2815 35.9921 77.2883 35.7565 77.2883 35.5345V33.5572ZM77.9339 36.0577C78.1422 36.017 78.3823 35.9671 78.6541 35.9082C78.9259 35.8494 79.2113 35.7859 79.5103 35.718C79.8138 35.6455 80.1173 35.5753 80.4208 35.5074L80.4819 36.0102C80.0742 36.1189 79.6643 36.2253 79.2521 36.3295C78.8444 36.4292 78.4729 36.5198 78.1377 36.6013L77.9339 36.0577ZM78.0426 34.9026L78.3008 34.5017C78.491 34.538 78.6903 34.5878 78.8987 34.6512C79.1071 34.7146 79.3064 34.7826 79.4967 34.855C79.6869 34.923 79.8432 34.9909 79.9655 35.0589L79.7005 35.5074C79.5782 35.4394 79.4219 35.3669 79.2317 35.2899C79.0459 35.2129 78.8489 35.1404 78.6405 35.0725C78.4321 35 78.2328 34.9434 78.0426 34.9026ZM80.5431 31.8042L81.1682 32.042C81.055 32.273 80.9326 32.504 80.8013 32.7351C80.6699 32.9615 80.5476 33.1586 80.4344 33.3262L79.8772 33.102C79.9542 32.9842 80.0335 32.8528 80.115 32.7079C80.1965 32.5584 80.2758 32.4044 80.3528 32.2458C80.4298 32.0873 80.4932 31.9401 80.5431 31.8042ZM77.1117 32.0895L77.6553 31.8517C77.7459 31.974 77.8387 32.1099 77.9339 32.2594C78.029 32.4089 78.1128 32.5561 78.1853 32.7011C78.2577 32.8415 78.3121 32.9706 78.3483 33.0884L77.764 33.367C77.7323 33.2492 77.6824 33.1178 77.6145 32.9729C77.5465 32.8234 77.4695 32.6716 77.3835 32.5176C77.2974 32.3636 77.2068 32.2209 77.1117 32.0895ZM80.2917 33.5572H80.9168V37.1993C80.9168 37.3623 80.8964 37.4914 80.8556 37.5866C80.8194 37.6817 80.7424 37.7564 80.6246 37.8108C80.5159 37.8606 80.3709 37.8901 80.1897 37.8991C80.0086 37.9082 79.7888 37.9127 79.5306 37.9127C79.5216 37.8312 79.4967 37.7293 79.4559 37.607C79.4197 37.4892 79.3789 37.3895 79.3336 37.308C79.5103 37.3125 79.6779 37.317 79.8364 37.3216C79.995 37.3216 80.1014 37.3216 80.1558 37.3216C80.2464 37.317 80.2917 37.274 80.2917 37.1925V33.5572ZM78.7968 31.6275H79.4491V33.9445H78.7968V31.6275ZM75.3382 32.1779L75.7187 31.7294C75.8501 31.8019 75.9928 31.8834 76.1468 31.974C76.3054 32.0601 76.4571 32.1462 76.6021 32.2322C76.747 32.3183 76.8671 32.3953 76.9622 32.4633L76.5681 32.9797C76.482 32.9072 76.3665 32.8257 76.2216 32.7351C76.0811 32.6399 75.9316 32.5448 75.7731 32.4497C75.6191 32.35 75.4741 32.2594 75.3382 32.1779ZM74.9577 34.0533L75.311 33.5844C75.4424 33.6433 75.5874 33.7158 75.7459 33.8018C75.9045 33.8834 76.0585 33.9649 76.208 34.0465C76.362 34.1235 76.4866 34.1959 76.5817 34.2639L76.2216 34.7939C76.131 34.7259 76.0109 34.6489 75.8614 34.5629C75.7165 34.4768 75.5647 34.3885 75.4062 34.2979C75.2476 34.2073 75.0981 34.1257 74.9577 34.0533ZM75.1887 37.4235C75.311 37.2514 75.4469 37.0453 75.5964 36.8052C75.7504 36.5651 75.9045 36.3114 76.0585 36.0441C76.2125 35.7724 76.3552 35.5074 76.4866 35.2491L76.9554 35.6772C76.8376 35.9128 76.7085 36.1597 76.5681 36.4179C76.4322 36.6715 76.2918 36.9207 76.1468 37.1653C76.0064 37.4099 75.8682 37.6409 75.7323 37.8584L75.1887 37.4235ZM83.4173 32.7079H87.5893V32.3749H82.9485V31.974L88.1805 31.974V33.1088H83.4173V32.7079ZM83.227 32.7079H83.7978C83.7706 32.9072 83.7412 33.1133 83.7095 33.3262C83.6778 33.5346 83.6438 33.7158 83.6076 33.8698H83.0436C83.0798 33.7067 83.1138 33.521 83.1455 33.3126C83.1817 33.0997 83.2089 32.8981 83.227 32.7079ZM83.3086 33.4689H88.2077V33.8698H83.1863L83.3086 33.4689ZM88.0038 33.4689H88.6086C88.6086 33.4689 88.6063 33.4915 88.6018 33.5368C88.6018 33.5821 88.5995 33.6206 88.595 33.6524C88.5769 33.8517 88.5542 34.008 88.527 34.1212C88.5044 34.2344 88.4659 34.3183 88.4115 34.3726C88.3662 34.4179 88.3119 34.4519 88.2484 34.4745C88.1896 34.4972 88.1261 34.5108 88.0582 34.5153C87.9948 34.5153 87.9064 34.5153 87.7932 34.5153C87.6845 34.5153 87.5667 34.513 87.4399 34.5085C87.4353 34.4496 87.4217 34.3817 87.3991 34.3047C87.3764 34.2277 87.3515 34.162 87.3243 34.1076C87.4195 34.1167 87.5055 34.1235 87.5825 34.128C87.6596 34.1325 87.7162 34.1325 87.7524 34.128C87.7887 34.128 87.8181 34.1257 87.8407 34.1212C87.8634 34.1167 87.8838 34.1053 87.9019 34.0872C87.9291 34.06 87.9495 34.0057 87.9631 33.9242C87.9812 33.8381 87.9948 33.709 88.0038 33.5368V33.4689ZM84.5656 31.6343H85.15V32.9389C85.15 33.1699 85.1228 33.3874 85.0684 33.5912C85.0141 33.795 84.9076 33.983 84.7491 34.1552C84.5951 34.3228 84.3663 34.4723 84.0628 34.6036C83.7593 34.735 83.3584 34.846 82.8601 34.9366C82.8465 34.8868 82.8216 34.8324 82.7854 34.7735C82.7491 34.7101 82.7106 34.6489 82.6699 34.59C82.6336 34.5266 82.5974 34.4745 82.5611 34.4338C83.0051 34.3613 83.3584 34.2752 83.6211 34.1756C83.8884 34.0714 84.09 33.9559 84.2259 33.829C84.3618 33.6977 84.4524 33.5572 84.4977 33.4077C84.543 33.2583 84.5656 33.0974 84.5656 32.9253V31.6343ZM86.0809 31.6343L86.6856 31.6343V34.325H86.0809V31.6343ZM84.056 35.4394V35.7927H87.2564V35.4394H84.056ZM84.056 36.1665V36.5266H87.2564V36.1665H84.056ZM84.056 34.7191V35.0725H87.2564V34.7191H84.056ZM83.4309 34.3318H87.9087V36.9139H83.4309V34.3318ZM86.1896 37.1721L86.5633 36.7984C86.817 36.8754 87.0707 36.9569 87.3243 37.043C87.5825 37.1291 87.8272 37.2151 88.0582 37.3012C88.2892 37.3827 88.4863 37.4597 88.6493 37.5322L88.1737 37.9263C88.0242 37.8538 87.843 37.7723 87.6301 37.6817C87.4172 37.5956 87.1862 37.5073 86.937 37.4167C86.6924 37.3306 86.4433 37.2491 86.1896 37.1721ZM84.5588 36.8731L85.1364 37.1381C84.9507 37.2423 84.7355 37.3442 84.4909 37.4439C84.2508 37.5481 84.0017 37.6432 83.7435 37.7293C83.4898 37.8153 83.2474 37.8878 83.0164 37.9467C82.9847 37.9014 82.9394 37.8493 82.8805 37.7904C82.8261 37.7315 82.7695 37.6726 82.7106 37.6138C82.6517 37.5594 82.5997 37.5141 82.5544 37.4779C82.7899 37.4326 83.0323 37.3805 83.2814 37.3216C83.5305 37.2582 83.7661 37.1902 83.9881 37.1177C84.21 37.0407 84.4003 36.9592 84.5588 36.8731ZM95.7024 34.8415L96.1916 35.1744C96.0467 35.3465 95.904 35.5255 95.7635 35.7112C95.6276 35.8924 95.4985 36.0464 95.3762 36.1732L95.0229 35.9082C95.0954 35.8131 95.1747 35.7044 95.2607 35.5821C95.3468 35.4553 95.4283 35.3262 95.5053 35.1948C95.5869 35.0634 95.6526 34.9456 95.7024 34.8415ZM93.9765 31.6343H94.5473V33.0952H93.9765V31.6343ZM94.2891 34.4609H94.8598C94.8417 34.8641 94.81 35.2424 94.7647 35.5957C94.7194 35.9445 94.6424 36.2661 94.5337 36.5606C94.4295 36.8505 94.2777 37.1109 94.0784 37.342C93.8791 37.573 93.6164 37.77 93.2902 37.9331C93.2585 37.8606 93.2064 37.7791 93.1339 37.6885C93.0615 37.5979 92.9912 37.5254 92.9233 37.4711C93.2177 37.3352 93.451 37.1676 93.6232 36.9682C93.7998 36.7689 93.9335 36.5424 94.0241 36.2888C94.1147 36.0351 94.1781 35.7565 94.2143 35.453C94.2506 35.145 94.2755 34.8143 94.2891 34.4609ZM94.7443 35.419C94.8259 35.7089 94.9368 35.9853 95.0773 36.248C95.2177 36.5107 95.383 36.744 95.5733 36.9479C95.7635 37.1517 95.9787 37.3125 96.2188 37.4303C96.1554 37.4847 96.0874 37.5571 96.015 37.6477C95.9425 37.7383 95.8836 37.8221 95.8383 37.8991C95.5846 37.7451 95.3581 37.5503 95.1588 37.3148C94.9595 37.0747 94.7874 36.8029 94.6424 36.4994C94.4974 36.1914 94.3797 35.8652 94.2891 35.5209L94.7443 35.419ZM92.733 33.6659H96.1712V34.2095H92.733V33.6659ZM92.502 33.6659H93.066V35.0181C93.066 35.231 93.0569 35.4643 93.0388 35.718C93.0252 35.9717 92.9958 36.2321 92.9505 36.4994C92.9097 36.7621 92.8486 37.0181 92.767 37.2672C92.69 37.5164 92.5858 37.7429 92.4545 37.9467C92.4227 37.915 92.3752 37.8788 92.3118 37.838C92.2529 37.7972 92.1917 37.7564 92.1283 37.7157C92.0649 37.6749 92.0083 37.6455 91.9584 37.6273C92.1215 37.3691 92.2415 37.086 92.3186 36.778C92.3956 36.47 92.4454 36.1619 92.468 35.8539C92.4907 35.5459 92.502 35.265 92.502 35.0113V33.6659ZM93.0116 35.1065L93.4193 34.8686C93.4918 34.9819 93.5665 35.1065 93.6436 35.2424C93.7251 35.3737 93.7998 35.5006 93.8678 35.6229C93.9403 35.7452 93.9991 35.8516 94.0444 35.9422L93.6096 36.2276C93.5733 36.1279 93.5212 36.0147 93.4533 35.8879C93.3853 35.7565 93.3129 35.6229 93.2359 35.487C93.1589 35.3465 93.0841 35.2197 93.0116 35.1065ZM92.6039 31.8449H93.1815V32.7486H95.3694V31.8449H95.981V33.2786H92.6039V31.8449ZM90.0151 31.9672H92.3186V32.5516H90.0151V31.9672ZM90.7218 34.0736H92.1487V37.0973H90.7218V36.5266H91.6662V34.6376H90.7218V34.0736ZM90.8509 32.2662L91.442 32.3953C91.3605 32.8211 91.2586 33.2424 91.1363 33.6592C91.0185 34.0759 90.8758 34.4655 90.7082 34.8279C90.5406 35.1903 90.3458 35.5074 90.1238 35.7791C90.1148 35.7248 90.0944 35.6523 90.0627 35.5617C90.0355 35.4666 90.0038 35.3737 89.9675 35.2831C89.9358 35.188 89.9019 35.111 89.8656 35.0521C90.1193 34.7124 90.3254 34.3001 90.4839 33.8154C90.6425 33.3262 90.7648 32.8098 90.8509 32.2662ZM90.45 34.0736H90.98V37.6273H90.45V34.0736ZM100.568 35.2967H103.211V35.8947H100.568V35.2967ZM99.0998 35.6297C99.2221 35.9649 99.3807 36.2389 99.5755 36.4518C99.7748 36.6647 100.001 36.8301 100.255 36.9479C100.509 37.0611 100.789 37.1404 101.098 37.1857C101.406 37.2264 101.732 37.2468 102.076 37.2468C102.126 37.2468 102.203 37.2468 102.307 37.2468C102.416 37.2468 102.538 37.2468 102.674 37.2468C102.81 37.2468 102.948 37.2468 103.088 37.2468C103.229 37.2468 103.356 37.2468 103.469 37.2468C103.587 37.2423 103.68 37.2378 103.747 37.2332C103.716 37.2831 103.684 37.3465 103.652 37.4235C103.621 37.5005 103.593 37.5775 103.571 37.6545C103.548 37.7315 103.53 37.8017 103.516 37.8652H103.204H102.042C101.625 37.8652 101.24 37.8357 100.887 37.7768C100.538 37.7225 100.219 37.6228 99.9288 37.4779C99.6389 37.3329 99.3807 37.1268 99.1542 36.8595C98.9277 36.5923 98.7352 36.2503 98.5766 35.8335L99.0998 35.6297ZM100.282 34.1688H100.941V37.539L100.282 37.3216V34.1688ZM98.9231 32.5652V33.7203H102.327V32.5652H98.9231ZM98.2844 31.9468H103.007V34.3318H98.2844V31.9468ZM98.631 34.8007L99.3037 34.8754C99.2493 35.2514 99.1655 35.6319 99.0523 36.017C98.9435 36.3975 98.794 36.7553 98.6038 37.0906C98.4181 37.4258 98.1825 37.7066 97.8971 37.9331C97.8609 37.8878 97.8156 37.838 97.7612 37.7836C97.7069 37.7293 97.6502 37.6749 97.5914 37.6206C97.537 37.5707 97.4872 37.53 97.4419 37.4982C97.7001 37.2944 97.9107 37.0453 98.0738 36.7508C98.2369 36.4518 98.3614 36.1325 98.4475 35.7927C98.5381 35.4485 98.5993 35.1178 98.631 34.8007ZM105.738 32.4429V33.5504H106.717V32.4429H105.738ZM105.195 31.9061L107.288 31.9061V34.0872H105.195V31.9061ZM106.071 33.8222H106.615V36.9682H106.071V33.8222ZM105.174 34.6512H105.684V37.1517H105.174V34.6512ZM104.821 36.9682C105.039 36.9229 105.285 36.8686 105.562 36.8052C105.838 36.7417 106.13 36.6738 106.438 36.6013C106.751 36.5243 107.061 36.4473 107.369 36.3703L107.437 36.9207C106.998 37.0385 106.558 37.154 106.119 37.2672C105.679 37.3759 105.288 37.4733 104.943 37.5594L104.821 36.9682ZM106.289 34.9366H107.335V35.4938H106.289V34.9366ZM107.471 32.7351H111.174V33.3466H107.471V32.7351ZM109.53 33.1359H110.128V37.2264C110.128 37.385 110.11 37.5118 110.073 37.607C110.037 37.7021 109.967 37.7746 109.863 37.8244C109.763 37.8788 109.634 37.9127 109.476 37.9263C109.322 37.9399 109.127 37.9467 108.891 37.9467C108.887 37.8606 108.866 37.7587 108.83 37.6409C108.794 37.5232 108.755 37.419 108.715 37.3284C108.869 37.3329 109.011 37.3374 109.143 37.342C109.274 37.342 109.362 37.3397 109.408 37.3352C109.453 37.3306 109.485 37.3216 109.503 37.308C109.521 37.2944 109.53 37.265 109.53 37.2197V33.1359ZM107.763 34.094L108.314 34.1892C108.246 34.5923 108.151 34.9796 108.028 35.3511C107.91 35.7225 107.77 36.0373 107.607 36.2956C107.575 36.2684 107.53 36.2344 107.471 36.1936C107.412 36.1529 107.351 36.1144 107.288 36.0781C107.229 36.0419 107.179 36.0147 107.138 35.9966C107.297 35.761 107.428 35.4756 107.532 35.1404C107.636 34.8007 107.713 34.4519 107.763 34.094ZM110.128 34.2435L110.631 34.0397C110.735 34.248 110.83 34.4723 110.916 34.7124C111.007 34.9524 111.084 35.188 111.147 35.419C111.211 35.6455 111.258 35.8494 111.29 36.0306L110.739 36.248C110.721 36.0668 110.681 35.8607 110.617 35.6297C110.554 35.3941 110.479 35.1563 110.393 34.9162C110.311 34.6761 110.223 34.4519 110.128 34.2435ZM108.511 32.9593H109.061V34.427C109.061 34.7214 109.043 35.0249 109.007 35.3375C108.975 35.6455 108.907 35.9535 108.803 36.2616C108.703 36.5651 108.554 36.8595 108.354 37.1449C108.155 37.4303 107.888 37.6976 107.553 37.9467C107.503 37.8788 107.435 37.8063 107.349 37.7293C107.263 37.6523 107.181 37.5866 107.104 37.5322C107.421 37.3012 107.673 37.0566 107.858 36.7984C108.044 36.5402 108.185 36.2752 108.28 36.0034C108.375 35.7316 108.436 35.4621 108.463 35.1948C108.495 34.9275 108.511 34.6716 108.511 34.427V32.9593ZM108.749 31.777L109.333 31.6139C109.423 31.7724 109.512 31.9468 109.598 32.1371C109.688 32.3274 109.75 32.4904 109.781 32.6263L109.163 32.8234C109.131 32.683 109.077 32.5154 109 32.3206C108.923 32.1258 108.839 31.9446 108.749 31.777Z" fill="#424242"/>
<rect x="0.339743" y="80.3222" width="28.3205" height="15.4705" stroke="#424242" stroke-width="0.679485"/>
<path d="M8.17551 85.614H13.4415V86.1915H8.17551V85.614ZM8.26384 90.9139H13.4551V91.4507H8.26384V90.9139ZM10.9274 89.6841H12.83V90.1869H10.9274V89.6841ZM7.76782 85.614H8.37256V87.666C8.37256 87.9469 8.36577 88.2594 8.35218 88.6037C8.33859 88.9434 8.30914 89.2922 8.26384 89.6501C8.21854 90.0034 8.15286 90.35 8.06679 90.6897C7.98072 91.0249 7.86748 91.333 7.72705 91.6138C7.69081 91.5821 7.63872 91.5459 7.57077 91.5051C7.50735 91.4643 7.4394 91.4258 7.36692 91.3896C7.29897 91.3579 7.23782 91.333 7.18346 91.3148C7.31936 91.0476 7.42581 90.7577 7.50282 90.4451C7.57983 90.1325 7.63645 89.8154 7.67269 89.4938C7.71346 89.1677 7.73837 88.8483 7.74743 88.5358C7.76102 88.2232 7.76782 87.931 7.76782 87.6592L7.76782 85.614ZM10.5877 89.0522H11.2128V91.2129H10.5877L10.5877 89.0522ZM9.07243 89.5414H9.69076L9.69076 91.2197H9.07243L9.07243 89.5414ZM8.54923 87.3263H10.6624V87.7883H8.54923V87.3263ZM9.3714 86.5924H9.9082V89.0793H9.3714V86.5924ZM9.29666 87.5301L9.66358 87.6592C9.5911 87.8359 9.49824 88.0148 9.38499 88.196C9.27628 88.3727 9.15623 88.538 9.02487 88.692C8.8935 88.8415 8.75987 88.9661 8.62397 89.0657C8.5832 89.0069 8.52658 88.9389 8.4541 88.8619C8.38615 88.7849 8.32273 88.7237 8.26384 88.6784C8.39974 88.5969 8.53111 88.495 8.65794 88.3727C8.78931 88.2458 8.90935 88.1099 9.01807 87.965C9.13132 87.82 9.22418 87.6751 9.29666 87.5301ZM10.8527 87.3263H13.3192V87.7883H10.8527V87.3263ZM11.7224 86.5924H12.266V89.0793H11.7224V86.5924ZM11.5729 87.5233L11.9399 87.6524C11.8674 87.8291 11.7723 88.008 11.6545 88.1892C11.5367 88.3704 11.4099 88.538 11.274 88.692C11.1381 88.8415 10.9999 88.9661 10.8595 89.0657C10.8187 89.0069 10.7621 88.9389 10.6896 88.8619C10.6217 88.7804 10.5582 88.7169 10.4993 88.6716C10.6398 88.5946 10.7779 88.495 10.9138 88.3727C11.0497 88.2458 11.1743 88.1099 11.2876 87.965C11.4053 87.8155 11.5005 87.6683 11.5729 87.5233ZM9.87422 87.7747C9.91499 87.7928 9.97161 87.8268 10.0441 87.8767C10.1166 87.9265 10.1936 87.9786 10.2751 88.0329C10.3567 88.0873 10.4314 88.1394 10.4993 88.1892C10.5718 88.239 10.6217 88.2775 10.6488 88.3047L10.3363 88.6988C10.2955 88.6581 10.2411 88.606 10.1732 88.5425C10.1098 88.4791 10.0396 88.4134 9.96256 88.3455C9.88555 88.2775 9.8108 88.2141 9.73833 88.1552C9.67038 88.0918 9.61375 88.0443 9.56845 88.0125L9.87422 87.7747ZM10.18 86.307L10.5945 86.6332C10.4269 86.7011 10.2343 86.76 10.0169 86.8099C9.79948 86.8552 9.57525 86.8937 9.34422 86.9254C9.11773 86.9526 8.89576 86.9729 8.67833 86.9865C8.66927 86.9367 8.64888 86.8755 8.61717 86.8031C8.59 86.7306 8.56282 86.6672 8.53564 86.6128C8.73495 86.5947 8.93653 86.572 9.14038 86.5449C9.34875 86.5132 9.54354 86.4769 9.72474 86.4361C9.91046 86.3954 10.0622 86.3523 10.18 86.307ZM12.6329 86.2799L13.0474 86.6128C12.8662 86.6762 12.6578 86.7351 12.4223 86.7895C12.1867 86.8393 11.9421 86.8801 11.6884 86.9118C11.4393 86.9435 11.197 86.9661 10.9614 86.9797C10.9523 86.9254 10.9342 86.862 10.907 86.7895C10.8799 86.7125 10.8504 86.649 10.8187 86.5992C11.0361 86.5811 11.2581 86.5584 11.4846 86.5313C11.7156 86.4996 11.9308 86.4633 12.1301 86.4226C12.334 86.3773 12.5016 86.3297 12.6329 86.2799ZM12.2728 87.8019C12.3317 87.8336 12.4155 87.888 12.5242 87.965C12.6375 88.0375 12.7575 88.119 12.8843 88.2096C13.0157 88.2957 13.1335 88.3772 13.2377 88.4542C13.3464 88.5312 13.4257 88.5878 13.4755 88.6241L13.1765 89.0522C13.1131 88.9887 13.0293 88.9117 12.9251 88.8211C12.8209 88.7305 12.7099 88.6377 12.5922 88.5425C12.4744 88.4429 12.3611 88.3523 12.2524 88.2708C12.1437 88.1847 12.0554 88.1167 11.9874 88.0669L12.2728 87.8019ZM17.5456 85.349H18.2115V88.2775C18.2115 88.5675 18.1889 88.8506 18.1436 89.1269C18.1028 89.3987 18.0212 89.6592 17.8989 89.9083C17.7812 90.1529 17.6068 90.384 17.3757 90.6014C17.1492 90.8188 16.8525 91.0136 16.4856 91.1857C16.1187 91.3624 15.6612 91.5119 15.1131 91.6342C15.0904 91.5889 15.0564 91.53 15.0111 91.4575C14.9704 91.3851 14.9228 91.3126 14.8684 91.2401C14.8186 91.1722 14.771 91.1133 14.7257 91.0634C15.2467 90.9638 15.6793 90.8415 16.0236 90.6965C16.3678 90.5516 16.6419 90.3907 16.8457 90.2141C17.0541 90.0374 17.2081 89.8449 17.3078 89.6365C17.4074 89.4281 17.4709 89.2107 17.498 88.9842C17.5298 88.7532 17.5456 88.5176 17.5456 88.2775V85.349ZM15.9013 86.9729V88.1077H19.8559V86.9729H15.9013ZM15.2693 86.3546H20.515V88.726H15.2693V86.3546ZM16.1527 88.8823C16.3701 89.299 16.6283 89.6388 16.9273 89.9015C17.2263 90.1597 17.5751 90.3613 17.9737 90.5063C18.3723 90.6467 18.8276 90.7486 19.3394 90.812C19.8513 90.8709 20.4312 90.9094 21.0789 90.9275C21.0155 91.0045 20.9544 91.1065 20.8955 91.2333C20.8366 91.3601 20.7958 91.4802 20.7732 91.5934C20.1118 91.5572 19.5116 91.4938 18.9725 91.4032C18.4335 91.3171 17.951 91.1857 17.5252 91.0091C17.0994 90.8324 16.7234 90.5901 16.3973 90.282C16.0711 89.974 15.7948 89.5799 15.5683 89.0997L16.1527 88.8823Z" fill="#424242"/>
<rect x="34.633" y="80.3222" width="28.3205" height="15.4705" stroke="#424242" stroke-width="0.679485"/>
<path d="M41.9999 87.0477H43.6646V87.5913H41.9999V87.0477ZM41.6262 88.23H43.9432V88.7804H41.6262V88.23ZM41.6601 89.1473L42.1018 89.0454C42.1516 89.2356 42.2015 89.444 42.2513 89.6705C42.3011 89.897 42.3374 90.0918 42.36 90.2548L41.898 90.384C41.8844 90.2118 41.8549 90.0125 41.8096 89.786C41.7643 89.555 41.7145 89.3421 41.6601 89.1473ZM41.5106 90.8392C41.8142 90.7939 42.1856 90.735 42.625 90.6625C43.0689 90.5901 43.5197 90.5153 43.9772 90.4383L44.0112 90.9479C43.5989 91.034 43.1844 91.1178 42.7677 91.1993C42.3509 91.2809 41.9795 91.3533 41.6533 91.4168L41.5106 90.8392ZM43.5899 88.9842L44.0247 89.0997C43.9704 89.3036 43.9138 89.5165 43.8549 89.7384C43.8005 89.9559 43.7484 90.1416 43.6986 90.2956L43.3521 90.1937C43.3838 90.0804 43.4132 89.9536 43.4404 89.8132C43.4721 89.6682 43.5015 89.5233 43.5287 89.3783C43.5559 89.2334 43.5763 89.102 43.5899 88.9842ZM42.5978 87.2719H43.121V90.9207L42.5978 91.0159V87.2719ZM42.7541 85.3082L43.2501 85.4917C43.1278 85.7499 42.9806 86.0081 42.8085 86.2663C42.6363 86.5245 42.4506 86.7668 42.2513 86.9933C42.0565 87.2198 41.8549 87.4191 41.6465 87.5913C41.642 87.546 41.6262 87.4848 41.599 87.4078C41.5763 87.3308 41.5492 87.2515 41.5174 87.17C41.4857 87.0839 41.4563 87.0182 41.4291 86.9729C41.6828 86.7691 41.9297 86.5222 42.1697 86.2323C42.4098 85.9379 42.6046 85.6298 42.7541 85.3082ZM42.659 85.9129L43.0055 85.546C43.1459 85.6774 43.2954 85.8201 43.454 85.9741C43.6171 86.1281 43.7711 86.2776 43.916 86.4226C44.0655 86.5675 44.1878 86.6921 44.2829 86.7963L43.916 87.2243C43.8254 87.1111 43.7077 86.9775 43.5627 86.8234C43.4177 86.6694 43.266 86.5132 43.1074 86.3546C42.9489 86.1915 42.7994 86.0443 42.659 85.9129ZM47.2795 88.5833L47.7143 88.9434C47.5739 89.0975 47.4222 89.2537 47.2591 89.4123C47.096 89.5663 46.9488 89.6977 46.8174 89.8064L46.4641 89.4802C46.5502 89.4032 46.643 89.3126 46.7427 89.2084C46.8423 89.1043 46.9397 88.9978 47.0349 88.8891C47.13 88.7758 47.2115 88.6739 47.2795 88.5833ZM44.1878 88.9027L44.6091 88.5969C44.7405 88.7237 44.8764 88.8687 45.0168 89.0318C45.1617 89.1903 45.2727 89.3262 45.3497 89.4395L44.9013 89.786C44.856 89.709 44.7926 89.6184 44.711 89.5142C44.6295 89.41 44.5434 89.3036 44.4528 89.1949C44.3622 89.0861 44.2739 88.9887 44.1878 88.9027ZM45.01 85.9061H46.831V86.4022H45.01V85.9061ZM44.7994 86.9254H46.6747V87.4282H44.7994V86.9254ZM44.0451 87.8427H47.8231V88.4066H44.0451V87.8427ZM45.6147 88.1756H46.2059V90.9955C46.2059 91.1404 46.19 91.2537 46.1583 91.3352C46.1266 91.4213 46.0609 91.487 45.9613 91.5323C45.8707 91.5776 45.7552 91.6048 45.6147 91.6138C45.4788 91.6274 45.3135 91.6342 45.1187 91.6342C45.1097 91.5527 45.087 91.4575 45.0508 91.3488C45.0145 91.2446 44.976 91.154 44.9353 91.077C45.0621 91.0816 45.1799 91.0838 45.2886 91.0838C45.3973 91.0838 45.472 91.0838 45.5128 91.0838C45.5808 91.0793 45.6147 91.0476 45.6147 90.9887V88.1756ZM43.9092 90.7033C44.0768 90.6037 44.2762 90.4768 44.5072 90.3228C44.7382 90.1643 44.976 90.0012 45.2206 89.8336L45.4109 90.3024C45.2161 90.4519 45.0168 90.6037 44.8129 90.7577C44.6136 90.9072 44.4234 91.0498 44.2422 91.1857L43.9092 90.7033ZM44.942 85.315L45.54 85.3829C45.4902 85.6049 45.4335 85.8427 45.3701 86.0964C45.3112 86.3455 45.2501 86.5856 45.1867 86.8167C45.1278 87.0477 45.0712 87.2515 45.0168 87.4282H44.3985C44.4573 87.2425 44.5208 87.0296 44.5887 86.7895C44.6567 86.5449 44.7201 86.2934 44.779 86.0352C44.8424 85.777 44.8967 85.537 44.942 85.315ZM46.6544 85.9061H46.7223L46.8242 85.879L47.2659 85.9401C47.2342 86.153 47.1934 86.384 47.1436 86.6332C47.0938 86.8823 47.0417 87.1292 46.9873 87.3738C46.9375 87.6184 46.8876 87.8495 46.8378 88.0669L46.2467 87.9922C46.301 87.7702 46.3531 87.5346 46.4029 87.2855C46.4573 87.0318 46.5071 86.7895 46.5524 86.5584C46.5977 86.3229 46.6317 86.1281 46.6544 85.9741V85.9061ZM46.3146 90.1869L46.6611 89.8064C46.797 89.897 46.9397 89.9989 47.0892 90.1122C47.2432 90.2254 47.3905 90.3387 47.5309 90.4519C47.6713 90.5606 47.7846 90.658 47.8706 90.7441L47.5037 91.1789C47.4222 91.0929 47.3135 90.991 47.1776 90.8732C47.0417 90.7554 46.8967 90.6376 46.7427 90.5198C46.5932 90.3975 46.4505 90.2866 46.3146 90.1869ZM54.4005 85.4509L55.0052 85.6955C54.8512 85.9039 54.6745 86.1077 54.4752 86.307C54.2804 86.5064 54.0743 86.6943 53.8569 86.871C53.6395 87.0431 53.4243 87.1949 53.2114 87.3263C53.157 87.2583 53.0868 87.1813 53.0007 87.0952C52.9147 87.0092 52.8309 86.9367 52.7493 86.8778C52.9486 86.7691 53.1502 86.6377 53.3541 86.4837C53.5624 86.3297 53.7572 86.1643 53.9384 85.9877C54.1242 85.8065 54.2782 85.6276 54.4005 85.4509ZM54.6043 87.2923L55.1887 87.5369C55.0256 87.7589 54.8331 87.9763 54.6111 88.1892C54.3937 88.4021 54.1649 88.5992 53.9248 88.7804C53.6848 88.957 53.4447 89.1156 53.2046 89.256C53.1593 89.1835 53.0936 89.1043 53.0075 89.0182C52.926 88.9321 52.8445 88.8596 52.7629 88.8008C52.9849 88.6875 53.2091 88.5516 53.4356 88.3931C53.6666 88.23 53.8841 88.0533 54.0879 87.8631C54.2963 87.6728 54.4684 87.4825 54.6043 87.2923ZM54.7266 89.2288L55.3246 89.4531C55.1524 89.7475 54.9441 90.0284 54.6995 90.2956C54.4594 90.5584 54.1966 90.7984 53.9113 91.0159C53.6304 91.2333 53.336 91.4213 53.0279 91.5798C52.9781 91.5028 52.9101 91.4168 52.8241 91.3216C52.7425 91.2265 52.6633 91.1472 52.5863 91.0838C52.8716 90.9525 53.1502 90.7916 53.422 90.6014C53.6938 90.4111 53.943 90.1982 54.1695 89.9627C54.396 89.7271 54.5817 89.4825 54.7266 89.2288ZM49.1277 87.8427H52.8377V88.3455H49.1277V87.8427ZM50.1265 89.0725V89.5482H51.8932V89.0725H50.1265ZM49.5286 88.6377H52.5183V89.9831H49.5286V88.6377ZM51.5534 90.2752L52.0087 90.0714C52.1265 90.2299 52.2442 90.4066 52.362 90.6014C52.4798 90.7962 52.5681 90.9615 52.627 91.0974L52.1446 91.3352C52.0857 91.1948 51.9996 91.0249 51.8864 90.8256C51.7777 90.6218 51.6667 90.4383 51.5534 90.2752ZM50.0586 86.7011V87.0477H51.9679V86.7011H50.0586ZM50.0586 85.9673V86.3138H51.9679V85.9673H50.0586ZM49.447 85.5596H52.6066V87.4622H49.447V85.5596ZM50.6837 89.752H51.3088V91.0091C51.3088 91.1495 51.293 91.2582 51.2613 91.3352C51.2341 91.4122 51.1707 91.4734 51.071 91.5187C50.9759 91.5595 50.8581 91.5844 50.7177 91.5934C50.5818 91.6025 50.421 91.607 50.2352 91.607C50.2216 91.521 50.1967 91.4304 50.1605 91.3352C50.1243 91.2401 50.0857 91.154 50.045 91.077C50.1673 91.0816 50.2783 91.0838 50.3779 91.0838C50.4821 91.0838 50.5523 91.0838 50.5886 91.0838C50.6293 91.0838 50.6543 91.077 50.6633 91.0634C50.6769 91.0544 50.6837 91.034 50.6837 91.0023V89.752ZM49.7596 90.085L50.2964 90.2413C50.2058 90.4451 50.0925 90.6535 49.9566 90.8664C49.8253 91.0748 49.6916 91.2492 49.5558 91.3896C49.524 91.3579 49.481 91.3194 49.4266 91.2741C49.3723 91.2333 49.3157 91.1903 49.2568 91.145C49.2024 91.1042 49.1549 91.0702 49.1141 91.0431C49.2409 90.9162 49.361 90.769 49.4742 90.6014C49.5875 90.4292 49.6826 90.2571 49.7596 90.085ZM50.5614 87.5777L51.1661 87.4486C51.2205 87.5301 51.2726 87.623 51.3224 87.7272C51.3768 87.8268 51.4153 87.9174 51.4379 87.999L50.7992 88.1416C50.7811 88.0646 50.7494 87.974 50.7041 87.8699C50.6588 87.7611 50.6112 87.6637 50.5614 87.5777Z" fill="#424242"/>
<rect x="114.788" y="62.621" width="28.3205" height="15.4743" stroke="#424242" stroke-width="0.679485" stroke-dasharray="1.36 1.36"/>
<path d="M125.091 73.1128H127.292V73.67H125.091V73.1128ZM125.41 68.2953H127.17V68.8456H125.41V68.2953ZM124.839 71.4345H127.571V73.8942H126.953V71.9781H125.431V73.9146H124.839V71.4345ZM126.946 68.2953H127.061L127.177 68.2681L127.584 68.4447C127.458 68.866 127.29 69.2511 127.082 69.5999C126.873 69.9487 126.635 70.2635 126.368 70.5444C126.101 70.8207 125.811 71.063 125.498 71.2714C125.19 71.4798 124.871 71.6542 124.54 71.7946C124.5 71.7221 124.443 71.6383 124.371 71.5432C124.303 71.4435 124.237 71.3665 124.173 71.3122C124.472 71.1989 124.765 71.0494 125.05 70.8637C125.34 70.6735 125.609 70.4538 125.859 70.2046C126.108 69.9555 126.325 69.6791 126.511 69.3756C126.697 69.0721 126.842 68.7482 126.946 68.404V68.2953ZM125.485 67.6158L126.096 67.7653C125.997 68.0733 125.877 68.3723 125.736 68.6622C125.596 68.9521 125.44 69.2216 125.267 69.4708C125.1 69.7154 124.921 69.9328 124.731 70.1231C124.699 70.0823 124.651 70.037 124.588 69.9872C124.529 69.9328 124.466 69.8807 124.398 69.8309C124.334 69.7765 124.28 69.7335 124.235 69.7018C124.506 69.4572 124.751 69.1514 124.968 68.7845C125.19 68.413 125.363 68.0235 125.485 67.6158ZM125.417 68.6214C125.517 68.857 125.646 69.0993 125.804 69.3485C125.967 69.5976 126.16 69.8377 126.382 70.0687C126.608 70.2997 126.864 70.5104 127.15 70.7006C127.435 70.8909 127.752 71.0472 128.101 71.1695C128.06 71.2102 128.013 71.2646 127.958 71.3326C127.908 71.396 127.861 71.4617 127.816 71.5296C127.77 71.593 127.732 71.6542 127.7 71.7131C127.351 71.5681 127.032 71.3892 126.742 71.1763C126.457 70.9634 126.201 70.7301 125.974 70.4764C125.752 70.2227 125.557 69.9645 125.39 69.7018C125.227 69.4345 125.093 69.1786 124.989 68.934L125.417 68.6214ZM121.999 70.6259H122.529V73.0924H121.999V70.6259ZM122.59 68.4447V69.4979H123.698V68.4447H122.59ZM122.019 67.8944H124.296V70.0551H122.019V67.8944ZM122.978 69.8105H123.555V72.8818H122.978V69.8105ZM121.673 73.0109C121.904 72.9656 122.169 72.9112 122.468 72.8478C122.767 72.7844 123.082 72.7142 123.412 72.6372C123.748 72.5602 124.081 72.4832 124.411 72.4061L124.472 72.9769C123.997 73.0947 123.521 73.2125 123.046 73.3302C122.574 73.4435 122.153 73.5431 121.782 73.6292L121.673 73.0109ZM123.195 70.9588H124.357V71.5228H123.195V70.9588ZM133.224 67.6158L133.944 67.7585C133.863 67.9261 133.779 68.0914 133.693 68.2545C133.612 68.413 133.537 68.5489 133.469 68.6622L132.925 68.5263C132.984 68.3949 133.041 68.2432 133.095 68.071C133.149 67.8989 133.192 67.7471 133.224 67.6158ZM132.585 69.7901V70.2794H134.536V69.7901H132.585ZM132.585 68.8388V69.3213H134.536V68.8388H132.585ZM131.988 68.3428H135.161V70.7822H131.988V68.3428ZM133.319 70.5647H133.931V73.2623C133.931 73.4163 133.913 73.5364 133.877 73.6224C133.84 73.713 133.77 73.7855 133.666 73.8399C133.566 73.8852 133.439 73.9123 133.285 73.9214C133.131 73.935 132.946 73.9418 132.728 73.9418C132.715 73.8557 132.69 73.7561 132.653 73.6428C132.622 73.5296 132.585 73.4322 132.545 73.3506C132.69 73.3552 132.826 73.3574 132.952 73.3574C133.079 73.362 133.163 73.362 133.204 73.3574C133.249 73.3529 133.279 73.3438 133.292 73.3302C133.31 73.3167 133.319 73.2917 133.319 73.2555V70.5647ZM131.743 71.285H132.776V71.815H131.743V71.285ZM132.633 71.285H132.742L132.844 71.2646L133.217 71.3937C133.14 71.7425 133.029 72.0596 132.884 72.345C132.74 72.6258 132.57 72.8727 132.375 73.0856C132.18 73.294 131.965 73.4661 131.729 73.602C131.689 73.5341 131.632 73.4548 131.559 73.3642C131.492 73.2781 131.426 73.2079 131.362 73.1536C131.562 73.0494 131.745 72.909 131.913 72.7323C132.085 72.5511 132.234 72.345 132.361 72.114C132.488 71.8829 132.579 71.6361 132.633 71.3733V71.285ZM134.903 70.9588L135.378 71.3529C135.197 71.5115 135.011 71.6723 134.821 71.8354C134.631 71.9939 134.454 72.1276 134.291 72.2363L133.938 71.9237C134.042 71.8376 134.153 71.7402 134.271 71.6315C134.388 71.5183 134.504 71.4028 134.617 71.285C134.73 71.1672 134.826 71.0585 134.903 70.9588ZM133.904 70.9181C133.994 71.2306 134.117 71.5319 134.271 71.8218C134.425 72.1117 134.606 72.3722 134.814 72.6032C135.023 72.8297 135.254 73.0086 135.507 73.14C135.467 73.1808 135.419 73.2306 135.365 73.2895C135.31 73.3484 135.258 73.4095 135.208 73.4729C135.163 73.5364 135.122 73.5975 135.086 73.6564C134.823 73.4843 134.588 73.2646 134.379 72.9973C134.171 72.73 133.99 72.4288 133.836 72.0936C133.682 71.7538 133.555 71.3982 133.455 71.0268L133.904 70.9181ZM130.744 70.3541L131.22 70.225C131.274 70.379 131.326 70.5444 131.376 70.721C131.43 70.8977 131.476 71.0698 131.512 71.2374C131.553 71.4005 131.582 71.5432 131.6 71.6655L131.091 71.8218C131.073 71.6949 131.045 71.5477 131.009 71.3801C130.977 71.2125 130.937 71.0381 130.887 70.8569C130.841 70.6757 130.794 70.5081 130.744 70.3541ZM130.139 72.114L130.608 72.0324C130.649 72.2635 130.683 72.5149 130.71 72.7867C130.742 73.0539 130.76 73.2872 130.764 73.4865L130.275 73.5749C130.275 73.3755 130.262 73.14 130.234 72.8682C130.207 72.5964 130.176 72.345 130.139 72.114ZM129.446 72.046L129.956 72.1276C129.924 72.4311 129.879 72.7368 129.82 73.0449C129.761 73.3529 129.695 73.6156 129.623 73.8331C129.587 73.8104 129.539 73.7878 129.48 73.7651C129.421 73.7425 129.36 73.7221 129.297 73.704C129.233 73.6858 129.181 73.67 129.141 73.6564C129.222 73.448 129.285 73.1989 129.331 72.909C129.381 72.6145 129.419 72.3269 129.446 72.046ZM129.324 70.2318C129.315 70.191 129.297 70.1367 129.27 70.0687C129.247 69.9962 129.222 69.9238 129.195 69.8513C129.172 69.7743 129.15 69.7109 129.127 69.661C129.186 69.6474 129.245 69.6089 129.304 69.5455C129.367 69.4776 129.43 69.3915 129.494 69.2873C129.544 69.2239 129.616 69.1061 129.711 68.934C129.811 68.7573 129.915 68.5535 130.024 68.3224C130.137 68.0869 130.234 67.8468 130.316 67.6022L130.907 67.8468C130.798 68.0914 130.678 68.3383 130.547 68.5874C130.416 68.8366 130.278 69.0744 130.133 69.3009C129.988 69.5229 129.843 69.7244 129.698 69.9056V69.9192C129.698 69.9192 129.68 69.9306 129.643 69.9532C129.607 69.9759 129.562 70.003 129.507 70.0347C129.458 70.0664 129.415 70.1004 129.378 70.1367C129.342 70.1684 129.324 70.2001 129.324 70.2318ZM129.324 70.2318L129.31 69.7765L129.589 69.5999L130.771 69.5047C130.758 69.5817 130.744 69.6701 130.73 69.7697C130.721 69.8694 130.715 69.9509 130.71 70.0144C130.447 70.0461 130.232 70.0732 130.065 70.0959C129.897 70.114 129.763 70.1321 129.664 70.1503C129.569 70.1638 129.496 70.1774 129.446 70.191C129.396 70.2046 129.356 70.2182 129.324 70.2318ZM129.372 71.7878C129.362 71.7425 129.344 71.6836 129.317 71.6111C129.295 71.5387 129.27 71.4639 129.242 71.3869C129.215 71.3099 129.19 71.2442 129.168 71.1899C129.249 71.1717 129.328 71.1242 129.406 71.0472C129.487 70.9656 129.58 70.8614 129.684 70.7346C129.743 70.6757 129.825 70.5761 129.929 70.4356C130.033 70.2907 130.151 70.1208 130.282 69.926C130.413 69.7312 130.545 69.5206 130.676 69.2941C130.812 69.0676 130.932 68.8388 131.036 68.6078L131.593 68.9408C131.426 69.2443 131.24 69.5478 131.036 69.8513C130.837 70.1548 130.629 70.4424 130.411 70.7142C130.198 70.986 129.981 71.2329 129.759 71.4549V71.4752C129.759 71.4752 129.738 71.4866 129.698 71.5092C129.661 71.5273 129.616 71.5523 129.562 71.584C129.512 71.6157 129.467 71.6496 129.426 71.6859C129.39 71.7221 129.372 71.7561 129.372 71.7878ZM129.372 71.7878L129.351 71.319L129.63 71.1287L131.274 70.9249C131.26 71.0019 131.249 71.0902 131.24 71.1899C131.236 71.2895 131.236 71.3711 131.24 71.4345C130.869 71.4888 130.567 71.5364 130.336 71.5772C130.11 71.6134 129.931 71.6429 129.8 71.6655C129.673 71.6882 129.578 71.7085 129.514 71.7267C129.455 71.7448 129.408 71.7652 129.372 71.7878ZM130.798 71.9849L131.227 71.849C131.29 72.012 131.351 72.191 131.41 72.3858C131.469 72.576 131.512 72.7414 131.539 72.8818L131.084 73.0313C131.061 72.8908 131.023 72.7232 130.968 72.5285C130.914 72.3291 130.857 72.1479 130.798 71.9849Z" fill="#424242"/>
</g>
<defs>
<clipPath id="clip0_152_5803">
<rect width="200" height="200" fill="white" transform="translate(0 0.154297)"/>
</clipPath>
</defs>
</svg>
