<svg width="201" height="200" viewBox="0 0 201 200" fill="none" xmlns="http://www.w3.org/2000/svg">
<g clip-path="url(#clip0_152_6200)">
<path d="M47.2434 27.2324L47.2434 71.5332" stroke="#222222" stroke-width="0.679485" stroke-linecap="round"/>
<path d="M62.0714 71.5332H50.3614" stroke="#222222" stroke-width="0.679485" stroke-linecap="round" stroke-dasharray="1.36 1.36"/>
<path d="M83.6149 9.07617L62.0714 9.07617" stroke="#222222" stroke-width="0.679485" stroke-linecap="round" stroke-dasharray="1.36 1.36"/>
<path d="M87.1893 9.07617L87.1893 16.7412" stroke="#222222" stroke-width="0.679485" stroke-linecap="round" stroke-dasharray="1.36 1.36"/>
<path d="M62.0714 49.3809H50.3614" stroke="#222222" stroke-width="0.679485" stroke-linecap="round" stroke-dasharray="1.36 1.36"/>
<path d="M44.1252 27.2324H32.4114" stroke="#222222" stroke-width="0.679485" stroke-linecap="round"/>
<path d="M62.0714 27.2324H50.3614" stroke="#222222" stroke-width="0.679485" stroke-linecap="round" stroke-dasharray="1.36 1.36"/>
<rect x="0.632955" y="18.494" width="28.3205" height="15.4743" rx="7.73717" stroke="#424242" stroke-width="0.679485"/>
<path d="M8.04744 25.6564H13.0892V26.1796H8.66577L8.66577 29.7876H8.04744L8.04744 25.6564ZM12.7631 25.6564H13.361V29.1557C13.361 29.3052 13.3384 29.4185 13.2931 29.4955C13.2478 29.577 13.1708 29.6382 13.062 29.6789C12.9488 29.7197 12.7993 29.7446 12.6136 29.7537C12.4324 29.7627 12.1991 29.7673 11.9137 29.7673C11.9047 29.6903 11.882 29.6065 11.8458 29.5159C11.8095 29.4253 11.771 29.346 11.7303 29.278C11.8616 29.2826 11.9862 29.2848 12.104 29.2848C12.2263 29.2894 12.3327 29.2894 12.4233 29.2848C12.5139 29.2848 12.5773 29.2848 12.6136 29.2848C12.6679 29.2848 12.7064 29.2735 12.7291 29.2509C12.7517 29.2327 12.7631 29.1988 12.7631 29.1489V25.6564ZM9.73256 27.3415H11.9613V28.9451H9.73256V28.4898H11.4313V27.8036H9.73256V27.3415ZM9.39282 27.3415H9.93641L9.93641 29.2441H9.39282L9.39282 27.3415ZM7.68731 24.1887H13.7076V24.7391H7.68731V24.1887ZM9.12782 24.8954L9.67821 24.7119C9.75068 24.8297 9.82543 24.961 9.90244 25.106C9.98397 25.251 10.0474 25.371 10.0927 25.4661L9.51513 25.6904C9.47436 25.5862 9.41547 25.4593 9.33846 25.3098C9.26598 25.1558 9.19577 25.0177 9.12782 24.8954ZM11.6759 24.7527L12.3282 24.8886C12.2195 25.0698 12.1062 25.2532 11.9885 25.4389C11.8707 25.6247 11.7642 25.7809 11.6691 25.9078L11.1663 25.7651C11.2297 25.67 11.2931 25.5635 11.3565 25.4457C11.42 25.328 11.4788 25.2079 11.5332 25.0856C11.5921 24.9633 11.6397 24.8523 11.6759 24.7527ZM10.2558 23.6043L10.8605 23.4548C10.9194 23.5907 10.9783 23.7402 11.0372 23.9033C11.0961 24.0664 11.1414 24.2068 11.1731 24.3246L10.5412 24.5013C10.514 24.3835 10.4709 24.2408 10.412 24.0732C10.3577 23.901 10.3056 23.7448 10.2558 23.6043ZM9.76654 25.9282H10.3305C10.3124 26.2045 10.2603 26.44 10.1742 26.6348C10.0927 26.8296 9.95453 26.9904 9.75974 27.1173C9.56949 27.2441 9.29996 27.346 8.95116 27.423C8.92851 27.3596 8.88547 27.2849 8.82205 27.1988C8.76317 27.1082 8.70654 27.038 8.65218 26.9882C8.94663 26.9338 9.17086 26.8636 9.32487 26.7775C9.47889 26.6915 9.58761 26.5805 9.65103 26.4446C9.71444 26.3042 9.75295 26.132 9.76654 25.9282ZM10.9488 25.9418H11.5264V26.5057C11.5264 26.5782 11.5332 26.6303 11.5468 26.662C11.5604 26.6937 11.5966 26.7096 11.6555 26.7096C11.6782 26.7096 11.7099 26.7096 11.7506 26.7096C11.7959 26.7096 11.8435 26.7096 11.8933 26.7096C11.9477 26.7096 11.9975 26.7096 12.0428 26.7096C12.0881 26.7096 12.1221 26.7096 12.1447 26.7096C12.1946 26.7096 12.2602 26.7073 12.3418 26.7028C12.4233 26.6937 12.4867 26.6847 12.532 26.6756C12.5366 26.7481 12.5411 26.8228 12.5456 26.8998C12.5502 26.9723 12.5592 27.0448 12.5728 27.1173C12.5275 27.1309 12.4664 27.1422 12.3894 27.1512C12.3123 27.1558 12.2353 27.158 12.1583 27.158C12.1266 27.158 12.0813 27.158 12.0224 27.158C11.9635 27.158 11.9001 27.158 11.8322 27.158C11.7642 27.158 11.7008 27.158 11.6419 27.158C11.5876 27.158 11.5468 27.158 11.5196 27.158C11.3611 27.158 11.241 27.1331 11.1595 27.0833C11.0779 27.0335 11.0213 26.961 10.9896 26.8659C10.9624 26.7662 10.9488 26.6439 10.9488 26.4989V25.9418ZM18.5183 25.8602L21.0256 25.8602V26.4446H18.5183V25.8602ZM17.0914 28.8771H20.3869V29.4479H17.0914V28.8771ZM18.2057 25.1264H18.8716V27.6269H18.2057V25.1264ZM16.7516 27.2328H20.7062V29.7061H20.0471V27.8307H17.3768V29.7197H16.7516V27.2328ZM15.8751 24.2906L21.2227 24.2906V24.9021L15.8751 24.9021V24.2906ZM15.5829 24.2906H16.242V26.0505C16.242 26.3223 16.233 26.6212 16.2149 26.9474C16.1967 27.269 16.1628 27.5997 16.1129 27.9394C16.0631 28.2792 15.9884 28.6099 15.8887 28.9315C15.7936 29.2531 15.669 29.543 15.515 29.8012C15.4742 29.765 15.4176 29.722 15.3451 29.6721C15.2772 29.6223 15.2069 29.5747 15.1345 29.5294C15.062 29.4841 14.9986 29.4524 14.9442 29.4343C15.0892 29.1897 15.2047 28.9224 15.2908 28.6325C15.3768 28.3426 15.4402 28.0482 15.481 27.7492C15.5218 27.4457 15.549 27.149 15.5625 26.8591C15.5761 26.5646 15.5829 26.2951 15.5829 26.0505V24.2906ZM17.8932 23.6451L18.5319 23.5024C18.6316 23.6474 18.7222 23.8082 18.8037 23.9848C18.8852 24.1615 18.9419 24.3178 18.9736 24.4537L18.2941 24.6168C18.2714 24.4809 18.2216 24.3223 18.1446 24.1411C18.0676 23.9554 17.9838 23.7901 17.8932 23.6451Z" fill="#424242"/>
<rect x="29.356" y="0.339743" width="28.3205" height="15.4743" rx="7.73717" stroke="#424242" stroke-width="0.679485" stroke-dasharray="1.36 1.36"/>
<path d="M36.356 6.49644H38.4556V7.0808H36.356V6.49644ZM37.3005 8.63003L37.9324 7.88259V11.6401H37.3005V8.63003ZM37.9052 8.05926C37.955 8.0955 38.0275 8.16118 38.1226 8.25631C38.2223 8.34691 38.3265 8.44656 38.4352 8.55528C38.5484 8.664 38.6504 8.76592 38.741 8.86105C38.8361 8.95165 38.9063 9.01733 38.9516 9.0581L38.5507 9.59489C38.4964 9.51336 38.4239 9.41823 38.3333 9.30951C38.2427 9.19626 38.1476 9.08075 38.0479 8.96297C37.9482 8.8452 37.8531 8.73648 37.7625 8.63682C37.6719 8.53263 37.5949 8.44656 37.5315 8.37862L37.9052 8.05926ZM38.2585 6.49644H38.3944L38.5032 6.46926L38.8497 6.71388C38.6866 7.12157 38.476 7.51567 38.2178 7.89618C37.9596 8.27216 37.6742 8.61417 37.3616 8.9222C37.0536 9.22571 36.7433 9.47938 36.4307 9.68323C36.4126 9.62434 36.3877 9.55413 36.356 9.47259C36.3288 9.38652 36.2971 9.30272 36.2608 9.22118C36.2291 9.13964 36.1974 9.07849 36.1657 9.03772C36.4511 8.87464 36.7297 8.664 37.0015 8.4058C37.2778 8.14759 37.527 7.86447 37.7489 7.55644C37.9709 7.24841 38.1408 6.93584 38.2585 6.61875V6.49644ZM37.0423 5.59273L37.5383 5.32093C37.6651 5.4523 37.7874 5.59952 37.9052 5.7626C38.0275 5.92567 38.1204 6.07063 38.1838 6.19747L37.6538 6.51003C37.5994 6.38319 37.5134 6.23371 37.3956 6.06157C37.2778 5.88944 37.16 5.73315 37.0423 5.59273ZM38.639 10.7704H42.5665V11.4023H38.639V10.7704ZM38.9448 7.42734L42.4102 7.42734V8.05246H38.9448V7.42734ZM40.3717 5.34811H41.024V11.0762H40.3717V5.34811ZM47.0783 6.65952H49.9185V7.24388H47.0783V6.65952ZM47.1734 8.03208H49.7962V8.62323H47.1734V8.03208ZM46.9288 9.49297L50.0612 9.49297V10.0977L46.9288 10.0977V9.49297ZM47.1326 5.56555L47.649 5.38888C47.7577 5.55649 47.8551 5.74448 47.9412 5.95285C48.0318 6.1567 48.0952 6.33563 48.1315 6.48965L47.5811 6.69349C47.5539 6.53495 47.4973 6.35149 47.4112 6.14311C47.3297 5.9302 47.2368 5.73768 47.1326 5.56555ZM49.1847 5.33452L49.8098 5.47721C49.7192 5.68559 49.6263 5.89623 49.5312 6.10914C49.4361 6.32204 49.3455 6.50324 49.2594 6.65272L48.7294 6.51003C48.7838 6.40131 48.8404 6.27901 48.8993 6.14311C48.9582 6.00721 49.0125 5.86905 49.0623 5.72862C49.1122 5.58367 49.1529 5.4523 49.1847 5.33452ZM48.1518 6.9449H48.7702V11.6469H48.1518V6.9449ZM43.7556 6.78862H47.0103V7.339H43.7556V6.78862ZM44.1157 5.66747H46.6366V8.45336L44.0749 8.45336V7.90298H46.0386V6.21785H44.1157V5.66747ZM44.4554 9.07849H45.0466V11.6469H44.4554V9.07849ZM44.7001 9.07849H46.7453V11.3004H44.7001V10.7364H46.1134V9.63566H44.7001V9.07849ZM44.8699 5.87811L45.4815 5.8985C45.4407 6.56439 45.3727 7.17819 45.2776 7.7399C45.1825 8.29708 45.0398 8.80216 44.8495 9.25515C44.6593 9.70361 44.4011 10.0932 44.0749 10.4239C44.0523 10.3831 44.016 10.331 43.9662 10.2676C43.9164 10.2042 43.862 10.1407 43.8031 10.0773C43.7488 10.0139 43.6989 9.96408 43.6536 9.92784C43.9481 9.64699 44.1791 9.30498 44.3467 8.90182C44.5143 8.49413 44.6366 8.03661 44.7136 7.52926C44.7907 7.01738 44.8427 6.467 44.8699 5.87811Z" fill="#424242"/>
<rect x="65.5291" y="19.496" width="43.3205" height="15.4705" stroke="#424242" stroke-width="0.679485"/>
<path d="M72.5291 25.6507H74.6287V26.2351H72.5291V25.6507ZM73.4736 27.7843L74.1055 27.0369V30.7944H73.4736V27.7843ZM74.0783 27.2136C74.1281 27.2498 74.2006 27.3155 74.2957 27.4106C74.3954 27.5012 74.4996 27.6009 74.6083 27.7096C74.7215 27.8183 74.8235 27.9202 74.9141 28.0153C75.0092 28.1059 75.0794 28.1716 75.1247 28.2124L74.7238 28.7492C74.6695 28.6677 74.597 28.5725 74.5064 28.4638C74.4158 28.3506 74.3206 28.235 74.221 28.1173C74.1213 27.9995 74.0262 27.8908 73.9356 27.7911C73.845 27.6869 73.768 27.6009 73.7046 27.5329L74.0783 27.2136ZM74.4316 25.6507H74.5675L74.6762 25.6236L75.0228 25.8682C74.8597 26.2759 74.6491 26.67 74.3909 27.0505C74.1327 27.4265 73.8473 27.7685 73.5347 28.0765C73.2267 28.38 72.9164 28.6337 72.6038 28.8375C72.5857 28.7786 72.5608 28.7084 72.5291 28.6269C72.5019 28.5408 72.4702 28.457 72.4339 28.3755C72.4022 28.2939 72.3705 28.2328 72.3388 28.192C72.6242 28.0289 72.9028 27.8183 73.1746 27.5601C73.4509 27.3019 73.7001 27.0188 73.922 26.7107C74.144 26.4027 74.3139 26.0901 74.4316 25.773V25.6507ZM73.2154 24.747L73.7114 24.4752C73.8382 24.6066 73.9605 24.7538 74.0783 24.9169C74.2006 25.08 74.2935 25.2249 74.3569 25.3518L73.8269 25.6643C73.7725 25.5375 73.6865 25.388 73.5687 25.2159C73.4509 25.0437 73.3331 24.8875 73.2154 24.747ZM74.8121 29.9247H78.7396V30.5566H74.8121V29.9247ZM75.1179 26.5816H78.5833V27.2068H75.1179V26.5816ZM76.5448 24.5024H77.1971V30.2305H76.5448V24.5024ZM81.1246 25.6575L84.9704 25.6575V26.0313L81.1246 26.0313V25.6575ZM81.043 28.5318H85.0656V28.9055H81.043V28.5318ZM81.7293 29.1093L82.137 28.8987C82.2412 28.9847 82.3454 29.0867 82.4496 29.2044C82.5583 29.3177 82.6398 29.4196 82.6942 29.5102L82.2661 29.7412C82.2163 29.6506 82.1393 29.5465 82.0351 29.4287C81.9309 29.3064 81.829 29.1999 81.7293 29.1093ZM81.8584 27.1048V27.363H84.2298V27.1048H81.8584ZM81.8584 26.568V26.8195H84.2298V26.568H81.8584ZM81.3624 26.2759L84.7598 26.2759V27.662H81.3624V26.2759ZM83.5911 28.3007H84.1279V29.4491C84.1279 29.5623 84.112 29.6438 84.0803 29.6937C84.0531 29.739 83.9965 29.7752 83.9104 29.8024C83.8289 29.8296 83.7202 29.8454 83.5843 29.85C83.4484 29.8545 83.2808 29.8568 83.0815 29.8568C83.0724 29.7979 83.0543 29.739 83.0271 29.6801C82.9999 29.6167 82.9728 29.56 82.9456 29.5102C83.0634 29.5147 83.1743 29.517 83.2785 29.517C83.3872 29.517 83.4597 29.517 83.496 29.517C83.5322 29.5125 83.5571 29.5057 83.5707 29.4966C83.5843 29.483 83.5911 29.4604 83.5911 29.4287V28.3007ZM81.1449 27.9542C81.4258 27.9542 81.7474 27.9542 82.1098 27.9542C82.4722 27.9497 82.8572 27.9451 83.2649 27.9406C83.6772 27.9315 84.0916 27.9247 84.5084 27.9202L84.4948 28.2328C84.0916 28.2464 83.6907 28.26 83.2921 28.2736C82.8935 28.2826 82.513 28.2917 82.1506 28.3007C81.7927 28.3098 81.4666 28.3166 81.1721 28.3211L81.1449 27.9542ZM83.8901 27.8319L84.223 27.6009C84.3634 27.696 84.5016 27.807 84.6375 27.9338C84.7779 28.0606 84.8866 28.1716 84.9637 28.2668L84.6171 28.525C84.5356 28.4253 84.4246 28.3098 84.2842 28.1784C84.1483 28.0425 84.0169 27.927 83.8901 27.8319ZM82.7621 25.3722H83.2989V28.0765L82.7621 28.1037V25.3722ZM80.2684 24.7674L85.8674 24.7674V30.7809H85.2558V25.2634L80.8528 25.2634V30.8012H80.2684V24.7674ZM80.5538 29.9587H85.5072V30.4547H80.5538V29.9587ZM87.3079 28.0357C87.5661 27.9542 87.8786 27.8477 88.2456 27.7164C88.617 27.585 88.993 27.4491 89.3735 27.3087L89.4822 27.8862C89.138 28.0176 88.7892 28.1512 88.4358 28.2871C88.0825 28.4185 87.7609 28.5408 87.471 28.6541L87.3079 28.0357ZM87.3894 25.8274H89.4211V26.4254H87.3894V25.8274ZM88.198 24.5024H88.7959V30.0946C88.7959 30.2531 88.7778 30.3777 88.7416 30.4683C88.7053 30.5589 88.6397 30.6314 88.5445 30.6857C88.4539 30.7356 88.3362 30.7673 88.1912 30.7809C88.0508 30.799 87.8696 30.808 87.6476 30.808C87.6431 30.7265 87.6227 30.6268 87.5865 30.5091C87.5548 30.3958 87.5185 30.2962 87.4777 30.2101C87.6136 30.2146 87.7382 30.2169 87.8515 30.2169C87.9647 30.2169 88.0417 30.2146 88.0825 30.2101C88.1233 30.2101 88.1527 30.2033 88.1708 30.1897C88.1889 30.1716 88.198 30.1399 88.198 30.0946V24.5024ZM90.5015 24.5568H91.0994V27.5465C91.0994 27.8862 91.0813 28.2124 91.045 28.525C91.0088 28.833 90.9363 29.1252 90.8276 29.4015C90.7234 29.6733 90.5671 29.927 90.3588 30.1625C90.1504 30.3935 89.8718 30.5997 89.523 30.7809C89.4913 30.7356 89.4483 30.6835 89.3939 30.6246C89.3441 30.5657 89.2897 30.5091 89.2308 30.4547C89.1765 30.4049 89.1244 30.3618 89.0745 30.3256C89.3916 30.1671 89.643 29.9881 89.8288 29.7888C90.019 29.5895 90.1617 29.3721 90.2568 29.1365C90.3565 28.9009 90.4222 28.6495 90.4539 28.3823C90.4856 28.115 90.5015 27.8342 90.5015 27.5397V24.5568ZM91.677 24.5568H92.2885V29.8092C92.2885 29.9541 92.2998 30.047 92.3225 30.0878C92.3451 30.1285 92.3972 30.1489 92.4788 30.1489C92.4969 30.1489 92.5286 30.1489 92.5739 30.1489C92.6192 30.1489 92.669 30.1489 92.7234 30.1489C92.7823 30.1489 92.8344 30.1489 92.8797 30.1489C92.9295 30.1489 92.9657 30.1489 92.9884 30.1489C93.0427 30.1489 93.0812 30.124 93.1039 30.0742C93.1311 30.0198 93.1514 29.9247 93.165 29.7888C93.1786 29.6484 93.1877 29.4559 93.1922 29.2112C93.2647 29.2701 93.353 29.3245 93.4572 29.3743C93.5614 29.4241 93.6565 29.4581 93.7426 29.4762C93.7245 29.7843 93.6905 30.0312 93.6407 30.2169C93.5954 30.3981 93.5252 30.5294 93.43 30.611C93.3349 30.6925 93.2035 30.7333 93.0359 30.7333C93.0088 30.7333 92.9635 30.7333 92.9 30.7333C92.8411 30.7333 92.7755 30.7333 92.703 30.7333C92.635 30.7333 92.5694 30.7333 92.5059 30.7333C92.447 30.7333 92.404 30.7333 92.3768 30.7333C92.1956 30.7333 92.0529 30.7061 91.9488 30.6517C91.8491 30.5974 91.7789 30.5023 91.7381 30.3664C91.6973 30.2305 91.677 30.0425 91.677 29.8024V24.5568ZM89.3939 25.6032L89.8763 25.3382C89.976 25.4831 90.0711 25.6394 90.1617 25.807C90.2568 25.9746 90.3406 26.14 90.4131 26.303C90.4901 26.4616 90.5468 26.6065 90.583 26.7379L90.0734 27.0301C90.0371 26.8987 89.9828 26.7515 89.9103 26.5884C89.8424 26.4208 89.7631 26.251 89.6725 26.0788C89.5819 25.9067 89.489 25.7481 89.3939 25.6032ZM92.0575 27.8183L92.4516 27.431C92.6056 27.5578 92.7641 27.696 92.9272 27.8455C93.0903 27.995 93.242 28.1422 93.3825 28.2871C93.5274 28.4321 93.6452 28.5589 93.7358 28.6677L93.3145 29.1229C93.2285 29.0051 93.1152 28.8715 92.9748 28.722C92.8344 28.568 92.6826 28.4117 92.5195 28.2532C92.361 28.0901 92.207 27.9451 92.0575 27.8183ZM89.1493 28.6065C89.3214 28.5068 89.5275 28.3777 89.7676 28.2192C90.0122 28.0561 90.2614 27.8885 90.515 27.7164L90.7189 28.2056C90.515 28.3687 90.3044 28.5318 90.087 28.6948C89.8741 28.8579 89.6747 29.0097 89.489 29.1501L89.1493 28.6065ZM93.0155 25.2634L93.5931 25.5624C93.5025 25.7255 93.4051 25.8976 93.3009 26.0788C93.2013 26.2555 93.1016 26.4254 93.002 26.5884C92.9068 26.7515 92.814 26.8965 92.7234 27.0233L92.2817 26.7719C92.3632 26.636 92.4493 26.482 92.5399 26.3098C92.635 26.1377 92.7234 25.9588 92.8049 25.773C92.891 25.5873 92.9612 25.4174 93.0155 25.2634ZM95.5296 25.1139V25.6711H96.0325V25.1139H95.5296ZM95.054 24.6927H96.5217V26.0992H95.054V24.6927ZM97.2827 25.1139V25.6711H97.8059V25.1139H97.2827ZM96.8071 24.6927H98.2884V26.0992H96.8071V24.6927ZM98.3087 26.5137L101.129 26.1739L101.203 26.7651L98.3835 27.1184L98.3087 26.5137ZM99.8444 24.8625L100.334 24.6043C100.433 24.7176 100.531 24.8422 100.626 24.978C100.725 25.1139 100.816 25.2476 100.898 25.3789C100.979 25.5103 101.043 25.6304 101.088 25.7391L100.571 26.038C100.531 25.9293 100.472 25.807 100.395 25.6711C100.318 25.5307 100.229 25.3903 100.13 25.2498C100.035 25.1094 99.9395 24.9803 99.8444 24.8625ZM95.6587 27.8319V28.3143H97.67V27.8319H95.6587ZM95.6587 26.901V27.3698H97.67V26.901H95.6587ZM95.122 26.4118H98.234V28.7968H95.122V26.4118ZM94.8434 29.218H98.4378V29.7888H94.8434V29.218ZM96.379 26.5816H96.9294V28.5929H96.9634V30.808H96.345V28.5929H96.379V26.5816ZM98.9067 24.5364H99.5114C99.525 25.1298 99.5499 25.6983 99.5862 26.2419C99.6224 26.7855 99.67 27.2883 99.7289 27.7503C99.7923 28.2079 99.8648 28.6088 99.9463 28.953C100.028 29.2928 100.118 29.56 100.218 29.7548C100.322 29.9451 100.433 30.0447 100.551 30.0538C100.614 30.0583 100.667 29.9745 100.707 29.8024C100.753 29.6303 100.787 29.3811 100.809 29.055C100.845 29.1003 100.893 29.1478 100.952 29.1977C101.015 29.243 101.077 29.286 101.135 29.3268C101.199 29.363 101.249 29.3924 101.285 29.4151C101.235 29.7865 101.169 30.0742 101.088 30.278C101.011 30.4819 100.925 30.6223 100.83 30.6993C100.739 30.7809 100.646 30.8194 100.551 30.8148C100.315 30.8058 100.109 30.697 99.9327 30.4887C99.7606 30.2848 99.6133 29.9972 99.491 29.6257C99.3687 29.2497 99.2668 28.8036 99.1853 28.2871C99.1083 27.7707 99.0471 27.1977 99.0018 26.568C98.961 25.9339 98.9293 25.2566 98.9067 24.5364ZM100.49 27.0573L100.986 27.3359C100.832 27.8024 100.624 28.2554 100.361 28.6948C100.103 29.1297 99.8036 29.5261 99.4639 29.8839C99.1287 30.2373 98.7617 30.5226 98.3631 30.7401C98.3087 30.6676 98.2385 30.5883 98.1525 30.5023C98.0664 30.4162 97.9803 30.3437 97.8943 30.2848C98.2974 30.0946 98.6689 29.8341 99.0086 29.5034C99.3484 29.1682 99.6428 28.79 99.8919 28.3687C100.146 27.9474 100.345 27.5103 100.49 27.0573Z" fill="#424242"/>
<rect x="65.5291" y="41.6464" width="46.3205" height="15.4705" stroke="#424242" stroke-width="0.679485"/>
<path d="M74.751 52.476C74.3252 52.476 73.9469 52.3695 73.6162 52.1566C73.2901 51.9437 73.0342 51.6425 72.8484 51.2529C72.6627 50.8588 72.5698 50.3945 72.5698 49.86C72.5698 49.3209 72.6627 48.8611 72.8484 48.4806C73.0342 48.0956 73.2901 47.8011 73.6162 47.5973C73.9469 47.3889 74.3252 47.2847 74.751 47.2847C75.1813 47.2847 75.5596 47.3889 75.8857 47.5973C76.2119 47.8011 76.4678 48.0956 76.6535 48.4806C76.8393 48.8611 76.9321 49.3209 76.9321 49.86C76.9321 50.3945 76.8393 50.8588 76.6535 51.2529C76.4678 51.6425 76.2119 51.9437 75.8857 52.1566C75.5596 52.3695 75.1813 52.476 74.751 52.476ZM74.751 51.8169C75.0273 51.8169 75.2674 51.7399 75.4712 51.5859C75.6796 51.4273 75.8404 51.2008 75.9537 50.9064C76.0669 50.6119 76.1236 50.2631 76.1236 49.86C76.1236 49.4704 76.0669 49.1352 75.9537 48.8543C75.8404 48.5689 75.6796 48.3515 75.4712 48.202C75.2674 48.048 75.0273 47.971 74.751 47.971C74.4747 47.971 74.2323 48.048 74.0239 48.202C73.8201 48.3515 73.6615 48.5689 73.5483 48.8543C73.4396 49.1352 73.3852 49.4704 73.3852 49.86C73.3852 50.2631 73.4396 50.6119 73.5483 50.9064C73.6615 51.2008 73.8201 51.4273 74.0239 51.5859C74.2323 51.7399 74.4747 51.8169 74.751 51.8169ZM76.3206 53.6855C75.9899 53.6855 75.6932 53.6266 75.4305 53.5088C75.1677 53.3956 74.9458 53.237 74.7646 53.0332C74.5834 52.8338 74.443 52.6096 74.3433 52.3605L75.1587 52.2857C75.2221 52.4533 75.315 52.5938 75.4373 52.707C75.5641 52.8203 75.7113 52.9018 75.8789 52.9516C76.0465 53.006 76.2232 53.0332 76.4089 53.0332C76.5177 53.0332 76.615 53.0264 76.7011 53.0128C76.7917 52.9992 76.8732 52.9788 76.9457 52.9516L77.0952 53.5496C77.0137 53.5858 76.905 53.6175 76.7691 53.6447C76.6332 53.6719 76.4837 53.6855 76.3206 53.6855ZM78.6506 52.3809V47.3731H80.2882C80.6324 47.3731 80.9405 47.4206 81.2123 47.5157C81.4841 47.6063 81.6992 47.7581 81.8578 47.971C82.0163 48.1794 82.0956 48.4648 82.0956 48.8272C82.0956 49.176 82.0163 49.4636 81.8578 49.6901C81.6992 49.9166 81.4841 50.0865 81.2123 50.1997C80.9405 50.3084 80.6324 50.3628 80.2882 50.3628H79.4388V52.3809H78.6506ZM79.4388 49.7309H80.193C80.5554 49.7309 80.8317 49.6561 81.022 49.5066C81.2168 49.3526 81.3142 49.1261 81.3142 48.8272C81.3142 48.5236 81.2168 48.313 81.022 48.1952C80.8317 48.0729 80.5554 48.0118 80.193 48.0118H79.4388V49.7309ZM81.3821 52.3809L80.1387 50.1521L80.723 49.6969L82.2723 52.3809H81.3821ZM83.2106 50.7501V50.1725H85.0044V50.7501H83.2106ZM88.6086 52.476C88.296 52.476 88.0038 52.4194 87.732 52.3061C87.4648 52.1883 87.2292 52.0185 87.0254 51.7965C86.8215 51.5745 86.663 51.305 86.5497 50.9879C86.4365 50.6663 86.3798 50.2994 86.3798 49.8871C86.3798 49.4795 86.4387 49.1148 86.5565 48.7932C86.6743 48.4716 86.8351 48.1998 87.0389 47.9778C87.2428 47.7513 87.4829 47.5792 87.7592 47.4614C88.0355 47.3436 88.3322 47.2847 88.6493 47.2847C88.9574 47.2847 89.2314 47.3481 89.4715 47.475C89.7116 47.6018 89.9086 47.749 90.0627 47.9166L89.6414 48.4195C89.51 48.2881 89.3628 48.1816 89.1997 48.1001C89.0412 48.014 88.8622 47.971 88.6629 47.971C88.373 47.971 88.1171 48.048 87.8951 48.202C87.6777 48.356 87.5055 48.5735 87.3787 48.8543C87.2564 49.1352 87.1952 49.4727 87.1952 49.8668C87.1952 50.2609 87.2541 50.6029 87.3719 50.8928C87.4897 51.1782 87.6573 51.3979 87.8747 51.5519C88.0921 51.7059 88.3481 51.7829 88.6425 51.7829C88.869 51.7829 89.0706 51.7353 89.2473 51.6402C89.4285 51.5406 89.5938 51.4092 89.7433 51.2461L90.1714 51.7489C89.9675 51.9845 89.7365 52.1657 89.4783 52.2925C89.2246 52.4148 88.9347 52.476 88.6086 52.476ZM93.1644 52.476C92.8564 52.476 92.5665 52.399 92.2947 52.245C92.0274 52.0864 91.81 51.8622 91.6424 51.5723C91.4793 51.2778 91.3977 50.9245 91.3977 50.5123C91.3977 50.0955 91.4793 49.7422 91.6424 49.4523C91.81 49.1578 92.0274 48.9336 92.2947 48.7796C92.5665 48.6256 92.8564 48.5486 93.1644 48.5486C93.3909 48.5486 93.6106 48.5939 93.8235 48.6845C94.0364 48.7705 94.2244 48.8974 94.3875 49.065C94.5505 49.2326 94.6797 49.4387 94.7748 49.6833C94.8699 49.9234 94.9175 50.1997 94.9175 50.5123C94.9175 50.9245 94.8337 51.2778 94.6661 51.5723C94.503 51.8622 94.2878 52.0864 94.0206 52.245C93.7578 52.399 93.4724 52.476 93.1644 52.476ZM93.1644 51.8237C93.3592 51.8237 93.5268 51.7693 93.6672 51.6606C93.8122 51.5519 93.9232 51.4001 94.0002 51.2054C94.0772 51.006 94.1157 50.775 94.1157 50.5123C94.1157 50.2495 94.0772 50.0208 94.0002 49.826C93.9232 49.6267 93.8122 49.4727 93.6672 49.3639C93.5268 49.2507 93.3592 49.1941 93.1644 49.1941C92.9651 49.1941 92.7929 49.2507 92.648 49.3639C92.5076 49.4727 92.3988 49.6267 92.3218 49.826C92.2448 50.0208 92.2063 50.2495 92.2063 50.5123C92.2063 50.775 92.2448 51.006 92.3218 51.2054C92.3988 51.4001 92.5076 51.5519 92.648 51.6606C92.7929 51.7693 92.9651 51.8237 93.1644 51.8237ZM97.8069 52.476C97.4988 52.476 97.2293 52.399 96.9983 52.245C96.7673 52.0909 96.5883 51.8667 96.4615 51.5723C96.3347 51.2778 96.2712 50.9245 96.2712 50.5123C96.2712 50.1091 96.346 49.7603 96.4955 49.4659C96.6495 49.1714 96.8465 48.9449 97.0866 48.7864C97.3312 48.6278 97.5917 48.5486 97.868 48.5486C98.0855 48.5486 98.2689 48.5871 98.4184 48.6641C98.5724 48.7366 98.7242 48.8385 98.8737 48.9698L98.8465 48.3515V46.9654H99.6279V52.3809H98.9892L98.9212 51.9596H98.9008C98.7604 52.1045 98.5973 52.2268 98.4116 52.3265C98.2259 52.4262 98.0243 52.476 97.8069 52.476ZM97.9971 51.8169C98.1557 51.8169 98.3029 51.7806 98.4388 51.7082C98.5747 51.6357 98.7106 51.5202 98.8465 51.3616V49.5406C98.7106 49.4183 98.5747 49.3322 98.4388 49.2824C98.3029 49.228 98.1647 49.2009 98.0243 49.2009C97.8522 49.2009 97.6936 49.2552 97.5487 49.3639C97.4082 49.4681 97.295 49.6176 97.2089 49.8124C97.1229 50.0027 97.0798 50.2337 97.0798 50.5055C97.0798 50.7863 97.1161 51.0264 97.1885 51.2257C97.261 51.4205 97.3652 51.5677 97.5011 51.6674C97.6415 51.7671 97.8069 51.8169 97.9971 51.8169ZM103.045 52.476C102.705 52.476 102.397 52.399 102.121 52.245C101.844 52.0864 101.625 51.8622 101.462 51.5723C101.299 51.2778 101.217 50.9245 101.217 50.5123C101.217 50.2088 101.265 49.937 101.36 49.6969C101.455 49.4523 101.584 49.2462 101.747 49.0786C101.91 48.9064 102.094 48.7751 102.297 48.6845C102.501 48.5939 102.71 48.5486 102.923 48.5486C103.253 48.5486 103.532 48.6233 103.758 48.7728C103.985 48.9178 104.157 49.1239 104.275 49.3911C104.393 49.6539 104.451 49.9619 104.451 50.3152C104.451 50.3922 104.447 50.467 104.438 50.5395C104.433 50.6074 104.424 50.6663 104.411 50.7161H101.985C102.008 50.9517 102.069 51.1555 102.168 51.3277C102.273 51.4953 102.406 51.6266 102.569 51.7218C102.737 51.8124 102.927 51.8577 103.14 51.8577C103.308 51.8577 103.464 51.8327 103.609 51.7829C103.754 51.7331 103.894 51.6651 104.03 51.5791L104.302 52.0751C104.13 52.1883 103.937 52.2835 103.724 52.3605C103.516 52.4375 103.29 52.476 103.045 52.476ZM101.978 50.1725H103.772C103.772 49.8554 103.699 49.6086 103.555 49.4319C103.414 49.2552 103.208 49.1669 102.936 49.1669C102.782 49.1669 102.637 49.2054 102.501 49.2824C102.365 49.3594 102.25 49.4727 102.155 49.6221C102.064 49.7716 102.005 49.9551 101.978 50.1725Z" fill="#424242"/>
<rect x="65.5291" y="63.7968" width="43.3205" height="15.4705" stroke="#43B71B" stroke-width="0.679485"/>
<path d="M74.3977 71.7046H78.7735V72.3297H74.3977V71.7046ZM74.6015 74.2391H78.6173V74.8506H74.6015V74.2391ZM76.273 69.8088H76.9253V74.4633H76.273V69.8088ZM73.3988 70.7057L74.0239 70.0806L74.0307 70.0874V75.0884H73.3988V70.7057ZM74.1055 68.8372L74.7374 69.0342C74.5789 69.4328 74.3909 69.8269 74.1734 70.2165C73.956 70.6061 73.7204 70.9707 73.4668 71.3105C73.2131 71.6502 72.9526 71.9515 72.6854 72.2142C72.6627 72.1598 72.6287 72.0919 72.5834 72.0104C72.5381 71.9243 72.4883 71.8382 72.4339 71.7522C72.3841 71.6661 72.3388 71.5981 72.298 71.5483C72.5381 71.3309 72.7692 71.0795 72.9911 70.7941C73.2176 70.5042 73.426 70.1939 73.6162 69.8632C73.8065 69.528 73.9696 69.186 74.1055 68.8372ZM74.8121 69.4351H78.495V70.0399H74.8121V69.4351ZM80.0442 69.1225H82.3205V69.6661H80.0442V69.1225ZM82.7078 72.6015H85.5752V73.1451H82.7078V72.6015ZM79.9558 71.1814H82.5039V71.7522H79.9558V71.1814ZM81.1178 71.4124H81.7225V74.3886C81.7225 74.538 81.7044 74.6581 81.6681 74.7487C81.6364 74.8438 81.5685 74.9186 81.4643 74.9729C81.3692 75.0182 81.2469 75.0454 81.0974 75.0545C80.9524 75.068 80.7758 75.0748 80.5674 75.0748C80.5538 74.9888 80.5289 74.8868 80.4926 74.7691C80.4564 74.6558 80.4179 74.5562 80.3771 74.4701C80.5176 74.4746 80.6467 74.4792 80.7644 74.4837C80.8822 74.4837 80.9637 74.4814 81.009 74.4769C81.0498 74.4724 81.077 74.4656 81.0906 74.4565C81.1087 74.4429 81.1178 74.4157 81.1178 74.375V71.4124ZM85.3645 72.6015H86.0169C86.0169 72.6015 86.0146 72.6355 86.0101 72.7034C86.0055 72.7669 86.001 72.8212 85.9965 72.8665C85.9557 73.2742 85.9127 73.6117 85.8674 73.8789C85.8266 74.1417 85.7813 74.3478 85.7315 74.4973C85.6816 74.6468 85.6228 74.7577 85.5548 74.8302C85.4869 74.8982 85.4166 74.9457 85.3442 74.9729C85.2717 75.0001 85.1879 75.0205 85.0928 75.0341C85.0112 75.0431 84.9025 75.0477 84.7666 75.0477C84.6352 75.0477 84.4903 75.0454 84.3317 75.0409C84.3272 74.9503 84.3091 74.8483 84.2774 74.7351C84.2457 74.6218 84.2072 74.5245 84.1619 74.4429C84.2978 74.4565 84.4223 74.4656 84.5356 74.4701C84.6534 74.4746 84.7394 74.4769 84.7938 74.4769C84.8481 74.4769 84.8912 74.4724 84.9229 74.4633C84.9591 74.4542 84.9931 74.4339 85.0248 74.4021C85.0701 74.3568 85.1131 74.273 85.1539 74.1507C85.1947 74.0239 85.2309 73.8427 85.2626 73.6072C85.2989 73.3716 85.3328 73.0681 85.3645 72.6966V72.6015ZM83.8833 71.956H84.5288C84.4971 72.3048 84.4472 72.6355 84.3793 72.948C84.3113 73.2606 84.2072 73.5528 84.0667 73.8246C83.9263 74.0918 83.7315 74.3342 83.4824 74.5516C83.2378 74.7691 82.9184 74.9548 82.5243 75.1088C82.4881 75.0318 82.4337 74.9435 82.3612 74.8438C82.2887 74.7442 82.2185 74.6649 82.1506 74.606C82.5039 74.4792 82.787 74.3229 82.9999 74.1371C83.2174 73.9514 83.385 73.7453 83.5028 73.5188C83.6251 73.2923 83.7134 73.0477 83.7678 72.785C83.8221 72.5222 83.8606 72.2459 83.8833 71.956ZM80.248 70.3796L80.6489 69.9651C80.8392 70.0376 81.0362 70.1259 81.2401 70.2301C81.4484 70.3298 81.6455 70.4362 81.8312 70.5495C82.0215 70.6582 82.1778 70.7624 82.3001 70.862L81.872 71.3241C81.7587 71.2244 81.6093 71.118 81.4235 71.0047C81.2423 70.8869 81.0476 70.7737 80.8392 70.665C80.6353 70.5517 80.4383 70.4566 80.248 70.3796ZM82.3408 71.1814H82.4292L82.5175 71.1542L82.9116 71.2833C82.8482 71.5823 82.7689 71.8881 82.6738 72.2006C82.5832 72.5086 82.4881 72.7736 82.3884 72.9956L81.9467 72.7782C82.0237 72.5879 82.0985 72.3546 82.171 72.0783C82.2434 71.7975 82.3001 71.5325 82.3408 71.2833V71.1814ZM85.0588 69.7613L85.7315 69.8632C85.5775 70.2799 85.3645 70.6355 85.0928 70.93C84.8255 71.2244 84.5107 71.4713 84.1483 71.6706C83.7859 71.8699 83.385 72.0353 82.9456 72.1666C82.9229 72.1213 82.8867 72.0647 82.8369 71.9968C82.7916 71.9288 82.7417 71.8631 82.6874 71.7997C82.6375 71.7318 82.59 71.6774 82.5447 71.6366C82.966 71.537 83.3442 71.4079 83.6794 71.2493C84.0192 71.0863 84.3068 70.8824 84.5424 70.6378C84.7779 70.3887 84.9501 70.0965 85.0588 69.7613ZM83.6522 68.7896L84.257 68.9595C84.1483 69.1996 84.0192 69.4328 83.8697 69.6593C83.7202 69.8858 83.5594 70.0987 83.3872 70.2981C83.2196 70.4928 83.0498 70.665 82.8776 70.8145C82.8369 70.7782 82.7848 70.7375 82.7213 70.6922C82.6579 70.6423 82.5922 70.597 82.5243 70.5563C82.4609 70.511 82.402 70.4747 82.3476 70.4475C82.6149 70.2482 82.864 70.0036 83.0951 69.7137C83.3306 69.4193 83.5163 69.1112 83.6522 68.7896ZM83.6251 69.9175C83.7836 70.1984 83.9943 70.4543 84.257 70.6854C84.5197 70.9119 84.8232 71.1066 85.1675 71.2697C85.5163 71.4328 85.89 71.5574 86.2886 71.6434C86.2433 71.6842 86.1935 71.7363 86.1392 71.7997C86.0893 71.8631 86.0418 71.9288 85.9965 71.9968C85.9512 72.0647 85.9127 72.1281 85.881 72.187C85.4642 72.0783 85.0792 71.9266 84.7258 71.7318C84.3725 71.5325 84.0577 71.2946 83.7813 71.0183C83.505 70.742 83.274 70.434 83.0883 70.0942L83.6251 69.9175ZM81.043 71.3716L81.4711 71.5347C81.385 71.8337 81.2763 72.1417 81.1449 72.4588C81.0136 72.7714 80.8664 73.0636 80.7033 73.3354C80.5447 73.6026 80.3703 73.8246 80.1801 74.0013C80.1529 73.9107 80.1076 73.8087 80.0442 73.6955C79.9808 73.5777 79.9219 73.4758 79.8675 73.3897C80.0351 73.2402 80.1937 73.0568 80.3432 72.8393C80.4926 72.6174 80.6285 72.3795 80.7508 72.1259C80.8732 71.8722 80.9705 71.6208 81.043 71.3716ZM83.5571 69.4963H86.1324V70.0399H83.2989L83.5571 69.4963ZM82.1642 69.1225H82.3069L82.4088 69.0954L82.8165 69.3536C82.7168 69.5121 82.5945 69.6752 82.4496 69.8428C82.3046 70.0104 82.1506 70.1667 81.9875 70.3116C81.8244 70.4566 81.6614 70.5834 81.4983 70.6922C81.4439 70.6423 81.3737 70.588 81.2876 70.5291C81.2061 70.4702 81.1336 70.4204 81.0702 70.3796C81.2152 70.2799 81.3578 70.1644 81.4983 70.0331C81.6387 69.9017 81.7678 69.7658 81.8856 69.6254C82.0034 69.4849 82.0962 69.3558 82.1642 69.2381V69.1225ZM87.3079 72.3365C87.5661 72.255 87.8786 72.1485 88.2456 72.0172C88.617 71.8858 88.993 71.7499 89.3735 71.6095L89.4822 72.187C89.138 72.3184 88.7892 72.452 88.4358 72.5879C88.0825 72.7193 87.7609 72.8416 87.471 72.9548L87.3079 72.3365ZM87.3894 70.1282H89.4211V70.7261H87.3894V70.1282ZM88.198 68.8032H88.7959V74.3954C88.7959 74.5539 88.7778 74.6785 88.7416 74.7691C88.7053 74.8597 88.6397 74.9321 88.5445 74.9865C88.4539 75.0363 88.3362 75.068 88.1912 75.0816C88.0508 75.0998 87.8696 75.1088 87.6476 75.1088C87.6431 75.0273 87.6227 74.9276 87.5865 74.8098C87.5548 74.6966 87.5185 74.5969 87.4777 74.5109C87.6136 74.5154 87.7382 74.5177 87.8515 74.5177C87.9647 74.5177 88.0417 74.5154 88.0825 74.5109C88.1233 74.5109 88.1527 74.5041 88.1708 74.4905C88.1889 74.4724 88.198 74.4407 88.198 74.3954V68.8032ZM90.5015 68.8575H91.0994V71.8473C91.0994 72.187 91.0813 72.5132 91.045 72.8257C91.0088 73.1338 90.9363 73.426 90.8276 73.7023C90.7234 73.9741 90.5671 74.2277 90.3588 74.4633C90.1504 74.6943 89.8718 74.9004 89.523 75.0816C89.4913 75.0363 89.4483 74.9842 89.3939 74.9254C89.3441 74.8665 89.2897 74.8098 89.2308 74.7555C89.1765 74.7057 89.1244 74.6626 89.0745 74.6264C89.3916 74.4678 89.643 74.2889 89.8288 74.0896C90.019 73.8903 90.1617 73.6728 90.2568 73.4373C90.3565 73.2017 90.4222 72.9503 90.4539 72.6831C90.4856 72.4158 90.5015 72.1349 90.5015 71.8405V68.8575ZM91.677 68.8575H92.2885V74.11C92.2885 74.2549 92.2998 74.3478 92.3225 74.3886C92.3451 74.4293 92.3972 74.4497 92.4788 74.4497C92.4969 74.4497 92.5286 74.4497 92.5739 74.4497C92.6192 74.4497 92.669 74.4497 92.7234 74.4497C92.7823 74.4497 92.8344 74.4497 92.8797 74.4497C92.9295 74.4497 92.9657 74.4497 92.9884 74.4497C93.0427 74.4497 93.0812 74.4248 93.1039 74.375C93.1311 74.3206 93.1514 74.2255 93.165 74.0896C93.1786 73.9492 93.1877 73.7566 93.1922 73.512C93.2647 73.5709 93.353 73.6253 93.4572 73.6751C93.5614 73.7249 93.6565 73.7589 93.7426 73.777C93.7245 74.0851 93.6905 74.3319 93.6407 74.5177C93.5954 74.6989 93.5252 74.8302 93.43 74.9118C93.3349 74.9933 93.2035 75.0341 93.0359 75.0341C93.0088 75.0341 92.9635 75.0341 92.9 75.0341C92.8411 75.0341 92.7755 75.0341 92.703 75.0341C92.635 75.0341 92.5694 75.0341 92.5059 75.0341C92.447 75.0341 92.404 75.0341 92.3768 75.0341C92.1956 75.0341 92.0529 75.0069 91.9488 74.9525C91.8491 74.8982 91.7789 74.803 91.7381 74.6671C91.6973 74.5312 91.677 74.3433 91.677 74.1032V68.8575ZM89.3939 69.904L89.8763 69.639C89.976 69.7839 90.0711 69.9402 90.1617 70.1078C90.2568 70.2754 90.3406 70.4407 90.4131 70.6038C90.4901 70.7624 90.5468 70.9073 90.583 71.0387L90.0734 71.3309C90.0371 71.1995 89.9828 71.0523 89.9103 70.8892C89.8424 70.7216 89.7631 70.5517 89.6725 70.3796C89.5819 70.2075 89.489 70.0489 89.3939 69.904ZM92.0575 72.1191L92.4516 71.7318C92.6056 71.8586 92.7641 71.9968 92.9272 72.1463C93.0903 72.2957 93.242 72.443 93.3825 72.5879C93.5274 72.7329 93.6452 72.8597 93.7358 72.9684L93.3145 73.4237C93.2285 73.3059 93.1152 73.1723 92.9748 73.0228C92.8344 72.8688 92.6826 72.7125 92.5195 72.5539C92.361 72.3909 92.207 72.2459 92.0575 72.1191ZM89.1493 72.9073C89.3214 72.8076 89.5275 72.6785 89.7676 72.52C90.0122 72.3569 90.2614 72.1893 90.515 72.0172L90.7189 72.5064C90.515 72.6695 90.3044 72.8325 90.087 72.9956C89.8741 73.1587 89.6747 73.3104 89.489 73.4509L89.1493 72.9073ZM93.0155 69.5642L93.5931 69.8632C93.5025 70.0263 93.4051 70.1984 93.3009 70.3796C93.2013 70.5563 93.1016 70.7261 93.002 70.8892C92.9068 71.0523 92.814 71.1972 92.7234 71.3241L92.2817 71.0727C92.3632 70.9368 92.4493 70.7828 92.5399 70.6106C92.635 70.4385 92.7234 70.2596 92.8049 70.0738C92.891 69.8881 92.9612 69.7182 93.0155 69.5642ZM95.5296 69.4147V69.9719H96.0325V69.4147H95.5296ZM95.054 68.9934H96.5217V70.4H95.054V68.9934ZM97.2827 69.4147V69.9719H97.8059V69.4147H97.2827ZM96.8071 68.9934H98.2884V70.4H96.8071V68.9934ZM98.3087 70.8145L101.129 70.4747L101.203 71.0659L98.3835 71.4192L98.3087 70.8145ZM99.8444 69.1633L100.334 68.9051C100.433 69.0184 100.531 69.1429 100.626 69.2788C100.725 69.4147 100.816 69.5484 100.898 69.6797C100.979 69.8111 101.043 69.9311 101.088 70.0399L100.571 70.3388C100.531 70.2301 100.472 70.1078 100.395 69.9719C100.318 69.8315 100.229 69.6911 100.13 69.5506C100.035 69.4102 99.9395 69.2811 99.8444 69.1633ZM95.6587 72.1327V72.6151H97.67V72.1327H95.6587ZM95.6587 71.2018V71.6706H97.67V71.2018H95.6587ZM95.122 70.7125H98.234V73.0975H95.122V70.7125ZM94.8434 73.5188H98.4378V74.0896H94.8434V73.5188ZM96.379 70.8824H96.9294V72.8937H96.9634V75.1088H96.345V72.8937H96.379V70.8824ZM98.9067 68.8372H99.5114C99.525 69.4306 99.5499 69.9991 99.5862 70.5427C99.6224 71.0863 99.67 71.5891 99.7289 72.0511C99.7923 72.5086 99.8648 72.9095 99.9463 73.2538C100.028 73.5936 100.118 73.8608 100.218 74.0556C100.322 74.2459 100.433 74.3455 100.551 74.3546C100.614 74.3591 100.667 74.2753 100.707 74.1032C100.753 73.931 100.787 73.6819 100.809 73.3557C100.845 73.401 100.893 73.4486 100.952 73.4984C101.015 73.5437 101.077 73.5868 101.135 73.6275C101.199 73.6638 101.249 73.6932 101.285 73.7159C101.235 74.0873 101.169 74.375 101.088 74.5788C101.011 74.7827 100.925 74.9231 100.83 75.0001C100.739 75.0816 100.646 75.1201 100.551 75.1156C100.315 75.1065 100.109 74.9978 99.9327 74.7895C99.7606 74.5856 99.6133 74.298 99.491 73.9265C99.3687 73.5505 99.2668 73.1043 99.1853 72.5879C99.1083 72.0715 99.0471 71.4985 99.0018 70.8688C98.961 70.2346 98.9293 69.5574 98.9067 68.8372ZM100.49 71.3581L100.986 71.6366C100.832 72.1032 100.624 72.5562 100.361 72.9956C100.103 73.4305 99.8036 73.8269 99.4639 74.1847C99.1287 74.538 98.7617 74.8234 98.3631 75.0409C98.3087 74.9684 98.2385 74.8891 98.1525 74.803C98.0664 74.717 97.9803 74.6445 97.8943 74.5856C98.2974 74.3954 98.6689 74.1349 99.0086 73.8042C99.3484 73.469 99.6428 73.0907 99.8919 72.6695C100.146 72.2482 100.345 71.811 100.49 71.3581Z" fill="#43B71B"/>
</g>
<defs>
<clipPath id="clip0_152_6200">
<rect width="200" height="200" fill="white" transform="translate(0.293213)"/>
</clipPath>
</defs>
</svg>
