<svg width="201" height="201" viewBox="0 0 201 201" fill="none" xmlns="http://www.w3.org/2000/svg">
<g clip-path="url(#clip0_152_5965)">
<rect x="79.1538" y="62.4686" width="28.3205" height="15.4743" stroke="#424242" stroke-width="0.679485"/>
<path d="M88.1923 71.2278V70.3716C87.9816 70.7046 87.7099 71.0171 87.4516 71.2142C87.3837 71.1191 87.2818 70.9832 87.1799 70.888C87.1187 71.8597 86.9692 72.9333 86.5683 73.7283C86.4528 73.6332 86.1878 73.4837 86.0383 73.4361C86.5683 72.3829 86.6159 70.8812 86.6159 69.8144V67.7964H92.2216V68.3671H87.207V69.8212C87.207 70.1134 87.2002 70.4328 87.1866 70.7725C87.472 70.5755 87.7642 70.2629 87.9816 69.9435H87.3837V69.4883H88.1923V69.0806C87.9613 69.1146 87.7302 69.1418 87.5128 69.1553C87.4856 69.0534 87.4245 68.8903 87.3701 68.7816C87.9545 68.7273 88.634 68.6253 88.9941 68.4759L89.4018 68.7952C89.2115 68.8768 88.9737 68.9379 88.7223 68.9855V69.4883H89.4697V69.9435H88.7223V69.9503C88.8989 70.0591 89.3406 70.3648 89.4561 70.46L89.1504 70.8541C89.062 70.7521 88.8922 70.5891 88.7223 70.4532V71.2278H88.1923ZM90.0133 72.315V73.0352H92.2284V73.5652H87.0983V73.0352H87.9001V71.683H88.5048V73.0352H89.4018V71.1938H89.6532C89.5648 71.0715 89.4154 70.9016 89.3066 70.8133C89.6396 70.6366 89.9793 70.2969 90.2239 69.9435H89.66V69.4883H90.5229V69.0738C90.2715 69.1078 90.0065 69.135 89.7687 69.1486C89.7483 69.0398 89.6872 68.8768 89.626 68.7748C90.2715 68.7205 91.0257 68.605 91.4198 68.4555L91.8275 68.7816C91.6033 68.87 91.3383 68.9379 91.0529 68.9855V69.4883H92.0993V69.9435H91.0529V69.9639L91.0597 69.9571C91.2907 70.093 92.0586 70.6298 92.2488 70.7725L91.9566 71.1938C91.7732 71.0103 91.3655 70.6706 91.0529 70.4328V71.2278H90.5229V70.2289C90.2919 70.6162 89.9861 70.9764 89.6804 71.2006H90.0133V71.8189H91.6101V72.315H90.0133ZM94.7357 69.135V70.2629H96.3665V69.135H94.7357ZM98.6496 69.135H97.0188V70.2629H98.6496V69.135ZM99.3019 70.8676H97.0052C96.9644 71.452 96.8217 72.0092 96.4344 72.4848C97.2702 72.8925 98.3846 73.0148 99.8455 73.0556C99.7299 73.2119 99.6008 73.4905 99.5533 73.7079C98.038 73.6264 96.8421 73.4497 95.9384 72.9401C95.49 73.2662 94.8512 73.5448 93.9543 73.7555C93.8864 73.606 93.7165 73.3342 93.5806 73.1915C94.396 73.0284 94.9735 72.8178 95.388 72.5528C94.9939 72.2198 94.6746 71.7917 94.4096 71.2414L94.9871 71.0307C95.225 71.4996 95.5307 71.8597 95.8773 72.1451C96.2034 71.7714 96.3189 71.3365 96.3529 70.8676H94.1174V68.5302H96.3665V67.5314H97.0188V68.5302H99.3019V70.8676Z" fill="#424242"/>
<path d="M47.5884 62.2598L14.5673 62.2598" stroke="#222222" stroke-width="0.679485" stroke-linecap="round"/>
<path d="M64.6761 34.3477H59.7158" stroke="#222222" stroke-width="0.679485" stroke-linecap="round"/>
<path d="M14.567 76.8086L14.567 65.0986" stroke="#222222" stroke-width="0.679485" stroke-linecap="round" stroke-dasharray="1.36 1.36"/>
<path d="M128.567 59.8379L128.567 20.708" stroke="#222222" stroke-width="0.679485" stroke-linecap="round" stroke-dasharray="1.36 1.36"/>
<path d="M48.8602 76.8086L48.8602 65.0986" stroke="#222222" stroke-width="0.679485" stroke-linecap="round" stroke-dasharray="1.36 1.36"/>
<path d="M31.0779 58.9766L31.0779 47.2627" stroke="#222222" stroke-width="0.679485" stroke-linecap="round"/>
<path d="M93.3141 58.9766L93.3141 47.2627" stroke="#222222" stroke-width="0.679485" stroke-linecap="round"/>
<rect x="5.91762" y="26.6093" width="50.3205" height="15.4743" rx="7.73717" stroke="#424242" stroke-width="0.679485"/>
<path d="M16.947 34.4511L17.5993 34.6414C17.3456 35.2529 17.0104 35.7738 16.5936 36.2042C16.1814 36.63 15.6967 36.981 15.1395 37.2574C14.5824 37.5292 13.9618 37.7511 13.2778 37.9233C13.2551 37.8734 13.2211 37.8123 13.1758 37.7398C13.1305 37.6673 13.0807 37.5948 13.0263 37.5224C12.9765 37.4499 12.9312 37.391 12.8904 37.3457C13.5609 37.2098 14.1633 37.0218 14.6979 36.7817C15.2324 36.5371 15.6899 36.2246 16.0704 35.844C16.4509 35.4635 16.7431 34.9992 16.947 34.4511ZM14.6775 33.2892L15.3026 33.5338C15.1441 33.7286 14.9629 33.9234 14.759 34.1181C14.5597 34.3129 14.3513 34.4964 14.1339 34.6685C13.9165 34.8361 13.7081 34.9856 13.5088 35.117C13.4725 35.0717 13.4227 35.0196 13.3593 34.9607C13.2959 34.9018 13.2325 34.8429 13.169 34.784C13.1056 34.7206 13.049 34.6731 12.9992 34.6414C13.203 34.5326 13.4069 34.4058 13.6107 34.2608C13.8191 34.1114 14.0161 33.9551 14.2019 33.792C14.3876 33.6244 14.5461 33.4568 14.6775 33.2892ZM15.0308 34.4851C15.3434 35.2461 15.8394 35.8644 16.5189 36.3401C17.1984 36.8112 18.0545 37.1305 19.0873 37.2981C19.0466 37.3389 18.999 37.3933 18.9447 37.4612C18.8948 37.5337 18.8473 37.6062 18.802 37.6787C18.7567 37.7511 18.7204 37.8168 18.6932 37.8757C17.973 37.7398 17.3411 37.5337 16.7975 37.2574C16.2584 36.9765 15.7941 36.6209 15.4045 36.1906C15.0195 35.7602 14.7024 35.2529 14.4533 34.6685L15.0308 34.4851ZM13.006 32.5146H18.9311V33.1397H13.006V32.5146ZM16.7092 33.6357L17.2188 33.2688C17.4181 33.4047 17.6287 33.5587 17.8507 33.7308C18.0772 33.903 18.2901 34.0751 18.4894 34.2473C18.6887 34.4194 18.8495 34.5779 18.9718 34.7229L18.4282 35.1442C18.315 34.9992 18.1632 34.8384 17.973 34.6617C17.7827 34.4805 17.5766 34.3016 17.3547 34.1249C17.1327 33.9437 16.9175 33.7807 16.7092 33.6357ZM15.3638 31.7467L15.9753 31.5361C16.0704 31.6765 16.1656 31.8328 16.2607 32.005C16.3558 32.1771 16.426 32.3243 16.4713 32.4466L15.8326 32.6912C15.7918 32.5644 15.7262 32.4126 15.6356 32.236C15.5495 32.0593 15.4589 31.8962 15.3638 31.7467ZM23.1439 32.8271L23.5516 32.4738C23.7645 32.5508 23.9932 32.6391 24.2378 32.7388C24.4825 32.8385 24.7157 32.9404 24.9377 33.0446C25.1642 33.1488 25.3545 33.2461 25.5085 33.3367L25.0736 33.7308C24.9332 33.6448 24.752 33.5474 24.53 33.4387C24.3126 33.3299 24.0816 33.2212 23.8369 33.1125C23.5969 33.0038 23.3658 32.9087 23.1439 32.8271ZM22.4984 33.3164H25.9501V33.792H23.0759V36.8225H22.4984V33.3164ZM25.7259 33.3164H26.3035V36.2585C26.3035 36.399 26.2854 36.5054 26.2491 36.5779C26.2174 36.6504 26.154 36.7093 26.0589 36.7546C25.9683 36.7953 25.8482 36.8202 25.6987 36.8293C25.5538 36.8384 25.3726 36.8429 25.1551 36.8429C25.1461 36.7659 25.1257 36.6821 25.094 36.5915C25.0623 36.5009 25.0283 36.4216 24.9921 36.3537C25.1325 36.3582 25.2616 36.3604 25.3794 36.3604C25.4972 36.3604 25.5764 36.3604 25.6172 36.3604C25.658 36.3559 25.6851 36.3469 25.6987 36.3333C25.7169 36.3197 25.7259 36.2925 25.7259 36.2517V33.3164ZM22.5391 31.8691L25.8618 31.8691V32.3515H22.5391V31.8691ZM22.8449 34.2948H25.923V34.7569H22.8449V34.2948ZM22.8449 35.2733H25.923V35.7557H22.8449V35.2733ZM24.0952 33.527H24.6523V36.8089H24.0952V33.527ZM25.6444 31.8691H25.7871L25.9162 31.8351L26.3035 32.1408C26.1495 32.2858 25.9751 32.4308 25.7803 32.5757C25.5855 32.7207 25.3816 32.8566 25.1687 32.9834C24.9558 33.1057 24.7452 33.2144 24.5368 33.3096C24.496 33.2507 24.4417 33.185 24.3737 33.1125C24.3103 33.04 24.2537 32.9834 24.2039 32.9426C24.3851 32.8611 24.5663 32.766 24.7475 32.6573C24.9332 32.5485 25.1053 32.4353 25.2639 32.3175C25.4224 32.1997 25.5493 32.0888 25.6444 31.9846V31.8691ZM20.5754 31.903L21.0511 31.6108C21.1598 31.7196 21.2685 31.8373 21.3772 31.9642C21.4905 32.091 21.5969 32.2133 21.6966 32.3311C21.7962 32.4489 21.8778 32.5531 21.9412 32.6437L21.452 32.997C21.3885 32.9019 21.307 32.7909 21.2073 32.6641C21.1122 32.5372 21.008 32.4081 20.8948 32.2767C20.7861 32.1408 20.6796 32.0163 20.5754 31.903ZM20.358 33.1873H21.8257V33.7105H20.358V33.1873ZM21.649 36.2313C21.7804 36.5303 21.9616 36.7523 22.1926 36.8972C22.4236 37.0422 22.7045 37.1373 23.0352 37.1826C23.3704 37.2279 23.7531 37.2506 24.1835 37.2506C24.4236 37.2506 24.6908 37.246 24.9853 37.237C25.2797 37.2279 25.5764 37.2166 25.8754 37.203C26.1744 37.1894 26.4439 37.1713 26.684 37.1487C26.6523 37.194 26.6228 37.2528 26.5957 37.3253C26.5685 37.3978 26.5436 37.4725 26.5209 37.5495C26.5028 37.6266 26.4869 37.6945 26.4734 37.7534C26.2514 37.767 26.0113 37.7783 25.7531 37.7874C25.4949 37.7964 25.2322 37.8032 24.9649 37.8078C24.6976 37.8123 24.4349 37.8145 24.1767 37.8145C23.7781 37.8145 23.4225 37.7964 23.1099 37.7602C22.8019 37.7239 22.5278 37.6583 22.2877 37.5631C22.0522 37.468 21.8461 37.3298 21.6694 37.1487C21.4927 36.9629 21.341 36.7183 21.2141 36.4148L21.649 36.2313ZM21.6218 34.8588H21.7781L21.88 34.8452L22.1926 34.9607C22.0793 35.6991 21.8868 36.3152 21.615 36.8089C21.3432 37.2981 21.0148 37.6719 20.6298 37.9301C20.6026 37.8848 20.5641 37.8327 20.5143 37.7738C20.4644 37.7194 20.4123 37.6651 20.358 37.6107C20.3036 37.5609 20.2538 37.5224 20.2085 37.4952C20.5754 37.2687 20.8812 36.9425 21.1258 36.5167C21.3704 36.0909 21.5358 35.5745 21.6218 34.9675V34.8588ZM20.4667 35.4703V34.9947L20.7317 34.8588H21.8189V35.3684H20.8812C20.7951 35.3684 20.7113 35.3797 20.6298 35.4024C20.5482 35.4205 20.4939 35.4431 20.4667 35.4703ZM20.4667 35.4703C20.4576 35.4205 20.4373 35.3616 20.4055 35.2937C20.3784 35.2257 20.3512 35.1578 20.324 35.0898C20.2968 35.0173 20.2719 34.9607 20.2493 34.9199C20.3036 34.9064 20.358 34.886 20.4123 34.8588C20.4667 34.8271 20.5256 34.7772 20.589 34.7093C20.6434 34.6595 20.7181 34.5734 20.8132 34.4511C20.9084 34.3288 21.0103 34.1929 21.119 34.0434C21.2323 33.8894 21.3364 33.7422 21.4316 33.6017C21.5312 33.4568 21.6105 33.339 21.6694 33.2484V33.228L21.8529 33.1533L22.2537 33.3367C22.1722 33.4545 22.0748 33.5927 21.9616 33.7512C21.8529 33.9052 21.7373 34.0661 21.615 34.2337C21.4927 34.3967 21.3704 34.5553 21.2481 34.7093C21.1303 34.8588 21.0216 34.9879 20.922 35.0966C20.922 35.0966 20.8993 35.1102 20.854 35.1374C20.8087 35.16 20.7544 35.1917 20.6909 35.2325C20.632 35.2687 20.5799 35.3095 20.5347 35.3548C20.4894 35.3956 20.4667 35.4341 20.4667 35.4703ZM33.5332 34.818L34.0224 35.151C33.8775 35.3231 33.7348 35.502 33.5944 35.6878C33.4585 35.869 33.3294 36.023 33.207 36.1498L32.8537 35.8848C32.9262 35.7897 33.0055 35.681 33.0915 35.5587C33.1776 35.4318 33.2591 35.3027 33.3361 35.1714C33.4177 35.04 33.4834 34.9222 33.5332 34.818ZM31.8073 31.6108H32.3781V33.0717H31.8073V31.6108ZM32.1199 34.4375H32.6906C32.6725 34.8407 32.6408 35.2189 32.5955 35.5722C32.5502 35.921 32.4732 36.2427 32.3645 36.5371C32.2603 36.827 32.1085 37.0875 31.9092 37.3185C31.7099 37.5495 31.4472 37.7466 31.121 37.9097C31.0893 37.8372 31.0372 37.7557 30.9647 37.6651C30.8923 37.5745 30.8221 37.502 30.7541 37.4476C31.0486 37.3117 31.2818 37.1441 31.454 36.9448C31.6306 36.7455 31.7643 36.519 31.8549 36.2653C31.9455 36.0116 32.0089 35.7331 32.0451 35.4296C32.0814 35.1215 32.1063 34.7908 32.1199 34.4375ZM32.5751 35.3956C32.6567 35.6855 32.7676 35.9618 32.9081 36.2246C33.0485 36.4873 33.2138 36.7206 33.4041 36.9244C33.5944 37.1283 33.8095 37.2891 34.0496 37.4069C33.9862 37.4612 33.9182 37.5337 33.8458 37.6243C33.7733 37.7149 33.7144 37.7987 33.6691 37.8757C33.4154 37.7217 33.1889 37.5269 32.9896 37.2913C32.7903 37.0513 32.6182 36.7795 32.4732 36.476C32.3282 36.1679 32.2105 35.8418 32.1199 35.4975L32.5751 35.3956ZM30.5639 33.6425H34.002V34.1861H30.5639V33.6425ZM30.3328 33.6425H30.8968V34.9947C30.8968 35.2076 30.8877 35.4409 30.8696 35.6946C30.856 35.9482 30.8266 36.2087 30.7813 36.476C30.7405 36.7387 30.6794 36.9946 30.5978 37.2438C30.5208 37.4929 30.4166 37.7194 30.2853 37.9233C30.2536 37.8916 30.206 37.8553 30.1426 37.8145C30.0837 37.7738 30.0225 37.733 29.9591 37.6922C29.8957 37.6515 29.8391 37.622 29.7892 37.6039C29.9523 37.3457 30.0724 37.0626 30.1494 36.7546C30.2264 36.4465 30.2762 36.1385 30.2989 35.8305C30.3215 35.5224 30.3328 35.2416 30.3328 34.9879V33.6425ZM30.8424 35.083L31.2501 34.8452C31.3226 34.9584 31.3974 35.083 31.4744 35.2189C31.5559 35.3503 31.6306 35.4771 31.6986 35.5994C31.7711 35.7217 31.83 35.8282 31.8753 35.9188L31.4404 36.2042C31.4041 36.1045 31.3521 35.9913 31.2841 35.8644C31.2162 35.7331 31.1437 35.5994 31.0667 35.4635C30.9897 35.3231 30.9149 35.1963 30.8424 35.083ZM30.4347 31.8215H31.0123V32.7252H33.2003V31.8215H33.8118V33.2552H30.4347V31.8215ZM27.8459 31.9438H30.1494V32.5282H27.8459V31.9438ZM28.5526 34.0502H29.9795V37.0739H28.5526V36.5031H29.4971V34.6142H28.5526V34.0502ZM28.6817 32.2428L29.2728 32.3719C29.1913 32.7977 29.0894 33.219 28.9671 33.6357C28.8493 34.0525 28.7066 34.442 28.539 34.8044C28.3714 35.1668 28.1766 35.4839 27.9546 35.7557C27.9456 35.7013 27.9252 35.6289 27.8935 35.5383C27.8663 35.4431 27.8346 35.3503 27.7983 35.2597C27.7666 35.1646 27.7327 35.0875 27.6964 35.0287C27.9501 34.6889 28.1562 34.2767 28.3148 33.792C28.4733 33.3028 28.5956 32.7864 28.6817 32.2428ZM28.2808 34.0502H28.8108V37.6039H28.2808L28.2808 34.0502ZM38.5002 31.6041H39.0846V34.4851C39.0846 34.8248 39.0687 35.1555 39.037 35.4771C39.0099 35.7987 38.9487 36.1068 38.8536 36.4012C38.7584 36.6911 38.6203 36.9652 38.4391 37.2234C38.2624 37.4771 38.0201 37.7104 37.712 37.9233C37.6803 37.878 37.635 37.8281 37.5761 37.7738C37.5218 37.7194 37.4674 37.6673 37.4131 37.6175C37.3587 37.5677 37.3066 37.5269 37.2568 37.4952C37.5331 37.3095 37.7551 37.1034 37.9227 36.8769C38.0903 36.6504 38.2149 36.4103 38.2964 36.1566C38.3779 35.9029 38.4323 35.6357 38.4595 35.3548C38.4866 35.074 38.5002 34.784 38.5002 34.4851V31.6041ZM39.6893 31.6041H40.2941V37.9097H39.6893V31.6041ZM37.4334 32.7456H38.7584V33.3299H37.4334V32.7456ZM40.0087 32.7456H41.4356V33.3299H40.0087V32.7456ZM40.0427 34.1793H41.3609V34.7433H40.0427V34.1793ZM40.0019 35.647H41.5511V36.2381H40.0019V35.647ZM37.4878 34.1793H38.7788V34.7433H37.4878V34.1793ZM37.0869 35.9392C37.2817 35.8893 37.5082 35.8237 37.7664 35.7421C38.0291 35.6606 38.2987 35.5768 38.575 35.4907L38.6701 35.9935C38.4391 36.0796 38.2081 36.1657 37.977 36.2517C37.7505 36.3378 37.5354 36.4193 37.3315 36.4963L37.0869 35.9392ZM35.1708 35.0898C35.438 35.0173 35.7596 34.929 36.1356 34.8248C36.5116 34.7161 36.8921 34.6028 37.2772 34.4851L37.3587 35.0694C37.0099 35.1827 36.6566 35.2959 36.2987 35.4092C35.9408 35.5179 35.6147 35.6175 35.3202 35.7081L35.1708 35.0898ZM35.2727 32.9426L37.3383 32.9426V33.5406L35.2727 33.5406V32.9426ZM36.0609 31.6176H36.6588V37.2098C36.6588 37.3684 36.6407 37.4929 36.6045 37.5835C36.5682 37.6741 36.5026 37.7466 36.4074 37.801C36.3168 37.8508 36.199 37.8825 36.0541 37.8961C35.9137 37.9142 35.7325 37.9233 35.5105 37.9233C35.506 37.8417 35.4856 37.7421 35.4493 37.6243C35.4176 37.511 35.3814 37.4114 35.3406 37.3253C35.4765 37.3298 35.6011 37.3321 35.7143 37.3321C35.8276 37.3321 35.9046 37.3298 35.9454 37.3253C35.9861 37.3253 36.0156 37.3185 36.0337 37.3049C36.0518 37.2868 36.0609 37.2551 36.0609 37.2098V31.6176ZM43.8342 31.74L44.3982 31.5905C44.4661 31.7354 44.5318 31.894 44.5952 32.0661C44.6632 32.2337 44.7153 32.3764 44.7515 32.4942L44.1603 32.6776C44.1332 32.5508 44.0856 32.3991 44.0177 32.2224C43.9542 32.0457 43.8931 31.8849 43.8342 31.74ZM42.7606 32.6844H45.7707V33.2824H42.7606V32.6844ZM43.875 34.0842H45.1116V34.6685H43.875V34.0842ZM44.8942 34.0842H45.5057C45.5057 34.0842 45.5057 34.1023 45.5057 34.1385C45.5057 34.1702 45.5057 34.2087 45.5057 34.254C45.5057 34.2948 45.5035 34.3288 45.4989 34.356C45.4899 34.9086 45.4785 35.3775 45.465 35.7625C45.4559 36.1475 45.4423 36.4646 45.4242 36.7138C45.4061 36.9584 45.3812 37.1509 45.3494 37.2913C45.3223 37.4272 45.286 37.5269 45.2407 37.5903C45.1818 37.6719 45.1184 37.7307 45.0505 37.767C44.9871 37.8032 44.9078 37.8281 44.8127 37.8417C44.7311 37.8553 44.6247 37.8621 44.4933 37.8621C44.3619 37.8666 44.2238 37.8644 44.0788 37.8553C44.0697 37.7692 44.0516 37.6696 44.0244 37.5563C43.9973 37.4431 43.961 37.3457 43.9157 37.2642C44.038 37.2778 44.1513 37.2868 44.2555 37.2913C44.3642 37.2913 44.4457 37.2913 44.5001 37.2913C44.5454 37.2913 44.5839 37.2845 44.6156 37.271C44.6473 37.2574 44.6768 37.2325 44.7039 37.1962C44.7311 37.1554 44.7538 37.0762 44.7719 36.9584C44.7945 36.8361 44.8127 36.6617 44.8262 36.4352C44.8398 36.2042 44.8512 35.9075 44.8602 35.5451C44.8738 35.1781 44.8851 34.732 44.8942 34.2065V34.0842ZM46.457 32.8611H49.039V33.459H46.457V32.8611ZM46.5725 31.6041L47.2316 31.7128C47.1501 32.1567 47.0482 32.5893 46.9259 33.0106C46.8035 33.4319 46.6609 33.8237 46.4978 34.1861C46.3347 34.5485 46.1467 34.8656 45.9338 35.1374C45.9021 35.0921 45.8568 35.0377 45.7979 34.9743C45.739 34.9109 45.6779 34.8475 45.6144 34.784C45.551 34.7206 45.4944 34.6708 45.4446 34.6346C45.6394 34.399 45.807 34.1204 45.9474 33.7988C46.0923 33.4772 46.2169 33.1306 46.3211 32.7592C46.4253 32.3832 46.5091 31.9982 46.5725 31.6041ZM47.9315 33.2076L48.5634 33.2756C48.4502 34.0457 48.2848 34.7274 48.0674 35.3208C47.85 35.9097 47.5555 36.4193 47.1841 36.8497C46.8171 37.28 46.3483 37.6424 45.7775 37.9369C45.7594 37.887 45.7277 37.8259 45.6824 37.7534C45.6416 37.6809 45.5963 37.6107 45.5465 37.5428C45.4967 37.4748 45.4514 37.4182 45.4106 37.3729C45.9451 37.1283 46.38 36.8157 46.7152 36.4352C47.055 36.0502 47.32 35.5904 47.5102 35.0558C47.7005 34.5168 47.8409 33.9007 47.9315 33.2076ZM46.7424 33.3775C46.8511 33.9845 47.0006 34.5508 47.1909 35.0762C47.3856 35.5972 47.6393 36.0524 47.9519 36.442C48.269 36.8316 48.654 37.1305 49.107 37.3389C49.0617 37.3842 49.0096 37.4386 48.9507 37.502C48.8964 37.5654 48.842 37.6311 48.7876 37.699C48.7378 37.7715 48.697 37.8372 48.6653 37.8961C48.1806 37.6424 47.7752 37.3004 47.4491 36.8701C47.1274 36.4397 46.867 35.9369 46.6676 35.3616C46.4683 34.7863 46.3075 34.1567 46.1852 33.4726L46.7424 33.3775ZM43.5012 32.9902H44.1128V34.6617C44.1128 35.0332 44.0879 35.4069 44.038 35.7829C43.9927 36.1589 43.8976 36.5258 43.7527 36.8837C43.6077 37.2415 43.3857 37.579 43.0868 37.8961C43.0324 37.8281 42.9599 37.7557 42.8693 37.6787C42.7787 37.6016 42.6927 37.536 42.6111 37.4816C42.8784 37.1917 43.0732 36.8882 43.1955 36.5711C43.3223 36.2495 43.4039 35.9256 43.4401 35.5994C43.4809 35.2733 43.5012 34.9584 43.5012 34.6549V32.9902Z" fill="#424242"/>
<rect x="114.407" y="0.472555" width="28.3205" height="15.4743" rx="7.73717" stroke="#424242" stroke-width="0.679485" stroke-dasharray="1.36 1.36"/>
<path d="M121.651 7.53297H123.697V8.03579H121.651V7.53297ZM121.651 8.44348H123.71V8.9395H121.651V8.44348ZM121.359 6.61566H123.982V7.13207H121.359V6.61566ZM121.93 9.36078H123.697V11.3857H121.93V10.8557H123.139V9.88399H121.93V9.36078ZM121.651 9.36078H122.202V11.6914H121.651V9.36078ZM122.079 5.69157L122.575 5.44016C122.675 5.58058 122.773 5.7346 122.868 5.90221C122.963 6.06528 123.038 6.21024 123.092 6.33708L122.575 6.62246C122.521 6.50015 122.446 6.35067 122.351 6.174C122.261 5.9928 122.17 5.83199 122.079 5.69157ZM124.634 5.70515H126.415V6.3031L124.634 6.3031V5.70515ZM123.894 8.45027H126.883V9.05502H123.894V8.45027ZM126.659 8.45027H126.781L126.89 8.42989L127.291 8.59976C127.164 9.04369 126.992 9.44006 126.775 9.78886C126.557 10.1331 126.304 10.4344 126.014 10.6926C125.728 10.9508 125.411 11.1682 125.062 11.3449C124.718 11.5215 124.351 11.6665 123.962 11.7798C123.944 11.7209 123.916 11.6552 123.88 11.5827C123.844 11.5102 123.803 11.44 123.758 11.3721C123.717 11.3041 123.676 11.2475 123.635 11.2022C123.989 11.1207 124.324 11.0051 124.641 10.8557C124.958 10.7016 125.25 10.5136 125.518 10.2917C125.785 10.0697 126.016 9.81377 126.211 9.52386C126.406 9.23395 126.555 8.91006 126.659 8.5522V8.45027ZM124.689 8.98707C124.856 9.35399 125.081 9.68467 125.361 9.97912C125.647 10.269 125.982 10.5159 126.367 10.7198C126.757 10.9236 127.187 11.0754 127.658 11.175C127.613 11.2203 127.565 11.2769 127.515 11.3449C127.466 11.4174 127.418 11.4898 127.373 11.5623C127.327 11.6348 127.289 11.7005 127.257 11.7594C126.519 11.5736 125.889 11.2611 125.368 10.8217C124.852 10.3823 124.442 9.83416 124.138 9.17732L124.689 8.98707ZM124.512 5.70515L125.103 5.70515V6.46618C125.103 6.67908 125.076 6.89878 125.022 7.12528C124.972 7.34724 124.874 7.56241 124.729 7.77079C124.584 7.97917 124.372 8.16263 124.091 8.32117C124.064 8.27587 124.023 8.22378 123.968 8.16489C123.919 8.10147 123.866 8.04032 123.812 7.98143C123.758 7.92254 123.712 7.87951 123.676 7.85233C123.921 7.71643 124.102 7.57147 124.22 7.41746C124.342 7.25891 124.421 7.0981 124.458 6.93502C124.494 6.76742 124.512 6.60661 124.512 6.45259V5.70515ZM126.102 5.70515H126.693V7.24759C126.693 7.34271 126.698 7.41066 126.707 7.45143C126.72 7.4922 126.75 7.51259 126.795 7.51259C126.818 7.51259 126.852 7.51259 126.897 7.51259C126.947 7.51259 126.994 7.51259 127.04 7.51259C127.09 7.51259 127.123 7.51259 127.142 7.51259C127.187 7.51259 127.239 7.51032 127.298 7.50579C127.361 7.49673 127.413 7.48541 127.454 7.47182C127.463 7.55335 127.47 7.64622 127.475 7.75041C127.479 7.85459 127.488 7.94293 127.502 8.0154C127.461 8.03352 127.409 8.04485 127.345 8.04938C127.282 8.05391 127.216 8.05617 127.148 8.05617C127.121 8.05617 127.08 8.05617 127.026 8.05617C126.972 8.05617 126.917 8.05617 126.863 8.05617C126.809 8.05617 126.768 8.05617 126.741 8.05617C126.56 8.05617 126.424 8.02899 126.333 7.97464C126.242 7.92028 126.181 7.83421 126.15 7.71643C126.118 7.59412 126.102 7.43331 126.102 7.234V5.70515ZM130.009 7.56694H133.889V8.17848H130.009V7.56694ZM131.939 9.16373H134.229V9.76848H131.939V9.16373ZM131.599 7.87951H132.265V11.2498L131.599 11.1614L131.599 7.87951ZM130.002 8.63374L130.655 8.69489C130.559 9.38343 130.403 9.98818 130.186 10.5091C129.968 11.0301 129.665 11.4581 129.275 11.7933C129.243 11.7571 129.196 11.7095 129.133 11.6506C129.069 11.5963 129.003 11.5419 128.935 11.4876C128.868 11.4377 128.809 11.397 128.759 11.3653C129.135 11.0799 129.418 10.7039 129.608 10.2373C129.803 9.77074 129.934 9.23621 130.002 8.63374ZM130.471 9.48989C130.584 9.82057 130.729 10.0878 130.906 10.2917C131.087 10.4955 131.298 10.6518 131.538 10.7605C131.778 10.8647 132.041 10.9372 132.326 10.978C132.611 11.0142 132.917 11.0323 133.243 11.0323C133.302 11.0323 133.391 11.0323 133.508 11.0323C133.631 11.0323 133.764 11.0323 133.909 11.0323C134.059 11.0323 134.208 11.0323 134.358 11.0323C134.512 11.0323 134.652 11.0323 134.779 11.0323C134.91 11.0278 135.015 11.0255 135.092 11.0255C135.06 11.0754 135.026 11.1388 134.99 11.2158C134.958 11.2928 134.931 11.3721 134.908 11.4536C134.885 11.5397 134.867 11.6144 134.854 11.6778H134.514H133.209C132.811 11.6778 132.442 11.6506 132.102 11.5963C131.767 11.5419 131.463 11.4445 131.191 11.3041C130.924 11.1637 130.684 10.9621 130.471 10.6994C130.263 10.4366 130.086 10.0946 129.941 9.67335L130.471 9.48989ZM129.065 6.21477H134.813V7.80476H134.154V6.82631H129.696V7.80476H129.065V6.21477ZM131.382 5.59644L132.02 5.41298C132.102 5.54887 132.181 5.70063 132.258 5.86823C132.335 6.03131 132.39 6.174 132.421 6.29631L131.749 6.50015C131.721 6.38238 131.674 6.23742 131.606 6.06528C131.538 5.89315 131.463 5.73686 131.382 5.59644Z" fill="#424242"/>
<rect x="68.1538" y="26.6132" width="50.3205" height="15.4705" rx="7.73526" stroke="#424242" stroke-width="0.679485"/>
<path d="M77.6543 33.5357H80.5557V34.1201H77.6543V33.5357ZM77.3554 33.5357H77.9533V35.5198C77.9533 35.769 77.942 36.043 77.9193 36.342C77.9012 36.6365 77.8604 36.9241 77.797 37.205C77.7336 37.4858 77.634 37.7372 77.4981 37.9592C77.4663 37.923 77.4188 37.8799 77.3554 37.8301C77.2965 37.7848 77.2331 37.7395 77.1651 37.6942C77.1017 37.6489 77.0473 37.6149 77.002 37.5923C77.1107 37.3975 77.19 37.1823 77.2398 36.9468C77.2942 36.7067 77.3259 36.4643 77.335 36.2197C77.3486 35.9706 77.3554 35.735 77.3554 35.513V33.5357ZM78.0009 36.0363C78.2092 35.9955 78.4493 35.9457 78.7211 35.8868C78.9929 35.8279 79.2783 35.7645 79.5773 35.6965C79.8808 35.624 80.1843 35.5538 80.4878 35.4859L80.5489 35.9887C80.1413 36.0974 79.7313 36.2039 79.3191 36.308C78.9114 36.4077 78.5399 36.4983 78.2047 36.5798L78.0009 36.0363ZM78.1096 34.8811L78.3678 34.4802C78.558 34.5165 78.7574 34.5663 78.9657 34.6297C79.1741 34.6931 79.3734 34.7611 79.5637 34.8336C79.7539 34.9015 79.9102 34.9695 80.0325 35.0374L79.7675 35.4859C79.6452 35.4179 79.4889 35.3454 79.2987 35.2684C79.113 35.1914 78.9159 35.1189 78.7075 35.051C78.4992 34.9785 78.2998 34.9219 78.1096 34.8811ZM80.6101 31.7827L81.2352 32.0205C81.122 32.2515 80.9997 32.4825 80.8683 32.7136C80.7369 32.9401 80.6146 33.1371 80.5014 33.3047L79.9442 33.0805C80.0212 32.9627 80.1005 32.8313 80.182 32.6864C80.2636 32.5369 80.3428 32.3829 80.4198 32.2243C80.4968 32.0658 80.5603 31.9186 80.6101 31.7827ZM77.1787 32.0681L77.7223 31.8302C77.8129 31.9525 77.9057 32.0884 78.0009 32.2379C78.096 32.3874 78.1798 32.5346 78.2523 32.6796C78.3248 32.82 78.3791 32.9491 78.4154 33.0669L77.831 33.3455C77.7993 33.2277 77.7495 33.0963 77.6815 32.9514C77.6136 32.8019 77.5366 32.6501 77.4505 32.4961C77.3644 32.3421 77.2738 32.1994 77.1787 32.0681ZM80.3587 33.5357H80.9838V37.1778C80.9838 37.3409 80.9634 37.47 80.9227 37.5651C80.8864 37.6602 80.8094 37.735 80.6916 37.7893C80.5829 37.8392 80.438 37.8686 80.2568 37.8777C80.0756 37.8867 79.8559 37.8912 79.5977 37.8912C79.5886 37.8097 79.5637 37.7078 79.5229 37.5855C79.4867 37.4677 79.4459 37.368 79.4006 37.2865C79.5773 37.291 79.7449 37.2956 79.9034 37.3001C80.062 37.3001 80.1684 37.3001 80.2228 37.3001C80.3134 37.2956 80.3587 37.2525 80.3587 37.171V33.5357ZM78.8638 31.606H79.5161V33.9231H78.8638V31.606ZM75.4052 32.1564L75.7858 31.7079C75.9171 31.7804 76.0598 31.8619 76.2138 31.9525C76.3724 32.0386 76.5241 32.1247 76.6691 32.2107C76.814 32.2968 76.9341 32.3738 77.0292 32.4418L76.6351 32.9582C76.549 32.8857 76.4335 32.8042 76.2886 32.7136C76.1481 32.6184 75.9987 32.5233 75.8401 32.4282C75.6861 32.3285 75.5411 32.2379 75.4052 32.1564ZM75.0247 34.0318L75.3781 33.5629C75.5094 33.6218 75.6544 33.6943 75.8129 33.7804C75.9715 33.8619 76.1255 33.9434 76.275 34.025C76.429 34.102 76.5536 34.1745 76.6487 34.2424L76.2886 34.7724C76.198 34.7045 76.0779 34.6275 75.9284 34.5414C75.7835 34.4553 75.6317 34.367 75.4732 34.2764C75.3146 34.1858 75.1652 34.1042 75.0247 34.0318ZM75.2558 37.402C75.3781 37.2299 75.514 37.0238 75.6634 36.7837C75.8175 36.5436 75.9715 36.2899 76.1255 36.0227C76.2795 35.7509 76.4222 35.4859 76.5536 35.2277L77.0224 35.6557C76.9046 35.8913 76.7755 36.1382 76.6351 36.3964C76.4992 36.6501 76.3588 36.8992 76.2138 37.1438C76.0734 37.3884 75.9352 37.6195 75.7993 37.8369L75.2558 37.402ZM83.4843 32.6864H87.6564V32.3534H83.0155V31.9525L88.2475 31.9525V33.0873H83.4843V32.6864ZM83.2941 32.6864H83.8648C83.8376 32.8857 83.8082 33.0918 83.7765 33.3047C83.7448 33.5131 83.7108 33.6943 83.6746 33.8483H83.1106C83.1468 33.6852 83.1808 33.4995 83.2125 33.2911C83.2488 33.0782 83.2759 32.8766 83.2941 32.6864ZM83.3756 33.4474H88.2747V33.8483H83.2533L83.3756 33.4474ZM88.0708 33.4474H88.6756C88.6756 33.4474 88.6733 33.4701 88.6688 33.5154C88.6688 33.5607 88.6665 33.5992 88.662 33.6309C88.6439 33.8302 88.6212 33.9865 88.594 34.0997C88.5714 34.213 88.5329 34.2968 88.4785 34.3511C88.4332 34.3964 88.3789 34.4304 88.3155 34.453C88.2566 34.4757 88.1931 34.4893 88.1252 34.4938C88.0618 34.4938 87.9734 34.4938 87.8602 34.4938C87.7515 34.4938 87.6337 34.4916 87.5069 34.487C87.5023 34.4281 87.4887 34.3602 87.4661 34.2832C87.4434 34.2062 87.4185 34.1405 87.3914 34.0861C87.4865 34.0952 87.5726 34.102 87.6496 34.1065C87.7266 34.111 87.7832 34.111 87.8194 34.1065C87.8557 34.1065 87.8851 34.1042 87.9078 34.0997C87.9304 34.0952 87.9508 34.0839 87.9689 34.0657C87.9961 34.0386 88.0165 33.9842 88.0301 33.9027C88.0482 33.8166 88.0618 33.6875 88.0708 33.5154V33.4474ZM84.6326 31.6128H85.217V32.9174C85.217 33.1484 85.1898 33.3659 85.1355 33.5697C85.0811 33.7736 84.9747 33.9616 84.8161 34.1337C84.6621 34.3013 84.4333 34.4508 84.1298 34.5822C83.8263 34.7135 83.4254 34.8245 82.9271 34.9151C82.9135 34.8653 82.8886 34.8109 82.8524 34.752C82.8162 34.6886 82.7777 34.6275 82.7369 34.5686C82.7006 34.5051 82.6644 34.453 82.6282 34.4123C83.0721 34.3398 83.4254 34.2537 83.6882 34.1541C83.9554 34.0499 84.157 33.9344 84.2929 33.8075C84.4288 33.6762 84.5194 33.5357 84.5647 33.3863C84.61 33.2368 84.6326 33.076 84.6326 32.9038V31.6128ZM86.1479 31.6128L86.7526 31.6128V34.3036H86.1479V31.6128ZM84.123 35.4179V35.7713H87.3234V35.4179H84.123ZM84.123 36.145V36.5051H87.3234V36.145H84.123ZM84.123 34.6977V35.051H87.3234V34.6977H84.123ZM83.4979 34.3104H87.9757V36.8924H83.4979V34.3104ZM86.2566 37.1506L86.6303 36.7769C86.884 36.8539 87.1377 36.9354 87.3914 37.0215C87.6496 37.1076 87.8942 37.1936 88.1252 37.2797C88.3562 37.3612 88.5533 37.4383 88.7164 37.5107L88.2407 37.9048C88.0912 37.8324 87.91 37.7508 87.6971 37.6602C87.4842 37.5742 87.2532 37.4858 87.004 37.3952C86.7594 37.3092 86.5103 37.2276 86.2566 37.1506ZM84.6259 36.8516L85.2034 37.1166C85.0177 37.2208 84.8025 37.3227 84.5579 37.4224C84.3178 37.5266 84.0687 37.6217 83.8105 37.7078C83.5568 37.7939 83.3144 37.8663 83.0834 37.9252C83.0517 37.8799 83.0064 37.8278 82.9475 37.7689C82.8932 37.71 82.8365 37.6512 82.7777 37.5923C82.7188 37.5379 82.6667 37.4926 82.6214 37.4564C82.8569 37.4111 83.0993 37.359 83.3484 37.3001C83.5976 37.2367 83.8331 37.1687 84.0551 37.0962C84.277 37.0192 84.4673 36.9377 84.6259 36.8516ZM95.7694 34.82L96.2586 35.1529C96.1137 35.3251 95.971 35.504 95.8306 35.6897C95.6947 35.8709 95.5656 36.0249 95.4433 36.1518L95.0899 35.8868C95.1624 35.7916 95.2417 35.6829 95.3277 35.5606C95.4138 35.4338 95.4953 35.3047 95.5724 35.1733C95.6539 35.0419 95.7196 34.9242 95.7694 34.82ZM94.0435 31.6128H94.6143V33.0737H94.0435V31.6128ZM94.3561 34.4395H94.9268C94.9087 34.8426 94.877 35.2209 94.8317 35.5742C94.7864 35.923 94.7094 36.2446 94.6007 36.5391C94.4965 36.829 94.3448 37.0895 94.1454 37.3205C93.9461 37.5515 93.6834 37.7486 93.3572 37.9116C93.3255 37.8392 93.2734 37.7576 93.201 37.667C93.1285 37.5764 93.0583 37.5039 92.9903 37.4496C93.2848 37.3137 93.518 37.1461 93.6902 36.9468C93.8668 36.7474 94.0005 36.5209 94.0911 36.2673C94.1817 36.0136 94.2451 35.735 94.2813 35.4315C94.3176 35.1235 94.3425 34.7928 94.3561 34.4395ZM94.8113 35.3975C94.8929 35.6874 95.0039 35.9638 95.1443 36.2265C95.2847 36.4892 95.45 36.7225 95.6403 36.9264C95.8306 37.1302 96.0457 37.291 96.2858 37.4088C96.2224 37.4632 96.1544 37.5356 96.082 37.6262C96.0095 37.7168 95.9506 37.8006 95.9053 37.8777C95.6516 37.7236 95.4251 37.5289 95.2258 37.2933C95.0265 37.0532 94.8544 36.7814 94.7094 36.4779C94.5645 36.1699 94.4467 35.8437 94.3561 35.4995L94.8113 35.3975ZM92.8001 33.6445H96.2383V34.1881H92.8001V33.6445ZM92.569 33.6445H93.133V34.9966C93.133 35.2095 93.1239 35.4428 93.1058 35.6965C93.0922 35.9502 93.0628 36.2107 93.0175 36.4779C92.9767 36.7406 92.9156 36.9966 92.834 37.2457C92.757 37.4949 92.6528 37.7214 92.5215 37.9252C92.4898 37.8935 92.4422 37.8573 92.3788 37.8165C92.3199 37.7757 92.2587 37.735 92.1953 37.6942C92.1319 37.6534 92.0753 37.624 92.0254 37.6059C92.1885 37.3477 92.3086 37.0645 92.3856 36.7565C92.4626 36.4485 92.5124 36.1404 92.5351 35.8324C92.5577 35.5244 92.569 35.2435 92.569 34.9898V33.6445ZM93.0786 35.085L93.4863 34.8472C93.5588 34.9604 93.6336 35.085 93.7106 35.2209C93.7921 35.3522 93.8668 35.4791 93.9348 35.6014C94.0073 35.7237 94.0662 35.8301 94.1115 35.9207L93.6766 36.2061C93.6404 36.1065 93.5883 35.9932 93.5203 35.8664C93.4524 35.735 93.3799 35.6014 93.3029 35.4655C93.2259 35.3251 93.1511 35.1982 93.0786 35.085ZM92.671 31.8234H93.2485V32.7272H95.4365V31.8234H96.048V33.2572H92.671V31.8234ZM90.0821 31.9457H92.3856V32.5301H90.0821V31.9457ZM90.7888 34.0522H92.2157V37.0759H90.7888V36.5051H91.7333V34.6161H90.7888V34.0522ZM90.9179 32.2447L91.509 32.3738C91.4275 32.7996 91.3256 33.2209 91.2033 33.6377C91.0855 34.0544 90.9428 34.444 90.7752 34.8064C90.6076 35.1688 90.4128 35.4859 90.1908 35.7577C90.1818 35.7033 90.1614 35.6308 90.1297 35.5402C90.1025 35.4451 90.0708 35.3522 90.0346 35.2616C90.0028 35.1665 89.9689 35.0895 89.9326 35.0306C90.1863 34.6909 90.3924 34.2786 90.551 33.7939C90.7095 33.3047 90.8318 32.7883 90.9179 32.2447ZM90.517 34.0522H91.047V37.6059H90.517V34.0522ZM100.635 35.2752H103.278V35.8732H100.635V35.2752ZM99.1668 35.6082C99.2891 35.9434 99.4477 36.2174 99.6425 36.4304C99.8418 36.6433 100.068 36.8086 100.322 36.9264C100.576 37.0396 100.856 37.1189 101.165 37.1642C101.473 37.205 101.799 37.2253 102.143 37.2253C102.193 37.2253 102.27 37.2253 102.374 37.2253C102.483 37.2253 102.605 37.2253 102.741 37.2253C102.877 37.2253 103.015 37.2253 103.155 37.2253C103.296 37.2253 103.423 37.2253 103.536 37.2253C103.654 37.2208 103.747 37.2163 103.815 37.2118C103.783 37.2616 103.751 37.325 103.719 37.402C103.688 37.479 103.66 37.556 103.638 37.633C103.615 37.71 103.597 37.7803 103.583 37.8437H103.271H102.109C101.692 37.8437 101.307 37.8142 100.954 37.7553C100.605 37.701 100.286 37.6013 99.9958 37.4564C99.7059 37.3114 99.4477 37.1053 99.2212 36.838C98.9947 36.5708 98.8022 36.2288 98.6436 35.812L99.1668 35.6082ZM100.349 34.1473H101.008V37.5175L100.349 37.3001V34.1473ZM98.9902 32.5437V33.6988H102.394V32.5437H98.9902ZM98.3515 31.9254H103.074V34.3104H98.3515V31.9254ZM98.698 34.7792L99.3707 34.8539C99.3163 35.2299 99.2325 35.6104 99.1193 35.9955C99.0106 36.376 98.8611 36.7339 98.6708 37.0691C98.4851 37.4043 98.2495 37.6851 97.9641 37.9116C97.9279 37.8663 97.8826 37.8165 97.8282 37.7621C97.7739 37.7078 97.7173 37.6534 97.6584 37.5991C97.604 37.5492 97.5542 37.5085 97.5089 37.4768C97.7671 37.2729 97.9777 37.0238 98.1408 36.7293C98.3039 36.4304 98.4285 36.111 98.5145 35.7713C98.6051 35.427 98.6663 35.0963 98.698 34.7792ZM105.805 32.4214V33.5289H106.784V32.4214H105.805ZM105.262 31.8846L107.355 31.8846V34.0657H105.262V31.8846ZM106.138 33.8007H106.682V36.9468H106.138V33.8007ZM105.241 34.6297H105.751V37.1302H105.241V34.6297ZM104.888 36.9468C105.106 36.9015 105.352 36.8471 105.629 36.7837C105.905 36.7203 106.197 36.6523 106.505 36.5798C106.818 36.5028 107.128 36.4258 107.436 36.3488L107.504 36.8992C107.065 37.017 106.625 37.1325 106.186 37.2457C105.747 37.3545 105.355 37.4518 105.01 37.5379L104.888 36.9468ZM106.356 34.9151H107.402V35.4723H106.356V34.9151ZM107.538 32.7136H111.241V33.3251H107.538V32.7136ZM109.597 33.1145H110.195V37.205C110.195 37.3635 110.177 37.4903 110.141 37.5855C110.104 37.6806 110.034 37.7531 109.93 37.8029C109.83 37.8573 109.701 37.8912 109.543 37.9048C109.389 37.9184 109.194 37.9252 108.958 37.9252C108.954 37.8392 108.933 37.7372 108.897 37.6195C108.861 37.5017 108.822 37.3975 108.782 37.3069C108.936 37.3114 109.078 37.3159 109.21 37.3205C109.341 37.3205 109.429 37.3182 109.475 37.3137C109.52 37.3092 109.552 37.3001 109.57 37.2865C109.588 37.2729 109.597 37.2435 109.597 37.1982V33.1145ZM107.83 34.0725L108.381 34.1677C108.313 34.5708 108.218 34.9581 108.095 35.3296C107.977 35.701 107.837 36.0159 107.674 36.2741C107.642 36.2469 107.597 36.2129 107.538 36.1721C107.479 36.1314 107.418 36.0929 107.355 36.0566C107.296 36.0204 107.246 35.9932 107.205 35.9751C107.364 35.7395 107.495 35.4542 107.599 35.1189C107.703 34.7792 107.78 34.4304 107.83 34.0725ZM110.195 34.222L110.698 34.0182C110.802 34.2266 110.897 34.4508 110.983 34.6909C111.074 34.931 111.151 35.1665 111.214 35.3975C111.278 35.624 111.325 35.8279 111.357 36.0091L110.806 36.2265C110.788 36.0453 110.748 35.8392 110.684 35.6082C110.621 35.3726 110.546 35.1348 110.46 34.8947C110.378 34.6546 110.29 34.4304 110.195 34.222ZM108.578 32.9378H109.128V34.4055C109.128 34.6999 109.11 35.0034 109.074 35.316C109.042 35.624 108.974 35.9321 108.87 36.2401C108.77 36.5436 108.621 36.838 108.421 37.1234C108.222 37.4088 107.955 37.6761 107.62 37.9252C107.57 37.8573 107.502 37.7848 107.416 37.7078C107.33 37.6308 107.248 37.5651 107.171 37.5107C107.488 37.2797 107.74 37.0351 107.925 36.7769C108.111 36.5187 108.252 36.2537 108.347 35.9819C108.442 35.7101 108.503 35.4406 108.53 35.1733C108.562 34.906 108.578 34.6501 108.578 34.4055V32.9378ZM108.816 31.7555L109.4 31.5924C109.49 31.751 109.579 31.9254 109.665 32.1156C109.755 32.3059 109.817 32.469 109.848 32.6049L109.23 32.8019C109.198 32.6615 109.144 32.4939 109.067 32.2991C108.99 32.1043 108.906 31.9231 108.816 31.7555Z" fill="#424242"/>
<rect x="0.406759" y="80.3007" width="28.3205" height="15.4705" stroke="#424242" stroke-width="0.679485"/>
<path d="M8.24253 85.5925H13.5085V86.17H8.24253V85.5925ZM8.33086 90.8925H13.5221V91.4293H8.33086V90.8925ZM10.9944 89.6626H12.897V90.1654H10.9944V89.6626ZM7.83483 85.5925H8.43958V87.6445C8.43958 87.9254 8.43278 88.2379 8.41919 88.5822C8.4056 88.922 8.37616 89.2708 8.33086 89.6286C8.28556 89.982 8.21988 90.3285 8.13381 90.6682C8.04774 91.0034 7.93449 91.3115 7.79407 91.5923C7.75783 91.5606 7.70573 91.5244 7.63778 91.4836C7.57437 91.4428 7.50642 91.4043 7.43394 91.3681C7.36599 91.3364 7.30484 91.3115 7.25048 91.2934C7.38637 91.0261 7.49283 90.7362 7.56984 90.4236C7.64684 90.1111 7.70347 89.794 7.73971 89.4723C7.78048 89.1462 7.80539 88.8268 7.81445 88.5143C7.82804 88.2017 7.83483 87.9095 7.83483 87.6377L7.83483 85.5925ZM10.6547 89.0307H11.2798V91.1914H10.6547L10.6547 89.0307ZM9.13945 89.5199H9.75778L9.75778 91.1982H9.13945L9.13945 89.5199ZM8.61624 87.3048H10.7294V87.7668H8.61624V87.3048ZM9.43842 86.5709H9.97521V89.0579H9.43842V86.5709ZM9.36368 87.5086L9.7306 87.6377C9.65812 87.8144 9.56526 87.9933 9.45201 88.1745C9.34329 88.3512 9.22325 88.5165 9.09188 88.6705C8.96052 88.82 8.82688 88.9446 8.69099 89.0443C8.65022 88.9854 8.59359 88.9174 8.52111 88.8404C8.45317 88.7634 8.38975 88.7023 8.33086 88.657C8.46676 88.5754 8.59812 88.4735 8.72496 88.3512C8.85633 88.2244 8.97637 88.0885 9.08509 87.9435C9.19833 87.7985 9.2912 87.6536 9.36368 87.5086ZM10.9197 87.3048H13.3862V87.7668H10.9197V87.3048ZM11.7894 86.5709H12.333V89.0579H11.7894V86.5709ZM11.64 87.5018L12.0069 87.6309C11.9344 87.8076 11.8393 87.9865 11.7215 88.1677C11.6037 88.3489 11.4769 88.5165 11.341 88.6705C11.2051 88.82 11.0669 88.9446 10.9265 89.0443C10.8857 88.9854 10.8291 88.9174 10.7566 88.8404C10.6887 88.7589 10.6253 88.6955 10.5664 88.6502C10.7068 88.5732 10.845 88.4735 10.9809 88.3512C11.1167 88.2244 11.2413 88.0885 11.3546 87.9435C11.4723 87.794 11.5675 87.6468 11.64 87.5018ZM9.94124 87.7532C9.98201 87.7714 10.0386 87.8053 10.1111 87.8552C10.1836 87.905 10.2606 87.9571 10.3421 88.0114C10.4237 88.0658 10.4984 88.1179 10.5664 88.1677C10.6388 88.2176 10.6887 88.2561 10.7159 88.2832L10.4033 88.6773C10.3625 88.6366 10.3082 88.5845 10.2402 88.5211C10.1768 88.4576 10.1066 88.392 10.0296 88.324C9.95256 88.2561 9.87782 88.1926 9.80534 88.1338C9.73739 88.0703 9.68077 88.0228 9.63547 87.9911L9.94124 87.7532ZM10.247 86.2856L10.6615 86.6117C10.4939 86.6797 10.3014 86.7385 10.0839 86.7884C9.8665 86.8337 9.64227 86.8722 9.41124 86.9039C9.18475 86.9311 8.96278 86.9515 8.74534 86.965C8.73628 86.9152 8.7159 86.8541 8.68419 86.7816C8.65701 86.7091 8.62983 86.6457 8.60265 86.5913C8.80197 86.5732 9.00355 86.5506 9.20739 86.5234C9.41577 86.4917 9.61056 86.4554 9.79175 86.4147C9.97748 86.3739 10.1292 86.3309 10.247 86.2856ZM12.6999 86.2584L13.1144 86.5913C12.9332 86.6547 12.7249 86.7136 12.4893 86.768C12.2538 86.8178 12.0091 86.8586 11.7555 86.8903C11.5063 86.922 11.264 86.9447 11.0284 86.9582C11.0194 86.9039 11.0012 86.8405 10.9741 86.768C10.9469 86.691 10.9174 86.6276 10.8857 86.5777C11.1032 86.5596 11.3251 86.537 11.5516 86.5098C11.7826 86.4781 11.9978 86.4418 12.1971 86.4011C12.401 86.3558 12.5686 86.3082 12.6999 86.2584ZM12.3398 87.7804C12.3987 87.8121 12.4825 87.8665 12.5912 87.9435C12.7045 88.016 12.8245 88.0975 12.9514 88.1881C13.0827 88.2742 13.2005 88.3557 13.3047 88.4327C13.4134 88.5097 13.4927 88.5664 13.5425 88.6026L13.2435 89.0307C13.1801 88.9673 13.0963 88.8902 12.9921 88.7997C12.8879 88.7091 12.777 88.6162 12.6592 88.5211C12.5414 88.4214 12.4282 88.3308 12.3194 88.2493C12.2107 88.1632 12.1224 88.0953 12.0544 88.0454L12.3398 87.7804ZM17.6126 85.3275H18.2785V88.2561C18.2785 88.546 18.2559 88.8291 18.2106 89.1054C18.1698 89.3772 18.0883 89.6377 17.966 89.8868C17.8482 90.1314 17.6738 90.3625 17.4428 90.5799C17.2163 90.7973 16.9196 90.9921 16.5526 91.1643C16.1857 91.3409 15.7282 91.4904 15.1801 91.6127C15.1574 91.5674 15.1234 91.5085 15.0781 91.4361C15.0374 91.3636 14.9898 91.2911 14.9355 91.2186C14.8856 91.1507 14.8381 91.0918 14.7928 91.042C15.3137 90.9423 15.7463 90.82 16.0906 90.675C16.4349 90.5301 16.7089 90.3693 16.9128 90.1926C17.1211 90.0159 17.2751 89.8234 17.3748 89.615C17.4745 89.4067 17.5379 89.1892 17.5651 88.9627C17.5968 88.7317 17.6126 88.4961 17.6126 88.2561V85.3275ZM15.9683 86.9515V88.0862H19.9229V86.9515H15.9683ZM15.3363 86.3331H20.582V88.7045H15.3363V86.3331ZM16.2197 88.8608C16.4371 89.2776 16.6953 89.6173 16.9943 89.88C17.2933 90.1382 17.6421 90.3398 18.0407 90.4848C18.4393 90.6252 18.8946 90.7271 19.4065 90.7905C19.9183 90.8494 20.4982 90.8879 21.1459 90.9061C21.0825 90.9831 21.0214 91.085 20.9625 91.2118C20.9036 91.3387 20.8628 91.4587 20.8402 91.5719C20.1788 91.5357 19.5786 91.4723 19.0395 91.3817C18.5005 91.2956 18.0181 91.1643 17.5922 90.9876C17.1664 90.8109 16.7904 90.5686 16.4643 90.2605C16.1381 89.9525 15.8618 89.5584 15.6353 89.0782L16.2197 88.8608Z" fill="#424242"/>
<rect x="34.7" y="80.3007" width="28.3205" height="15.4705" stroke="#43B71B" stroke-width="0.679485"/>
<path d="M42.0669 87.0262H43.7316V87.5698H42.0669V87.0262ZM41.6932 88.2085H44.0102V88.7589H41.6932V88.2085ZM41.7272 89.1258L42.1688 89.0239C42.2186 89.2141 42.2685 89.4225 42.3183 89.649C42.3681 89.8755 42.4044 90.0703 42.427 90.2334L41.965 90.3625C41.9514 90.1903 41.9219 89.991 41.8766 89.7645C41.8313 89.5335 41.7815 89.3206 41.7272 89.1258ZM41.5777 90.8177C41.8812 90.7724 42.2526 90.7135 42.692 90.6411C43.136 90.5686 43.5867 90.4938 44.0442 90.4168L44.0782 90.9264C43.6659 91.0125 43.2515 91.0963 42.8347 91.1778C42.418 91.2594 42.0465 91.3319 41.7204 91.3953L41.5777 90.8177ZM43.6569 88.9627L44.0918 89.0782C44.0374 89.2821 43.9808 89.495 43.9219 89.717C43.8675 89.9344 43.8154 90.1201 43.7656 90.2741L43.4191 90.1722C43.4508 90.059 43.4802 89.9321 43.5074 89.7917C43.5391 89.6467 43.5686 89.5018 43.5957 89.3568C43.6229 89.2119 43.6433 89.0805 43.6569 88.9627ZM42.6648 87.2504H43.188V90.8993L42.6648 90.9944V87.2504ZM42.8211 85.2867L43.3171 85.4702C43.1948 85.7284 43.0476 85.9866 42.8755 86.2448C42.7033 86.503 42.5176 86.7453 42.3183 86.9718C42.1235 87.1983 41.9219 87.3976 41.7136 87.5698C41.709 87.5245 41.6932 87.4633 41.666 87.3863C41.6433 87.3093 41.6162 87.23 41.5845 87.1485C41.5528 87.0624 41.5233 86.9967 41.4961 86.9515C41.7498 86.7476 41.9967 86.5007 42.2368 86.2108C42.4769 85.9164 42.6716 85.6083 42.8211 85.2867ZM42.726 85.8915L43.0725 85.5245C43.213 85.6559 43.3624 85.7986 43.521 85.9526C43.6841 86.1066 43.8381 86.2561 43.983 86.4011C44.1325 86.546 44.2548 86.6706 44.35 86.7748L43.983 87.2029C43.8924 87.0896 43.7747 86.956 43.6297 86.802C43.4848 86.6479 43.333 86.4917 43.1745 86.3331C43.0159 86.17 42.8664 86.0228 42.726 85.8915ZM47.3465 88.5618L47.7814 88.922C47.6409 89.076 47.4892 89.2323 47.3261 89.3908C47.163 89.5448 47.0158 89.6762 46.8844 89.7849L46.5311 89.4588C46.6172 89.3817 46.71 89.2911 46.8097 89.187C46.9094 89.0828 47.0068 88.9763 47.1019 88.8676C47.197 88.7544 47.2785 88.6524 47.3465 88.5618ZM44.2548 88.8812L44.6761 88.5754C44.8075 88.7023 44.9434 88.8472 45.0838 89.0103C45.2288 89.1688 45.3397 89.3047 45.4168 89.418L44.9683 89.7645C44.923 89.6875 44.8596 89.5969 44.778 89.4927C44.6965 89.3885 44.6104 89.2821 44.5198 89.1734C44.4292 89.0646 44.3409 88.9673 44.2548 88.8812ZM45.077 85.8847H46.898V86.3807H45.077V85.8847ZM44.8664 86.9039H46.7418V87.4067H44.8664V86.9039ZM44.1121 87.8212H47.8901V88.3852H44.1121V87.8212ZM45.6818 88.1541H46.2729V90.974C46.2729 91.119 46.2571 91.2322 46.2253 91.3137C46.1936 91.3998 46.128 91.4655 46.0283 91.5108C45.9377 91.5561 45.8222 91.5833 45.6818 91.5923C45.5459 91.6059 45.3805 91.6127 45.1857 91.6127C45.1767 91.5312 45.154 91.4361 45.1178 91.3273C45.0815 91.2231 45.043 91.1325 45.0023 91.0555C45.1291 91.0601 45.2469 91.0623 45.3556 91.0623C45.4643 91.0623 45.5391 91.0623 45.5798 91.0623C45.6478 91.0578 45.6818 91.0261 45.6818 90.9672V88.1541ZM43.9762 90.6818C44.1439 90.5822 44.3432 90.4553 44.5742 90.3013C44.8052 90.1428 45.043 89.9797 45.2877 89.8121L45.4779 90.2809C45.2831 90.4304 45.0838 90.5822 44.88 90.7362C44.6806 90.8857 44.4904 91.0284 44.3092 91.1643L43.9762 90.6818ZM45.0091 85.2935L45.607 85.3615C45.5572 85.5834 45.5006 85.8212 45.4371 86.0749C45.3783 86.3241 45.3171 86.5641 45.2537 86.7952C45.1948 87.0262 45.1382 87.23 45.0838 87.4067H44.4655C44.5244 87.221 44.5878 87.0081 44.6557 86.768C44.7237 86.5234 44.7871 86.272 44.846 86.0138C44.9094 85.7556 44.9638 85.5155 45.0091 85.2935ZM46.7214 85.8847H46.7893L46.8912 85.8575L47.3329 85.9186C47.3012 86.1315 47.2604 86.3626 47.2106 86.6117C47.1608 86.8609 47.1087 87.1077 47.0543 87.3523C47.0045 87.597 46.9547 87.828 46.9048 88.0454L46.3137 87.9707C46.368 87.7487 46.4201 87.5132 46.47 87.264C46.5243 87.0103 46.5741 86.768 46.6194 86.537C46.6647 86.3014 46.6987 86.1066 46.7214 85.9526V85.8847ZM46.3816 90.1654L46.7282 89.7849C46.8641 89.8755 47.0068 89.9774 47.1562 90.0907C47.3103 90.2039 47.4575 90.3172 47.5979 90.4304C47.7383 90.5391 47.8516 90.6365 47.9376 90.7226L47.5707 91.1575C47.4892 91.0714 47.3805 90.9695 47.2446 90.8517C47.1087 90.7339 46.9637 90.6161 46.8097 90.4984C46.6602 90.3761 46.5175 90.2651 46.3816 90.1654ZM54.4675 85.4294L55.0722 85.674C54.9182 85.8824 54.7416 86.0862 54.5422 86.2856C54.3475 86.4849 54.1413 86.6729 53.9239 86.8495C53.7065 87.0217 53.4913 87.1734 53.2784 87.3048C53.224 87.2368 53.1538 87.1598 53.0678 87.0738C52.9817 86.9877 52.8979 86.9152 52.8163 86.8563C53.0157 86.7476 53.2172 86.6162 53.4211 86.4622C53.6295 86.3082 53.8243 86.1429 54.0054 85.9662C54.1912 85.785 54.3452 85.6061 54.4675 85.4294ZM54.6713 87.2708L55.2557 87.5154C55.0926 87.7374 54.9001 87.9548 54.6781 88.1677C54.4607 88.3806 54.2319 88.5777 53.9919 88.7589C53.7518 88.9355 53.5117 89.0941 53.2716 89.2345C53.2263 89.162 53.1606 89.0828 53.0746 88.9967C52.993 88.9106 52.9115 88.8382 52.8299 88.7793C53.0519 88.666 53.2761 88.5301 53.5026 88.3716C53.7337 88.2085 53.9511 88.0318 54.1549 87.8416C54.3633 87.6513 54.5354 87.4611 54.6713 87.2708ZM54.7936 89.2073L55.3916 89.4316C55.2195 89.726 55.0111 90.0069 54.7665 90.2741C54.5264 90.5369 54.2637 90.777 53.9783 90.9944C53.6974 91.2118 53.403 91.3998 53.0949 91.5584C53.0451 91.4814 52.9772 91.3953 52.8911 91.3002C52.8096 91.205 52.7303 91.1258 52.6533 91.0623C52.9387 90.931 53.2172 90.7702 53.489 90.5799C53.7608 90.3896 54.01 90.1767 54.2365 89.9412C54.463 89.7056 54.6487 89.461 54.7936 89.2073ZM49.1947 87.8212H52.9047V88.324H49.1947V87.8212ZM50.1935 89.0511V89.5267H51.9602V89.0511H50.1935ZM49.5956 88.6162H52.5853V89.9616H49.5956V88.6162ZM51.6205 90.2537L52.0757 90.0499C52.1935 90.2084 52.3113 90.3851 52.429 90.5799C52.5468 90.7747 52.6352 90.94 52.694 91.0759L52.2116 91.3137C52.1527 91.1733 52.0666 91.0034 51.9534 90.8041C51.8447 90.6003 51.7337 90.4168 51.6205 90.2537ZM50.1256 86.6797V87.0262H52.0349V86.6797H50.1256ZM50.1256 85.9458V86.2924H52.0349V85.9458H50.1256ZM49.5141 85.5381H52.6737V87.4407H49.5141V85.5381ZM50.7507 89.7305H51.3758V90.9876C51.3758 91.128 51.36 91.2367 51.3283 91.3137C51.3011 91.3908 51.2377 91.4519 51.138 91.4972C51.0429 91.538 50.9251 91.5629 50.7847 91.5719C50.6488 91.581 50.488 91.5855 50.3023 91.5855C50.2887 91.4995 50.2637 91.4089 50.2275 91.3137C50.1913 91.2186 50.1528 91.1325 50.112 91.0555C50.2343 91.0601 50.3453 91.0623 50.4449 91.0623C50.5491 91.0623 50.6193 91.0623 50.6556 91.0623C50.6964 91.0623 50.7213 91.0555 50.7303 91.042C50.7439 91.0329 50.7507 91.0125 50.7507 90.9808V89.7305ZM49.8266 90.0635L50.3634 90.2198C50.2728 90.4236 50.1596 90.632 50.0237 90.8449C49.8923 91.0533 49.7587 91.2277 49.6228 91.3681C49.5911 91.3364 49.548 91.2979 49.4937 91.2526C49.4393 91.2118 49.3827 91.1688 49.3238 91.1235C49.2694 91.0827 49.2219 91.0487 49.1811 91.0216C49.3079 90.8947 49.428 90.7475 49.5412 90.5799C49.6545 90.4078 49.7496 90.2356 49.8266 90.0635ZM50.6284 87.5562L51.2331 87.4271C51.2875 87.5086 51.3396 87.6015 51.3894 87.7057C51.4438 87.8053 51.4823 87.8959 51.5049 87.9775L50.8662 88.1202C50.8481 88.0432 50.8164 87.9526 50.7711 87.8484C50.7258 87.7397 50.6782 87.6423 50.6284 87.5562Z" fill="#43B71B"/>
<rect x="114.855" y="62.5995" width="28.3205" height="15.4743" stroke="#424242" stroke-width="0.679485" stroke-dasharray="1.36 1.36"/>
<path d="M125.158 73.0913H127.359V73.6485H125.158V73.0913ZM125.477 68.2738H127.237V68.8242H125.477V68.2738ZM124.906 71.413H127.638V73.8727H127.02V71.9566H125.498V73.8931H124.906V71.413ZM127.013 68.2738H127.128L127.244 68.2466L127.651 68.4233C127.525 68.8445 127.357 69.2296 127.149 69.5784C126.94 69.9272 126.702 70.242 126.435 70.5229C126.168 70.7992 125.878 71.0415 125.565 71.2499C125.257 71.4583 124.938 71.6327 124.607 71.7731C124.567 71.7006 124.51 71.6168 124.438 71.5217C124.37 71.4221 124.304 71.345 124.24 71.2907C124.539 71.1774 124.832 71.028 125.117 70.8422C125.407 70.652 125.676 70.4323 125.926 70.1831C126.175 69.934 126.392 69.6577 126.578 69.3542C126.764 69.0507 126.909 68.7268 127.013 68.3825V68.2738ZM125.552 67.5943L126.163 67.7438C126.064 68.0518 125.944 68.3508 125.803 68.6407C125.663 68.9306 125.507 69.2001 125.334 69.4493C125.167 69.6939 124.988 69.9113 124.798 70.1016C124.766 70.0608 124.718 70.0155 124.655 69.9657C124.596 69.9113 124.533 69.8592 124.465 69.8094C124.401 69.7551 124.347 69.712 124.302 69.6803C124.573 69.4357 124.818 69.1299 125.035 68.763C125.257 68.3916 125.43 68.002 125.552 67.5943ZM125.484 68.5999C125.584 68.8355 125.713 69.0778 125.871 69.327C126.034 69.5761 126.227 69.8162 126.449 70.0472C126.675 70.2783 126.931 70.4889 127.217 70.6792C127.502 70.8694 127.819 71.0257 128.168 71.148C128.127 71.1888 128.08 71.2431 128.025 71.3111C127.975 71.3745 127.928 71.4402 127.883 71.5081C127.837 71.5715 127.799 71.6327 127.767 71.6916C127.418 71.5466 127.099 71.3677 126.809 71.1548C126.524 70.9419 126.268 70.7086 126.041 70.4549C125.819 70.2012 125.624 69.943 125.457 69.6803C125.294 69.413 125.16 69.1571 125.056 68.9125L125.484 68.5999ZM122.066 70.6044H122.596V73.0709H122.066V70.6044ZM122.657 68.4233V69.4765H123.765V68.4233H122.657ZM122.087 67.8729H124.363V70.0336H122.087V67.8729ZM123.045 69.789H123.622V72.8603H123.045V69.789ZM121.74 72.9894C121.971 72.9441 122.236 72.8897 122.535 72.8263C122.834 72.7629 123.149 72.6927 123.479 72.6157C123.815 72.5387 124.148 72.4617 124.478 72.3847L124.539 72.9554C124.064 73.0732 123.588 73.191 123.113 73.3088C122.641 73.422 122.22 73.5217 121.849 73.6077L121.74 72.9894ZM123.262 70.9374H124.424V71.5013H123.262V70.9374ZM133.291 67.5943L134.011 67.737C133.93 67.9046 133.846 68.0699 133.76 68.233C133.679 68.3916 133.604 68.5274 133.536 68.6407L132.992 68.5048C133.051 68.3734 133.108 68.2217 133.162 68.0495C133.216 67.8774 133.26 67.7257 133.291 67.5943ZM132.653 69.7686V70.2579H134.603V69.7686H132.653ZM132.653 68.8174V69.2998H134.603V68.8174H132.653ZM132.055 68.3213H135.228V70.7607H132.055V68.3213ZM133.386 70.5433H133.998V73.2408C133.998 73.3948 133.98 73.5149 133.944 73.6009C133.907 73.6915 133.837 73.764 133.733 73.8184C133.633 73.8637 133.506 73.8909 133.352 73.8999C133.198 73.9135 133.013 73.9203 132.795 73.9203C132.782 73.8342 132.757 73.7346 132.72 73.6213C132.689 73.5081 132.653 73.4107 132.612 73.3291C132.757 73.3337 132.893 73.3359 133.019 73.3359C133.146 73.3405 133.23 73.3405 133.271 73.3359C133.316 73.3314 133.346 73.3223 133.359 73.3088C133.377 73.2952 133.386 73.2703 133.386 73.234V70.5433ZM131.81 71.2635H132.843V71.7935H131.81V71.2635ZM132.7 71.2635H132.809L132.911 71.2431L133.284 71.3722C133.207 71.721 133.096 72.0381 132.951 72.3235C132.807 72.6044 132.637 72.8512 132.442 73.0641C132.247 73.2725 132.032 73.4447 131.796 73.5806C131.756 73.5126 131.699 73.4333 131.626 73.3427C131.559 73.2567 131.493 73.1865 131.429 73.1321C131.629 73.0279 131.812 72.8875 131.98 72.7108C132.152 72.5296 132.301 72.3235 132.428 72.0925C132.555 71.8615 132.646 71.6146 132.7 71.3518V71.2635ZM134.97 70.9374L135.445 71.3315C135.264 71.49 135.078 71.6508 134.888 71.8139C134.698 71.9724 134.521 72.1061 134.358 72.2148L134.005 71.9022C134.109 71.8162 134.22 71.7188 134.338 71.61C134.455 71.4968 134.571 71.3813 134.684 71.2635C134.797 71.1457 134.893 71.037 134.97 70.9374ZM133.971 70.8966C134.061 71.2091 134.184 71.5104 134.338 71.8003C134.492 72.0902 134.673 72.3507 134.881 72.5817C135.09 72.8082 135.321 72.9871 135.574 73.1185C135.534 73.1593 135.486 73.2091 135.432 73.268C135.377 73.3269 135.325 73.388 135.275 73.4514C135.23 73.5149 135.189 73.576 135.153 73.6349C134.89 73.4628 134.655 73.2431 134.446 72.9758C134.238 72.7085 134.057 72.4073 133.903 72.0721C133.749 71.7324 133.622 71.3768 133.522 71.0053L133.971 70.8966ZM130.811 70.3326L131.287 70.2035C131.341 70.3575 131.393 70.5229 131.443 70.6995C131.497 70.8762 131.543 71.0483 131.579 71.2159C131.62 71.379 131.649 71.5217 131.667 71.644L131.158 71.8003C131.14 71.6735 131.112 71.5262 131.076 71.3586C131.044 71.191 131.004 71.0166 130.954 70.8354C130.908 70.6542 130.861 70.4866 130.811 70.3326ZM130.206 72.0925L130.675 72.0109C130.716 72.242 130.75 72.4934 130.777 72.7652C130.809 73.0324 130.827 73.2657 130.831 73.465L130.342 73.5534C130.342 73.3541 130.329 73.1185 130.301 72.8467C130.274 72.5749 130.243 72.3235 130.206 72.0925ZM129.513 72.0245L130.023 72.1061C129.991 72.4096 129.946 72.7153 129.887 73.0234C129.828 73.3314 129.762 73.5941 129.69 73.8116C129.654 73.7889 129.606 73.7663 129.547 73.7436C129.488 73.721 129.427 73.7006 129.364 73.6825C129.3 73.6644 129.248 73.6485 129.208 73.6349C129.289 73.4265 129.352 73.1774 129.398 72.8875C129.448 72.593 129.486 72.3054 129.513 72.0245ZM129.391 70.2103C129.382 70.1695 129.364 70.1152 129.337 70.0472C129.314 69.9748 129.289 69.9023 129.262 69.8298C129.239 69.7528 129.217 69.6894 129.194 69.6395C129.253 69.6259 129.312 69.5874 129.371 69.524C129.434 69.4561 129.497 69.37 129.561 69.2658C129.611 69.2024 129.683 69.0846 129.778 68.9125C129.878 68.7358 129.982 68.532 130.091 68.301C130.204 68.0654 130.301 67.8253 130.383 67.5807L130.974 67.8253C130.865 68.0699 130.745 68.3168 130.614 68.566C130.483 68.8151 130.345 69.0529 130.2 69.2794C130.055 69.5014 129.91 69.703 129.765 69.8842V69.8977C129.765 69.8977 129.747 69.9091 129.71 69.9317C129.674 69.9544 129.629 69.9815 129.574 70.0133C129.525 70.045 129.482 70.0789 129.445 70.1152C129.409 70.1469 129.391 70.1786 129.391 70.2103ZM129.391 70.2103L129.377 69.7551L129.656 69.5784L130.838 69.4833C130.825 69.5603 130.811 69.6486 130.798 69.7483C130.788 69.8479 130.782 69.9295 130.777 69.9929C130.514 70.0246 130.299 70.0518 130.132 70.0744C129.964 70.0925 129.83 70.1106 129.731 70.1288C129.636 70.1424 129.563 70.1559 129.513 70.1695C129.463 70.1831 129.423 70.1967 129.391 70.2103ZM129.439 71.7663C129.429 71.721 129.411 71.6621 129.384 71.5897C129.362 71.5172 129.337 71.4424 129.309 71.3654C129.282 71.2884 129.257 71.2227 129.235 71.1684C129.316 71.1503 129.396 71.1027 129.473 71.0257C129.554 70.9441 129.647 70.84 129.751 70.7131C129.81 70.6542 129.892 70.5546 129.996 70.4142C130.1 70.2692 130.218 70.0993 130.349 69.9045C130.48 69.7098 130.612 69.4991 130.743 69.2726C130.879 69.0461 130.999 68.8174 131.103 68.5863L131.66 68.9193C131.493 69.2228 131.307 69.5263 131.103 69.8298C130.904 70.1333 130.696 70.4209 130.478 70.6927C130.265 70.9645 130.048 71.2114 129.826 71.4334V71.4538C129.826 71.4538 129.805 71.4651 129.765 71.4877C129.728 71.5059 129.683 71.5308 129.629 71.5625C129.579 71.5942 129.534 71.6282 129.493 71.6644C129.457 71.7006 129.439 71.7346 129.439 71.7663ZM129.439 71.7663L129.418 71.2975L129.697 71.1072L131.341 70.9034C131.328 70.9804 131.316 71.0687 131.307 71.1684C131.303 71.268 131.303 71.3496 131.307 71.413C130.936 71.4674 130.634 71.5149 130.403 71.5557C130.177 71.5919 129.998 71.6214 129.867 71.644C129.74 71.6667 129.645 71.6871 129.581 71.7052C129.522 71.7233 129.475 71.7437 129.439 71.7663ZM130.865 71.9634L131.294 71.8275C131.357 71.9906 131.418 72.1695 131.477 72.3643C131.536 72.5545 131.579 72.7199 131.606 72.8603L131.151 73.0098C131.128 72.8694 131.09 72.7018 131.035 72.507C130.981 72.3077 130.924 72.1265 130.865 71.9634Z" fill="#424242"/>
</g>
<defs>
<clipPath id="clip0_152_5965">
<rect width="200" height="200" fill="white" transform="translate(0.0670166 0.132812)"/>
</clipPath>
</defs>
</svg>
