<svg width="201" height="201" viewBox="0 0 201 201" fill="none" xmlns="http://www.w3.org/2000/svg">
<g clip-path="url(#clip0_157_6583)">
<path d="M47.2543 9.3125L47.2543 53.6133" stroke="#222222" stroke-width="0.679485" stroke-linecap="round"/>
<path d="M62.0824 53.6133H50.3724" stroke="#222222" stroke-width="0.679485" stroke-linecap="round" stroke-dasharray="1.36 1.36"/>
<path d="M62.0824 31.4609H50.3724" stroke="#222222" stroke-width="0.679485" stroke-linecap="round" stroke-dasharray="1.36 1.36"/>
<path d="M44.1361 9.3125L32.4223 9.3125" stroke="#222222" stroke-width="0.679485" stroke-linecap="round"/>
<path d="M109.032 9.3125L97.3178 9.3125" stroke="#222222" stroke-width="0.679485" stroke-linecap="round"/>
<path d="M109.032 31.4609H97.3178" stroke="#222222" stroke-width="0.679485" stroke-linecap="round"/>
<path d="M109.032 53.6133H97.3178" stroke="#222222" stroke-width="0.679485" stroke-linecap="round"/>
<path d="M62.0824 9.3125L50.3724 9.3125" stroke="#222222" stroke-width="0.679485" stroke-linecap="round" stroke-dasharray="1.36 1.36"/>
<rect x="0.643942" y="0.574118" width="28.3205" height="15.4743" rx="7.73717" stroke="#43B71B" stroke-width="0.679485"/>
<path d="M7.64394 6.73082H9.74355V7.31517H7.64394L7.64394 6.73082ZM8.58843 8.8644L9.22035 8.11697L9.22035 11.8745H8.58843L8.58843 8.8644ZM9.19317 8.29363C9.243 8.32987 9.31548 8.39556 9.4106 8.49068C9.51026 8.58128 9.61445 8.68094 9.72317 8.78966C9.83641 8.89837 9.93834 9.0003 10.0289 9.09543C10.1241 9.18602 10.1943 9.25171 10.2396 9.29248L9.83868 9.82927C9.78432 9.74773 9.71184 9.6526 9.62124 9.54389C9.53065 9.43064 9.43552 9.31513 9.33586 9.19735C9.2362 9.07957 9.14107 8.97085 9.05048 8.8712C8.95988 8.76701 8.88287 8.68094 8.81945 8.61299L9.19317 8.29363ZM9.5465 6.73082H9.6824L9.79111 6.70364L10.1377 6.94825C9.97458 7.35594 9.76394 7.75004 9.50573 8.13056C9.24753 8.50654 8.96214 8.84855 8.64958 9.15658C8.34155 9.46008 8.03125 9.71376 7.71869 9.9176C7.70057 9.85871 7.67565 9.7885 7.64394 9.70696C7.61676 9.62089 7.58505 9.53709 7.54881 9.45555C7.5171 9.37401 7.4854 9.31286 7.45369 9.27209C7.73907 9.10902 8.01766 8.89837 8.28945 8.64017C8.56578 8.38197 8.81492 8.09885 9.03689 7.79081C9.25885 7.48278 9.42872 7.17022 9.5465 6.85312V6.73082ZM8.33022 5.8271L8.82625 5.55531C8.95308 5.68668 9.07539 5.8339 9.19317 5.99697C9.31548 6.16005 9.40834 6.30501 9.47176 6.43184L8.94176 6.74441C8.8874 6.61757 8.80133 6.46808 8.68355 6.29595C8.56578 6.12381 8.448 5.96753 8.33022 5.8271ZM9.92701 11.0048H13.8544V11.6367H9.92701L9.92701 11.0048ZM10.2328 7.66171L13.6982 7.66171V8.28684H10.2328V7.66171ZM11.6597 5.58249H12.312V11.3105H11.6597V5.58249ZM16.2394 6.73761H20.0853V7.11133H16.2394V6.73761ZM16.1579 9.61183H20.1804V9.98555H16.1579V9.61183ZM16.8442 10.1894L17.2519 9.97876C17.356 10.0648 17.4602 10.1667 17.5644 10.2845C17.6731 10.3978 17.7547 10.4997 17.809 10.5903L17.381 10.8213C17.3311 10.7307 17.2541 10.6265 17.1499 10.5088C17.0458 10.3864 16.9438 10.28 16.8442 10.1894ZM16.9733 8.18492V8.44312H19.3447V8.18492H16.9733ZM16.9733 7.64812V7.89953H19.3447V7.64812H16.9733ZM16.4772 7.35594H19.8747V8.74209H16.4772V7.35594ZM18.706 9.38081H19.2428V10.5291C19.2428 10.6424 19.2269 10.7239 19.1952 10.7738C19.168 10.8191 19.1114 10.8553 19.0253 10.8825C18.9438 10.9097 18.8351 10.9255 18.6992 10.93C18.5633 10.9346 18.3957 10.9368 18.1963 10.9368C18.1873 10.8779 18.1692 10.8191 18.142 10.7602C18.1148 10.6967 18.0876 10.6401 18.0604 10.5903C18.1782 10.5948 18.2892 10.5971 18.3934 10.5971C18.5021 10.5971 18.5746 10.5971 18.6108 10.5971C18.6471 10.5926 18.672 10.5858 18.6856 10.5767C18.6992 10.5631 18.706 10.5405 18.706 10.5088V9.38081ZM16.2598 9.03427C16.5407 9.03427 16.8623 9.03427 17.2247 9.03427C17.5871 9.02974 17.9721 9.02521 18.3798 9.02068C18.792 9.01162 19.2065 9.00483 19.6233 9.0003L19.6097 9.31286C19.2065 9.32645 18.8056 9.34004 18.407 9.35363C18.0084 9.36269 17.6278 9.37175 17.2655 9.38081C16.9076 9.38987 16.5814 9.39666 16.287 9.40119L16.2598 9.03427ZM19.0049 8.91196L19.3379 8.68094C19.4783 8.77607 19.6165 8.88705 19.7524 9.01389C19.8928 9.14072 20.0015 9.25171 20.0785 9.34683L19.732 9.60504C19.6504 9.50538 19.5395 9.38987 19.399 9.2585C19.2631 9.1226 19.1318 9.00709 19.0049 8.91196ZM17.877 6.45223H18.4138V9.15658L17.877 9.18376V6.45223ZM15.3833 5.84749H20.9822V11.8609H20.3707V6.34351H15.9676L15.9676 11.8813L15.3833 11.8813L15.3833 5.84749ZM15.6687 11.0388H20.6221V11.5348H15.6687V11.0388Z" fill="#43B71B"/>
<rect x="65.5398" y="1.57607" width="28.3205" height="15.4705" stroke="#424242" stroke-width="0.679485"/>
<path d="M73.396 9.12376H75.0267V9.71491H73.396V9.12376ZM74.7821 9.12376H75.4072C75.4072 9.12376 75.4072 9.13962 75.4072 9.17133C75.4072 9.20304 75.405 9.23927 75.4004 9.28004C75.4004 9.32081 75.4004 9.35479 75.4004 9.38197C75.3914 9.87573 75.3801 10.2789 75.3665 10.5914C75.3529 10.904 75.3325 11.1441 75.3053 11.3117C75.2781 11.4748 75.2396 11.588 75.1898 11.6514C75.1309 11.7239 75.0675 11.776 74.9996 11.8077C74.9316 11.8394 74.8478 11.8621 74.7481 11.8757C74.6621 11.8893 74.5466 11.8961 74.4016 11.8961C74.2566 11.8961 74.1026 11.8938 73.9396 11.8893C73.935 11.7941 73.9169 11.69 73.8852 11.5767C73.8535 11.4635 73.8127 11.3661 73.7629 11.2845C73.9033 11.2981 74.0347 11.3072 74.157 11.3117C74.2793 11.3162 74.3699 11.3185 74.4288 11.3185C74.4741 11.3185 74.5126 11.314 74.5443 11.3049C74.5805 11.2913 74.6122 11.2709 74.6394 11.2438C74.6711 11.203 74.696 11.1147 74.7142 10.9788C74.7323 10.8383 74.7459 10.6277 74.7549 10.3468C74.7685 10.066 74.7776 9.69226 74.7821 9.22568V9.12376ZM76.7458 6.94941L77.1399 6.5621C77.2758 6.63005 77.4185 6.70932 77.568 6.79992C77.7175 6.88599 77.8579 6.97432 77.9893 7.06492C78.1207 7.15552 78.2294 7.23932 78.3154 7.31633L77.9077 7.7512C77.8262 7.67419 77.7198 7.58813 77.5884 7.493C77.4616 7.39787 77.3234 7.30274 77.1739 7.20761C77.0289 7.11249 76.8863 7.02642 76.7458 6.94941ZM77.6495 8.75684L78.2951 8.91312C78.0097 9.79645 77.6156 10.5711 77.1128 11.237C76.6145 11.9029 76.0233 12.4419 75.3393 12.8541C75.3121 12.8043 75.2691 12.7454 75.2102 12.6775C75.1513 12.6141 75.0924 12.5484 75.0335 12.4804C74.9746 12.417 74.9203 12.3649 74.8704 12.3241C75.5454 11.9617 76.1162 11.477 76.5828 10.87C77.0493 10.263 77.4049 9.55863 77.6495 8.75684ZM73.4367 7.66966L78.6892 7.66966V8.30158H73.4367V7.66966ZM73.0087 7.66966H73.6814V9.61979C73.6814 9.86893 73.6723 10.1385 73.6542 10.4284C73.6361 10.7183 73.6021 11.015 73.5522 11.3185C73.5024 11.6175 73.4299 11.9074 73.3348 12.1882C73.2397 12.4691 73.1128 12.7205 72.9543 12.9425C72.9226 12.9017 72.8705 12.8519 72.798 12.793C72.7301 12.7341 72.6599 12.6775 72.5874 12.6231C72.5194 12.5733 72.4605 12.5348 72.4107 12.5076C72.5964 12.2358 72.7301 11.9323 72.8116 11.5971C72.8977 11.2573 72.952 10.9153 72.9747 10.5711C72.9973 10.2268 73.0087 9.90743 73.0087 9.61299V7.66966ZM75.8081 6.58249H76.4808C76.4763 7.18043 76.4967 7.75573 76.542 8.30838C76.5873 8.8565 76.653 9.36611 76.739 9.83722C76.8251 10.3083 76.927 10.7183 77.0448 11.0671C77.1626 11.4159 77.2939 11.6877 77.4389 11.8825C77.5884 12.0773 77.7401 12.1746 77.8942 12.1746C77.9848 12.1746 78.0527 12.0795 78.098 11.8893C78.1433 11.699 78.175 11.3842 78.1931 10.9448C78.2701 11.0173 78.3607 11.0875 78.4649 11.1554C78.5691 11.2234 78.6642 11.2732 78.7503 11.3049C78.7141 11.7081 78.662 12.0206 78.594 12.2426C78.5261 12.4646 78.431 12.6186 78.3086 12.7046C78.1909 12.7907 78.0369 12.8338 77.8466 12.8338C77.611 12.8338 77.3959 12.7545 77.2011 12.5959C77.0108 12.4374 76.8387 12.2132 76.6847 11.9232C76.5352 11.6333 76.4061 11.2936 76.2974 10.904C76.1932 10.5144 76.1048 10.0864 76.0324 9.61979C75.9599 9.15321 75.9055 8.66398 75.8693 8.1521C75.8331 7.63569 75.8127 7.11249 75.8081 6.58249ZM81.577 7.32313V7.91428H84.6007V7.32313H81.577ZM80.9315 6.81351H85.2802V8.42389H80.9315V6.81351ZM81.2712 10.0411V10.4352H84.8725V10.0411H81.2712ZM81.2712 10.8632V11.2709H84.8725V10.8632H81.2712ZM81.2712 9.21889V9.6062H84.8725V9.21889H81.2712ZM80.6325 8.75684H85.5384V11.7262H80.6325V8.75684ZM81.9371 11.6582L82.5215 12.0523C82.3403 12.1611 82.1274 12.2675 81.8827 12.3717C81.6427 12.4804 81.3935 12.5778 81.1353 12.6639C80.8771 12.7545 80.6302 12.8292 80.3947 12.8881C80.3403 12.8202 80.2656 12.7409 80.1704 12.6503C80.0753 12.5597 79.9892 12.4827 79.9122 12.4193C80.1523 12.3649 80.4015 12.297 80.6597 12.2154C80.9179 12.1294 81.1602 12.0388 81.3867 11.9436C81.6132 11.844 81.7967 11.7488 81.9371 11.6582ZM83.5203 12.0999L84.0843 11.6854C84.3244 11.7488 84.5758 11.8258 84.8385 11.9164C85.1058 12.007 85.3617 12.0976 85.6063 12.1882C85.8555 12.2788 86.0706 12.3626 86.2518 12.4396L85.6879 12.8949C85.5157 12.8134 85.3051 12.725 85.0559 12.6299C84.8113 12.5348 84.5531 12.4396 84.2813 12.3445C84.0141 12.2494 83.7604 12.1679 83.5203 12.0999Z" fill="#424242"/>
<rect x="112.49" y="1.57607" width="43.3205" height="15.4705" stroke="#424242" stroke-width="0.679485" stroke-dasharray="1.36 1.36"/>
<path d="M121.025 12.195L124.497 12.195V12.6775L121.025 12.6775V12.195ZM119.755 8.47825H125.421V9.63338H124.762V8.96748H120.373V9.63338H119.755V8.47825ZM120.991 9.3344H124.579V10.7681H120.991V10.2925H123.947V9.81004H120.991V9.3344ZM121.025 11.169H124.939V12.8813H124.3V11.6514H121.025V11.169ZM120.536 9.3344H121.188V12.8881H120.536V9.3344ZM122.085 8.06377L122.656 7.94825C122.724 8.04338 122.787 8.15436 122.846 8.2812C122.91 8.40351 122.953 8.51223 122.975 8.60735L122.377 8.73646C122.355 8.65039 122.314 8.54393 122.255 8.4171C122.201 8.29026 122.144 8.17248 122.085 8.06377ZM120.346 7.03095H122.486V7.53377H120.346V7.03095ZM123.152 7.03095H125.666V7.53377L123.152 7.53377V7.03095ZM120.434 6.51454L121.005 6.68441C120.914 6.89732 120.805 7.11022 120.679 7.32313C120.556 7.53603 120.423 7.73761 120.278 7.92787C120.137 8.11359 119.995 8.27667 119.85 8.4171C119.822 8.38086 119.782 8.33556 119.727 8.2812C119.673 8.22684 119.616 8.17248 119.557 8.11812C119.503 8.05923 119.456 8.01394 119.415 7.98223C119.623 7.80103 119.818 7.58133 119.999 7.32313C120.18 7.06492 120.325 6.79539 120.434 6.51454ZM123.24 6.52133L123.825 6.67082C123.72 6.94261 123.582 7.20535 123.41 7.45902C123.243 7.70817 123.064 7.91654 122.873 8.08415C122.842 8.04791 122.796 8.00714 122.737 7.96184C122.679 7.91201 122.617 7.86218 122.554 7.81236C122.495 7.76253 122.441 7.72402 122.391 7.69684C122.572 7.55189 122.737 7.37748 122.887 7.17364C123.036 6.96526 123.154 6.74783 123.24 6.52133ZM120.808 7.74441L121.202 7.41825C121.315 7.50885 121.433 7.61304 121.555 7.73082C121.682 7.84859 121.782 7.95278 121.854 8.04338L121.44 8.4103C121.372 8.3197 121.277 8.21099 121.154 8.08415C121.032 7.95731 120.916 7.84406 120.808 7.74441ZM123.77 7.77838L124.185 7.43864C124.312 7.52924 124.447 7.63795 124.592 7.76479C124.742 7.8871 124.857 7.99582 124.939 8.09094L124.504 8.47146C124.432 8.37633 124.323 8.26308 124.178 8.13171C124.038 7.99582 123.902 7.87804 123.77 7.77838ZM129.967 8.6821V9.42953H132.291V8.6821H129.967ZM129.967 7.42505V8.16569H132.291V7.42505H129.967ZM129.383 6.87467H132.903V9.97991H129.383V6.87467ZM129.322 10.6798L132.991 10.6798V11.2641L129.322 11.2641V10.6798ZM128.819 12.0795L133.215 12.0795V12.6639L128.819 12.6639V12.0795ZM126.903 7.00377H129.084V7.60172H126.903V7.00377ZM126.971 8.96748H128.982V9.55863L126.971 9.55863V8.96748ZM126.828 11.5563C127.018 11.5065 127.233 11.4453 127.473 11.3729C127.714 11.3004 127.967 11.2211 128.234 11.135C128.502 11.049 128.769 10.9629 129.036 10.8768L129.145 11.4884C128.774 11.6152 128.398 11.742 128.017 11.8689C127.637 11.9957 127.292 12.1112 126.984 12.2154L126.828 11.5563ZM127.711 7.24159H128.323V11.434L127.711 11.5427L127.711 7.24159ZM130.864 7.12608H131.414V9.71491H131.462V12.3445H130.81V9.71491H130.864V7.12608ZM135.294 9.12376H136.925V9.71491H135.294V9.12376ZM136.68 9.12376H137.306C137.306 9.12376 137.306 9.13962 137.306 9.17133C137.306 9.20304 137.303 9.23927 137.299 9.28004C137.299 9.32081 137.299 9.35479 137.299 9.38197C137.29 9.87573 137.278 10.2789 137.265 10.5914C137.251 10.904 137.231 11.1441 137.204 11.3117C137.177 11.4748 137.138 11.588 137.088 11.6514C137.029 11.7239 136.966 11.776 136.898 11.8077C136.83 11.8394 136.746 11.8621 136.647 11.8757C136.56 11.8893 136.445 11.8961 136.3 11.8961C136.155 11.8961 136.001 11.8938 135.838 11.8893C135.833 11.7941 135.815 11.69 135.784 11.5767C135.752 11.4635 135.711 11.3661 135.661 11.2845C135.802 11.2981 135.933 11.3072 136.055 11.3117C136.178 11.3162 136.268 11.3185 136.327 11.3185C136.372 11.3185 136.411 11.314 136.443 11.3049C136.479 11.2913 136.511 11.2709 136.538 11.2438C136.57 11.203 136.594 11.1147 136.613 10.9788C136.631 10.8383 136.644 10.6277 136.653 10.3468C136.667 10.066 136.676 9.69226 136.68 9.22568V9.12376ZM138.644 6.94941L139.038 6.5621C139.174 6.63005 139.317 6.70932 139.466 6.79992C139.616 6.88599 139.756 6.97432 139.888 7.06492C140.019 7.15552 140.128 7.23932 140.214 7.31633L139.806 7.7512C139.725 7.67419 139.618 7.58813 139.487 7.493C139.36 7.39787 139.222 7.30274 139.072 7.20761C138.927 7.11249 138.785 7.02642 138.644 6.94941ZM139.548 8.75684L140.193 8.91312C139.908 9.79645 139.514 10.5711 139.011 11.237C138.513 11.9029 137.922 12.4419 137.238 12.8541C137.21 12.8043 137.167 12.7454 137.109 12.6775C137.05 12.6141 136.991 12.5484 136.932 12.4804C136.873 12.417 136.819 12.3649 136.769 12.3241C137.444 11.9617 138.015 11.477 138.481 10.87C138.948 10.263 139.303 9.55863 139.548 8.75684ZM135.335 7.66966L140.588 7.66966V8.30158H135.335V7.66966ZM134.907 7.66966H135.58V9.61979C135.58 9.86893 135.571 10.1385 135.553 10.4284C135.534 10.7183 135.5 11.015 135.451 11.3185C135.401 11.6175 135.328 11.9074 135.233 12.1882C135.138 12.4691 135.011 12.7205 134.853 12.9425C134.821 12.9017 134.769 12.8519 134.696 12.793C134.628 12.7341 134.558 12.6775 134.486 12.6231C134.418 12.5733 134.359 12.5348 134.309 12.5076C134.495 12.2358 134.628 11.9323 134.71 11.5971C134.796 11.2573 134.85 10.9153 134.873 10.5711C134.896 10.2268 134.907 9.90743 134.907 9.61299V7.66966ZM137.707 6.58249L138.379 6.58249C138.375 7.18043 138.395 7.75573 138.44 8.30838C138.486 8.8565 138.551 9.36611 138.637 9.83722C138.723 10.3083 138.825 10.7183 138.943 11.0671C139.061 11.4159 139.192 11.6877 139.337 11.8825C139.487 12.0773 139.639 12.1746 139.793 12.1746C139.883 12.1746 139.951 12.0795 139.996 11.8893C140.042 11.699 140.073 11.3842 140.092 10.9448C140.169 11.0173 140.259 11.0875 140.363 11.1554C140.467 11.2234 140.563 11.2732 140.649 11.3049C140.612 11.7081 140.56 12.0206 140.492 12.2426C140.424 12.4646 140.329 12.6186 140.207 12.7046C140.089 12.7907 139.935 12.8338 139.745 12.8338C139.509 12.8338 139.294 12.7545 139.099 12.5959C138.909 12.4374 138.737 12.2132 138.583 11.9232C138.434 11.6333 138.304 11.2936 138.196 10.904C138.092 10.5144 138.003 10.0864 137.931 9.61979C137.858 9.15321 137.804 8.66398 137.768 8.1521C137.731 7.63569 137.711 7.11249 137.707 6.58249ZM143.475 7.32313V7.91428L146.499 7.91428V7.32313L143.475 7.32313ZM142.83 6.81351L147.179 6.81351V8.42389H142.83V6.81351ZM143.17 10.0411V10.4352H146.771V10.0411H143.17ZM143.17 10.8632V11.2709H146.771V10.8632H143.17ZM143.17 9.21889V9.6062H146.771V9.21889H143.17ZM142.531 8.75684H147.437V11.7262H142.531V8.75684ZM143.835 11.6582L144.42 12.0523C144.239 12.1611 144.026 12.2675 143.781 12.3717C143.541 12.4804 143.292 12.5778 143.034 12.6639C142.775 12.7545 142.529 12.8292 142.293 12.8881C142.239 12.8202 142.164 12.7409 142.069 12.6503C141.974 12.5597 141.888 12.4827 141.811 12.4193C142.051 12.3649 142.3 12.297 142.558 12.2154C142.816 12.1294 143.059 12.0388 143.285 11.9436C143.512 11.844 143.695 11.7488 143.835 11.6582ZM145.419 12.0999L145.983 11.6854C146.223 11.7488 146.474 11.8258 146.737 11.9164C147.004 12.007 147.26 12.0976 147.505 12.1882C147.754 12.2788 147.969 12.3626 148.15 12.4396L147.586 12.8949C147.414 12.8134 147.203 12.725 146.954 12.6299C146.71 12.5348 146.451 12.4396 146.18 12.3445C145.912 12.2494 145.659 12.1679 145.419 12.0999Z" fill="#424242"/>
<rect x="65.5398" y="23.7265" width="28.3205" height="15.4705" stroke="#424242" stroke-width="0.679485"/>
<path d="M74.4084 31.6343H78.7843V32.2594H74.4084V31.6343ZM74.6122 34.1688H78.628V34.7803H74.6122V34.1688ZM76.2838 29.7385H76.9361V34.393H76.2838V29.7385ZM73.4096 30.6354L74.0347 30.0103L74.0415 30.0171V35.0181H73.4096V30.6354ZM74.1162 28.7669L74.7481 28.9639C74.5896 29.3625 74.4016 29.7566 74.1842 30.1462C73.9667 30.5358 73.7312 30.9004 73.4775 31.2402C73.2238 31.5799 72.9634 31.8812 72.6961 32.1439C72.6734 32.0895 72.6395 32.0216 72.5942 31.94C72.5489 31.854 72.499 31.7679 72.4447 31.6818C72.3949 31.5958 72.3496 31.5278 72.3088 31.478C72.5489 31.2606 72.7799 31.0092 73.0019 30.7238C73.2284 30.4339 73.4367 30.1236 73.627 29.7929C73.8172 29.4577 73.9803 29.1157 74.1162 28.7669ZM74.8229 29.3648H78.5057V29.9695H74.8229V29.3648ZM80.0549 29.0522H82.3312V29.5958H80.0549V29.0522ZM82.7185 32.5312H85.5859V33.0748H82.7185V32.5312ZM79.9666 31.1111H82.5147V31.6818H79.9666V31.1111ZM81.1285 31.3421H81.7332V34.3182C81.7332 34.4677 81.7151 34.5878 81.6789 34.6784C81.6472 34.7735 81.5792 34.8482 81.475 34.9026C81.3799 34.9479 81.2576 34.9751 81.1081 34.9841C80.9632 34.9977 80.7865 35.0045 80.5781 35.0045C80.5645 34.9185 80.5396 34.8165 80.5034 34.6988C80.4671 34.5855 80.4286 34.4859 80.3879 34.3998C80.5283 34.4043 80.6574 34.4088 80.7752 34.4134C80.893 34.4134 80.9745 34.4111 81.0198 34.4066C81.0606 34.402 81.0877 34.3953 81.1013 34.3862C81.1194 34.3726 81.1285 34.3454 81.1285 34.3047V31.3421ZM85.3753 32.5312H86.0276C86.0276 32.5312 86.0253 32.5652 86.0208 32.6331C86.0163 32.6965 86.0117 32.7509 86.0072 32.7962C85.9664 33.2039 85.9234 33.5414 85.8781 33.8086C85.8373 34.0714 85.792 34.2775 85.7422 34.427C85.6924 34.5764 85.6335 34.6874 85.5655 34.7599C85.4976 34.8279 85.4274 34.8754 85.3549 34.9026C85.2824 34.9298 85.1986 34.9502 85.1035 34.9638C85.022 34.9728 84.9132 34.9773 84.7773 34.9773C84.646 34.9773 84.501 34.9751 84.3425 34.9706C84.3379 34.88 84.3198 34.778 84.2881 34.6648C84.2564 34.5515 84.2179 34.4541 84.1726 34.3726C84.3085 34.3862 84.4331 34.3953 84.5463 34.3998C84.6641 34.4043 84.7502 34.4066 84.8045 34.4066C84.8589 34.4066 84.9019 34.402 84.9336 34.393C84.9699 34.3839 85.0038 34.3635 85.0355 34.3318C85.0808 34.2865 85.1239 34.2027 85.1646 34.0804C85.2054 33.9536 85.2417 33.7724 85.2734 33.5368C85.3096 33.3013 85.3436 32.9978 85.3753 32.6263V32.5312ZM83.894 31.8857H84.5395C84.5078 32.2345 84.458 32.5652 84.39 32.8777C84.3221 33.1903 84.2179 33.4825 84.0775 33.7543C83.937 34.0215 83.7423 34.2639 83.4931 34.4813C83.2485 34.6988 82.9291 34.8845 82.535 35.0385C82.4988 34.9615 82.4444 34.8732 82.372 34.7735C82.2995 34.6738 82.2293 34.5946 82.1613 34.5357C82.5147 34.4088 82.7978 34.2526 83.0107 34.0668C83.2281 33.8811 83.3957 33.675 83.5135 33.4485C83.6358 33.222 83.7241 32.9774 83.7785 32.7147C83.8329 32.4519 83.8714 32.1756 83.894 31.8857ZM80.2588 30.3093L80.6597 29.8948C80.8499 29.9673 81.047 30.0556 81.2508 30.1598C81.4592 30.2595 81.6562 30.3659 81.842 30.4792C82.0322 30.5879 82.1885 30.6921 82.3108 30.7917L81.8827 31.2538C81.7695 31.1541 81.62 31.0477 81.4343 30.9344C81.2531 30.8166 81.0583 30.7034 80.8499 30.5947C80.6461 30.4814 80.449 30.3863 80.2588 30.3093ZM82.3516 31.1111H82.4399L82.5282 31.0839L82.9223 31.213C82.8589 31.512 82.7797 31.8177 82.6845 32.1303C82.5939 32.4383 82.4988 32.7033 82.3991 32.9253L81.9575 32.7079C82.0345 32.5176 82.1092 32.2843 82.1817 32.008C82.2542 31.7271 82.3108 31.4621 82.3516 31.213V31.1111ZM85.0695 29.691L85.7422 29.7929C85.5882 30.2096 85.3753 30.5652 85.1035 30.8597C84.8362 31.1541 84.5214 31.401 84.159 31.6003C83.7966 31.7996 83.3957 31.965 82.9563 32.0963C82.9337 32.051 82.8974 31.9944 82.8476 31.9265C82.8023 31.8585 82.7525 31.7928 82.6981 31.7294C82.6483 31.6615 82.6007 31.6071 82.5554 31.5663C82.9767 31.4667 83.355 31.3376 83.6902 31.179C84.0299 31.0159 84.3176 30.8121 84.5531 30.5675C84.7887 30.3183 84.9608 30.0262 85.0695 29.691ZM83.663 28.7193L84.2677 28.8892C84.159 29.1292 84.0299 29.3625 83.8804 29.589C83.7309 29.8155 83.5701 30.0284 83.398 30.2277C83.2304 30.4225 83.0605 30.5947 82.8884 30.7442C82.8476 30.7079 82.7955 30.6671 82.7321 30.6218C82.6687 30.572 82.603 30.5267 82.535 30.4859C82.4716 30.4407 82.4127 30.4044 82.3584 30.3772C82.6256 30.1779 82.8748 29.9333 83.1058 29.6434C83.3414 29.3489 83.5271 29.0409 83.663 28.7193ZM83.6358 29.8472C83.7944 30.1281 84.005 30.384 84.2677 30.6151C84.5305 30.8415 84.834 31.0363 85.1782 31.1994C85.527 31.3625 85.9008 31.4871 86.2994 31.5731C86.2541 31.6139 86.2043 31.666 86.1499 31.7294C86.1001 31.7928 86.0525 31.8585 86.0072 31.9265C85.9619 31.9944 85.9234 32.0578 85.8917 32.1167C85.4749 32.008 85.0899 31.8562 84.7366 31.6615C84.3832 31.4621 84.0684 31.2243 83.7921 30.948C83.5158 30.6717 83.2847 30.3636 83.099 30.0239L83.6358 29.8472ZM81.0538 31.3013L81.4818 31.4644C81.3958 31.7634 81.2871 32.0714 81.1557 32.3885C81.0243 32.7011 80.8771 32.9932 80.714 33.265C80.5555 33.5323 80.3811 33.7543 80.1908 33.9309C80.1636 33.8403 80.1183 33.7384 80.0549 33.6252C79.9915 33.5074 79.9326 33.4055 79.8783 33.3194C80.0459 33.1699 80.2044 32.9865 80.3539 32.769C80.5034 32.5471 80.6393 32.3092 80.7616 32.0556C80.8839 31.8019 80.9813 31.5505 81.0538 31.3013ZM83.5679 29.426L86.1431 29.426V29.9695L83.3097 29.9695L83.5679 29.426ZM82.1749 29.0522H82.3176L82.4195 29.0251L82.8272 29.2833C82.7276 29.4418 82.6053 29.6049 82.4603 29.7725C82.3153 29.9401 82.1613 30.0964 81.9982 30.2413C81.8352 30.3863 81.6721 30.5131 81.509 30.6218C81.4547 30.572 81.3844 30.5177 81.2984 30.4588C81.2168 30.3999 81.1444 30.3501 81.0809 30.3093C81.2259 30.2096 81.3686 30.0941 81.509 29.9627C81.6494 29.8314 81.7785 29.6955 81.8963 29.5551C82.0141 29.4146 82.107 29.2855 82.1749 29.1677V29.0522Z" fill="#424242"/>
<rect x="112.49" y="23.7265" width="43.3205" height="15.4705" stroke="#424242" stroke-width="0.679485" stroke-dasharray="1.36 1.36"/>
<path d="M123.213 30.9956H125.693V31.5935H123.213V30.9956ZM119.544 29.4192H122.568V29.9492H119.544V29.4192ZM119.469 32.1167H122.581V32.6671H119.469V32.1167ZM119.435 30.9548H122.676V31.4916H119.435V30.9548ZM124.368 31.2538H124.993V34.9977H124.368V31.2538ZM119.945 30.0918L120.468 29.9695C120.527 30.1009 120.579 30.2459 120.624 30.4044C120.674 30.563 120.708 30.6989 120.726 30.8121L120.183 30.9616C120.169 30.8438 120.14 30.7034 120.094 30.5403C120.053 30.3772 120.004 30.2277 119.945 30.0918ZM121.637 29.956L122.228 30.0783C122.155 30.2685 122.081 30.461 122.004 30.6558C121.927 30.8506 121.854 31.0159 121.786 31.1518L121.263 31.0363C121.308 30.9367 121.354 30.8234 121.399 30.6966C121.444 30.5698 121.487 30.4407 121.528 30.3093C121.573 30.1779 121.61 30.0601 121.637 29.956ZM125.068 28.8212L125.571 29.2969C125.349 29.3829 125.1 29.4622 124.823 29.5347C124.552 29.6026 124.273 29.6638 123.988 29.7181C123.707 29.7725 123.431 29.8201 123.159 29.8608C123.145 29.7929 123.118 29.7113 123.077 29.6162C123.041 29.5211 123.002 29.4418 122.962 29.3784C123.22 29.3331 123.478 29.281 123.736 29.2221C123.995 29.1632 124.239 29.0998 124.47 29.0319C124.706 28.9594 124.905 28.8892 125.068 28.8212ZM120.55 28.8348L121.188 28.6717C121.265 28.8122 121.34 28.9684 121.412 29.1406C121.489 29.3082 121.546 29.4531 121.582 29.5754L120.916 29.7657C120.885 29.6389 120.833 29.4894 120.76 29.3172C120.692 29.1406 120.622 28.9798 120.55 28.8348ZM122.962 29.3784H123.566V31.7634C123.566 32.0125 123.557 32.2798 123.539 32.5652C123.526 32.8506 123.494 33.1382 123.444 33.4281C123.394 33.718 123.324 33.9989 123.233 34.2707C123.143 34.5425 123.021 34.7871 122.867 35.0045C122.835 34.9638 122.787 34.9185 122.724 34.8686C122.665 34.8188 122.602 34.7712 122.534 34.7259C122.47 34.6806 122.416 34.6467 122.371 34.624C122.552 34.3567 122.685 34.0578 122.771 33.7271C122.858 33.3964 122.91 33.0612 122.928 32.7215C122.95 32.3817 122.962 32.0624 122.962 31.7634V29.3784ZM121.657 33.1359L122.085 32.9049C122.198 33.068 122.307 33.2469 122.411 33.4417C122.515 33.632 122.595 33.7973 122.649 33.9377L122.207 34.2027C122.153 34.0623 122.072 33.8902 121.963 33.6863C121.859 33.4825 121.757 33.299 121.657 33.1359ZM120.026 32.9661L120.529 33.1088C120.448 33.3534 120.341 33.6025 120.21 33.8562C120.083 34.1053 119.956 34.3182 119.829 34.4949C119.779 34.4496 119.709 34.3975 119.619 34.3386C119.533 34.2752 119.458 34.2276 119.394 34.1959C119.521 34.0329 119.639 33.8426 119.748 33.6252C119.861 33.4032 119.954 33.1835 120.026 32.9661ZM120.794 31.247H121.419V34.9977H120.794V31.247ZM126.964 30.3704H128.894V30.9616H126.964V30.3704ZM127.643 28.8076H128.241L128.241 33.367H127.643V28.8076ZM126.869 33.5165C127.122 33.4394 127.428 33.3375 127.786 33.2107C128.144 33.0793 128.506 32.9457 128.873 32.8098L128.996 33.3806C128.665 33.5165 128.332 33.6524 127.997 33.7882C127.661 33.9196 127.353 34.0419 127.073 34.1552L126.869 33.5165ZM129.587 28.9503L130.123 28.7261C130.223 28.8439 130.318 28.9752 130.409 29.1202C130.504 29.2606 130.574 29.3852 130.619 29.4939L130.056 29.7657C130.01 29.6524 129.942 29.5211 129.852 29.3716C129.766 29.2176 129.677 29.0772 129.587 28.9503ZM131.856 28.7057L132.529 28.9231C132.407 29.0998 132.282 29.281 132.155 29.4667C132.028 29.6479 131.911 29.8019 131.802 29.9288L131.306 29.7317C131.369 29.6366 131.435 29.5301 131.503 29.4124C131.575 29.2901 131.643 29.1677 131.707 29.0454C131.77 28.9231 131.82 28.8099 131.856 28.7057ZM130.742 29.922H131.224V31.7906H130.742V29.922ZM129.879 33.333H132.277V33.795H129.879V33.333ZM129.872 34.2163H132.271V34.692H129.872V34.2163ZM129.485 32.3749H132.536V35.0181H131.931V32.8574H130.076V35.0181H129.485V32.3749ZM129.668 30.1462V31.5731H132.298V30.1462L129.668 30.1462ZM129.145 29.7113L132.841 29.7113V32.008H129.145V29.7113ZM129.811 30.4316L130.157 30.3093C130.257 30.4542 130.35 30.6151 130.436 30.7917C130.522 30.9684 130.579 31.1224 130.606 31.2538L130.239 31.4033C130.207 31.2719 130.151 31.1156 130.069 30.9344C129.992 30.7532 129.906 30.5856 129.811 30.4316ZM131.802 30.3093L132.209 30.4588C132.119 30.6264 132.021 30.7962 131.917 30.9684C131.818 31.1405 131.725 31.2877 131.639 31.41L131.319 31.2809C131.374 31.1903 131.43 31.0884 131.489 30.9752C131.553 30.8619 131.612 30.7464 131.666 30.6286C131.72 30.5109 131.766 30.4044 131.802 30.3093ZM136.307 31.6343H140.683V32.2594H136.307V31.6343ZM136.511 34.1688H140.526V34.7803H136.511V34.1688ZM138.182 29.7385H138.834V34.393H138.182V29.7385ZM135.308 30.6354L135.933 30.0103L135.94 30.0171V35.0181H135.308V30.6354ZM136.015 28.7669L136.647 28.9639C136.488 29.3625 136.3 29.7566 136.083 30.1462C135.865 30.5358 135.63 30.9004 135.376 31.2402C135.122 31.5799 134.862 31.8812 134.594 32.1439C134.572 32.0895 134.538 32.0216 134.493 31.94C134.447 31.854 134.397 31.7679 134.343 31.6818C134.293 31.5958 134.248 31.5278 134.207 31.478C134.447 31.2606 134.678 31.0092 134.9 30.7238C135.127 30.4339 135.335 30.1236 135.525 29.7929C135.716 29.4577 135.879 29.1157 136.015 28.7669ZM136.721 29.3648H140.404V29.9695H136.721V29.3648ZM141.953 29.0522H144.23V29.5958H141.953V29.0522ZM144.617 32.5312H147.484V33.0748H144.617V32.5312ZM141.865 31.1111H144.413V31.6818H141.865V31.1111ZM143.027 31.3421H143.632V34.3182C143.632 34.4677 143.614 34.5878 143.577 34.6784C143.546 34.7735 143.478 34.8482 143.373 34.9026C143.278 34.9479 143.156 34.9751 143.007 34.9841C142.862 34.9977 142.685 35.0045 142.477 35.0045C142.463 34.9185 142.438 34.8165 142.402 34.6988C142.366 34.5855 142.327 34.4859 142.286 34.3998C142.427 34.4043 142.556 34.4088 142.674 34.4134C142.791 34.4134 142.873 34.4111 142.918 34.4066C142.959 34.402 142.986 34.3953 143 34.3862C143.018 34.3726 143.027 34.3454 143.027 34.3047V31.3421ZM147.274 32.5312H147.926C147.926 32.5312 147.924 32.5652 147.919 32.6331C147.915 32.6965 147.91 32.7509 147.906 32.7962C147.865 33.2039 147.822 33.5414 147.776 33.8086C147.736 34.0714 147.69 34.2775 147.641 34.427C147.591 34.5764 147.532 34.6874 147.464 34.7599C147.396 34.8279 147.326 34.8754 147.253 34.9026C147.181 34.9298 147.097 34.9502 147.002 34.9638C146.92 34.9728 146.812 34.9773 146.676 34.9773C146.544 34.9773 146.399 34.9751 146.241 34.9706C146.236 34.88 146.218 34.778 146.186 34.6648C146.155 34.5515 146.116 34.4541 146.071 34.3726C146.207 34.3862 146.331 34.3953 146.445 34.3998C146.562 34.4043 146.649 34.4066 146.703 34.4066C146.757 34.4066 146.8 34.402 146.832 34.393C146.868 34.3839 146.902 34.3635 146.934 34.3318C146.979 34.2865 147.022 34.2027 147.063 34.0804C147.104 33.9536 147.14 33.7724 147.172 33.5368C147.208 33.3013 147.242 32.9978 147.274 32.6263V32.5312ZM145.792 31.8857H146.438C146.406 32.2345 146.356 32.5652 146.288 32.8777C146.22 33.1903 146.116 33.4825 145.976 33.7543C145.835 34.0215 145.641 34.2639 145.391 34.4813C145.147 34.6988 144.828 34.8845 144.433 35.0385C144.397 34.9615 144.343 34.8732 144.27 34.7735C144.198 34.6738 144.128 34.5946 144.06 34.5357C144.413 34.4088 144.696 34.2526 144.909 34.0668C145.126 33.8811 145.294 33.675 145.412 33.4485C145.534 33.222 145.623 32.9774 145.677 32.7147C145.731 32.4519 145.77 32.1756 145.792 31.8857ZM142.157 30.3093L142.558 29.8948C142.748 29.9673 142.945 30.0556 143.149 30.1598C143.358 30.2595 143.555 30.3659 143.74 30.4792C143.931 30.5879 144.087 30.6921 144.209 30.7917L143.781 31.2538C143.668 31.1541 143.518 31.0477 143.333 30.9344C143.151 30.8166 142.957 30.7034 142.748 30.5947C142.544 30.4814 142.347 30.3863 142.157 30.3093ZM144.25 31.1111H144.338L144.427 31.0839L144.821 31.213C144.757 31.512 144.678 31.8177 144.583 32.1303C144.492 32.4383 144.397 32.7033 144.298 32.9253L143.856 32.7079C143.933 32.5176 144.008 32.2843 144.08 32.008C144.153 31.7271 144.209 31.4621 144.25 31.213V31.1111ZM146.968 29.691L147.641 29.7929C147.487 30.2096 147.274 30.5652 147.002 30.8597C146.735 31.1541 146.42 31.401 146.057 31.6003C145.695 31.7996 145.294 31.965 144.855 32.0963C144.832 32.051 144.796 31.9944 144.746 31.9265C144.701 31.8585 144.651 31.7928 144.596 31.7294C144.547 31.6615 144.499 31.6071 144.454 31.5663C144.875 31.4667 145.253 31.3376 145.589 31.179C145.928 31.0159 146.216 30.8121 146.451 30.5675C146.687 30.3183 146.859 30.0262 146.968 29.691ZM145.561 28.7193L146.166 28.8892C146.057 29.1292 145.928 29.3625 145.779 29.589C145.629 29.8155 145.469 30.0284 145.296 30.2277C145.129 30.4225 144.959 30.5947 144.787 30.7442C144.746 30.7079 144.694 30.6671 144.63 30.6218C144.567 30.572 144.501 30.5267 144.433 30.4859C144.37 30.4407 144.311 30.4044 144.257 30.3772C144.524 30.1779 144.773 29.9333 145.004 29.6434C145.24 29.3489 145.425 29.0409 145.561 28.7193ZM145.534 29.8472C145.693 30.1281 145.903 30.384 146.166 30.6151C146.429 30.8415 146.732 31.0363 147.077 31.1994C147.425 31.3625 147.799 31.4871 148.198 31.5731C148.152 31.6139 148.103 31.666 148.048 31.7294C147.998 31.7928 147.951 31.8585 147.906 31.9265C147.86 31.9944 147.822 32.0578 147.79 32.1167C147.373 32.008 146.988 31.8562 146.635 31.6615C146.282 31.4621 145.967 31.2243 145.69 30.948C145.414 30.6717 145.183 30.3636 144.997 30.0239L145.534 29.8472ZM142.952 31.3013L143.38 31.4644C143.294 31.7634 143.185 32.0714 143.054 32.3885C142.923 32.7011 142.775 32.9932 142.612 33.265C142.454 33.5323 142.279 33.7543 142.089 33.9309C142.062 33.8403 142.017 33.7384 141.953 33.6252C141.89 33.5074 141.831 33.4055 141.777 33.3194C141.944 33.1699 142.103 32.9865 142.252 32.769C142.402 32.5471 142.538 32.3092 142.66 32.0556C142.782 31.8019 142.88 31.5505 142.952 31.3013ZM145.466 29.426H148.041V29.9695H145.208L145.466 29.426ZM144.073 29.0522H144.216L144.318 29.0251L144.726 29.2833C144.626 29.4418 144.504 29.6049 144.359 29.7725C144.214 29.9401 144.06 30.0964 143.897 30.2413C143.734 30.3863 143.57 30.5131 143.407 30.6218C143.353 30.572 143.283 30.5177 143.197 30.4588C143.115 30.3999 143.043 30.3501 142.979 30.3093C143.124 30.2096 143.267 30.0941 143.407 29.9627C143.548 29.8314 143.677 29.6955 143.795 29.5551C143.912 29.4146 144.005 29.2855 144.073 29.1677V29.0522Z" fill="#424242"/>
<rect x="65.5398" y="45.8769" width="28.3205" height="15.4705" stroke="#424242" stroke-width="0.679485"/>
<path d="M76.8817 52.3578H78.7571V52.9489H76.8817V52.3578ZM75.781 56.2988H78.166V56.8763H75.781V56.2988ZM75.4684 54.1516H78.4513V57.1549H77.8262V54.7224H76.0663V57.1821H75.4684V54.1516ZM76.542 50.8833H77.1807V54.4098H76.542V50.8833ZM73.1717 55.5649L73.7765 55.7144C73.6768 55.9907 73.5477 56.2625 73.3892 56.5298C73.2352 56.7925 73.0721 57.0145 72.8999 57.1957C72.8637 57.1594 72.8139 57.1164 72.7505 57.0666C72.687 57.0213 72.6214 56.976 72.5534 56.9307C72.49 56.8899 72.4334 56.8559 72.3835 56.8288C72.5557 56.6747 72.7097 56.4868 72.8456 56.2648C72.9815 56.0383 73.0902 55.805 73.1717 55.5649ZM74.0822 55.7824L74.5987 55.5513C74.7346 55.7189 74.8659 55.9047 74.9928 56.1085C75.1196 56.3124 75.2147 56.4913 75.2781 56.6453L74.7346 56.9103C74.6802 56.7563 74.5896 56.5728 74.4628 56.3599C74.3405 56.147 74.2136 55.9545 74.0822 55.7824ZM73.3552 52.9081V53.676H74.4356V52.9081H73.3552ZM73.3552 54.1652V54.9398H74.4356V54.1652H73.3552ZM73.3552 51.6579V52.4189H74.4356V51.6579H73.3552ZM72.7708 51.1415H75.0471V55.463H72.7708V51.1415ZM84.4988 52.3442L85.1646 52.5276C84.8838 53.3566 84.5191 54.0701 84.0707 54.668C83.6267 55.2659 83.0922 55.7688 82.4671 56.1765C81.842 56.5796 81.1149 56.9103 80.2859 57.1685C80.2588 57.1187 80.2225 57.0553 80.1772 56.9783C80.1319 56.9012 80.0821 56.8242 80.0277 56.7472C79.9779 56.6747 79.9303 56.6136 79.885 56.5638C80.6959 56.3463 81.4003 56.0542 81.9982 55.6872C82.5962 55.3203 83.1013 54.8628 83.5135 54.3147C83.9257 53.7666 84.2541 53.1097 84.4988 52.3442ZM81.6109 52.3849C81.8601 53.0689 82.1976 53.6895 82.6234 54.2467C83.0537 54.7994 83.5724 55.2705 84.1794 55.66C84.7909 56.0496 85.4908 56.3418 86.279 56.5366C86.2337 56.5819 86.1816 56.6408 86.1227 56.7133C86.0684 56.7857 86.0163 56.8582 85.9664 56.9307C85.9166 57.0032 85.8758 57.0711 85.8441 57.1345C85.0242 56.908 84.304 56.5841 83.6834 56.1629C83.0673 55.7416 82.5396 55.2297 82.1002 54.6272C81.6653 54.0202 81.3052 53.3339 81.0198 52.5684L81.6109 52.3849ZM80.0006 52.052H86.1771V52.6771H80.0006V52.052ZM82.5147 51.0192L83.1941 50.8153C83.2938 50.9784 83.3912 51.1573 83.4863 51.3521C83.586 51.5469 83.6562 51.7168 83.697 51.8617L82.9835 52.086C82.9473 51.9455 82.8838 51.7757 82.7932 51.5763C82.7026 51.3725 82.6098 51.1868 82.5147 51.0192Z" fill="#424242"/>
<rect x="112.49" y="45.8769" width="43.3205" height="15.4705" stroke="#424242" stroke-width="0.679485" stroke-dasharray="1.36 1.36"/>
<path d="M123.213 53.146H125.693V53.7439H123.213V53.146ZM119.544 51.5695H122.568V52.0995H119.544V51.5695ZM119.469 54.2671H122.581V54.8175H119.469V54.2671ZM119.435 53.1052H122.676V53.642H119.435V53.1052ZM124.368 53.4042H124.993V57.1481H124.368V53.4042ZM119.945 52.2422L120.468 52.1199C120.527 52.2513 120.579 52.3963 120.624 52.5548C120.674 52.7133 120.708 52.8492 120.726 52.9625L120.183 53.112C120.169 52.9942 120.14 52.8538 120.094 52.6907C120.053 52.5276 120.004 52.3781 119.945 52.2422ZM121.637 52.1063L122.228 52.2286C122.155 52.4189 122.081 52.6114 122.004 52.8062C121.927 53.001 121.854 53.1663 121.786 53.3022L121.263 53.1867C121.308 53.0871 121.354 52.9738 121.399 52.847C121.444 52.7201 121.487 52.591 121.528 52.4597C121.573 52.3283 121.61 52.2105 121.637 52.1063ZM125.068 50.9716L125.571 51.4472C125.349 51.5333 125.1 51.6126 124.823 51.6851C124.552 51.753 124.273 51.8142 123.988 51.8685C123.707 51.9229 123.431 51.9704 123.159 52.0112C123.145 51.9433 123.118 51.8617 123.077 51.7666C123.041 51.6715 123.002 51.5922 122.962 51.5288C123.22 51.4835 123.478 51.4314 123.736 51.3725C123.995 51.3136 124.239 51.2502 124.47 51.1822C124.706 51.1098 124.905 51.0396 125.068 50.9716ZM120.55 50.9852L121.188 50.8221C121.265 50.9625 121.34 51.1188 121.412 51.291C121.489 51.4586 121.546 51.6035 121.582 51.7258L120.916 51.9161C120.885 51.7892 120.833 51.6398 120.76 51.4676C120.692 51.291 120.622 51.1301 120.55 50.9852ZM122.962 51.5288H123.566V53.9138C123.566 54.1629 123.557 54.4302 123.539 54.7156C123.526 55.0009 123.494 55.2886 123.444 55.5785C123.394 55.8684 123.324 56.1493 123.233 56.4211C123.143 56.6929 123.021 56.9375 122.867 57.1549C122.835 57.1141 122.787 57.0688 122.724 57.019C122.665 56.9692 122.602 56.9216 122.534 56.8763C122.47 56.831 122.416 56.7971 122.371 56.7744C122.552 56.5071 122.685 56.2082 122.771 55.8775C122.858 55.5468 122.91 55.2116 122.928 54.8718C122.95 54.5321 122.962 54.2127 122.962 53.9138V51.5288ZM121.657 55.2863L122.085 55.0553C122.198 55.2184 122.307 55.3973 122.411 55.5921C122.515 55.7824 122.595 55.9477 122.649 56.0881L122.207 56.3531C122.153 56.2127 122.072 56.0406 121.963 55.8367C121.859 55.6329 121.757 55.4494 121.657 55.2863ZM120.026 55.1165L120.529 55.2592C120.448 55.5038 120.341 55.7529 120.21 56.0066C120.083 56.2557 119.956 56.4686 119.829 56.6453C119.779 56.6 119.709 56.5479 119.619 56.489C119.533 56.4256 119.458 56.378 119.394 56.3463C119.521 56.1833 119.639 55.993 119.748 55.7756C119.861 55.5536 119.954 55.3339 120.026 55.1165ZM120.794 53.3974H121.419V57.1481H120.794V53.3974ZM126.964 52.5208H128.894V53.112H126.964V52.5208ZM127.643 50.958H128.241L128.241 55.5174H127.643V50.958ZM126.869 55.6668C127.122 55.5898 127.428 55.4879 127.786 55.3611C128.144 55.2297 128.506 55.0961 128.873 54.9602L128.996 55.5309C128.665 55.6668 128.332 55.8027 127.997 55.9386C127.661 56.07 127.353 56.1923 127.073 56.3056L126.869 55.6668ZM129.587 51.1007L130.123 50.8765C130.223 50.9943 130.318 51.1256 130.409 51.2706C130.504 51.411 130.574 51.5356 130.619 51.6443L130.056 51.9161C130.01 51.8028 129.942 51.6715 129.852 51.522C129.766 51.368 129.677 51.2275 129.587 51.1007ZM131.856 50.8561L132.529 51.0735C132.407 51.2502 132.282 51.4314 132.155 51.6171C132.028 51.7983 131.911 51.9523 131.802 52.0792L131.306 51.8821C131.369 51.787 131.435 51.6805 131.503 51.5628C131.575 51.4404 131.643 51.3181 131.707 51.1958C131.77 51.0735 131.82 50.9603 131.856 50.8561ZM130.742 52.0724H131.224V53.941H130.742V52.0724ZM129.879 55.4834H132.277V55.9454H129.879V55.4834ZM129.872 56.3667H132.271V56.8424H129.872V56.3667ZM129.485 54.5253H132.536V57.1685H131.931V55.0077H130.076V57.1685H129.485V54.5253ZM129.668 52.2966V53.7235H132.298V52.2966H129.668ZM129.145 51.8617H132.841V54.1584H129.145V51.8617ZM129.811 52.582L130.157 52.4597C130.257 52.6046 130.35 52.7654 130.436 52.9421C130.522 53.1188 130.579 53.2728 130.606 53.4042L130.239 53.5536C130.207 53.4223 130.151 53.266 130.069 53.0848C129.992 52.9036 129.906 52.736 129.811 52.582ZM131.802 52.4597L132.209 52.6092C132.119 52.7768 132.021 52.9466 131.917 53.1188C131.818 53.2909 131.725 53.4381 131.639 53.5604L131.319 53.4313C131.374 53.3407 131.43 53.2388 131.489 53.1256C131.553 53.0123 131.612 52.8968 131.666 52.779C131.72 52.6613 131.766 52.5548 131.802 52.4597ZM138.78 52.3578H140.655V52.9489H138.78V52.3578ZM137.679 56.2988H140.064V56.8763H137.679V56.2988ZM137.367 54.1516H140.35V57.1549H139.725V54.7224H137.965V57.1821H137.367V54.1516ZM138.44 50.8833H139.079V54.4098H138.44V50.8833ZM135.07 55.5649L135.675 55.7144C135.575 55.9907 135.446 56.2625 135.288 56.5298C135.134 56.7925 134.97 57.0145 134.798 57.1957C134.762 57.1594 134.712 57.1164 134.649 57.0666C134.585 57.0213 134.52 56.976 134.452 56.9307C134.388 56.8899 134.332 56.8559 134.282 56.8288C134.454 56.6747 134.608 56.4868 134.744 56.2648C134.88 56.0383 134.989 55.805 135.07 55.5649ZM135.981 55.7824L136.497 55.5513C136.633 55.7189 136.764 55.9047 136.891 56.1085C137.018 56.3124 137.113 56.4913 137.177 56.6453L136.633 56.9103C136.579 56.7563 136.488 56.5728 136.361 56.3599C136.239 56.147 136.112 55.9545 135.981 55.7824ZM135.254 52.9081V53.676H136.334V52.9081H135.254ZM135.254 54.1652V54.9398H136.334V54.1652H135.254ZM135.254 51.6579V52.4189H136.334V51.6579H135.254ZM134.669 51.1415H136.945V55.463H134.669V51.1415ZM146.397 52.3442L147.063 52.5276C146.782 53.3566 146.418 54.0701 145.969 54.668C145.525 55.2659 144.991 55.7688 144.365 56.1765C143.74 56.5796 143.013 56.9103 142.184 57.1685C142.157 57.1187 142.121 57.0553 142.076 56.9783C142.03 56.9012 141.98 56.8242 141.926 56.7472C141.876 56.6747 141.829 56.6136 141.783 56.5638C142.594 56.3463 143.299 56.0542 143.897 55.6872C144.495 55.3203 145 54.8628 145.412 54.3147C145.824 53.7666 146.153 53.1097 146.397 52.3442ZM143.509 52.3849C143.758 53.0689 144.096 53.6895 144.522 54.2467C144.952 54.7994 145.471 55.2705 146.078 55.66C146.689 56.0496 147.389 56.3418 148.177 56.5366C148.132 56.5819 148.08 56.6408 148.021 56.7133C147.967 56.7857 147.915 56.8582 147.865 56.9307C147.815 57.0032 147.774 57.0711 147.743 57.1345C146.923 56.908 146.202 56.5841 145.582 56.1629C144.966 55.7416 144.438 55.2297 143.999 54.6272C143.564 54.0202 143.204 53.3339 142.918 52.5684L143.509 52.3849ZM141.899 52.052L148.075 52.052V52.6771L141.899 52.6771V52.052ZM144.413 51.0192L145.093 50.8153C145.192 50.9784 145.29 51.1573 145.385 51.3521C145.484 51.5469 145.555 51.7168 145.595 51.8617L144.882 52.086C144.846 51.9455 144.782 51.7757 144.692 51.5763C144.601 51.3725 144.508 51.1868 144.413 51.0192Z" fill="#424242"/>
</g>
<defs>
<clipPath id="clip0_157_6583">
<rect width="200" height="200" fill="white" transform="translate(0.304199 0.234375)"/>
</clipPath>
</defs>
</svg>
