<svg width="117" height="133" viewBox="0 0 117 133" fill="none" xmlns="http://www.w3.org/2000/svg">
<path fill-rule="evenodd" clip-rule="evenodd" d="M58.4742 5.74023C50.0609 13.2117 44.7596 24.1105 44.7596 36.2475C44.7596 48.3829 50.0595 59.2804 58.4709 66.7518C75.1388 51.9655 76.8665 26.4815 62.2524 9.57496C61.0616 8.19734 59.7987 6.91885 58.4742 5.74023Z" fill="#43B71B"/>
<path d="M58.4709 66.7518C58.3377 66.8699 58.2036 66.9873 58.0686 67.1041C42.4054 80.6435 19.3799 80.1562 4.31982 66.7569M58.4709 66.7518C65.6728 73.1488 75.1558 77.0341 85.5462 77.0341C95.9366 77.0341 105.42 73.1489 112.621 66.7519M58.4709 66.7518C50.0595 59.2804 44.7596 48.3829 44.7596 36.2475C44.7596 24.1105 50.0609 13.2117 58.4742 5.74023C59.7987 6.91885 61.0616 8.19734 62.2524 9.57496C76.8665 26.4815 75.1388 51.9655 58.4709 66.7518Z" stroke="#43B71B" stroke-width="7.39279" stroke-linecap="round"/>
<path d="M58.4709 66.7072C58.3377 66.5891 58.2036 66.4717 58.0686 66.3549C42.4054 52.8155 19.3799 53.3028 4.31982 66.7021M58.4709 66.7072C65.6728 60.3102 75.1558 56.4249 85.5462 56.4249C95.9366 56.4249 105.42 60.3101 112.621 66.7071M58.4709 66.7072C50.0595 74.1786 44.7596 85.0761 44.7596 97.2115C44.7596 109.349 50.0609 120.247 58.4742 127.719C59.7987 126.54 61.0616 125.262 62.2524 123.884C76.8665 106.978 75.1388 81.4935 58.4709 66.7072Z" stroke="#43B71B" stroke-width="7.39279" stroke-linecap="round"/>
</svg>
