<svg width="200" height="138" viewBox="0 0 200 138" fill="none" xmlns="http://www.w3.org/2000/svg">
<path fill-rule="evenodd" clip-rule="evenodd" d="M100.266 8.59375C85.7747 21.4628 76.6436 40.2354 76.6436 61.1406C76.6436 82.0431 85.7723 100.813 100.26 113.682C128.97 88.2139 131.946 44.3193 106.774 15.1988C104.723 12.826 102.547 10.6238 100.266 8.59375Z" fill="#43B71B"/>
<path d="M100.26 113.682C100.031 113.886 99.8001 114.088 99.5675 114.289C72.5886 137.61 32.9285 136.771 6.98853 113.691M100.26 113.682C112.665 124.701 128.999 131.393 146.896 131.393C164.793 131.393 181.127 124.701 193.532 113.683M100.26 113.682C85.7723 100.813 76.6436 82.0431 76.6436 61.1406C76.6436 40.2354 85.7747 21.4628 100.266 8.59375C102.547 10.6238 104.723 12.826 106.774 15.1988C131.946 44.3193 128.97 88.2139 100.26 113.682Z" stroke="#43B71B" stroke-width="12.7337" stroke-linecap="round"/>
</svg>
