<svg width="83" height="280" viewBox="0 0 83 280" fill="none" xmlns="http://www.w3.org/2000/svg">
<path d="M41.1618 37.404C41.0867 37.3196 41.012 37.2347 40.9377 37.149C32.3247 27.2214 32.6347 12.6274 41.1586 3.08203M41.1618 37.404C37.0924 41.9688 34.6207 47.9793 34.6207 54.5649C34.6207 61.1506 37.0923 67.161 41.1617 71.7257M41.1618 37.404C45.9147 32.0727 52.8471 28.7136 60.567 28.7136C68.2328 28.7136 75.1221 32.0258 79.872 37.2922C79.9304 37.3569 79.9303 37.4553 79.8719 37.5199C79.1506 38.318 78.3714 39.0802 77.5347 39.8008C66.7797 49.0636 50.5681 47.9685 41.1618 37.404Z" stroke="#43B71B" stroke-width="4.22593" stroke-linecap="round"/>
<path fill-rule="evenodd" clip-rule="evenodd" d="M79.8723 174.5C79.9301 174.435 79.9301 174.338 79.8724 174.273C75.1225 168.959 68.2326 165.616 60.5661 165.616C52.8462 165.616 45.9137 169.005 41.1609 174.384C50.5671 185.043 66.7787 186.148 77.5337 176.803C78.3709 176.075 79.1506 175.305 79.8723 174.5Z" fill="#43B71B"/>
<path d="M41.1609 174.384C41.0857 174.299 41.011 174.213 40.9367 174.127C32.3237 164.111 32.6337 149.386 41.1576 139.756M41.1609 174.384C37.0914 178.99 34.6198 185.054 34.6198 191.698C34.6198 198.343 37.0914 204.407 41.1608 209.012M41.1609 174.384C45.9137 169.005 52.8462 165.616 60.5661 165.616C68.2326 165.616 75.1225 168.959 79.8724 174.273C79.9301 174.338 79.9301 174.435 79.8723 174.5C79.1506 175.305 78.3709 176.075 77.5337 176.803C66.7787 186.148 50.5671 185.043 41.1609 174.384Z" stroke="#43B71B" stroke-width="4.22593" stroke-linecap="round"/>
<path d="M41.5608 105.74C41.636 105.824 41.7107 105.908 41.7849 105.993C50.398 115.832 50.088 130.296 41.5641 139.756M41.5608 105.74C45.6303 101.216 48.1019 95.2595 48.1019 88.7326C48.1019 82.2058 45.6303 76.249 41.5609 71.725M41.5608 105.74C36.8079 111.024 29.8755 114.353 22.1556 114.353C14.4906 114.353 7.6019 111.071 2.85212 105.853C2.79304 105.788 2.79309 105.689 2.85223 105.624C3.57314 104.833 4.35186 104.079 5.18799 103.365C15.943 94.1849 32.1546 95.2702 41.5608 105.74Z" stroke="#43B71B" stroke-width="4.22593" stroke-linecap="round"/>
<path d="M41.5608 243.027C41.636 243.111 41.7107 243.195 41.7849 243.28C50.398 253.119 50.088 267.583 41.5641 277.043M41.5608 243.027C45.6303 238.503 48.1019 232.547 48.1019 226.02C48.1019 219.493 45.6303 213.536 41.5609 209.012M41.5608 243.027C36.8079 248.311 29.8755 251.64 22.1556 251.64C14.4906 251.64 7.6019 248.358 2.85212 243.14C2.79304 243.075 2.79309 242.976 2.85223 242.911C3.57314 242.121 4.35186 241.366 5.18799 240.652C15.943 231.472 32.1546 232.557 41.5608 243.027Z" stroke="#43B71B" stroke-width="4.22593" stroke-linecap="round"/>
</svg>
