<svg width="201" height="201" viewBox="0 0 201 201" fill="none" xmlns="http://www.w3.org/2000/svg">
<g clip-path="url(#clip0_152_5873)">
<rect x="79.4967" y="62.4901" width="28.3205" height="15.4743" stroke="#34BAF3" stroke-width="0.679485"/>
<path d="M88.5352 71.2493V70.3931C88.3245 70.7261 88.0527 71.0386 87.7945 71.2357C87.7266 71.1405 87.6247 71.0046 87.5227 70.9095C87.4616 71.8812 87.3121 72.9548 86.9112 73.7498C86.7957 73.6546 86.5307 73.5052 86.3812 73.4576C86.9112 72.4044 86.9588 70.9027 86.9588 69.8359V67.8179H92.5645V68.3886H87.5499V69.8427C87.5499 70.1349 87.5431 70.4543 87.5295 70.794C87.8149 70.597 88.1071 70.2844 88.3245 69.965H87.7266V69.5098H88.5352V69.1021C88.3042 69.1361 88.0731 69.1632 87.8557 69.1768C87.8285 69.0749 87.7674 68.9118 87.713 68.8031C88.2974 68.7488 88.9768 68.6468 89.337 68.4973L89.7447 68.8167C89.5544 68.8982 89.3166 68.9594 89.0652 69.007V69.5098H89.8126V69.965H89.0652V69.9718C89.2418 70.0805 89.6835 70.3863 89.799 70.4814L89.4933 70.8755C89.4049 70.7736 89.235 70.6105 89.0652 70.4746V71.2493H88.5352ZM90.3562 72.3364V73.0567H92.5713V73.5867H87.4412V73.0567H88.243V71.7045H88.8477V73.0567H89.7447V71.2153H89.9961C89.9077 71.093 89.7583 70.9231 89.6495 70.8348C89.9825 70.6581 90.3222 70.3184 90.5668 69.965H90.0029V69.5098H90.8658V69.0953C90.6144 69.1293 90.3494 69.1564 90.1116 69.17C90.0912 69.0613 90.03 68.8982 89.9689 68.7963C90.6144 68.742 91.3686 68.6264 91.7627 68.477L92.1704 68.8031C91.9462 68.8914 91.6812 68.9594 91.3958 69.007V69.5098H92.4422V69.965H91.3958V69.9854L91.4026 69.9786C91.6336 70.1145 92.4015 70.6513 92.5917 70.794L92.2995 71.2153C92.1161 71.0318 91.7084 70.6921 91.3958 70.4543V71.2493H90.8658V70.2504C90.6348 70.6377 90.329 70.9979 90.0233 71.2221H90.3562V71.8404H91.953V72.3364H90.3562ZM95.0786 69.1564V70.2844H96.7094V69.1564H95.0786ZM98.9925 69.1564H97.3617V70.2844H98.9925V69.1564ZM99.6448 70.8891H97.3481C97.3073 71.4735 97.1646 72.0307 96.7773 72.5063C97.6131 72.914 98.7275 73.0363 100.188 73.0771C100.073 73.2334 99.9437 73.5119 99.8962 73.7294C98.3809 73.6478 97.185 73.4712 96.2813 72.9616C95.8328 73.2877 95.1941 73.5663 94.2972 73.7769C94.2293 73.6275 94.0594 73.3557 93.9235 73.213C94.7389 73.0499 95.3164 72.8393 95.7309 72.5743C95.3368 72.2413 95.0175 71.8132 94.7525 71.2629L95.33 71.0522C95.5679 71.5211 95.8736 71.8812 96.2202 72.1666C96.5463 71.7928 96.6618 71.358 96.6958 70.8891H94.4603V68.5517H96.7094V67.5529H97.3617V68.5517H99.6448V70.8891Z" fill="#34BAF3"/>
<path d="M47.9313 62.2812L14.9102 62.2813" stroke="#222222" stroke-width="0.679485" stroke-linecap="round"/>
<path d="M65.019 34.3711H60.0587" stroke="#222222" stroke-width="0.679485" stroke-linecap="round"/>
<path d="M14.9099 76.8301L14.9099 65.1201" stroke="#222222" stroke-width="0.679485" stroke-linecap="round" stroke-dasharray="1.36 1.36"/>
<path d="M128.91 59.8594L128.91 20.7295" stroke="#222222" stroke-width="0.679485" stroke-linecap="round" stroke-dasharray="1.36 1.36"/>
<path d="M49.2031 76.8301L49.2031 65.1201" stroke="#222222" stroke-width="0.679485" stroke-linecap="round" stroke-dasharray="1.36 1.36"/>
<path d="M31.4208 58.998L31.4208 47.2842" stroke="#222222" stroke-width="0.679485" stroke-linecap="round"/>
<path d="M93.657 58.998L93.657 47.2842" stroke="#222222" stroke-width="0.679485" stroke-linecap="round"/>
<rect x="6.26052" y="26.6308" width="50.3205" height="15.4743" rx="7.73717" stroke="#424242" stroke-width="0.679485"/>
<path d="M17.2899 34.4726L17.9422 34.6628C17.6885 35.2744 17.3533 35.7953 16.9365 36.2257C16.5243 36.6515 16.0396 37.0025 15.4824 37.2789C14.9253 37.5506 14.3047 37.7726 13.6206 37.9447C13.598 37.8949 13.564 37.8338 13.5187 37.7613C13.4734 37.6888 13.4236 37.6163 13.3692 37.5439C13.3194 37.4714 13.2741 37.4125 13.2333 37.3672C13.9038 37.2313 14.5062 37.0433 15.0408 36.8032C15.5753 36.5586 16.0328 36.246 16.4133 35.8655C16.7938 35.485 17.086 35.0207 17.2899 34.4726ZM15.0204 33.3107L15.6455 33.5553C15.487 33.7501 15.3058 33.9448 15.1019 34.1396C14.9026 34.3344 14.6942 34.5179 14.4768 34.69C14.2594 34.8576 14.051 35.0071 13.8517 35.1385C13.8154 35.0932 13.7656 35.0411 13.7022 34.9822C13.6388 34.9233 13.5753 34.8644 13.5119 34.8055C13.4485 34.7421 13.3919 34.6945 13.3421 34.6628C13.5459 34.5541 13.7497 34.4273 13.9536 34.2823C14.162 34.1328 14.359 33.9766 14.5447 33.8135C14.7305 33.6459 14.889 33.4783 15.0204 33.3107ZM15.3737 34.5066C15.6863 35.2676 16.1823 35.8859 16.8618 36.3615C17.5413 36.8327 18.3974 37.152 19.4302 37.3196C19.3895 37.3604 19.3419 37.4148 19.2876 37.4827C19.2377 37.5552 19.1902 37.6277 19.1449 37.7001C19.0996 37.7726 19.0633 37.8383 19.0361 37.8972C18.3159 37.7613 17.684 37.5552 17.1404 37.2789C16.6013 36.998 16.137 36.6424 15.7474 36.2121C15.3624 35.7817 15.0453 35.2744 14.7962 34.69L15.3737 34.5066ZM13.3489 32.536H19.274V33.1612H13.3489V32.536ZM17.052 33.6572L17.5617 33.2903C17.761 33.4262 17.9716 33.5802 18.1936 33.7523C18.4201 33.9245 18.633 34.0966 18.8323 34.2687C19.0316 34.4409 19.1924 34.5994 19.3147 34.7444L18.7711 35.1657C18.6579 35.0207 18.5061 34.8599 18.3159 34.6832C18.1256 34.502 17.9195 34.3231 17.6976 34.1464C17.4756 33.9652 17.2604 33.8022 17.052 33.6572ZM15.7067 31.7682L16.3182 31.5576C16.4133 31.698 16.5085 31.8543 16.6036 32.0264C16.6987 32.1986 16.7689 32.3458 16.8142 32.4681L16.1755 32.7127C16.1347 32.5859 16.0691 32.4341 15.9785 32.2575C15.8924 32.0808 15.8018 31.9177 15.7067 31.7682ZM23.4868 32.8486L23.8945 32.4953C24.1074 32.5723 24.3361 32.6606 24.5807 32.7603C24.8254 32.8599 25.0586 32.9619 25.2806 33.066C25.5071 33.1702 25.6974 33.2676 25.8514 33.3582L25.4165 33.7523C25.2761 33.6663 25.0949 33.5689 24.8729 33.4601C24.6555 33.3514 24.4245 33.2427 24.1798 33.134C23.9398 33.0253 23.7087 32.9301 23.4868 32.8486ZM22.8413 33.3378H26.293V33.8135H23.4188V36.844H22.8413V33.3378ZM26.0688 33.3378H26.6464V36.28C26.6464 36.4204 26.6283 36.5269 26.592 36.5994C26.5603 36.6718 26.4969 36.7307 26.4018 36.776C26.3112 36.8168 26.1911 36.8417 26.0416 36.8508C25.8967 36.8598 25.7155 36.8644 25.498 36.8644C25.489 36.7874 25.4686 36.7036 25.4369 36.613C25.4052 36.5224 25.3712 36.4431 25.335 36.3751C25.4754 36.3797 25.6045 36.3819 25.7223 36.3819C25.8401 36.3819 25.9193 36.3819 25.9601 36.3819C26.0009 36.3774 26.028 36.3683 26.0416 36.3548C26.0598 36.3412 26.0688 36.314 26.0688 36.2732V33.3378ZM22.882 31.8905L26.2047 31.8905V32.373H22.882V31.8905ZM23.1878 34.3163H26.2659V34.7783H23.1878V34.3163ZM23.1878 35.2948H26.2659V35.7772H23.1878V35.2948ZM24.438 33.5485H24.9952V36.8304H24.438V33.5485ZM25.9873 31.8905H26.13L26.2591 31.8566L26.6464 32.1623C26.4924 32.3073 26.318 32.4522 26.1232 32.5972C25.9284 32.7422 25.7245 32.8781 25.5116 33.0049C25.2987 33.1272 25.0881 33.2359 24.8797 33.331C24.8389 33.2722 24.7846 33.2065 24.7166 33.134C24.6532 33.0615 24.5966 33.0049 24.5468 32.9641C24.728 32.8826 24.9092 32.7875 25.0904 32.6787C25.2761 32.57 25.4482 32.4568 25.6068 32.339C25.7653 32.2212 25.8921 32.1102 25.9873 32.006V31.8905ZM20.9183 31.9245L21.394 31.6323C21.5027 31.7411 21.6114 31.8588 21.7201 31.9857C21.8334 32.1125 21.9398 32.2348 22.0395 32.3526C22.1391 32.4704 22.2207 32.5746 22.2841 32.6652L21.7949 33.0185C21.7314 32.9234 21.6499 32.8124 21.5502 32.6855C21.4551 32.5587 21.3509 32.4296 21.2377 32.2982C21.129 32.1623 21.0225 32.0378 20.9183 31.9245ZM20.7009 33.2087H22.1686V33.7319H20.7009V33.2087ZM21.9919 36.2528C22.1233 36.5518 22.3045 36.7738 22.5355 36.9187C22.7665 37.0637 23.0474 37.1588 23.3781 37.2041C23.7133 37.2494 24.096 37.2721 24.5264 37.2721C24.7665 37.2721 25.0337 37.2675 25.3282 37.2585C25.6226 37.2494 25.9193 37.2381 26.2183 37.2245C26.5173 37.2109 26.7868 37.1928 27.0269 37.1701C26.9952 37.2154 26.9657 37.2743 26.9386 37.3468C26.9114 37.4193 26.8865 37.494 26.8638 37.571C26.8457 37.648 26.8298 37.716 26.8162 37.7749C26.5943 37.7885 26.3542 37.7998 26.096 37.8089C25.8378 37.8179 25.5751 37.8247 25.3078 37.8292C25.0405 37.8338 24.7778 37.836 24.5196 37.836C24.121 37.836 23.7654 37.8179 23.4528 37.7817C23.1448 37.7454 22.8707 37.6798 22.6306 37.5846C22.3951 37.4895 22.189 37.3513 22.0123 37.1701C21.8356 36.9844 21.6839 36.7398 21.557 36.4363L21.9919 36.2528ZM21.9647 34.8803H22.121L22.2229 34.8667L22.5355 34.9822C22.4222 35.7206 22.2297 36.3366 21.9579 36.8304C21.6861 37.3196 21.3577 37.6933 20.9727 37.9515C20.9455 37.9062 20.907 37.8542 20.8572 37.7953C20.8073 37.7409 20.7552 37.6865 20.7009 37.6322C20.6465 37.5824 20.5967 37.5439 20.5514 37.5167C20.9183 37.2902 21.2241 36.964 21.4687 36.5382C21.7133 36.1124 21.8787 35.596 21.9647 34.989V34.8803ZM20.8096 35.4918V35.0162L21.0746 34.8803H22.1618V35.3899H21.2241C21.138 35.3899 21.0542 35.4012 20.9727 35.4239C20.8911 35.442 20.8368 35.4646 20.8096 35.4918ZM20.8096 35.4918C20.8005 35.442 20.7802 35.3831 20.7484 35.3151C20.7213 35.2472 20.6941 35.1792 20.6669 35.1113C20.6397 35.0388 20.6148 34.9822 20.5922 34.9414C20.6465 34.9278 20.7009 34.9075 20.7552 34.8803C20.8096 34.8486 20.8685 34.7987 20.9319 34.7308C20.9863 34.681 21.061 34.5949 21.1561 34.4726C21.2513 34.3503 21.3532 34.2144 21.4619 34.0649C21.5752 33.9109 21.6793 33.7637 21.7745 33.6232C21.8741 33.4783 21.9534 33.3605 22.0123 33.2699V33.2495L22.1957 33.1748L22.5966 33.3582C22.5151 33.476 22.4177 33.6142 22.3045 33.7727C22.1957 33.9267 22.0802 34.0875 21.9579 34.2551C21.8356 34.4182 21.7133 34.5768 21.591 34.7308C21.4732 34.8803 21.3645 35.0094 21.2649 35.1181C21.2649 35.1181 21.2422 35.1317 21.1969 35.1589C21.1516 35.1815 21.0972 35.2132 21.0338 35.254C20.9749 35.2902 20.9228 35.331 20.8775 35.3763C20.8322 35.4171 20.8096 35.4556 20.8096 35.4918ZM33.8761 34.8395L34.3653 35.1725C34.2204 35.3446 34.0777 35.5235 33.9372 35.7092C33.8014 35.8904 33.6723 36.0445 33.5499 36.1713L33.1966 35.9063C33.2691 35.8112 33.3484 35.7024 33.4344 35.5801C33.5205 35.4533 33.602 35.3242 33.679 35.1928C33.7606 35.0615 33.8263 34.9437 33.8761 34.8395ZM32.1502 31.6323H32.721V33.0932H32.1502V31.6323ZM32.4628 34.459H33.0335C33.0154 34.8622 32.9837 35.2404 32.9384 35.5937C32.8931 35.9425 32.8161 36.2642 32.7074 36.5586C32.6032 36.8485 32.4514 37.109 32.2521 37.34C32.0528 37.571 31.7901 37.7681 31.4639 37.9312C31.4322 37.8587 31.3801 37.7771 31.3076 37.6865C31.2352 37.5959 31.165 37.5235 31.097 37.4691C31.3914 37.3332 31.6247 37.1656 31.7969 36.9663C31.9735 36.767 32.1072 36.5405 32.1978 36.2868C32.2884 36.0331 32.3518 35.7545 32.388 35.451C32.4243 35.143 32.4492 34.8123 32.4628 34.459ZM32.918 35.4171C32.9996 35.707 33.1105 35.9833 33.251 36.246C33.3914 36.5088 33.5567 36.7421 33.747 36.9459C33.9372 37.1498 34.1524 37.3106 34.3925 37.4283C34.3291 37.4827 34.2611 37.5552 34.1887 37.6458C34.1162 37.7364 34.0573 37.8202 34.012 37.8972C33.7583 37.7432 33.5318 37.5484 33.3325 37.3128C33.1332 37.0727 32.9611 36.8009 32.8161 36.4974C32.6711 36.1894 32.5534 35.8633 32.4628 35.519L32.918 35.4171ZM30.9067 33.664H34.3449V34.2076H30.9067V33.664ZM30.6757 33.664H31.2397V35.0162C31.2397 35.2291 31.2306 35.4624 31.2125 35.716C31.1989 35.9697 31.1695 36.2302 31.1242 36.4974C31.0834 36.7602 31.0223 37.0161 30.9407 37.2653C30.8637 37.5144 30.7595 37.7409 30.6282 37.9447C30.5964 37.913 30.5489 37.8768 30.4855 37.836C30.4266 37.7953 30.3654 37.7545 30.302 37.7137C30.2386 37.673 30.182 37.6435 30.1321 37.6254C30.2952 37.3672 30.4153 37.0841 30.4923 36.776C30.5693 36.468 30.6191 36.16 30.6417 35.8519C30.6644 35.5439 30.6757 35.263 30.6757 35.0094V33.664ZM31.1853 35.1045L31.593 34.8667C31.6655 34.9799 31.7402 35.1045 31.8173 35.2404C31.8988 35.3718 31.9735 35.4986 32.0415 35.6209C32.114 35.7432 32.1729 35.8497 32.2182 35.9403L31.7833 36.2257C31.747 36.126 31.6949 36.0127 31.627 35.8859C31.5591 35.7545 31.4866 35.6209 31.4096 35.485C31.3326 35.3446 31.2578 35.2177 31.1853 35.1045ZM30.7776 31.843H31.3552V32.7467H33.5431V31.843H34.1547V33.2767H30.7776V31.843ZM28.1888 31.9653H30.4923V32.5496H28.1888V31.9653ZM28.8955 34.0717H30.3224V37.0954H28.8955V36.5246H29.84V34.6357H28.8955V34.0717ZM29.0246 32.2643L29.6157 32.3934C29.5342 32.8192 29.4323 33.2404 29.31 33.6572C29.1922 34.0739 29.0495 34.4635 28.8819 34.8259C28.7143 35.1883 28.5195 35.5054 28.2975 35.7772C28.2885 35.7228 28.2681 35.6504 28.2364 35.5598C28.2092 35.4646 28.1775 35.3718 28.1412 35.2812C28.1095 35.186 28.0756 35.109 28.0393 35.0501C28.293 34.7104 28.4991 34.2982 28.6577 33.8135C28.8162 33.3243 28.9385 32.8078 29.0246 32.2643ZM28.6237 34.0717H29.1537V37.6254H28.6237L28.6237 34.0717ZM38.8431 31.6255H39.4275V34.5066C39.4275 34.8463 39.4116 35.177 39.3799 35.4986C39.3527 35.8202 39.2916 36.1283 39.1965 36.4227C39.1013 36.7126 38.9632 36.9867 38.782 37.2449C38.6053 37.4986 38.363 37.7318 38.0549 37.9447C38.0232 37.8995 37.9779 37.8496 37.919 37.7953C37.8647 37.7409 37.8103 37.6888 37.756 37.639C37.7016 37.5892 37.6495 37.5484 37.5997 37.5167C37.876 37.3309 38.098 37.1248 38.2656 36.8983C38.4332 36.6718 38.5577 36.4318 38.6393 36.1781C38.7208 35.9244 38.7752 35.6571 38.8024 35.3763C38.8295 35.0954 38.8431 34.8055 38.8431 34.5066V31.6255ZM40.0322 31.6255H40.637V37.9312H40.0322V31.6255ZM37.7763 32.7671H39.1013V33.3514H37.7763V32.7671ZM40.3516 32.7671H41.7785V33.3514H40.3516V32.7671ZM40.3856 34.2008H41.7038V34.7648H40.3856V34.2008ZM40.3448 35.6685H41.894V36.2596H40.3448V35.6685ZM37.8307 34.2008H39.1217V34.7648H37.8307V34.2008ZM37.4298 35.9607C37.6246 35.9108 37.8511 35.8451 38.1093 35.7636C38.372 35.6821 38.6416 35.5983 38.9179 35.5122L39.013 36.015C38.782 36.1011 38.551 36.1871 38.3199 36.2732C38.0934 36.3593 37.8783 36.4408 37.6744 36.5178L37.4298 35.9607ZM35.5137 35.1113C35.7809 35.0388 36.1025 34.9505 36.4785 34.8463C36.8545 34.7376 37.235 34.6243 37.6201 34.5066L37.7016 35.0909C37.3528 35.2042 36.9995 35.3174 36.6416 35.4307C36.2837 35.5394 35.9576 35.639 35.6631 35.7296L35.5137 35.1113ZM35.6156 32.9641L37.6812 32.9641V33.5621L35.6156 33.5621V32.9641ZM36.4038 31.6391H37.0017V37.2313C37.0017 37.3898 36.9836 37.5144 36.9474 37.605C36.9111 37.6956 36.8454 37.7681 36.7503 37.8224C36.6597 37.8723 36.5419 37.904 36.397 37.9176C36.2566 37.9357 36.0754 37.9447 35.8534 37.9447C35.8489 37.8632 35.8285 37.7636 35.7922 37.6458C35.7605 37.5325 35.7243 37.4329 35.6835 37.3468C35.8194 37.3513 35.944 37.3536 36.0572 37.3536C36.1705 37.3536 36.2475 37.3513 36.2883 37.3468C36.329 37.3468 36.3585 37.34 36.3766 37.3264C36.3947 37.3083 36.4038 37.2766 36.4038 37.2313V31.6391ZM44.1771 31.7614L44.7411 31.6119C44.809 31.7569 44.8747 31.9155 44.9381 32.0876C45.0061 32.2552 45.0582 32.3979 45.0944 32.5157L44.5032 32.6991C44.4761 32.5723 44.4285 32.4205 44.3606 32.2439C44.2971 32.0672 44.236 31.9064 44.1771 31.7614ZM43.1035 32.7059H46.1136V33.3039H43.1035V32.7059ZM44.2179 34.1057H45.4545V34.69H44.2179V34.1057ZM45.2371 34.1057H45.8486C45.8486 34.1057 45.8486 34.1238 45.8486 34.16C45.8486 34.1917 45.8486 34.2302 45.8486 34.2755C45.8486 34.3163 45.8464 34.3503 45.8418 34.3775C45.8328 34.9301 45.8214 35.3989 45.8079 35.784C45.7988 36.169 45.7852 36.4861 45.7671 36.7353C45.749 36.9799 45.7241 37.1724 45.6923 37.3128C45.6652 37.4487 45.6289 37.5484 45.5836 37.6118C45.5247 37.6933 45.4613 37.7522 45.3934 37.7885C45.3299 37.8247 45.2507 37.8496 45.1555 37.8632C45.074 37.8768 44.9676 37.8836 44.8362 37.8836C44.7048 37.8881 44.5667 37.8859 44.4217 37.8768C44.4126 37.7907 44.3945 37.6911 44.3673 37.5778C44.3402 37.4646 44.3039 37.3672 44.2586 37.2856C44.3809 37.2992 44.4942 37.3083 44.5984 37.3128C44.7071 37.3128 44.7886 37.3128 44.843 37.3128C44.8883 37.3128 44.9268 37.306 44.9585 37.2924C44.9902 37.2789 45.0197 37.2539 45.0468 37.2177C45.074 37.1769 45.0967 37.0977 45.1148 36.9799C45.1374 36.8576 45.1555 36.6832 45.1691 36.4567C45.1827 36.2257 45.1941 35.9289 45.2031 35.5666C45.2167 35.1996 45.228 34.7534 45.2371 34.228V34.1057ZM46.7999 32.8826H49.3819V33.4805H46.7999V32.8826ZM46.9154 31.6255L47.5745 31.7343C47.493 32.1782 47.3911 32.6108 47.2687 33.0321C47.1464 33.4534 47.0037 33.8452 46.8407 34.2076C46.6776 34.57 46.4896 34.8871 46.2767 35.1589C46.245 35.1136 46.1997 35.0592 46.1408 34.9958C46.0819 34.9324 46.0208 34.8689 45.9573 34.8055C45.8939 34.7421 45.8373 34.6923 45.7875 34.656C45.9823 34.4205 46.1499 34.1419 46.2903 33.8203C46.4352 33.4987 46.5598 33.1521 46.664 32.7807C46.7682 32.4047 46.852 32.0196 46.9154 31.6255ZM48.2744 33.2291L48.9063 33.2971C48.7931 34.0672 48.6277 34.7489 48.4103 35.3423C48.1928 35.9312 47.8984 36.4408 47.527 36.8712C47.16 37.3015 46.6912 37.6639 46.1204 37.9583C46.1023 37.9085 46.0706 37.8474 46.0253 37.7749C45.9845 37.7024 45.9392 37.6322 45.8894 37.5642C45.8396 37.4963 45.7943 37.4397 45.7535 37.3944C46.288 37.1498 46.7229 36.8372 47.0581 36.4567C47.3978 36.0716 47.6628 35.6119 47.8531 35.0773C48.0434 34.5383 48.1838 33.9222 48.2744 33.2291ZM47.0853 33.399C47.194 34.006 47.3435 34.5722 47.5337 35.0977C47.7285 35.6186 47.9822 36.0739 48.2948 36.4635C48.6119 36.853 48.9969 37.152 49.4499 37.3604C49.4046 37.4057 49.3525 37.4601 49.2936 37.5235C49.2393 37.5869 49.1849 37.6526 49.1305 37.7205C49.0807 37.793 49.0399 37.8587 49.0082 37.9176C48.5235 37.6639 48.1181 37.3219 47.792 36.8915C47.4703 36.4612 47.2099 35.9584 47.0105 35.3831C46.8112 34.8078 46.6504 34.1781 46.5281 33.4941L47.0853 33.399ZM43.8441 33.0117H44.4557V34.6832C44.4557 35.0547 44.4308 35.4284 44.3809 35.8044C44.3356 36.1804 44.2405 36.5473 44.0956 36.9051C43.9506 37.263 43.7286 37.6005 43.4297 37.9176C43.3753 37.8496 43.3028 37.7771 43.2122 37.7001C43.1216 37.6231 43.0356 37.5574 42.954 37.5031C43.2213 37.2132 43.4161 36.9097 43.5384 36.5926C43.6652 36.271 43.7467 35.9471 43.783 35.6209C43.8238 35.2948 43.8441 34.9799 43.8441 34.6764V33.0117Z" fill="#424242"/>
<rect x="114.75" y="0.494039" width="28.3205" height="15.4743" rx="7.73717" stroke="#424242" stroke-width="0.679485" stroke-dasharray="1.36 1.36"/>
<path d="M121.994 7.55445H124.04V8.05727H121.994V7.55445ZM121.994 8.46496H124.053V8.96099H121.994V8.46496ZM121.702 6.63715H124.325V7.15356H121.702V6.63715ZM122.273 9.38227H124.04V11.4071H122.273V10.8771H123.482V9.90547H122.273V9.38227ZM121.994 9.38227H122.545V11.7129H121.994V9.38227ZM122.422 5.71305L122.918 5.46164C123.018 5.60207 123.115 5.75608 123.211 5.92369C123.306 6.08677 123.38 6.23172 123.435 6.35856L122.918 6.64394C122.864 6.52164 122.789 6.37215 122.694 6.19548C122.604 6.01429 122.513 5.85348 122.422 5.71305ZM124.977 5.72664H126.757V6.32459L124.977 6.32459V5.72664ZM124.237 8.47176H127.226V9.0765H124.237V8.47176ZM127.002 8.47176H127.124L127.233 8.45137L127.634 8.62125C127.507 9.06518 127.335 9.46154 127.118 9.81034C126.9 10.1546 126.646 10.4559 126.357 10.7141C126.071 10.9723 125.754 11.1897 125.405 11.3664C125.061 11.543 124.694 11.688 124.305 11.8012C124.286 11.7423 124.259 11.6767 124.223 11.6042C124.187 11.5317 124.146 11.4615 124.101 11.3935C124.06 11.3256 124.019 11.269 123.978 11.2237C124.332 11.1421 124.667 11.0266 124.984 10.8771C125.301 10.7231 125.593 10.5351 125.861 10.3132C126.128 10.0912 126.359 9.83526 126.554 9.54535C126.748 9.25543 126.898 8.93154 127.002 8.57368V8.47176ZM125.032 9.00855C125.199 9.37547 125.423 9.70616 125.704 10.0006C125.99 10.2905 126.325 10.5374 126.71 10.7412C127.099 10.9451 127.53 11.0968 128.001 11.1965C127.956 11.2418 127.908 11.2984 127.858 11.3664C127.808 11.4388 127.761 11.5113 127.716 11.5838C127.67 11.6563 127.632 11.722 127.6 11.7809C126.862 11.5951 126.232 11.2826 125.711 10.8432C125.195 10.4038 124.785 9.85564 124.481 9.19881L125.032 9.00855ZM124.855 5.72664L125.446 5.72664V6.48766C125.446 6.70057 125.419 6.92027 125.365 7.14676C125.315 7.36873 125.217 7.5839 125.072 7.79227C124.927 8.00065 124.714 8.18411 124.434 8.34266C124.406 8.29736 124.366 8.24526 124.311 8.18638C124.261 8.12296 124.209 8.0618 124.155 8.00291C124.101 7.94403 124.055 7.90099 124.019 7.87381C124.264 7.73792 124.445 7.59296 124.563 7.43894C124.685 7.2804 124.764 7.11958 124.801 6.95651C124.837 6.7889 124.855 6.62809 124.855 6.47407V5.72664ZM126.445 5.72664H127.036V7.26907C127.036 7.3642 127.041 7.43215 127.05 7.47292C127.063 7.51369 127.093 7.53407 127.138 7.53407C127.161 7.53407 127.195 7.53407 127.24 7.53407C127.29 7.53407 127.337 7.53407 127.383 7.53407C127.432 7.53407 127.466 7.53407 127.485 7.53407C127.53 7.53407 127.582 7.5318 127.641 7.52727C127.704 7.51821 127.756 7.50689 127.797 7.4933C127.806 7.57484 127.813 7.6677 127.817 7.77189C127.822 7.87608 127.831 7.96441 127.845 8.03689C127.804 8.05501 127.752 8.06633 127.688 8.07086C127.625 8.07539 127.559 8.07766 127.491 8.07766C127.464 8.07766 127.423 8.07766 127.369 8.07766C127.315 8.07766 127.26 8.07766 127.206 8.07766C127.152 8.07766 127.111 8.07766 127.084 8.07766C126.902 8.07766 126.767 8.05048 126.676 7.99612C126.585 7.94176 126.524 7.85569 126.492 7.73792C126.461 7.61561 126.445 7.4548 126.445 7.25548V5.72664ZM130.352 7.58843H134.232V8.19997H130.352V7.58843ZM132.282 9.18522H134.572V9.78996H132.282V9.18522ZM131.942 7.90099H132.608V11.2712L131.942 11.1829L131.942 7.90099ZM130.345 8.65522L130.997 8.71637C130.902 9.40492 130.746 10.0097 130.529 10.5306C130.311 11.0515 130.008 11.4796 129.618 11.8148C129.586 11.7786 129.539 11.731 129.475 11.6721C129.412 11.6178 129.346 11.5634 129.278 11.5091C129.21 11.4592 129.152 11.4185 129.102 11.3868C129.478 11.1014 129.761 10.7254 129.951 10.2588C130.146 9.79223 130.277 9.2577 130.345 8.65522ZM130.814 9.51137C130.927 9.84205 131.072 10.1093 131.249 10.3132C131.43 10.517 131.641 10.6733 131.881 10.782C132.121 10.8862 132.384 10.9587 132.669 10.9994C132.954 11.0357 133.26 11.0538 133.586 11.0538C133.645 11.0538 133.734 11.0538 133.851 11.0538C133.974 11.0538 134.107 11.0538 134.252 11.0538C134.402 11.0538 134.551 11.0538 134.701 11.0538C134.855 11.0538 134.995 11.0538 135.122 11.0538C135.253 11.0493 135.357 11.047 135.434 11.047C135.403 11.0968 135.369 11.1603 135.333 11.2373C135.301 11.3143 135.274 11.3935 135.251 11.4751C135.228 11.5612 135.21 11.6359 135.197 11.6993H134.857H133.552C133.154 11.6993 132.784 11.6721 132.445 11.6178C132.11 11.5634 131.806 11.466 131.534 11.3256C131.267 11.1852 131.027 10.9836 130.814 10.7209C130.606 10.4581 130.429 10.1161 130.284 9.69483L130.814 9.51137ZM129.407 6.23625H135.156V7.82625H134.497V6.84779H130.039V7.82625H129.407V6.23625ZM131.724 5.61792L132.363 5.43446C132.445 5.57036 132.524 5.72211 132.601 5.88972C132.678 6.05279 132.732 6.19548 132.764 6.31779L132.091 6.52164C132.064 6.40386 132.017 6.2589 131.949 6.08677C131.881 5.91463 131.806 5.75835 131.724 5.61792Z" fill="#424242"/>
<rect x="68.4967" y="26.6347" width="50.3205" height="15.4705" rx="7.73526" stroke="#424242" stroke-width="0.679485"/>
<path d="M77.9972 33.5572H80.8986V34.1416H77.9972V33.5572ZM77.6983 33.5572H78.2962V35.5413C78.2962 35.7905 78.2849 36.0645 78.2622 36.3635C78.2441 36.6579 78.2033 36.9456 78.1399 37.2264C78.0765 37.5073 77.9768 37.7587 77.8409 37.9807C77.8092 37.9444 77.7617 37.9014 77.6983 37.8516C77.6394 37.8063 77.5759 37.761 77.508 37.7157C77.4446 37.6704 77.3902 37.6364 77.3449 37.6138C77.4536 37.419 77.5329 37.2038 77.5827 36.9682C77.6371 36.7282 77.6688 36.4858 77.6779 36.2412C77.6915 35.9921 77.6983 35.7565 77.6983 35.5345V33.5572ZM78.3438 36.0577C78.5521 36.017 78.7922 35.9671 79.064 35.9082C79.3358 35.8494 79.6212 35.7859 79.9202 35.718C80.2237 35.6455 80.5272 35.5753 80.8307 35.5074L80.8918 36.0102C80.4841 36.1189 80.0742 36.2253 79.662 36.3295C79.2543 36.4292 78.8828 36.5198 78.5476 36.6013L78.3438 36.0577ZM78.4525 34.9026L78.7107 34.5017C78.9009 34.538 79.1003 34.5878 79.3086 34.6512C79.517 34.7146 79.7163 34.7826 79.9066 34.855C80.0968 34.923 80.2531 34.9909 80.3754 35.0589L80.1104 35.5074C79.9881 35.4394 79.8318 35.3669 79.6416 35.2899C79.4559 35.2129 79.2588 35.1404 79.0504 35.0725C78.8421 35 78.6427 34.9434 78.4525 34.9026ZM80.953 31.8042L81.5781 32.042C81.4649 32.273 81.3426 32.504 81.2112 32.7351C81.0798 32.9615 80.9575 33.1586 80.8443 33.3262L80.2871 33.102C80.3641 32.9842 80.4434 32.8528 80.5249 32.7079C80.6065 32.5584 80.6857 32.4044 80.7627 32.2458C80.8397 32.0873 80.9032 31.9401 80.953 31.8042ZM77.5216 32.0895L78.0652 31.8517C78.1558 31.974 78.2486 32.1099 78.3438 32.2594C78.4389 32.4089 78.5227 32.5561 78.5952 32.7011C78.6677 32.8415 78.722 32.9706 78.7583 33.0884L78.1739 33.367C78.1422 33.2492 78.0924 33.1178 78.0244 32.9729C77.9565 32.8234 77.8795 32.6716 77.7934 32.5176C77.7073 32.3636 77.6167 32.2209 77.5216 32.0895ZM80.7016 33.5572H81.3267V37.1993C81.3267 37.3623 81.3063 37.4914 81.2656 37.5866C81.2293 37.6817 81.1523 37.7564 81.0345 37.8108C80.9258 37.8606 80.7809 37.8901 80.5997 37.8991C80.4185 37.9082 80.1988 37.9127 79.9406 37.9127C79.9315 37.8312 79.9066 37.7293 79.8658 37.607C79.8296 37.4892 79.7888 37.3895 79.7435 37.308C79.9202 37.3125 80.0878 37.317 80.2463 37.3216C80.4049 37.3216 80.5113 37.3216 80.5657 37.3216C80.6563 37.317 80.7016 37.274 80.7016 37.1925V33.5572ZM79.2067 31.6275H79.859V33.9445H79.2067V31.6275ZM75.7481 32.1779L76.1286 31.7294C76.26 31.8019 76.4027 31.8834 76.5567 31.974C76.7153 32.0601 76.867 32.1462 77.012 32.2322C77.1569 32.3183 77.277 32.3953 77.3721 32.4633L76.978 32.9797C76.8919 32.9072 76.7764 32.8257 76.6315 32.7351C76.491 32.6399 76.3416 32.5448 76.183 32.4497C76.029 32.35 75.884 32.2594 75.7481 32.1779ZM75.3676 34.0533L75.721 33.5844C75.8523 33.6433 75.9973 33.7158 76.1558 33.8018C76.3144 33.8834 76.4684 33.9649 76.6179 34.0465C76.7719 34.1235 76.8965 34.1959 76.9916 34.2639L76.6315 34.7939C76.5409 34.7259 76.4208 34.6489 76.2713 34.5629C76.1264 34.4768 75.9746 34.3885 75.8161 34.2979C75.6575 34.2073 75.508 34.1257 75.3676 34.0533ZM75.5986 37.4235C75.721 37.2514 75.8569 37.0453 76.0063 36.8052C76.1604 36.5651 76.3144 36.3114 76.4684 36.0441C76.6224 35.7724 76.7651 35.5074 76.8965 35.2491L77.3653 35.6772C77.2475 35.9128 77.1184 36.1597 76.978 36.4179C76.8421 36.6715 76.7017 36.9207 76.5567 37.1653C76.4163 37.4099 76.2781 37.6409 76.1422 37.8584L75.5986 37.4235ZM83.8272 32.7079H87.9993V32.3749H83.3584V31.974L88.5904 31.974V33.1088H83.8272V32.7079ZM83.637 32.7079H84.2077C84.1805 32.9072 84.1511 33.1133 84.1194 33.3262C84.0877 33.5346 84.0537 33.7158 84.0175 33.8698H83.4535C83.4897 33.7067 83.5237 33.521 83.5554 33.3126C83.5917 33.0997 83.6188 32.8981 83.637 32.7079ZM83.7185 33.4689H88.6176V33.8698H83.5962L83.7185 33.4689ZM88.4137 33.4689H89.0185C89.0185 33.4689 89.0162 33.4915 89.0117 33.5368C89.0117 33.5821 89.0094 33.6206 89.0049 33.6524C88.9868 33.8517 88.9641 34.008 88.9369 34.1212C88.9143 34.2344 88.8758 34.3183 88.8214 34.3726C88.7761 34.4179 88.7218 34.4519 88.6584 34.4745C88.5995 34.4972 88.536 34.5108 88.4681 34.5153C88.4047 34.5153 88.3163 34.5153 88.2031 34.5153C88.0944 34.5153 87.9766 34.513 87.8498 34.5085C87.8452 34.4496 87.8316 34.3817 87.809 34.3047C87.7863 34.2277 87.7614 34.162 87.7343 34.1076C87.8294 34.1167 87.9154 34.1235 87.9925 34.128C88.0695 34.1325 88.1261 34.1325 88.1623 34.128C88.1986 34.128 88.228 34.1257 88.2507 34.1212C88.2733 34.1167 88.2937 34.1053 88.3118 34.0872C88.339 34.06 88.3594 34.0057 88.373 33.9242C88.3911 33.8381 88.4047 33.709 88.4137 33.5368V33.4689ZM84.9755 31.6343H85.5599V32.9389C85.5599 33.1699 85.5327 33.3874 85.4784 33.5912C85.424 33.795 85.3175 33.983 85.159 34.1552C85.005 34.3228 84.7762 34.4723 84.4727 34.6036C84.1692 34.735 83.7683 34.846 83.27 34.9366C83.2564 34.8868 83.2315 34.8324 83.1953 34.7735C83.1591 34.7101 83.1205 34.6489 83.0798 34.59C83.0435 34.5266 83.0073 34.4745 82.9711 34.4338C83.415 34.3613 83.7683 34.2752 84.0311 34.1756C84.2983 34.0714 84.4999 33.9559 84.6358 33.829C84.7717 33.6977 84.8623 33.5572 84.9076 33.4077C84.9529 33.2583 84.9755 33.0974 84.9755 32.9253V31.6343ZM86.4908 31.6343L87.0955 31.6343V34.325H86.4908V31.6343ZM84.4659 35.4394V35.7927H87.6663V35.4394H84.4659ZM84.4659 36.1665V36.5266H87.6663V36.1665H84.4659ZM84.4659 34.7191V35.0725H87.6663V34.7191H84.4659ZM83.8408 34.3318H88.3186V36.9139H83.8408V34.3318ZM86.5995 37.1721L86.9732 36.7984C87.2269 36.8754 87.4806 36.9569 87.7343 37.043C87.9925 37.1291 88.2371 37.2151 88.4681 37.3012C88.6991 37.3827 88.8962 37.4597 89.0592 37.5322L88.5836 37.9263C88.4341 37.8538 88.2529 37.7723 88.04 37.6817C87.8271 37.5956 87.5961 37.5073 87.3469 37.4167C87.1023 37.3306 86.8532 37.2491 86.5995 37.1721ZM84.9687 36.8731L85.5463 37.1381C85.3606 37.2423 85.1454 37.3442 84.9008 37.4439C84.6607 37.5481 84.4116 37.6432 84.1534 37.7293C83.8997 37.8153 83.6573 37.8878 83.4263 37.9467C83.3946 37.9014 83.3493 37.8493 83.2904 37.7904C83.2361 37.7315 83.1794 37.6726 83.1205 37.6138C83.0617 37.5594 83.0096 37.5141 82.9643 37.4779C83.1998 37.4326 83.4422 37.3805 83.6913 37.3216C83.9405 37.2582 84.176 37.1902 84.398 37.1177C84.6199 37.0407 84.8102 36.9592 84.9687 36.8731ZM96.1123 34.8415L96.6015 35.1744C96.4566 35.3465 96.3139 35.5255 96.1735 35.7112C96.0376 35.8924 95.9085 36.0464 95.7861 36.1732L95.4328 35.9082C95.5053 35.8131 95.5846 35.7044 95.6706 35.5821C95.7567 35.4553 95.8382 35.3262 95.9153 35.1948C95.9968 35.0634 96.0625 34.9456 96.1123 34.8415ZM94.3864 31.6343H94.9572V33.0952H94.3864V31.6343ZM94.699 34.4609H95.2697C95.2516 34.8641 95.2199 35.2424 95.1746 35.5957C95.1293 35.9445 95.0523 36.2661 94.9436 36.5606C94.8394 36.8505 94.6876 37.1109 94.4883 37.342C94.289 37.573 94.0263 37.77 93.7001 37.9331C93.6684 37.8606 93.6163 37.7791 93.5438 37.6885C93.4714 37.5979 93.4012 37.5254 93.3332 37.4711C93.6277 37.3352 93.8609 37.1676 94.0331 36.9682C94.2097 36.7689 94.3434 36.5424 94.434 36.2888C94.5246 36.0351 94.588 35.7565 94.6242 35.453C94.6605 35.145 94.6854 34.8143 94.699 34.4609ZM95.1542 35.419C95.2358 35.7089 95.3467 35.9853 95.4872 36.248C95.6276 36.5107 95.7929 36.744 95.9832 36.9479C96.1735 37.1517 96.3886 37.3125 96.6287 37.4303C96.5653 37.4847 96.4973 37.5571 96.4249 37.6477C96.3524 37.7383 96.2935 37.8221 96.2482 37.8991C95.9945 37.7451 95.768 37.5503 95.5687 37.3148C95.3694 37.0747 95.1973 36.8029 95.0523 36.4994C94.9073 36.1914 94.7896 35.8652 94.699 35.5209L95.1542 35.419ZM93.143 33.6659H96.5811V34.2095H93.143V33.6659ZM92.9119 33.6659H93.4759V35.0181C93.4759 35.231 93.4668 35.4643 93.4487 35.718C93.4351 35.9717 93.4057 36.2321 93.3604 36.4994C93.3196 36.7621 93.2585 37.0181 93.1769 37.2672C93.0999 37.5164 92.9957 37.7429 92.8644 37.9467C92.8327 37.915 92.7851 37.8788 92.7217 37.838C92.6628 37.7972 92.6016 37.7564 92.5382 37.7157C92.4748 37.6749 92.4182 37.6455 92.3683 37.6273C92.5314 37.3691 92.6515 37.086 92.7285 36.778C92.8055 36.47 92.8553 36.1619 92.878 35.8539C92.9006 35.5459 92.9119 35.265 92.9119 35.0113V33.6659ZM93.4215 35.1065L93.8292 34.8686C93.9017 34.9819 93.9765 35.1065 94.0535 35.2424C94.135 35.3737 94.2097 35.5006 94.2777 35.6229C94.3502 35.7452 94.4091 35.8516 94.4544 35.9422L94.0195 36.2276C93.9832 36.1279 93.9312 36.0147 93.8632 35.8879C93.7953 35.7565 93.7228 35.6229 93.6458 35.487C93.5688 35.3465 93.494 35.2197 93.4215 35.1065ZM93.0139 31.8449H93.5914V32.7486H95.7794V31.8449H96.3909V33.2786H93.0139V31.8449ZM90.425 31.9672H92.7285V32.5516H90.425V31.9672ZM91.1317 34.0736H92.5586V37.0973H91.1317V36.5266H92.0762V34.6376H91.1317V34.0736ZM91.2608 32.2662L91.8519 32.3953C91.7704 32.8211 91.6685 33.2424 91.5462 33.6592C91.4284 34.0759 91.2857 34.4655 91.1181 34.8279C90.9505 35.1903 90.7557 35.5074 90.5337 35.7791C90.5247 35.7248 90.5043 35.6523 90.4726 35.5617C90.4454 35.4666 90.4137 35.3737 90.3774 35.2831C90.3457 35.188 90.3118 35.111 90.2755 35.0521C90.5292 34.7124 90.7353 34.3001 90.8939 33.8154C91.0524 33.3262 91.1747 32.8098 91.2608 32.2662ZM90.8599 34.0736H91.3899V37.6273H90.8599V34.0736ZM100.977 35.2967H103.621V35.8947H100.977V35.2967ZM99.5097 35.6297C99.632 35.9649 99.7906 36.2389 99.9854 36.4518C100.185 36.6647 100.411 36.8301 100.665 36.9479C100.919 37.0611 101.199 37.1404 101.507 37.1857C101.815 37.2264 102.142 37.2468 102.486 37.2468C102.536 37.2468 102.613 37.2468 102.717 37.2468C102.826 37.2468 102.948 37.2468 103.084 37.2468C103.22 37.2468 103.358 37.2468 103.498 37.2468C103.639 37.2468 103.766 37.2468 103.879 37.2468C103.997 37.2423 104.089 37.2378 104.157 37.2332C104.126 37.2831 104.094 37.3465 104.062 37.4235C104.031 37.5005 104.003 37.5775 103.981 37.6545C103.958 37.7315 103.94 37.8017 103.926 37.8652H103.614H102.452C102.035 37.8652 101.65 37.8357 101.297 37.7768C100.948 37.7225 100.629 37.6228 100.339 37.4779C100.049 37.3329 99.7906 37.1268 99.5641 36.8595C99.3376 36.5923 99.1451 36.2503 98.9865 35.8335L99.5097 35.6297ZM100.692 34.1688H101.351V37.539L100.692 37.3216V34.1688ZM99.3331 32.5652V33.7203H102.737V32.5652H99.3331ZM98.6943 31.9468H103.417V34.3318H98.6943V31.9468ZM99.0409 34.8007L99.7136 34.8754C99.6592 35.2514 99.5754 35.6319 99.4622 36.017C99.3534 36.3975 99.204 36.7553 99.0137 37.0906C98.828 37.4258 98.5924 37.7066 98.307 37.9331C98.2708 37.8878 98.2255 37.838 98.1711 37.7836C98.1168 37.7293 98.0602 37.6749 98.0013 37.6206C97.9469 37.5707 97.8971 37.53 97.8518 37.4982C98.11 37.2944 98.3206 37.0453 98.4837 36.7508C98.6468 36.4518 98.7714 36.1325 98.8574 35.7927C98.948 35.4485 99.0092 35.1178 99.0409 34.8007ZM106.148 32.4429V33.5504H107.127V32.4429H106.148ZM105.605 31.9061L107.698 31.9061V34.0872H105.605V31.9061ZM106.481 33.8222H107.025V36.9682H106.481V33.8222ZM105.584 34.6512H106.094V37.1517H105.584V34.6512ZM105.231 36.9682C105.448 36.9229 105.695 36.8686 105.972 36.8052C106.248 36.7417 106.54 36.6738 106.848 36.6013C107.161 36.5243 107.471 36.4473 107.779 36.3703L107.847 36.9207C107.408 37.0385 106.968 37.154 106.529 37.2672C106.089 37.3759 105.698 37.4733 105.353 37.5594L105.231 36.9682ZM106.699 34.9366H107.745V35.4938H106.699V34.9366ZM107.881 32.7351H111.584V33.3466H107.881V32.7351ZM109.94 33.1359H110.538V37.2264C110.538 37.385 110.52 37.5118 110.483 37.607C110.447 37.7021 110.377 37.7746 110.273 37.8244C110.173 37.8788 110.044 37.9127 109.885 37.9263C109.731 37.9399 109.537 37.9467 109.301 37.9467C109.297 37.8606 109.276 37.7587 109.24 37.6409C109.204 37.5232 109.165 37.419 109.124 37.3284C109.278 37.3329 109.421 37.3374 109.553 37.342C109.684 37.342 109.772 37.3397 109.818 37.3352C109.863 37.3306 109.895 37.3216 109.913 37.308C109.931 37.2944 109.94 37.265 109.94 37.2197V33.1359ZM108.173 34.094L108.724 34.1892C108.656 34.5923 108.56 34.9796 108.438 35.3511C108.32 35.7225 108.18 36.0373 108.017 36.2956C107.985 36.2684 107.94 36.2344 107.881 36.1936C107.822 36.1529 107.761 36.1144 107.698 36.0781C107.639 36.0419 107.589 36.0147 107.548 35.9966C107.707 35.761 107.838 35.4756 107.942 35.1404C108.046 34.8007 108.123 34.4519 108.173 34.094ZM110.538 34.2435L111.041 34.0397C111.145 34.248 111.24 34.4723 111.326 34.7124C111.417 34.9524 111.494 35.188 111.557 35.419C111.62 35.6455 111.668 35.8494 111.7 36.0306L111.149 36.248C111.131 36.0668 111.09 35.8607 111.027 35.6297C110.964 35.3941 110.889 35.1563 110.803 34.9162C110.721 34.6761 110.633 34.4519 110.538 34.2435ZM108.921 32.9593H109.471V34.427C109.471 34.7214 109.453 35.0249 109.417 35.3375C109.385 35.6455 109.317 35.9535 109.213 36.2616C109.113 36.5651 108.964 36.8595 108.764 37.1449C108.565 37.4303 108.298 37.6976 107.963 37.9467C107.913 37.8788 107.845 37.8063 107.759 37.7293C107.673 37.6523 107.591 37.5866 107.514 37.5322C107.831 37.3012 108.083 37.0566 108.268 36.7984C108.454 36.5402 108.594 36.2752 108.69 36.0034C108.785 35.7316 108.846 35.4621 108.873 35.1948C108.905 34.9275 108.921 34.6716 108.921 34.427V32.9593ZM109.158 31.777L109.743 31.6139C109.833 31.7724 109.922 31.9468 110.008 32.1371C110.098 32.3274 110.16 32.4904 110.191 32.6263L109.573 32.8234C109.541 32.683 109.487 32.5154 109.41 32.3206C109.333 32.1258 109.249 31.9446 109.158 31.777Z" fill="#424242"/>
<rect x="0.749655" y="80.3222" width="28.3205" height="15.4705" stroke="#43B71B" stroke-width="0.679485"/>
<path d="M8.58542 85.614H13.8514V86.1915H8.58542V85.614ZM8.67375 90.9139H13.865V91.4507H8.67375V90.9139ZM11.3373 89.6841H13.2399V90.1869H11.3373V89.6841ZM8.17773 85.614H8.78247V87.666C8.78247 87.9469 8.77568 88.2594 8.76209 88.6037C8.7485 88.9434 8.71905 89.2922 8.67375 89.6501C8.62846 90.0034 8.56277 90.35 8.4767 90.6897C8.39064 91.0249 8.27739 91.333 8.13696 91.6138C8.10072 91.5821 8.04863 91.5459 7.98068 91.5051C7.91726 91.4643 7.84931 91.4258 7.77683 91.3896C7.70889 91.3579 7.64773 91.333 7.59337 91.3148C7.72927 91.0476 7.83572 90.7577 7.91273 90.4451C7.98974 90.1325 8.04636 89.8154 8.0826 89.4938C8.12337 89.1677 8.14829 88.8483 8.15735 88.5358C8.17094 88.2232 8.17773 87.931 8.17773 87.6592V85.614ZM10.9976 89.0522H11.6227V91.2129H10.9976L10.9976 89.0522ZM9.48234 89.5414H10.1007L10.1007 91.2197H9.48234L9.48234 89.5414ZM8.95914 87.3263H11.0723V87.7883H8.95914V87.3263ZM9.78132 86.5924H10.3181V89.0793H9.78132V86.5924ZM9.70657 87.5301L10.0735 87.6592C10.001 87.8359 9.90815 88.0148 9.7949 88.196C9.68619 88.3727 9.56614 88.538 9.43478 88.692C9.30341 88.8415 9.16978 88.9661 9.03388 89.0657C8.99311 89.0069 8.93649 88.9389 8.86401 88.8619C8.79606 88.7849 8.73264 88.7237 8.67375 88.6784C8.80965 88.5969 8.94102 88.495 9.06786 88.3727C9.19922 88.2458 9.31927 88.1099 9.42798 87.965C9.54123 87.82 9.63409 87.6751 9.70657 87.5301ZM11.2626 87.3263H13.7291V87.7883H11.2626V87.3263ZM12.1323 86.5924H12.6759V89.0793H12.1323V86.5924ZM11.9828 87.5233L12.3498 87.6524C12.2773 87.8291 12.1822 88.008 12.0644 88.1892C11.9466 88.3704 11.8198 88.538 11.6839 88.692C11.548 88.8415 11.4098 88.9661 11.2694 89.0657C11.2286 89.0069 11.172 88.9389 11.0995 88.8619C11.0316 88.7804 10.9681 88.7169 10.9093 88.6716C11.0497 88.5946 11.1878 88.495 11.3237 88.3727C11.4596 88.2458 11.5842 88.1099 11.6975 87.965C11.8152 87.8155 11.9104 87.6683 11.9828 87.5233ZM10.2841 87.7747C10.3249 87.7928 10.3815 87.8268 10.454 87.8767C10.5265 87.9265 10.6035 87.9786 10.685 88.0329C10.7666 88.0873 10.8413 88.1394 10.9093 88.1892C10.9817 88.239 11.0316 88.2775 11.0587 88.3047L10.7462 88.6988C10.7054 88.6581 10.6511 88.606 10.5831 88.5425C10.5197 88.4791 10.4495 88.4134 10.3725 88.3455C10.2955 88.2775 10.2207 88.2141 10.1482 88.1552C10.0803 88.0918 10.0237 88.0443 9.97837 88.0125L10.2841 87.7747ZM10.5899 86.307L11.0044 86.6332C10.8368 86.7011 10.6443 86.76 10.4268 86.8099C10.2094 86.8552 9.98516 86.8937 9.75414 86.9254C9.52764 86.9526 9.30568 86.9729 9.08824 86.9865C9.07918 86.9367 9.0588 86.8755 9.02709 86.8031C8.99991 86.7306 8.97273 86.6672 8.94555 86.6128C9.14486 86.5947 9.34644 86.572 9.55029 86.5449C9.75867 86.5132 9.95345 86.4769 10.1346 86.4361C10.3204 86.3954 10.4721 86.3523 10.5899 86.307ZM13.0428 86.2799L13.4573 86.6128C13.2761 86.6762 13.0678 86.7351 12.8322 86.7895C12.5966 86.8393 12.352 86.8801 12.0984 86.9118C11.8492 86.9435 11.6069 86.9661 11.3713 86.9797C11.3623 86.9254 11.3441 86.862 11.317 86.7895C11.2898 86.7125 11.2603 86.649 11.2286 86.5992C11.4461 86.5811 11.668 86.5584 11.8945 86.5313C12.1255 86.4996 12.3407 86.4633 12.54 86.4226C12.7439 86.3773 12.9115 86.3297 13.0428 86.2799ZM12.6827 87.8019C12.7416 87.8336 12.8254 87.888 12.9341 87.965C13.0474 88.0375 13.1674 88.119 13.2943 88.2096C13.4256 88.2957 13.5434 88.3772 13.6476 88.4542C13.7563 88.5312 13.8356 88.5878 13.8854 88.6241L13.5864 89.0522C13.523 88.9887 13.4392 88.9117 13.335 88.8211C13.2308 88.7305 13.1199 88.6377 13.0021 88.5425C12.8843 88.4429 12.771 88.3523 12.6623 88.2708C12.5536 88.1847 12.4653 88.1167 12.3973 88.0669L12.6827 87.8019ZM17.9555 85.349H18.6214V88.2775C18.6214 88.5675 18.5988 88.8506 18.5535 89.1269C18.5127 89.3987 18.4312 89.6592 18.3089 89.9083C18.1911 90.1529 18.0167 90.384 17.7856 90.6014C17.5592 90.8188 17.2624 91.0136 16.8955 91.1857C16.5286 91.3624 16.0711 91.5119 15.523 91.6342C15.5003 91.5889 15.4663 91.53 15.421 91.4575C15.3803 91.3851 15.3327 91.3126 15.2783 91.2401C15.2285 91.1722 15.181 91.1133 15.1357 91.0634C15.6566 90.9638 16.0892 90.8415 16.4335 90.6965C16.7777 90.5516 17.0518 90.3907 17.2557 90.2141C17.464 90.0374 17.618 89.8449 17.7177 89.6365C17.8174 89.4281 17.8808 89.2107 17.908 88.9842C17.9397 88.7532 17.9555 88.5176 17.9555 88.2775V85.349ZM16.3112 86.9729V88.1077H20.2658V86.9729H16.3112ZM15.6792 86.3546H20.9249V88.726H15.6792V86.3546ZM16.5626 88.8823C16.78 89.299 17.0382 89.6388 17.3372 89.9015C17.6362 90.1597 17.985 90.3613 18.3836 90.5063C18.7822 90.6467 19.2375 90.7486 19.7494 90.812C20.2612 90.8709 20.8411 90.9094 21.4888 90.9275C21.4254 91.0045 21.3643 91.1065 21.3054 91.2333C21.2465 91.3601 21.2057 91.4802 21.1831 91.5934C20.5217 91.5572 19.9215 91.4938 19.3824 91.4032C18.8434 91.3171 18.3609 91.1857 17.9351 91.0091C17.5093 90.8324 17.1333 90.5901 16.8072 90.282C16.481 89.974 16.2047 89.5799 15.9782 89.0997L16.5626 88.8823Z" fill="#43B71B"/>
<rect x="35.0429" y="80.3222" width="28.3205" height="15.4705" stroke="#424242" stroke-width="0.679485"/>
<path d="M42.4098 87.0477H44.0745V87.5913H42.4098V87.0477ZM42.0361 88.23H44.3531V88.7804H42.0361V88.23ZM42.07 89.1473L42.5117 89.0454C42.5615 89.2356 42.6114 89.444 42.6612 89.6705C42.711 89.897 42.7473 90.0918 42.7699 90.2548L42.3079 90.384C42.2943 90.2118 42.2648 90.0125 42.2195 89.786C42.1742 89.555 42.1244 89.3421 42.07 89.1473ZM41.9206 90.8392C42.2241 90.7939 42.5955 90.735 43.0349 90.6625C43.4788 90.5901 43.9296 90.5153 44.3871 90.4383L44.4211 90.9479C44.0088 91.034 43.5944 91.1178 43.1776 91.1993C42.7609 91.2809 42.3894 91.3533 42.0633 91.4168L41.9206 90.8392ZM43.9998 88.9842L44.4347 89.0997C44.3803 89.3036 44.3237 89.5165 44.2648 89.7384C44.2104 89.9559 44.1583 90.1416 44.1085 90.2956L43.762 90.1937C43.7937 90.0804 43.8231 89.9536 43.8503 89.8132C43.882 89.6682 43.9115 89.5233 43.9386 89.3783C43.9658 89.2334 43.9862 89.102 43.9998 88.9842ZM43.0077 87.2719H43.5309V90.9207L43.0077 91.0159V87.2719ZM43.164 85.3082L43.66 85.4917C43.5377 85.7499 43.3905 86.0081 43.2184 86.2663C43.0462 86.5245 42.8605 86.7668 42.6612 86.9933C42.4664 87.2198 42.2648 87.4191 42.0565 87.5913C42.0519 87.546 42.0361 87.4848 42.0089 87.4078C41.9862 87.3308 41.9591 87.2515 41.9274 87.17C41.8956 87.0839 41.8662 87.0182 41.839 86.9729C42.0927 86.7691 42.3396 86.5222 42.5797 86.2323C42.8197 85.9379 43.0145 85.6298 43.164 85.3082ZM43.0689 85.9129L43.4154 85.546C43.5559 85.6774 43.7053 85.8201 43.8639 85.9741C44.027 86.1281 44.181 86.2776 44.3259 86.4226C44.4754 86.5675 44.5977 86.6921 44.6929 86.7963L44.3259 87.2243C44.2353 87.1111 44.1176 86.9775 43.9726 86.8234C43.8276 86.6694 43.6759 86.5132 43.5174 86.3546C43.3588 86.1915 43.2093 86.0443 43.0689 85.9129ZM47.6894 88.5833L48.1243 88.9434C47.9838 89.0975 47.8321 89.2537 47.669 89.4123C47.5059 89.5663 47.3587 89.6977 47.2273 89.8064L46.874 89.4802C46.9601 89.4032 47.0529 89.3126 47.1526 89.2084C47.2523 89.1043 47.3496 88.9978 47.4448 88.8891C47.5399 88.7758 47.6214 88.6739 47.6894 88.5833ZM44.5977 88.9027L45.019 88.5969C45.1504 88.7237 45.2863 88.8687 45.4267 89.0318C45.5717 89.1903 45.6826 89.3262 45.7597 89.4395L45.3112 89.786C45.2659 89.709 45.2025 89.6184 45.1209 89.5142C45.0394 89.41 44.9533 89.3036 44.8627 89.1949C44.7721 89.0861 44.6838 88.9887 44.5977 88.9027ZM45.4199 85.9061H47.2409V86.4022H45.4199V85.9061ZM45.2093 86.9254H47.0846V87.4282H45.2093V86.9254ZM44.455 87.8427H48.233V88.4066H44.455V87.8427ZM46.0247 88.1756H46.6158V90.9955C46.6158 91.1404 46.5999 91.2537 46.5682 91.3352C46.5365 91.4213 46.4708 91.487 46.3712 91.5323C46.2806 91.5776 46.1651 91.6048 46.0247 91.6138C45.8888 91.6274 45.7234 91.6342 45.5286 91.6342C45.5196 91.5527 45.4969 91.4575 45.4607 91.3488C45.4244 91.2446 45.3859 91.154 45.3452 91.077C45.472 91.0816 45.5898 91.0838 45.6985 91.0838C45.8072 91.0838 45.882 91.0838 45.9227 91.0838C45.9907 91.0793 46.0247 91.0476 46.0247 90.9887V88.1756ZM44.3191 90.7033C44.4867 90.6037 44.6861 90.4768 44.9171 90.3228C45.1481 90.1643 45.3859 90.0012 45.6305 89.8336L45.8208 90.3024C45.626 90.4519 45.4267 90.6037 45.2229 90.7577C45.0235 90.9072 44.8333 91.0498 44.6521 91.1857L44.3191 90.7033ZM45.352 85.315L45.9499 85.3829C45.9001 85.6049 45.8435 85.8427 45.78 86.0964C45.7211 86.3455 45.66 86.5856 45.5966 86.8167C45.5377 87.0477 45.4811 87.2515 45.4267 87.4282H44.8084C44.8673 87.2425 44.9307 87.0296 44.9986 86.7895C45.0666 86.5449 45.13 86.2934 45.1889 86.0352C45.2523 85.777 45.3067 85.537 45.352 85.315ZM47.0643 85.9061H47.1322L47.2341 85.879L47.6758 85.9401C47.6441 86.153 47.6033 86.384 47.5535 86.6332C47.5037 86.8823 47.4516 87.1292 47.3972 87.3738C47.3474 87.6184 47.2976 87.8495 47.2477 88.0669L46.6566 87.9922C46.7109 87.7702 46.763 87.5346 46.8129 87.2855C46.8672 87.0318 46.917 86.7895 46.9623 86.5584C47.0076 86.3229 47.0416 86.1281 47.0643 85.9741V85.9061ZM46.7245 90.1869L47.0711 89.8064C47.207 89.897 47.3496 89.9989 47.4991 90.1122C47.6531 90.2254 47.8004 90.3387 47.9408 90.4519C48.0812 90.5606 48.1945 90.658 48.2805 90.7441L47.9136 91.1789C47.8321 91.0929 47.7234 90.991 47.5875 90.8732C47.4516 90.7554 47.3066 90.6376 47.1526 90.5198C47.0031 90.3975 46.8604 90.2866 46.7245 90.1869ZM54.8104 85.4509L55.4151 85.6955C55.2611 85.9039 55.0845 86.1077 54.8851 86.307C54.6903 86.5064 54.4842 86.6943 54.2668 86.871C54.0494 87.0431 53.8342 87.1949 53.6213 87.3263C53.5669 87.2583 53.4967 87.1813 53.4107 87.0952C53.3246 87.0092 53.2408 86.9367 53.1592 86.8778C53.3586 86.7691 53.5601 86.6377 53.764 86.4837C53.9724 86.3297 54.1671 86.1643 54.3483 85.9877C54.5341 85.8065 54.6881 85.6276 54.8104 85.4509ZM55.0142 87.2923L55.5986 87.5369C55.4355 87.7589 55.243 87.9763 55.021 88.1892C54.8036 88.4021 54.5748 88.5992 54.3348 88.7804C54.0947 88.957 53.8546 89.1156 53.6145 89.256C53.5692 89.1835 53.5035 89.1043 53.4174 89.0182C53.3359 88.9321 53.2544 88.8596 53.1728 88.8008C53.3948 88.6875 53.619 88.5516 53.8455 88.3931C54.0765 88.23 54.294 88.0533 54.4978 87.8631C54.7062 87.6728 54.8783 87.4825 55.0142 87.2923ZM55.1365 89.2288L55.7345 89.4531C55.5624 89.7475 55.354 90.0284 55.1094 90.2956C54.8693 90.5584 54.6065 90.7984 54.3212 91.0159C54.0403 91.2333 53.7459 91.4213 53.4378 91.5798C53.388 91.5028 53.3201 91.4168 53.234 91.3216C53.1524 91.2265 53.0732 91.1472 52.9962 91.0838C53.2816 90.9525 53.5601 90.7916 53.8319 90.6014C54.1037 90.4111 54.3529 90.1982 54.5794 89.9627C54.8059 89.7271 54.9916 89.4825 55.1365 89.2288ZM49.5376 87.8427H53.2476V88.3455H49.5376V87.8427ZM50.5364 89.0725V89.5482H52.3031V89.0725H50.5364ZM49.9385 88.6377H52.9282V89.9831H49.9385V88.6377ZM51.9633 90.2752L52.4186 90.0714C52.5364 90.2299 52.6542 90.4066 52.7719 90.6014C52.8897 90.7962 52.978 90.9615 53.0369 91.0974L52.5545 91.3352C52.4956 91.1948 52.4095 91.0249 52.2963 90.8256C52.1876 90.6218 52.0766 90.4383 51.9633 90.2752ZM50.4685 86.7011V87.0477H52.3778V86.7011H50.4685ZM50.4685 85.9673V86.3138H52.3778V85.9673H50.4685ZM49.8569 85.5596H53.0166V87.4622H49.8569V85.5596ZM51.0936 89.752H51.7187V91.0091C51.7187 91.1495 51.7029 91.2582 51.6712 91.3352C51.644 91.4122 51.5806 91.4734 51.4809 91.5187C51.3858 91.5595 51.268 91.5844 51.1276 91.5934C50.9917 91.6025 50.8309 91.607 50.6451 91.607C50.6316 91.521 50.6066 91.4304 50.5704 91.3352C50.5342 91.2401 50.4957 91.154 50.4549 91.077C50.5772 91.0816 50.6882 91.0838 50.7878 91.0838C50.892 91.0838 50.9622 91.0838 50.9985 91.0838C51.0392 91.0838 51.0642 91.077 51.0732 91.0634C51.0868 91.0544 51.0936 91.034 51.0936 91.0023V89.752ZM50.1695 90.085L50.7063 90.2413C50.6157 90.4451 50.5025 90.6535 50.3666 90.8664C50.2352 91.0748 50.1016 91.2492 49.9657 91.3896C49.934 91.3579 49.8909 91.3194 49.8366 91.2741C49.7822 91.2333 49.7256 91.1903 49.6667 91.145C49.6123 91.1042 49.5648 91.0702 49.524 91.0431C49.6508 90.9162 49.7709 90.769 49.8841 90.6014C49.9974 90.4292 50.0925 90.2571 50.1695 90.085ZM50.9713 87.5777L51.576 87.4486C51.6304 87.5301 51.6825 87.623 51.7323 87.7272C51.7867 87.8268 51.8252 87.9174 51.8478 87.999L51.2091 88.1416C51.191 88.0646 51.1593 87.974 51.114 87.8699C51.0687 87.7611 51.0211 87.6637 50.9713 87.5777Z" fill="#424242"/>
<rect x="115.198" y="62.621" width="28.3205" height="15.4743" stroke="#424242" stroke-width="0.679485" stroke-dasharray="1.36 1.36"/>
<path d="M125.501 73.1128H127.702V73.67H125.501V73.1128ZM125.82 68.2953H127.58V68.8456H125.82V68.2953ZM125.249 71.4345H127.981V73.8942H127.362V71.9781H125.84V73.9146H125.249V71.4345ZM127.356 68.2953H127.471L127.587 68.2681L127.994 68.4447C127.868 68.866 127.7 69.2511 127.492 69.5999C127.283 69.9487 127.045 70.2635 126.778 70.5444C126.511 70.8207 126.221 71.063 125.908 71.2714C125.6 71.4798 125.281 71.6542 124.95 71.7946C124.91 71.7221 124.853 71.6383 124.78 71.5432C124.712 71.4435 124.647 71.3665 124.583 71.3122C124.882 71.1989 125.175 71.0494 125.46 70.8637C125.75 70.6735 126.019 70.4538 126.269 70.2046C126.518 69.9555 126.735 69.6791 126.921 69.3756C127.107 69.0721 127.251 68.7482 127.356 68.404V68.2953ZM125.895 67.6158L126.506 67.7653C126.407 68.0733 126.287 68.3723 126.146 68.6622C126.006 68.9521 125.849 69.2216 125.677 69.4708C125.51 69.7154 125.331 69.9328 125.141 70.1231C125.109 70.0823 125.061 70.037 124.998 69.9872C124.939 69.9328 124.876 69.8807 124.808 69.8309C124.744 69.7765 124.69 69.7335 124.645 69.7018C124.916 69.4572 125.161 69.1514 125.378 68.7845C125.6 68.413 125.772 68.0235 125.895 67.6158ZM125.827 68.6214C125.926 68.857 126.056 69.0993 126.214 69.3485C126.377 69.5976 126.57 69.8377 126.792 70.0687C127.018 70.2997 127.274 70.5104 127.56 70.7006C127.845 70.8909 128.162 71.0472 128.511 71.1695C128.47 71.2102 128.422 71.2646 128.368 71.3326C128.318 71.396 128.271 71.4617 128.225 71.5296C128.18 71.593 128.142 71.6542 128.11 71.7131C127.761 71.5681 127.442 71.3892 127.152 71.1763C126.866 70.9634 126.611 70.7301 126.384 70.4764C126.162 70.2227 125.967 69.9645 125.8 69.7018C125.637 69.4345 125.503 69.1786 125.399 68.934L125.827 68.6214ZM122.409 70.6259H122.939V73.0924H122.409V70.6259ZM123 68.4447V69.4979H124.108V68.4447H123ZM122.429 67.8944H124.706V70.0551H122.429V67.8944ZM123.387 69.8105H123.965V72.8818H123.387V69.8105ZM122.083 73.0109C122.314 72.9656 122.579 72.9112 122.878 72.8478C123.177 72.7844 123.492 72.7142 123.822 72.6372C124.158 72.5602 124.491 72.4832 124.821 72.4061L124.882 72.9769C124.407 73.0947 123.931 73.2125 123.455 73.3302C122.984 73.4435 122.563 73.5431 122.192 73.6292L122.083 73.0109ZM123.605 70.9588H124.767V71.5228H123.605V70.9588ZM133.634 67.6158L134.354 67.7585C134.273 67.9261 134.189 68.0914 134.103 68.2545C134.021 68.413 133.947 68.5489 133.879 68.6622L133.335 68.5263C133.394 68.3949 133.451 68.2432 133.505 68.071C133.559 67.8989 133.602 67.7471 133.634 67.6158ZM132.995 69.7901V70.2794H134.946V69.7901H132.995ZM132.995 68.8388V69.3213H134.946V68.8388H132.995ZM132.397 68.3428H135.571V70.7822H132.397V68.3428ZM133.729 70.5647H134.341V73.2623C134.341 73.4163 134.323 73.5364 134.286 73.6224C134.25 73.713 134.18 73.7855 134.076 73.8399C133.976 73.8852 133.849 73.9123 133.695 73.9214C133.541 73.935 133.356 73.9418 133.138 73.9418C133.125 73.8557 133.1 73.7561 133.063 73.6428C133.032 73.5296 132.995 73.4322 132.955 73.3506C133.1 73.3552 133.235 73.3574 133.362 73.3574C133.489 73.362 133.573 73.362 133.614 73.3574C133.659 73.3529 133.688 73.3438 133.702 73.3302C133.72 73.3167 133.729 73.2917 133.729 73.2555V70.5647ZM132.153 71.285H133.186V71.815H132.153V71.285ZM133.043 71.285H133.152L133.254 71.2646L133.627 71.3937C133.55 71.7425 133.439 72.0596 133.294 72.345C133.149 72.6258 132.98 72.8727 132.785 73.0856C132.59 73.294 132.375 73.4661 132.139 73.602C132.098 73.5341 132.042 73.4548 131.969 73.3642C131.901 73.2781 131.836 73.2079 131.772 73.1536C131.972 73.0494 132.155 72.909 132.323 72.7323C132.495 72.5511 132.644 72.345 132.771 72.114C132.898 71.8829 132.989 71.6361 133.043 71.3733V71.285ZM135.312 70.9588L135.788 71.3529C135.607 71.5115 135.421 71.6723 135.231 71.8354C135.041 71.9939 134.864 72.1276 134.701 72.2363L134.348 71.9237C134.452 71.8376 134.563 71.7402 134.681 71.6315C134.798 71.5183 134.914 71.4028 135.027 71.285C135.14 71.1672 135.235 71.0585 135.312 70.9588ZM134.314 70.9181C134.404 71.2306 134.527 71.5319 134.681 71.8218C134.835 72.1117 135.016 72.3722 135.224 72.6032C135.432 72.8297 135.664 73.0086 135.917 73.14C135.876 73.1808 135.829 73.2306 135.774 73.2895C135.72 73.3484 135.668 73.4095 135.618 73.4729C135.573 73.5364 135.532 73.5975 135.496 73.6564C135.233 73.4843 134.998 73.2646 134.789 72.9973C134.581 72.73 134.4 72.4288 134.246 72.0936C134.092 71.7538 133.965 71.3982 133.865 71.0268L134.314 70.9181ZM131.154 70.3541L131.63 70.225C131.684 70.379 131.736 70.5444 131.786 70.721C131.84 70.8977 131.886 71.0698 131.922 71.2374C131.963 71.4005 131.992 71.5432 132.01 71.6655L131.501 71.8218C131.482 71.6949 131.455 71.5477 131.419 71.3801C131.387 71.2125 131.347 71.0381 131.297 70.8569C131.251 70.6757 131.204 70.5081 131.154 70.3541ZM130.549 72.114L131.018 72.0324C131.059 72.2635 131.093 72.5149 131.12 72.7867C131.152 73.0539 131.17 73.2872 131.174 73.4865L130.685 73.5749C130.685 73.3755 130.672 73.14 130.644 72.8682C130.617 72.5964 130.585 72.345 130.549 72.114ZM129.856 72.046L130.366 72.1276C130.334 72.4311 130.289 72.7368 130.23 73.0449C130.171 73.3529 130.105 73.6156 130.033 73.8331C129.997 73.8104 129.949 73.7878 129.89 73.7651C129.831 73.7425 129.77 73.7221 129.707 73.704C129.643 73.6858 129.591 73.67 129.55 73.6564C129.632 73.448 129.695 73.1989 129.741 72.909C129.79 72.6145 129.829 72.3269 129.856 72.046ZM129.734 70.2318C129.725 70.191 129.707 70.1367 129.68 70.0687C129.657 69.9962 129.632 69.9238 129.605 69.8513C129.582 69.7743 129.559 69.7109 129.537 69.661C129.596 69.6474 129.655 69.6089 129.713 69.5455C129.777 69.4776 129.84 69.3915 129.904 69.2873C129.954 69.2239 130.026 69.1061 130.121 68.934C130.221 68.7573 130.325 68.5535 130.434 68.3224C130.547 68.0869 130.644 67.8468 130.726 67.6022L131.317 67.8468C131.208 68.0914 131.088 68.3383 130.957 68.5874C130.826 68.8366 130.687 69.0744 130.542 69.3009C130.398 69.5229 130.253 69.7244 130.108 69.9056V69.9192C130.108 69.9192 130.089 69.9306 130.053 69.9532C130.017 69.9759 129.972 70.003 129.917 70.0347C129.868 70.0664 129.824 70.1004 129.788 70.1367C129.752 70.1684 129.734 70.2001 129.734 70.2318ZM129.734 70.2318L129.72 69.7765L129.999 69.5999L131.181 69.5047C131.168 69.5817 131.154 69.6701 131.14 69.7697C131.131 69.8694 131.125 69.9509 131.12 70.0144C130.857 70.0461 130.642 70.0732 130.475 70.0959C130.307 70.114 130.173 70.1321 130.074 70.1503C129.978 70.1638 129.906 70.1774 129.856 70.191C129.806 70.2046 129.766 70.2182 129.734 70.2318ZM129.781 71.7878C129.772 71.7425 129.754 71.6836 129.727 71.6111C129.704 71.5387 129.68 71.4639 129.652 71.3869C129.625 71.3099 129.6 71.2442 129.578 71.1899C129.659 71.1717 129.738 71.1242 129.815 71.0472C129.897 70.9656 129.99 70.8614 130.094 70.7346C130.153 70.6757 130.234 70.5761 130.339 70.4356C130.443 70.2907 130.561 70.1208 130.692 69.926C130.823 69.7312 130.955 69.5206 131.086 69.2941C131.222 69.0676 131.342 68.8388 131.446 68.6078L132.003 68.9408C131.836 69.2443 131.65 69.5478 131.446 69.8513C131.247 70.1548 131.038 70.4424 130.821 70.7142C130.608 70.986 130.391 71.2329 130.169 71.4549V71.4752C130.169 71.4752 130.148 71.4866 130.108 71.5092C130.071 71.5273 130.026 71.5523 129.972 71.584C129.922 71.6157 129.877 71.6496 129.836 71.6859C129.8 71.7221 129.781 71.7561 129.781 71.7878ZM129.781 71.7878L129.761 71.319L130.04 71.1287L131.684 70.9249C131.67 71.0019 131.659 71.0902 131.65 71.1899C131.645 71.2895 131.645 71.3711 131.65 71.4345C131.279 71.4888 130.977 71.5364 130.746 71.5772C130.52 71.6134 130.341 71.6429 130.21 71.6655C130.083 71.6882 129.988 71.7085 129.924 71.7267C129.865 71.7448 129.818 71.7652 129.781 71.7878ZM131.208 71.9849L131.636 71.849C131.7 72.012 131.761 72.191 131.82 72.3858C131.879 72.576 131.922 72.7414 131.949 72.8818L131.494 73.0313C131.471 72.8908 131.433 72.7232 131.378 72.5285C131.324 72.3291 131.267 72.1479 131.208 71.9849Z" fill="#424242"/>
</g>
<defs>
<clipPath id="clip0_152_5873">
<rect width="200" height="200" fill="white" transform="translate(0.409912 0.154297)"/>
</clipPath>
</defs>
</svg>
