<svg width="580" height="174" viewBox="0 0 580 174" fill="none" xmlns="http://www.w3.org/2000/svg">
<path d="M215.019 171.877V167.719H273.228V171.877H215.019ZM260.105 155.895V153.037H246.657V155.895H260.105ZM260.105 161.937V159.014H246.657V161.937H260.105ZM228.337 159.014V161.937H241.005V159.014H228.337ZM228.337 153.037V155.895H241.005V153.037H228.337ZM222.425 149.853H266.277V165.12H222.425V149.853ZM246.787 127.765V130.753H260.105V127.765H246.787ZM246.787 121.398V124.192H260.105V121.398H246.787ZM246.787 143.422H273.228V147.385H215.084V143.422H240.68V140.498H219.956V137.055H240.68V134.197H221.645V130.753H240.68V127.765H215.213V124.192H240.68V121.398H222.035V117.955H240.68V113.992H246.787V117.955H266.147V124.192H272.903V127.765H266.147V134.197H246.787V137.055H268.68V140.498H246.787V143.422Z" fill="#43B71B"/>
<path d="M171.23 124.909V129.716H144.399V124.909H156.483C155.444 122.505 153.495 118.802 151.741 116.138L156.483 113.734C158.302 116.463 160.316 119.906 161.356 122.245L156.613 124.909H171.23ZM168.372 142.124V146.802H147.193V142.124H168.372ZM163.305 155.767H152.78V165.057H163.305V155.767ZM168.502 150.895V169.93H152.78V172.853H147.583V150.895H168.502ZM147.193 138.291V133.549H168.502V138.291H147.193ZM202.089 136.018V141.93H189.356V173.698H183.119V141.93H171.1V136.018H183.119V115.294H189.356V136.018H202.089Z" fill="#43B71B"/>
<path d="M128.159 121.269L124.521 124.842C122.962 122.764 119.714 119.775 116.985 117.761L120.363 114.643C123.157 116.527 126.535 119.32 128.159 121.269ZM124.911 133.678L130.173 136.406C126.73 140.954 122.572 146.281 119.194 149.789C122.053 155.766 126.015 160.249 131.862 164.342C130.498 165.446 128.809 167.33 128.159 169.019C121.793 164.212 117.44 158.95 114.387 152.128V166.616C114.387 169.864 113.607 171.553 111.658 172.527C109.644 173.567 106.591 173.762 101.588 173.762C101.328 172.203 100.289 169.539 99.5094 167.98C103.018 168.11 106.136 168.045 107.11 168.045C108.15 167.98 108.54 167.655 108.54 166.616V153.362C103.537 158.365 98.4049 163.237 94.1172 167.135L90.4141 161.873L91.3236 161.158C84.6322 163.367 77.6158 165.576 72.1587 167.265L70.8594 161.483C73.1332 160.899 75.9917 160.054 79.0451 159.144V142.253H72.0937V136.666H79.0451V123.738H71.639V118.151H91.7134V123.738H84.6321V136.666H90.7389V142.253H84.6321V157.455L92.0383 155.182L92.8179 159.989C97.1056 156.546 103.018 151.543 108.54 146.801V130.494H93.1427V124.907H108.54V114.123H114.387V124.907H130.823V130.494H114.387V133.158C115.101 137.576 116.011 141.344 117.115 144.722C119.909 141.279 122.962 137.056 124.911 133.678ZM93.8573 136.147L98.5349 134.068C101.263 137.641 104.187 142.448 105.291 145.632L100.289 148.035C99.3145 144.787 96.5209 139.85 93.8573 136.147Z" fill="#43B71B"/>
<path d="M13.949 130.365V135.173H45.1326V130.365H13.949ZM13.949 121.27V125.882H45.1326V121.27H13.949ZM32.919 166.811H57.9309V172.008H1.54048V166.811H26.6823V160.834H9.27143V156.092H26.6823V150.959H11.8051C9.72619 153.558 7.58231 155.897 5.5034 157.716C4.33402 156.676 1.86531 154.792 0.371094 154.013C4.98368 150.569 9.27143 145.307 11.7401 139.915H8.03707V116.527H51.3694V139.915H12.7146L17.782 141.409C17.0673 142.904 16.1578 144.398 15.3133 145.892H26.6823V141.214H32.919V145.892H53.8381V150.959H32.919V156.092H51.0445V160.834H32.919V166.811Z" fill="#43B71B"/>
<path d="M166.481 59.9043V65.4543H154.581V97.26H149.031V65.4543H137.157V59.9043H166.481Z" fill="#43B71B"/>
<path d="M109.146 97.26V59.9043H132.333V65.4543H114.695V74.473H128.891V80.023H114.695V91.71H132.333V97.26H109.146Z" fill="#43B71B"/>
<path d="M103.61 80.5298V97.2598H98.0601V81.8906C98.0601 80.6988 97.7666 79.6137 97.1795 78.6353C96.6103 77.657 95.8365 76.8832 94.8582 76.314C93.8976 75.7269 92.8125 75.4334 91.6029 75.4334C90.4288 75.4334 89.3526 75.7269 88.3743 76.314C87.3959 76.8832 86.6132 77.657 86.0262 78.6353C85.4392 79.6137 85.1457 80.6988 85.1457 81.8906V97.2598H79.5957V70.5772H85.1457V73.4055C86.0707 72.3027 87.2091 71.431 88.5611 70.7907C89.913 70.1503 91.3716 69.8301 92.937 69.8301C94.9115 69.8301 96.7082 70.3104 98.3269 71.2709C99.9456 72.2315 101.226 73.5212 102.169 75.1399C103.13 76.7587 103.61 78.5553 103.61 80.5298Z" fill="#43B71B"/>
<path d="M68.7223 70.5772H74.2723V97.2598H68.6957L68.4822 93.3908C67.6995 94.7605 66.6411 95.8634 65.307 96.6995C63.9728 97.5355 62.3986 97.9536 60.5841 97.9536C58.6274 97.9536 56.7863 97.5889 55.0608 96.8596C53.3354 96.1125 51.8145 95.0807 50.4981 93.7644C49.1996 92.448 48.1856 90.936 47.4563 89.2283C46.727 87.5029 46.3623 85.6529 46.3623 83.6784C46.3623 81.775 46.7181 79.9873 47.4296 78.3151C48.1411 76.6253 49.1284 75.1488 50.3914 73.8858C51.6544 72.6229 53.113 71.6356 54.7673 70.9241C56.4394 70.1947 58.2272 69.8301 60.1305 69.8301C62.0695 69.8301 63.7772 70.2748 65.2536 71.1642C66.7478 72.0358 67.9841 73.1565 68.9625 74.5262L68.7223 70.5772ZM60.4507 92.5904C62.0161 92.5904 63.3858 92.2079 64.5599 91.443C65.7339 90.6603 66.6411 89.6108 67.2815 88.2945C67.9396 86.9781 68.2687 85.5195 68.2687 83.9185C68.2687 82.2998 67.9396 80.8322 67.2815 79.5159C66.6233 78.1995 65.7072 77.1589 64.5332 76.394C63.3769 75.6113 62.0161 75.22 60.4507 75.22C58.9031 75.22 57.489 75.6113 56.2082 76.394C54.9274 77.1767 53.9135 78.2262 53.1664 79.5426C52.4193 80.8589 52.0457 82.3175 52.0457 83.9185C52.0457 85.5372 52.4282 87.0048 53.1931 88.3211C53.9757 89.6197 54.9986 90.6603 56.2616 91.443C57.5423 92.2079 58.9387 92.5904 60.4507 92.5904Z" fill="#43B71B"/>
<path d="M36.3926 97.2603V57.2363H41.9426V97.2603H36.3926Z" fill="#43B71B"/>
<path d="M7.62598 97.26V59.9043H20.487C22.4971 59.9043 24.3115 60.4024 25.9303 61.3985C27.5668 62.3947 28.8653 63.7377 29.8259 65.4276C30.8043 67.1175 31.2935 68.9853 31.2935 71.0309C31.2935 73.1122 30.7954 74.9978 29.7992 76.6877C28.8209 78.3598 27.5134 79.6939 25.8769 80.6901C24.2404 81.6862 22.4437 82.1843 20.487 82.1843H13.176V97.26H7.62598ZM13.176 76.6343H19.9267C20.994 76.6343 21.9634 76.3675 22.8351 75.8338C23.7245 75.3002 24.4271 74.5886 24.943 73.6992C25.4766 72.8098 25.7435 71.8047 25.7435 70.6841C25.7435 69.5634 25.4766 68.5584 24.943 67.6689C24.4271 66.7617 23.7245 66.0502 22.8351 65.5343C21.9634 65.0007 20.994 64.7338 19.9267 64.7338H13.176V76.6343Z" fill="#43B71B"/>
<path d="M562.891 41.4239V14.7432H568.44V17.5713C569.365 16.4685 570.504 15.5969 571.855 14.9566C573.207 14.3163 574.666 13.9961 576.231 13.9961C577.227 13.9961 578.214 14.1295 579.193 14.3963L576.978 19.9993C576.284 19.7325 575.591 19.599 574.897 19.599C573.723 19.599 572.647 19.8925 571.669 20.4795C570.69 21.0487 569.908 21.8224 569.321 22.8007C568.734 23.779 568.44 24.8641 568.44 26.0558V41.4239H562.891Z" fill="#43B71B"/>
<path d="M552.017 14.7432H557.566V41.4239H551.99L551.777 37.5552C550.994 38.9248 549.936 40.0276 548.602 40.8636C547.267 41.6996 545.693 42.1176 543.879 42.1176C541.922 42.1176 540.081 41.753 538.356 41.0237C536.631 40.2766 535.11 39.245 533.794 37.9287C532.495 36.6125 531.481 35.1006 530.752 33.393C530.023 31.6676 529.658 29.8178 529.658 27.8434C529.658 25.9402 530.014 24.1526 530.725 22.4806C531.437 20.7908 532.424 19.3145 533.687 18.0516C534.95 16.7887 536.408 15.8015 538.063 15.09C539.735 14.3607 541.522 13.9961 543.425 13.9961C545.364 13.9961 547.072 14.4408 548.548 15.3301C550.042 16.2017 551.279 17.3223 552.257 18.6919L552.017 14.7432ZM543.746 36.7548C545.311 36.7548 546.681 36.3723 547.854 35.6075C549.028 34.8249 549.936 33.7754 550.576 32.4592C551.234 31.1429 551.563 29.6844 551.563 28.0835C551.563 26.4649 551.234 24.9975 550.576 23.6812C549.918 22.365 549.002 21.3244 547.828 20.5596C546.672 19.7769 545.311 19.3856 543.746 19.3856C542.198 19.3856 540.784 19.7769 539.503 20.5596C538.223 21.3422 537.209 22.3916 536.462 23.7079C535.715 25.0241 535.341 26.4827 535.341 28.0835C535.341 29.7022 535.724 31.1696 536.488 32.4859C537.271 33.7843 538.294 34.8249 539.557 35.6075C540.837 36.3723 542.234 36.7548 543.746 36.7548Z" fill="#43B71B"/>
<path d="M513.712 42.1176C511.258 42.1176 509.017 41.4862 506.989 40.2233C504.979 38.9604 503.369 37.2706 502.16 35.1539C500.968 33.0195 500.372 30.6627 500.372 28.0835C500.372 26.1269 500.719 24.3038 501.413 22.614C502.106 20.9064 503.058 19.4123 504.267 18.1316C505.495 16.8331 506.918 15.8193 508.536 15.09C510.155 14.3607 511.88 13.9961 513.712 13.9961C515.758 13.9961 517.635 14.423 519.342 15.2768C521.05 16.1128 522.508 17.2778 523.718 18.7719C524.927 20.2483 525.817 21.9558 526.386 23.8946C526.955 25.8157 527.124 27.8612 526.893 30.0312H506.322C506.553 31.2585 506.998 32.3702 507.656 33.3663C508.332 34.3446 509.186 35.1184 510.217 35.6875C511.267 36.2567 512.432 36.5502 513.712 36.568C515.064 36.568 516.292 36.2301 517.394 35.5541C518.515 34.8782 519.431 33.9444 520.142 32.7527L525.772 34.06C524.705 36.4257 523.095 38.3645 520.943 39.8764C518.791 41.3705 516.381 42.1176 513.712 42.1176ZM506.135 25.789H521.29C521.112 24.5083 520.658 23.3521 519.929 22.3205C519.218 21.271 518.319 20.4439 517.234 19.8392C516.167 19.2166 514.993 18.9053 513.712 18.9053C512.45 18.9053 511.276 19.2077 510.191 19.8125C509.123 20.4173 508.234 21.2444 507.523 22.2938C506.829 23.3255 506.366 24.4905 506.135 25.789Z" fill="#43B71B"/>
<path d="M492.994 14.7441H498.917L484.296 54.7653H478.4L483.229 41.4249L473.65 14.7441H479.707L486.004 33.8209L492.994 14.7441Z" fill="#43B71B"/>
<path d="M443.779 42.1176C441.324 42.1176 439.083 41.4862 437.055 40.2233C435.045 38.9604 433.436 37.2706 432.226 35.1539C431.034 33.0195 430.438 30.6627 430.438 28.0835C430.438 26.1269 430.785 24.3038 431.479 22.614C432.173 20.9064 433.124 19.4123 434.334 18.1316C435.561 16.8331 436.984 15.8193 438.603 15.09C440.221 14.3607 441.947 13.9961 443.779 13.9961C446.233 13.9961 448.466 14.6275 450.476 15.8904C452.503 17.1533 454.113 18.852 455.305 20.9864C456.514 23.1209 457.119 25.4866 457.119 28.0835C457.119 30.0223 456.772 31.8366 456.079 33.5264C455.385 35.2162 454.424 36.7103 453.197 38.0088C451.988 39.2894 450.574 40.2944 448.955 41.0237C447.354 41.753 445.629 42.1176 443.779 42.1176ZM443.779 36.568C445.255 36.568 446.58 36.1767 447.754 35.3941C448.928 34.6114 449.853 33.5798 450.529 32.2991C451.223 31.0006 451.57 29.5954 451.57 28.0835C451.57 26.536 451.214 25.1131 450.502 23.8146C449.809 22.5161 448.875 21.4845 447.701 20.7196C446.527 19.937 445.22 19.5457 443.779 19.5457C442.32 19.5457 440.995 19.937 439.803 20.7196C438.629 21.5023 437.696 22.5428 437.002 23.8413C436.326 25.1398 435.988 26.5538 435.988 28.0835C435.988 29.6666 436.344 31.0985 437.055 32.3791C437.767 33.6598 438.71 34.6826 439.883 35.4474C441.075 36.1945 442.374 36.568 443.779 36.568Z" fill="#43B71B"/>
<path d="M427.888 20.2926H422.285L422.258 41.4237H416.709L416.735 20.2926H412.493V14.743H416.735L416.709 6.36523H422.258L422.285 14.743H427.888V20.2926Z" fill="#43B71B"/>
<path d="M380.92 41.4239V14.7432H386.47V17.5713C387.394 16.4685 388.533 15.5969 389.885 14.9566C391.236 14.3163 392.695 13.9961 394.26 13.9961C395.256 13.9961 396.244 14.1295 397.222 14.3963L395.007 19.9993C394.314 19.7325 393.62 19.599 392.926 19.599C391.752 19.599 390.676 19.8925 389.698 20.4795C388.72 21.0487 387.937 21.8224 387.35 22.8007C386.763 23.779 386.47 24.8641 386.47 26.0558V41.4239H380.92Z" fill="#43B71B"/>
<path d="M370.045 14.7432H375.595V41.4239H370.018L369.805 37.5552C369.022 38.9248 367.964 40.0276 366.63 40.8636C365.296 41.6996 363.722 42.1176 361.907 42.1176C359.951 42.1176 358.11 41.753 356.384 41.0237C354.659 40.2766 353.138 39.245 351.822 37.9287C350.524 36.6125 349.51 35.1006 348.78 33.393C348.051 31.6676 347.687 29.8178 347.687 27.8434C347.687 25.9402 348.042 24.1526 348.754 22.4806C349.465 20.7908 350.452 19.3145 351.715 18.0516C352.978 16.7887 354.437 15.8015 356.091 15.09C357.763 14.3607 359.551 13.9961 361.454 13.9961C363.393 13.9961 365.1 14.4408 366.577 15.3301C368.071 16.2017 369.307 17.3223 370.285 18.6919L370.045 14.7432ZM361.774 36.7548C363.339 36.7548 364.709 36.3723 365.883 35.6075C367.057 34.8249 367.964 33.7754 368.604 32.4592C369.262 31.1429 369.591 29.6844 369.591 28.0835C369.591 26.4649 369.262 24.9975 368.604 23.6812C367.946 22.365 367.03 21.3244 365.856 20.5596C364.7 19.7769 363.339 19.3856 361.774 19.3856C360.226 19.3856 358.812 19.7769 357.532 20.5596C356.251 21.3422 355.237 22.3916 354.49 23.7079C353.743 25.0241 353.37 26.4827 353.37 28.0835C353.37 29.7022 353.752 31.1696 354.517 32.4859C355.299 33.7843 356.322 34.8249 357.585 35.6075C358.866 36.3723 360.262 36.7548 361.774 36.7548Z" fill="#43B71B"/>
<path d="M331.741 42.1176C329.286 42.1176 327.045 41.4862 325.017 40.2233C323.007 38.9604 321.398 37.2706 320.188 35.1539C318.996 33.0195 318.4 30.6627 318.4 28.0835C318.4 26.1269 318.747 24.3038 319.441 22.614C320.135 20.9064 321.086 19.4123 322.296 18.1316C323.523 16.8331 324.946 15.8193 326.565 15.09C328.183 14.3607 329.909 13.9961 331.741 13.9961C333.786 13.9961 335.663 14.423 337.37 15.2768C339.078 16.1128 340.537 17.2778 341.746 18.7719C342.956 20.2483 343.845 21.9558 344.414 23.8946C344.983 25.8157 345.152 27.8612 344.921 30.0312H324.35C324.581 31.2585 325.026 32.3702 325.684 33.3663C326.36 34.3446 327.214 35.1184 328.246 35.6875C329.295 36.2567 330.46 36.5502 331.741 36.568C333.093 36.568 334.32 36.2301 335.423 35.5541C336.543 34.8782 337.459 33.9444 338.171 32.7527L343.8 34.06C342.733 36.4257 341.124 38.3645 338.971 39.8764C336.819 41.3705 334.409 42.1176 331.741 42.1176ZM324.163 25.789H339.318C339.14 24.5083 338.687 23.3521 337.957 22.3205C337.246 21.271 336.348 20.4439 335.263 19.8392C334.195 19.2166 333.021 18.9053 331.741 18.9053C330.478 18.9053 329.304 19.2077 328.219 19.8125C327.152 20.4173 326.262 21.2444 325.551 22.2938C324.857 23.3255 324.395 24.4905 324.163 25.789Z" fill="#43B71B"/>
<path d="M311.024 14.7441H316.947L302.326 54.7653H296.43L301.259 41.4249L291.681 14.7441H297.737L304.034 33.8209L311.024 14.7441Z" fill="#43B71B"/>
<path d="M232.508 41.4239V14.7432H238.057V17.5713C238.982 16.4685 240.112 15.5969 241.446 14.9566C242.798 14.3163 244.256 13.9961 245.821 13.9961C247.725 13.9961 249.477 14.4586 251.078 15.3835C252.678 16.2906 253.95 17.5002 254.893 19.0121C255.836 17.5002 257.09 16.2906 258.655 15.3835C260.238 14.4586 261.981 13.9961 263.884 13.9961C265.859 13.9961 267.655 14.4763 269.274 15.4369C270.893 16.3974 272.182 17.6869 273.143 19.3056C274.103 20.9242 274.583 22.7207 274.583 24.6951V41.4239H269.034V26.1092C269.034 24.9352 268.749 23.8591 268.18 22.8808C267.611 21.9025 266.846 21.111 265.885 20.5062C264.925 19.9014 263.858 19.599 262.684 19.599C261.51 19.599 260.443 19.8836 259.482 20.4528C258.522 21.022 257.757 21.7958 257.188 22.7741C256.618 23.7524 256.334 24.864 256.334 26.1092V41.4239H250.784V26.1092C250.784 24.864 250.5 23.7524 249.93 22.7741C249.361 21.7958 248.587 21.022 247.609 20.4528C246.649 19.8836 245.581 19.599 244.407 19.599C243.251 19.599 242.184 19.9014 241.206 20.5062C240.245 21.111 239.48 21.9025 238.911 22.8808C238.342 23.8591 238.057 24.9352 238.057 26.1092V41.4239H232.508Z" fill="#43B71B"/>
<path d="M214.856 42.1176C212.401 42.1176 210.16 41.4862 208.132 40.2233C206.123 38.9604 204.513 37.2706 203.303 35.1539C202.112 33.0195 201.516 30.6627 201.516 28.0835C201.516 26.1269 201.862 24.3038 202.556 22.614C203.25 20.9064 204.201 19.4123 205.411 18.1316C206.638 16.8331 208.061 15.8193 209.68 15.09C211.299 14.3607 213.024 13.9961 214.856 13.9961C217.311 13.9961 219.543 14.6275 221.553 15.8904C223.581 17.1533 225.19 18.852 226.382 20.9864C227.592 23.1209 228.196 25.4866 228.196 28.0835C228.196 30.0223 227.85 31.8366 227.156 33.5264C226.462 35.2162 225.502 36.7103 224.274 38.0088C223.065 39.2894 221.651 40.2944 220.032 41.0237C218.431 41.753 216.706 42.1176 214.856 42.1176ZM214.856 36.568C216.332 36.568 217.657 36.1767 218.831 35.3941C220.005 34.6114 220.93 33.5798 221.606 32.2991C222.3 31.0006 222.647 29.5954 222.647 28.0835C222.647 26.536 222.291 25.1131 221.58 23.8146C220.886 22.5161 219.952 21.4845 218.778 20.7196C217.604 19.937 216.297 19.5457 214.856 19.5457C213.397 19.5457 212.072 19.937 210.881 20.7196C209.707 21.5023 208.773 22.5428 208.079 23.8413C207.403 25.1398 207.065 26.5538 207.065 28.0835C207.065 29.6666 207.421 31.0985 208.132 32.3791C208.844 33.6598 209.787 34.6826 210.961 35.4474C212.152 36.1945 213.451 36.568 214.856 36.568Z" fill="#43B71B"/>
<path d="M184.982 41.4239V14.7432H190.532V17.5713C191.457 16.4685 192.595 15.5969 193.947 14.9566C195.299 14.3163 196.758 13.9961 198.323 13.9961C199.319 13.9961 200.306 14.1295 201.284 14.3963L199.07 19.9993C198.376 19.7325 197.682 19.599 196.989 19.599C195.815 19.599 194.739 19.8925 193.76 20.4795C192.782 21.0487 191.999 21.8224 191.412 22.8007C190.826 23.779 190.532 24.8641 190.532 26.0558V41.4239H184.982Z" fill="#43B71B"/>
<path d="M172.559 8.68785V14.7444H180.083V20.294H172.559V41.4251H167.009V20.294H163.834V14.7444H167.009V8.68785C167.009 7.22931 167.365 5.90416 168.076 4.71242C168.788 3.5029 169.739 2.54239 170.931 1.8309C172.141 1.11941 173.484 0.763672 174.96 0.763672C176.027 0.763672 177.068 0.977118 178.082 1.40401C179.095 1.8309 180.003 2.48903 180.803 3.37838L176.828 7.30046C176.632 6.98029 176.356 6.74016 176 6.58007C175.662 6.4022 175.316 6.31327 174.96 6.31327C174.302 6.31327 173.733 6.5445 173.252 7.00697C172.79 7.46943 172.559 8.02973 172.559 8.68785Z" fill="#43B71B"/>
<path d="M147.557 24.6951V41.4239H142.007V26.0558C142.007 24.8641 141.714 23.779 141.127 22.8007C140.557 21.8224 139.784 21.0487 138.805 20.4795C137.845 19.8925 136.76 19.599 135.55 19.599C134.376 19.599 133.3 19.8925 132.322 20.4795C131.344 21.0487 130.561 21.8224 129.974 22.8007C129.387 23.779 129.094 24.8641 129.094 26.0558V41.4239H123.544V14.7432H129.094V17.5713C130.018 16.4685 131.157 15.5969 132.509 14.9566C133.86 14.3163 135.319 13.9961 136.884 13.9961C138.859 13.9961 140.655 14.4763 142.274 15.4369C143.892 16.3974 145.173 17.6869 146.116 19.3056C147.076 20.9242 147.557 22.7207 147.557 24.6951Z" fill="#43B71B"/>
<path d="M105.945 42.1176C103.49 42.1176 101.249 41.4862 99.2213 40.2233C97.2114 38.9604 95.6016 37.2706 94.3921 35.1539C93.2004 33.0195 92.6045 30.6627 92.6045 28.0835C92.6045 26.1269 92.9513 24.3038 93.645 22.614C94.3387 20.9064 95.2904 19.4123 96.4999 18.1316C97.7272 16.8331 99.1502 15.8193 100.769 15.09C102.387 14.3607 104.113 13.9961 105.945 13.9961C107.99 13.9961 109.867 14.423 111.574 15.2768C113.282 16.1128 114.741 17.2778 115.95 18.7719C117.16 20.2483 118.049 21.9558 118.618 23.8946C119.187 25.8157 119.356 27.8612 119.125 30.0312H98.5543C98.7855 31.2585 99.2302 32.3702 99.8883 33.3663C100.564 34.3446 101.418 35.1184 102.45 35.6875C103.499 36.2567 104.664 36.5502 105.945 36.568C107.297 36.568 108.524 36.2301 109.627 35.5541C110.747 34.8782 111.663 33.9444 112.375 32.7527L118.005 34.06C116.937 36.4257 115.328 38.3645 113.175 39.8764C111.023 41.3705 108.613 42.1176 105.945 42.1176ZM98.3675 25.789H113.522C113.344 24.5083 112.891 23.3521 112.161 22.3205C111.45 21.271 110.552 20.4439 109.467 19.8392C108.399 19.2166 107.226 18.9053 105.945 18.9053C104.682 18.9053 103.508 19.2077 102.423 19.8125C101.356 20.4173 100.466 21.2444 99.7549 22.2938C99.0612 23.3255 98.5988 24.4905 98.3675 25.789Z" fill="#43B71B"/>
<path d="M76.6578 42.1176C74.2031 42.1176 71.9619 41.4862 69.9342 40.2233C67.9243 38.9604 66.3145 37.2706 65.105 35.1539C63.9133 33.0195 63.3174 30.6627 63.3174 28.0835C63.3174 26.1269 63.6642 24.3038 64.3579 22.614C65.0516 20.9064 66.0032 19.4123 67.2128 18.1316C68.4401 16.8331 69.8631 15.8193 71.4817 15.09C73.1003 14.3607 74.8257 13.9961 76.6578 13.9961C78.7033 13.9961 80.5798 14.423 82.2874 15.2768C83.995 16.1128 85.4535 17.2778 86.663 18.7719C87.8726 20.2483 88.7619 21.9558 89.3311 23.8946C89.9003 25.8157 90.0693 27.8612 89.838 30.0312H69.2672C69.4984 31.2585 69.9431 32.3702 70.6012 33.3663C71.2771 34.3446 72.1309 35.1184 73.1626 35.6875C74.212 36.2567 75.3771 36.5502 76.6578 36.568C78.0096 36.568 79.2369 36.2301 80.3397 35.5541C81.4603 34.8782 82.3763 33.9444 83.0878 32.7527L88.7175 34.06C87.6502 36.4257 86.0405 38.3645 83.8882 39.8764C81.736 41.3705 79.3258 42.1176 76.6578 42.1176ZM69.0804 25.789H84.2351C84.0572 24.5083 83.6036 23.3521 82.8744 22.3205C82.1629 21.271 81.2646 20.4439 80.1796 19.8392C79.1124 19.2166 77.9384 18.9053 76.6578 18.9053C75.3949 18.9053 74.2209 19.2077 73.1359 19.8125C72.0687 20.4173 71.1793 21.2444 70.4678 22.2938C69.7741 23.3255 69.3117 24.4905 69.0804 25.789Z" fill="#43B71B"/>
<path d="M46.7832 41.4239V14.7432H52.3328V17.5713C53.2577 16.4685 54.3961 15.5969 55.7479 14.9566C57.0998 14.3163 58.5583 13.9961 60.1236 13.9961C61.1197 13.9961 62.1068 14.1295 63.0851 14.3963L60.8706 19.9993C60.1769 19.7325 59.4832 19.599 58.7895 19.599C57.6156 19.599 56.5395 19.8925 55.5612 20.4795C54.5829 21.0487 53.8002 21.8224 53.2133 22.8007C52.6263 23.779 52.3328 24.8641 52.3328 26.0558V41.4239H46.7832Z" fill="#43B71B"/>
<path d="M23.3498 42.1181C20.7529 42.1181 18.3338 41.62 16.0927 40.6239C13.8693 39.6101 11.9216 38.2138 10.2496 36.4351C8.59538 34.6386 7.29691 32.5664 6.3542 30.2184C5.42926 27.8705 4.9668 25.3714 4.9668 22.7212C4.9668 19.9286 5.46484 17.3583 6.46092 15.0104C7.457 12.6625 8.81772 10.6259 10.5431 8.90053C12.2684 7.15739 14.2339 5.80556 16.4395 4.84506C18.6629 3.88455 20.993 3.4043 23.4299 3.4043C26.1869 3.4043 28.8372 4.04463 31.3807 5.32531C33.9243 6.60599 36.1388 8.527 38.0242 11.0884L33.0616 13.7831C31.7809 12.1823 30.2868 10.9727 28.5793 10.1545C26.8895 9.33632 25.1552 8.92721 23.3765 8.92721C21.6512 8.92721 20.0147 9.28295 18.4673 9.99444C16.9198 10.6881 15.5502 11.6664 14.3584 12.9293C13.1667 14.1744 12.224 15.6419 11.5303 17.3316C10.8543 19.0036 10.5164 20.8268 10.5164 22.8012C10.5164 24.7044 10.8455 26.492 11.5036 28.164C12.1795 29.836 13.1044 31.3035 14.2784 32.5664C15.4701 33.8115 16.8397 34.7897 18.3872 35.5012C19.9525 36.2127 21.6245 36.5685 23.4032 36.5685C24.7194 36.5685 25.9823 36.355 27.1919 35.9281C28.4014 35.5012 29.522 34.8965 30.5536 34.1138C31.6031 33.3134 32.5191 32.3618 33.3017 31.259C34.0844 30.1562 34.7069 28.9289 35.1694 27.5771H27.2452V22.6678H41.6795C41.7151 25.3359 41.2526 27.8439 40.2921 30.1918C39.3494 32.5397 38.0331 34.6119 36.3434 36.4084C34.6714 38.1871 32.7237 39.5834 30.5003 40.5973C28.2769 41.6111 25.8934 42.1181 23.3498 42.1181Z" fill="#43B71B"/>
</svg>
