<svg width="201" height="201" viewBox="0 0 201 201" fill="none" xmlns="http://www.w3.org/2000/svg">
<g clip-path="url(#clip0_157_6460)">
<path d="M47.1395 9.70898L47.1395 76.1602" stroke="#222222" stroke-width="0.679485" stroke-linecap="round"/>
<path d="M61.9677 76.1582H50.2577" stroke="#222222" stroke-width="0.679485" stroke-linecap="round" stroke-dasharray="1.36 1.36"/>
<path d="M61.9677 54.0098H50.2577" stroke="#222222" stroke-width="0.679485" stroke-linecap="round" stroke-dasharray="1.36 1.36"/>
<path d="M61.9677 31.8574H50.2577" stroke="#222222" stroke-width="0.679485" stroke-linecap="round" stroke-dasharray="1.36 1.36"/>
<path d="M44.0214 9.70898L32.3075 9.70898" stroke="#222222" stroke-width="0.679485" stroke-linecap="round"/>
<path d="M61.9677 9.70898L50.2577 9.70898" stroke="#222222" stroke-width="0.679485" stroke-linecap="round" stroke-dasharray="1.36 1.36"/>
<rect x="0.529074" y="0.970602" width="28.3205" height="15.4743" rx="7.73717" stroke="#424242" stroke-width="0.679485"/>
<path d="M7.52907 7.1273H9.62868V7.71166H7.52907L7.52907 7.1273ZM8.47356 9.26088L9.10548 8.51345L9.10548 12.271H8.47356L8.47356 9.26088ZM9.0783 8.69012C9.12813 8.72636 9.20061 8.79204 9.29573 8.88717C9.39539 8.97777 9.49958 9.07742 9.6083 9.18614C9.72155 9.29486 9.82347 9.39678 9.91407 9.49191C10.0092 9.58251 10.0794 9.64819 10.1247 9.68896L9.72381 10.2258C9.66945 10.1442 9.59697 10.0491 9.50638 9.94037C9.41578 9.82712 9.32065 9.71161 9.22099 9.59383C9.12133 9.47606 9.02621 9.36734 8.93561 9.26768C8.84501 9.16349 8.768 9.07742 8.70458 9.00948L9.0783 8.69012ZM9.43163 7.1273H9.56753L9.67625 7.10012L10.0228 7.34474C9.85971 7.75243 9.64907 8.14653 9.39086 8.52704C9.13266 8.90302 8.84727 9.24503 8.53471 9.55306C8.22668 9.85657 7.91638 10.1102 7.60382 10.3141C7.5857 10.2552 7.56078 10.185 7.52907 10.1034C7.50189 10.0174 7.47018 9.93358 7.43395 9.85204C7.40224 9.7705 7.37053 9.70935 7.33882 9.66858C7.6242 9.5055 7.90279 9.29486 8.17458 9.03665C8.45091 8.77845 8.70005 8.49533 8.92202 8.1873C9.14398 7.87927 9.31385 7.5667 9.43163 7.24961V7.1273ZM8.21535 6.22359L8.71138 5.95179C8.83821 6.08316 8.96052 6.23038 9.0783 6.39346C9.20061 6.55653 9.29347 6.70149 9.35689 6.82833L8.82689 7.14089C8.77253 7.01405 8.68646 6.86457 8.56869 6.69243C8.45091 6.52029 8.33313 6.36401 8.21535 6.22359ZM9.81214 11.4013H13.7396V12.0332H9.81214L9.81214 11.4013ZM10.1179 8.0582H13.5833V8.68332H10.1179V8.0582ZM11.5448 5.97897H12.1971V11.707H11.5448V5.97897ZM18.2513 7.29038H21.0916V7.87474H18.2513V7.29038ZM18.3465 8.66294H20.9693V9.25409H18.3465V8.66294ZM18.1019 10.1238L21.2343 10.1238V10.7286L18.1019 10.7286V10.1238ZM18.3057 6.19641L18.8221 6.01974C18.9308 6.18735 19.0282 6.37534 19.1143 6.58371C19.2049 6.78756 19.2683 6.96649 19.3046 7.12051L18.7542 7.32435C18.727 7.16581 18.6704 6.98234 18.5843 6.77397C18.5028 6.56106 18.4099 6.36854 18.3057 6.19641ZM20.3578 5.96538L20.9829 6.10807C20.8923 6.31645 20.7994 6.52709 20.7043 6.74C20.6092 6.9529 20.5186 7.1341 20.4325 7.28358L19.9025 7.14089C19.9569 7.03217 20.0135 6.90987 20.0724 6.77397C20.1313 6.63807 20.1856 6.49991 20.2354 6.35948C20.2853 6.21453 20.326 6.08316 20.3578 5.96538ZM19.3249 7.57576H19.9433V12.2778H19.3249V7.57576ZM14.9287 7.41948H18.1834V7.96986H14.9287L14.9287 7.41948ZM15.2888 6.29833H17.8097V9.08422L15.248 9.08422V8.53384H17.2117V6.84871H15.2888V6.29833ZM15.6285 9.70935H16.2197V12.2778H15.6285L15.6285 9.70935ZM15.8732 9.70935H17.9184V11.9313H15.8732V11.3673H17.2865V10.2665H15.8732L15.8732 9.70935ZM16.043 6.50897L16.6546 6.52935C16.6138 7.19525 16.5458 7.80905 16.4507 8.37076C16.3556 8.92794 16.2129 9.43302 16.0226 9.88601C15.8324 10.3345 15.5742 10.724 15.248 11.0547C15.2254 11.014 15.1891 10.9619 15.1393 10.8984C15.0895 10.835 15.0351 10.7716 14.9762 10.7082C14.9219 10.6448 14.872 10.5949 14.8267 10.5587C15.1212 10.2778 15.3522 9.93584 15.5198 9.53268C15.6874 9.12499 15.8097 8.66747 15.8867 8.16012C15.9637 7.64824 16.0158 7.09786 16.043 6.50897Z" fill="#424242"/>
<rect x="65.4254" y="1.97256" width="28.3205" height="15.4705" stroke="#43B71B" stroke-width="0.679485"/>
<path d="M72.5206 7.4682L72.9283 7.14205C73.0279 7.22812 73.1321 7.32551 73.2408 7.43423C73.3541 7.54294 73.4583 7.65166 73.5534 7.76038C73.653 7.86457 73.7323 7.9597 73.7912 8.04576L73.3631 8.41948C73.3088 8.32888 73.234 8.22922 73.1389 8.12051C73.0438 8.00726 72.9418 7.89401 72.8331 7.78076C72.7289 7.66752 72.6248 7.56333 72.5206 7.4682ZM72.2827 9.26884L72.6701 8.92909C72.7788 9.0061 72.8898 9.09217 73.003 9.1873C73.1162 9.2779 73.2227 9.37302 73.3224 9.47268C73.4265 9.56781 73.5081 9.65388 73.567 9.73089L73.1593 10.1182C73.1004 10.0367 73.0211 9.94606 72.9215 9.8464C72.8263 9.74674 72.7221 9.64708 72.6089 9.54743C72.4956 9.44324 72.3869 9.35037 72.2827 9.26884ZM72.4254 12.7206C72.5115 12.553 72.6066 12.3537 72.7108 12.1227C72.8195 11.8871 72.926 11.6402 73.0302 11.382C73.1389 11.1193 73.2363 10.8679 73.3224 10.6278L73.7572 10.9268C73.6757 11.1578 73.5874 11.3979 73.4922 11.647C73.3971 11.8916 73.2997 12.134 73.2 12.3741C73.1004 12.6096 73.003 12.8293 72.9079 13.0332L72.4254 12.7206ZM73.9203 11.0695H76.5431V11.5179H73.9203V11.0695ZM74.4571 10.2881H76.0607V10.7229H74.4571V10.2881ZM73.7097 12.5847C73.9543 12.5621 74.2374 12.5372 74.559 12.51C74.8852 12.4828 75.2294 12.4534 75.5918 12.4216C75.9588 12.3854 76.3234 12.3492 76.6858 12.3129V12.775C76.337 12.8157 75.9882 12.8543 75.6394 12.8905C75.2906 12.9267 74.9554 12.9584 74.6338 12.9856C74.3167 13.0173 74.0336 13.0468 73.7844 13.074L73.7097 12.5847ZM74.1106 11.7354L74.4707 11.5927C74.5386 11.7059 74.5998 11.8305 74.6541 11.9664C74.713 12.1023 74.7561 12.2201 74.7832 12.3197L74.4027 12.4828C74.3756 12.3831 74.3348 12.2631 74.2804 12.1227C74.2261 11.9777 74.1694 11.8486 74.1106 11.7354ZM75.9656 11.5791L76.3732 11.715C76.3144 11.869 76.2509 12.023 76.183 12.177C76.1196 12.3265 76.0607 12.4579 76.0063 12.5711L75.653 12.442C75.6847 12.3605 75.7187 12.2699 75.7549 12.1702C75.7957 12.0706 75.8342 11.9687 75.8704 11.8645C75.9112 11.7558 75.9429 11.6606 75.9656 11.5791ZM75.2657 7.25077L76.4412 7.25077V7.68564L75.2657 7.68564V7.25077ZM76.3257 7.25077H76.7334C76.7334 7.25077 76.7334 7.27568 76.7334 7.32551C76.7334 7.37534 76.7311 7.41837 76.7266 7.45461C76.713 7.85324 76.6971 8.17487 76.679 8.41948C76.6654 8.66409 76.645 8.85209 76.6179 8.98345C76.5952 9.11029 76.5658 9.20089 76.5295 9.25525C76.4933 9.31414 76.4525 9.35717 76.4072 9.38435C76.3619 9.407 76.3076 9.42285 76.2441 9.43191C76.2034 9.43644 76.149 9.43871 76.0811 9.43871C76.0131 9.43871 75.9406 9.43644 75.8636 9.43191C75.8636 9.36849 75.8546 9.29602 75.8365 9.21448C75.8183 9.12841 75.7957 9.0582 75.7685 9.00384C75.8365 9.0129 75.8953 9.01969 75.9452 9.02422C75.995 9.02422 76.0335 9.02422 76.0607 9.02422C76.115 9.02875 76.1558 9.0061 76.183 8.95627C76.2056 8.92456 76.2238 8.85209 76.2373 8.73884C76.2555 8.62559 76.2713 8.45798 76.2849 8.23602C76.2985 8.00952 76.3121 7.70829 76.3257 7.3323V7.25077ZM74.892 6.97218L75.2181 7.32551C75.0505 7.43876 74.8603 7.53841 74.6474 7.62448C74.4344 7.71055 74.2306 7.78529 74.0358 7.84871C74.0222 7.79435 74.0018 7.73094 73.9747 7.65846C73.952 7.58598 73.9294 7.52256 73.9067 7.4682C74.0834 7.40478 74.2623 7.32777 74.4435 7.23718C74.6292 7.14658 74.7787 7.05824 74.892 6.97218ZM74.5386 8.08653L74.8988 7.96423C74.9758 8.13183 75.0482 8.31756 75.1162 8.5214C75.1841 8.72072 75.2317 8.89512 75.2589 9.04461L74.8784 9.19409C74.8557 9.04008 74.8127 8.86115 74.7493 8.6573C74.6859 8.45345 74.6156 8.2632 74.5386 8.08653ZM74.9939 10.5259H75.4491V12.5915H74.9939V10.5259ZM73.9135 9.56102L73.8456 9.10576L73.9883 8.93589L74.8988 8.46704C74.9214 8.52593 74.9486 8.59162 74.9803 8.66409C75.0165 8.73657 75.0482 8.7932 75.0754 8.83397C74.7674 9.0061 74.5341 9.13747 74.3756 9.22807C74.2215 9.31867 74.1128 9.38888 74.0494 9.43871C73.986 9.48401 73.9407 9.52478 73.9135 9.56102ZM75.2249 9.11935L75.5715 9.3232C75.4446 9.51798 75.2906 9.70597 75.1094 9.88717C74.9327 10.0638 74.7447 10.2269 74.5454 10.3764C74.3461 10.5214 74.1468 10.6459 73.9475 10.7501C73.9158 10.6822 73.8727 10.6074 73.8184 10.5259C73.764 10.4398 73.7119 10.3673 73.6621 10.3084C73.8524 10.2224 74.0449 10.1205 74.2397 10.0027C74.439 9.88037 74.6247 9.74448 74.7968 9.59499C74.969 9.4455 75.1117 9.28696 75.2249 9.11935ZM75.0686 9.7105L75.32 9.35717C75.4831 9.43418 75.6553 9.52478 75.8365 9.62896C76.0222 9.72862 76.1966 9.83281 76.3597 9.94153C76.5227 10.0457 76.6586 10.1454 76.7673 10.2405L76.4956 10.6346C76.3959 10.5395 76.2645 10.4376 76.1015 10.3288C75.9429 10.2156 75.773 10.1046 75.5918 9.99589C75.4106 9.88717 75.2362 9.79204 75.0686 9.7105ZM76.9644 7.69243H77.4264V11.6131H76.9644V7.69243ZM77.8205 6.99936H78.3302V12.5236C78.3302 12.6866 78.312 12.8112 78.2758 12.8973C78.2396 12.9834 78.1761 13.049 78.0855 13.0943C77.9904 13.1396 77.8636 13.1668 77.705 13.1759C77.5465 13.1895 77.3472 13.1963 77.1071 13.1963C77.098 13.1238 77.0799 13.0332 77.0527 12.9245C77.0301 12.8203 77.0029 12.7274 76.9712 12.6459C77.1297 12.6504 77.277 12.6527 77.4129 12.6527C77.5533 12.6527 77.6461 12.6527 77.6914 12.6527C77.7367 12.6481 77.7685 12.6391 77.7866 12.6255C77.8092 12.6074 77.8205 12.5734 77.8205 12.5236V6.99936ZM75.6122 7.50218H76.0131C75.9995 7.87816 75.9565 8.2179 75.884 8.5214C75.8161 8.82491 75.6802 9.07179 75.4763 9.26204C75.4537 9.21674 75.4152 9.16465 75.3608 9.10576C75.3065 9.04687 75.2544 9.00157 75.2045 8.96986C75.3631 8.81585 75.4673 8.612 75.5171 8.35833C75.5715 8.10012 75.6032 7.81474 75.6122 7.50218ZM73.9135 9.56102C73.8999 9.50213 73.875 9.43418 73.8388 9.35717C73.8025 9.27563 73.7663 9.21221 73.73 9.16691C73.7753 9.14426 73.8139 9.10803 73.8456 9.0582C73.8818 9.00384 73.8999 8.91324 73.8999 8.7864V7.4682H74.328V9.1805C74.328 9.1805 74.3053 9.19409 74.26 9.22127C74.2193 9.24392 74.1717 9.27563 74.1174 9.3164C74.0675 9.35264 74.02 9.39341 73.9747 9.43871C73.9339 9.47948 73.9135 9.52025 73.9135 9.56102ZM81.449 10.8724V11.151H84.4387V10.8724H81.449ZM81.449 11.4975V11.7829H84.4387V11.4975H81.449ZM81.449 10.2541V10.5327H84.4387V10.2541H81.449ZM80.8443 9.90076H85.0707V12.1363H80.8443V9.90076ZM83.3108 11.9256H83.9359V12.5236C83.9359 12.6006 83.9563 12.6504 83.9971 12.6731C84.0424 12.6912 84.1398 12.7002 84.2892 12.7002C84.321 12.7002 84.3798 12.7002 84.4659 12.7002C84.5565 12.7002 84.6539 12.7002 84.7581 12.7002C84.8623 12.7002 84.9597 12.7002 85.0503 12.7002C85.1409 12.7002 85.2088 12.7002 85.2541 12.7002C85.3357 12.7002 85.3968 12.6889 85.4376 12.6663C85.4783 12.6391 85.5078 12.5847 85.5259 12.5032C85.544 12.4216 85.5554 12.2971 85.5599 12.1295C85.6233 12.1702 85.7071 12.2087 85.8113 12.245C85.92 12.2812 86.0151 12.3061 86.0967 12.3197C86.074 12.5553 86.0355 12.7365 85.9812 12.8633C85.9313 12.9902 85.8543 13.0762 85.7501 13.1215C85.646 13.1713 85.5033 13.1963 85.3221 13.1963C85.2904 13.1963 85.236 13.1963 85.159 13.1963C85.0865 13.1963 85.0027 13.1963 84.9076 13.1963C84.8124 13.1963 84.7173 13.1963 84.6222 13.1963C84.5316 13.1963 84.4478 13.1963 84.3708 13.1963C84.2983 13.1963 84.2485 13.1963 84.2213 13.1963C83.9812 13.1963 83.7932 13.1759 83.6573 13.1351C83.526 13.0989 83.4354 13.0332 83.3855 12.9381C83.3357 12.8429 83.3108 12.707 83.3108 12.5304V11.9256ZM81.8363 11.9596H82.4682C82.4229 12.1589 82.3504 12.3333 82.2508 12.4828C82.1557 12.6278 82.0175 12.7523 81.8363 12.8565C81.6596 12.9607 81.4286 13.0468 81.1432 13.1147C80.8578 13.1827 80.5045 13.237 80.0832 13.2778C80.0651 13.2053 80.0266 13.1193 79.9677 13.0196C79.9088 12.9199 79.8545 12.8407 79.8046 12.7818C80.1761 12.7591 80.4841 12.7274 80.7287 12.6866C80.9734 12.6459 81.1704 12.5938 81.3199 12.5304C81.4739 12.4669 81.5894 12.3899 81.6664 12.2993C81.7434 12.2042 81.8001 12.091 81.8363 11.9596ZM83.6098 7.9982H85.6686V8.37871H83.6098V7.9982ZM83.5758 7.34589H86.0015V7.76717H83.5758V7.34589ZM81.2995 7.35269H81.8091V7.9914H81.2995V7.35269ZM81.2995 8.71845H81.8091V9.37076H81.2995V8.71845ZM80.4705 7.8691H82.7128V8.9223H80.4705V8.56897H82.1693V8.23602H80.4705V7.8691ZM85.0639 8.93589V9.35717H85.4308V8.93589H85.0639ZM84.3572 8.93589V9.35717H84.7241V8.93589H84.3572ZM83.6641 8.93589V9.35717H84.0175V8.93589H83.6641ZM83.2225 8.60974H85.8928V9.68332H83.2225V8.60974ZM83.5622 6.97897L84.1262 7.0673C84.031 7.31645 83.9087 7.56106 83.7592 7.80115C83.6098 8.0367 83.415 8.25414 83.1749 8.45345C83.1251 8.39457 83.0571 8.32888 82.971 8.2564C82.8895 8.1794 82.8148 8.12504 82.7468 8.09333C82.9597 7.93025 83.1319 7.74905 83.2632 7.54974C83.3946 7.35042 83.4942 7.16017 83.5622 6.97897ZM82.8827 7.18961V7.57692H80.688V9.26884H82.9371V9.64935H80.1308V7.18961H82.8827Z" fill="#43B71B"/>
<rect x="65.4254" y="24.1229" width="28.3205" height="15.4705" stroke="#424242" stroke-width="0.679485"/>
<path d="M76.0267 29.1294H76.6314V33.0568H76.0267V29.1294ZM74.3756 32.785H77.7322V33.3286H74.3756V32.785ZM76.8964 30.7194H77.9632V31.2426H76.8964V30.7194ZM74.7493 30.7194H75.7753V31.2426H74.7493V30.7194ZM74.4435 31.8065H75.8161V32.3433H74.4435V31.8065ZM74.4435 29.8088L75.0143 29.9923V32.1803H74.4435V29.8088ZM75.5035 29.306L75.8976 29.7681C75.7028 29.8541 75.5012 29.9334 75.2929 30.0059C75.089 30.0738 74.9033 30.1282 74.7357 30.169L74.4435 29.8088C74.5522 29.7681 74.6723 29.7205 74.8036 29.6662C74.935 29.6073 75.0618 29.5461 75.1841 29.4827C75.311 29.4193 75.4174 29.3604 75.5035 29.306ZM77.5555 32.785H77.6847L77.8002 32.7578L78.2011 32.9413C78.038 33.3173 77.8228 33.6457 77.5555 33.9265C77.2928 34.2074 76.9893 34.4475 76.645 34.6468C76.3008 34.8461 75.927 35.0092 75.5239 35.136C75.1253 35.2628 74.7085 35.3625 74.2736 35.435C74.251 35.3534 74.2102 35.2561 74.1513 35.1428C74.097 35.0341 74.0403 34.9435 73.9815 34.871C74.3846 34.8212 74.7719 34.7442 75.1434 34.64C75.5194 34.5358 75.8636 34.4022 76.1762 34.2391C76.4933 34.0715 76.7696 33.8767 77.0052 33.6547C77.2453 33.4282 77.4287 33.1678 77.5555 32.8733V32.785ZM75.4016 33.2199C75.5964 33.5052 75.8568 33.7589 76.183 33.9809C76.5137 34.2029 76.8897 34.3886 77.3109 34.5381C77.7367 34.683 78.1943 34.7895 78.6835 34.8574C78.6427 34.9027 78.5952 34.9593 78.5408 35.0273C78.491 35.0952 78.4434 35.1655 78.3981 35.2379C78.3528 35.3104 78.3143 35.3738 78.2826 35.4282C77.7798 35.3376 77.3109 35.2017 76.8761 35.0205C76.4412 34.8438 76.0516 34.6196 75.7073 34.3478C75.3676 34.076 75.0822 33.7635 74.8512 33.4101L75.4016 33.2199ZM76.8557 29.6118H78.2622V32.3569H76.8557V31.8133H77.705V30.1486H76.8557V29.6118ZM72.3031 32.6763C72.5477 32.6038 72.8399 32.5087 73.1797 32.3909C73.5239 32.2731 73.8682 32.1508 74.2125 32.024L74.328 32.6015C74.0109 32.7238 73.6893 32.8439 73.3631 32.9617C73.0415 33.0794 72.7448 33.1882 72.473 33.2878L72.3031 32.6763ZM72.3915 30.4544H74.2397V31.0523H72.3915V30.4544ZM73.1049 29.1294H73.7029V34.6536C73.7029 34.8121 73.6847 34.9367 73.6485 35.0273C73.6123 35.1179 73.5466 35.1881 73.4515 35.2379C73.3654 35.2923 73.2521 35.3263 73.1117 35.3399C72.9713 35.358 72.7969 35.367 72.5885 35.367C72.5795 35.281 72.5591 35.179 72.5274 35.0613C72.4956 34.948 72.4571 34.8484 72.4118 34.7623C72.5432 34.7668 72.6633 34.7714 72.772 34.7759C72.8807 34.7759 72.9554 34.7736 72.9962 34.7691C73.037 34.7691 73.0642 34.7623 73.0777 34.7487C73.0959 34.7306 73.1049 34.6989 73.1049 34.6536V29.1294ZM80.7763 29.4487L85.125 29.4487V31.4464L80.7423 31.4464V31.0115H84.4931V29.8836H80.7763V29.4487ZM83.6641 32.1735V32.7578H85.0435V32.1735H83.6641ZM83.0662 31.7454L85.6754 31.7454V33.1859H83.0662V31.7454ZM79.9202 30.2369L84.8057 30.2369V30.6582L79.9202 30.6582V30.2369ZM84.7853 30.1894H86.0287V30.6922H84.7853V30.1894ZM80.1172 31.7454H82.6517V32.2074H80.1172V31.7454ZM79.8658 33.5528H86.0559V34.0828H79.8658V33.5528ZM84.0446 33.1111H84.6766V34.8167C84.6766 34.9707 84.6539 35.0884 84.6086 35.17C84.5633 35.2515 84.4795 35.3127 84.3572 35.3534C84.2349 35.3942 84.0786 35.4169 83.8883 35.4214C83.7026 35.4305 83.4716 35.435 83.1953 35.435C83.1772 35.358 83.1477 35.2696 83.1069 35.17C83.0662 35.0703 83.0254 34.9843 82.9846 34.9118C83.1205 34.9163 83.2496 34.9186 83.3719 34.9186C83.4988 34.9231 83.6075 34.9231 83.6981 34.9186C83.7932 34.9186 83.8589 34.9186 83.8951 34.9186C83.954 34.914 83.9925 34.9027 84.0107 34.8846C84.0333 34.871 84.0446 34.8416 84.0446 34.7963V33.1111ZM81.0617 31.9153H81.6664V32.8869H81.0617V31.9153ZM79.9949 32.8326C80.2305 32.819 80.4977 32.8054 80.7967 32.7918C81.0957 32.7737 81.415 32.7533 81.7548 32.7306C82.0945 32.708 82.4343 32.6876 82.774 32.6695L82.7672 33.1315C82.278 33.1723 81.791 33.2085 81.3063 33.2402C80.8216 33.272 80.3981 33.3014 80.0357 33.3286L79.9949 32.8326ZM81.0005 34.3206L81.4354 33.9537C81.5622 34.0262 81.6913 34.11 81.8227 34.2051C81.9541 34.2957 82.0764 34.3886 82.1896 34.4837C82.3029 34.5788 82.3957 34.6694 82.4682 34.7555L82.0062 35.1564C81.9428 35.0703 81.8544 34.9775 81.7412 34.8778C81.6325 34.7781 81.5124 34.6808 81.381 34.5856C81.2542 34.486 81.1274 34.3976 81.0005 34.3206Z" fill="#424242"/>
<rect x="65.4254" y="46.2733" width="28.3205" height="15.4705" stroke="#424242" stroke-width="0.679485"/>
<path d="M72.4254 52.4281H74.525V53.0124H72.4254V52.4281ZM73.3699 54.5617L74.0018 53.8142V57.5718H73.3699V54.5617ZM73.9747 53.9909C74.0245 54.0271 74.097 54.0928 74.1921 54.1879C74.2918 54.2785 74.3959 54.3782 74.5047 54.4869C74.6179 54.5956 74.7198 54.6976 74.8104 54.7927C74.9056 54.8833 74.9758 54.949 75.0211 54.9897L74.6202 55.5265C74.5658 55.445 74.4933 55.3499 74.4027 55.2412C74.3121 55.1279 74.217 55.0124 74.1174 54.8946C74.0177 54.7768 73.9226 54.6681 73.832 54.5685C73.7414 54.4643 73.6644 54.3782 73.6009 54.3103L73.9747 53.9909ZM74.328 52.4281H74.4639L74.5726 52.4009L74.9191 52.6455C74.7561 53.0532 74.5454 53.4473 74.2872 53.8278C74.029 54.2038 73.7436 54.5458 73.4311 54.8538C73.123 55.1573 72.8127 55.411 72.5002 55.6149C72.4821 55.556 72.4571 55.4858 72.4254 55.4042C72.3983 55.3182 72.3665 55.2344 72.3303 55.1528C72.2986 55.0713 72.2669 55.0101 72.2352 54.9694C72.5206 54.8063 72.7992 54.5956 73.0709 54.3374C73.3473 54.0792 73.5964 53.7961 73.8184 53.4881C74.0403 53.18 74.2102 52.8675 74.328 52.5504V52.4281ZM73.1117 51.5244L73.6077 51.2526C73.7346 51.3839 73.8569 51.5312 73.9747 51.6942C74.097 51.8573 74.1898 52.0023 74.2533 52.1291L73.7233 52.4417C73.6689 52.3148 73.5828 52.1653 73.465 51.9932C73.3473 51.8211 73.2295 51.6648 73.1117 51.5244ZM74.7085 56.702H78.6359V57.334H74.7085V56.702ZM75.0143 53.359H78.4796V53.9841H75.0143V53.359ZM76.4412 51.2798H77.0935V57.0078H76.4412V51.2798ZM81.0209 52.4349H84.8668V52.8086H81.0209V52.4349ZM80.9394 55.3091H84.9619V55.6828H80.9394V55.3091ZM81.6257 55.8867L82.0334 55.676C82.1375 55.7621 82.2417 55.864 82.3459 55.9818C82.4546 56.095 82.5362 56.197 82.5905 56.2876L82.1625 56.5186C82.1126 56.428 82.0356 56.3238 81.9314 56.206C81.8272 56.0837 81.7253 55.9773 81.6257 55.8867ZM81.7548 53.8822V54.1404H84.1262V53.8822H81.7548ZM81.7548 53.3454V53.5968H84.1262V53.3454H81.7548ZM81.2587 53.0532H84.6562V54.4394H81.2587V53.0532ZM83.4875 55.0781H84.0242V56.2264C84.0242 56.3397 84.0084 56.4212 83.9767 56.471C83.9495 56.5163 83.8929 56.5526 83.8068 56.5797C83.7253 56.6069 83.6166 56.6228 83.4807 56.6273C83.3448 56.6318 83.1772 56.6341 82.9778 56.6341C82.9688 56.5752 82.9507 56.5163 82.9235 56.4574C82.8963 56.394 82.8691 56.3374 82.8419 56.2876C82.9597 56.2921 83.0707 56.2944 83.1749 56.2944C83.2836 56.2944 83.3561 56.2944 83.3923 56.2944C83.4286 56.2898 83.4535 56.283 83.4671 56.274C83.4807 56.2604 83.4875 56.2377 83.4875 56.206V55.0781ZM81.0413 54.7315C81.3222 54.7315 81.6438 54.7315 82.0062 54.7315C82.3686 54.727 82.7536 54.7225 83.1613 54.7179C83.5735 54.7089 83.988 54.7021 84.4048 54.6976L84.3912 55.0101C83.988 55.0237 83.5871 55.0373 83.1885 55.0509C82.7898 55.06 82.4093 55.069 82.0469 55.0781C81.6891 55.0871 81.3629 55.0939 81.0685 55.0985L81.0413 54.7315ZM83.7864 54.6092L84.1194 54.3782C84.2598 54.4733 84.398 54.5843 84.5339 54.7112C84.6743 54.838 84.783 54.949 84.86 55.0441L84.5135 55.3023C84.4319 55.2026 84.321 55.0871 84.1805 54.9558C84.0446 54.8199 83.9133 54.7044 83.7864 54.6092ZM82.6585 52.1495H83.1953V54.8538L82.6585 54.881V52.1495ZM80.1648 51.5448H85.7637V57.5582H85.1522V52.0408H80.7491V57.5786H80.1648V51.5448ZM80.4502 56.736H85.4036V57.232H80.4502V56.736Z" fill="#424242"/>
<rect x="65.4254" y="68.4237" width="28.3205" height="15.4705" stroke="#424242" stroke-width="0.679485"/>
<path d="M74.4027 73.8039H78.4253V79.6678H77.807V74.3678H74.9939V79.7222H74.4027V73.8039ZM75.2249 75.2919H77.6099V75.7744H75.2249V75.2919ZM74.7153 78.7573H78.1263V79.3213H74.7153V78.7573ZM76.149 74.5513H76.6586V76.7189H76.149V74.5513ZM75.9384 76.9091V77.8196H76.8897V76.9091H75.9384ZM75.4627 76.4539H77.3857V78.2749H75.4627V76.4539ZM73.6349 73.4505L74.2261 73.6272C74.0947 74.0122 73.9384 74.3995 73.7572 74.7891C73.5806 75.1742 73.3835 75.5388 73.1661 75.8831C72.9532 76.2228 72.7312 76.5241 72.5002 76.7868C72.4821 76.737 72.4549 76.669 72.4186 76.583C72.3824 76.4969 72.3416 76.4108 72.2963 76.3248C72.2556 76.2342 72.2171 76.1617 72.1808 76.1073C72.3801 75.8899 72.5704 75.6385 72.7516 75.3531C72.9328 75.0677 73.0981 74.7642 73.2476 74.4426C73.3971 74.1164 73.5262 73.7857 73.6349 73.4505ZM73.0709 75.1968L73.6757 74.5921L73.6825 74.5989V79.7358H73.0709V75.1968ZM82.5566 73.4369H83.2904C83.2813 73.6544 83.2678 73.9216 83.2496 74.2387C83.236 74.5513 83.1998 74.8978 83.1409 75.2783C83.0866 75.6589 82.9982 76.053 82.8759 76.4606C82.7536 76.8638 82.5837 77.2647 82.3663 77.6633C82.1534 78.0574 81.8816 78.4312 81.5509 78.7845C81.2202 79.1378 80.8148 79.4459 80.3346 79.7086C80.2803 79.627 80.2033 79.5387 80.1036 79.4436C80.0085 79.3485 79.9088 79.2647 79.8046 79.1922C80.2758 78.9521 80.6699 78.669 80.9869 78.3428C81.304 78.0167 81.5622 77.6701 81.7616 77.3032C81.9609 76.9318 82.1149 76.558 82.2236 76.1821C82.3323 75.8061 82.4093 75.4437 82.4546 75.0949C82.4999 74.7415 82.5271 74.4222 82.5362 74.1368C82.5498 73.8514 82.5566 73.6181 82.5566 73.4369ZM83.2225 74.2727C83.2315 74.3542 83.2496 74.5037 83.2768 74.7212C83.304 74.9386 83.3516 75.1968 83.4195 75.4958C83.492 75.7948 83.5939 76.1141 83.7253 76.4539C83.8566 76.7936 84.0288 77.1311 84.2417 77.4663C84.4546 77.797 84.7173 78.1073 85.0299 78.3972C85.347 78.6871 85.723 78.9294 86.1578 79.1242C86.0627 79.2012 85.9721 79.2896 85.886 79.3892C85.8 79.4889 85.732 79.584 85.6822 79.6746C85.2292 79.4617 84.8396 79.199 84.5135 78.8864C84.1873 78.5693 83.9133 78.2296 83.6913 77.8672C83.4693 77.5003 83.2904 77.1333 83.1545 76.7664C83.0186 76.395 82.9122 76.0462 82.8351 75.72C82.7627 75.3893 82.7083 75.1039 82.6721 74.8639C82.6404 74.6192 82.6177 74.4448 82.6041 74.3407L83.2225 74.2727Z" fill="#424242"/>
</g>
<defs>
<clipPath id="clip0_157_6460">
<rect width="200" height="200" fill="white" transform="translate(0.189331 0.630859)"/>
</clipPath>
</defs>
</svg>
