<svg width="201" height="200" viewBox="0 0 201 200" fill="none" xmlns="http://www.w3.org/2000/svg">
<g clip-path="url(#clip0_152_6128)">
<path d="M47.3583 9.07422L47.3583 75.5254" stroke="#222222" stroke-width="0.679485" stroke-linecap="round"/>
<path d="M62.1859 75.5234H50.4759" stroke="#222222" stroke-width="0.679485" stroke-linecap="round" stroke-dasharray="1.36 1.36"/>
<path d="M62.1859 53.375H50.4759" stroke="#222222" stroke-width="0.679485" stroke-linecap="round" stroke-dasharray="1.36 1.36"/>
<path d="M62.1859 31.2227H50.4759" stroke="#222222" stroke-width="0.679485" stroke-linecap="round" stroke-dasharray="1.36 1.36"/>
<path d="M44.2401 9.07422L32.5263 9.07422" stroke="#222222" stroke-width="0.679485" stroke-linecap="round"/>
<path d="M62.1859 9.07422L50.4759 9.07422" stroke="#222222" stroke-width="0.679485" stroke-linecap="round" stroke-dasharray="1.36 1.36"/>
<rect x="0.747824" y="0.335836" width="28.3205" height="15.4743" rx="7.73717" stroke="#424242" stroke-width="0.679485"/>
<path d="M8.16231 7.49817L13.2041 7.49817V8.02138H8.78064L8.78064 11.6294H8.16231L8.16231 7.49817ZM12.8779 7.49817H13.4759V10.9975C13.4759 11.147 13.4532 11.2603 13.4079 11.3373C13.3626 11.4188 13.2856 11.48 13.1769 11.5207C13.0637 11.5615 12.9142 11.5864 12.7284 11.5955C12.5473 11.6045 12.314 11.6091 12.0286 11.6091C12.0195 11.5321 11.9969 11.4482 11.9606 11.3576C11.9244 11.2671 11.8859 11.1878 11.8451 11.1198C11.9765 11.1244 12.1011 11.1266 12.2188 11.1266C12.3411 11.1312 12.4476 11.1312 12.5382 11.1266C12.6288 11.1266 12.6922 11.1266 12.7284 11.1266C12.7828 11.1266 12.8213 11.1153 12.844 11.0927C12.8666 11.0745 12.8779 11.0406 12.8779 10.9907V7.49817ZM9.84743 9.1833H12.0761V10.7869H9.84743V10.3316H11.5461V9.64535H9.84743V9.1833ZM9.50769 9.1833H10.0513L10.0513 11.0859H9.50769L9.50769 9.1833ZM7.80218 6.03049L13.8224 6.03049V6.58087L7.80218 6.58087V6.03049ZM9.24269 6.73715L9.79307 6.55369C9.86555 6.67147 9.9403 6.80283 10.0173 6.94779C10.0988 7.09275 10.1623 7.21279 10.2076 7.30792L9.63 7.53215C9.58923 7.42796 9.53034 7.30112 9.45333 7.15164C9.38085 6.99762 9.31064 6.85946 9.24269 6.73715ZM11.7908 6.59446L12.4431 6.73036C12.3343 6.91155 12.2211 7.09501 12.1033 7.28074C11.9855 7.46646 11.8791 7.62275 11.784 7.74958L11.2811 7.60689C11.3446 7.51176 11.408 7.40531 11.4714 7.28753C11.5348 7.16976 11.5937 7.04971 11.6481 6.92741C11.707 6.8051 11.7545 6.69412 11.7908 6.59446ZM10.3706 5.44613L10.9754 5.29664C11.0343 5.43254 11.0932 5.58203 11.152 5.7451C11.2109 5.90818 11.2562 6.04861 11.2879 6.16638L10.656 6.34305C10.6288 6.22527 10.5858 6.08258 10.5269 5.91497C10.4726 5.74284 10.4205 5.58656 10.3706 5.44613ZM9.88141 7.76997H10.4454C10.4273 8.04629 10.3752 8.28185 10.2891 8.47663C10.2076 8.67142 10.0694 8.83223 9.87461 8.95907C9.68436 9.0859 9.41483 9.18783 9.06602 9.26484C9.04338 9.20142 9.00034 9.12667 8.93692 9.04061C8.87803 8.95001 8.82141 8.87979 8.76705 8.82996C9.06149 8.77561 9.28572 8.70539 9.43974 8.61932C9.59376 8.53326 9.70248 8.42227 9.76589 8.28638C9.82931 8.14595 9.86782 7.97381 9.88141 7.76997ZM11.0637 7.78356L11.6413 7.78356V8.34753C11.6413 8.42001 11.6481 8.4721 11.6617 8.50381C11.6752 8.53552 11.7115 8.55138 11.7704 8.55138C11.793 8.55138 11.8247 8.55138 11.8655 8.55138C11.9108 8.55138 11.9584 8.55138 12.0082 8.55138C12.0626 8.55138 12.1124 8.55138 12.1577 8.55138C12.203 8.55138 12.237 8.55138 12.2596 8.55138C12.3094 8.55138 12.3751 8.54911 12.4567 8.54458C12.5382 8.53552 12.6016 8.52646 12.6469 8.5174C12.6514 8.58988 12.656 8.66462 12.6605 8.74163C12.665 8.81411 12.6741 8.88659 12.6877 8.95907C12.6424 8.97266 12.5812 8.98398 12.5042 8.99304C12.4272 8.99757 12.3502 8.99984 12.2732 8.99984C12.2415 8.99984 12.1962 8.99984 12.1373 8.99984C12.0784 8.99984 12.015 8.99984 11.947 8.99984C11.8791 8.99984 11.8157 8.99984 11.7568 8.99984C11.7024 8.99984 11.6617 8.99984 11.6345 8.99984C11.4759 8.99984 11.3559 8.97492 11.2744 8.92509C11.1928 8.87526 11.1362 8.80279 11.1045 8.70766C11.0773 8.608 11.0637 8.48569 11.0637 8.34074V7.78356ZM18.6332 7.70202H21.1405V8.28638H18.6332V7.70202ZM17.2063 10.7189H20.5018V11.2897H17.2063V10.7189ZM18.3206 6.96818H18.9865V9.46868H18.3206V6.96818ZM16.8665 9.07458H20.8211V11.5479H20.162V9.67253H17.4916V11.5615H16.8665V9.07458ZM15.99 6.13241H21.3375V6.74395H15.99V6.13241ZM15.6978 6.13241H16.3569V7.89228C16.3569 8.16407 16.3478 8.46304 16.3297 8.7892C16.3116 9.11082 16.2776 9.4415 16.2278 9.78124C16.178 10.121 16.1032 10.4517 16.0036 10.7733C15.9084 11.0949 15.7839 11.3848 15.6299 11.643C15.5891 11.6068 15.5325 11.5638 15.46 11.5139C15.392 11.4641 15.3218 11.4165 15.2493 11.3712C15.1769 11.3259 15.1134 11.2942 15.0591 11.2761C15.204 11.0315 15.3196 10.7642 15.4056 10.4743C15.4917 10.1844 15.5551 9.88996 15.5959 9.59099C15.6366 9.28748 15.6638 8.99078 15.6774 8.70086C15.691 8.40642 15.6978 8.13689 15.6978 7.89228V6.13241ZM18.008 5.4869L18.6468 5.34421C18.7464 5.48916 18.837 5.64997 18.9186 5.82664C19.0001 6.00331 19.0567 6.15959 19.0884 6.29549L18.4089 6.45856C18.3863 6.32266 18.3365 6.16412 18.2595 5.98292C18.1824 5.7972 18.0986 5.63185 18.008 5.4869Z" fill="#424242"/>
<rect x="65.6438" y="1.33779" width="28.3205" height="15.4705" stroke="#424242" stroke-width="0.679485"/>
<path d="M72.7389 6.83344L73.1466 6.50728C73.2463 6.59335 73.3505 6.69074 73.4592 6.79946C73.5724 6.90818 73.6766 7.0169 73.7718 7.12561C73.8714 7.2298 73.9507 7.32493 74.0096 7.411L73.5815 7.78471C73.5272 7.69412 73.4524 7.59446 73.3573 7.48574C73.2622 7.37249 73.1602 7.25925 73.0515 7.146C72.9473 7.03275 72.8431 6.92856 72.7389 6.83344ZM72.5011 8.63407L72.8884 8.29433C72.9972 8.37134 73.1081 8.4574 73.2214 8.55253C73.3346 8.64313 73.4411 8.73826 73.5407 8.83792C73.6449 8.93304 73.7265 9.01911 73.7854 9.09612L73.3777 9.48343C73.3188 9.40189 73.2395 9.31129 73.1398 9.21163C73.0447 9.11198 72.9405 9.01232 72.8273 8.91266C72.714 8.80847 72.6053 8.71561 72.5011 8.63407ZM72.6438 12.0859C72.7299 11.9182 72.825 11.7189 72.9292 11.4879C73.0379 11.2524 73.1444 11.0055 73.2486 10.7473C73.3573 10.4845 73.4547 10.2331 73.5407 9.99304L73.9756 10.292C73.8941 10.523 73.8057 10.7631 73.7106 11.0123C73.6155 11.2569 73.5181 11.4992 73.4184 11.7393C73.3188 11.9749 73.2214 12.1946 73.1263 12.3984L72.6438 12.0859ZM74.1387 10.4347H76.7615V10.8832H74.1387V10.4347ZM74.6755 9.6533H76.2791V10.0882H74.6755V9.6533ZM73.928 11.95C74.1727 11.9273 74.4558 11.9024 74.7774 11.8752C75.1036 11.848 75.4478 11.8186 75.8102 11.7869C76.1771 11.7506 76.5418 11.7144 76.9042 11.6782V12.1402C76.5554 12.181 76.2066 12.2195 75.8578 12.2557C75.509 12.292 75.1738 12.3237 74.8521 12.3509C74.5351 12.3826 74.2519 12.412 74.0028 12.4392L73.928 11.95ZM74.3289 11.1006L74.6891 10.9579C74.757 11.0712 74.8182 11.1957 74.8725 11.3316C74.9314 11.4675 74.9745 11.5853 75.0016 11.685L74.6211 11.848C74.5939 11.7484 74.5532 11.6283 74.4988 11.4879C74.4445 11.343 74.3878 11.2138 74.3289 11.1006ZM76.1839 10.9443L76.5916 11.0802C76.5327 11.2342 76.4693 11.3883 76.4014 11.5423C76.338 11.6918 76.2791 11.8231 76.2247 11.9364L75.8714 11.8073C75.9031 11.7257 75.9371 11.6351 75.9733 11.5355C76.0141 11.4358 76.0526 11.3339 76.0888 11.2297C76.1296 11.121 76.1613 11.0259 76.1839 10.9443ZM75.4841 6.616L76.6596 6.616V7.05087L75.4841 7.05087V6.616ZM76.5441 6.616H76.9518C76.9518 6.616 76.9518 6.64091 76.9518 6.69074C76.9518 6.74057 76.9495 6.78361 76.945 6.81985C76.9314 7.21848 76.9155 7.5401 76.8974 7.78471C76.8838 8.02933 76.8634 8.21732 76.8362 8.34869C76.8136 8.47552 76.7841 8.56612 76.7479 8.62048C76.7117 8.67937 76.6709 8.7224 76.6256 8.74958C76.5803 8.77223 76.5259 8.78809 76.4625 8.79715C76.4218 8.80168 76.3674 8.80394 76.2994 8.80394C76.2315 8.80394 76.159 8.80168 76.082 8.79715C76.082 8.73373 76.073 8.66125 76.0548 8.57971C76.0367 8.49364 76.0141 8.42343 75.9869 8.36907C76.0548 8.37813 76.1137 8.38493 76.1636 8.38946C76.2134 8.38946 76.2519 8.38946 76.2791 8.38946C76.3334 8.39399 76.3742 8.37134 76.4014 8.32151C76.424 8.2898 76.4421 8.21732 76.4557 8.10407C76.4739 7.99082 76.4897 7.82322 76.5033 7.60125C76.5169 7.37476 76.5305 7.07352 76.5441 6.69754V6.616ZM75.1104 6.33741L75.4365 6.69074C75.2689 6.80399 75.0786 6.90365 74.8657 6.98972C74.6528 7.07579 74.449 7.15053 74.2542 7.21395C74.2406 7.15959 74.2202 7.09617 74.193 7.02369C74.1704 6.95121 74.1477 6.88779 74.1251 6.83344C74.3018 6.77002 74.4807 6.69301 74.6619 6.60241C74.8476 6.51181 74.9971 6.42348 75.1104 6.33741ZM74.757 7.45177L75.1171 7.32946C75.1942 7.49707 75.2666 7.68279 75.3346 7.88664C75.4025 8.08595 75.4501 8.26035 75.4773 8.40984L75.0968 8.55933C75.0741 8.40531 75.0311 8.22638 74.9677 8.02253C74.9042 7.81869 74.834 7.62843 74.757 7.45177ZM75.2123 9.89112H75.6675V11.9568H75.2123V9.89112ZM74.1319 8.92625L74.0639 8.47099L74.2066 8.30112L75.1171 7.83228C75.1398 7.89117 75.167 7.95685 75.1987 8.02933C75.2349 8.10181 75.2666 8.15843 75.2938 8.1992C74.9858 8.37134 74.7525 8.5027 74.5939 8.5933C74.4399 8.6839 74.3312 8.75411 74.2678 8.80394C74.2044 8.84924 74.1591 8.89001 74.1319 8.92625ZM75.4433 8.48458L75.7898 8.68843C75.663 8.88322 75.509 9.07121 75.3278 9.2524C75.1511 9.42907 74.9631 9.59214 74.7638 9.74163C74.5645 9.88659 74.3652 10.0112 74.1659 10.1153C74.1342 10.0474 74.0911 9.97266 74.0368 9.89112C73.9824 9.80505 73.9303 9.73257 73.8805 9.67368C74.0707 9.58762 74.2633 9.48569 74.458 9.36791C74.6574 9.24561 74.8431 9.10971 75.0152 8.96022C75.1874 8.81074 75.3301 8.65219 75.4433 8.48458ZM75.287 9.07574L75.5384 8.7224C75.7015 8.79941 75.8736 8.89001 76.0548 8.9942C76.2406 9.09386 76.415 9.19804 76.578 9.30676C76.7411 9.41095 76.877 9.51061 76.9857 9.60573L76.7139 9.99984C76.6143 9.90471 76.4829 9.80279 76.3198 9.69407C76.1613 9.58082 75.9914 9.46984 75.8102 9.36112C75.629 9.2524 75.4546 9.15727 75.287 9.07574ZM77.1828 7.05767H77.6448V10.9783H77.1828V7.05767ZM78.0389 6.36459H78.5485V11.8888C78.5485 12.0519 78.5304 12.1765 78.4942 12.2625C78.4579 12.3486 78.3945 12.4143 78.3039 12.4596C78.2088 12.5049 78.082 12.5321 77.9234 12.5411C77.7649 12.5547 77.5656 12.5615 77.3255 12.5615C77.3164 12.489 77.2983 12.3984 77.2711 12.2897C77.2485 12.1855 77.2213 12.0927 77.1896 12.0111C77.3481 12.0156 77.4953 12.0179 77.6312 12.0179C77.7717 12.0179 77.8645 12.0179 77.9098 12.0179C77.9551 12.0134 77.9868 12.0043 78.005 11.9907C78.0276 11.9726 78.0389 11.9386 78.0389 11.8888V6.36459ZM75.8306 6.86741H76.2315C76.2179 7.24339 76.1749 7.58313 76.1024 7.88664C76.0345 8.19014 75.8986 8.43702 75.6947 8.62728C75.6721 8.58198 75.6336 8.52988 75.5792 8.47099C75.5248 8.41211 75.4727 8.36681 75.4229 8.3351C75.5815 8.18108 75.6856 7.97724 75.7355 7.72356C75.7898 7.46536 75.8215 7.17997 75.8306 6.86741ZM74.1319 8.92625C74.1183 8.86736 74.0934 8.79941 74.0571 8.7224C74.0209 8.64087 73.9847 8.57745 73.9484 8.53215C73.9937 8.5095 74.0322 8.47326 74.0639 8.42343C74.1002 8.36907 74.1183 8.27847 74.1183 8.15164V6.83344H74.5464V8.54574C74.5464 8.54574 74.5237 8.55933 74.4784 8.58651C74.4377 8.60916 74.3901 8.64087 74.3357 8.68163C74.2859 8.71787 74.2383 8.75864 74.193 8.80394C74.1523 8.84471 74.1319 8.88548 74.1319 8.92625ZM81.6674 10.2377V10.5162H84.6571V10.2377H81.6674ZM81.6674 10.8628V11.1482H84.6571V10.8628H81.6674ZM81.6674 9.61932V9.89791H84.6571V9.61932H81.6674ZM81.0626 9.26599H85.289V11.5015H81.0626V9.26599ZM83.5292 11.2909H84.1543V11.8888C84.1543 11.9658 84.1747 12.0156 84.2155 12.0383C84.2607 12.0564 84.3581 12.0655 84.5076 12.0655C84.5393 12.0655 84.5982 12.0655 84.6843 12.0655C84.7749 12.0655 84.8723 12.0655 84.9765 12.0655C85.0807 12.0655 85.1781 12.0655 85.2687 12.0655C85.3593 12.0655 85.4272 12.0655 85.4725 12.0655C85.554 12.0655 85.6152 12.0541 85.656 12.0315C85.6967 12.0043 85.7262 11.95 85.7443 11.8684C85.7624 11.7869 85.7737 11.6623 85.7783 11.4947C85.8417 11.5355 85.9255 11.574 86.0297 11.6102C86.1384 11.6465 86.2335 11.6714 86.3151 11.685C86.2924 11.9205 86.2539 12.1017 86.1995 12.2285C86.1497 12.3554 86.0727 12.4415 85.9685 12.4868C85.8643 12.5366 85.7216 12.5615 85.5404 12.5615C85.5087 12.5615 85.4544 12.5615 85.3774 12.5615C85.3049 12.5615 85.2211 12.5615 85.126 12.5615C85.0308 12.5615 84.9357 12.5615 84.8406 12.5615C84.75 12.5615 84.6662 12.5615 84.5892 12.5615C84.5167 12.5615 84.4669 12.5615 84.4397 12.5615C84.1996 12.5615 84.0116 12.5411 83.8757 12.5003C83.7443 12.4641 83.6537 12.3984 83.6039 12.3033C83.5541 12.2082 83.5292 12.0723 83.5292 11.8956V11.2909ZM82.0547 11.3248H82.6866C82.6413 11.5241 82.5688 11.6985 82.4692 11.848C82.374 11.993 82.2359 12.1176 82.0547 12.2218C81.878 12.3259 81.647 12.412 81.3616 12.48C81.0762 12.5479 80.7229 12.6023 80.3016 12.643C80.2835 12.5706 80.245 12.4845 80.1861 12.3848C80.1272 12.2852 80.0729 12.2059 80.023 12.147C80.3945 12.1244 80.7025 12.0927 80.9471 12.0519C81.1917 12.0111 81.3888 11.959 81.5383 11.8956C81.6923 11.8322 81.8078 11.7552 81.8848 11.6646C81.9618 11.5694 82.0184 11.4562 82.0547 11.3248ZM83.8281 7.36343H85.887V7.74395H83.8281V7.36343ZM83.7942 6.71113H86.2199V7.13241H83.7942V6.71113ZM81.5179 6.71792H82.0275V7.35664H81.5179V6.71792ZM81.5179 8.08369H82.0275V8.73599H81.5179V8.08369ZM80.6889 7.23433H82.9312V8.28753H80.6889V7.9342H82.3876V7.60125H80.6889V7.23433ZM85.2822 8.30112V8.7224H85.6492V8.30112H85.2822ZM84.5756 8.30112V8.7224H84.9425V8.30112H84.5756ZM83.8825 8.30112V8.7224H84.2358V8.30112H83.8825ZM83.4408 7.97497H86.1112V9.04856H83.4408V7.97497ZM83.7806 6.34421L84.3446 6.43254C84.2494 6.68168 84.1271 6.9263 83.9776 7.16638C83.8281 7.40194 83.6334 7.61937 83.3933 7.81869C83.3434 7.7598 83.2755 7.69412 83.1894 7.62164C83.1079 7.54463 83.0331 7.49027 82.9652 7.45856C83.1781 7.29549 83.3502 7.11429 83.4816 6.91497C83.613 6.71566 83.7126 6.5254 83.7806 6.34421ZM83.1011 6.55485V6.94215H80.9064V8.63407H83.1555V9.01458H80.3492V6.55485H83.1011Z" fill="#424242"/>
<rect x="65.6438" y="23.4882" width="43.3205" height="15.4705" stroke="#424242" stroke-width="0.679485"/>
<path d="M77.0877 29.0042L77.5769 28.6713C77.7037 28.7755 77.8351 28.8955 77.971 29.0314C78.1069 29.1628 78.2337 29.2964 78.3515 29.4323C78.4693 29.5637 78.5644 29.6814 78.6369 29.7856L78.1137 30.1525C78.0503 30.0438 77.9619 29.9238 77.8487 29.7924C77.74 29.6565 77.6177 29.5206 77.4818 29.3847C77.3504 29.2443 77.219 29.1175 77.0877 29.0042ZM72.6642 30.4651H78.7524V31.0698H72.6642V30.4651ZM72.5487 32.422C72.8205 32.3767 73.1353 32.3201 73.4932 32.2521C73.8556 32.1842 74.2383 32.1117 74.6415 32.0347C75.0447 31.9577 75.4456 31.8784 75.8442 31.7969L75.8918 32.3813C75.5248 32.4628 75.1511 32.5443 74.7706 32.6259C74.3946 32.7074 74.0322 32.7867 73.6834 32.8637C73.3346 32.9407 73.0153 33.0109 72.7254 33.0743L72.5487 32.422ZM74.0504 29.242H74.6959V34.0052C74.6959 34.1955 74.671 34.3404 74.6211 34.4401C74.5758 34.5443 74.492 34.6213 74.3697 34.6711C74.2474 34.7255 74.0889 34.7594 73.8941 34.773C73.7038 34.7912 73.4683 34.798 73.1874 34.7934C73.1783 34.7345 73.1602 34.6666 73.133 34.5896C73.1104 34.5126 73.0832 34.4333 73.0515 34.3518C73.0198 34.2748 72.9881 34.2068 72.9564 34.1479C73.1602 34.1524 73.3505 34.157 73.5272 34.1615C73.7083 34.1615 73.8284 34.1592 73.8873 34.1547C73.9507 34.1502 73.9937 34.1389 74.0164 34.1207C74.039 34.0981 74.0504 34.0596 74.0504 34.0052V29.242ZM75.3821 28.549L75.8306 29.0925C75.5543 29.1831 75.2485 29.2669 74.9133 29.344C74.5781 29.4164 74.2338 29.4821 73.8805 29.541C73.5317 29.5999 73.1919 29.6497 72.8613 29.6905C72.8477 29.6135 72.8228 29.5229 72.7865 29.4187C72.7503 29.3145 72.7118 29.2262 72.671 29.1537C72.9926 29.1039 73.3188 29.0495 73.6495 28.9906C73.9847 28.9272 74.3018 28.8593 74.6007 28.7868C74.8997 28.7098 75.1602 28.6305 75.3821 28.549ZM76.0616 28.5422H76.7343C76.7253 29.131 76.7434 29.7018 76.7887 30.2545C76.834 30.8071 76.8974 31.3213 76.9789 31.7969C77.065 32.268 77.1647 32.6825 77.2779 33.0404C77.3957 33.3937 77.5225 33.67 77.6584 33.8693C77.7943 34.0641 77.9347 34.1615 78.0797 34.1615C78.1658 34.1615 78.2292 34.0709 78.27 33.8897C78.3153 33.704 78.347 33.4005 78.3651 32.9792C78.433 33.0517 78.5168 33.1219 78.6165 33.1898C78.7207 33.2578 78.8158 33.3076 78.9019 33.3393C78.8656 33.7244 78.8135 34.0233 78.7456 34.2362C78.6822 34.4537 78.5916 34.6054 78.4738 34.6915C78.356 34.7776 78.2043 34.8206 78.0185 34.8206C77.7921 34.8206 77.5859 34.7391 77.4002 34.576C77.219 34.4129 77.0559 34.1864 76.911 33.8965C76.766 33.6021 76.6415 33.2578 76.5373 32.8637C76.4331 32.4696 76.3447 32.0392 76.2723 31.5727C76.2043 31.1061 76.1522 30.6169 76.116 30.105C76.0843 29.5886 76.0662 29.0676 76.0616 28.5422ZM77.903 31.3484L78.4738 31.5863C78.2473 32.0075 77.9755 32.4016 77.6584 32.7686C77.3459 33.1355 76.9993 33.4707 76.6188 33.7742C76.2428 34.0732 75.8465 34.3336 75.4297 34.5556C75.3844 34.4786 75.321 34.3903 75.2395 34.2906C75.1579 34.1955 75.0764 34.1117 74.9948 34.0392C75.3935 33.8535 75.7762 33.6224 76.1432 33.3461C76.5101 33.0698 76.8453 32.7618 77.1488 32.422C77.4523 32.0823 77.7037 31.7244 77.903 31.3484ZM80.7025 29.5818H82.7817V34.0868H80.7025V33.5092H82.1906V30.1525H80.7025V29.5818ZM80.3288 29.5818H80.9199V34.61H80.3288V29.5818ZM80.6753 31.4436H82.4896V32.0007H80.6753V31.4436ZM81.3344 28.4742L82.0343 28.5897C81.9618 28.8072 81.8848 29.0269 81.8033 29.2488C81.7217 29.4708 81.647 29.6588 81.579 29.8128L81.0694 29.6905C81.1011 29.5772 81.1351 29.4504 81.1714 29.31C81.2076 29.165 81.2393 29.0201 81.2665 28.8751C81.2982 28.7256 81.3208 28.592 81.3344 28.4742ZM83.7194 29.5478L85.7579 29.5478V30.139L83.7194 30.139V29.5478ZM85.5337 29.5478H86.1316C86.1316 29.5478 86.1316 29.5682 86.1316 29.609C86.1316 29.6452 86.1316 29.6882 86.1316 29.7381C86.1316 29.7879 86.1316 29.8264 86.1316 29.8536C86.1089 30.6282 86.084 31.285 86.0569 31.8241C86.0297 32.3586 85.998 32.798 85.9617 33.1423C85.93 33.4865 85.8892 33.7538 85.8394 33.9441C85.7941 34.1343 85.7375 34.2725 85.6695 34.3586C85.5835 34.4718 85.4951 34.5488 85.4045 34.5896C85.314 34.6349 85.203 34.6666 85.0716 34.6847C84.9538 34.6983 84.7998 34.7028 84.6096 34.6983C84.4238 34.6983 84.2336 34.6938 84.0388 34.6847C84.0343 34.5941 84.0116 34.4877 83.9708 34.3653C83.9346 34.2476 83.8848 34.1456 83.8213 34.0596C84.0433 34.0777 84.2472 34.089 84.4329 34.0936C84.6186 34.0981 84.7545 34.1003 84.8406 34.1003C84.9085 34.1003 84.9629 34.0936 85.0037 34.08C85.049 34.0664 85.092 34.0369 85.1328 33.9916C85.1871 33.9282 85.2347 33.8059 85.2754 33.6247C85.3162 33.439 85.3525 33.1785 85.3842 32.8433C85.4159 32.5036 85.4431 32.0732 85.4657 31.5523C85.4929 31.0313 85.5155 30.4062 85.5337 29.6769V29.5478ZM83.8078 28.4742L84.4261 28.6169C84.34 28.9521 84.2358 29.2828 84.1135 29.609C83.9958 29.9351 83.8666 30.2431 83.7262 30.5331C83.5858 30.8184 83.4363 31.0698 83.2778 31.2873C83.2415 31.251 83.1894 31.2103 83.1215 31.165C83.0581 31.1151 82.9924 31.0676 82.9244 31.0223C82.861 30.977 82.8021 30.9407 82.7478 30.9136C82.9018 30.7188 83.0445 30.49 83.1758 30.2273C83.3117 29.9645 83.4318 29.6837 83.536 29.3847C83.6447 29.0812 83.7353 28.7777 83.8078 28.4742ZM83.4816 31.4028L83.9844 31.1174C84.1067 31.2714 84.2336 31.4436 84.3649 31.6338C84.5008 31.8195 84.6254 32.0007 84.7387 32.1774C84.8564 32.3541 84.9516 32.5104 85.024 32.6463L84.4804 32.986C84.417 32.8456 84.3287 32.6848 84.2155 32.5036C84.1022 32.3224 83.9822 32.1344 83.8553 31.9396C83.7285 31.7448 83.6039 31.5659 83.4816 31.4028ZM88.007 30.6486H93.0488V31.1718H88.6253V34.7798H88.007V30.6486ZM92.7226 30.6486H93.3206V34.1479C93.3206 34.2974 93.2979 34.4106 93.2526 34.4877C93.2073 34.5692 93.1303 34.6303 93.0216 34.6711C92.9083 34.7119 92.7588 34.7368 92.5731 34.7459C92.3919 34.7549 92.1586 34.7594 91.8732 34.7594C91.8642 34.6824 91.8415 34.5986 91.8053 34.508C91.7691 34.4174 91.7306 34.3382 91.6898 34.2702C91.8212 34.2748 91.9457 34.277 92.0635 34.277C92.1858 34.2815 92.2923 34.2815 92.3829 34.277C92.4735 34.277 92.5369 34.277 92.5731 34.277C92.6275 34.277 92.666 34.2657 92.6886 34.243C92.7113 34.2249 92.7226 34.1909 92.7226 34.1411V30.6486ZM89.6921 32.3337H91.9208V33.9373H89.6921V33.482H91.3908V32.7957H89.6921V32.3337ZM89.3524 32.3337H89.8959V34.2362H89.3524V32.3337ZM87.6468 29.1809H93.6671V29.7313H87.6468V29.1809ZM89.0874 29.8875L89.6377 29.7041C89.7102 29.8219 89.785 29.9532 89.862 30.0982C89.9435 30.2431 90.0069 30.3632 90.0522 30.4583L89.4747 30.6825C89.4339 30.5784 89.375 30.4515 89.298 30.302C89.2255 30.148 89.1553 30.0098 89.0874 29.8875ZM91.6354 29.7448L92.2877 29.8807C92.179 30.0619 92.0658 30.2454 91.948 30.4311C91.8302 30.6169 91.7238 30.7731 91.6286 30.9L91.1258 30.7573C91.1892 30.6622 91.2527 30.5557 91.3161 30.4379C91.3795 30.3201 91.4384 30.2001 91.4927 30.0778C91.5516 29.9555 91.5992 29.8445 91.6354 29.7448ZM90.2153 28.5965L90.82 28.447C90.8789 28.5829 90.9378 28.7324 90.9967 28.8955C91.0556 29.0586 91.1009 29.199 91.1326 29.3168L90.5007 29.4934C90.4735 29.3757 90.4305 29.233 90.3716 29.0654C90.3172 28.8932 90.2651 28.7369 90.2153 28.5965ZM89.7261 30.9204H90.29C90.2719 31.1967 90.2198 31.4322 90.1338 31.627C90.0522 31.8218 89.9141 31.9826 89.7193 32.1095C89.529 32.2363 89.2595 32.3382 88.9107 32.4152C88.888 32.3518 88.845 32.2771 88.7816 32.191C88.7227 32.1004 88.6661 32.0302 88.6117 31.9804C88.9062 31.926 89.1304 31.8558 89.2844 31.7697C89.4384 31.6836 89.5471 31.5727 89.6106 31.4368C89.674 31.2963 89.7125 31.1242 89.7261 30.9204ZM90.9084 30.9339H91.4859V31.4979C91.4859 31.5704 91.4927 31.6225 91.5063 31.6542C91.5199 31.6859 91.5562 31.7018 91.615 31.7018C91.6377 31.7018 91.6694 31.7018 91.7102 31.7018C91.7555 31.7018 91.803 31.7018 91.8529 31.7018C91.9072 31.7018 91.9571 31.7018 92.0023 31.7018C92.0476 31.7018 92.0816 31.7018 92.1043 31.7018C92.1541 31.7018 92.2198 31.6995 92.3013 31.695C92.3829 31.6859 92.4463 31.6769 92.4916 31.6678C92.4961 31.7403 92.5006 31.815 92.5052 31.892C92.5097 31.9645 92.5188 32.037 92.5323 32.1095C92.487 32.123 92.4259 32.1344 92.3489 32.1434C92.2719 32.148 92.1949 32.1502 92.1179 32.1502C92.0862 32.1502 92.0409 32.1502 91.982 32.1502C91.9231 32.1502 91.8597 32.1502 91.7917 32.1502C91.7238 32.1502 91.6603 32.1502 91.6015 32.1502C91.5471 32.1502 91.5063 32.1502 91.4791 32.1502C91.3206 32.1502 91.2006 32.1253 91.119 32.0755C91.0375 32.0257 90.9809 31.9532 90.9491 31.858C90.922 31.7584 90.9084 31.6361 90.9084 31.4911V30.9339ZM98.4778 30.8524H100.985V31.4368H98.4778V30.8524ZM97.0509 33.8693H100.346V34.4401H97.0509V33.8693ZM98.1653 30.1186H98.8312V32.6191H98.1653V30.1186ZM96.7112 32.225L100.666 32.225V34.6983H100.007V32.8229H97.3363V34.7119H96.7112V32.225ZM95.8346 29.2828H101.182V29.8943H95.8346V29.2828ZM95.5425 29.2828H96.2016V31.0427C96.2016 31.3145 96.1925 31.6134 96.1744 31.9396C96.1563 32.2612 96.1223 32.5919 96.0725 32.9316C96.0226 33.2714 95.9479 33.6021 95.8482 33.9237C95.7531 34.2453 95.6285 34.5352 95.4745 34.7934C95.4337 34.7572 95.3771 34.7142 95.3046 34.6643C95.2367 34.6145 95.1665 34.5669 95.094 34.5216C95.0215 34.4763 94.9581 34.4446 94.9038 34.4265C95.0487 34.1819 95.1642 33.9146 95.2503 33.6247C95.3364 33.3348 95.3998 33.0404 95.4405 32.7414C95.4813 32.4379 95.5085 32.1412 95.5221 31.8513C95.5357 31.5568 95.5425 31.2873 95.5425 31.0427V29.2828ZM97.8527 28.6373L98.4914 28.4946C98.5911 28.6396 98.6817 28.8004 98.7632 28.977C98.8448 29.1537 98.9014 29.31 98.9331 29.4459L98.2536 29.609C98.231 29.4731 98.1811 29.3145 98.1041 29.1333C98.0271 28.9476 97.9433 28.7822 97.8527 28.6373Z" fill="#424242"/>
<rect x="65.6438" y="45.6386" width="43.3205" height="15.4705" stroke="#43B71B" stroke-width="0.679485"/>
<path d="M76.6732 53.4784L77.3255 53.6687C77.0718 54.2802 76.7366 54.8012 76.3198 55.2315C75.9076 55.6573 75.4229 56.0084 74.8657 56.2847C74.3086 56.5565 73.688 56.7785 73.0039 56.9506C72.9813 56.9008 72.9473 56.8396 72.902 56.7671C72.8567 56.6947 72.8069 56.6222 72.7525 56.5497C72.7027 56.4772 72.6574 56.4183 72.6166 56.373C73.2871 56.2371 73.8895 56.0492 74.4241 55.8091C74.9586 55.5645 75.4161 55.2519 75.7966 54.8714C76.1771 54.4909 76.4693 54.0266 76.6732 53.4784ZM74.4037 52.3165L75.0288 52.5611C74.8703 52.7559 74.6891 52.9507 74.4852 53.1455C74.2859 53.3403 74.0775 53.5237 73.8601 53.6959C73.6427 53.8635 73.4343 54.013 73.235 54.1443C73.1987 54.099 73.1489 54.0469 73.0855 53.9881C73.0221 53.9292 72.9586 53.8703 72.8952 53.8114C72.8318 53.748 72.7752 53.7004 72.7254 53.6687C72.9292 53.56 73.133 53.4331 73.3369 53.2882C73.5453 53.1387 73.7423 52.9824 73.928 52.8193C74.1138 52.6517 74.2723 52.4841 74.4037 52.3165ZM74.757 53.5124C75.0696 54.2734 75.5656 54.8918 76.2451 55.3674C76.9246 55.8385 77.7807 56.1579 78.8135 56.3255C78.7728 56.3663 78.7252 56.4206 78.6709 56.4886C78.621 56.561 78.5735 56.6335 78.5282 56.706C78.4829 56.7785 78.4466 56.8442 78.4194 56.903C77.6992 56.7671 77.0673 56.561 76.5237 56.2847C75.9846 56.0039 75.5203 55.6483 75.1307 55.2179C74.7457 54.7876 74.4286 54.2802 74.1795 53.6959L74.757 53.5124ZM72.7322 51.5419H78.6573V52.167H72.7322V51.5419ZM76.4353 52.6631L76.945 52.2961C77.1443 52.432 77.3549 52.586 77.5769 52.7582C77.8034 52.9303 78.0163 53.1025 78.2156 53.2746C78.4149 53.4467 78.5757 53.6053 78.698 53.7502L78.1544 54.1715C78.0412 54.0266 77.8894 53.8657 77.6992 53.6891C77.5089 53.5079 77.3028 53.329 77.0809 53.1523C76.8589 52.9711 76.6437 52.808 76.4353 52.6631ZM75.09 50.7741L75.7015 50.5634C75.7966 50.7039 75.8918 50.8602 75.9869 51.0323C76.082 51.2044 76.1522 51.3517 76.1975 51.474L75.5588 51.7186C75.518 51.5917 75.4524 51.44 75.3618 51.2633C75.2757 51.0867 75.1851 50.9236 75.09 50.7741ZM82.8701 51.8545L83.2778 51.5011C83.4907 51.5781 83.7194 51.6665 83.964 51.7661C84.2087 51.8658 84.4419 51.9677 84.6639 52.0719C84.8904 52.1761 85.0807 52.2735 85.2347 52.3641L84.7998 52.7582C84.6594 52.6721 84.4782 52.5747 84.2562 52.466C84.0388 52.3573 83.8078 52.2486 83.5631 52.1399C83.3231 52.0311 83.092 51.936 82.8701 51.8545ZM82.2246 52.3437H85.6763V52.8193H82.8021V55.8498H82.2246V52.3437ZM85.4521 52.3437H86.0297V55.2859C86.0297 55.4263 86.0116 55.5328 85.9753 55.6052C85.9436 55.6777 85.8802 55.7366 85.7851 55.7819C85.6945 55.8227 85.5744 55.8476 85.4249 55.8566C85.28 55.8657 85.0988 55.8702 84.8813 55.8702C84.8723 55.7932 84.8519 55.7094 84.8202 55.6188C84.7885 55.5282 84.7545 55.4489 84.7183 55.381C84.8587 55.3855 84.9878 55.3878 85.1056 55.3878C85.2234 55.3878 85.3026 55.3878 85.3434 55.3878C85.3842 55.3833 85.4113 55.3742 85.4249 55.3606C85.4431 55.347 85.4521 55.3198 85.4521 55.2791V52.3437ZM82.2653 50.8964H85.588V51.3788H82.2653V50.8964ZM82.5711 53.3222H85.6492V53.7842H82.5711V53.3222ZM82.5711 54.3006H85.6492V54.7831H82.5711V54.3006ZM83.8213 52.5543H84.3785V55.8363H83.8213V52.5543ZM85.3706 50.8964H85.5133L85.6424 50.8624L86.0297 51.1682C85.8757 51.3131 85.7013 51.4581 85.5065 51.6031C85.3117 51.748 85.1078 51.8839 84.8949 52.0108C84.682 52.1331 84.4714 52.2418 84.263 52.3369C84.2222 52.278 84.1679 52.2123 84.0999 52.1399C84.0365 52.0674 83.9799 52.0108 83.9301 51.97C84.1113 51.8884 84.2925 51.7933 84.4737 51.6846C84.6594 51.5759 84.8315 51.4626 84.9901 51.3449C85.1486 51.2271 85.2754 51.1161 85.3706 51.0119V50.8964ZM80.3016 50.9304L80.7773 50.6382C80.886 50.7469 80.9947 50.8647 81.1034 50.9915C81.2167 51.1184 81.3231 51.2407 81.4228 51.3584C81.5224 51.4762 81.604 51.5804 81.6674 51.671L81.1782 52.0243C81.1147 51.9292 81.0332 51.8182 80.9335 51.6914C80.8384 51.5646 80.7342 51.4355 80.621 51.3041C80.5123 51.1682 80.4058 51.0436 80.3016 50.9304ZM80.0842 52.2146H81.5519V52.7378H80.0842V52.2146ZM81.3752 55.2587C81.5066 55.5577 81.6878 55.7796 81.9188 55.9246C82.1498 56.0695 82.4307 56.1647 82.7614 56.21C83.0966 56.2553 83.4793 56.2779 83.9097 56.2779C84.1498 56.2779 84.417 56.2734 84.7115 56.2643C85.0059 56.2553 85.3026 56.2439 85.6016 56.2304C85.9006 56.2168 86.1701 56.1986 86.4102 56.176C86.3785 56.2213 86.349 56.2802 86.3219 56.3527C86.2947 56.4251 86.2698 56.4999 86.2471 56.5769C86.229 56.6539 86.2131 56.7218 86.1995 56.7807C85.9776 56.7943 85.7375 56.8057 85.4793 56.8147C85.2211 56.8238 84.9584 56.8306 84.6911 56.8351C84.4238 56.8396 84.1611 56.8419 83.9029 56.8419C83.5043 56.8419 83.1487 56.8238 82.8361 56.7875C82.5281 56.7513 82.254 56.6856 82.0139 56.5905C81.7784 56.4954 81.5723 56.3572 81.3956 56.176C81.2189 55.9903 81.0672 55.7457 80.9403 55.4422L81.3752 55.2587ZM81.348 53.8861H81.5043L81.6062 53.8725L81.9188 53.9881C81.8055 54.7264 81.613 55.3425 81.3412 55.8363C81.0694 56.3255 80.741 56.6992 80.356 56.9574C80.3288 56.9121 80.2903 56.86 80.2405 56.8011C80.1906 56.7468 80.1385 56.6924 80.0842 56.638C80.0298 56.5882 79.98 56.5497 79.9347 56.5225C80.3016 56.296 80.6074 55.9699 80.852 55.5441C81.0966 55.1183 81.262 54.6019 81.348 53.9948V53.8861ZM80.1929 54.4977V54.022L80.4579 53.8861H81.5451V54.3957H80.6074C80.5213 54.3957 80.4375 54.4071 80.356 54.4297C80.2744 54.4478 80.2201 54.4705 80.1929 54.4977ZM80.1929 54.4977C80.1838 54.4478 80.1635 54.389 80.1317 54.321C80.1046 54.2531 80.0774 54.1851 80.0502 54.1172C80.023 54.0447 79.9981 53.9881 79.9755 53.9473C80.0298 53.9337 80.0842 53.9133 80.1385 53.8861C80.1929 53.8544 80.2518 53.8046 80.3152 53.7366C80.3696 53.6868 80.4443 53.6007 80.5394 53.4784C80.6346 53.3561 80.7365 53.2202 80.8452 53.0707C80.9585 52.9167 81.0626 52.7695 81.1578 52.6291C81.2574 52.4841 81.3367 52.3663 81.3956 52.2758V52.2554L81.579 52.1806L81.9799 52.3641C81.8984 52.4819 81.801 52.62 81.6878 52.7786C81.579 52.9326 81.4635 53.0934 81.3412 53.261C81.2189 53.4241 81.0966 53.5826 80.9743 53.7366C80.8565 53.8861 80.7478 54.0152 80.6482 54.124C80.6482 54.124 80.6255 54.1375 80.5802 54.1647C80.5349 54.1874 80.4805 54.2191 80.4171 54.2598C80.3582 54.2961 80.3061 54.3369 80.2608 54.3822C80.2155 54.4229 80.1929 54.4614 80.1929 54.4977ZM93.1643 50.6858L93.5516 51.2293C93.2753 51.3154 92.9627 51.3947 92.6139 51.4672C92.2696 51.5351 91.914 51.5963 91.5471 51.6506C91.1847 51.7005 90.8359 51.7435 90.5007 51.7797C90.4871 51.7027 90.4622 51.6144 90.4259 51.5147C90.3897 51.4105 90.3535 51.3222 90.3172 51.2497C90.5664 51.2225 90.82 51.1886 91.0782 51.1478C91.341 51.1025 91.5969 51.0572 91.8461 51.0119C92.0997 50.9621 92.3376 50.91 92.5595 50.8556C92.786 50.8013 92.9876 50.7446 93.1643 50.6858ZM90.6434 52.9009H93.7962V53.5124H90.6434V52.9009ZM92.0839 53.2338H92.7226V56.9098H92.0839V53.2338ZM87.477 54.1783C87.6899 54.1285 87.93 54.0696 88.1972 54.0016C88.469 53.9292 88.7567 53.8522 89.0602 53.7706C89.3637 53.6846 89.6649 53.6007 89.9639 53.5192L90.0386 54.1104C89.6264 54.2372 89.2074 54.3618 88.7816 54.4841C88.3603 54.6019 87.9821 54.706 87.6468 54.7966L87.477 54.1783ZM87.5789 51.97H89.9911V52.5679H87.5789V51.97ZM88.4826 50.6382H89.1145V56.2032C89.1145 56.3663 89.0942 56.4931 89.0534 56.5837C89.0171 56.6743 88.9469 56.7468 88.8427 56.8011C88.7431 56.8464 88.6162 56.8759 88.4622 56.8895C88.3082 56.9076 88.1134 56.9166 87.8779 56.9166C87.8688 56.8306 87.8462 56.7309 87.8099 56.6177C87.7737 56.5044 87.7352 56.4048 87.6944 56.3187C87.8348 56.3232 87.9685 56.3277 88.0953 56.3323C88.2221 56.3323 88.3082 56.3323 88.3535 56.3323C88.3988 56.3277 88.4305 56.3164 88.4486 56.2983C88.4713 56.2802 88.4826 56.2485 88.4826 56.2032V50.6382ZM90.3172 51.2497H90.9491V53.3561C90.9491 53.7729 90.9288 54.1874 90.888 54.5996C90.8518 55.0118 90.7725 55.415 90.6502 55.8091C90.5324 56.2032 90.3512 56.5814 90.1066 56.9438C90.0432 56.8759 89.9616 56.8034 89.862 56.7264C89.7623 56.6494 89.6717 56.5837 89.5902 56.5293C89.8076 56.1941 89.9662 55.8498 90.0658 55.4965C90.17 55.1386 90.238 54.7808 90.2697 54.4229C90.3014 54.0605 90.3172 53.7049 90.3172 53.3561V51.2497ZM97.6896 51.2022H100.883V56.6856H100.217V51.8137H98.3284V56.74H97.6896V51.2022ZM98.0566 55.5237H100.543V56.1352H98.0566V55.5237ZM94.9173 54.2938C95.1257 54.244 95.3613 54.1851 95.624 54.1172C95.8913 54.0492 96.1721 53.9745 96.4666 53.8929C96.7655 53.8114 97.06 53.7298 97.3499 53.6483L97.4314 54.2395C97.0237 54.3618 96.6093 54.4818 96.188 54.5996C95.7712 54.7174 95.3975 54.8261 95.0668 54.9257L94.9173 54.2938ZM95.0057 51.8477L97.3499 51.8477V52.4456L95.0057 52.4456V51.8477ZM95.9366 50.6382H96.5889V56.21C96.5889 56.3776 96.5685 56.5067 96.5277 56.5973C96.487 56.6924 96.4145 56.7671 96.3103 56.8215C96.2106 56.8713 96.0815 56.903 95.923 56.9166C95.769 56.9348 95.5742 56.9415 95.3386 56.937C95.3296 56.851 95.3046 56.749 95.2639 56.6313C95.2276 56.518 95.1869 56.4161 95.1416 56.3255C95.2865 56.33 95.4224 56.3345 95.5493 56.3391C95.6761 56.3391 95.7622 56.3368 95.8075 56.3323C95.8528 56.3323 95.8845 56.3232 95.9026 56.3051C95.9252 56.287 95.9366 56.253 95.9366 56.2032V50.6382Z" fill="#43B71B"/>
<rect x="65.6438" y="67.789" width="43.3205" height="15.4705" stroke="#424242" stroke-width="0.679485"/>
<path d="M76.6732 75.6288L77.3255 75.8191C77.0718 76.4306 76.7366 76.9516 76.3198 77.3819C75.9076 77.8077 75.4229 78.1588 74.8657 78.4351C74.3086 78.7069 73.688 78.9289 73.0039 79.101C72.9813 79.0512 72.9473 78.99 72.902 78.9175C72.8567 78.8451 72.8069 78.7726 72.7525 78.7001C72.7027 78.6276 72.6574 78.5687 72.6166 78.5234C73.2871 78.3875 73.8895 78.1995 74.4241 77.9595C74.9586 77.7149 75.4161 77.4023 75.7966 77.0218C76.1771 76.6413 76.4693 76.1769 76.6732 75.6288ZM74.4037 74.4669L75.0288 74.7115C74.8703 74.9063 74.6891 75.1011 74.4852 75.2959C74.2859 75.4907 74.0775 75.6741 73.8601 75.8463C73.6427 76.0139 73.4343 76.1634 73.235 76.2947C73.1987 76.2494 73.1489 76.1973 73.0855 76.1384C73.0221 76.0796 72.9586 76.0207 72.8952 75.9618C72.8318 75.8984 72.7752 75.8508 72.7254 75.8191C72.9292 75.7104 73.133 75.5835 73.3369 75.4386C73.5453 75.2891 73.7423 75.1328 73.928 74.9697C74.1138 74.8021 74.2723 74.6345 74.4037 74.4669ZM74.757 75.6628C75.0696 76.4238 75.5656 77.0422 76.2451 77.5178C76.9246 77.9889 77.7807 78.3083 78.8135 78.4759C78.7728 78.5166 78.7252 78.571 78.6709 78.6389C78.621 78.7114 78.5735 78.7839 78.5282 78.8564C78.4829 78.9289 78.4466 78.9945 78.4194 79.0534C77.6992 78.9175 77.0673 78.7114 76.5237 78.4351C75.9846 78.1543 75.5203 77.7987 75.1307 77.3683C74.7457 76.938 74.4286 76.4306 74.1795 75.8463L74.757 75.6628ZM72.7322 73.6923H78.6573V74.3174H72.7322V73.6923ZM76.4353 74.8134L76.945 74.4465C77.1443 74.5824 77.3549 74.7364 77.5769 74.9086C77.8034 75.0807 78.0163 75.2528 78.2156 75.425C78.4149 75.5971 78.5757 75.7557 78.698 75.9006L78.1544 76.3219C78.0412 76.1769 77.8894 76.0161 77.6992 75.8395C77.5089 75.6583 77.3028 75.4793 77.0809 75.3027C76.8589 75.1215 76.6437 74.9584 76.4353 74.8134ZM75.09 72.9245L75.7015 72.7138C75.7966 72.8543 75.8918 73.0105 75.9869 73.1827C76.082 73.3548 76.1522 73.502 76.1975 73.6243L75.5588 73.869C75.518 73.7421 75.4524 73.5904 75.3618 73.4137C75.2757 73.237 75.1851 73.074 75.09 72.9245ZM81.6402 74.6708V75.2415H84.7794V74.6708H81.6402ZM81.6402 73.6176V74.1747H84.7794V73.6176H81.6402ZM81.0083 73.0944H85.4385V75.7647H81.0083V73.0944ZM81.4092 76.2743H85.4385V76.8383H81.4092V76.2743ZM85.2822 76.2743H85.9345C85.9345 76.2743 85.9323 76.2902 85.9278 76.3219C85.9278 76.3536 85.9255 76.3921 85.921 76.4374C85.921 76.4782 85.9187 76.5122 85.9142 76.5393C85.8689 77.0422 85.8213 77.4521 85.7715 77.7692C85.7216 78.0863 85.6673 78.3309 85.6084 78.5031C85.554 78.6752 85.4906 78.7998 85.4181 78.8768C85.3502 78.9538 85.2754 79.0059 85.1939 79.0331C85.1124 79.0648 85.0195 79.0851 84.9153 79.0942C84.8247 79.1033 84.7024 79.1078 84.5484 79.1078C84.3989 79.1078 84.2381 79.1033 84.066 79.0942C84.0614 79.0127 84.0433 78.9198 84.0116 78.8156C83.9844 78.7114 83.9459 78.6208 83.8961 78.5438C84.0546 78.5574 84.2019 78.5665 84.3378 78.571C84.4737 78.5755 84.571 78.5778 84.6299 78.5778C84.6888 78.5778 84.7364 78.571 84.7726 78.5574C84.8089 78.5484 84.8428 78.528 84.8746 78.4963C84.9289 78.4419 84.9787 78.3377 85.024 78.1837C85.0739 78.0297 85.1192 77.8054 85.1599 77.511C85.2052 77.2166 85.246 76.836 85.2822 76.3695V76.2743ZM81.878 75.4861L82.4964 75.6832C82.3333 75.955 82.1408 76.2177 81.9188 76.4714C81.7014 76.7205 81.4703 76.9493 81.2257 77.1577C80.9811 77.366 80.7342 77.5495 80.4851 77.7081C80.4534 77.6673 80.4058 77.6175 80.3424 77.5586C80.2835 77.4997 80.2223 77.4431 80.1589 77.3887C80.1 77.3298 80.0434 77.2845 79.9891 77.2528C80.365 77.049 80.7206 76.793 81.0558 76.485C81.3956 76.1724 81.6696 75.8395 81.878 75.4861ZM82.5847 76.4578L83.1962 76.6481C83.0286 76.9652 82.8293 77.2664 82.5983 77.5518C82.3673 77.8326 82.1181 78.0931 81.8508 78.3332C81.5881 78.5687 81.3186 78.7748 81.0423 78.9515C81.0105 78.9107 80.963 78.8609 80.8996 78.802C80.8407 78.7431 80.7795 78.6842 80.7161 78.6254C80.6572 78.571 80.6029 78.5257 80.553 78.4895C80.9743 78.263 81.3639 77.9731 81.7217 77.6197C82.0841 77.2619 82.3718 76.8746 82.5847 76.4578ZM83.9844 76.4986L84.596 76.6481C84.4193 77.1599 84.1837 77.631 83.8893 78.0614C83.5994 78.4917 83.2823 78.8496 82.938 79.135C82.9063 79.0987 82.8587 79.0557 82.7953 79.0059C82.7319 78.956 82.6662 78.9062 82.5983 78.8564C82.5349 78.8066 82.4805 78.7681 82.4352 78.7409C82.7795 78.4872 83.0852 78.1656 83.3525 77.776C83.6198 77.3819 83.8304 76.9561 83.9844 76.4986ZM90.4259 73.1351H93.4021V76.3015H92.7498V73.7942H90.4259V73.1351ZM90.8948 75.3163H93.0623V75.9482H90.8948V75.3163ZM90.5686 75.3163H91.2413V78.0614C91.2413 78.1973 91.264 78.2856 91.3093 78.3264C91.3591 78.3672 91.4701 78.3875 91.6422 78.3875C91.6739 78.3875 91.726 78.3875 91.7985 78.3875C91.8755 78.3875 91.9593 78.3875 92.0499 78.3875C92.145 78.3875 92.2424 78.3875 92.3421 78.3875C92.4417 78.3875 92.5301 78.3875 92.6071 78.3875C92.6886 78.3875 92.7498 78.3875 92.7906 78.3875C92.8993 78.3875 92.9785 78.3626 93.0284 78.3128C93.0827 78.2584 93.1212 78.1543 93.1439 78.0002C93.1665 77.8462 93.1847 77.622 93.1982 77.3275C93.2481 77.3638 93.3092 77.4 93.3817 77.4363C93.4542 77.4725 93.5267 77.5065 93.5991 77.5382C93.6761 77.5654 93.7464 77.5857 93.8098 77.5993C93.7871 77.9572 93.7441 78.2381 93.6807 78.4419C93.6173 78.6412 93.5199 78.7816 93.3885 78.8632C93.2571 78.9447 93.0737 78.9855 92.8381 78.9855C92.8019 78.9855 92.7407 78.9855 92.6547 78.9855C92.5731 78.9855 92.4757 78.9855 92.3625 78.9855C92.2538 78.9855 92.1428 78.9855 92.0295 78.9855C91.9208 78.9855 91.8234 78.9855 91.7374 78.9855C91.6558 78.9855 91.5992 78.9855 91.5675 78.9855C91.3138 78.9855 91.1145 78.9583 90.9695 78.9039C90.8246 78.8541 90.7204 78.7613 90.657 78.6254C90.5981 78.494 90.5686 78.306 90.5686 78.0614V75.3163ZM89.3048 75.5065L89.7872 75.3299C89.8597 75.4748 89.9299 75.6311 89.9979 75.7987C90.0658 75.9663 90.127 76.1294 90.1813 76.2879C90.2357 76.4419 90.2765 76.5778 90.3036 76.6956L89.7872 76.9131C89.76 76.7953 89.7215 76.6549 89.6717 76.4918C89.6219 76.3287 89.5653 76.1611 89.5018 75.989C89.4384 75.8168 89.3727 75.656 89.3048 75.5065ZM88.6321 77.2732L89.1553 77.1509C89.2006 77.3955 89.2414 77.6605 89.2776 77.9459C89.3139 78.2267 89.3388 78.4713 89.3524 78.6797L88.802 78.8088C88.802 78.6684 88.7929 78.5098 88.7748 78.3332C88.7567 78.1565 88.734 77.9776 88.7068 77.7964C88.6842 77.6107 88.6593 77.4363 88.6321 77.2732ZM87.8439 77.212L88.3943 77.3004C88.358 77.5993 88.306 77.9006 88.238 78.2041C88.1746 78.5031 88.1044 78.7567 88.0274 78.9651C87.9866 78.9425 87.9345 78.9198 87.8711 78.8972C87.8077 78.8745 87.742 78.8519 87.674 78.8292C87.6061 78.8066 87.5495 78.7884 87.5042 78.7748C87.5902 78.571 87.6604 78.3287 87.7148 78.0478C87.7692 77.7669 87.8122 77.4884 87.8439 77.212ZM87.7148 75.3978C87.7057 75.357 87.6876 75.3027 87.6604 75.2347C87.6378 75.1623 87.6129 75.0898 87.5857 75.0173C87.563 74.9403 87.5404 74.8769 87.5177 74.827C87.5812 74.8134 87.6446 74.7749 87.708 74.7115C87.7714 74.6436 87.8394 74.5575 87.9118 74.4533C87.9481 74.4035 88.0024 74.322 88.0749 74.2087C88.1474 74.0955 88.2289 73.9596 88.3195 73.801C88.4101 73.6425 88.4985 73.4749 88.5845 73.2982C88.6751 73.117 88.7567 72.9335 88.8292 72.7478L89.4135 72.9924C89.2323 73.3684 89.0239 73.7421 88.7884 74.1136C88.5574 74.4805 88.3241 74.7999 88.0885 75.0717V75.0852C88.0885 75.0852 88.0704 75.0966 88.0342 75.1192C87.9979 75.1419 87.9526 75.169 87.8983 75.2008C87.8484 75.2325 87.8054 75.2664 87.7692 75.3027C87.7329 75.3344 87.7148 75.3661 87.7148 75.3978ZM87.7148 75.3978L87.6944 74.929L87.9798 74.7455L89.2097 74.6504C89.1915 74.7319 89.1757 74.8248 89.1621 74.929C89.153 75.0286 89.1485 75.1102 89.1485 75.1736C88.8722 75.2008 88.6457 75.2257 88.469 75.2483C88.2969 75.271 88.161 75.2914 88.0613 75.3095C87.9617 75.3231 87.8847 75.3389 87.8303 75.357C87.7805 75.3706 87.742 75.3842 87.7148 75.3978ZM87.7624 76.9538C87.7533 76.9131 87.7352 76.8564 87.708 76.784C87.6854 76.7069 87.6604 76.6299 87.6333 76.5529C87.6061 76.4759 87.5789 76.4102 87.5517 76.3559C87.6378 76.3423 87.7216 76.2947 87.8031 76.2132C87.8892 76.1316 87.9889 76.0297 88.1021 75.9074C88.161 75.8485 88.2471 75.7489 88.3603 75.6084C88.4736 75.4635 88.5981 75.2936 88.734 75.0988C88.8745 74.8995 89.0149 74.6866 89.1553 74.4601C89.3003 74.2291 89.4294 73.9981 89.5426 73.767L90.093 74.1068C89.9163 74.4148 89.7193 74.7206 89.5018 75.0241C89.2889 75.3231 89.067 75.6084 88.8359 75.8802C88.6095 76.152 88.3807 76.3989 88.1497 76.6209V76.6413C88.1497 76.6413 88.1293 76.6526 88.0885 76.6752C88.0523 76.6934 88.007 76.7183 87.9526 76.75C87.9028 76.7817 87.8575 76.8157 87.8167 76.8519C87.7805 76.8881 87.7624 76.9221 87.7624 76.9538ZM87.7624 76.9538L87.7284 76.4646L88.0206 76.2675L89.862 76.0161C89.8529 76.0977 89.8439 76.1905 89.8348 76.2947C89.8303 76.3989 89.8303 76.4827 89.8348 76.5461C89.418 76.6141 89.0806 76.6707 88.8224 76.716C88.5687 76.7568 88.3716 76.7908 88.2312 76.8179C88.0908 76.8451 87.9866 76.87 87.9186 76.8927C87.8507 76.9108 87.7986 76.9312 87.7624 76.9538ZM89.4271 77.1305L89.9163 76.9674C89.9933 77.1758 90.0703 77.4023 90.1474 77.6469C90.2289 77.8915 90.2878 78.1022 90.324 78.2788L89.8144 78.4623C89.7782 78.2811 89.7215 78.0659 89.6445 77.8168C89.5721 77.5676 89.4996 77.3389 89.4271 77.1305ZM95.4337 74.5145H97.0985V75.0581H95.4337V74.5145ZM95.06 75.6968H97.3771V76.2472H95.06V75.6968ZM95.094 76.6141L95.5357 76.5122C95.5855 76.7024 95.6353 76.9108 95.6852 77.1373C95.735 77.3638 95.7712 77.5586 95.7939 77.7216L95.3318 77.8507C95.3182 77.6786 95.2888 77.4793 95.2435 77.2528C95.1982 77.0218 95.1484 76.8089 95.094 76.6141ZM94.9445 78.306C95.248 78.2607 95.6195 78.2018 96.0589 78.1293C96.5028 78.0569 96.9535 77.9821 97.4111 77.9051L97.445 78.4147C97.0328 78.5008 96.6183 78.5846 96.2016 78.6661C95.7848 78.7477 95.4134 78.8201 95.0872 78.8836L94.9445 78.306ZM97.0237 76.451L97.4586 76.5665C97.4043 76.7704 97.3476 76.9833 97.2887 77.2052C97.2344 77.4227 97.1823 77.6084 97.1325 77.7624L96.7859 77.6605C96.8176 77.5472 96.8471 77.4204 96.8743 77.28C96.906 77.135 96.9354 76.9901 96.9626 76.8451C96.9898 76.7002 97.0102 76.5688 97.0237 76.451ZM96.0317 74.7387H96.5549V78.3875L96.0317 78.4827V74.7387ZM96.188 72.775L96.684 72.9585C96.5617 73.2167 96.4145 73.4749 96.2423 73.7331C96.0702 73.9913 95.8845 74.2336 95.6852 74.4601C95.4904 74.6866 95.2888 74.8859 95.0804 75.0581C95.0759 75.0128 95.06 74.9516 95.0329 74.8746C95.0102 74.7976 94.983 74.7183 94.9513 74.6368C94.9196 74.5507 94.8902 74.485 94.863 74.4397C95.1167 74.2359 95.3635 73.989 95.6036 73.6991C95.8437 73.4046 96.0385 73.0966 96.188 72.775ZM96.0929 73.3797L96.4394 73.0128C96.5798 73.1442 96.7293 73.2869 96.8878 73.4409C97.0509 73.5949 97.2049 73.7444 97.3499 73.8893C97.4994 74.0343 97.6217 74.1589 97.7168 74.2631L97.3499 74.6911C97.2593 74.5779 97.1415 74.4443 96.9966 74.2902C96.8516 74.1362 96.6999 73.9799 96.5413 73.8214C96.3828 73.6583 96.2333 73.5111 96.0929 73.3797ZM100.713 76.0501L101.148 76.4102C101.008 76.5643 100.856 76.7205 100.693 76.8791C100.53 77.0331 100.383 77.1645 100.251 77.2732L99.898 76.947C99.984 76.87 100.077 76.7794 100.177 76.6752C100.276 76.5711 100.374 76.4646 100.469 76.3559C100.564 76.2426 100.645 76.1407 100.713 76.0501ZM97.6217 76.3695L98.043 76.0637C98.1743 76.1905 98.3102 76.3355 98.4507 76.4986C98.5956 76.6571 98.7066 76.793 98.7836 76.9063L98.3352 77.2528C98.2899 77.1758 98.2264 77.0852 98.1449 76.981C98.0634 76.8768 97.9773 76.7704 97.8867 76.6616C97.7961 76.5529 97.7078 76.4555 97.6217 76.3695ZM98.4439 73.3729H100.265V73.869H98.4439V73.3729ZM98.2332 74.3922H100.109V74.895H98.2332V74.3922ZM97.479 75.3095H101.257V75.8734H97.479V75.3095ZM99.0486 75.6424H99.6398V78.4623C99.6398 78.6072 99.6239 78.7205 99.5922 78.802C99.5605 78.8881 99.4948 78.9538 99.3951 78.9991C99.3045 79.0444 99.189 79.0716 99.0486 79.0806C98.9127 79.0942 98.7474 79.101 98.5526 79.101C98.5435 79.0195 98.5209 78.9243 98.4846 78.8156C98.4484 78.7114 98.4099 78.6208 98.3691 78.5438C98.496 78.5484 98.6137 78.5506 98.7225 78.5506C98.8312 78.5506 98.9059 78.5506 98.9467 78.5506C99.0146 78.5461 99.0486 78.5144 99.0486 78.4555V75.6424ZM97.3431 78.1701C97.5107 78.0704 97.71 77.9436 97.941 77.7896C98.1721 77.631 98.4099 77.468 98.6545 77.3004L98.8448 77.7692C98.65 77.9187 98.4507 78.0704 98.2468 78.2245C98.0475 78.374 97.8572 78.5166 97.6761 78.6525L97.3431 78.1701ZM98.3759 72.7818L98.9739 72.8497C98.924 73.0717 98.8674 73.3095 98.804 73.5632C98.7451 73.8123 98.684 74.0524 98.6205 74.2835C98.5616 74.5145 98.505 74.7183 98.4507 74.895H97.8323C97.8912 74.7093 97.9546 74.4964 98.0226 74.2563C98.0905 74.0117 98.154 73.7602 98.2128 73.502C98.2763 73.2438 98.3306 73.0038 98.3759 72.7818ZM100.088 73.3729H100.156L100.258 73.3458L100.7 73.4069C100.668 73.6198 100.627 73.8508 100.577 74.1C100.528 74.3491 100.476 74.596 100.421 74.8406C100.371 75.0852 100.322 75.3163 100.272 75.5337L99.6805 75.459C99.7349 75.237 99.787 75.0014 99.8368 74.7523C99.8912 74.4986 99.941 74.2563 99.9863 74.0252C100.032 73.7897 100.066 73.5949 100.088 73.4409V73.3729ZM99.7485 77.6537L100.095 77.2732C100.231 77.3638 100.374 77.4657 100.523 77.579C100.677 77.6922 100.824 77.8054 100.965 77.9187C101.105 78.0274 101.218 78.1248 101.305 78.2109L100.938 78.6457C100.856 78.5597 100.747 78.4578 100.611 78.34C100.476 78.2222 100.331 78.1044 100.177 77.9866C100.027 77.8643 99.8844 77.7534 99.7485 77.6537Z" fill="#424242"/>
</g>
<defs>
<clipPath id="clip0_152_6128">
<rect width="200" height="200" fill="white" transform="translate(0.408081 -0.00390625)"/>
</clipPath>
</defs>
</svg>
