<svg width="201" height="201" viewBox="0 0 201 201" fill="none" xmlns="http://www.w3.org/2000/svg">
<g clip-path="url(#clip0_152_5919)">
<rect x="79.2017" y="62.4901" width="28.3205" height="15.4743" stroke="#424242" stroke-width="0.679485"/>
<path d="M88.2401 71.2493V70.3931C88.0295 70.7261 87.7577 71.0386 87.4995 71.2357C87.4315 71.1405 87.3296 71.0046 87.2277 70.9095C87.1665 71.8812 87.0171 72.9548 86.6162 73.7498C86.5007 73.6546 86.2357 73.5052 86.0862 73.4576C86.6162 72.4044 86.6637 70.9027 86.6637 69.8359V67.8179H92.2695V68.3886H87.2549V69.8427C87.2549 70.1349 87.2481 70.4543 87.2345 70.794C87.5199 70.597 87.8121 70.2844 88.0295 69.965H87.4315V69.5098H88.2401V69.1021C88.0091 69.1361 87.7781 69.1632 87.5607 69.1768C87.5335 69.0749 87.4723 68.9118 87.418 68.8031C88.0023 68.7488 88.6818 68.6468 89.0419 68.4973L89.4496 68.8167C89.2594 68.8982 89.0215 68.9594 88.7701 69.007V69.5098H89.5176V69.965H88.7701V69.9718C88.9468 70.0805 89.3885 70.3863 89.504 70.4814L89.1982 70.8755C89.1099 70.7736 88.94 70.6105 88.7701 70.4746V71.2493H88.2401ZM90.0612 72.3364V73.0567H92.2763V73.5867H87.1462V73.0567H87.948V71.7045H88.5527V73.0567H89.4496V71.2153H89.701C89.6127 71.093 89.4632 70.9231 89.3545 70.8348C89.6874 70.6581 90.0272 70.3184 90.2718 69.965H89.7078V69.5098H90.5708V69.0953C90.3194 69.1293 90.0544 69.1564 89.8165 69.17C89.7962 69.0613 89.735 68.8982 89.6739 68.7963C90.3194 68.742 91.0736 68.6264 91.4677 68.477L91.8754 68.8031C91.6512 68.8914 91.3862 68.9594 91.1008 69.007V69.5098H92.1472V69.965H91.1008V69.9854L91.1076 69.9786C91.3386 70.1145 92.1064 70.6513 92.2967 70.794L92.0045 71.2153C91.821 71.0318 91.4133 70.6921 91.1008 70.4543V71.2493H90.5708V70.2504C90.3397 70.6377 90.034 70.9979 89.7282 71.2221H90.0612V71.8404H91.6579V72.3364H90.0612ZM94.7836 69.1564V70.2844H96.4143V69.1564H94.7836ZM98.6974 69.1564H97.0666V70.2844H98.6974V69.1564ZM99.3497 70.8891H97.0531C97.0123 71.4735 96.8696 72.0307 96.4823 72.5063C97.3181 72.914 98.4324 73.0363 99.8933 73.0771C99.7778 73.2334 99.6487 73.5119 99.6011 73.7294C98.0859 73.6478 96.89 73.4712 95.9863 72.9616C95.5378 73.2877 94.8991 73.5663 94.0022 73.7769C93.9342 73.6275 93.7643 73.3557 93.6285 73.213C94.4438 73.0499 95.0214 72.8393 95.4359 72.5743C95.0418 72.2413 94.7224 71.8132 94.4574 71.2629L95.035 71.0522C95.2728 71.5211 95.5786 71.8812 95.9251 72.1666C96.2513 71.7928 96.3668 71.358 96.4008 70.8891H94.1652V68.5517H96.4143V67.5529H97.0666V68.5517H99.3497V70.8891Z" fill="#424242"/>
<path d="M47.6362 62.2812L14.6151 62.2813" stroke="#222222" stroke-width="0.679485" stroke-linecap="round"/>
<path d="M64.724 34.3711H59.7637" stroke="#222222" stroke-width="0.679485" stroke-linecap="round"/>
<path d="M14.6149 76.8301L14.6149 65.1201" stroke="#222222" stroke-width="0.679485" stroke-linecap="round" stroke-dasharray="1.36 1.36"/>
<path d="M128.615 59.8594L128.615 20.7295" stroke="#222222" stroke-width="0.679485" stroke-linecap="round" stroke-dasharray="1.36 1.36"/>
<path d="M48.9081 76.8301L48.9081 65.1201" stroke="#222222" stroke-width="0.679485" stroke-linecap="round" stroke-dasharray="1.36 1.36"/>
<path d="M31.1257 58.998L31.1257 47.2842" stroke="#222222" stroke-width="0.679485" stroke-linecap="round"/>
<path d="M93.3619 58.998L93.3619 47.2842" stroke="#222222" stroke-width="0.679485" stroke-linecap="round"/>
<rect x="5.96547" y="26.6308" width="50.3205" height="15.4743" rx="7.73717" stroke="#424242" stroke-width="0.679485"/>
<path d="M16.9948 34.4726L17.6471 34.6628C17.3935 35.2744 17.0582 35.7953 16.6415 36.2257C16.2293 36.6515 15.7446 37.0025 15.1874 37.2789C14.6302 37.5506 14.0096 37.7726 13.3256 37.9447C13.303 37.8949 13.269 37.8338 13.2237 37.7613C13.1784 37.6888 13.1286 37.6163 13.0742 37.5439C13.0244 37.4714 12.9791 37.4125 12.9383 37.3672C13.6087 37.2313 14.2112 37.0433 14.7457 36.8032C15.2803 36.5586 15.7378 36.246 16.1183 35.8655C16.4988 35.485 16.791 35.0207 16.9948 34.4726ZM14.7253 33.3107L15.3505 33.5553C15.1919 33.7501 15.0107 33.9448 14.8069 34.1396C14.6076 34.3344 14.3992 34.5179 14.1818 34.69C13.9643 34.8576 13.7559 35.0071 13.5566 35.1385C13.5204 35.0932 13.4706 35.0411 13.4071 34.9822C13.3437 34.9233 13.2803 34.8644 13.2169 34.8055C13.1535 34.7421 13.0968 34.6945 13.047 34.6628C13.2509 34.5541 13.4547 34.4273 13.6585 34.2823C13.8669 34.1328 14.064 33.9766 14.2497 33.8135C14.4354 33.6459 14.594 33.4783 14.7253 33.3107ZM15.0787 34.5066C15.3912 35.2676 15.8873 35.8859 16.5667 36.3615C17.2462 36.8327 18.1024 37.152 19.1352 37.3196C19.0944 37.3604 19.0469 37.4148 18.9925 37.4827C18.9427 37.5552 18.8951 37.6277 18.8498 37.7001C18.8045 37.7726 18.7683 37.8383 18.7411 37.8972C18.0208 37.7613 17.3889 37.5552 16.8453 37.2789C16.3063 36.998 15.842 36.6424 15.4524 36.2121C15.0673 35.7817 14.7503 35.2744 14.5011 34.69L15.0787 34.5066ZM13.0538 32.536H18.9789V33.1612H13.0538V32.536ZM16.757 33.6572L17.2666 33.2903C17.4659 33.4262 17.6766 33.5802 17.8985 33.7523C18.125 33.9245 18.3379 34.0966 18.5373 34.2687C18.7366 34.4409 18.8974 34.5994 19.0197 34.7444L18.4761 35.1657C18.3629 35.0207 18.2111 34.8599 18.0208 34.6832C17.8306 34.502 17.6245 34.3231 17.4025 34.1464C17.1805 33.9652 16.9654 33.8022 16.757 33.6572ZM15.4116 31.7682L16.0232 31.5576C16.1183 31.698 16.2134 31.8543 16.3085 32.0264C16.4037 32.1986 16.4739 32.3458 16.5192 32.4681L15.8805 32.7127C15.8397 32.5859 15.774 32.4341 15.6834 32.2575C15.5973 32.0808 15.5067 31.9177 15.4116 31.7682ZM23.1917 32.8486L23.5994 32.4953C23.8123 32.5723 24.0411 32.6606 24.2857 32.7603C24.5303 32.8599 24.7636 32.9619 24.9856 33.066C25.2121 33.1702 25.4023 33.2676 25.5563 33.3582L25.1215 33.7523C24.981 33.6663 24.7998 33.5689 24.5779 33.4601C24.3604 33.3514 24.1294 33.2427 23.8848 33.134C23.6447 33.0253 23.4137 32.9301 23.1917 32.8486ZM22.5462 33.3378H25.998V33.8135H23.1238V36.844H22.5462V33.3378ZM25.7738 33.3378H26.3513V36.28C26.3513 36.4204 26.3332 36.5269 26.297 36.5994C26.2653 36.6718 26.2018 36.7307 26.1067 36.776C26.0161 36.8168 25.8961 36.8417 25.7466 36.8508C25.6016 36.8598 25.4204 36.8644 25.203 36.8644C25.1939 36.7874 25.1736 36.7036 25.1418 36.613C25.1101 36.5224 25.0762 36.4431 25.0399 36.3751C25.1804 36.3797 25.3095 36.3819 25.4272 36.3819C25.545 36.3819 25.6243 36.3819 25.6651 36.3819C25.7058 36.3774 25.733 36.3683 25.7466 36.3548C25.7647 36.3412 25.7738 36.314 25.7738 36.2732V33.3378ZM22.587 31.8905L25.9097 31.8905V32.373H22.587V31.8905ZM22.8928 34.3163H25.9708V34.7783H22.8928V34.3163ZM22.8928 35.2948H25.9708V35.7772H22.8928V35.2948ZM24.143 33.5485H24.7002V36.8304H24.143V33.5485ZM25.6922 31.8905H25.8349L25.964 31.8566L26.3513 32.1623C26.1973 32.3073 26.0229 32.4522 25.8281 32.5972C25.6333 32.7422 25.4295 32.8781 25.2166 33.0049C25.0037 33.1272 24.793 33.2359 24.5847 33.331C24.5439 33.2722 24.4895 33.2065 24.4216 33.134C24.3582 33.0615 24.3016 33.0049 24.2517 32.9641C24.4329 32.8826 24.6141 32.7875 24.7953 32.6787C24.981 32.57 25.1532 32.4568 25.3117 32.339C25.4703 32.2212 25.5971 32.1102 25.6922 32.006V31.8905ZM20.6233 31.9245L21.0989 31.6323C21.2076 31.7411 21.3163 31.8588 21.4251 31.9857C21.5383 32.1125 21.6448 32.2348 21.7444 32.3526C21.8441 32.4704 21.9256 32.5746 21.989 32.6652L21.4998 33.0185C21.4364 32.9234 21.3549 32.8124 21.2552 32.6855C21.1601 32.5587 21.0559 32.4296 20.9426 32.2982C20.8339 32.1623 20.7275 32.0378 20.6233 31.9245ZM20.4058 33.2087H21.8735V33.7319H20.4058V33.2087ZM21.6969 36.2528C21.8282 36.5518 22.0094 36.7738 22.2404 36.9187C22.4715 37.0637 22.7523 37.1588 23.083 37.2041C23.4182 37.2494 23.801 37.2721 24.2313 37.2721C24.4714 37.2721 24.7387 37.2675 25.0331 37.2585C25.3276 37.2494 25.6243 37.2381 25.9233 37.2245C26.2222 37.2109 26.4918 37.1928 26.7318 37.1701C26.7001 37.2154 26.6707 37.2743 26.6435 37.3468C26.6163 37.4193 26.5914 37.494 26.5688 37.571C26.5506 37.648 26.5348 37.716 26.5212 37.7749C26.2992 37.7885 26.0592 37.7998 25.8009 37.8089C25.5427 37.8179 25.28 37.8247 25.0127 37.8292C24.7455 37.8338 24.4827 37.836 24.2245 37.836C23.8259 37.836 23.4703 37.8179 23.1578 37.7817C22.8497 37.7454 22.5757 37.6798 22.3356 37.5846C22.1 37.4895 21.8939 37.3513 21.7172 37.1701C21.5406 36.9844 21.3888 36.7398 21.262 36.4363L21.6969 36.2528ZM21.6697 34.8803H21.826L21.9279 34.8667L22.2404 34.9822C22.1272 35.7206 21.9347 36.3366 21.6629 36.8304C21.3911 37.3196 21.0627 37.6933 20.6776 37.9515C20.6505 37.9062 20.6119 37.8542 20.5621 37.7953C20.5123 37.7409 20.4602 37.6865 20.4058 37.6322C20.3515 37.5824 20.3016 37.5439 20.2563 37.5167C20.6233 37.2902 20.929 36.964 21.1737 36.5382C21.4183 36.1124 21.5836 35.596 21.6697 34.989V34.8803ZM20.5146 35.4918V35.0162L20.7796 34.8803H21.8667V35.3899H20.929C20.843 35.3899 20.7592 35.4012 20.6776 35.4239C20.5961 35.442 20.5417 35.4646 20.5146 35.4918ZM20.5146 35.4918C20.5055 35.442 20.4851 35.3831 20.4534 35.3151C20.4262 35.2472 20.399 35.1792 20.3719 35.1113C20.3447 35.0388 20.3198 34.9822 20.2971 34.9414C20.3515 34.9278 20.4058 34.9075 20.4602 34.8803C20.5146 34.8486 20.5734 34.7987 20.6369 34.7308C20.6912 34.681 20.766 34.5949 20.8611 34.4726C20.9562 34.3503 21.0581 34.2144 21.1669 34.0649C21.2801 33.9109 21.3843 33.7637 21.4794 33.6232C21.5791 33.4783 21.6584 33.3605 21.7172 33.2699V33.2495L21.9007 33.1748L22.3016 33.3582C22.2201 33.476 22.1227 33.6142 22.0094 33.7727C21.9007 33.9267 21.7852 34.0875 21.6629 34.2551C21.5406 34.4182 21.4183 34.5768 21.296 34.7308C21.1782 34.8803 21.0695 35.0094 20.9698 35.1181C20.9698 35.1181 20.9472 35.1317 20.9019 35.1589C20.8566 35.1815 20.8022 35.2132 20.7388 35.254C20.6799 35.2902 20.6278 35.331 20.5825 35.3763C20.5372 35.4171 20.5146 35.4556 20.5146 35.4918ZM33.5811 34.8395L34.0703 35.1725C33.9253 35.3446 33.7826 35.5235 33.6422 35.7092C33.5063 35.8904 33.3772 36.0445 33.2549 36.1713L32.9016 35.9063C32.974 35.8112 33.0533 35.7024 33.1394 35.5801C33.2255 35.4533 33.307 35.3242 33.384 35.1928C33.4655 35.0615 33.5312 34.9437 33.5811 34.8395ZM31.8552 31.6323H32.4259V33.0932H31.8552V31.6323ZM32.1677 34.459H32.7385C32.7204 34.8622 32.6887 35.2404 32.6434 35.5937C32.5981 35.9425 32.5211 36.2642 32.4123 36.5586C32.3081 36.8485 32.1564 37.109 31.9571 37.34C31.7578 37.571 31.495 37.7681 31.1689 37.9312C31.1372 37.8587 31.0851 37.7771 31.0126 37.6865C30.9401 37.5959 30.8699 37.5235 30.802 37.4691C31.0964 37.3332 31.3297 37.1656 31.5018 36.9663C31.6785 36.767 31.8121 36.5405 31.9027 36.2868C31.9933 36.0331 32.0567 35.7545 32.093 35.451C32.1292 35.143 32.1541 34.8123 32.1677 34.459ZM32.623 35.4171C32.7045 35.707 32.8155 35.9833 32.9559 36.246C33.0964 36.5088 33.2617 36.7421 33.452 36.9459C33.6422 37.1498 33.8574 37.3106 34.0975 37.4283C34.034 37.4827 33.9661 37.5552 33.8936 37.6458C33.8211 37.7364 33.7622 37.8202 33.7169 37.8972C33.4633 37.7432 33.2368 37.5484 33.0375 37.3128C32.8381 37.0727 32.666 36.8009 32.5211 36.4974C32.3761 36.1894 32.2583 35.8633 32.1677 35.519L32.623 35.4171ZM30.6117 33.664H34.0499V34.2076H30.6117V33.664ZM30.3807 33.664H30.9446V35.0162C30.9446 35.2291 30.9356 35.4624 30.9175 35.716C30.9039 35.9697 30.8744 36.2302 30.8291 36.4974C30.7884 36.7602 30.7272 37.0161 30.6457 37.2653C30.5687 37.5144 30.4645 37.7409 30.3331 37.9447C30.3014 37.913 30.2538 37.8768 30.1904 37.836C30.1315 37.7953 30.0704 37.7545 30.007 37.7137C29.9435 37.673 29.8869 37.6435 29.8371 37.6254C30.0002 37.3672 30.1202 37.0841 30.1972 36.776C30.2742 36.468 30.3241 36.16 30.3467 35.8519C30.3694 35.5439 30.3807 35.263 30.3807 35.0094V33.664ZM30.8903 35.1045L31.298 34.8667C31.3705 34.9799 31.4452 35.1045 31.5222 35.2404C31.6038 35.3718 31.6785 35.4986 31.7464 35.6209C31.8189 35.7432 31.8778 35.8497 31.9231 35.9403L31.4882 36.2257C31.452 36.126 31.3999 36.0127 31.332 35.8859C31.264 35.7545 31.1915 35.6209 31.1145 35.485C31.0375 35.3446 30.9628 35.2177 30.8903 35.1045ZM30.4826 31.843H31.0602V32.7467H33.2481V31.843H33.8596V33.2767H30.4826V31.843ZM27.8938 31.9653H30.1972V32.5496H27.8938V31.9653ZM28.6004 34.0717H30.0273V37.0954H28.6004V36.5246H29.5449V34.6357H28.6004V34.0717ZM28.7295 32.2643L29.3207 32.3934C29.2391 32.8192 29.1372 33.2404 29.0149 33.6572C28.8971 34.0739 28.7544 34.4635 28.5868 34.8259C28.4192 35.1883 28.2244 35.5054 28.0025 35.7772C27.9934 35.7228 27.973 35.6504 27.9413 35.5598C27.9141 35.4646 27.8824 35.3718 27.8462 35.2812C27.8145 35.186 27.7805 35.109 27.7443 35.0501C27.9979 34.7104 28.2041 34.2982 28.3626 33.8135C28.5212 33.3243 28.6435 32.8078 28.7295 32.2643ZM28.3286 34.0717H28.8586V37.6254H28.3286L28.3286 34.0717ZM38.5481 31.6255H39.1324V34.5066C39.1324 34.8463 39.1166 35.177 39.0849 35.4986C39.0577 35.8202 38.9965 36.1283 38.9014 36.4227C38.8063 36.7126 38.6681 36.9867 38.4869 37.2449C38.3103 37.4986 38.0679 37.7318 37.7599 37.9447C37.7282 37.8995 37.6829 37.8496 37.624 37.7953C37.5696 37.7409 37.5153 37.6888 37.4609 37.639C37.4066 37.5892 37.3545 37.5484 37.3046 37.5167C37.581 37.3309 37.8029 37.1248 37.9705 36.8983C38.1381 36.6718 38.2627 36.4318 38.3442 36.1781C38.4258 35.9244 38.4801 35.6571 38.5073 35.3763C38.5345 35.0954 38.5481 34.8055 38.5481 34.5066V31.6255ZM39.7372 31.6255H40.3419V37.9312H39.7372V31.6255ZM37.4813 32.7671H38.8063V33.3514H37.4813V32.7671ZM40.0565 32.7671H41.4835V33.3514H40.0565V32.7671ZM40.0905 34.2008H41.4087V34.7648H40.0905V34.2008ZM40.0498 35.6685H41.599V36.2596H40.0498V35.6685ZM37.5357 34.2008H38.8267V34.7648H37.5357V34.2008ZM37.1348 35.9607C37.3295 35.9108 37.556 35.8451 37.8142 35.7636C38.077 35.6821 38.3465 35.5983 38.6228 35.5122L38.718 36.015C38.4869 36.1011 38.2559 36.1871 38.0249 36.2732C37.7984 36.3593 37.5832 36.4408 37.3794 36.5178L37.1348 35.9607ZM35.2186 35.1113C35.4859 35.0388 35.8075 34.9505 36.1835 34.8463C36.5595 34.7376 36.94 34.6243 37.325 34.5066L37.4066 35.0909C37.0578 35.2042 36.7044 35.3174 36.3466 35.4307C35.9887 35.5394 35.6625 35.639 35.3681 35.7296L35.2186 35.1113ZM35.3205 32.9641L37.3862 32.9641V33.5621L35.3205 33.5621V32.9641ZM36.1087 31.6391H36.7067V37.2313C36.7067 37.3898 36.6886 37.5144 36.6523 37.605C36.6161 37.6956 36.5504 37.7681 36.4553 37.8224C36.3647 37.8723 36.2469 37.904 36.1019 37.9176C35.9615 37.9357 35.7803 37.9447 35.5584 37.9447C35.5538 37.8632 35.5334 37.7636 35.4972 37.6458C35.4655 37.5325 35.4293 37.4329 35.3885 37.3468C35.5244 37.3513 35.649 37.3536 35.7622 37.3536C35.8754 37.3536 35.9525 37.3513 35.9932 37.3468C36.034 37.3468 36.0634 37.34 36.0816 37.3264C36.0997 37.3083 36.1087 37.2766 36.1087 37.2313V31.6391ZM43.882 31.7614L44.446 31.6119C44.514 31.7569 44.5797 31.9155 44.6431 32.0876C44.711 32.2552 44.7631 32.3979 44.7994 32.5157L44.2082 32.6991C44.181 32.5723 44.1335 32.4205 44.0655 32.2439C44.0021 32.0672 43.9409 31.9064 43.882 31.7614ZM42.8085 32.7059H45.8186V33.3039H42.8085V32.7059ZM43.9228 34.1057H45.1595V34.69H43.9228V34.1057ZM44.942 34.1057H45.5536C45.5536 34.1057 45.5536 34.1238 45.5536 34.16C45.5536 34.1917 45.5536 34.2302 45.5536 34.2755C45.5536 34.3163 45.5513 34.3503 45.5468 34.3775C45.5377 34.9301 45.5264 35.3989 45.5128 35.784C45.5037 36.169 45.4902 36.4861 45.472 36.7353C45.4539 36.9799 45.429 37.1724 45.3973 37.3128C45.3701 37.4487 45.3339 37.5484 45.2886 37.6118C45.2297 37.6933 45.1663 37.7522 45.0983 37.7885C45.0349 37.8247 44.9556 37.8496 44.8605 37.8632C44.779 37.8768 44.6725 37.8836 44.5411 37.8836C44.4098 37.8881 44.2716 37.8859 44.1267 37.8768C44.1176 37.7907 44.0995 37.6911 44.0723 37.5778C44.0451 37.4646 44.0089 37.3672 43.9636 37.2856C44.0859 37.2992 44.1991 37.3083 44.3033 37.3128C44.412 37.3128 44.4936 37.3128 44.5479 37.3128C44.5932 37.3128 44.6317 37.306 44.6635 37.2924C44.6952 37.2789 44.7246 37.2539 44.7518 37.2177C44.779 37.1769 44.8016 37.0977 44.8197 36.9799C44.8424 36.8576 44.8605 36.6832 44.8741 36.4567C44.8877 36.2257 44.899 35.9289 44.9081 35.5666C44.9217 35.1996 44.933 34.7534 44.942 34.228V34.1057ZM46.5049 32.8826H49.0869V33.4805H46.5049V32.8826ZM46.6204 31.6255L47.2795 31.7343C47.1979 32.1782 47.096 32.6108 46.9737 33.0321C46.8514 33.4534 46.7087 33.8452 46.5456 34.2076C46.3826 34.57 46.1946 34.8871 45.9817 35.1589C45.9499 35.1136 45.9046 35.0592 45.8458 34.9958C45.7869 34.9324 45.7257 34.8689 45.6623 34.8055C45.5989 34.7421 45.5423 34.6923 45.4924 34.656C45.6872 34.4205 45.8548 34.1419 45.9952 33.8203C46.1402 33.4987 46.2648 33.1521 46.369 32.7807C46.4731 32.4047 46.557 32.0196 46.6204 31.6255ZM47.9793 33.2291L48.6113 33.2971C48.498 34.0672 48.3327 34.7489 48.1152 35.3423C47.8978 35.9312 47.6034 36.4408 47.2319 36.8712C46.865 37.3015 46.3961 37.6639 45.8254 37.9583C45.8073 37.9085 45.7755 37.8474 45.7302 37.7749C45.6895 37.7024 45.6442 37.6322 45.5943 37.5642C45.5445 37.4963 45.4992 37.4397 45.4585 37.3944C45.993 37.1498 46.4278 36.8372 46.7631 36.4567C47.1028 36.0716 47.3678 35.6119 47.5581 35.0773C47.7483 34.5383 47.8887 33.9222 47.9793 33.2291ZM46.7902 33.399C46.899 34.006 47.0484 34.5722 47.2387 35.0977C47.4335 35.6186 47.6872 36.0739 47.9997 36.4635C48.3168 36.853 48.7019 37.152 49.1548 37.3604C49.1096 37.4057 49.0575 37.4601 48.9986 37.5235C48.9442 37.5869 48.8899 37.6526 48.8355 37.7205C48.7857 37.793 48.7449 37.8587 48.7132 37.9176C48.2285 37.6639 47.8231 37.3219 47.4969 36.8915C47.1753 36.4612 46.9148 35.9584 46.7155 35.3831C46.5162 34.8078 46.3554 34.1781 46.2331 33.4941L46.7902 33.399ZM43.5491 33.0117H44.1606V34.6832C44.1606 35.0547 44.1357 35.4284 44.0859 35.8044C44.0406 36.1804 43.9455 36.5473 43.8005 36.9051C43.6556 37.263 43.4336 37.6005 43.1346 37.9176C43.0803 37.8496 43.0078 37.7771 42.9172 37.7001C42.8266 37.6231 42.7405 37.5574 42.659 37.5031C42.9262 37.2132 43.121 36.9097 43.2433 36.5926C43.3702 36.271 43.4517 35.9471 43.4879 35.6209C43.5287 35.2948 43.5491 34.9799 43.5491 34.6764V33.0117Z" fill="#424242"/>
<rect x="114.455" y="0.494039" width="28.3205" height="15.4743" rx="7.73717" stroke="#424242" stroke-width="0.679485" stroke-dasharray="1.36 1.36"/>
<path d="M121.699 7.55445H123.744V8.05727H121.699V7.55445ZM121.699 8.46496H123.758V8.96099H121.699V8.46496ZM121.407 6.63715H124.03V7.15356H121.407V6.63715ZM121.978 9.38227H123.744V11.4071H121.978V10.8771H123.187V9.90547H121.978V9.38227ZM121.699 9.38227H122.25V11.7129H121.699V9.38227ZM122.127 5.71305L122.623 5.46164C122.723 5.60207 122.82 5.75608 122.916 5.92369C123.011 6.08677 123.085 6.23172 123.14 6.35856L122.623 6.64394C122.569 6.52164 122.494 6.37215 122.399 6.19548C122.308 6.01429 122.218 5.85348 122.127 5.71305ZM124.682 5.72664H126.462V6.32459L124.682 6.32459V5.72664ZM123.942 8.47176H126.931V9.0765H123.942V8.47176ZM126.707 8.47176H126.829L126.938 8.45137L127.339 8.62125C127.212 9.06518 127.04 9.46154 126.823 9.81034C126.605 10.1546 126.351 10.4559 126.062 10.7141C125.776 10.9723 125.459 11.1897 125.11 11.3664C124.766 11.543 124.399 11.688 124.009 11.8012C123.991 11.7423 123.964 11.6767 123.928 11.6042C123.892 11.5317 123.851 11.4615 123.806 11.3935C123.765 11.3256 123.724 11.269 123.683 11.2237C124.037 11.1421 124.372 11.0266 124.689 10.8771C125.006 10.7231 125.298 10.5351 125.565 10.3132C125.833 10.0912 126.064 9.83526 126.259 9.54535C126.453 9.25543 126.603 8.93154 126.707 8.57368V8.47176ZM124.737 9.00855C124.904 9.37547 125.128 9.70616 125.409 10.0006C125.695 10.2905 126.03 10.5374 126.415 10.7412C126.804 10.9451 127.235 11.0968 127.706 11.1965C127.661 11.2418 127.613 11.2984 127.563 11.3664C127.513 11.4388 127.466 11.5113 127.42 11.5838C127.375 11.6563 127.337 11.722 127.305 11.7809C126.567 11.5951 125.937 11.2826 125.416 10.8432C124.9 10.4038 124.49 9.85564 124.186 9.19881L124.737 9.00855ZM124.56 5.72664L125.151 5.72664V6.48766C125.151 6.70057 125.124 6.92027 125.069 7.14676C125.02 7.36873 124.922 7.5839 124.777 7.79227C124.632 8.00065 124.419 8.18411 124.139 8.34266C124.111 8.29736 124.071 8.24526 124.016 8.18638C123.966 8.12296 123.914 8.0618 123.86 8.00291C123.806 7.94403 123.76 7.90099 123.724 7.87381C123.969 7.73792 124.15 7.59296 124.268 7.43894C124.39 7.2804 124.469 7.11958 124.505 6.95651C124.542 6.7889 124.56 6.62809 124.56 6.47407V5.72664ZM126.15 5.72664H126.741V7.26907C126.741 7.3642 126.746 7.43215 126.755 7.47292C126.768 7.51369 126.798 7.53407 126.843 7.53407C126.866 7.53407 126.9 7.53407 126.945 7.53407C126.995 7.53407 127.042 7.53407 127.088 7.53407C127.137 7.53407 127.171 7.53407 127.189 7.53407C127.235 7.53407 127.287 7.5318 127.346 7.52727C127.409 7.51821 127.461 7.50689 127.502 7.4933C127.511 7.57484 127.518 7.6677 127.522 7.77189C127.527 7.87608 127.536 7.96441 127.55 8.03689C127.509 8.05501 127.457 8.06633 127.393 8.07086C127.33 8.07539 127.264 8.07766 127.196 8.07766C127.169 8.07766 127.128 8.07766 127.074 8.07766C127.02 8.07766 126.965 8.07766 126.911 8.07766C126.857 8.07766 126.816 8.07766 126.789 8.07766C126.607 8.07766 126.471 8.05048 126.381 7.99612C126.29 7.94176 126.229 7.85569 126.197 7.73792C126.166 7.61561 126.15 7.4548 126.15 7.25548V5.72664ZM130.057 7.58843H133.937V8.19997H130.057V7.58843ZM131.987 9.18522H134.276V9.78996H131.987V9.18522ZM131.647 7.90099H132.313V11.2712L131.647 11.1829L131.647 7.90099ZM130.05 8.65522L130.702 8.71637C130.607 9.40492 130.451 10.0097 130.234 10.5306C130.016 11.0515 129.713 11.4796 129.323 11.8148C129.291 11.7786 129.244 11.731 129.18 11.6721C129.117 11.6178 129.051 11.5634 128.983 11.5091C128.915 11.4592 128.856 11.4185 128.807 11.3868C129.183 11.1014 129.466 10.7254 129.656 10.2588C129.851 9.79223 129.982 9.2577 130.05 8.65522ZM130.519 9.51137C130.632 9.84205 130.777 10.1093 130.954 10.3132C131.135 10.517 131.346 10.6733 131.586 10.782C131.826 10.8862 132.089 10.9587 132.374 10.9994C132.659 11.0357 132.965 11.0538 133.291 11.0538C133.35 11.0538 133.438 11.0538 133.556 11.0538C133.679 11.0538 133.812 11.0538 133.957 11.0538C134.107 11.0538 134.256 11.0538 134.406 11.0538C134.56 11.0538 134.7 11.0538 134.827 11.0538C134.958 11.0493 135.062 11.047 135.139 11.047C135.108 11.0968 135.074 11.1603 135.038 11.2373C135.006 11.3143 134.979 11.3935 134.956 11.4751C134.933 11.5612 134.915 11.6359 134.902 11.6993H134.562H133.257C132.859 11.6993 132.489 11.6721 132.15 11.6178C131.814 11.5634 131.511 11.466 131.239 11.3256C130.972 11.1852 130.732 10.9836 130.519 10.7209C130.311 10.4581 130.134 10.1161 129.989 9.69483L130.519 9.51137ZM129.112 6.23625H134.861V7.82625H134.202V6.84779H129.744V7.82625H129.112V6.23625ZM131.429 5.61792L132.068 5.43446C132.15 5.57036 132.229 5.72211 132.306 5.88972C132.383 6.05279 132.437 6.19548 132.469 6.31779L131.796 6.52164C131.769 6.40386 131.722 6.2589 131.654 6.08677C131.586 5.91463 131.511 5.75835 131.429 5.61792Z" fill="#424242"/>
<rect x="68.2017" y="26.6347" width="50.3205" height="15.4705" rx="7.73526" stroke="#424242" stroke-width="0.679485"/>
<path d="M77.7022 33.5572H80.6036V34.1416H77.7022V33.5572ZM77.4032 33.5572H78.0012V35.5413C78.0012 35.7905 77.9898 36.0645 77.9672 36.3635C77.9491 36.6579 77.9083 36.9456 77.8449 37.2264C77.7815 37.5073 77.6818 37.7587 77.5459 37.9807C77.5142 37.9444 77.4666 37.9014 77.4032 37.8516C77.3443 37.8063 77.2809 37.761 77.213 37.7157C77.1495 37.6704 77.0952 37.6364 77.0499 37.6138C77.1586 37.419 77.2379 37.2038 77.2877 36.9682C77.3421 36.7282 77.3738 36.4858 77.3828 36.2412C77.3964 35.9921 77.4032 35.7565 77.4032 35.5345V33.5572ZM78.0487 36.0577C78.2571 36.017 78.4972 35.9671 78.769 35.9082C79.0408 35.8494 79.3262 35.7859 79.6251 35.718C79.9286 35.6455 80.2321 35.5753 80.5356 35.5074L80.5968 36.0102C80.1891 36.1189 79.7791 36.2253 79.3669 36.3295C78.9592 36.4292 78.5878 36.5198 78.2526 36.6013L78.0487 36.0577ZM78.1574 34.9026L78.4156 34.5017C78.6059 34.538 78.8052 34.5878 79.0136 34.6512C79.222 34.7146 79.4213 34.7826 79.6115 34.855C79.8018 34.923 79.9581 34.9909 80.0804 35.0589L79.8154 35.5074C79.6931 35.4394 79.5368 35.3669 79.3465 35.2899C79.1608 35.2129 78.9638 35.1404 78.7554 35.0725C78.547 35 78.3477 34.9434 78.1574 34.9026ZM80.6579 31.8042L81.2831 32.042C81.1698 32.273 81.0475 32.504 80.9162 32.7351C80.7848 32.9615 80.6625 33.1586 80.5492 33.3262L79.9921 33.102C80.0691 32.9842 80.1483 32.8528 80.2299 32.7079C80.3114 32.5584 80.3907 32.4044 80.4677 32.2458C80.5447 32.0873 80.6081 31.9401 80.6579 31.8042ZM77.2265 32.0895L77.7701 31.8517C77.8607 31.974 77.9536 32.1099 78.0487 32.2594C78.1439 32.4089 78.2277 32.5561 78.3001 32.7011C78.3726 32.8415 78.427 32.9706 78.4632 33.0884L77.8789 33.367C77.8471 33.2492 77.7973 33.1178 77.7294 32.9729C77.6614 32.8234 77.5844 32.6716 77.4983 32.5176C77.4123 32.3636 77.3217 32.2209 77.2265 32.0895ZM80.4065 33.5572H81.0317V37.1993C81.0317 37.3623 81.0113 37.4914 80.9705 37.5866C80.9343 37.6817 80.8573 37.7564 80.7395 37.8108C80.6308 37.8606 80.4858 37.8901 80.3046 37.8991C80.1234 37.9082 79.9037 37.9127 79.6455 37.9127C79.6365 37.8312 79.6115 37.7293 79.5708 37.607C79.5345 37.4892 79.4938 37.3895 79.4485 37.308C79.6251 37.3125 79.7927 37.317 79.9513 37.3216C80.1098 37.3216 80.2163 37.3216 80.2706 37.3216C80.3612 37.317 80.4065 37.274 80.4065 37.1925V33.5572ZM78.9117 31.6275H79.564V33.9445H78.9117V31.6275ZM75.4531 32.1779L75.8336 31.7294C75.965 31.8019 76.1077 31.8834 76.2617 31.974C76.4202 32.0601 76.572 32.1462 76.7169 32.2322C76.8619 32.3183 76.9819 32.3953 77.0771 32.4633L76.683 32.9797C76.5969 32.9072 76.4814 32.8257 76.3364 32.7351C76.196 32.6399 76.0465 32.5448 75.888 32.4497C75.7339 32.35 75.589 32.2594 75.4531 32.1779ZM75.0726 34.0533L75.4259 33.5844C75.5573 33.6433 75.7022 33.7158 75.8608 33.8018C76.0193 33.8834 76.1733 33.9649 76.3228 34.0465C76.4768 34.1235 76.6014 34.1959 76.6965 34.2639L76.3364 34.7939C76.2458 34.7259 76.1258 34.6489 75.9763 34.5629C75.8313 34.4768 75.6796 34.3885 75.521 34.2979C75.3625 34.2073 75.213 34.1257 75.0726 34.0533ZM75.3036 37.4235C75.4259 37.2514 75.5618 37.0453 75.7113 36.8052C75.8653 36.5651 76.0193 36.3114 76.1733 36.0441C76.3274 35.7724 76.4701 35.5074 76.6014 35.2491L77.0703 35.6772C76.9525 35.9128 76.8234 36.1597 76.683 36.4179C76.5471 36.6715 76.4066 36.9207 76.2617 37.1653C76.1213 37.4099 75.9831 37.6409 75.8472 37.8584L75.3036 37.4235ZM83.5322 32.7079H87.7042V32.3749H83.0633V31.974L88.2954 31.974V33.1088H83.5322V32.7079ZM83.3419 32.7079H83.9127C83.8855 32.9072 83.8561 33.1133 83.8243 33.3262C83.7926 33.5346 83.7587 33.7158 83.7224 33.8698H83.1585C83.1947 33.7067 83.2287 33.521 83.2604 33.3126C83.2966 33.0997 83.3238 32.8981 83.3419 32.7079ZM83.4235 33.4689H88.3225V33.8698H83.3011L83.4235 33.4689ZM88.1187 33.4689H88.7234C88.7234 33.4689 88.7212 33.4915 88.7166 33.5368C88.7166 33.5821 88.7144 33.6206 88.7098 33.6524C88.6917 33.8517 88.6691 34.008 88.6419 34.1212C88.6192 34.2344 88.5807 34.3183 88.5264 34.3726C88.4811 34.4179 88.4267 34.4519 88.3633 34.4745C88.3044 34.4972 88.241 34.5108 88.1731 34.5153C88.1096 34.5153 88.0213 34.5153 87.9081 34.5153C87.7993 34.5153 87.6816 34.513 87.5547 34.5085C87.5502 34.4496 87.5366 34.3817 87.514 34.3047C87.4913 34.2277 87.4664 34.162 87.4392 34.1076C87.5343 34.1167 87.6204 34.1235 87.6974 34.128C87.7744 34.1325 87.831 34.1325 87.8673 34.128C87.9035 34.128 87.933 34.1257 87.9556 34.1212C87.9783 34.1167 87.9986 34.1053 88.0168 34.0872C88.0439 34.06 88.0643 34.0057 88.0779 33.9242C88.096 33.8381 88.1096 33.709 88.1187 33.5368V33.4689ZM84.6805 31.6343H85.2649V32.9389C85.2649 33.1699 85.2377 33.3874 85.1833 33.5912C85.129 33.795 85.0225 33.983 84.864 34.1552C84.7099 34.3228 84.4812 34.4723 84.1777 34.6036C83.8742 34.735 83.4733 34.846 82.975 34.9366C82.9614 34.8868 82.9365 34.8324 82.9002 34.7735C82.864 34.7101 82.8255 34.6489 82.7847 34.59C82.7485 34.5266 82.7123 34.4745 82.676 34.4338C83.1199 34.3613 83.4733 34.2752 83.736 34.1756C84.0033 34.0714 84.2049 33.9559 84.3408 33.829C84.4767 33.6977 84.5673 33.5572 84.6125 33.4077C84.6578 33.2583 84.6805 33.0974 84.6805 32.9253V31.6343ZM86.1957 31.6343L86.8005 31.6343V34.325H86.1957V31.6343ZM84.1709 35.4394V35.7927H87.3713V35.4394H84.1709ZM84.1709 36.1665V36.5266H87.3713V36.1665H84.1709ZM84.1709 34.7191V35.0725H87.3713V34.7191H84.1709ZM83.5458 34.3318H88.0236V36.9139H83.5458V34.3318ZM86.3045 37.1721L86.6782 36.7984C86.9319 36.8754 87.1855 36.9569 87.4392 37.043C87.6974 37.1291 87.942 37.2151 88.1731 37.3012C88.4041 37.3827 88.6011 37.4597 88.7642 37.5322L88.2886 37.9263C88.1391 37.8538 87.9579 37.7723 87.745 37.6817C87.5321 37.5956 87.301 37.5073 87.0519 37.4167C86.8073 37.3306 86.5581 37.2491 86.3045 37.1721ZM84.6737 36.8731L85.2513 37.1381C85.0655 37.2423 84.8504 37.3442 84.6058 37.4439C84.3657 37.5481 84.1165 37.6432 83.8583 37.7293C83.6046 37.8153 83.3623 37.8878 83.1313 37.9467C83.0996 37.9014 83.0543 37.8493 82.9954 37.7904C82.941 37.7315 82.8844 37.6726 82.8255 37.6138C82.7666 37.5594 82.7145 37.5141 82.6692 37.4779C82.9048 37.4326 83.1471 37.3805 83.3963 37.3216C83.6454 37.2582 83.881 37.1902 84.1029 37.1177C84.3249 37.0407 84.5152 36.9592 84.6737 36.8731ZM95.8173 34.8415L96.3065 35.1744C96.1615 35.3465 96.0188 35.5255 95.8784 35.7112C95.7425 35.8924 95.6134 36.0464 95.4911 36.1732L95.1378 35.9082C95.2103 35.8131 95.2895 35.7044 95.3756 35.5821C95.4617 35.4553 95.5432 35.3262 95.6202 35.1948C95.7017 35.0634 95.7674 34.9456 95.8173 34.8415ZM94.0914 31.6343H94.6621V33.0952H94.0914V31.6343ZM94.4039 34.4609H94.9747C94.9566 34.8641 94.9249 35.2424 94.8796 35.5957C94.8343 35.9445 94.7573 36.2661 94.6485 36.5606C94.5444 36.8505 94.3926 37.1109 94.1933 37.342C93.994 37.573 93.7312 37.77 93.4051 37.9331C93.3734 37.8606 93.3213 37.7791 93.2488 37.6885C93.1763 37.5979 93.1061 37.5254 93.0382 37.4711C93.3326 37.3352 93.5659 37.1676 93.738 36.9682C93.9147 36.7689 94.0483 36.5424 94.1389 36.2888C94.2295 36.0351 94.2929 35.7565 94.3292 35.453C94.3654 35.145 94.3903 34.8143 94.4039 34.4609ZM94.8592 35.419C94.9407 35.7089 95.0517 35.9853 95.1921 36.248C95.3326 36.5107 95.4979 36.744 95.6882 36.9479C95.8784 37.1517 96.0936 37.3125 96.3337 37.4303C96.2702 37.4847 96.2023 37.5571 96.1298 37.6477C96.0573 37.7383 95.9985 37.8221 95.9532 37.8991C95.6995 37.7451 95.473 37.5503 95.2737 37.3148C95.0744 37.0747 94.9022 36.8029 94.7573 36.4994C94.6123 36.1914 94.4945 35.8652 94.4039 35.5209L94.8592 35.419ZM92.8479 33.6659H96.2861V34.2095H92.8479V33.6659ZM92.6169 33.6659H93.1809V35.0181C93.1809 35.231 93.1718 35.4643 93.1537 35.718C93.1401 35.9717 93.1106 36.2321 93.0653 36.4994C93.0246 36.7621 92.9634 37.0181 92.8819 37.2672C92.8049 37.5164 92.7007 37.7429 92.5693 37.9467C92.5376 37.915 92.49 37.8788 92.4266 37.838C92.3677 37.7972 92.3066 37.7564 92.2432 37.7157C92.1797 37.6749 92.1231 37.6455 92.0733 37.6273C92.2364 37.3691 92.3564 37.086 92.4334 36.778C92.5104 36.47 92.5603 36.1619 92.5829 35.8539C92.6056 35.5459 92.6169 35.265 92.6169 35.0113V33.6659ZM93.1265 35.1065L93.5342 34.8686C93.6067 34.9819 93.6814 35.1065 93.7584 35.2424C93.84 35.3737 93.9147 35.5006 93.9826 35.6229C94.0551 35.7452 94.114 35.8516 94.1593 35.9422L93.7244 36.2276C93.6882 36.1279 93.6361 36.0147 93.5682 35.8879C93.5002 35.7565 93.4277 35.6229 93.3507 35.487C93.2737 35.3465 93.199 35.2197 93.1265 35.1065ZM92.7188 31.8449H93.2964V32.7486H95.4843V31.8449H96.0958V33.2786H92.7188V31.8449ZM90.13 31.9672H92.4334V32.5516H90.13V31.9672ZM90.8366 34.0736H92.2636V37.0973H90.8366V36.5266H91.7811V34.6376H90.8366V34.0736ZM90.9657 32.2662L91.5569 32.3953C91.4753 32.8211 91.3734 33.2424 91.2511 33.6592C91.1333 34.0759 90.9906 34.4655 90.823 34.8279C90.6554 35.1903 90.4607 35.5074 90.2387 35.7791C90.2296 35.7248 90.2092 35.6523 90.1775 35.5617C90.1504 35.4666 90.1186 35.3737 90.0824 35.2831C90.0507 35.188 90.0167 35.111 89.9805 35.0521C90.2342 34.7124 90.4403 34.3001 90.5988 33.8154C90.7574 33.3262 90.8797 32.8098 90.9657 32.2662ZM90.5648 34.0736H91.0948V37.6273H90.5648V34.0736ZM100.682 35.2967H103.326V35.8947H100.682V35.2967ZM99.2147 35.6297C99.337 35.9649 99.4955 36.2389 99.6903 36.4518C99.8896 36.6647 100.116 36.8301 100.37 36.9479C100.623 37.0611 100.904 37.1404 101.212 37.1857C101.52 37.2264 101.847 37.2468 102.191 37.2468C102.241 37.2468 102.318 37.2468 102.422 37.2468C102.531 37.2468 102.653 37.2468 102.789 37.2468C102.925 37.2468 103.063 37.2468 103.203 37.2468C103.344 37.2468 103.471 37.2468 103.584 37.2468C103.702 37.2423 103.794 37.2378 103.862 37.2332C103.831 37.2831 103.799 37.3465 103.767 37.4235C103.736 37.5005 103.708 37.5775 103.686 37.6545C103.663 37.7315 103.645 37.8017 103.631 37.8652H103.319H102.157C101.74 37.8652 101.355 37.8357 101.002 37.7768C100.653 37.7225 100.334 37.6228 100.044 37.4779C99.7537 37.3329 99.4955 37.1268 99.269 36.8595C99.0425 36.5923 98.85 36.2503 98.6915 35.8335L99.2147 35.6297ZM100.397 34.1688H101.056V37.539L100.397 37.3216V34.1688ZM99.038 32.5652V33.7203H102.442V32.5652H99.038ZM98.3993 31.9468H103.122V34.3318H98.3993V31.9468ZM98.7458 34.8007L99.4185 34.8754C99.3642 35.2514 99.2804 35.6319 99.1671 36.017C99.0584 36.3975 98.9089 36.7553 98.7187 37.0906C98.5329 37.4258 98.2974 37.7066 98.012 37.9331C97.9758 37.8878 97.9305 37.838 97.8761 37.7836C97.8217 37.7293 97.7651 37.6749 97.7062 37.6206C97.6519 37.5707 97.602 37.53 97.5567 37.4982C97.8149 37.2944 98.0256 37.0453 98.1887 36.7508C98.3517 36.4518 98.4763 36.1325 98.5624 35.7927C98.653 35.4485 98.7141 35.1178 98.7458 34.8007ZM105.853 32.4429V33.5504H106.832V32.4429H105.853ZM105.31 31.9061L107.402 31.9061V34.0872H105.31V31.9061ZM106.186 33.8222H106.73V36.9682H106.186V33.8222ZM105.289 34.6512H105.799V37.1517H105.289V34.6512ZM104.936 36.9682C105.153 36.9229 105.4 36.8686 105.677 36.8052C105.953 36.7417 106.245 36.6738 106.553 36.6013C106.866 36.5243 107.176 36.4473 107.484 36.3703L107.552 36.9207C107.113 37.0385 106.673 37.154 106.234 37.2672C105.794 37.3759 105.403 37.4733 105.058 37.5594L104.936 36.9682ZM106.404 34.9366H107.45V35.4938H106.404V34.9366ZM107.586 32.7351H111.289V33.3466H107.586V32.7351ZM109.645 33.1359H110.243V37.2264C110.243 37.385 110.225 37.5118 110.188 37.607C110.152 37.7021 110.082 37.7746 109.978 37.8244C109.878 37.8788 109.749 37.9127 109.59 37.9263C109.436 37.9399 109.242 37.9467 109.006 37.9467C109.002 37.8606 108.981 37.7587 108.945 37.6409C108.909 37.5232 108.87 37.419 108.829 37.3284C108.983 37.3329 109.126 37.3374 109.257 37.342C109.389 37.342 109.477 37.3397 109.522 37.3352C109.568 37.3306 109.599 37.3216 109.618 37.308C109.636 37.2944 109.645 37.265 109.645 37.2197V33.1359ZM107.878 34.094L108.429 34.1892C108.361 34.5923 108.265 34.9796 108.143 35.3511C108.025 35.7225 107.885 36.0373 107.722 36.2956C107.69 36.2684 107.645 36.2344 107.586 36.1936C107.527 36.1529 107.466 36.1144 107.402 36.0781C107.344 36.0419 107.294 36.0147 107.253 35.9966C107.412 35.761 107.543 35.4756 107.647 35.1404C107.751 34.8007 107.828 34.4519 107.878 34.094ZM110.243 34.2435L110.746 34.0397C110.85 34.248 110.945 34.4723 111.031 34.7124C111.122 34.9524 111.199 35.188 111.262 35.419C111.325 35.6455 111.373 35.8494 111.405 36.0306L110.854 36.248C110.836 36.0668 110.795 35.8607 110.732 35.6297C110.669 35.3941 110.594 35.1563 110.508 34.9162C110.426 34.6761 110.338 34.4519 110.243 34.2435ZM108.626 32.9593H109.176V34.427C109.176 34.7214 109.158 35.0249 109.122 35.3375C109.09 35.6455 109.022 35.9535 108.918 36.2616C108.818 36.5651 108.669 36.8595 108.469 37.1449C108.27 37.4303 108.003 37.6976 107.667 37.9467C107.618 37.8788 107.55 37.8063 107.464 37.7293C107.378 37.6523 107.296 37.5866 107.219 37.5322C107.536 37.3012 107.788 37.0566 107.973 36.7984C108.159 36.5402 108.299 36.2752 108.395 36.0034C108.49 35.7316 108.551 35.4621 108.578 35.1948C108.61 34.9275 108.626 34.6716 108.626 34.427V32.9593ZM108.863 31.777L109.448 31.6139C109.538 31.7724 109.627 31.9468 109.713 32.1371C109.803 32.3274 109.864 32.4904 109.896 32.6263L109.278 32.8234C109.246 32.683 109.192 32.5154 109.115 32.3206C109.038 32.1258 108.954 31.9446 108.863 31.777Z" fill="#424242"/>
<rect x="0.454611" y="80.3222" width="28.3205" height="15.4705" stroke="#424242" stroke-width="0.679485"/>
<path d="M8.29038 85.614H13.5564V86.1915H8.29038V85.614ZM8.37871 90.9139H13.57V91.4507H8.37871V90.9139ZM11.0423 89.6841H12.9449V90.1869H11.0423V89.6841ZM7.88269 85.614H8.48743V87.666C8.48743 87.9469 8.48063 88.2594 8.46704 88.6037C8.45345 88.9434 8.42401 89.2922 8.37871 89.6501C8.33341 90.0034 8.26773 90.35 8.18166 90.6897C8.09559 91.0249 7.98234 91.333 7.84192 91.6138C7.80568 91.5821 7.75358 91.5459 7.68564 91.5051C7.62222 91.4643 7.55427 91.4258 7.48179 91.3896C7.41384 91.3579 7.35269 91.333 7.29833 91.3148C7.43423 91.0476 7.54068 90.7577 7.61769 90.4451C7.6947 90.1325 7.75132 89.8154 7.78756 89.4938C7.82833 89.1677 7.85324 88.8483 7.8623 88.5358C7.87589 88.2232 7.88269 87.931 7.88269 87.6592L7.88269 85.614ZM10.7025 89.0522H11.3277V91.2129H10.7025L10.7025 89.0522ZM9.1873 89.5414H9.80563L9.80563 91.2197H9.1873L9.1873 89.5414ZM8.66409 87.3263H10.7773V87.7883H8.66409V87.3263ZM9.48627 86.5924H10.0231V89.0793H9.48627V86.5924ZM9.41153 87.5301L9.77845 87.6592C9.70597 87.8359 9.61311 88.0148 9.49986 88.196C9.39114 88.3727 9.2711 88.538 9.13973 88.692C9.00837 88.8415 8.87473 88.9661 8.73884 89.0657C8.69807 89.0069 8.64144 88.9389 8.56897 88.8619C8.50102 88.7849 8.4376 88.7237 8.37871 88.6784C8.51461 88.5969 8.64597 88.495 8.77281 88.3727C8.90418 88.2458 9.02422 88.1099 9.13294 87.965C9.24619 87.82 9.33905 87.6751 9.41153 87.5301ZM10.9675 87.3263H13.4341V87.7883H10.9675V87.3263ZM11.8373 86.5924H12.3809V89.0793H11.8373V86.5924ZM11.6878 87.5233L12.0547 87.6524C11.9822 87.8291 11.8871 88.008 11.7693 88.1892C11.6516 88.3704 11.5247 88.538 11.3888 88.692C11.2529 88.8415 11.1148 88.9661 10.9743 89.0657C10.9336 89.0069 10.877 88.9389 10.8045 88.8619C10.7365 88.7804 10.6731 88.7169 10.6142 88.6716C10.7546 88.5946 10.8928 88.495 11.0287 88.3727C11.1646 88.2458 11.2892 88.1099 11.4024 87.965C11.5202 87.8155 11.6153 87.6683 11.6878 87.5233ZM9.98909 87.7747C10.0299 87.7928 10.0865 87.8268 10.159 87.8767C10.2314 87.9265 10.3084 87.9786 10.39 88.0329C10.4715 88.0873 10.5463 88.1394 10.6142 88.1892C10.6867 88.239 10.7365 88.2775 10.7637 88.3047L10.4511 88.6988C10.4104 88.6581 10.356 88.606 10.2881 88.5425C10.2246 88.4791 10.1544 88.4134 10.0774 88.3455C10.0004 88.2775 9.92567 88.2141 9.85319 88.1552C9.78524 88.0918 9.72862 88.0443 9.68332 88.0125L9.98909 87.7747ZM10.2949 86.307L10.7093 86.6332C10.5417 86.7011 10.3492 86.76 10.1318 86.8099C9.91435 86.8552 9.69012 86.8937 9.45909 86.9254C9.2326 86.9526 9.01063 86.9729 8.7932 86.9865C8.78414 86.9367 8.76375 86.8755 8.73204 86.8031C8.70486 86.7306 8.67768 86.6672 8.6505 86.6128C8.84982 86.5947 9.0514 86.572 9.25525 86.5449C9.46362 86.5132 9.65841 86.4769 9.8396 86.4361C10.0253 86.3954 10.1771 86.3523 10.2949 86.307ZM12.7478 86.2799L13.1623 86.6128C12.9811 86.6762 12.7727 86.7351 12.5372 86.7895C12.3016 86.8393 12.057 86.8801 11.8033 86.9118C11.5542 86.9435 11.3118 86.9661 11.0763 86.9797C11.0672 86.9254 11.0491 86.862 11.0219 86.7895C10.9947 86.7125 10.9653 86.649 10.9336 86.5992C11.151 86.5811 11.373 86.5584 11.5995 86.5313C11.8305 86.4996 12.0457 86.4633 12.245 86.4226C12.4488 86.3773 12.6164 86.3297 12.7478 86.2799ZM12.3877 87.8019C12.4466 87.8336 12.5304 87.888 12.6391 87.965C12.7523 88.0375 12.8724 88.119 12.9992 88.2096C13.1306 88.2957 13.2484 88.3772 13.3525 88.4542C13.4613 88.5312 13.5405 88.5878 13.5904 88.6241L13.2914 89.0522C13.228 88.9887 13.1442 88.9117 13.04 88.8211C12.9358 88.7305 12.8248 88.6377 12.707 88.5425C12.5893 88.4429 12.476 88.3523 12.3673 88.2708C12.2586 88.1847 12.1702 88.1167 12.1023 88.0669L12.3877 87.8019ZM17.6605 85.349H18.3264V88.2775C18.3264 88.5675 18.3037 88.8506 18.2584 89.1269C18.2177 89.3987 18.1361 89.6592 18.0138 89.9083C17.896 90.1529 17.7216 90.384 17.4906 90.6014C17.2641 90.8188 16.9674 91.0136 16.6005 91.1857C16.2336 91.3624 15.776 91.5119 15.2279 91.6342C15.2053 91.5889 15.1713 91.53 15.126 91.4575C15.0852 91.3851 15.0377 91.3126 14.9833 91.2401C14.9335 91.1722 14.8859 91.1133 14.8406 91.0634C15.3616 90.9638 15.7942 90.8415 16.1384 90.6965C16.4827 90.5516 16.7568 90.3907 16.9606 90.2141C17.169 90.0374 17.323 89.8449 17.4227 89.6365C17.5223 89.4281 17.5857 89.2107 17.6129 88.9842C17.6446 88.7532 17.6605 88.5176 17.6605 88.2775V85.349ZM16.0161 86.9729V88.1077H19.9707V86.9729H16.0161ZM15.3842 86.3546H20.6298V88.726H15.3842V86.3546ZM16.2675 88.8823C16.485 89.299 16.7432 89.6388 17.0421 89.9015C17.3411 90.1597 17.6899 90.3613 18.0886 90.5063C18.4872 90.6467 18.9424 90.7486 19.4543 90.812C19.9662 90.8709 20.546 90.9094 21.1938 90.9275C21.1304 91.0045 21.0692 91.1065 21.0103 91.2333C20.9514 91.3601 20.9107 91.4802 20.888 91.5934C20.2267 91.5572 19.6265 91.4938 19.0874 91.4032C18.5483 91.3171 18.0659 91.1857 17.6401 91.0091C17.2143 90.8324 16.8383 90.5901 16.5121 90.282C16.186 89.974 15.9097 89.5799 15.6832 89.0997L16.2675 88.8823Z" fill="#424242"/>
<rect x="34.7478" y="80.3222" width="28.3205" height="15.4705" stroke="#424242" stroke-width="0.679485"/>
<path d="M42.1147 87.0477H43.7795V87.5913H42.1147V87.0477ZM41.741 88.23H44.0581V88.7804H41.741V88.23ZM41.775 89.1473L42.2167 89.0454C42.2665 89.2356 42.3163 89.444 42.3662 89.6705C42.416 89.897 42.4522 90.0918 42.4749 90.2548L42.0128 90.384C41.9992 90.2118 41.9698 90.0125 41.9245 89.786C41.8792 89.555 41.8294 89.3421 41.775 89.1473ZM41.6255 90.8392C41.929 90.7939 42.3005 90.735 42.7399 90.6625C43.1838 90.5901 43.6345 90.5153 44.092 90.4383L44.126 90.9479C43.7138 91.034 43.2993 91.1178 42.8826 91.1993C42.4658 91.2809 42.0944 91.3533 41.7682 91.4168L41.6255 90.8392ZM43.7047 88.9842L44.1396 89.0997C44.0853 89.3036 44.0286 89.5165 43.9697 89.7384C43.9154 89.9559 43.8633 90.1416 43.8135 90.2956L43.4669 90.1937C43.4986 90.0804 43.5281 89.9536 43.5553 89.8132C43.587 89.6682 43.6164 89.5233 43.6436 89.3783C43.6708 89.2334 43.6912 89.102 43.7047 88.9842ZM42.7127 87.2719H43.2359V90.9207L42.7127 91.0159V87.2719ZM42.869 85.3082L43.365 85.4917C43.2427 85.7499 43.0955 86.0081 42.9233 86.2663C42.7512 86.5245 42.5655 86.7668 42.3662 86.9933C42.1714 87.2198 41.9698 87.4191 41.7614 87.5913C41.7569 87.546 41.741 87.4848 41.7138 87.4078C41.6912 87.3308 41.664 87.2515 41.6323 87.17C41.6006 87.0839 41.5712 87.0182 41.544 86.9729C41.7977 86.7691 42.0445 86.5222 42.2846 86.2323C42.5247 85.9379 42.7195 85.6298 42.869 85.3082ZM42.7738 85.9129L43.1204 85.546C43.2608 85.6774 43.4103 85.8201 43.5688 85.9741C43.7319 86.1281 43.8859 86.2776 44.0309 86.4226C44.1804 86.5675 44.3027 86.6921 44.3978 86.7963L44.0309 87.2243C43.9403 87.1111 43.8225 86.9775 43.6776 86.8234C43.5326 86.6694 43.3809 86.5132 43.2223 86.3546C43.0638 86.1915 42.9143 86.0443 42.7738 85.9129ZM47.3943 88.5833L47.8292 88.9434C47.6888 89.0975 47.537 89.2537 47.374 89.4123C47.2109 89.5663 47.0637 89.6977 46.9323 89.8064L46.579 89.4802C46.665 89.4032 46.7579 89.3126 46.8576 89.2084C46.9572 89.1043 47.0546 88.9978 47.1497 88.8891C47.2449 88.7758 47.3264 88.6739 47.3943 88.5833ZM44.3027 88.9027L44.724 88.5969C44.8553 88.7237 44.9912 88.8687 45.1317 89.0318C45.2766 89.1903 45.3876 89.3262 45.4646 89.4395L45.0161 89.786C44.9708 89.709 44.9074 89.6184 44.8259 89.5142C44.7444 89.41 44.6583 89.3036 44.5677 89.1949C44.4771 89.0861 44.3888 88.9887 44.3027 88.9027ZM45.1249 85.9061H46.9459V86.4022H45.1249V85.9061ZM44.9142 86.9254H46.7896V87.4282H44.9142V86.9254ZM44.16 87.8427H47.9379V88.4066H44.16V87.8427ZM45.7296 88.1756H46.3208V90.9955C46.3208 91.1404 46.3049 91.2537 46.2732 91.3352C46.2415 91.4213 46.1758 91.487 46.0761 91.5323C45.9855 91.5776 45.87 91.6048 45.7296 91.6138C45.5937 91.6274 45.4284 91.6342 45.2336 91.6342C45.2245 91.5527 45.2019 91.4575 45.1656 91.3488C45.1294 91.2446 45.0909 91.154 45.0501 91.077C45.177 91.0816 45.2947 91.0838 45.4035 91.0838C45.5122 91.0838 45.5869 91.0838 45.6277 91.0838C45.6956 91.0793 45.7296 91.0476 45.7296 90.9887V88.1756ZM44.0241 90.7033C44.1917 90.6037 44.391 90.4768 44.622 90.3228C44.8531 90.1643 45.0909 90.0012 45.3355 89.8336L45.5258 90.3024C45.331 90.4519 45.1317 90.6037 44.9278 90.7577C44.7285 90.9072 44.5382 91.0498 44.357 91.1857L44.0241 90.7033ZM45.0569 85.315L45.6549 85.3829C45.605 85.6049 45.5484 85.8427 45.485 86.0964C45.4261 86.3455 45.3649 86.5856 45.3015 86.8167C45.2426 87.0477 45.186 87.2515 45.1317 87.4282H44.5133C44.5722 87.2425 44.6356 87.0296 44.7036 86.7895C44.7715 86.5449 44.835 86.2934 44.8938 86.0352C44.9573 85.777 45.0116 85.537 45.0569 85.315ZM46.7692 85.9061H46.8372L46.9391 85.879L47.3808 85.9401C47.349 86.153 47.3083 86.384 47.2584 86.6332C47.2086 86.8823 47.1565 87.1292 47.1022 87.3738C47.0523 87.6184 47.0025 87.8495 46.9527 88.0669L46.3615 87.9922C46.4159 87.7702 46.468 87.5346 46.5178 87.2855C46.5722 87.0318 46.622 86.7895 46.6673 86.5584C46.7126 86.3229 46.7466 86.1281 46.7692 85.9741V85.9061ZM46.4295 90.1869L46.776 89.8064C46.9119 89.897 47.0546 89.9989 47.2041 90.1122C47.3581 90.2254 47.5053 90.3387 47.6458 90.4519C47.7862 90.5606 47.8994 90.658 47.9855 90.7441L47.6186 91.1789C47.537 91.0929 47.4283 90.991 47.2924 90.8732C47.1565 90.7554 47.0116 90.6376 46.8576 90.5198C46.7081 90.3975 46.5654 90.2866 46.4295 90.1869ZM54.5153 85.4509L55.1201 85.6955C54.9661 85.9039 54.7894 86.1077 54.5901 86.307C54.3953 86.5064 54.1892 86.6943 53.9718 86.871C53.7543 87.0431 53.5392 87.1949 53.3262 87.3263C53.2719 87.2583 53.2017 87.1813 53.1156 87.0952C53.0295 87.0092 52.9457 86.9367 52.8642 86.8778C53.0635 86.7691 53.2651 86.6377 53.4689 86.4837C53.6773 86.3297 53.8721 86.1643 54.0533 85.9877C54.239 85.8065 54.393 85.6276 54.5153 85.4509ZM54.7192 87.2923L55.3036 87.5369C55.1405 87.7589 54.948 87.9763 54.726 88.1892C54.5086 88.4021 54.2798 88.5992 54.0397 88.7804C53.7996 88.957 53.5595 89.1156 53.3195 89.256C53.2742 89.1835 53.2085 89.1043 53.1224 89.0182C53.0409 88.9321 52.9593 88.8596 52.8778 88.8008C53.0998 88.6875 53.324 88.5516 53.5505 88.3931C53.7815 88.23 53.9989 88.0533 54.2028 87.8631C54.4112 87.6728 54.5833 87.4825 54.7192 87.2923ZM54.8415 89.2288L55.4394 89.4531C55.2673 89.7475 55.0589 90.0284 54.8143 90.2956C54.5742 90.5584 54.3115 90.7984 54.0261 91.0159C53.7453 91.2333 53.4508 91.4213 53.1428 91.5798C53.093 91.5028 53.025 91.4168 52.9389 91.3216C52.8574 91.2265 52.7781 91.1472 52.7011 91.0838C52.9865 90.9525 53.2651 90.7916 53.5369 90.6014C53.8087 90.4111 54.0578 90.1982 54.2843 89.9627C54.5108 89.7271 54.6965 89.4825 54.8415 89.2288ZM49.2425 87.8427H52.9525V88.3455H49.2425V87.8427ZM50.2414 89.0725V89.5482H52.008V89.0725H50.2414ZM49.6434 88.6377H52.6332V89.9831H49.6434V88.6377ZM51.6683 90.2752L52.1236 90.0714C52.2413 90.2299 52.3591 90.4066 52.4769 90.6014C52.5947 90.7962 52.683 90.9615 52.7419 91.0974L52.2595 91.3352C52.2006 91.1948 52.1145 91.0249 52.0013 90.8256C51.8925 90.6218 51.7816 90.4383 51.6683 90.2752ZM50.1734 86.7011V87.0477H52.0828V86.7011H50.1734ZM50.1734 85.9673V86.3138H52.0828V85.9673H50.1734ZM49.5619 85.5596H52.7215V87.4622H49.5619V85.5596ZM50.7986 89.752H51.4237V91.0091C51.4237 91.1495 51.4078 91.2582 51.3761 91.3352C51.3489 91.4122 51.2855 91.4734 51.1859 91.5187C51.0907 91.5595 50.973 91.5844 50.8325 91.5934C50.6966 91.6025 50.5358 91.607 50.3501 91.607C50.3365 91.521 50.3116 91.4304 50.2754 91.3352C50.2391 91.2401 50.2006 91.154 50.1598 91.077C50.2822 91.0816 50.3931 91.0838 50.4928 91.0838C50.597 91.0838 50.6672 91.0838 50.7034 91.0838C50.7442 91.0838 50.7691 91.077 50.7782 91.0634C50.7918 91.0544 50.7986 91.034 50.7986 91.0023V89.752ZM49.8745 90.085L50.4113 90.2413C50.3207 90.4451 50.2074 90.6535 50.0715 90.8664C49.9401 91.0748 49.8065 91.2492 49.6706 91.3896C49.6389 91.3579 49.5959 91.3194 49.5415 91.2741C49.4872 91.2333 49.4305 91.1903 49.3716 91.145C49.3173 91.1042 49.2697 91.0702 49.229 91.0431C49.3558 90.9162 49.4758 90.769 49.5891 90.6014C49.7023 90.4292 49.7975 90.2571 49.8745 90.085ZM50.6763 87.5777L51.281 87.4486C51.3354 87.5301 51.3875 87.623 51.4373 87.7272C51.4916 87.8268 51.5301 87.9174 51.5528 87.999L50.9141 88.1416C50.896 88.0646 50.8642 87.974 50.8189 87.8699C50.7737 87.7611 50.7261 87.6637 50.6763 87.5777Z" fill="#424242"/>
<rect x="114.903" y="62.621" width="28.3205" height="15.4743" stroke="#43B71B" stroke-width="0.679485" stroke-dasharray="1.36 1.36"/>
<path d="M125.206 73.1128H127.407V73.67H125.206V73.1128ZM125.525 68.2953H127.285V68.8456H125.525V68.2953ZM124.954 71.4345H127.686V73.8942H127.067V71.9781H125.545V73.9146H124.954V71.4345ZM127.061 68.2953H127.176L127.292 68.2681L127.699 68.4447C127.573 68.866 127.405 69.2511 127.197 69.5999C126.988 69.9487 126.75 70.2635 126.483 70.5444C126.216 70.8207 125.926 71.063 125.613 71.2714C125.305 71.4798 124.986 71.6542 124.655 71.7946C124.614 71.7221 124.558 71.6383 124.485 71.5432C124.417 71.4435 124.352 71.3665 124.288 71.3122C124.587 71.1989 124.879 71.0494 125.165 70.8637C125.455 70.6735 125.724 70.4538 125.973 70.2046C126.223 69.9555 126.44 69.6791 126.626 69.3756C126.811 69.0721 126.956 68.7482 127.061 68.404V68.2953ZM125.6 67.6158L126.211 67.7653C126.112 68.0733 125.992 68.3723 125.851 68.6622C125.711 68.9521 125.554 69.2216 125.382 69.4708C125.215 69.7154 125.036 69.9328 124.846 70.1231C124.814 70.0823 124.766 70.037 124.703 69.9872C124.644 69.9328 124.581 69.8807 124.513 69.8309C124.449 69.7765 124.395 69.7335 124.349 69.7018C124.621 69.4572 124.866 69.1514 125.083 68.7845C125.305 68.413 125.477 68.0235 125.6 67.6158ZM125.532 68.6214C125.631 68.857 125.761 69.0993 125.919 69.3485C126.082 69.5976 126.275 69.8377 126.497 70.0687C126.723 70.2997 126.979 70.5104 127.264 70.7006C127.55 70.8909 127.867 71.0472 128.216 71.1695C128.175 71.2102 128.127 71.2646 128.073 71.3326C128.023 71.396 127.976 71.4617 127.93 71.5296C127.885 71.593 127.847 71.6542 127.815 71.7131C127.466 71.5681 127.147 71.3892 126.857 71.1763C126.571 70.9634 126.315 70.7301 126.089 70.4764C125.867 70.2227 125.672 69.9645 125.505 69.7018C125.342 69.4345 125.208 69.1786 125.104 68.934L125.532 68.6214ZM122.114 70.6259H122.644V73.0924H122.114V70.6259ZM122.705 68.4447V69.4979H123.813V68.4447H122.705ZM122.134 67.8944H124.411V70.0551H122.134V67.8944ZM123.092 69.8105H123.67V72.8818H123.092V69.8105ZM121.788 73.0109C122.019 72.9656 122.284 72.9112 122.583 72.8478C122.882 72.7844 123.197 72.7142 123.527 72.6372C123.863 72.5602 124.195 72.4832 124.526 72.4061L124.587 72.9769C124.112 73.0947 123.636 73.2125 123.16 73.3302C122.689 73.4435 122.268 73.5431 121.897 73.6292L121.788 73.0109ZM123.31 70.9588H124.472V71.5228H123.31V70.9588ZM133.339 67.6158L134.059 67.7585C133.978 67.9261 133.894 68.0914 133.808 68.2545C133.726 68.413 133.652 68.5489 133.584 68.6622L133.04 68.5263C133.099 68.3949 133.156 68.2432 133.21 68.071C133.264 67.8989 133.307 67.7471 133.339 67.6158ZM132.7 69.7901V70.2794H134.65V69.7901H132.7ZM132.7 68.8388V69.3213H134.65V68.8388H132.7ZM132.102 68.3428H135.276V70.7822H132.102V68.3428ZM133.434 70.5647H134.046V73.2623C134.046 73.4163 134.028 73.5364 133.991 73.6224C133.955 73.713 133.885 73.7855 133.781 73.8399C133.681 73.8852 133.554 73.9123 133.4 73.9214C133.246 73.935 133.06 73.9418 132.843 73.9418C132.829 73.8557 132.805 73.7561 132.768 73.6428C132.737 73.5296 132.7 73.4322 132.66 73.3506C132.805 73.3552 132.94 73.3574 133.067 73.3574C133.194 73.362 133.278 73.362 133.319 73.3574C133.364 73.3529 133.393 73.3438 133.407 73.3302C133.425 73.3167 133.434 73.2917 133.434 73.2555V70.5647ZM131.858 71.285H132.891V71.815H131.858V71.285ZM132.748 71.285H132.857L132.959 71.2646L133.332 71.3937C133.255 71.7425 133.144 72.0596 132.999 72.345C132.854 72.6258 132.685 72.8727 132.49 73.0856C132.295 73.294 132.08 73.4661 131.844 73.602C131.803 73.5341 131.747 73.4548 131.674 73.3642C131.606 73.2781 131.541 73.2079 131.477 73.1536C131.677 73.0494 131.86 72.909 132.028 72.7323C132.2 72.5511 132.349 72.345 132.476 72.114C132.603 71.8829 132.694 71.6361 132.748 71.3733V71.285ZM135.017 70.9588L135.493 71.3529C135.312 71.5115 135.126 71.6723 134.936 71.8354C134.746 71.9939 134.569 72.1276 134.406 72.2363L134.053 71.9237C134.157 71.8376 134.268 71.7402 134.385 71.6315C134.503 71.5183 134.619 71.4028 134.732 71.285C134.845 71.1672 134.94 71.0585 135.017 70.9588ZM134.019 70.9181C134.109 71.2306 134.231 71.5319 134.385 71.8218C134.539 72.1117 134.721 72.3722 134.929 72.6032C135.137 72.8297 135.368 73.0086 135.622 73.14C135.581 73.1808 135.534 73.2306 135.479 73.2895C135.425 73.3484 135.373 73.4095 135.323 73.4729C135.278 73.5364 135.237 73.5975 135.201 73.6564C134.938 73.4843 134.703 73.2646 134.494 72.9973C134.286 72.73 134.105 72.4288 133.951 72.0936C133.797 71.7538 133.67 71.3982 133.57 71.0268L134.019 70.9181ZM130.859 70.3541L131.335 70.225C131.389 70.379 131.441 70.5444 131.491 70.721C131.545 70.8977 131.591 71.0698 131.627 71.2374C131.668 71.4005 131.697 71.5432 131.715 71.6655L131.205 71.8218C131.187 71.6949 131.16 71.5477 131.124 71.3801C131.092 71.2125 131.051 71.0381 131.002 70.8569C130.956 70.6757 130.909 70.5081 130.859 70.3541ZM130.254 72.114L130.723 72.0324C130.764 72.2635 130.798 72.5149 130.825 72.7867C130.857 73.0539 130.875 73.2872 130.879 73.4865L130.39 73.5749C130.39 73.3755 130.377 73.14 130.349 72.8682C130.322 72.5964 130.29 72.345 130.254 72.114ZM129.561 72.046L130.071 72.1276C130.039 72.4311 129.994 72.7368 129.935 73.0449C129.876 73.3529 129.81 73.6156 129.738 73.8331C129.702 73.8104 129.654 73.7878 129.595 73.7651C129.536 73.7425 129.475 73.7221 129.412 73.704C129.348 73.6858 129.296 73.67 129.255 73.6564C129.337 73.448 129.4 73.1989 129.446 72.909C129.495 72.6145 129.534 72.3269 129.561 72.046ZM129.439 70.2318C129.43 70.191 129.412 70.1367 129.384 70.0687C129.362 69.9962 129.337 69.9238 129.31 69.8513C129.287 69.7743 129.264 69.7109 129.242 69.661C129.301 69.6474 129.36 69.6089 129.418 69.5455C129.482 69.4776 129.545 69.3915 129.609 69.2873C129.659 69.2239 129.731 69.1061 129.826 68.934C129.926 68.7573 130.03 68.5535 130.139 68.3224C130.252 68.0869 130.349 67.8468 130.431 67.6022L131.022 67.8468C130.913 68.0914 130.793 68.3383 130.662 68.5874C130.531 68.8366 130.392 69.0744 130.247 69.3009C130.102 69.5229 129.958 69.7244 129.813 69.9056V69.9192C129.813 69.9192 129.794 69.9306 129.758 69.9532C129.722 69.9759 129.677 70.003 129.622 70.0347C129.572 70.0664 129.529 70.1004 129.493 70.1367C129.457 70.1684 129.439 70.2001 129.439 70.2318ZM129.439 70.2318L129.425 69.7765L129.704 69.5999L130.886 69.5047C130.873 69.5817 130.859 69.6701 130.845 69.7697C130.836 69.8694 130.83 69.9509 130.825 70.0144C130.562 70.0461 130.347 70.0732 130.179 70.0959C130.012 70.114 129.878 70.1321 129.779 70.1503C129.683 70.1638 129.611 70.1774 129.561 70.191C129.511 70.2046 129.471 70.2182 129.439 70.2318ZM129.486 71.7878C129.477 71.7425 129.459 71.6836 129.432 71.6111C129.409 71.5387 129.384 71.4639 129.357 71.3869C129.33 71.3099 129.305 71.2442 129.283 71.1899C129.364 71.1717 129.443 71.1242 129.52 71.0472C129.602 70.9656 129.695 70.8614 129.799 70.7346C129.858 70.6757 129.939 70.5761 130.044 70.4356C130.148 70.2907 130.266 70.1208 130.397 69.926C130.528 69.7312 130.66 69.5206 130.791 69.2941C130.927 69.0676 131.047 68.8388 131.151 68.6078L131.708 68.9408C131.541 69.2443 131.355 69.5478 131.151 69.8513C130.952 70.1548 130.743 70.4424 130.526 70.7142C130.313 70.986 130.096 71.2329 129.874 71.4549V71.4752C129.874 71.4752 129.853 71.4866 129.813 71.5092C129.776 71.5273 129.731 71.5523 129.677 71.584C129.627 71.6157 129.582 71.6496 129.541 71.6859C129.505 71.7221 129.486 71.7561 129.486 71.7878ZM129.486 71.7878L129.466 71.319L129.745 71.1287L131.389 70.9249C131.375 71.0019 131.364 71.0902 131.355 71.1899C131.35 71.2895 131.35 71.3711 131.355 71.4345C130.984 71.4888 130.682 71.5364 130.451 71.5772C130.225 71.6134 130.046 71.6429 129.914 71.6655C129.788 71.6882 129.693 71.7085 129.629 71.7267C129.57 71.7448 129.523 71.7652 129.486 71.7878ZM130.913 71.9849L131.341 71.849C131.405 72.012 131.466 72.191 131.525 72.3858C131.584 72.576 131.627 72.7414 131.654 72.8818L131.199 73.0313C131.176 72.8908 131.138 72.7232 131.083 72.5285C131.029 72.3291 130.972 72.1479 130.913 71.9849Z" fill="#43B71B"/>
</g>
<defs>
<clipPath id="clip0_152_5919">
<rect width="200" height="200" fill="white" transform="translate(0.114868 0.154297)"/>
</clipPath>
</defs>
</svg>
