<svg width="201" height="200" viewBox="0 0 201 200" fill="none" xmlns="http://www.w3.org/2000/svg">
<g clip-path="url(#clip0_154_6242)">
<path d="M101.154 35.5469L22.1537 35.5469" stroke="#222222" stroke-width="0.679485" stroke-linecap="round"/>
<path d="M63.6537 87.5156H22.1537" stroke="#222222" stroke-width="0.679485" stroke-linecap="round"/>
<path d="M63.6537 50.0938L63.6537 38.3838" stroke="#222222" stroke-width="0.679485" stroke-linecap="round" stroke-dasharray="1.36 1.36"/>
<path d="M101.154 50.0938L101.154 38.3838" stroke="#222222" stroke-width="0.679485" stroke-linecap="round" stroke-dasharray="1.36 1.36"/>
<path d="M22.1537 50.0938L22.1537 38.3838" stroke="#222222" stroke-width="0.679485" stroke-linecap="round" stroke-dasharray="1.36 1.36"/>
<path d="M22.1537 102.527L22.1537 90.8173" stroke="#222222" stroke-width="0.679485" stroke-linecap="round" stroke-dasharray="1.36 1.36"/>
<path d="M63.6537 102.527L63.6537 90.8173" stroke="#222222" stroke-width="0.679485" stroke-linecap="round" stroke-dasharray="1.36 1.36"/>
<path d="M22.1537 32.707L22.1537 20.9932" stroke="#222222" stroke-width="0.679485" stroke-linecap="round"/>
<path d="M22.1537 84.082L22.1537 72.3682" stroke="#222222" stroke-width="0.679485" stroke-linecap="round"/>
<rect x="0.493429" y="0.339743" width="43.3205" height="15.4743" rx="7.73717" stroke="#424242" stroke-width="0.679485"/>
<path d="M9.36201 8.24951H13.7379V8.87464H9.36201V8.24951ZM9.56586 10.784L13.5816 10.784V11.3955L9.56586 11.3955L9.56586 10.784ZM11.2374 6.35375L11.8897 6.35375V11.0082H11.2374V6.35375ZM8.36317 7.25067L8.9883 6.62554L8.99509 6.63234L8.99509 11.6333H8.36317L8.36317 7.25067ZM9.06983 5.38209L9.70176 5.57914C9.54321 5.97777 9.35522 6.37187 9.13778 6.76144C8.92035 7.15101 8.68479 7.51567 8.43112 7.85541C8.17744 8.19515 7.91697 8.49639 7.64971 8.75913C7.62706 8.70477 7.59309 8.63682 7.54779 8.55528C7.50249 8.46921 7.45266 8.38315 7.3983 8.29708C7.34847 8.21101 7.30317 8.14306 7.2624 8.09323C7.50249 7.8758 7.73351 7.62439 7.95548 7.339C8.18197 7.04909 8.39035 6.73879 8.58061 6.40811C8.77086 6.0729 8.93394 5.73089 9.06983 5.38209ZM9.7765 5.98003L13.4593 5.98003V6.58478L9.7765 6.58478V5.98003ZM15.0085 5.66747H17.2848V6.21106H15.0085V5.66747ZM17.6721 9.14643H20.5395V9.69002H17.6721V9.14643ZM14.9202 7.72631H17.4683V8.29708L14.9202 8.29708V7.72631ZM16.0821 7.95734H16.6869V10.9335C16.6869 11.083 16.6687 11.203 16.6325 11.2936C16.6008 11.3887 16.5328 11.4635 16.4287 11.5178C16.3335 11.5631 16.2112 11.5903 16.0617 11.5994C15.9168 11.613 15.7401 11.6198 15.5317 11.6198C15.5181 11.5337 15.4932 11.4318 15.457 11.314C15.4208 11.2007 15.3823 11.1011 15.3415 11.015C15.4819 11.0195 15.611 11.0241 15.7288 11.0286C15.8466 11.0286 15.9281 11.0263 15.9734 11.0218C16.0142 11.0173 16.0414 11.0105 16.0549 11.0014C16.0731 10.9878 16.0821 10.9607 16.0821 10.9199V7.95734ZM20.3289 9.14643L20.9812 9.14643C20.9812 9.14643 20.9789 9.18041 20.9744 9.24836C20.9699 9.31178 20.9654 9.36613 20.9608 9.41143C20.9201 9.81912 20.877 10.1566 20.8317 10.4239C20.791 10.6866 20.7457 10.8927 20.6958 11.0422C20.646 11.1917 20.5871 11.3027 20.5192 11.3751C20.4512 11.4431 20.381 11.4907 20.3085 11.5178C20.236 11.545 20.1522 11.5654 20.0571 11.579C19.9756 11.5881 19.8669 11.5926 19.731 11.5926C19.5996 11.5926 19.4546 11.5903 19.2961 11.5858C19.2916 11.4952 19.2734 11.3933 19.2417 11.28C19.21 11.1668 19.1715 11.0694 19.1262 10.9878C19.2621 11.0014 19.3867 11.0105 19.4999 11.015C19.6177 11.0195 19.7038 11.0218 19.7581 11.0218C19.8125 11.0218 19.8555 11.0173 19.8872 11.0082C19.9235 10.9992 19.9575 10.9788 19.9892 10.9471C20.0345 10.9018 20.0775 10.818 20.1183 10.6957C20.159 10.5688 20.1953 10.3876 20.227 10.1521C20.2632 9.91652 20.2972 9.61301 20.3289 9.24156V9.14643ZM18.8476 8.50092H19.4931C19.4614 8.84973 19.4116 9.18041 19.3436 9.49297C19.2757 9.80553 19.1715 10.0977 19.0311 10.3695C18.8907 10.6368 18.6959 10.8791 18.4467 11.0966C18.2021 11.314 17.8828 11.4997 17.4887 11.6537C17.4524 11.5767 17.3981 11.4884 17.3256 11.3887C17.2531 11.2891 17.1829 11.2098 17.1149 11.1509C17.4683 11.0241 17.7514 10.8678 17.9643 10.6821C18.1817 10.4963 18.3493 10.2902 18.4671 10.0637C18.5894 9.83724 18.6778 9.59263 18.7321 9.3299C18.7865 9.06716 18.825 8.79084 18.8476 8.50092ZM15.2124 6.92452L15.6133 6.51003C15.8035 6.58251 16.0006 6.67084 16.2044 6.77503C16.4128 6.87469 16.6099 6.98114 16.7956 7.09439C16.9858 7.20311 17.1421 7.30729 17.2644 7.40695L16.8363 7.869C16.7231 7.76934 16.5736 7.66289 16.3879 7.54964C16.2067 7.43187 16.0119 7.31862 15.8035 7.2099C15.5997 7.09665 15.4026 7.00153 15.2124 6.92452ZM17.3052 7.72631H17.3935L17.4819 7.69913L17.876 7.82823C17.8125 8.12721 17.7333 8.43297 17.6381 8.74554C17.5475 9.05357 17.4524 9.31857 17.3528 9.54054L16.9111 9.3231C16.9881 9.13284 17.0628 8.89955 17.1353 8.62323C17.2078 8.34238 17.2644 8.07738 17.3052 7.82823V7.72631ZM20.0231 6.30619L20.6958 6.40811C20.5418 6.82486 20.3289 7.18046 20.0571 7.4749C19.7898 7.76934 19.475 8.01622 19.1126 8.21554C18.7502 8.41486 18.3493 8.5802 17.9099 8.71156C17.8873 8.66626 17.851 8.60964 17.8012 8.54169C17.7559 8.47374 17.7061 8.40806 17.6517 8.34464C17.6019 8.27669 17.5543 8.22233 17.509 8.18157C17.9303 8.08191 18.3086 7.95281 18.6438 7.79426C18.9835 7.63118 19.2712 7.42734 19.5067 7.18272C19.7423 6.93358 19.9144 6.6414 20.0231 6.30619ZM18.6166 5.33452L19.2213 5.50439C19.1126 5.74448 18.9835 5.97777 18.834 6.20426C18.6845 6.43076 18.5237 6.64366 18.3516 6.84298C18.184 7.03777 18.0141 7.2099 17.842 7.35939C17.8012 7.32315 17.7491 7.28238 17.6857 7.23708C17.6223 7.18725 17.5566 7.14195 17.4887 7.10118C17.4252 7.05588 17.3663 7.01965 17.312 6.99247C17.5793 6.79315 17.8284 6.54854 18.0594 6.25862C18.295 5.96418 18.4807 5.65615 18.6166 5.33452ZM18.5894 6.46247C18.748 6.74332 18.9586 6.99926 19.2213 7.23029C19.4841 7.45678 19.7876 7.65157 20.1319 7.81464C20.4807 7.97772 20.8544 8.10229 21.253 8.18836C21.2077 8.22913 21.1579 8.28122 21.1035 8.34464C21.0537 8.40806 21.0061 8.47374 20.9608 8.54169C20.9155 8.60964 20.877 8.67306 20.8453 8.73195C20.4286 8.62323 20.0435 8.47148 19.6902 8.27669C19.3369 8.07738 19.022 7.83956 18.7457 7.56323C18.4694 7.28691 18.2384 6.97888 18.0526 6.63913L18.5894 6.46247ZM16.0074 7.91657L16.4355 8.07964C16.3494 8.37862 16.2407 8.68665 16.1093 9.00374C15.9779 9.31631 15.8307 9.60848 15.6676 9.88028C15.5091 10.1475 15.3347 10.3695 15.1444 10.5462C15.1173 10.4556 15.072 10.3537 15.0085 10.2404C14.9451 10.1226 14.8862 10.0207 14.8319 9.93464C14.9995 9.78515 15.158 9.60169 15.3075 9.38425C15.457 9.16229 15.5929 8.92447 15.7152 8.67079C15.8375 8.41712 15.9349 8.16571 16.0074 7.91657ZM18.5215 6.04119H21.0967V6.58478H18.2633L18.5215 6.04119ZM17.1285 5.66747H17.2712L17.3731 5.64029L17.7808 5.8985C17.6812 6.05704 17.5589 6.22012 17.4139 6.38772C17.269 6.55533 17.1149 6.71161 16.9519 6.85657C16.7888 7.00153 16.6257 7.12836 16.4626 7.23708C16.4083 7.18725 16.3381 7.13289 16.252 7.074C16.1705 7.01512 16.098 6.96529 16.0346 6.92452C16.1795 6.82486 16.3222 6.70935 16.4626 6.57798C16.6031 6.44661 16.7322 6.31072 16.8499 6.17029C16.9677 6.02986 17.0606 5.90076 17.1285 5.78298V5.66747ZM22.2722 8.88143C22.5304 8.7999 22.843 8.69344 23.2099 8.56208C23.5814 8.43071 23.9574 8.29481 24.3379 8.15439L24.4466 8.73195C24.1023 8.86332 23.7535 8.99695 23.4002 9.13284C23.0468 9.26421 22.7252 9.38652 22.4353 9.49977L22.2722 8.88143ZM22.3538 6.67311H24.3854V7.27106H22.3538V6.67311ZM23.1624 5.34811H23.7603V10.9403C23.7603 11.0988 23.7422 11.2234 23.7059 11.314C23.6697 11.4046 23.604 11.4771 23.5089 11.5314C23.4183 11.5813 23.3005 11.613 23.1556 11.6266C23.0151 11.6447 22.8339 11.6537 22.612 11.6537C22.6074 11.5722 22.5871 11.4725 22.5508 11.3548C22.5191 11.2415 22.4829 11.1419 22.4421 11.0558C22.578 11.0603 22.7026 11.0626 22.8158 11.0626C22.9291 11.0626 23.0061 11.0603 23.0468 11.0558C23.0876 11.0558 23.1171 11.049 23.1352 11.0354C23.1533 11.0173 23.1624 10.9856 23.1624 10.9403V5.34811ZM25.4658 5.40247L26.0638 5.40247V8.39221C26.0638 8.73195 26.0456 9.0581 26.0094 9.37066C25.9732 9.6787 25.9007 9.97088 25.792 10.2472C25.6878 10.519 25.5315 10.7727 25.3231 11.0082C25.1147 11.2392 24.8362 11.4454 24.4874 11.6266C24.4556 11.5813 24.4126 11.5292 24.3582 11.4703C24.3084 11.4114 24.2541 11.3548 24.1952 11.3004C24.1408 11.2506 24.0887 11.2075 24.0389 11.1713C24.356 11.0128 24.6074 10.8338 24.7931 10.6345C24.9834 10.4352 25.1261 10.2178 25.2212 9.9822C25.3209 9.74665 25.3865 9.49524 25.4182 9.22797C25.45 8.96071 25.4658 8.67985 25.4658 8.38541V5.40247ZM26.6413 5.40247H27.2529V10.6549C27.2529 10.7998 27.2642 10.8927 27.2868 10.9335C27.3095 10.9742 27.3616 10.9946 27.4431 10.9946C27.4612 10.9946 27.4929 10.9946 27.5382 10.9946C27.5835 10.9946 27.6334 10.9946 27.6877 10.9946C27.7466 10.9946 27.7987 10.9946 27.844 10.9946C27.8938 10.9946 27.9301 10.9946 27.9527 10.9946C28.0071 10.9946 28.0456 10.9697 28.0682 10.9199C28.0954 10.8655 28.1158 10.7704 28.1294 10.6345C28.143 10.4941 28.152 10.3016 28.1566 10.0569C28.229 10.1158 28.3174 10.1702 28.4216 10.22C28.5258 10.2698 28.6209 10.3038 28.707 10.3219C28.6888 10.63 28.6549 10.8769 28.605 11.0626C28.5597 11.2438 28.4895 11.3751 28.3944 11.4567C28.2993 11.5382 28.1679 11.579 28.0003 11.579C27.9731 11.579 27.9278 11.579 27.8644 11.579C27.8055 11.579 27.7398 11.579 27.6673 11.579C27.5994 11.579 27.5337 11.579 27.4703 11.579C27.4114 11.579 27.3684 11.579 27.3412 11.579C27.16 11.579 27.0173 11.5518 26.9131 11.4975C26.8135 11.4431 26.7432 11.348 26.7025 11.2121C26.6617 11.0762 26.6413 10.8882 26.6413 10.6481V5.40247ZM24.3582 6.44888L24.8407 6.18388C24.9403 6.32884 25.0355 6.48512 25.1261 6.65272C25.2212 6.82033 25.305 6.98567 25.3775 7.14875C25.4545 7.30729 25.5111 7.45225 25.5473 7.58362L25.0377 7.8758C25.0015 7.74443 24.9471 7.59721 24.8747 7.43413C24.8067 7.26653 24.7274 7.09665 24.6368 6.92452C24.5462 6.75238 24.4534 6.59383 24.3582 6.44888ZM27.0218 8.664L27.4159 8.27669C27.5699 8.40353 27.7285 8.54169 27.8916 8.69118C28.0546 8.84067 28.2064 8.98789 28.3468 9.13284C28.4918 9.2778 28.6096 9.40464 28.7002 9.51336L28.2789 9.96861C28.1928 9.85083 28.0796 9.7172 27.9391 9.56771C27.7987 9.4137 27.647 9.25742 27.4839 9.09887C27.3253 8.93579 27.1713 8.79084 27.0218 8.664ZM24.1136 9.4522C24.2858 9.35254 24.4919 9.22344 24.732 9.0649C24.9766 8.90182 25.2257 8.73421 25.4794 8.56208L25.6832 9.05131C25.4794 9.21438 25.2688 9.37746 25.0513 9.54054C24.8384 9.70361 24.6391 9.85536 24.4534 9.99579L24.1136 9.4522ZM27.9799 6.10914L28.5575 6.40811C28.4669 6.57119 28.3695 6.74332 28.2653 6.92452C28.1656 7.10118 28.066 7.27106 27.9663 7.43413C27.8712 7.59721 27.7783 7.74216 27.6877 7.869L27.2461 7.61759C27.3276 7.4817 27.4137 7.32768 27.5043 7.15554C27.5994 6.98341 27.6877 6.80448 27.7693 6.61875C27.8553 6.43302 27.9255 6.26315 27.9799 6.10914ZM30.494 5.95965V6.51683H30.9968V5.95965H30.494ZM30.0184 5.53837H31.486V6.9449H30.0184V5.53837ZM32.2471 5.95965V6.51683H32.7703V5.95965L32.2471 5.95965ZM31.7714 5.53837L33.2527 5.53837V6.9449H31.7714V5.53837ZM33.2731 7.35939L36.093 7.01965L36.1677 7.6108L33.3478 7.96413L33.2731 7.35939ZM34.8087 5.70824L35.298 5.45003C35.3976 5.56328 35.495 5.68785 35.5901 5.82375C35.6898 5.95965 35.7804 6.09328 35.8619 6.22465C35.9435 6.35602 36.0069 6.47606 36.0522 6.58478L35.5358 6.88375C35.495 6.77503 35.4361 6.65272 35.3591 6.51683C35.2821 6.3764 35.1938 6.23597 35.0941 6.09555C34.999 5.95512 34.9039 5.82602 34.8087 5.70824ZM30.6231 8.67759V9.16002H32.6344V8.67759H30.6231ZM30.6231 7.74669V8.21554H32.6344V7.74669H30.6231ZM30.0863 7.25747H33.1984V9.64246H30.0863V7.25747ZM29.8077 10.0637H33.4022V10.6345H29.8077V10.0637ZM31.3434 7.42734H31.8937V9.43861H31.9277V11.6537H31.3094V9.43861H31.3434V7.42734ZM33.871 5.38209H34.4758C34.4894 5.9755 34.5143 6.54401 34.5505 7.08759C34.5868 7.63118 34.6343 8.134 34.6932 8.59605C34.7566 9.05357 34.8291 9.45447 34.9107 9.79874C34.9922 10.1385 35.0828 10.4057 35.1824 10.6005C35.2866 10.7908 35.3976 10.8904 35.5154 10.8995C35.5788 10.904 35.6309 10.8202 35.6717 10.6481C35.717 10.476 35.7509 10.2268 35.7736 9.90066C35.8098 9.94596 35.8574 9.99353 35.9163 10.0434C35.9797 10.0887 36.0409 10.1317 36.0998 10.1725C36.1632 10.2087 36.213 10.2381 36.2492 10.2608C36.1994 10.6322 36.1337 10.9199 36.0522 11.1237C35.9752 11.3276 35.8891 11.468 35.794 11.545C35.7034 11.6266 35.6105 11.6651 35.5154 11.6605C35.2798 11.6515 35.0737 11.5428 34.8971 11.3344C34.7249 11.1305 34.5777 10.8429 34.4554 10.4714C34.3331 10.0954 34.2312 9.64925 34.1496 9.13284C34.0726 8.61644 34.0115 8.0434 33.9662 7.41375C33.9254 6.77956 33.8937 6.10234 33.871 5.38209ZM35.4542 7.90298L35.9503 8.18157C35.7962 8.64815 35.5879 9.10114 35.3251 9.54054C35.0669 9.97541 34.768 10.3718 34.4282 10.7296C34.093 11.083 33.7261 11.3684 33.3275 11.5858C33.2731 11.5133 33.2029 11.434 33.1168 11.348C33.0307 11.2619 32.9447 11.1894 32.8586 11.1305C33.2618 10.9403 33.6332 10.6798 33.973 10.3491C34.3127 10.0139 34.6071 9.63566 34.8563 9.21438C35.11 8.7931 35.3093 8.35597 35.4542 7.90298Z" fill="#424242"/>
<rect x="0.493429" y="53.7186" width="43.3205" height="15.4705" stroke="#43B71B" stroke-width="0.679485"/>
<path d="M11.217 59.058H13.0312V59.6424H11.217V59.058ZM11.217 60.5869H13.0312V61.1576H11.217V60.5869ZM11.1898 62.1157H13.0312V62.7001H11.1898V62.1157ZM12.7391 59.058H13.3574V64.2153C13.3574 64.3829 13.337 64.5165 13.2962 64.6162C13.2555 64.7159 13.1807 64.7951 13.072 64.854C12.9678 64.9039 12.8274 64.9356 12.6507 64.9491C12.4786 64.9627 12.2611 64.9695 11.9984 64.9695C11.9939 64.9106 11.9803 64.8427 11.9576 64.7657C11.9395 64.6887 11.9169 64.6117 11.8897 64.5347C11.8625 64.4577 11.8353 64.392 11.8082 64.3376C11.9803 64.3421 12.1411 64.3467 12.2906 64.3512C12.4446 64.3512 12.5465 64.3489 12.5964 64.3444C12.6507 64.3444 12.687 64.3353 12.7051 64.3172C12.7277 64.2946 12.7391 64.2583 12.7391 64.2085V59.058ZM10.918 59.058H11.5296V61.3819C11.5296 61.6536 11.5182 61.9526 11.4956 62.2788C11.4775 62.6004 11.439 62.9265 11.3801 63.2572C11.3212 63.5834 11.2374 63.9005 11.1287 64.2085C11.02 64.5165 10.8727 64.7974 10.687 65.0511C10.6508 65.0148 10.6009 64.9741 10.5375 64.9288C10.4741 64.8835 10.4084 64.8404 10.3405 64.7997C10.2725 64.7634 10.2136 64.734 10.1638 64.7113C10.3359 64.4758 10.4718 64.2198 10.5715 63.9435C10.6712 63.6627 10.7459 63.375 10.7957 63.0806C10.8456 62.7816 10.8773 62.4871 10.8909 62.1972C10.909 61.9073 10.918 61.6355 10.918 61.3819V59.058ZM8.21368 59.058H9.97355V59.6424H8.21368V59.058ZM8.21368 60.5869H9.97355V61.1576H8.21368V60.5869ZM8.20009 62.1157H9.96675V62.7001H8.20009V62.1157ZM9.63381 59.058H10.2318V64.2017C10.2318 64.3557 10.2136 64.478 10.1774 64.5686C10.1412 64.6592 10.0732 64.7317 9.97355 64.7861C9.87842 64.8359 9.75385 64.8676 9.59983 64.8812C9.44582 64.8948 9.26009 64.8993 9.04266 64.8948C9.0336 64.8133 9.01095 64.7159 8.97471 64.6026C8.93847 64.4894 8.89996 64.3942 8.85919 64.3172C8.99962 64.3218 9.13099 64.324 9.2533 64.324C9.38013 64.324 9.4662 64.324 9.5115 64.324C9.5568 64.324 9.58851 64.315 9.60663 64.2968C9.62475 64.2787 9.63381 64.247 9.63381 64.2017V59.058ZM7.95548 59.058H8.55343V61.4906C8.55343 61.7578 8.54437 62.0477 8.52625 62.3603C8.50813 62.6683 8.47415 62.9832 8.42432 63.3048C8.37902 63.6219 8.30881 63.9299 8.21368 64.2289C8.12309 64.5233 7.99851 64.7929 7.83997 65.0375C7.80373 65.0012 7.7539 64.9627 7.69048 64.922C7.62706 64.8812 7.56138 64.8404 7.49343 64.7997C7.43001 64.7634 7.37339 64.734 7.32356 64.7113C7.46851 64.4848 7.58403 64.238 7.6701 63.9707C7.75616 63.6989 7.81958 63.4203 7.86035 63.1349C7.90112 62.8495 7.92603 62.5687 7.93509 62.2924C7.94868 62.0115 7.95548 61.7465 7.95548 61.4974L7.95548 59.058ZM17.3188 61.5517C17.6132 62.3173 18.0775 62.9447 18.7117 63.4339C19.3504 63.9186 20.1658 64.2493 21.1579 64.4259C21.108 64.4712 21.056 64.5279 21.0016 64.5958C20.9518 64.6683 20.9019 64.7408 20.8521 64.8133C20.8068 64.8857 20.7706 64.9514 20.7434 65.0103C20.0639 64.8653 19.4682 64.6479 18.9563 64.358C18.4445 64.0636 18.0073 63.6966 17.6449 63.2572C17.2871 62.8178 16.9926 62.3037 16.7616 61.7148L17.3188 61.5517ZM19.6426 61.2392H19.7649L19.8804 61.2052L20.3221 61.4022C20.1817 61.9141 19.9892 62.3671 19.7445 62.7612C19.5045 63.1508 19.2213 63.4928 18.8952 63.7872C18.569 64.0771 18.2112 64.3218 17.8216 64.5211C17.432 64.7249 17.0198 64.8925 16.5849 65.0239C16.5442 64.9378 16.4875 64.8404 16.4151 64.7317C16.3471 64.6275 16.2814 64.5415 16.218 64.4735C16.6166 64.3739 16.9972 64.2357 17.3596 64.059C17.7219 63.8778 18.0526 63.6581 18.3516 63.3999C18.6551 63.1417 18.9156 62.8427 19.133 62.503C19.355 62.1633 19.5248 61.7805 19.6426 61.3547V61.2392ZM15.0833 59.7987H20.9812V60.4238H15.0833V59.7987ZM16.9519 61.2392H19.7106V61.8575H16.7684L16.9519 61.2392ZM16.8499 58.7115H17.5158C17.5068 58.8428 17.4954 59.0195 17.4819 59.2415C17.4683 59.4634 17.4456 59.7194 17.4139 60.0093C17.3822 60.2992 17.3346 60.6095 17.2712 60.9402C17.2123 61.2709 17.1331 61.6106 17.0334 61.9594C16.9337 62.3082 16.8092 62.6525 16.6597 62.9922C16.5102 63.3274 16.3313 63.6491 16.1229 63.9571C15.919 64.2651 15.6744 64.5437 15.389 64.7929C15.3256 64.7113 15.2441 64.6298 15.1444 64.5483C15.0448 64.4712 14.9406 64.4033 14.8319 64.3444C15.1127 64.1179 15.3551 63.862 15.5589 63.5766C15.7628 63.2912 15.9349 62.9877 16.0753 62.6661C16.2203 62.3445 16.3381 62.0206 16.4287 61.6944C16.5238 61.3637 16.5985 61.0444 16.6529 60.7363C16.7072 60.4238 16.7458 60.1339 16.7684 59.8666C16.7956 59.5948 16.8137 59.3615 16.8228 59.1667C16.8363 58.9674 16.8454 58.8157 16.8499 58.7115ZM22.2722 62.2584C22.5304 62.1768 22.843 62.0704 23.2099 61.939C23.5814 61.8077 23.9574 61.6718 24.3379 61.5313L24.4466 62.1089C24.1023 62.2403 23.7535 62.3739 23.4002 62.5098C23.0468 62.6412 22.7252 62.7635 22.4353 62.8767L22.2722 62.2584ZM22.3538 60.0501H24.3854V60.648H22.3538V60.0501ZM23.1624 58.7251H23.7603V64.3172C23.7603 64.4758 23.7422 64.6003 23.7059 64.6909C23.6697 64.7815 23.604 64.854 23.5089 64.9084C23.4183 64.9582 23.3005 64.9899 23.1556 65.0035C23.0151 65.0216 22.8339 65.0307 22.612 65.0307C22.6074 64.9491 22.5871 64.8495 22.5508 64.7317C22.5191 64.6185 22.4829 64.5188 22.4421 64.4327C22.578 64.4373 22.7026 64.4395 22.8158 64.4395C22.9291 64.4395 23.0061 64.4373 23.0468 64.4327C23.0876 64.4327 23.1171 64.4259 23.1352 64.4124C23.1533 64.3942 23.1624 64.3625 23.1624 64.3172V58.7251ZM25.4658 58.7794H26.0638V61.7692C26.0638 62.1089 26.0456 62.4351 26.0094 62.7476C25.9732 63.0557 25.9007 63.3478 25.792 63.6242C25.6878 63.8959 25.5315 64.1496 25.3231 64.3852C25.1147 64.6162 24.8362 64.8223 24.4874 65.0035C24.4556 64.9582 24.4126 64.9061 24.3582 64.8472C24.3084 64.7883 24.2541 64.7317 24.1952 64.6774C24.1408 64.6275 24.0887 64.5845 24.0389 64.5483C24.356 64.3897 24.6074 64.2108 24.7931 64.0115C24.9834 63.8121 25.1261 63.5947 25.2212 63.3592C25.3209 63.1236 25.3865 62.8722 25.4182 62.6049C25.45 62.3377 25.4658 62.0568 25.4658 61.7624V58.7794ZM26.6413 58.7794H27.2529V64.0318C27.2529 64.1768 27.2642 64.2697 27.2868 64.3104C27.3095 64.3512 27.3616 64.3716 27.4431 64.3716C27.4612 64.3716 27.4929 64.3716 27.5382 64.3716C27.5835 64.3716 27.6334 64.3716 27.6877 64.3716C27.7466 64.3716 27.7987 64.3716 27.844 64.3716C27.8938 64.3716 27.9301 64.3716 27.9527 64.3716C28.0071 64.3716 28.0456 64.3467 28.0682 64.2968C28.0954 64.2425 28.1158 64.1474 28.1294 64.0115C28.143 63.871 28.152 63.6785 28.1566 63.4339C28.229 63.4928 28.3174 63.5471 28.4216 63.597C28.5258 63.6468 28.6209 63.6808 28.707 63.6989C28.6888 64.0069 28.6549 64.2538 28.605 64.4395C28.5597 64.6207 28.4895 64.7521 28.3944 64.8336C28.2993 64.9152 28.1679 64.9559 28.0003 64.9559C27.9731 64.9559 27.9278 64.9559 27.8644 64.9559C27.8055 64.9559 27.7398 64.9559 27.6673 64.9559C27.5994 64.9559 27.5337 64.9559 27.4703 64.9559C27.4114 64.9559 27.3684 64.9559 27.3412 64.9559C27.16 64.9559 27.0173 64.9288 26.9131 64.8744C26.8135 64.82 26.7432 64.7249 26.7025 64.589C26.6617 64.4531 26.6413 64.2651 26.6413 64.025V58.7794ZM24.3582 59.8258L24.8407 59.5608C24.9403 59.7058 25.0355 59.8621 25.1261 60.0297C25.2212 60.1973 25.305 60.3626 25.3775 60.5257C25.4545 60.6842 25.5111 60.8292 25.5473 60.9606L25.0377 61.2528C25.0015 61.1214 24.9471 60.9742 24.8747 60.8111C24.8067 60.6435 24.7274 60.4736 24.6368 60.3015C24.5462 60.1293 24.4534 59.9708 24.3582 59.8258ZM27.0218 62.041L27.4159 61.6536C27.5699 61.7805 27.7285 61.9186 27.8916 62.0681C28.0546 62.2176 28.2064 62.3648 28.3468 62.5098C28.4918 62.6548 28.6096 62.7816 28.7002 62.8903L28.2789 63.3456C28.1928 63.2278 28.0796 63.0942 27.9391 62.9447C27.7987 62.7907 27.647 62.6344 27.4839 62.4758C27.3253 62.3127 27.1713 62.1678 27.0218 62.041ZM24.1136 62.8292C24.2858 62.7295 24.4919 62.6004 24.732 62.4418C24.9766 62.2788 25.2257 62.1112 25.4794 61.939L25.6832 62.4283C25.4794 62.5913 25.2688 62.7544 25.0513 62.9175C24.8384 63.0806 24.6391 63.2323 24.4534 63.3727L24.1136 62.8292ZM27.9799 59.4861L28.5575 59.7851C28.4669 59.9481 28.3695 60.1203 28.2653 60.3015C28.1656 60.4781 28.066 60.648 27.9663 60.8111C27.8712 60.9742 27.7783 61.1191 27.6877 61.246L27.2461 60.9945C27.3276 60.8586 27.4137 60.7046 27.5043 60.5325C27.5994 60.3604 27.6877 60.1814 27.7693 59.9957C27.8553 59.81 27.9255 59.6401 27.9799 59.4861ZM30.494 59.3366V59.8938L30.9968 59.8938V59.3366H30.494ZM30.0184 58.9153H31.486V60.3219L30.0184 60.3219V58.9153ZM32.2471 59.3366V59.8938H32.7703V59.3366H32.2471ZM31.7714 58.9153H33.2527V60.3219H31.7714V58.9153ZM33.2731 60.7363L36.093 60.3966L36.1677 60.9878L33.3478 61.3411L33.2731 60.7363ZM34.8087 59.0852L35.298 58.827C35.3976 58.9402 35.495 59.0648 35.5901 59.2007C35.6898 59.3366 35.7804 59.4702 35.8619 59.6016C35.9435 59.733 36.0069 59.853 36.0522 59.9617L35.5358 60.2607C35.495 60.152 35.4361 60.0297 35.3591 59.8938C35.2821 59.7534 35.1938 59.6129 35.0941 59.4725C34.999 59.3321 34.9039 59.203 34.8087 59.0852ZM30.6231 62.0545V62.537L32.6344 62.537V62.0545L30.6231 62.0545ZM30.6231 61.1236V61.5925L32.6344 61.5925V61.1236L30.6231 61.1236ZM30.0863 60.6344L33.1984 60.6344V63.0194H30.0863V60.6344ZM29.8077 63.4407H33.4022V64.0115H29.8077V63.4407ZM31.3434 60.8043H31.8937V62.8156H31.9277V65.0307H31.3094V62.8156H31.3434V60.8043ZM33.871 58.759H34.4758C34.4894 59.3525 34.5143 59.921 34.5505 60.4645C34.5868 61.0081 34.6343 61.511 34.6932 61.973C34.7566 62.4305 34.8291 62.8314 34.9107 63.1757C34.9922 63.5154 35.0828 63.7827 35.1824 63.9775C35.2866 64.1677 35.3976 64.2674 35.5154 64.2765C35.5788 64.281 35.6309 64.1972 35.6717 64.025C35.717 63.8529 35.7509 63.6038 35.7736 63.2776C35.8098 63.3229 35.8574 63.3705 35.9163 63.4203C35.9797 63.4656 36.0409 63.5086 36.0998 63.5494C36.1632 63.5856 36.213 63.6151 36.2492 63.6377C36.1994 64.0092 36.1337 64.2968 36.0522 64.5007C35.9752 64.7045 35.8891 64.845 35.794 64.922C35.7034 65.0035 35.6105 65.042 35.5154 65.0375C35.2798 65.0284 35.0737 64.9197 34.8971 64.7113C34.7249 64.5075 34.5777 64.2198 34.4554 63.8484C34.3331 63.4724 34.2312 63.0262 34.1496 62.5098C34.0726 61.9934 34.0115 61.4204 33.9662 60.7907C33.9254 60.1565 33.8937 59.4793 33.871 58.759ZM35.4542 61.2799L35.9503 61.5585C35.7962 62.0251 35.5879 62.4781 35.3251 62.9175C35.0669 63.3524 34.768 63.7487 34.4282 64.1066C34.093 64.4599 33.7261 64.7453 33.3275 64.9627C33.2731 64.8903 33.2029 64.811 33.1168 64.7249C33.0307 64.6389 32.9447 64.5664 32.8586 64.5075C33.2618 64.3172 33.6332 64.0568 33.973 63.7261C34.3127 63.3909 34.6071 63.0126 34.8563 62.5913C35.11 62.1701 35.3093 61.7329 35.4542 61.2799Z" fill="#43B71B"/>
<rect x="49.4934" y="53.7186" width="28.3205" height="15.4705" stroke="#424242" stroke-width="0.679485"/>
<path d="M57.3496 61.2663H58.9803V61.8575H57.3496V61.2663ZM58.7357 61.2663H59.3609C59.3609 61.2663 59.3609 61.2822 59.3609 61.3139C59.3609 61.3456 59.3586 61.3819 59.3541 61.4226C59.3541 61.4634 59.3541 61.4974 59.3541 61.5245C59.345 62.0183 59.3337 62.4215 59.3201 62.734C59.3065 63.0466 59.2861 63.2867 59.2589 63.4543C59.2318 63.6174 59.1933 63.7306 59.1434 63.794C59.0845 63.8665 59.0211 63.9186 58.9532 63.9503C58.8852 63.982 58.8014 64.0047 58.7018 64.0183C58.6157 64.0318 58.5002 64.0386 58.3552 64.0386C58.2103 64.0386 58.0562 64.0364 57.8932 64.0318C57.8886 63.9367 57.8705 63.8325 57.8388 63.7193C57.8071 63.606 57.7663 63.5086 57.7165 63.4271C57.8569 63.4407 57.9883 63.4498 58.1106 63.4543C58.2329 63.4588 58.3235 63.4611 58.3824 63.4611C58.4277 63.4611 58.4662 63.4565 58.4979 63.4475C58.5341 63.4339 58.5659 63.4135 58.593 63.3863C58.6247 63.3456 58.6497 63.2572 58.6678 63.1213C58.6859 62.9809 58.6995 62.7703 58.7086 62.4894C58.7221 62.2086 58.7312 61.8348 58.7357 61.3683V61.2663ZM60.6994 59.092L61.0935 58.7047C61.2294 58.7726 61.3721 58.8519 61.5216 58.9425C61.6711 59.0286 61.8115 59.1169 61.9429 59.2075C62.0743 59.2981 62.183 59.3819 62.2691 59.4589L61.8614 59.8938C61.7798 59.8168 61.6734 59.7307 61.542 59.6356C61.4152 59.5404 61.277 59.4453 61.1275 59.3502C60.9826 59.2551 60.8399 59.169 60.6994 59.092ZM61.6032 60.8994L62.2487 61.0557C61.9633 61.939 61.5692 62.7136 61.0664 63.3795C60.5681 64.0454 59.9769 64.5845 59.2929 64.9967C59.2657 64.9469 59.2227 64.888 59.1638 64.82C59.1049 64.7566 59.046 64.6909 58.9871 64.623C58.9283 64.5596 58.8739 64.5075 58.8241 64.4667C59.499 64.1043 60.0698 63.6196 60.5364 63.0126C61.0029 62.4056 61.3585 61.7012 61.6032 60.8994ZM57.3903 59.8122H62.6428V60.4442H57.3903V59.8122ZM56.9623 59.8122H57.635V61.7624C57.635 62.0115 57.6259 62.281 57.6078 62.571C57.5897 62.8609 57.5557 63.1576 57.5059 63.4611C57.456 63.7601 57.3836 64.05 57.2884 64.3308C57.1933 64.6117 57.0665 64.8631 56.9079 65.085C56.8762 65.0443 56.8241 64.9944 56.7516 64.9356C56.6837 64.8767 56.6135 64.82 56.541 64.7657C56.473 64.7159 56.4142 64.6774 56.3643 64.6502C56.5501 64.3784 56.6837 64.0749 56.7652 63.7397C56.8513 63.3999 56.9057 63.0579 56.9283 62.7136C56.9509 62.3694 56.9623 62.05 56.9623 61.7556V59.8122ZM59.7618 58.7251H60.4344C60.4299 59.323 60.4503 59.8983 60.4956 60.451C60.5409 60.9991 60.6066 61.5087 60.6926 61.9798C60.7787 62.4509 60.8806 62.8609 60.9984 63.2097C61.1162 63.5585 61.2476 63.8303 61.3925 64.025C61.542 64.2198 61.6938 64.3172 61.8478 64.3172C61.9384 64.3172 62.0063 64.2221 62.0516 64.0318C62.0969 63.8416 62.1286 63.5268 62.1467 63.0874C62.2238 63.1598 62.3144 63.2301 62.4185 63.298C62.5227 63.3659 62.6179 63.4158 62.7039 63.4475C62.6677 63.8506 62.6156 64.1632 62.5476 64.3852C62.4797 64.6071 62.3846 64.7612 62.2623 64.8472C62.1445 64.9333 61.9905 64.9763 61.8002 64.9763C61.5647 64.9763 61.3495 64.8971 61.1547 64.7385C60.9644 64.58 60.7923 64.3557 60.6383 64.0658C60.4888 63.7759 60.3597 63.4362 60.251 63.0466C60.1468 62.657 60.0585 62.2289 59.986 61.7624C59.9135 61.2958 59.8591 60.8066 59.8229 60.2947C59.7867 59.7783 59.7663 59.2551 59.7618 58.7251ZM64.8647 61.0625V61.776H66.2305V61.0625H64.8647ZM64.3075 60.5529H66.8216V62.2856H64.3075V60.5529ZM63.9678 59.5269H67.0798V60.0908H63.9678V59.5269ZM67.1546 60.4645H70.1375V61.0489H67.1546V60.4645ZM68.5067 61.5042H69.0639V64.1202C69.0639 64.1836 69.0662 64.2357 69.0707 64.2765C69.0798 64.3172 69.0911 64.3444 69.1047 64.358C69.1273 64.3716 69.1477 64.3806 69.1658 64.3852C69.1885 64.3897 69.2157 64.392 69.2474 64.392C69.2745 64.392 69.3108 64.392 69.3561 64.392C69.4059 64.392 69.4489 64.392 69.4852 64.392C69.5169 64.392 69.5486 64.3897 69.5803 64.3852C69.612 64.3806 69.6347 64.3739 69.6483 64.3648C69.689 64.3467 69.7185 64.281 69.7366 64.1677C69.7457 64.1089 69.7524 64.0137 69.757 63.8824C69.7615 63.751 69.7638 63.597 69.7638 63.4203C69.8227 63.4747 69.8997 63.5268 69.9948 63.5766C70.0899 63.6264 70.1805 63.6649 70.2666 63.6921C70.2621 63.8506 70.2507 64.0092 70.2326 64.1677C70.219 64.3263 70.2032 64.4418 70.1851 64.5143C70.1352 64.6547 70.0537 64.7521 69.9404 64.8065C69.8906 64.8336 69.8272 64.8518 69.7502 64.8608C69.6777 64.8744 69.6098 64.8812 69.5463 64.8812C69.5146 64.8812 69.4693 64.8812 69.4104 64.8812C69.3561 64.8812 69.3017 64.8812 69.2474 64.8812C69.193 64.8812 69.1477 64.8812 69.1115 64.8812C69.039 64.8812 68.962 64.8699 68.8804 64.8472C68.7989 64.8246 68.7287 64.7906 68.6698 64.7453C68.6154 64.6955 68.5747 64.6275 68.5475 64.5415C68.5203 64.4554 68.5067 64.2991 68.5067 64.0726V61.5042ZM68.0651 58.7319H68.6766C68.6721 59.1622 68.6607 59.6107 68.6426 60.0772C68.629 60.5393 68.5951 61.0013 68.5407 61.4634C68.4909 61.9254 68.4071 62.3739 68.2893 62.8088C68.1715 63.2436 68.013 63.6513 67.8137 64.0318C67.6143 64.4078 67.3584 64.743 67.0458 65.0375C66.996 64.9695 66.9281 64.8971 66.842 64.82C66.7559 64.7476 66.6721 64.6887 66.5906 64.6434C66.8896 64.3761 67.1319 64.0658 67.3176 63.7125C67.5034 63.3592 67.6483 62.9786 67.7525 62.571C67.8567 62.1633 67.9292 61.742 67.9699 61.3071C68.0152 60.8677 68.0424 60.4306 68.0515 59.9957C68.0605 59.5608 68.0651 59.1396 68.0651 58.7319ZM65.3064 62.1293H65.8839V64.3784C65.8839 64.5097 65.8681 64.6162 65.8363 64.6977C65.8092 64.7793 65.7503 64.8427 65.6597 64.888C65.5691 64.9333 65.4604 64.9605 65.3335 64.9695C65.2067 64.9786 65.0527 64.9831 64.8715 64.9831C64.8624 64.9061 64.8398 64.8155 64.8035 64.7113C64.7673 64.6117 64.7288 64.5233 64.688 64.4463C64.8058 64.4509 64.9145 64.4531 65.0142 64.4531C65.1138 64.4531 65.1818 64.4531 65.218 64.4531C65.2769 64.4531 65.3064 64.4237 65.3064 64.3648V62.1293ZM64.5114 62.571L65.0346 62.6797C64.9621 63.0013 64.8647 63.3184 64.7424 63.6309C64.6246 63.9435 64.4932 64.2062 64.3483 64.4192C64.3166 64.392 64.2735 64.358 64.2192 64.3172C64.1648 64.2765 64.1082 64.238 64.0493 64.2017C63.9949 64.1609 63.9451 64.1292 63.8998 64.1066C64.0402 63.9163 64.1603 63.6853 64.2599 63.4135C64.3641 63.1372 64.4479 62.8563 64.5114 62.571ZM66.081 62.6933L66.5362 62.4894C66.6449 62.6751 66.7469 62.8812 66.842 63.1077C66.9416 63.3342 67.0096 63.529 67.0458 63.6921L66.5634 63.9163C66.5272 63.7487 66.4637 63.5517 66.3731 63.3252C66.2871 63.0942 66.1897 62.8835 66.081 62.6933ZM68.8329 59.2415L69.261 58.9969C69.3969 59.1463 69.5327 59.3185 69.6686 59.5133C69.8091 59.7035 69.911 59.8689 69.9744 60.0093L69.5192 60.2947C69.4829 60.195 69.4263 60.084 69.3493 59.9617C69.2768 59.8394 69.1953 59.7148 69.1047 59.588C69.0186 59.4612 68.928 59.3457 68.8329 59.2415ZM65.0685 58.8338L65.6597 58.7047C65.7322 58.8496 65.8046 59.0104 65.8771 59.1871C65.9496 59.3593 66.0017 59.5065 66.0334 59.6288L65.4151 59.7851C65.3879 59.6628 65.3403 59.511 65.2724 59.3298C65.209 59.1486 65.141 58.9833 65.0685 58.8338Z" fill="#424242"/>
<rect x="83.4934" y="53.7186" width="35.3205" height="15.4705" stroke="#424242" stroke-width="0.679485"/>
<path d="M93.653 58.7115H94.2374V61.5925C94.2374 61.9322 94.2215 62.2629 94.1898 62.5845C94.1626 62.9062 94.1015 63.2142 94.0064 63.5086C93.9112 63.7986 93.7731 64.0726 93.5919 64.3308C93.4152 64.5845 93.1729 64.8178 92.8648 65.0307C92.8331 64.9854 92.7878 64.9356 92.7289 64.8812C92.6746 64.8268 92.6202 64.7747 92.5659 64.7249C92.5115 64.6751 92.4594 64.6343 92.4096 64.6026C92.6859 64.4169 92.9079 64.2108 93.0755 63.9843C93.2431 63.7578 93.3677 63.5177 93.4492 63.264C93.5307 63.0104 93.5851 62.7431 93.6123 62.4622C93.6394 62.1814 93.653 61.8915 93.653 61.5925V58.7115ZM94.8421 58.7115H95.4469V65.0171H94.8421V58.7115ZM92.5862 59.853H93.9112V60.4374H92.5862V59.853ZM95.1615 59.853H96.5884V60.4374H95.1615V59.853ZM95.1955 61.2867H96.5137V61.8507H95.1955V61.2867ZM95.1547 62.7544H96.7039V63.3456H95.1547V62.7544ZM92.6406 61.2867H93.9316V61.8507H92.6406V61.2867ZM92.2397 63.0466C92.4345 62.9968 92.661 62.9311 92.9192 62.8495C93.1819 62.768 93.4515 62.6842 93.7278 62.5981L93.8229 63.1009C93.5919 63.187 93.3609 63.2731 93.1298 63.3592C92.9033 63.4452 92.6882 63.5268 92.4843 63.6038L92.2397 63.0466ZM90.3236 62.1972C90.5908 62.1248 90.9124 62.0364 91.2884 61.9322C91.6644 61.8235 92.0449 61.7103 92.43 61.5925L92.5115 62.1768C92.1627 62.2901 91.8094 62.4033 91.4515 62.5166C91.0936 62.6253 90.7675 62.725 90.473 62.8156L90.3236 62.1972ZM90.4255 60.0501H92.4911V60.648H90.4255V60.0501ZM91.2137 58.7251H91.8116V64.3172C91.8116 64.4758 91.7935 64.6003 91.7573 64.6909C91.721 64.7815 91.6553 64.854 91.5602 64.9084C91.4696 64.9582 91.3518 64.9899 91.2069 65.0035C91.0665 65.0216 90.8853 65.0307 90.6633 65.0307C90.6588 64.9491 90.6384 64.8495 90.6021 64.7317C90.5704 64.6185 90.5342 64.5188 90.4934 64.4327C90.6293 64.4373 90.7539 64.4395 90.8671 64.4395C90.9804 64.4395 91.0574 64.4373 91.0982 64.4327C91.1389 64.4327 91.1684 64.4259 91.1865 64.4124C91.2046 64.3942 91.2137 64.3625 91.2137 64.3172V58.7251ZM100.618 59.1192H103.947V59.7307H100.618V59.1192ZM102.493 61.1848H103.145V64.2425C103.145 64.4282 103.121 64.5709 103.071 64.6706C103.025 64.7747 102.937 64.8518 102.806 64.9016C102.679 64.9514 102.509 64.9809 102.296 64.9899C102.088 64.999 101.823 65.0035 101.501 65.0035C101.487 64.9129 101.46 64.8065 101.42 64.6841C101.383 64.5618 101.343 64.4554 101.297 64.3648C101.447 64.3693 101.592 64.3739 101.732 64.3784C101.873 64.3784 101.995 64.3784 102.099 64.3784C102.203 64.3784 102.276 64.3761 102.316 64.3716C102.384 64.3716 102.43 64.3625 102.452 64.3444C102.48 64.3218 102.493 64.2855 102.493 64.2357V61.1848ZM100.326 60.9945H104.137V61.6061H100.326V60.9945ZM98.8919 61.6401L99.4558 61.0761L99.5374 61.1101V65.0375H98.8919V61.6401ZM99.6733 60.1792L100.278 60.4102C100.106 60.7046 99.9043 60.9968 99.6733 61.2867C99.4422 61.5766 99.2022 61.8507 98.953 62.1089C98.7039 62.3671 98.457 62.5936 98.2124 62.7884C98.1852 62.7431 98.1444 62.6865 98.0901 62.6185C98.0357 62.546 97.9791 62.4758 97.9202 62.4079C97.8658 62.3354 97.816 62.2788 97.7707 62.238C98.0017 62.0749 98.2328 61.8824 98.4638 61.6604C98.6993 61.4385 98.9213 61.2007 99.1297 60.947C99.3381 60.6933 99.5193 60.4374 99.6733 60.1792ZM99.4015 58.7115L100.02 58.9697C99.8658 59.1735 99.6869 59.3819 99.483 59.5948C99.2792 59.8032 99.0685 60.0048 98.8511 60.1995C98.6337 60.3898 98.4185 60.5597 98.2056 60.7092C98.1784 60.6593 98.1422 60.6027 98.0969 60.5393C98.0561 60.4713 98.0131 60.4057 97.9678 60.3422C97.9225 60.2788 97.8794 60.2267 97.8387 60.186C98.0289 60.0591 98.2214 59.9119 98.4162 59.7443C98.6155 59.5767 98.8013 59.4023 98.9734 59.2211C99.1455 59.0399 99.2882 58.87 99.4015 58.7115ZM107.712 59.3366H111.435V59.8598H107.712V59.3366ZM107.712 61.9798H111.442V62.5166H107.712V61.9798ZM108.344 59.9685L108.907 59.8734C108.957 59.9957 109.005 60.1316 109.05 60.2811C109.1 60.426 109.134 60.5484 109.152 60.648L108.554 60.7771C108.541 60.6729 108.513 60.5438 108.473 60.3898C108.432 60.2358 108.389 60.0954 108.344 59.9685ZM110.287 59.8394L110.919 59.9481C110.851 60.1203 110.781 60.2901 110.708 60.4578C110.64 60.6254 110.574 60.7703 110.511 60.8926L109.961 60.7907C110.001 60.7001 110.042 60.6004 110.083 60.4917C110.124 60.3785 110.162 60.2652 110.198 60.152C110.235 60.0387 110.264 59.9345 110.287 59.8394ZM107.61 60.6412H111.564V61.7624H110.96V61.1508H108.194V61.776H107.61V60.6412ZM108.833 63.0738H110.749V63.6038H108.833V63.0738ZM110.538 63.0738H111.163C111.163 63.0738 111.161 63.1032 111.157 63.1621C111.157 63.221 111.154 63.2708 111.15 63.3116C111.127 63.6196 111.1 63.8733 111.068 64.0726C111.041 64.2719 111.007 64.4305 110.966 64.5483C110.93 64.666 110.885 64.7544 110.83 64.8133C110.772 64.8721 110.706 64.9152 110.633 64.9424C110.561 64.9695 110.479 64.9877 110.389 64.9967C110.307 65.0058 110.194 65.0103 110.049 65.0103C109.909 65.0103 109.757 65.0058 109.594 64.9967C109.589 64.9152 109.571 64.8223 109.539 64.7181C109.512 64.6185 109.478 64.5324 109.437 64.4599C109.578 64.4735 109.709 64.4803 109.832 64.4803C109.954 64.4848 110.042 64.4871 110.097 64.4871C110.155 64.4871 110.198 64.4826 110.226 64.4735C110.257 64.469 110.287 64.4531 110.314 64.4259C110.35 64.3942 110.38 64.3331 110.402 64.2425C110.43 64.1474 110.454 64.0137 110.477 63.8416C110.5 63.6649 110.52 63.4362 110.538 63.1553V63.0738ZM108.71 62.1565H109.329C109.311 62.5007 109.277 62.8201 109.227 63.1145C109.177 63.409 109.095 63.6762 108.982 63.9163C108.874 64.1564 108.719 64.3693 108.52 64.555C108.321 64.7453 108.063 64.9061 107.746 65.0375C107.714 64.965 107.662 64.8812 107.589 64.7861C107.517 64.6909 107.447 64.6162 107.379 64.5618C107.659 64.4531 107.884 64.3218 108.051 64.1677C108.219 64.0092 108.348 63.8303 108.439 63.6309C108.529 63.4316 108.593 63.2097 108.629 62.9651C108.67 62.7159 108.697 62.4464 108.71 62.1565ZM109.186 58.7522L109.777 58.6775C109.832 58.8179 109.877 58.9697 109.913 59.1328C109.954 59.2958 109.981 59.4363 109.995 59.554L109.37 59.6492C109.356 59.5359 109.331 59.3955 109.295 59.2279C109.263 59.0557 109.227 58.8972 109.186 58.7522ZM109.179 61.3886L109.784 61.2935C109.834 61.4158 109.879 61.5472 109.92 61.6876C109.961 61.828 109.986 61.9481 109.995 62.0477L109.363 62.1565C109.354 62.0568 109.331 61.9345 109.295 61.7895C109.259 61.6446 109.22 61.511 109.179 61.3886ZM105.395 60.0093H107.467V60.6072H105.395V60.0093ZM106.244 58.7183H106.787V65.0171H106.244V58.7183ZM106.217 60.4238L106.563 60.5597C106.518 60.836 106.459 61.1236 106.387 61.4226C106.319 61.7171 106.242 62.007 106.156 62.2924C106.069 62.5732 105.977 62.836 105.877 63.0806C105.777 63.3252 105.673 63.5358 105.564 63.7125C105.542 63.6491 105.512 63.5789 105.476 63.5018C105.444 63.4203 105.408 63.3433 105.367 63.2708C105.327 63.1938 105.288 63.1281 105.252 63.0738C105.356 62.9243 105.458 62.7476 105.558 62.5438C105.657 62.3354 105.748 62.1112 105.829 61.8711C105.915 61.631 105.99 61.3864 106.054 61.1372C106.122 60.8881 106.176 60.6503 106.217 60.4238ZM106.774 60.8111C106.806 60.8609 106.855 60.9447 106.923 61.0625C106.996 61.1803 107.073 61.3094 107.154 61.4498C107.236 61.5902 107.308 61.7216 107.372 61.8439C107.44 61.9617 107.487 62.0455 107.515 62.0953L107.154 62.537C107.123 62.4464 107.077 62.3331 107.019 62.1972C106.964 62.0613 106.903 61.9186 106.835 61.7692C106.772 61.6197 106.708 61.4815 106.645 61.3547C106.586 61.2278 106.536 61.1259 106.495 61.0489L106.774 60.8111Z" fill="#424242"/>
<rect x="0.493429" y="106.168" width="43.3205" height="15.4705" stroke="#424242" stroke-width="0.679485" stroke-dasharray="1.36 1.36"/>
<path d="M10.8297 113.199H12.2226V113.702H10.8297V113.199ZM10.3201 115.176H12.6167V115.625H10.3201V115.176ZM8.07099 111.432H9.95996V111.942H8.07099V111.432ZM9.78329 111.432H9.89201L10.0007 111.405L10.4016 111.602C10.234 111.992 10.0075 112.336 9.72214 112.635C9.43676 112.934 9.1174 113.192 8.76407 113.41C8.41073 113.623 8.04608 113.797 7.6701 113.933C7.62933 113.861 7.57497 113.777 7.50702 113.682C7.4436 113.586 7.38245 113.512 7.32356 113.457C7.58176 113.38 7.83544 113.281 8.08458 113.158C8.33373 113.032 8.56928 112.887 8.79125 112.724C9.01321 112.556 9.21026 112.372 9.3824 112.173C9.55453 111.969 9.68817 111.756 9.78329 111.534V111.432ZM11.02 111.188C11.1785 111.532 11.3914 111.847 11.6587 112.132C11.9259 112.418 12.2362 112.667 12.5896 112.88C12.9429 113.088 13.3279 113.247 13.7447 113.355C13.6813 113.414 13.6111 113.494 13.5341 113.593C13.4616 113.693 13.4027 113.781 13.3574 113.858C12.9225 113.722 12.5216 113.534 12.1547 113.294C11.7923 113.054 11.4707 112.771 11.1898 112.445C10.9135 112.114 10.6847 111.747 10.5035 111.344L11.02 111.188ZM12.243 111.208L12.7187 111.541C12.5556 111.686 12.3812 111.831 12.1955 111.976C12.0097 112.121 11.8399 112.246 11.6859 112.35L11.3121 112.058C11.4118 111.985 11.5182 111.899 11.6315 111.799C11.7493 111.7 11.8625 111.6 11.9712 111.5C12.08 111.396 12.1706 111.299 12.243 111.208ZM13.0856 111.895L13.5544 112.221C13.3959 112.37 13.2215 112.517 13.0312 112.662C12.841 112.803 12.6643 112.923 12.5012 113.022L12.1139 112.73C12.2181 112.658 12.3291 112.574 12.4469 112.479C12.5692 112.379 12.687 112.28 12.8002 112.18C12.9135 112.076 13.0086 111.981 13.0856 111.895ZM8.36317 113.233H10.0143V114.83H9.44355V113.729H8.36317V113.233ZM8.15253 114.341H8.67573C8.64402 114.603 8.60552 114.88 8.56022 115.17C8.51945 115.46 8.47868 115.706 8.43791 115.91H7.90112C7.93283 115.77 7.96227 115.611 7.98945 115.435C8.02116 115.253 8.05061 115.068 8.07779 114.877C8.1095 114.687 8.13441 114.508 8.15253 114.341ZM9.43676 115.435L10.0211 115.435C10.0211 115.435 10.0188 115.464 10.0143 115.523C10.0143 115.582 10.0121 115.629 10.0075 115.666C9.98487 115.978 9.9577 116.239 9.92599 116.447C9.89428 116.651 9.85804 116.812 9.81727 116.93C9.78103 117.052 9.73346 117.142 9.67458 117.201C9.60663 117.265 9.53415 117.31 9.45714 117.337C9.38466 117.369 9.2918 117.387 9.17855 117.392C9.08795 117.401 8.96112 117.405 8.79804 117.405C8.63496 117.405 8.46056 117.401 8.27484 117.392C8.27031 117.306 8.24992 117.21 8.21368 117.106C8.18197 117.007 8.1412 116.918 8.09138 116.841C8.26804 116.859 8.43565 116.871 8.59419 116.875C8.75727 116.88 8.87278 116.882 8.94073 116.882C8.99962 116.882 9.04945 116.88 9.09022 116.875C9.13099 116.866 9.16496 116.848 9.19214 116.821C9.2465 116.771 9.29406 116.646 9.33483 116.447C9.3756 116.248 9.40958 115.935 9.43676 115.509V115.435ZM10.5919 113.199H11.1355V113.722C11.1355 113.881 11.1151 114.044 11.0743 114.212C11.0335 114.375 10.9588 114.533 10.8501 114.687C10.7459 114.837 10.5919 114.973 10.388 115.095C10.3654 115.059 10.3269 115.016 10.2725 114.966C10.2227 114.911 10.1706 114.859 10.1162 114.81C10.0664 114.76 10.0211 114.721 9.98034 114.694C10.1615 114.594 10.2952 114.49 10.3812 114.381C10.4673 114.273 10.5239 114.162 10.5511 114.049C10.5783 113.931 10.5919 113.817 10.5919 113.709V113.199ZM12.4808 115.176H12.5964L12.6983 115.163L13.0584 115.292C12.9044 115.704 12.6892 116.055 12.4129 116.345C12.1366 116.631 11.815 116.864 11.448 117.045C11.0811 117.231 10.6825 117.376 10.2521 117.48C10.225 117.412 10.1842 117.33 10.1298 117.235C10.08 117.14 10.0279 117.065 9.97355 117.011C10.3541 116.934 10.7119 116.821 11.0471 116.671C11.3823 116.517 11.6745 116.323 11.9237 116.087C12.1773 115.851 12.3631 115.575 12.4808 115.258V115.176ZM8.38355 114.341H9.6474V114.83H8.29522L8.38355 114.341ZM8.1865 115.435H9.59983V115.91H8.09817L8.1865 115.435ZM7.86715 112.357L8.23407 112.01C8.38355 112.092 8.5421 112.191 8.70971 112.309C8.87731 112.422 9.00642 112.524 9.09701 112.615L8.70971 112.995C8.62364 112.9 8.49907 112.794 8.33599 112.676C8.17744 112.554 8.02116 112.447 7.86715 112.357ZM11.9373 113.206H12.4673V114.252C12.4673 114.334 12.4741 114.391 12.4876 114.422C12.5012 114.449 12.5307 114.463 12.576 114.463C12.6032 114.463 12.6462 114.463 12.7051 114.463C12.764 114.463 12.8229 114.463 12.8817 114.463C12.9406 114.463 12.9837 114.463 13.0108 114.463C13.0561 114.463 13.1128 114.461 13.1807 114.456C13.2487 114.452 13.303 114.445 13.3438 114.436C13.3483 114.499 13.3529 114.574 13.3574 114.66C13.3664 114.742 13.3755 114.814 13.3846 114.877C13.3438 114.891 13.2894 114.9 13.2215 114.905C13.1535 114.909 13.0856 114.911 13.0176 114.911C12.995 114.911 12.9588 114.911 12.9089 114.911C12.8636 114.911 12.8138 114.911 12.7594 114.911C12.7096 114.911 12.662 114.911 12.6167 114.911C12.5714 114.911 12.5375 114.911 12.5148 114.911C12.3563 114.911 12.234 114.889 12.1479 114.844C12.0664 114.798 12.0097 114.728 11.978 114.633C11.9509 114.533 11.9373 114.404 11.9373 114.246V113.206ZM10.2725 115.958L10.5783 115.598C10.7821 115.706 10.9996 115.824 11.2306 115.951C11.4616 116.078 11.6926 116.209 11.9237 116.345C12.1547 116.477 12.3721 116.606 12.576 116.732C12.7798 116.855 12.9542 116.966 13.0992 117.065L12.7662 117.487C12.6303 117.387 12.4627 117.272 12.2634 117.14C12.0641 117.013 11.8489 116.882 11.6179 116.746C11.3914 116.606 11.1604 116.47 10.9248 116.338C10.6938 116.202 10.4764 116.076 10.2725 115.958ZM18.2972 111.568H18.9156V115.265C18.9156 115.41 18.936 115.505 18.9767 115.55C19.022 115.591 19.1194 115.611 19.2689 115.611C19.3051 115.611 19.3686 115.611 19.4592 115.611C19.5498 115.611 19.6494 115.611 19.7581 115.611C19.8714 115.611 19.9756 115.611 20.0707 115.611C20.1658 115.611 20.236 115.611 20.2813 115.611C20.3629 115.611 20.424 115.591 20.4648 115.55C20.5101 115.505 20.5418 115.428 20.5599 115.319C20.5826 115.206 20.5984 115.041 20.6075 114.823C20.68 114.873 20.7706 114.923 20.8793 114.973C20.988 115.018 21.0854 115.052 21.1715 115.075C21.1488 115.355 21.108 115.577 21.0492 115.74C20.9948 115.904 20.911 116.019 20.7977 116.087C20.6845 116.155 20.5282 116.189 20.3289 116.189C20.2972 116.189 20.2406 116.189 20.159 116.189C20.082 116.189 19.996 116.189 19.9008 116.189C19.8057 116.189 19.7083 116.189 19.6086 116.189C19.5135 116.189 19.4275 116.189 19.3504 116.189C19.2734 116.189 19.2191 116.189 19.1874 116.189C18.9609 116.189 18.7819 116.164 18.6506 116.114C18.5237 116.06 18.4331 115.967 18.3788 115.836C18.3244 115.704 18.2972 115.514 18.2972 115.265V111.568ZM18.5487 111.568H20.8317V114.028H18.5487V113.457H20.1998V112.139H18.5487V111.568ZM15.1173 111.895H17.876V112.459H15.1173V111.895ZM14.9338 113.22H18.0458V113.79H14.9338V113.22ZM16.6461 114.68H17.9779V115.244H16.6461V114.68ZM16.2044 111.181H16.8024V113.525H16.2044V111.181ZM16.3403 113.6H16.9315V116.671H16.3403V113.6ZM15.7288 115.007C15.8194 115.36 15.9372 115.648 16.0821 115.87C16.2271 116.091 16.4037 116.261 16.6121 116.379C16.825 116.497 17.0764 116.578 17.3663 116.624C17.6563 116.665 17.9915 116.685 18.372 116.685C18.4399 116.685 18.5464 116.687 18.6913 116.692C18.8363 116.692 19.0016 116.692 19.1874 116.692C19.3731 116.687 19.5679 116.685 19.7717 116.685C19.9801 116.685 20.1794 116.685 20.3697 116.685C20.5645 116.68 20.7389 116.678 20.8929 116.678C21.0469 116.674 21.1669 116.669 21.253 116.665C21.2213 116.71 21.1873 116.771 21.1511 116.848C21.1194 116.925 21.0899 117.002 21.0627 117.079C21.0356 117.161 21.0152 117.235 21.0016 117.303H20.5056H18.3788C17.9213 117.303 17.5226 117.274 17.1829 117.215C16.8431 117.161 16.5487 117.056 16.2996 116.902C16.0549 116.748 15.8488 116.531 15.6812 116.25C15.5136 115.965 15.3732 115.598 15.2599 115.149L15.7288 115.007ZM15.2396 114.266L15.8307 114.314C15.8217 114.744 15.799 115.158 15.7628 115.557C15.7311 115.951 15.679 116.318 15.6065 116.658C15.5385 116.993 15.4411 117.29 15.3143 117.548C15.2781 117.516 15.226 117.482 15.158 117.446C15.0901 117.41 15.0199 117.373 14.9474 117.337C14.8794 117.306 14.8205 117.278 14.7707 117.256C14.8976 117.029 14.9927 116.76 15.0561 116.447C15.1195 116.13 15.1648 115.788 15.192 115.421C15.2192 115.05 15.235 114.665 15.2396 114.266ZM22.2722 114.708C22.5304 114.626 22.843 114.52 23.2099 114.388C23.5814 114.257 23.9574 114.121 24.3379 113.981L24.4466 114.558C24.1023 114.689 23.7535 114.823 23.4002 114.959C23.0468 115.09 22.7252 115.213 22.4353 115.326L22.2722 114.708ZM22.3538 112.499H24.3854V113.097H22.3538V112.499ZM23.1624 111.174H23.7603V116.766C23.7603 116.925 23.7422 117.05 23.7059 117.14C23.6697 117.231 23.604 117.303 23.5089 117.358C23.4183 117.407 23.3005 117.439 23.1556 117.453C23.0151 117.471 22.8339 117.48 22.612 117.48C22.6074 117.398 22.5871 117.299 22.5508 117.181C22.5191 117.068 22.4829 116.968 22.4421 116.882C22.578 116.886 22.7026 116.889 22.8158 116.889C22.9291 116.889 23.0061 116.886 23.0468 116.882C23.0876 116.882 23.1171 116.875 23.1352 116.862C23.1533 116.843 23.1624 116.812 23.1624 116.766V111.174ZM25.4658 111.229H26.0638V114.218C26.0638 114.558 26.0456 114.884 26.0094 115.197C25.9732 115.505 25.9007 115.797 25.792 116.073C25.6878 116.345 25.5315 116.599 25.3231 116.834C25.1147 117.065 24.8362 117.272 24.4874 117.453C24.4556 117.407 24.4126 117.355 24.3582 117.296C24.3084 117.238 24.2541 117.181 24.1952 117.127C24.1408 117.077 24.0887 117.034 24.0389 116.997C24.356 116.839 24.6074 116.66 24.7931 116.461C24.9834 116.261 25.1261 116.044 25.2212 115.808C25.3209 115.573 25.3865 115.321 25.4182 115.054C25.45 114.787 25.4658 114.506 25.4658 114.212V111.229ZM26.6413 111.229H27.2529V116.481C27.2529 116.626 27.2642 116.719 27.2868 116.76C27.3095 116.8 27.3616 116.821 27.4431 116.821C27.4612 116.821 27.4929 116.821 27.5382 116.821C27.5835 116.821 27.6334 116.821 27.6877 116.821C27.7466 116.821 27.7987 116.821 27.844 116.821C27.8938 116.821 27.9301 116.821 27.9527 116.821C28.0071 116.821 28.0456 116.796 28.0682 116.746C28.0954 116.692 28.1158 116.597 28.1294 116.461C28.143 116.32 28.152 116.128 28.1566 115.883C28.229 115.942 28.3174 115.996 28.4216 116.046C28.5258 116.096 28.6209 116.13 28.707 116.148C28.6888 116.456 28.6549 116.703 28.605 116.889C28.5597 117.07 28.4895 117.201 28.3944 117.283C28.2993 117.364 28.1679 117.405 28.0003 117.405C27.9731 117.405 27.9278 117.405 27.8644 117.405C27.8055 117.405 27.7398 117.405 27.6673 117.405C27.5994 117.405 27.5337 117.405 27.4703 117.405C27.4114 117.405 27.3684 117.405 27.3412 117.405C27.16 117.405 27.0173 117.378 26.9131 117.324C26.8135 117.269 26.7432 117.174 26.7025 117.038C26.6617 116.902 26.6413 116.714 26.6413 116.474V111.229ZM24.3582 112.275L24.8407 112.01C24.9403 112.155 25.0355 112.311 25.1261 112.479C25.2212 112.647 25.305 112.812 25.3775 112.975C25.4545 113.133 25.5111 113.278 25.5473 113.41L25.0377 113.702C25.0015 113.571 24.9471 113.423 24.8747 113.26C24.8067 113.093 24.7274 112.923 24.6368 112.751C24.5462 112.579 24.4534 112.42 24.3582 112.275ZM27.0218 114.49L27.4159 114.103C27.5699 114.23 27.7285 114.368 27.8916 114.517C28.0546 114.667 28.2064 114.814 28.3468 114.959C28.4918 115.104 28.6096 115.231 28.7002 115.34L28.2789 115.795C28.1928 115.677 28.0796 115.543 27.9391 115.394C27.7987 115.24 27.647 115.084 27.4839 114.925C27.3253 114.762 27.1713 114.617 27.0218 114.49ZM24.1136 115.278C24.2858 115.179 24.4919 115.05 24.732 114.891C24.9766 114.728 25.2257 114.56 25.4794 114.388L25.6832 114.877C25.4794 115.041 25.2688 115.204 25.0513 115.367C24.8384 115.53 24.6391 115.682 24.4534 115.822L24.1136 115.278ZM27.9799 111.935L28.5575 112.234C28.4669 112.397 28.3695 112.569 28.2653 112.751C28.1656 112.927 28.066 113.097 27.9663 113.26C27.8712 113.423 27.7783 113.568 27.6877 113.695L27.2461 113.444C27.3276 113.308 27.4137 113.154 27.5043 112.982C27.5994 112.81 27.6877 112.631 27.7693 112.445C27.8553 112.259 27.9255 112.089 27.9799 111.935ZM30.494 111.786V112.343H30.9968V111.786H30.494ZM30.0184 111.365H31.486V112.771H30.0184V111.365ZM32.2471 111.786V112.343H32.7703V111.786H32.2471ZM31.7714 111.365H33.2527V112.771H31.7714V111.365ZM33.2731 113.186L36.093 112.846L36.1677 113.437L33.3478 113.79L33.2731 113.186ZM34.8087 111.534L35.298 111.276C35.3976 111.389 35.495 111.514 35.5901 111.65C35.6898 111.786 35.7804 111.919 35.8619 112.051C35.9435 112.182 36.0069 112.302 36.0522 112.411L35.5358 112.71C35.495 112.601 35.4361 112.479 35.3591 112.343C35.2821 112.203 35.1938 112.062 35.0941 111.922C34.999 111.781 34.9039 111.652 34.8087 111.534ZM30.6231 114.504V114.986H32.6344V114.504H30.6231ZM30.6231 113.573V114.042H32.6344V113.573H30.6231ZM30.0863 113.084H33.1984V115.469H30.0863V113.084ZM29.8077 115.89H33.4022V116.461H29.8077V115.89ZM31.3434 113.254H31.8937V115.265H31.9277V117.48H31.3094V115.265H31.3434V113.254ZM33.871 111.208H34.4758C34.4894 111.802 34.5143 112.37 34.5505 112.914C34.5868 113.457 34.6343 113.96 34.6932 114.422C34.7566 114.88 34.8291 115.281 34.9107 115.625C34.9922 115.965 35.0828 116.232 35.1824 116.427C35.2866 116.617 35.3976 116.717 35.5154 116.726C35.5788 116.73 35.6309 116.646 35.6717 116.474C35.717 116.302 35.7509 116.053 35.7736 115.727C35.8098 115.772 35.8574 115.82 35.9163 115.87C35.9797 115.915 36.0409 115.958 36.0998 115.999C36.1632 116.035 36.213 116.064 36.2492 116.087C36.1994 116.458 36.1337 116.746 36.0522 116.95C35.9752 117.154 35.8891 117.294 35.794 117.371C35.7034 117.453 35.6105 117.491 35.5154 117.487C35.2798 117.478 35.0737 117.369 34.8971 117.161C34.7249 116.957 34.5777 116.669 34.4554 116.298C34.3331 115.922 34.2312 115.475 34.1496 114.959C34.0726 114.443 34.0115 113.87 33.9662 113.24C33.9254 112.606 33.8937 111.929 33.871 111.208ZM35.4542 113.729L35.9503 114.008C35.7962 114.474 35.5879 114.927 35.3251 115.367C35.0669 115.802 34.768 116.198 34.4282 116.556C34.093 116.909 33.7261 117.195 33.3275 117.412C33.2731 117.339 33.2029 117.26 33.1168 117.174C33.0307 117.088 32.9447 117.016 32.8586 116.957C33.2618 116.766 33.6332 116.506 33.973 116.175C34.3127 115.84 34.6071 115.462 34.8563 115.041C35.11 114.619 35.3093 114.182 35.4542 113.729Z" fill="#424242"/>
<rect x="49.4934" y="106.305" width="28.3205" height="15.4705" stroke="#424242" stroke-width="0.679485" stroke-dasharray="1.36 1.36"/>
<path d="M59.3269 111.651H62.303V114.817H61.6507V112.31H59.3269V111.651ZM59.7957 113.832H61.9633V114.464H59.7957V113.832ZM59.4696 113.832H60.1423V116.577C60.1423 116.713 60.1649 116.801 60.2102 116.842C60.26 116.883 60.371 116.903 60.5432 116.903C60.5749 116.903 60.627 116.903 60.6994 116.903C60.7765 116.903 60.8603 116.903 60.9509 116.903C61.046 116.903 61.1434 116.903 61.243 116.903C61.3427 116.903 61.431 116.903 61.508 116.903C61.5896 116.903 61.6507 116.903 61.6915 116.903C61.8002 116.903 61.8795 116.878 61.9293 116.828C61.9837 116.774 62.0222 116.67 62.0448 116.516C62.0675 116.362 62.0856 116.138 62.0992 115.843C62.149 115.879 62.2102 115.916 62.2826 115.952C62.3551 115.988 62.4276 116.022 62.5001 116.054C62.5771 116.081 62.6473 116.101 62.7107 116.115C62.6881 116.473 62.645 116.754 62.5816 116.958C62.5182 117.157 62.4208 117.297 62.2894 117.379C62.1581 117.46 61.9746 117.501 61.7391 117.501C61.7028 117.501 61.6417 117.501 61.5556 117.501C61.4741 117.501 61.3767 117.501 61.2634 117.501C61.1547 117.501 61.0437 117.501 60.9305 117.501C60.8217 117.501 60.7244 117.501 60.6383 117.501C60.5568 117.501 60.5001 117.501 60.4684 117.501C60.2147 117.501 60.0154 117.474 59.8705 117.42C59.7255 117.37 59.6213 117.277 59.5579 117.141C59.499 117.01 59.4696 116.822 59.4696 116.577V113.832ZM58.2057 114.022L58.6882 113.845C58.7606 113.99 58.8309 114.147 58.8988 114.314C58.9668 114.482 59.0279 114.645 59.0823 114.804C59.1366 114.958 59.1774 115.093 59.2046 115.211L58.6882 115.429C58.661 115.311 58.6225 115.17 58.5727 115.007C58.5228 114.844 58.4662 114.677 58.4028 114.505C58.3394 114.332 58.2737 114.172 58.2057 114.022ZM57.533 115.789L58.0562 115.667C58.1015 115.911 58.1423 116.176 58.1786 116.462C58.2148 116.742 58.2397 116.987 58.2533 117.195L57.7029 117.324C57.7029 117.184 57.6939 117.025 57.6757 116.849C57.6576 116.672 57.635 116.493 57.6078 116.312C57.5851 116.126 57.5602 115.952 57.533 115.789ZM56.7448 115.728L57.2952 115.816C57.259 116.115 57.2069 116.416 57.1389 116.72C57.0755 117.019 57.0053 117.272 56.9283 117.481C56.8875 117.458 56.8354 117.435 56.772 117.413C56.7086 117.39 56.6429 117.367 56.575 117.345C56.507 117.322 56.4504 117.304 56.4051 117.29C56.4912 117.087 56.5614 116.844 56.6157 116.563C56.6701 116.283 56.7131 116.004 56.7448 115.728ZM56.6157 113.913C56.6067 113.873 56.5886 113.818 56.5614 113.75C56.5387 113.678 56.5138 113.605 56.4866 113.533C56.464 113.456 56.4413 113.392 56.4187 113.343C56.4821 113.329 56.5455 113.291 56.6089 113.227C56.6724 113.159 56.7403 113.073 56.8128 112.969C56.849 112.919 56.9034 112.838 56.9759 112.724C57.0483 112.611 57.1299 112.475 57.2205 112.317C57.3111 112.158 57.3994 111.99 57.4855 111.814C57.5761 111.633 57.6576 111.449 57.7301 111.263L58.3144 111.508C58.1333 111.884 57.9249 112.258 57.6893 112.629C57.4583 112.996 57.225 113.315 56.9895 113.587V113.601C56.9895 113.601 56.9713 113.612 56.9351 113.635C56.8989 113.657 56.8536 113.685 56.7992 113.716C56.7494 113.748 56.7063 113.782 56.6701 113.818C56.6339 113.85 56.6157 113.882 56.6157 113.913ZM56.6157 113.913L56.5954 113.445L56.8807 113.261L58.1106 113.166C58.0925 113.248 58.0766 113.34 58.063 113.445C58.054 113.544 58.0494 113.626 58.0494 113.689C57.7731 113.716 57.5466 113.741 57.37 113.764C57.1978 113.787 57.0619 113.807 56.9623 113.825C56.8626 113.839 56.7856 113.855 56.7312 113.873C56.6814 113.886 56.6429 113.9 56.6157 113.913ZM56.6633 115.469C56.6542 115.429 56.6361 115.372 56.6089 115.3C56.5863 115.223 56.5614 115.146 56.5342 115.069C56.507 114.992 56.4798 114.926 56.4527 114.872C56.5387 114.858 56.6225 114.81 56.7041 114.729C56.7901 114.647 56.8898 114.545 57.003 114.423C57.0619 114.364 57.148 114.264 57.2612 114.124C57.3745 113.979 57.4991 113.809 57.635 113.614C57.7754 113.415 57.9158 113.202 58.0562 112.976C58.2012 112.745 58.3303 112.514 58.4436 112.283L58.9939 112.622C58.8173 112.93 58.6202 113.236 58.4028 113.54C58.1899 113.839 57.9679 114.124 57.7369 114.396C57.5104 114.668 57.2816 114.915 57.0506 115.137V115.157C57.0506 115.157 57.0302 115.168 56.9895 115.191C56.9532 115.209 56.9079 115.234 56.8536 115.266C56.8037 115.297 56.7584 115.331 56.7177 115.368C56.6814 115.404 56.6633 115.438 56.6633 115.469ZM56.6633 115.469L56.6293 114.98L56.9215 114.783L58.7629 114.532C58.7538 114.613 58.7448 114.706 58.7357 114.81C58.7312 114.915 58.7312 114.998 58.7357 115.062C58.319 115.13 57.9815 115.186 57.7233 115.232C57.4696 115.272 57.2726 115.306 57.1321 115.334C56.9917 115.361 56.8875 115.386 56.8196 115.408C56.7516 115.426 56.6995 115.447 56.6633 115.469ZM58.328 115.646L58.8173 115.483C58.8943 115.691 58.9713 115.918 59.0483 116.163C59.1298 116.407 59.1887 116.618 59.225 116.794L58.7153 116.978C58.6791 116.797 58.6225 116.582 58.5455 116.332C58.473 116.083 58.4005 115.854 58.328 115.646ZM64.3347 113.03H65.9994V113.574H64.3347V113.03ZM63.961 114.212H66.278V114.763H63.961V114.212ZM63.9949 115.13L64.4366 115.028C64.4864 115.218 64.5363 115.426 64.5861 115.653C64.6359 115.879 64.6722 116.074 64.6948 116.237L64.2328 116.366C64.2192 116.194 64.1897 115.995 64.1444 115.768C64.0991 115.537 64.0493 115.324 63.9949 115.13ZM63.8455 116.822C64.149 116.776 64.5204 116.717 64.9598 116.645C65.4037 116.572 65.8545 116.498 66.312 116.421L66.346 116.93C65.9337 117.016 65.5193 117.1 65.1025 117.182C64.6858 117.263 64.3143 117.336 63.9881 117.399L63.8455 116.822ZM65.9247 114.967L66.3596 115.082C66.3052 115.286 66.2486 115.499 66.1897 115.721C66.1353 115.938 66.0832 116.124 66.0334 116.278L65.6869 116.176C65.7186 116.063 65.748 115.936 65.7752 115.796C65.8069 115.651 65.8363 115.506 65.8635 115.361C65.8907 115.216 65.9111 115.084 65.9247 114.967ZM64.9326 113.254H65.4558V116.903L64.9326 116.998V113.254ZM65.0889 111.291L65.5849 111.474C65.4626 111.732 65.3154 111.99 65.1433 112.249C64.9711 112.507 64.7854 112.749 64.5861 112.976C64.3913 113.202 64.1897 113.402 63.9814 113.574C63.9768 113.528 63.961 113.467 63.9338 113.39C63.9111 113.313 63.884 113.234 63.8523 113.152C63.8205 113.066 63.7911 113.001 63.7639 112.955C64.0176 112.752 64.2645 112.505 64.5046 112.215C64.7446 111.92 64.9394 111.612 65.0889 111.291ZM64.9938 111.895L65.3403 111.528C65.4808 111.66 65.6302 111.802 65.7888 111.957C65.9519 112.111 66.1059 112.26 66.2508 112.405C66.4003 112.55 66.5226 112.675 66.6178 112.779L66.2508 113.207C66.1602 113.094 66.0425 112.96 65.8975 112.806C65.7525 112.652 65.6008 112.496 65.4422 112.337C65.2837 112.174 65.1342 112.027 64.9938 111.895ZM69.6143 114.566L70.0492 114.926C69.9087 115.08 69.757 115.236 69.5939 115.395C69.4308 115.549 69.2836 115.68 69.1522 115.789L68.7989 115.463C68.885 115.386 68.9778 115.295 69.0775 115.191C69.1772 115.087 69.2745 114.98 69.3697 114.872C69.4648 114.758 69.5463 114.656 69.6143 114.566ZM66.5226 114.885L66.9439 114.579C67.0753 114.706 67.2112 114.851 67.3516 115.014C67.4966 115.173 67.6075 115.309 67.6845 115.422L67.2361 115.768C67.1908 115.691 67.1274 115.601 67.0458 115.497C66.9643 115.392 66.8782 115.286 66.7876 115.177C66.697 115.069 66.6087 114.971 66.5226 114.885ZM67.3448 111.889H69.1658V112.385H67.3448V111.889ZM67.1342 112.908H69.0095V113.411H67.1342V112.908ZM66.3799 113.825H70.1579V114.389H66.3799V113.825ZM67.9495 114.158H68.5407V116.978C68.5407 117.123 68.5248 117.236 68.4931 117.318C68.4614 117.404 68.3957 117.469 68.2961 117.515C68.2055 117.56 68.09 117.587 67.9495 117.596C67.8137 117.61 67.6483 117.617 67.4535 117.617C67.4445 117.535 67.4218 117.44 67.3856 117.331C67.3493 117.227 67.3108 117.136 67.2701 117.059C67.3969 117.064 67.5147 117.066 67.6234 117.066C67.7321 117.066 67.8069 117.066 67.8476 117.066C67.9156 117.062 67.9495 117.03 67.9495 116.971V114.158ZM66.244 116.686C66.4116 116.586 66.611 116.459 66.842 116.305C67.073 116.147 67.3108 115.984 67.5554 115.816L67.7457 116.285C67.5509 116.434 67.3516 116.586 67.1478 116.74C66.9484 116.89 66.7582 117.032 66.577 117.168L66.244 116.686ZM67.2769 111.297L67.8748 111.365C67.825 111.587 67.7684 111.825 67.7049 112.079C67.646 112.328 67.5849 112.568 67.5215 112.799C67.4626 113.03 67.406 113.234 67.3516 113.411H66.7333C66.7922 113.225 66.8556 113.012 66.9235 112.772C66.9915 112.527 67.0549 112.276 67.1138 112.018C67.1772 111.759 67.2316 111.519 67.2769 111.297ZM68.9892 111.889H69.0571L69.159 111.861L69.6007 111.923C69.569 112.135 69.5282 112.366 69.4784 112.616C69.4286 112.865 69.3765 113.112 69.3221 113.356C69.2723 113.601 69.2224 113.832 69.1726 114.049L68.5815 113.975C68.6358 113.753 68.6879 113.517 68.7378 113.268C68.7921 113.014 68.8419 112.772 68.8872 112.541C68.9325 112.305 68.9665 112.111 68.9892 111.957V111.889ZM68.6494 116.169L68.996 115.789C69.1319 115.879 69.2745 115.981 69.424 116.095C69.578 116.208 69.7253 116.321 69.8657 116.434C70.0061 116.543 70.1194 116.64 70.2054 116.726L69.8385 117.161C69.757 117.075 69.6483 116.973 69.5124 116.856C69.3765 116.738 69.2315 116.62 69.0775 116.502C68.928 116.38 68.7853 116.269 68.6494 116.169Z" fill="#424242"/>
</g>
<defs>
<clipPath id="clip0_154_6242">
<rect width="200" height="200" fill="white" transform="translate(0.153687)"/>
</clipPath>
</defs>
</svg>
