<svg width="201" height="201" viewBox="0 0 201 201" fill="none" xmlns="http://www.w3.org/2000/svg">
<g clip-path="url(#clip0_157_6548)">
<path d="M69.2031 36.1777L24.2031 36.1777" stroke="#222222" stroke-width="0.679485" stroke-linecap="round"/>
<path d="M69.2031 88.252H24.2031" stroke="#222222" stroke-width="0.679485" stroke-linecap="round"/>
<path d="M69.2031 51.2988L69.2031 39.5888" stroke="#222222" stroke-width="0.679485" stroke-linecap="round" stroke-dasharray="1.36 1.36"/>
<path d="M69.2031 103.373L69.2031 91.663" stroke="#222222" stroke-width="0.679485" stroke-linecap="round" stroke-dasharray="1.36 1.36"/>
<path d="M24.2031 51.2988L24.2031 39.5888" stroke="#222222" stroke-width="0.679485" stroke-linecap="round" stroke-dasharray="1.36 1.36"/>
<path d="M24.2031 103.373L24.2031 91.663" stroke="#222222" stroke-width="0.679485" stroke-linecap="round" stroke-dasharray="1.36 1.36"/>
<path d="M24.2031 33.3398L24.2031 21.626" stroke="#222222" stroke-width="0.679485" stroke-linecap="round"/>
<path d="M24.2031 85.4141L24.2031 73.7002" stroke="#222222" stroke-width="0.679485" stroke-linecap="round"/>
<rect x="1.04287" y="0.972555" width="43.3205" height="15.4743" rx="7.73717" stroke="#43B71B" stroke-width="0.679485"/>
<path d="M10.0202 6.35464L14.0427 6.35464V12.2186H13.4244V6.91861L10.6113 6.91861L10.6113 12.273H10.0202L10.0202 6.35464ZM10.8423 7.84271L13.2273 7.84271V8.32515H10.8423V7.84271ZM10.3327 11.3081L13.7437 11.3081V11.8721L10.3327 11.8721L10.3327 11.3081ZM11.7664 7.10208L12.2761 7.10208V9.26963H11.7664V7.10208ZM11.5558 9.45989V10.3704H12.5071V9.45989H11.5558ZM11.0802 9.00463H13.0031V10.8257H11.0802V9.00463ZM9.25235 6.00131L9.8435 6.17798C9.71214 6.56302 9.55585 6.95032 9.37466 7.3399C9.19799 7.72494 9.00094 8.08959 8.78351 8.43387C8.5706 8.77361 8.34864 9.07485 8.11761 9.33758C8.09949 9.28775 8.07231 9.2198 8.03607 9.13374C7.99983 9.04767 7.95906 8.9616 7.91377 8.87553C7.873 8.78493 7.83449 8.71246 7.79825 8.6581C7.99757 8.44066 8.18782 8.18925 8.36902 7.90387C8.55022 7.61848 8.71556 7.31498 8.86504 6.99336C9.01453 6.6672 9.14363 6.33652 9.25235 6.00131ZM8.68838 7.74759L9.29312 7.14284L9.29992 7.14964L9.29992 12.2865H8.68838L8.68838 7.74759ZM18.174 5.98772H18.9078C18.8988 6.20515 18.8852 6.47242 18.8671 6.78951C18.8535 7.10208 18.8172 7.44861 18.7583 7.82912C18.704 8.20964 18.6157 8.60374 18.4933 9.01143C18.371 9.41459 18.2012 9.81549 17.9837 10.2141C17.7708 10.6082 17.499 10.9819 17.1684 11.3353C16.8377 11.6886 16.4322 11.9966 15.9521 12.2594C15.8977 12.1778 15.8207 12.0895 15.721 11.9944C15.6259 11.8992 15.5263 11.8154 15.4221 11.743C15.8932 11.5029 16.2873 11.2198 16.6044 10.8936C16.9215 10.5674 17.1797 10.2209 17.379 9.85399C17.5783 9.48254 17.7323 9.10882 17.841 8.73284C17.9498 8.35686 18.0268 7.99447 18.0721 7.64566C18.1174 7.29233 18.1445 6.97297 18.1536 6.68759C18.1672 6.40221 18.174 6.16892 18.174 5.98772ZM18.8399 6.82349C18.8489 6.90502 18.8671 7.05451 18.8942 7.27195C18.9214 7.48938 18.969 7.74759 19.0369 8.04656C19.1094 8.34553 19.2113 8.66489 19.3427 9.00463C19.4741 9.34438 19.6462 9.68185 19.8591 10.0171C20.072 10.3477 20.3348 10.658 20.6473 10.948C20.9644 11.2379 21.3404 11.4802 21.7753 11.675C21.6801 11.752 21.5895 11.8404 21.5035 11.94C21.4174 12.0397 21.3495 12.1348 21.2996 12.2254C20.8466 12.0125 20.4571 11.7498 20.1309 11.4372C19.8048 11.1201 19.5307 10.7804 19.3087 10.418C19.0868 10.051 18.9078 9.68412 18.7719 9.3172C18.636 8.94574 18.5296 8.59694 18.4526 8.27079C18.3801 7.94011 18.3257 7.65472 18.2895 7.41464C18.2578 7.17002 18.2351 6.99562 18.2216 6.89143L18.8399 6.82349ZM24.4796 8.90951V9.42591H27.68V8.90951H24.4796ZM24.4796 9.90155V10.4248H27.68V9.90155H24.4796ZM24.4796 7.92425V8.43387H27.68V7.92425L24.4796 7.92425ZM23.8137 7.42823L28.3799 7.42823V10.9276H23.8137V7.42823ZM26.4773 11.3896L26.9461 10.9751C27.2089 11.0612 27.4761 11.1563 27.7479 11.2605C28.0197 11.3647 28.2757 11.4689 28.5158 11.5731C28.7604 11.6727 28.9687 11.7656 29.1409 11.8517L28.5158 12.2865C28.3617 12.1959 28.1737 12.0986 27.9518 11.9944C27.7343 11.8902 27.4988 11.786 27.2451 11.6818C26.996 11.5776 26.74 11.4802 26.4773 11.3896ZM23.1886 6.30708L28.8827 6.30708V6.89823L23.1886 6.89823V6.30708ZM25.7163 6.57208L26.4841 6.66041C26.4252 6.86426 26.3618 7.06357 26.2938 7.25836C26.2304 7.44861 26.1715 7.61395 26.1172 7.75438L25.5056 7.64566C25.5464 7.49165 25.5872 7.31498 25.6279 7.11566C25.6687 6.91182 25.6982 6.73062 25.7163 6.57208ZM25.064 10.9344L25.6347 11.3624C25.4354 11.4802 25.2067 11.5957 24.9485 11.709C24.6903 11.8222 24.4253 11.9264 24.1535 12.0215C23.8817 12.1212 23.6257 12.2073 23.3856 12.2798C23.3358 12.2073 23.2679 12.1212 23.1818 12.0215C23.0957 11.9264 23.0165 11.8471 22.944 11.7837C23.1841 11.7158 23.4377 11.6365 23.705 11.5459C23.9723 11.4508 24.2259 11.3511 24.466 11.2469C24.7061 11.1382 24.9054 11.034 25.064 10.9344ZM32.5519 8.98425H34.3729V9.49386H32.5519V8.98425ZM32.5519 10.153H34.3797V10.6626H32.5519V10.153ZM31.1929 11.3353L35.9018 11.3353V11.9264L31.1929 11.9264V11.3353ZM30.792 7.75438L36.2483 7.75438V12.2798H35.596V8.35233H31.4172V12.2798H30.792V7.75438ZM32.2665 8.14169H32.8509V11.6071H32.2665V8.14169ZM34.1147 8.14169H34.6991V11.5867H34.1147V8.14169ZM33.1023 6.68079L33.8565 6.84387C33.784 7.07943 33.7093 7.31951 33.6323 7.56413C33.5598 7.80874 33.4896 8.01712 33.4216 8.18925L32.8373 8.03297C32.8735 7.90613 32.9098 7.76344 32.946 7.60489C32.9822 7.44635 33.0139 7.28554 33.0411 7.12246C33.0683 6.95938 33.0887 6.81216 33.1023 6.68079ZM30.4998 6.39541L36.5744 6.39541V7.00695L30.4998 7.00695V6.39541Z" fill="#43B71B"/>
<rect x="9.54287" y="55.0507" width="28.3205" height="15.4705" stroke="#424242" stroke-width="0.679485"/>
<path d="M19.9607 61.3481H22.733V61.9529H19.9607V61.3481ZM20.117 60.0435L20.7761 60.1522C20.7036 60.6007 20.6062 61.0333 20.4839 61.45C20.3616 61.8623 20.2144 62.2473 20.0422 62.6052C19.8746 62.9585 19.6798 63.2711 19.4579 63.5429C19.4307 63.493 19.3899 63.4341 19.3356 63.3662C19.2812 63.2937 19.2246 63.2235 19.1657 63.1555C19.1068 63.0831 19.0547 63.0287 19.0094 62.9925C19.2042 62.766 19.3718 62.4987 19.5122 62.1907C19.6572 61.8781 19.7795 61.5406 19.8791 61.1782C19.9788 60.8159 20.0581 60.4376 20.117 60.0435ZM21.6798 61.6675L22.3117 61.749C22.1894 62.501 22.015 63.1714 21.7885 63.7603C21.5665 64.3446 21.2721 64.852 20.9052 65.2823C20.5428 65.7127 20.092 66.0751 19.553 66.3695C19.5258 66.3287 19.4873 66.2744 19.4375 66.2064C19.3922 66.1385 19.3423 66.0705 19.288 66.0026C19.2336 65.9392 19.1838 65.8871 19.1385 65.8463C19.6549 65.5926 20.083 65.2733 20.4227 64.8882C20.7625 64.4987 21.032 64.0366 21.2313 63.5021C21.4306 62.9676 21.5801 62.356 21.6798 61.6675ZM20.2121 61.8781C20.348 62.4534 20.5314 62.9993 20.7625 63.5157C20.9935 64.0276 21.2766 64.4805 21.6118 64.8746C21.9516 65.2687 22.3457 65.579 22.7941 65.8055C22.7443 65.8418 22.6899 65.8893 22.6311 65.9482C22.5767 66.0117 22.5246 66.0773 22.4748 66.1453C22.4249 66.2132 22.3819 66.2744 22.3457 66.3287C21.8836 66.066 21.4805 65.7195 21.1362 65.2891C20.7964 64.8588 20.5088 64.365 20.2732 63.8079C20.0377 63.2461 19.8429 62.6414 19.6889 61.9936L20.2121 61.8781ZM18.3571 60.1522H18.9958V66.3627H18.3571V60.1522ZM16.835 65.1804L16.7603 64.5689L17.0321 64.3311L18.6561 63.8214C18.6742 63.9075 18.6991 64.0049 18.7308 64.1136C18.7625 64.2178 18.792 64.3039 18.8191 64.3718C18.425 64.5123 18.1057 64.6278 17.8611 64.7184C17.6165 64.8044 17.4262 64.8769 17.2903 64.9358C17.1589 64.9947 17.0593 65.0423 16.9913 65.0785C16.9234 65.1147 16.8713 65.1487 16.835 65.1804ZM16.835 65.1804C16.8215 65.1215 16.7988 65.0558 16.7671 64.9834C16.7399 64.9109 16.7105 64.8384 16.6788 64.7659C16.6471 64.6935 16.6153 64.6346 16.5836 64.5893C16.6335 64.5576 16.6856 64.5055 16.7399 64.433C16.7943 64.3605 16.8215 64.254 16.8215 64.1136V60.7977H17.4534V64.6368C17.4534 64.6368 17.4217 64.6549 17.3582 64.6912C17.2994 64.7229 17.2269 64.7682 17.1408 64.8271C17.0593 64.8814 16.9868 64.9403 16.9234 65.0037C16.8645 65.0672 16.835 65.1261 16.835 65.1804ZM25.4577 61.7015H30.1597V62.245H25.4577V61.7015ZM23.9289 63.8758H25.3626V64.4058H23.9289V63.8758ZM26.2255 65.1736H28.0669V65.5949H26.2255V65.1736ZM26.9594 62.843H27.3942V63.638H26.9594V62.843ZM26.9594 64.5417H27.3942V65.3435H26.9594V64.5417ZM26.2799 63.4341H28.0262V64.7387H26.2799V64.3379H27.5641V63.8282H26.2799V63.4341ZM26.0081 62.6052H28.0126V63.0264H26.4769V65.5949H26.0081V62.6052ZM25.1791 61.7015H25.7159V63.6584C25.7159 63.9347 25.7046 64.2359 25.6819 64.5621C25.6638 64.8882 25.6185 65.2099 25.546 65.527C25.4781 65.8395 25.3762 66.1226 25.2403 66.3763C25.2086 66.3446 25.1633 66.3106 25.1044 66.2744C25.0455 66.2427 24.9843 66.2087 24.9209 66.1725C24.862 66.1408 24.8077 66.1181 24.7578 66.1045C24.8892 65.869 24.9821 65.6108 25.0364 65.3299C25.0953 65.0445 25.1338 64.7569 25.1519 64.467C25.1701 64.177 25.1791 63.9052 25.1791 63.6516V61.7015ZM28.1485 61.2802H28.726C28.726 62.0276 28.7532 62.6844 28.8076 63.2507C28.8665 63.8169 28.9412 64.288 29.0318 64.664C29.1269 65.04 29.2243 65.3231 29.324 65.5134C29.4282 65.7036 29.5256 65.7987 29.6162 65.7987C29.6796 65.7987 29.7271 65.7376 29.7589 65.6153C29.7951 65.493 29.82 65.2687 29.8336 64.9426C29.897 64.997 29.9695 65.0513 30.051 65.1057C30.1326 65.16 30.2073 65.1985 30.2753 65.2212C30.2481 65.5428 30.2073 65.7852 30.153 65.9482C30.0986 66.1158 30.0239 66.2268 29.9287 66.2812C29.8336 66.3355 29.7158 66.3627 29.5754 66.3627C29.3625 66.3627 29.17 66.2472 28.9978 66.0162C28.8302 65.7897 28.6875 65.4567 28.5698 65.0173C28.452 64.5779 28.3568 64.0457 28.2844 63.4205C28.2164 62.7909 28.1711 62.0774 28.1485 61.2802ZM28.9503 61.3345L29.3308 61.0491C29.4486 61.1126 29.5686 61.1918 29.6909 61.287C29.8132 61.3821 29.9038 61.4704 29.9627 61.552L29.5618 61.8713C29.5074 61.7853 29.4214 61.6924 29.3036 61.5927C29.1858 61.4931 29.068 61.407 28.9503 61.3345ZM29.3036 62.5916L29.8812 62.6867C29.7136 63.5021 29.4667 64.2201 29.1405 64.8407C28.8144 65.4613 28.4021 65.9731 27.9039 66.3763C27.8721 66.3401 27.8268 66.297 27.768 66.2472C27.7136 66.1974 27.6547 66.1475 27.5913 66.0977C27.5324 66.0479 27.478 66.0094 27.4282 65.9822C27.931 65.6243 28.3342 65.1578 28.6377 64.5825C28.9457 64.0026 29.1677 63.339 29.3036 62.5916ZM24.2822 64.0729H24.7443V64.6572C24.7443 64.8158 24.7329 64.997 24.7103 65.2008C24.6876 65.4046 24.6401 65.6062 24.5676 65.8055C24.4996 66.0094 24.3932 66.1928 24.2482 66.3559C24.2075 66.3152 24.1486 66.2676 24.0716 66.2132C23.9946 66.1634 23.9289 66.1249 23.8745 66.0977C23.9923 65.9482 24.0784 65.7874 24.1327 65.6153C24.1916 65.4431 24.2301 65.271 24.2482 65.0989C24.2709 64.9267 24.2822 64.775 24.2822 64.6436V64.0729ZM24.0648 60.492H26.8982V61.0288H24.0648V60.492ZM25.4305 60.0435H26.0692V61.4568H25.4305V60.0435ZM28.0737 60.0435H28.7057V61.4093H28.0737V60.0435ZM27.204 60.492H30.1054V61.0288H27.204V60.492ZM24.221 61.7558H24.7035V62.8634H25.3898V63.3798H24.221V61.7558Z" fill="#424242"/>
<rect x="9.54287" y="107.125" width="28.3205" height="15.4705" stroke="#424242" stroke-width="0.679485" stroke-dasharray="1.36 1.36"/>
<path d="M19.8452 117.615H22.0467V118.172H19.8452V117.615ZM20.1645 112.797H21.9244V113.348H20.1645V112.797ZM19.5938 115.936H22.3253V118.396H21.707V116.48H20.1849V118.417H19.5938V115.936ZM21.7002 112.797H21.8157L21.9312 112.77L22.3389 112.947C22.212 113.368 22.0444 113.753 21.8361 114.102C21.6277 114.451 21.3899 114.765 21.1226 115.046C20.8553 115.323 20.5654 115.565 20.2529 115.773C19.9448 115.982 19.6255 116.156 19.2948 116.297C19.254 116.224 19.1974 116.14 19.1249 116.045C19.057 115.945 18.9913 115.868 18.9279 115.814C19.2268 115.701 19.519 115.551 19.8044 115.366C20.0943 115.175 20.3638 114.956 20.613 114.707C20.8621 114.457 21.0796 114.181 21.2653 113.878C21.451 113.574 21.596 113.25 21.7002 112.906V112.797ZM20.2393 112.118L20.8508 112.267C20.7511 112.575 20.6311 112.874 20.4907 113.164C20.3502 113.454 20.194 113.724 20.0218 113.973C19.8542 114.217 19.6753 114.435 19.485 114.625C19.4533 114.584 19.4058 114.539 19.3423 114.489C19.2835 114.435 19.22 114.383 19.1521 114.333C19.0887 114.278 19.0343 114.235 18.989 114.204C19.2608 113.959 19.5054 113.653 19.7229 113.286C19.9448 112.915 20.117 112.525 20.2393 112.118ZM20.1713 113.123C20.271 113.359 20.4001 113.601 20.5586 113.85C20.7217 114.1 20.9142 114.34 21.1362 114.571C21.3627 114.802 21.6186 115.012 21.904 115.203C22.1894 115.393 22.5065 115.549 22.8553 115.671C22.8145 115.712 22.767 115.767 22.7126 115.835C22.6628 115.898 22.6152 115.964 22.5699 116.032C22.5246 116.095 22.4861 116.156 22.4544 116.215C22.1056 116.07 21.7862 115.891 21.4963 115.678C21.2109 115.465 20.955 115.232 20.7285 114.978C20.5065 114.725 20.3117 114.466 20.1441 114.204C19.9811 113.936 19.8474 113.681 19.7432 113.436L20.1713 113.123ZM16.7535 115.128H17.2835V117.594H16.7535V115.128ZM17.3447 112.947V114H18.4522V112.947H17.3447ZM16.7739 112.396H19.0502V114.557H16.7739V112.396ZM17.732 114.312H18.3095V117.384H17.732V114.312ZM16.4274 117.513C16.6584 117.468 16.9234 117.413 17.2224 117.35C17.5213 117.286 17.8362 117.216 18.1668 117.139C18.502 117.062 18.835 116.985 19.1657 116.908L19.2268 117.479C18.7512 117.597 18.2756 117.714 17.7999 117.832C17.3288 117.945 16.9075 118.045 16.5361 118.131L16.4274 117.513ZM17.9494 115.461H19.1113V116.025H17.9494V115.461ZM27.9786 112.118L28.6989 112.26C28.6173 112.428 28.5335 112.593 28.4474 112.756C28.3659 112.915 28.2912 113.051 28.2232 113.164L27.6796 113.028C27.7385 112.897 27.7951 112.745 27.8495 112.573C27.9039 112.401 27.9469 112.249 27.9786 112.118ZM27.3399 114.292V114.781H29.29V114.292H27.3399ZM27.3399 113.341V113.823H29.29V113.341H27.3399ZM26.7419 112.845H29.9151V115.284H26.7419V112.845ZM28.0737 115.067H28.6853V117.764C28.6853 117.918 28.6671 118.038 28.6309 118.124C28.5947 118.215 28.5245 118.287 28.4203 118.342C28.3206 118.387 28.1938 118.414 28.0398 118.423C27.8857 118.437 27.7 118.444 27.4826 118.444C27.469 118.358 27.4441 118.258 27.4078 118.145C27.3761 118.032 27.3399 117.934 27.2991 117.853C27.4441 117.857 27.58 117.859 27.7068 117.859C27.8336 117.864 27.9174 117.864 27.9582 117.859C28.0035 117.855 28.033 117.846 28.0465 117.832C28.0647 117.819 28.0737 117.794 28.0737 117.757V115.067ZM26.4973 115.787H27.5301V116.317H26.4973V115.787ZM27.3874 115.787H27.4962L27.5981 115.767L27.9718 115.896C27.8948 116.244 27.7838 116.562 27.6389 116.847C27.4939 117.128 27.324 117.375 27.1292 117.588C26.9345 117.796 26.7193 117.968 26.4837 118.104C26.443 118.036 26.3863 117.957 26.3139 117.866C26.2459 117.78 26.1802 117.71 26.1168 117.656C26.3161 117.551 26.4996 117.411 26.6672 117.234C26.8393 117.053 26.9888 116.847 27.1157 116.616C27.2425 116.385 27.3331 116.138 27.3874 115.875V115.787ZM29.6569 115.461L30.1326 115.855C29.9514 116.013 29.7656 116.174 29.5754 116.337C29.3851 116.496 29.2085 116.63 29.0454 116.738L28.6921 116.426C28.7962 116.34 28.9072 116.242 29.025 116.133C29.1428 116.02 29.2583 115.905 29.3715 115.787C29.4848 115.669 29.5799 115.56 29.6569 115.461ZM28.6581 115.42C28.7487 115.733 28.871 116.034 29.025 116.324C29.179 116.614 29.3602 116.874 29.5686 117.105C29.777 117.332 30.008 117.511 30.2617 117.642C30.2209 117.683 30.1733 117.733 30.119 117.791C30.0646 117.85 30.0125 117.911 29.9627 117.975C29.9174 118.038 29.8766 118.099 29.8404 118.158C29.5777 117.986 29.3421 117.767 29.1337 117.499C28.9254 117.232 28.7442 116.931 28.5901 116.596C28.4361 116.256 28.3093 115.9 28.2096 115.529L28.6581 115.42ZM25.4985 114.856L25.9741 114.727C26.0285 114.881 26.0806 115.046 26.1304 115.223C26.1848 115.4 26.2301 115.572 26.2663 115.739C26.3071 115.902 26.3365 116.045 26.3546 116.167L25.845 116.324C25.8269 116.197 25.7997 116.05 25.7635 115.882C25.7318 115.714 25.691 115.54 25.6412 115.359C25.5959 115.178 25.5483 115.01 25.4985 114.856ZM24.8937 116.616L25.3626 116.534C25.4034 116.765 25.4373 117.017 25.4645 117.289C25.4962 117.556 25.5143 117.789 25.5189 117.988L25.0296 118.077C25.0296 117.877 25.016 117.642 24.9889 117.37C24.9617 117.098 24.93 116.847 24.8937 116.616ZM24.2007 116.548L24.7103 116.63C24.6786 116.933 24.6333 117.239 24.5744 117.547C24.5155 117.855 24.4498 118.118 24.3773 118.335C24.3411 118.312 24.2935 118.29 24.2346 118.267C24.1757 118.244 24.1146 118.224 24.0512 118.206C23.9878 118.188 23.9357 118.172 23.8949 118.158C23.9764 117.95 24.0399 117.701 24.0852 117.411C24.135 117.116 24.1735 116.829 24.2007 116.548ZM24.0784 114.734C24.0693 114.693 24.0512 114.639 24.024 114.571C24.0013 114.498 23.9764 114.426 23.9493 114.353C23.9266 114.276 23.904 114.213 23.8813 114.163C23.9402 114.149 23.9991 114.111 24.058 114.047C24.1214 113.98 24.1848 113.893 24.2482 113.789C24.2981 113.726 24.3705 113.608 24.4657 113.436C24.5653 113.259 24.6695 113.055 24.7782 112.824C24.8915 112.589 24.9889 112.349 25.0704 112.104L25.6616 112.349C25.5528 112.593 25.4328 112.84 25.3014 113.089C25.1701 113.339 25.0319 113.576 24.8869 113.803C24.742 114.025 24.597 114.226 24.4521 114.408V114.421C24.4521 114.421 24.434 114.433 24.3977 114.455C24.3615 114.478 24.3162 114.505 24.2618 114.537C24.212 114.568 24.169 114.602 24.1327 114.639C24.0965 114.67 24.0784 114.702 24.0784 114.734ZM24.0784 114.734L24.0648 114.278L24.3434 114.102L25.5257 114.007C25.5121 114.084 25.4985 114.172 25.4849 114.272C25.4758 114.371 25.469 114.453 25.4645 114.516C25.2018 114.548 24.9866 114.575 24.819 114.598C24.6514 114.616 24.5178 114.634 24.4181 114.652C24.323 114.666 24.2505 114.679 24.2007 114.693C24.1508 114.707 24.1101 114.72 24.0784 114.734ZM24.1259 116.29C24.1169 116.244 24.0987 116.186 24.0716 116.113C24.0489 116.041 24.024 115.966 23.9968 115.889C23.9696 115.812 23.9447 115.746 23.9221 115.692C24.0036 115.674 24.0829 115.626 24.1599 115.549C24.2414 115.468 24.3343 115.363 24.4385 115.237C24.4974 115.178 24.5789 115.078 24.6831 114.938C24.7873 114.793 24.9051 114.623 25.0364 114.428C25.1678 114.233 25.2992 114.023 25.4305 113.796C25.5664 113.57 25.6865 113.341 25.7907 113.11L26.3478 113.443C26.1802 113.746 25.9945 114.05 25.7907 114.353C25.5913 114.657 25.383 114.944 25.1655 115.216C24.9526 115.488 24.7352 115.735 24.5132 115.957V115.977C24.5132 115.977 24.4928 115.989 24.4521 116.011C24.4158 116.029 24.3705 116.054 24.3162 116.086C24.2663 116.118 24.221 116.152 24.1803 116.188C24.144 116.224 24.1259 116.258 24.1259 116.29ZM24.1259 116.29L24.1055 115.821L24.3841 115.631L26.0285 115.427C26.0149 115.504 26.0036 115.592 25.9945 115.692C25.99 115.791 25.99 115.873 25.9945 115.936C25.6231 115.991 25.3218 116.038 25.0908 116.079C24.8643 116.115 24.6854 116.145 24.554 116.167C24.4272 116.19 24.332 116.21 24.2686 116.229C24.2097 116.247 24.1622 116.267 24.1259 116.29ZM25.5528 116.487L25.9809 116.351C26.0443 116.514 26.1055 116.693 26.1644 116.888C26.2233 117.078 26.2663 117.243 26.2935 117.384L25.8382 117.533C25.8156 117.393 25.7771 117.225 25.7227 117.03C25.6684 116.831 25.6117 116.65 25.5528 116.487Z" fill="#424242"/>
<rect x="55.0429" y="55.0507" width="28.3205" height="15.4705" stroke="#424242" stroke-width="0.679485"/>
<path d="M66.3848 61.5316H68.2602V62.1227H66.3848V61.5316ZM65.284 65.4726H67.669V66.0502H65.284V65.4726ZM64.9714 63.3254H67.9544V66.3287H67.3293V63.8962H65.5694V66.3559H64.9714V63.3254ZM66.045 60.0571H66.6838V63.5836H66.045V60.0571ZM62.6748 64.7387L63.2795 64.8882C63.1799 65.1646 63.0508 65.4364 62.8922 65.7036C62.7382 65.9664 62.5751 66.1883 62.403 66.3695C62.3668 66.3333 62.3169 66.2902 62.2535 66.2404C62.1901 66.1951 62.1244 66.1498 62.0565 66.1045C61.993 66.0637 61.9364 66.0298 61.8866 66.0026C62.0587 65.8486 62.2127 65.6606 62.3486 65.4386C62.4845 65.2121 62.5933 64.9788 62.6748 64.7387ZM63.5853 64.9562L64.1017 64.7252C64.2376 64.8928 64.369 65.0785 64.4958 65.2823C64.6226 65.4862 64.7178 65.6651 64.7812 65.8191L64.2376 66.0841C64.1832 65.9301 64.0926 65.7467 63.9658 65.5337C63.8435 65.3208 63.7167 65.1283 63.5853 64.9562ZM62.8582 62.082V62.8498H63.9386V62.082H62.8582ZM62.8582 63.339V64.1136H63.9386V63.339H62.8582ZM62.8582 60.8317V61.5927H63.9386V60.8317H62.8582ZM62.2739 60.3153H64.5502V64.6368L62.2739 64.6368V60.3153ZM74.0018 61.518L74.6677 61.7015C74.3868 62.5304 74.0222 63.2439 73.5737 63.8418C73.1298 64.4398 72.5953 64.9426 71.9701 65.3503C71.345 65.7534 70.618 66.0841 69.789 66.3423C69.7618 66.2925 69.7256 66.2291 69.6803 66.1521C69.635 66.0751 69.5852 65.9981 69.5308 65.9211C69.481 65.8486 69.4334 65.7874 69.3881 65.7376C70.199 65.5202 70.9034 65.228 71.5013 64.8611C72.0992 64.4941 72.6043 64.0366 73.0166 63.4885C73.4288 62.9404 73.7572 62.2835 74.0018 61.518ZM71.114 61.5588C71.3631 62.2428 71.7006 62.8634 72.1264 63.4205C72.5568 63.9732 73.0754 64.4443 73.6824 64.8339C74.294 65.2234 74.9939 65.5156 75.7821 65.7104C75.7368 65.7557 75.6847 65.8146 75.6258 65.8871C75.5714 65.9596 75.5193 66.032 75.4695 66.1045C75.4197 66.177 75.3789 66.2449 75.3472 66.3084C74.5273 66.0819 73.807 65.758 73.1864 65.3367C72.5704 64.9154 72.0426 64.4035 71.6032 63.8011C71.1684 63.1941 70.8082 62.5078 70.5228 61.7422L71.114 61.5588ZM69.5036 61.2258H75.6801V61.8509H69.5036V61.2258ZM72.0177 60.193L72.6972 59.9891C72.7969 60.1522 72.8942 60.3312 72.9894 60.5259C73.089 60.7207 73.1592 60.8906 73.2 61.0356L72.4866 61.2598C72.4503 61.1194 72.3869 60.9495 72.2963 60.7502C72.2057 60.5463 72.1128 60.3606 72.0177 60.193Z" fill="#424242"/>
<rect x="55.0429" y="107.125" width="28.3205" height="15.4705" stroke="#424242" stroke-width="0.679485" stroke-dasharray="1.36 1.36"/>
<path d="M66.3848 113.606H68.2602V114.197H66.3848V113.606ZM65.284 117.547H67.669V118.124H65.284V117.547ZM64.9714 115.4H67.9544V118.403H67.3293V115.97H65.5694V118.43H64.9714V115.4ZM66.045 112.131H66.6838V115.658H66.045V112.131ZM62.6748 116.813L63.2795 116.962C63.1799 117.239 63.0508 117.511 62.8922 117.778C62.7382 118.041 62.5751 118.263 62.403 118.444C62.3668 118.407 62.3169 118.364 62.2535 118.315C62.1901 118.269 62.1244 118.224 62.0565 118.179C61.993 118.138 61.9364 118.104 61.8866 118.077C62.0587 117.923 62.2127 117.735 62.3486 117.513C62.4845 117.286 62.5933 117.053 62.6748 116.813ZM63.5853 117.03L64.1017 116.799C64.2376 116.967 64.369 117.153 64.4958 117.357C64.6226 117.56 64.7178 117.739 64.7812 117.893L64.2376 118.158C64.1832 118.004 64.0926 117.821 63.9658 117.608C63.8435 117.395 63.7167 117.203 63.5853 117.03ZM62.8582 114.156V114.924H63.9386V114.156H62.8582ZM62.8582 115.413V116.188H63.9386V115.413H62.8582ZM62.8582 112.906V113.667H63.9386V112.906H62.8582ZM62.2739 112.39H64.5502V116.711L62.2739 116.711V112.39ZM74.0018 113.592L74.6677 113.776C74.3868 114.605 74.0222 115.318 73.5737 115.916C73.1298 116.514 72.5953 117.017 71.9701 117.425C71.345 117.828 70.618 118.158 69.789 118.417C69.7618 118.367 69.7256 118.303 69.6803 118.226C69.635 118.149 69.5852 118.072 69.5308 117.995C69.481 117.923 69.4334 117.862 69.3881 117.812C70.199 117.594 70.9034 117.302 71.5013 116.935C72.0992 116.568 72.6043 116.111 73.0166 115.563C73.4288 115.015 73.7572 114.358 74.0018 113.592ZM71.114 113.633C71.3631 114.317 71.7006 114.938 72.1264 115.495C72.5568 116.047 73.0754 116.519 73.6824 116.908C74.294 117.298 74.9939 117.59 75.7821 117.785C75.7368 117.83 75.6847 117.889 75.6258 117.961C75.5714 118.034 75.5193 118.106 75.4695 118.179C75.4197 118.251 75.3789 118.319 75.3472 118.383C74.5273 118.156 73.807 117.832 73.1864 117.411C72.5704 116.99 72.0426 116.478 71.6032 115.875C71.1684 115.268 70.8082 114.582 70.5228 113.816L71.114 113.633ZM69.5036 113.3H75.6801V113.925H69.5036V113.3ZM72.0177 112.267L72.6972 112.063C72.7969 112.226 72.8942 112.405 72.9894 112.6C73.089 112.795 73.1592 112.965 73.2 113.11L72.4866 113.334C72.4503 113.194 72.3869 113.024 72.2963 112.824C72.2057 112.621 72.1128 112.435 72.0177 112.267Z" fill="#424242"/>
</g>
<defs>
<clipPath id="clip0_157_6548">
<rect width="200" height="200" fill="white" transform="translate(0.703125 0.632812)"/>
</clipPath>
</defs>
</svg>
