<svg width="200" height="201" viewBox="0 0 200 201" fill="none" xmlns="http://www.w3.org/2000/svg">
<g clip-path="url(#clip0_152_6057)">
<path d="M108.9 9.15039L108.9 31.3008" stroke="#222222" stroke-width="0.679485" stroke-linecap="round"/>
<path d="M123.728 31.2988H112.018" stroke="#222222" stroke-width="0.679485" stroke-linecap="round" stroke-dasharray="1.36 1.36"/>
<path d="M58.832 9.15039L47.1182 9.15039" stroke="#222222" stroke-width="0.679485" stroke-linecap="round"/>
<path d="M105.782 9.15039L94.0679 9.15039" stroke="#222222" stroke-width="0.679485" stroke-linecap="round"/>
<path d="M123.728 9.15039L112.018 9.15039" stroke="#222222" stroke-width="0.679485" stroke-linecap="round" stroke-dasharray="1.36 1.36"/>
<rect x="0.339743" y="0.412008" width="43.3205" height="15.4743" rx="7.73717" stroke="#424242" stroke-width="0.679485"/>
<path d="M7.75423 7.57435L12.796 7.57435V8.09755H8.37256L8.37256 11.7056H7.75423V7.57435ZM12.4699 7.57435H13.0678V11.0737C13.0678 11.2232 13.0452 11.3364 12.9999 11.4134C12.9546 11.495 12.8775 11.5561 12.7688 11.5969C12.6556 11.6377 12.5061 11.6626 12.3204 11.6716C12.1392 11.6807 11.9059 11.6852 11.6205 11.6852C11.6114 11.6082 11.5888 11.5244 11.5526 11.4338C11.5163 11.3432 11.4778 11.2639 11.437 11.196C11.5684 11.2005 11.693 11.2028 11.8108 11.2028C11.9331 11.2073 12.0395 11.2073 12.1301 11.2028C12.2207 11.2028 12.2841 11.2028 12.3204 11.2028C12.3747 11.2028 12.4132 11.1915 12.4359 11.1688C12.4585 11.1507 12.4699 11.1167 12.4699 11.0669V7.57435ZM9.43935 9.25947H11.6681V10.8631H9.43935V10.4078H11.1381V9.72152H9.43935V9.25947ZM9.09961 9.25947H9.6432L9.6432 11.162H9.09961L9.09961 9.25947ZM7.3941 6.10666L13.4143 6.10666V6.65704L7.3941 6.65704V6.10666ZM8.83461 6.81332L9.38499 6.62986C9.45747 6.74764 9.53221 6.87901 9.60922 7.02396C9.69076 7.16892 9.75418 7.28896 9.79948 7.38409L9.22192 7.60832C9.18115 7.50413 9.12226 7.3773 9.04525 7.22781C8.97277 7.07379 8.90256 6.93563 8.83461 6.81332ZM11.3827 6.67063L12.035 6.80653C11.9263 6.98772 11.813 7.17118 11.6952 7.35691C11.5775 7.54264 11.471 7.69892 11.3759 7.82576L10.8731 7.68306C10.9365 7.58794 10.9999 7.48148 11.0633 7.36371C11.1267 7.24593 11.1856 7.12589 11.24 7.00358C11.2989 6.88127 11.3464 6.77029 11.3827 6.67063ZM9.96256 5.5223L10.5673 5.37281C10.6262 5.50871 10.6851 5.6582 10.744 5.82127C10.8029 5.98435 10.8482 6.12478 10.8799 6.24255L10.2479 6.41922C10.2208 6.30144 10.1777 6.15875 10.1188 5.99115C10.0645 5.81901 10.0124 5.66273 9.96256 5.5223ZM9.47333 7.84614H10.0373C10.0192 8.12246 9.96709 8.35802 9.88102 8.5528C9.79948 8.74759 9.66132 8.9084 9.46653 9.03524C9.27628 9.16208 9.00675 9.264 8.65794 9.34101C8.63529 9.27759 8.59226 9.20285 8.52884 9.11678C8.46995 9.02618 8.41333 8.95597 8.35897 8.90614C8.65341 8.85178 8.87764 8.78156 9.03166 8.6955C9.18568 8.60943 9.29439 8.49845 9.35781 8.36255C9.42123 8.22212 9.45974 8.04999 9.47333 7.84614ZM10.6556 7.85973L11.2332 7.85973V8.4237C11.2332 8.49618 11.24 8.54827 11.2536 8.57998C11.2672 8.61169 11.3034 8.62755 11.3623 8.62755C11.3849 8.62755 11.4167 8.62755 11.4574 8.62755C11.5027 8.62755 11.5503 8.62755 11.6001 8.62755C11.6545 8.62755 11.7043 8.62755 11.7496 8.62755C11.7949 8.62755 11.8289 8.62755 11.8515 8.62755C11.9014 8.62755 11.967 8.62528 12.0486 8.62075C12.1301 8.61169 12.1935 8.60263 12.2388 8.59357C12.2434 8.66605 12.2479 8.7408 12.2524 8.8178C12.2569 8.89028 12.266 8.96276 12.2796 9.03524C12.2343 9.04883 12.1731 9.06015 12.0961 9.06921C12.0191 9.07374 11.9421 9.07601 11.8651 9.07601C11.8334 9.07601 11.7881 9.07601 11.7292 9.07601C11.6703 9.07601 11.6069 9.07601 11.539 9.07601C11.471 9.07601 11.4076 9.07601 11.3487 9.07601C11.2943 9.07601 11.2536 9.07601 11.2264 9.07601C11.0679 9.07601 10.9478 9.05109 10.8663 9.00126C10.7847 8.95144 10.7281 8.87896 10.6964 8.78383C10.6692 8.68417 10.6556 8.56186 10.6556 8.41691V7.85973ZM16.5875 6.3105V7.43165H19.1628V6.3105H16.5875ZM15.9692 5.69217H19.8219V8.04999H15.9692V5.69217ZM15.0043 8.70229L17.498 8.70229V11.6716H16.8593V9.32062H15.6091L15.6091 11.7192L15.0043 11.7192L15.0043 8.70229ZM18.1707 8.70229H20.78V11.6852H20.1344V9.32062H18.7823V11.7192H18.1707V8.70229ZM15.2761 10.7475H17.1243V11.3659H15.2761V10.7475ZM18.4697 10.7475H20.4402V11.3659H18.4697V10.7475ZM23.7765 8.34896V8.86537H26.9769V8.34896H23.7765ZM23.7765 9.34101V9.86421H26.9769V9.34101H23.7765ZM23.7765 7.36371V7.87332L26.9769 7.87332V7.36371L23.7765 7.36371ZM23.1106 6.86768L27.6767 6.86768V10.367H23.1106V6.86768ZM25.7742 10.8291L26.243 10.4146C26.5058 10.5007 26.773 10.5958 27.0448 10.7C27.3166 10.8042 27.5725 10.9084 27.8126 11.0125C28.0572 11.1122 28.2656 11.2051 28.4378 11.2911L27.8126 11.726C27.6586 11.6354 27.4706 11.538 27.2487 11.4338C27.0312 11.3296 26.7957 11.2254 26.542 11.1213C26.2928 11.0171 26.0369 10.9197 25.7742 10.8291ZM22.4855 5.74653L28.1795 5.74653V6.33768L22.4855 6.33768V5.74653ZM25.0131 6.01153L25.781 6.09986C25.7221 6.30371 25.6587 6.50302 25.5907 6.69781C25.5273 6.88807 25.4684 7.05341 25.414 7.19383L24.8025 7.08512C24.8433 6.9311 24.884 6.75443 24.9248 6.55512C24.9656 6.35127 24.995 6.17008 25.0131 6.01153ZM24.3608 10.3738L24.9316 10.8019C24.7323 10.9197 24.5035 11.0352 24.2453 11.1484C23.9871 11.2617 23.7221 11.3659 23.4503 11.461C23.1785 11.5607 22.9226 11.6467 22.6825 11.7192C22.6327 11.6467 22.5647 11.5607 22.4787 11.461C22.3926 11.3659 22.3133 11.2866 22.2408 11.2232C22.4809 11.1552 22.7346 11.076 23.0019 10.9854C23.2691 10.8902 23.5228 10.7906 23.7629 10.6864C24.003 10.5777 24.2023 10.4735 24.3608 10.3738ZM31.8488 8.4237H33.6698V8.93332H31.8488V8.4237ZM31.8488 9.59242H33.6766V10.102H31.8488V9.59242ZM30.4898 10.7747L35.1986 10.7747V11.3659L30.4898 11.3659V10.7747ZM30.0889 7.19383L35.5452 7.19383V11.7192H34.8929V7.79178L30.714 7.79178V11.7192H30.0889V7.19383ZM31.5634 7.58114H32.1477V11.0465H31.5634V7.58114ZM33.4116 7.58114H33.9959V11.0261H33.4116V7.58114ZM32.3992 6.12025L33.1534 6.28332C33.0809 6.51888 33.0062 6.75896 32.9292 7.00358C32.8567 7.24819 32.7865 7.45657 32.7185 7.6287L32.1342 7.47242C32.1704 7.34559 32.2066 7.20289 32.2429 7.04435C32.2791 6.8858 32.3108 6.72499 32.338 6.56191C32.3652 6.39884 32.3856 6.25161 32.3992 6.12025ZM29.7967 5.83486L35.8713 5.83486V6.4464L29.7967 6.4464V5.83486Z" fill="#424242"/>
<rect x="62.2897" y="0.412008" width="28.3205" height="15.4743" rx="7.73717" stroke="#424242" stroke-width="0.679485" stroke-dasharray="1.36 1.36"/>
<path d="M73.7947 8.44409L74.3926 8.22665C74.5013 8.47127 74.6123 8.73174 74.7256 9.00806C74.8388 9.27985 74.9475 9.55391 75.0517 9.83024C75.1559 10.102 75.2465 10.3625 75.3235 10.6116C75.4051 10.8608 75.4707 11.085 75.5206 11.2843L74.8615 11.5493C74.8207 11.3545 74.7618 11.1303 74.6848 10.8766C74.6123 10.623 74.5263 10.3557 74.4266 10.0749C74.3269 9.794 74.2228 9.51541 74.114 9.23908C74.0099 8.95823 73.9034 8.69323 73.7947 8.44409ZM71.9057 11.3387C71.8967 11.2934 71.8785 11.2322 71.8514 11.1552C71.8287 11.0782 71.8015 10.999 71.7698 10.9174C71.7426 10.8359 71.7155 10.7634 71.6883 10.7C71.7789 10.6683 71.8627 10.5731 71.9397 10.4146C72.0167 10.2515 72.1028 10.0363 72.1979 9.76908C72.2387 9.66942 72.2908 9.51767 72.3542 9.31383C72.4176 9.10545 72.4878 8.86084 72.5648 8.57998C72.6464 8.29913 72.7279 7.99563 72.8094 7.66947C72.891 7.33879 72.968 6.99678 73.0405 6.64345C73.1129 6.29012 73.1763 5.94132 73.2307 5.59704L73.917 5.72615C73.84 6.18367 73.7471 6.64572 73.6384 7.1123C73.5342 7.57888 73.4187 8.03866 73.2919 8.49165C73.1696 8.94011 73.0405 9.37045 72.9046 9.78267C72.7732 10.1949 72.6396 10.5777 72.5037 10.931V10.9446C72.5037 10.9446 72.4833 10.9537 72.4425 10.9718C72.4063 10.9899 72.3564 11.0148 72.293 11.0465C72.2341 11.0737 72.1752 11.1054 72.1164 11.1416C72.062 11.1779 72.0122 11.2119 71.9669 11.2436C71.9261 11.2798 71.9057 11.3115 71.9057 11.3387ZM71.9057 11.3387L71.8785 10.7679L72.2319 10.5573L74.8887 10.1768C74.8977 10.2674 74.9113 10.3716 74.9294 10.4893C74.9521 10.6026 74.9725 10.6932 74.9906 10.7611C74.4878 10.8427 74.0642 10.9129 73.7199 10.9718C73.3757 11.0261 73.0948 11.0714 72.8774 11.1077C72.6599 11.1439 72.4878 11.1734 72.361 11.196C72.2387 11.2232 72.1435 11.2481 72.0756 11.2707C72.0076 11.2934 71.951 11.316 71.9057 11.3387ZM70.4788 6.00474H71.1039V11.7124H70.4788V6.00474ZM69.3237 7.32294H72.1775V7.92768H69.3237V7.32294ZM70.5128 7.56076L70.9137 7.74422C70.8367 7.98883 70.7415 8.24251 70.6283 8.50524C70.5196 8.76797 70.3995 9.02618 70.2682 9.27985C70.1413 9.529 70.0054 9.76455 69.8605 9.98652C69.72 10.204 69.5773 10.3919 69.4324 10.5505C69.4007 10.4599 69.3508 10.3557 69.2829 10.2379C69.2195 10.1202 69.1606 10.0205 69.1062 9.93895C69.2421 9.80306 69.378 9.64225 69.5139 9.45652C69.6498 9.26626 69.7812 9.06468 69.908 8.85178C70.0394 8.63887 70.1549 8.42144 70.2546 8.19947C70.3588 7.97751 70.4448 7.7646 70.5128 7.56076ZM71.7902 5.48833L72.1435 6.01832C71.9034 6.10439 71.6317 6.18367 71.3281 6.25614C71.0292 6.32862 70.7211 6.39204 70.404 6.4464C70.087 6.50076 69.7789 6.54606 69.4799 6.5823C69.4709 6.50982 69.4482 6.42602 69.412 6.33089C69.3758 6.23123 69.3395 6.14743 69.3033 6.07948C69.5977 6.03418 69.8967 5.98209 70.2002 5.9232C70.5037 5.86431 70.7936 5.79862 71.0699 5.72615C71.3463 5.64914 71.5864 5.56986 71.7902 5.48833ZM71.0903 7.96845C71.1311 8.00469 71.1877 8.06131 71.2602 8.13832C71.3327 8.2108 71.4142 8.2946 71.5048 8.38973C71.5954 8.48033 71.6837 8.57319 71.7698 8.66832C71.8559 8.75891 71.9329 8.84272 72.0008 8.91973C72.0688 8.99673 72.1186 9.05336 72.1503 9.0896L71.7698 9.6196C71.7245 9.53353 71.6588 9.42934 71.5728 9.30703C71.4912 9.1802 71.4006 9.04883 71.301 8.91293C71.2013 8.77703 71.1062 8.6502 71.0156 8.53242C70.9295 8.41011 70.8548 8.31498 70.7914 8.24704L71.0903 7.96845ZM76.9951 7.47242H78.9452V7.97524H76.9951V7.47242ZM76.9951 8.38293L78.9588 8.38293V8.87896L76.9951 8.87896V8.38293ZM76.7165 6.55512H79.1966V7.07153H76.7165V6.55512ZM77.2533 9.30024H78.952V11.3251H77.2533V10.7951H78.4356V9.82344H77.2533V9.30024ZM76.9951 9.30024L77.4979 9.30024V11.6309L76.9951 11.6309V9.30024ZM77.4231 5.63102L77.8784 5.37961C77.9735 5.52004 78.0641 5.67405 78.1502 5.84166C78.2408 6.00474 78.3133 6.14969 78.3676 6.27653L77.8852 6.56191C77.8399 6.43961 77.7719 6.29012 77.6813 6.11345C77.5953 5.93226 77.5092 5.77145 77.4231 5.63102ZM79.1898 8.32178H81.4457V8.91973H79.1898V8.32178ZM81.6495 5.78051H82.295C82.286 6.20632 82.2792 6.6276 82.2747 7.04435C82.2701 7.45657 82.2679 7.85293 82.2679 8.23345C82.2724 8.61396 82.2792 8.96729 82.2882 9.29344C82.2973 9.6196 82.3132 9.90498 82.3358 10.1496C82.3585 10.3942 82.3879 10.589 82.4241 10.734C82.4649 10.8789 82.5102 10.9582 82.56 10.9718C82.5782 10.9763 82.5917 10.9355 82.6008 10.8495C82.6144 10.7634 82.628 10.6524 82.6416 10.5165C82.6552 10.3806 82.6642 10.2334 82.6688 10.0749C82.7005 10.1292 82.7367 10.1904 82.7775 10.2583C82.8228 10.3217 82.8658 10.3829 82.9066 10.4418C82.9519 10.4961 82.9904 10.5392 83.0221 10.5709C82.9949 10.897 82.9473 11.1439 82.8794 11.3115C82.8114 11.4791 82.7276 11.5833 82.628 11.6241C82.5283 11.6694 82.4173 11.6671 82.295 11.6173C82.1501 11.5629 82.0346 11.4225 81.9485 11.196C81.867 10.9695 81.8035 10.6728 81.7582 10.3059C81.7175 9.93442 81.688 9.51088 81.6699 9.03524C81.6563 8.55507 81.6495 8.04093 81.6495 7.49281C81.6495 6.94016 81.6495 6.36939 81.6495 5.78051ZM80.0459 6.17461H80.6439V11.7192H80.0459V6.17461ZM79.2713 5.78051H81.9485V6.39204H79.2713V5.78051Z" fill="#424242"/>
<rect x="127.185" y="1.41396" width="43.3205" height="15.4705" stroke="#424242" stroke-width="0.679485"/>
<path d="M134.926 6.6514L139.581 6.6514V8.78499H138.928V7.11345L135.551 7.11345V8.78499H134.926V6.6514ZM135.816 7.45999L138.656 7.45999V7.86089L135.816 7.86089V7.45999ZM135.816 8.21422H138.643V8.6355H135.816V8.21422ZM134.213 9.00922H140.253V9.52563H134.213V9.00922ZM137.23 9.87896H139.581V10.3818H137.23V9.87896ZM135.157 9.89255H136.774V10.3546H135.157V9.89255ZM135.157 10.7351H136.774V11.1972H135.157V10.7351ZM138.025 10.341C138.224 10.794 138.525 11.1858 138.928 11.5165C139.336 11.8472 139.821 12.0805 140.382 12.2164C140.342 12.2526 140.296 12.3002 140.246 12.3591C140.197 12.4225 140.149 12.4837 140.104 12.5425C140.063 12.606 140.029 12.6626 140.002 12.7124C139.408 12.5403 138.901 12.2639 138.48 11.8834C138.063 11.4984 137.739 11.0341 137.508 10.4905L138.025 10.341ZM139.438 9.87896H139.553L139.662 9.85857L140.056 10.0149C139.911 10.4814 139.705 10.8914 139.438 11.2447C139.175 11.5935 138.867 11.888 138.514 12.1281C138.165 12.3681 137.789 12.5607 137.386 12.7056C137.35 12.6286 137.297 12.5403 137.23 12.4406C137.162 12.341 137.098 12.2617 137.039 12.2028C137.402 12.0941 137.744 11.9355 138.065 11.7272C138.387 11.5188 138.666 11.2674 138.901 10.9729C139.141 10.6785 139.32 10.3455 139.438 9.97409V9.87896ZM134.131 11.7747C134.358 11.7566 134.614 11.7362 134.899 11.7136C135.189 11.6864 135.495 11.6569 135.816 11.6252C136.138 11.5935 136.462 11.5618 136.788 11.5301L136.795 12.0329C136.333 12.0873 135.873 12.1394 135.415 12.1892C134.958 12.239 134.552 12.2843 134.199 12.3251L134.131 11.7747ZM136.441 9.17229H137.06V12.7192H136.441V9.17229ZM134.77 9.18588H135.361V11.931H134.77V9.18588ZM145.03 9.1655L145.608 9.32857C145.404 9.76344 145.141 10.1734 144.819 10.5584C144.498 10.939 144.16 11.256 143.807 11.5097C143.78 11.4644 143.739 11.4123 143.685 11.3534C143.63 11.2946 143.576 11.2357 143.522 11.1768C143.467 11.1179 143.42 11.0703 143.379 11.0341C143.719 10.8166 144.033 10.5449 144.323 10.2187C144.618 9.89255 144.853 9.54148 145.03 9.1655ZM146.26 8.35691L146.756 8.1055C146.883 8.25499 147.014 8.42033 147.15 8.60153C147.29 8.77819 147.422 8.95259 147.544 9.12473C147.666 9.29687 147.764 9.44862 147.836 9.57998L147.313 9.88575C147.245 9.74986 147.152 9.59357 147.035 9.41691C146.917 9.24024 146.79 9.05905 146.654 8.87332C146.518 8.68759 146.387 8.51546 146.26 8.35691ZM144.099 9.89255C144.312 10.2866 144.595 10.6377 144.948 10.9457C145.306 11.2538 145.723 11.512 146.199 11.7204C146.679 11.9242 147.204 12.076 147.775 12.1756C147.734 12.2209 147.689 12.2775 147.639 12.3455C147.589 12.4134 147.542 12.4814 147.497 12.5493C147.451 12.6173 147.415 12.6784 147.388 12.7328C146.803 12.6105 146.269 12.4293 145.784 12.1892C145.3 11.9491 144.871 11.6524 144.5 11.2991C144.133 10.9412 143.825 10.5313 143.576 10.0692L144.099 9.89255ZM144.948 9.91973H146.871V10.4429H144.486L144.948 9.91973ZM146.661 9.91973H146.783L146.892 9.89255L147.293 10.0896C147.134 10.4656 146.926 10.8008 146.668 11.0952C146.414 11.3851 146.122 11.6388 145.791 11.8563C145.46 12.0692 145.105 12.2481 144.724 12.3931C144.344 12.538 143.95 12.6558 143.542 12.7464C143.524 12.692 143.497 12.6309 143.46 12.5629C143.424 12.495 143.386 12.427 143.345 12.3591C143.309 12.2957 143.27 12.2413 143.229 12.196C143.605 12.1281 143.972 12.0329 144.33 11.9106C144.688 11.7883 145.019 11.6366 145.322 11.4554C145.626 11.2742 145.893 11.0635 146.124 10.8234C146.355 10.5834 146.534 10.3138 146.661 10.0149V9.91973ZM143.06 7.83371L143.63 8.03755C143.49 8.30935 143.325 8.58114 143.134 8.85293C142.944 9.12473 142.742 9.38067 142.53 9.62075C142.321 9.85631 142.108 10.0669 141.891 10.2527C141.873 10.2028 141.843 10.1417 141.802 10.0692C141.762 9.99673 141.716 9.92199 141.667 9.84498C141.617 9.76797 141.574 9.70909 141.537 9.66832C141.823 9.44182 142.101 9.1655 142.373 8.83935C142.65 8.51319 142.878 8.17798 143.06 7.83371ZM142.917 6.41358L143.488 6.63102C143.361 6.8258 143.211 7.02512 143.039 7.22897C142.872 7.42828 142.693 7.61854 142.502 7.79973C142.317 7.9764 142.131 8.13721 141.945 8.28217C141.923 8.23687 141.889 8.18704 141.843 8.13268C141.802 8.07379 141.759 8.0149 141.714 7.95601C141.673 7.89713 141.635 7.84956 141.599 7.81332C141.762 7.69102 141.927 7.55059 142.095 7.39204C142.262 7.2335 142.416 7.07042 142.557 6.90281C142.702 6.73068 142.822 6.5676 142.917 6.41358ZM142.448 9.18588L142.985 8.64229L143.06 8.67627L143.06 12.7396H142.448V9.18588ZM143.827 8.35691C143.818 8.30708 143.8 8.24593 143.773 8.17345C143.75 8.10097 143.725 8.02623 143.698 7.94922C143.671 7.86768 143.646 7.79973 143.623 7.74537C143.691 7.73178 143.762 7.7046 143.834 7.66384C143.907 7.61854 143.986 7.56644 144.072 7.50755C144.135 7.46679 144.233 7.39431 144.364 7.29012C144.495 7.1814 144.64 7.05456 144.799 6.90961C144.958 6.76465 145.103 6.6129 145.234 6.45435L145.866 6.73974C145.612 6.98888 145.34 7.22897 145.05 7.45999C144.76 7.69101 144.475 7.8858 144.194 8.04435V8.05794C144.194 8.05794 144.176 8.06926 144.14 8.09191C144.104 8.11003 144.061 8.13495 144.011 8.16665C143.961 8.19383 143.918 8.22554 143.882 8.26178C143.845 8.29349 143.827 8.3252 143.827 8.35691ZM143.827 8.35691L143.821 7.93563L144.133 7.76576L145.92 7.72499C145.875 7.79294 145.827 7.87674 145.777 7.9764C145.732 8.07153 145.696 8.1508 145.669 8.21422C145.302 8.22781 145.005 8.2414 144.779 8.25499C144.552 8.26405 144.375 8.27537 144.249 8.28896C144.122 8.29802 144.029 8.30935 143.97 8.32294C143.911 8.332 143.864 8.34332 143.827 8.35691ZM143.678 9.61396C143.669 9.57319 143.653 9.51657 143.63 9.44409C143.608 9.37161 143.585 9.29686 143.562 9.21986C143.54 9.14285 143.515 9.07716 143.488 9.02281C143.592 9.00469 143.703 8.96845 143.821 8.91409C143.943 8.85973 144.086 8.78499 144.249 8.68986C144.339 8.64456 144.471 8.56982 144.643 8.46563C144.815 8.35691 145.012 8.22781 145.234 8.07832C145.456 7.92883 145.682 7.76576 145.913 7.58909C146.144 7.4079 146.36 7.22444 146.559 7.03871L147.15 7.36486C146.661 7.77708 146.149 8.14854 145.614 8.47922C145.084 8.8099 144.563 9.09302 144.052 9.32857V9.34896C144.052 9.34896 144.033 9.35802 143.997 9.37614C143.961 9.38973 143.916 9.41238 143.861 9.44409C143.811 9.47127 143.768 9.50071 143.732 9.53242C143.696 9.5596 143.678 9.58678 143.678 9.61396ZM143.678 9.61396L143.664 9.17909L144.011 8.98883L147.116 8.82576C147.121 8.89823 147.13 8.9843 147.143 9.08396C147.161 9.17909 147.177 9.2561 147.191 9.31498C146.602 9.35122 146.108 9.38293 145.71 9.41011C145.311 9.43729 144.987 9.45994 144.738 9.47806C144.489 9.49618 144.294 9.51204 144.153 9.52563C144.018 9.53921 143.913 9.5528 143.841 9.56639C143.773 9.57998 143.719 9.59584 143.678 9.61396ZM152.423 9.70229H155.025V10.1847H152.423V9.70229ZM152.423 10.8031H155.025V11.2855H152.423V10.8031ZM152.416 11.9038L155.29 11.9038V12.4406L152.416 12.4406V11.9038ZM151.512 7.07948L155.188 7.07948V8.26178H154.611V7.62986H152.063V8.27537H151.512V7.07948ZM153.537 8.99563H154.128V12.1688H153.537V8.99563ZM152.633 8.57435H155.114V9.11793H152.633V12.7192H152.022V9.13832L152.572 8.57435H152.633ZM153.191 6.3932L153.795 6.5223C153.592 7.24708 153.306 7.89939 152.939 8.47922C152.577 9.05452 152.133 9.52789 151.607 9.89934C151.585 9.85404 151.551 9.79742 151.506 9.72947C151.465 9.65699 151.419 9.58678 151.37 9.51883C151.324 9.44635 151.281 9.38973 151.241 9.34896C151.716 9.03187 152.117 8.61964 152.443 8.1123C152.774 7.60495 153.023 7.03191 153.191 6.3932ZM153.367 8.03076L153.904 7.82012C153.981 7.95148 154.056 8.09644 154.128 8.25499C154.201 8.41353 154.257 8.54943 154.298 8.66268L153.734 8.90729C153.698 8.78952 153.644 8.64909 153.571 8.48601C153.503 8.31841 153.435 8.16665 153.367 8.03076ZM149.127 6.88243H151.376V7.46679H149.127V6.88243ZM149.82 8.88691H151.308V11.8698H149.82V11.3059H150.751V9.44409H149.82V8.88691ZM149.949 7.10666L150.554 7.20179C150.482 7.66837 150.389 8.12362 150.276 8.56755C150.162 9.00695 150.024 9.41917 149.861 9.80421C149.703 10.1847 149.515 10.5177 149.297 10.8031C149.275 10.7578 149.243 10.6989 149.202 10.6264C149.161 10.5494 149.116 10.4724 149.066 10.3954C149.021 10.3184 148.98 10.2572 148.944 10.2119C149.125 9.96729 149.279 9.68191 149.406 9.35575C149.537 9.0296 149.646 8.67627 149.732 8.29576C149.823 7.91072 149.895 7.51435 149.949 7.10666ZM149.589 8.88691H150.14V12.3863H149.589V8.88691ZM161.983 6.66499H162.595C162.595 6.66499 162.592 6.68085 162.588 6.71256C162.588 6.74427 162.586 6.78051 162.581 6.82127C162.581 6.86204 162.581 6.89602 162.581 6.9232C162.558 7.49396 162.534 7.95601 162.506 8.30935C162.479 8.65815 162.445 8.92541 162.404 9.11114C162.368 9.29234 162.321 9.42144 162.262 9.49845C162.198 9.57545 162.13 9.62981 162.058 9.66152C161.985 9.6887 161.899 9.70909 161.8 9.72268C161.709 9.73627 161.594 9.74306 161.453 9.74306C161.313 9.73853 161.166 9.734 161.012 9.72947C161.007 9.64793 160.989 9.55507 160.957 9.45088C160.93 9.34216 160.891 9.2493 160.842 9.17229C160.987 9.18588 161.12 9.19494 161.243 9.19947C161.369 9.19947 161.46 9.19947 161.514 9.19947C161.569 9.19947 161.612 9.19494 161.643 9.18588C161.675 9.17682 161.707 9.15644 161.739 9.12473C161.779 9.0749 161.813 8.96845 161.84 8.80537C161.872 8.63776 161.899 8.39088 161.922 8.06473C161.949 7.73858 161.97 7.30824 161.983 6.77371V6.66499ZM160.59 6.89602H161.168C161.141 7.23576 161.098 7.55965 161.039 7.86768C160.98 8.17571 160.887 8.46336 160.76 8.73063C160.633 8.99789 160.459 9.24024 160.237 9.45768C160.019 9.67511 159.739 9.8631 159.394 10.0216C159.358 9.94917 159.304 9.86763 159.231 9.77703C159.163 9.68644 159.095 9.61396 159.027 9.5596C159.345 9.42823 159.6 9.26969 159.795 9.08396C159.99 8.89823 160.14 8.69212 160.244 8.46563C160.352 8.2346 160.432 7.98772 160.482 7.72499C160.536 7.45773 160.572 7.1814 160.59 6.89602ZM159.197 6.66499L162.194 6.66499V7.20858L159.197 7.20858V6.66499ZM159.748 10.2731H160.305V11.8563C160.305 11.9423 160.321 11.999 160.352 12.0261C160.384 12.0533 160.457 12.0669 160.57 12.0669C160.597 12.0669 160.64 12.0669 160.699 12.0669C160.762 12.0669 160.83 12.0669 160.903 12.0669C160.98 12.0669 161.05 12.0669 161.113 12.0669C161.181 12.0669 161.233 12.0669 161.27 12.0669C161.338 12.0669 161.39 12.0465 161.426 12.0057C161.462 11.965 161.487 11.8834 161.501 11.7611C161.519 11.6343 161.53 11.444 161.535 11.1904C161.598 11.2311 161.677 11.2719 161.773 11.3127C161.872 11.3534 161.961 11.3829 162.038 11.401C162.015 11.7136 161.981 11.9559 161.936 12.1281C161.89 12.2957 161.82 12.4112 161.725 12.4746C161.63 12.5425 161.496 12.5765 161.324 12.5765C161.292 12.5765 161.236 12.5765 161.154 12.5765C161.077 12.5765 160.993 12.5765 160.903 12.5765C160.817 12.5765 160.735 12.5765 160.658 12.5765C160.581 12.5765 160.527 12.5765 160.495 12.5765C160.296 12.5765 160.142 12.5539 160.033 12.5086C159.929 12.4678 159.854 12.3953 159.809 12.2911C159.768 12.1869 159.748 12.042 159.748 11.8563V10.2731ZM159.177 10.409L159.632 10.5449C159.605 10.7125 159.571 10.8914 159.53 11.0816C159.489 11.2674 159.44 11.4486 159.381 11.6252C159.326 11.7974 159.261 11.9469 159.184 12.0737L158.728 11.8766C158.805 11.7498 158.871 11.6048 158.925 11.4418C158.984 11.2787 159.034 11.1066 159.075 10.9254C159.12 10.7442 159.154 10.572 159.177 10.409ZM160.318 9.98767L160.706 9.74306C160.846 9.89708 160.987 10.0669 161.127 10.2527C161.272 10.4384 161.381 10.5992 161.453 10.7351L161.045 11.0273C160.973 10.8869 160.867 10.7193 160.726 10.5245C160.59 10.3252 160.454 10.1462 160.318 9.98767ZM161.827 10.2866L162.269 10.1304C162.355 10.2799 162.436 10.4429 162.513 10.6196C162.595 10.7963 162.667 10.9661 162.731 11.1292C162.794 11.2923 162.842 11.4372 162.873 11.5641L162.384 11.7475C162.357 11.6207 162.314 11.4757 162.255 11.3127C162.201 11.1451 162.135 10.9729 162.058 10.7963C161.985 10.6151 161.908 10.4452 161.827 10.2866ZM159.197 7.72499L159.537 7.37166C159.659 7.46679 159.791 7.57324 159.931 7.69102C160.072 7.80879 160.205 7.92204 160.332 8.03076C160.463 8.13948 160.568 8.2346 160.645 8.31614L160.291 8.71704C160.214 8.63097 160.112 8.52905 159.985 8.41127C159.859 8.29349 159.725 8.17571 159.585 8.05794C159.449 7.93563 159.32 7.82465 159.197 7.72499ZM157.179 6.62422L157.723 6.42717C157.809 6.57213 157.89 6.73068 157.967 6.90281C158.049 7.07042 158.112 7.21538 158.158 7.33768L157.587 7.56191C157.551 7.43508 157.492 7.28332 157.41 7.10666C157.333 6.92999 157.256 6.76918 157.179 6.62422ZM156.697 8.47922H158.783V8.97524H156.697V8.47922ZM156.697 9.39652H158.783V9.89255H156.697V9.39652ZM156.507 7.54153H158.939V8.05794H156.507V7.54153ZM156.982 10.3274H158.756V12.3455L156.982 12.3455V11.8291H158.212V10.8438H156.982V10.3274ZM156.69 10.3274H157.227V12.6377H156.69V10.3274Z" fill="#424242"/>
<rect x="127.185" y="23.5644" width="43.3205" height="15.4705" stroke="#424242" stroke-width="0.679485"/>
<path d="M138.215 31.4042L138.867 31.5945C138.613 32.206 138.278 32.727 137.861 33.1573C137.449 33.5831 136.965 33.9342 136.407 34.2105C135.85 34.4823 135.23 34.7043 134.546 34.8764C134.523 34.8266 134.489 34.7654 134.444 34.6929C134.398 34.6205 134.349 34.548 134.294 34.4755C134.244 34.403 134.199 34.3441 134.158 34.2988C134.829 34.1629 135.431 33.9749 135.966 33.7349C136.5 33.4902 136.958 33.1777 137.338 32.7972C137.719 32.4167 138.011 31.9523 138.215 31.4042ZM135.945 30.2423L136.57 30.4869C136.412 30.6817 136.231 30.8765 136.027 31.0713C135.828 31.2661 135.619 31.4495 135.402 31.6217C135.184 31.7893 134.976 31.9387 134.777 32.0701C134.74 32.0248 134.691 31.9727 134.627 31.9138C134.564 31.8549 134.5 31.7961 134.437 31.7372C134.373 31.6738 134.317 31.6262 134.267 31.5945C134.471 31.4858 134.675 31.3589 134.879 31.214C135.087 31.0645 135.284 30.9082 135.47 30.7451C135.655 30.5775 135.814 30.4099 135.945 30.2423ZM136.299 31.4382C136.611 32.1992 137.107 32.8176 137.787 33.2932C138.466 33.7643 139.322 34.0837 140.355 34.2513C140.314 34.292 140.267 34.3464 140.212 34.4143C140.163 34.4868 140.115 34.5593 140.07 34.6318C140.024 34.7043 139.988 34.7699 139.961 34.8288C139.241 34.6929 138.609 34.4868 138.065 34.2105C137.526 33.9296 137.062 33.574 136.672 33.1437C136.287 32.7134 135.97 32.206 135.721 31.6217L136.299 31.4382ZM134.274 29.4677H140.199V30.0928H134.274V29.4677ZM137.977 30.5888L138.487 30.2219C138.686 30.3578 138.897 30.5118 139.119 30.684C139.345 30.8561 139.558 31.0282 139.757 31.2004C139.957 31.3725 140.117 31.5311 140.24 31.676L139.696 32.0973C139.583 31.9523 139.431 31.7915 139.241 31.6149C139.051 31.4337 138.844 31.2547 138.622 31.0781C138.401 30.8969 138.185 30.7338 137.977 30.5888ZM136.632 28.6999L137.243 28.4892C137.338 28.6297 137.433 28.7859 137.529 28.9581C137.624 29.1302 137.694 29.2774 137.739 29.3997L137.1 29.6444C137.06 29.5175 136.994 29.3658 136.903 29.1891C136.817 29.0124 136.727 28.8494 136.632 28.6999ZM141.51 32.0973C141.773 32.0248 142.088 31.932 142.455 31.8187C142.826 31.7009 143.2 31.5809 143.576 31.4586L143.671 32.0361C143.327 32.1539 142.978 32.274 142.625 32.3963C142.276 32.514 141.956 32.6205 141.667 32.7156L141.51 32.0973ZM141.592 29.8958H143.61V30.4937H141.592V29.8958ZM142.353 28.5572H142.964V34.0882C142.964 34.2513 142.946 34.3804 142.91 34.4755C142.878 34.5752 142.815 34.6499 142.72 34.6997C142.629 34.7541 142.514 34.7903 142.373 34.8084C142.233 34.8266 142.058 34.8356 141.85 34.8356C141.841 34.7496 141.818 34.6454 141.782 34.5231C141.75 34.4008 141.714 34.2943 141.673 34.2037C141.8 34.2082 141.916 34.2105 142.02 34.2105C142.129 34.2105 142.203 34.2105 142.244 34.2105C142.317 34.2105 142.353 34.172 142.353 34.095V28.5572ZM144.921 28.564L145.519 28.6591C145.415 28.9128 145.29 29.1687 145.146 29.4269C145.005 29.6806 144.838 29.9297 144.643 30.1744C144.452 30.419 144.231 30.65 143.977 30.8674C143.954 30.8221 143.92 30.7723 143.875 30.7179C143.83 30.6636 143.782 30.6115 143.732 30.5617C143.682 30.5118 143.637 30.4711 143.596 30.4394C143.818 30.2582 144.013 30.0611 144.181 29.8482C144.353 29.6353 144.5 29.4179 144.622 29.1959C144.749 28.9739 144.849 28.7633 144.921 28.564ZM144.996 29.0872L146.328 29.0872V29.6036L144.697 29.6036L144.996 29.0872ZM144.099 30.2015L147.442 30.2015V32.9331H146.892V30.7247L144.629 30.7247V32.9331H144.099L144.099 30.2015ZM143.569 32.7564H147.863V33.2796H143.569V32.7564ZM145.451 32.1381H146.07C146.042 32.505 145.99 32.8357 145.913 33.1301C145.836 33.42 145.714 33.6782 145.546 33.9047C145.379 34.1267 145.143 34.3169 144.84 34.4755C144.541 34.6386 144.153 34.7722 143.678 34.8764C143.651 34.7994 143.605 34.711 143.542 34.6114C143.479 34.5117 143.417 34.4325 143.358 34.3736C143.793 34.292 144.142 34.1878 144.405 34.061C144.668 33.9296 144.871 33.7734 145.016 33.5922C145.161 33.411 145.263 33.2003 145.322 32.9602C145.381 32.7156 145.424 32.4416 145.451 32.1381ZM146.165 29.0872H146.287L146.382 29.0668L146.763 29.3114C146.695 29.4473 146.618 29.59 146.532 29.7395C146.446 29.889 146.355 30.0317 146.26 30.1676C146.165 30.3035 146.072 30.4235 145.981 30.5277C145.931 30.4869 145.866 30.4416 145.784 30.3918C145.703 30.3374 145.63 30.2967 145.567 30.2695C145.648 30.1698 145.725 30.0588 145.798 29.9365C145.875 29.8097 145.945 29.6806 146.008 29.5492C146.072 29.4179 146.124 29.3001 146.165 29.1959V29.0872ZM145.655 30.6364L146.138 30.7587C146.02 31.035 145.861 31.2978 145.662 31.5469C145.467 31.7915 145.263 31.9976 145.05 32.1652C145.005 32.1199 144.939 32.0679 144.853 32.009C144.767 31.9455 144.695 31.898 144.636 31.8663C144.853 31.7168 145.053 31.5356 145.234 31.3227C145.415 31.1052 145.555 30.8765 145.655 30.6364ZM145.519 31.3227L145.811 31.0169C145.938 31.0849 146.072 31.1641 146.212 31.2547C146.357 31.3408 146.493 31.4314 146.62 31.5265C146.747 31.6171 146.851 31.7009 146.933 31.7779L146.64 32.1313C146.559 32.0497 146.455 31.9614 146.328 31.8663C146.206 31.7711 146.072 31.676 145.927 31.5809C145.787 31.4858 145.651 31.3997 145.519 31.3227ZM145.961 33.6261L146.355 33.2864C146.523 33.4042 146.704 33.5378 146.899 33.6873C147.098 33.8322 147.288 33.9772 147.469 34.1222C147.655 34.2626 147.805 34.3849 147.918 34.4891L147.503 34.89C147.39 34.7813 147.245 34.6522 147.068 34.5027C146.896 34.3577 146.711 34.2082 146.511 34.0542C146.317 33.9002 146.133 33.7575 145.961 33.6261ZM150.615 32.1788V32.5661H153.836V32.1788H150.615ZM150.615 32.9534V33.3475L153.836 33.3475V32.9534H150.615ZM150.615 31.4042V31.7847H153.836V31.4042H150.615ZM149.997 30.9965H154.482V33.7552H149.997V30.9965ZM152.79 34.0746L153.218 33.7349C153.462 33.8119 153.707 33.8957 153.952 33.9863C154.196 34.0769 154.427 34.1675 154.645 34.2581C154.867 34.3441 155.057 34.4257 155.216 34.5027L154.638 34.856C154.498 34.779 154.328 34.6952 154.128 34.6046C153.934 34.5185 153.721 34.4279 153.49 34.3328C153.259 34.2422 153.025 34.1561 152.79 34.0746ZM151.118 33.7484L151.709 34.0134C151.524 34.1267 151.311 34.2377 151.071 34.3464C150.831 34.4551 150.581 34.5525 150.323 34.6386C150.07 34.7292 149.827 34.8062 149.596 34.8696C149.564 34.8288 149.519 34.7767 149.46 34.7133C149.406 34.6544 149.347 34.5955 149.284 34.5366C149.225 34.4778 149.17 34.4302 149.121 34.394C149.356 34.3487 149.596 34.292 149.841 34.2241C150.09 34.1561 150.325 34.0837 150.547 34.0066C150.769 33.9251 150.96 33.839 151.118 33.7484ZM151.906 28.9988H154.679V29.4813H151.906V28.9988ZM151.988 28.5368L152.559 28.6591C152.468 28.9445 152.344 29.2163 152.185 29.4745C152.026 29.7327 151.857 29.9501 151.675 30.1268C151.644 30.0906 151.598 30.052 151.539 30.0113C151.481 29.9705 151.419 29.932 151.356 29.8958C151.293 29.855 151.238 29.821 151.193 29.7938C151.374 29.6398 151.533 29.4518 151.669 29.2299C151.804 29.0034 151.911 28.7723 151.988 28.5368ZM152.749 29.3454H153.34V29.5968C153.34 29.7191 153.315 29.8482 153.265 29.9841C153.216 30.1155 153.118 30.2446 152.973 30.3714C152.828 30.4937 152.611 30.607 152.321 30.7111C152.036 30.8153 151.653 30.8991 151.173 30.9626C151.141 30.8901 151.091 30.8063 151.023 30.7111C150.96 30.6115 150.899 30.5345 150.84 30.4801C151.27 30.4348 151.612 30.3759 151.866 30.3035C152.124 30.231 152.314 30.154 152.436 30.0724C152.563 29.9909 152.647 29.9071 152.688 29.821C152.729 29.7304 152.749 29.6466 152.749 29.5696V29.3454ZM153.272 29.6919C153.385 29.8278 153.544 29.9479 153.748 30.052C153.952 30.1562 154.187 30.24 154.454 30.3035C154.726 30.3669 155.021 30.4099 155.338 30.4326C155.274 30.4914 155.209 30.573 155.141 30.6772C155.073 30.7768 155.021 30.8674 154.984 30.949C154.645 30.8991 154.334 30.8244 154.054 30.7247C153.777 30.6251 153.535 30.4982 153.327 30.3442C153.118 30.1857 152.948 30 152.817 29.787L153.272 29.6919ZM149.25 28.9377H150.935V29.4201H149.25V28.9377ZM149.1 29.9909H151.105V30.4937H149.1V29.9909ZM154.461 28.9988H154.563L154.658 28.9717L155.1 29.1144C155.014 29.2956 154.917 29.4813 154.808 29.6715C154.704 29.8573 154.602 30.0135 154.502 30.1404L153.999 29.9569C154.076 29.8437 154.158 29.7078 154.244 29.5492C154.334 29.3862 154.407 29.2321 154.461 29.0872V28.9988ZM156.839 30.6228H158.79V31.1256H156.839V30.6228ZM156.839 31.5333H158.803V32.0293L156.839 32.0293V31.5333ZM156.561 29.7055H159.041V30.2219H156.561V29.7055ZM157.098 32.4506L158.796 32.4506V34.4755H157.098V33.9455H158.28V32.9738H157.098V32.4506ZM156.839 32.4506H157.342V34.7813H156.839V32.4506ZM157.268 28.7814L157.723 28.53C157.818 28.6704 157.909 28.8244 157.995 28.992C158.085 29.1551 158.158 29.3001 158.212 29.4269L157.73 29.7123C157.684 29.59 157.616 29.4405 157.526 29.2638C157.44 29.0826 157.354 28.9218 157.268 28.7814ZM159.034 31.4722H161.29V32.0701H159.034V31.4722ZM161.494 28.9309H162.139C162.13 29.3567 162.124 29.778 162.119 30.1947C162.115 30.607 162.112 31.0033 162.112 31.3838C162.117 31.7643 162.124 32.1177 162.133 32.4438C162.142 32.77 162.158 33.0554 162.18 33.3C162.203 33.5446 162.232 33.7394 162.269 33.8843C162.309 34.0293 162.355 34.1086 162.404 34.1222C162.423 34.1267 162.436 34.0859 162.445 33.9999C162.459 33.9138 162.472 33.8028 162.486 33.6669C162.5 33.531 162.509 33.3838 162.513 33.2252C162.545 33.2796 162.581 33.3408 162.622 33.4087C162.667 33.4721 162.71 33.5333 162.751 33.5922C162.796 33.6465 162.835 33.6896 162.867 33.7213C162.839 34.0474 162.792 34.2943 162.724 34.4619C162.656 34.6295 162.572 34.7337 162.472 34.7745C162.373 34.8198 162.262 34.8175 162.139 34.7677C161.995 34.7133 161.879 34.5729 161.793 34.3464C161.711 34.1199 161.648 33.8232 161.603 33.4563C161.562 33.0848 161.532 32.6613 161.514 32.1856C161.501 31.7055 161.494 31.1913 161.494 30.6432C161.494 30.0906 161.494 29.5198 161.494 28.9309ZM159.89 29.325H160.488V34.8696H159.89V29.325ZM159.116 28.9309H161.793V29.5424H159.116V28.9309Z" fill="#424242"/>
</g>
<defs>
<clipPath id="clip0_152_6057">
<rect width="200" height="200" fill="white" transform="translate(0 0.0722656)"/>
</clipPath>
</defs>
</svg>
