<svg width="52" height="53" viewBox="0 0 52 53" fill="none" xmlns="http://www.w3.org/2000/svg">
<path fill-rule="evenodd" clip-rule="evenodd" d="M35.5511 23.6193L46.13 30.6719H42.1232C40.9549 30.6719 40.0077 31.619 40.0077 32.7874C40.0077 33.9558 40.9549 34.903 42.1232 34.903H48.47C51.8104 34.903 53.3029 30.6687 50.6276 28.5918C50.5874 28.5606 50.5461 28.5309 50.5038 28.5026L36.929 19.4528C34.6063 17.7424 31.32 19.4018 31.32 22.2943V30.6719H2.11142C0.943039 30.6719 -0.00411987 31.619 -0.00411987 32.7874C-0.00411987 33.9558 0.943039 34.903 2.11142 34.903H32.0252C33.9692 34.903 35.5511 33.3211 35.5511 31.3771V23.6193Z" fill="#43B71B"/>
</svg>
