<svg width="234" height="308" viewBox="0 0 234 308" fill="none" xmlns="http://www.w3.org/2000/svg">
<g clip-path="url(#clip0_41_6083)">
<path fill-rule="evenodd" clip-rule="evenodd" d="M114.298 210.457L72.596 273.01L72.596 249.318C72.596 242.41 66.9954 236.809 60.0866 236.809C53.1779 236.809 47.5773 242.41 47.5773 249.318L47.5773 286.847C47.5773 306.599 72.6147 315.425 84.8957 299.605C85.0802 299.367 85.256 299.123 85.4228 298.873L138.935 218.605C149.049 204.87 139.237 185.438 122.133 185.438L72.596 185.438L72.596 12.7257C72.596 5.81699 66.9954 0.216371 60.0866 0.216371C53.1779 0.216371 47.5773 5.81699 47.5773 12.7257L47.5773 189.608C47.5773 201.103 56.9307 210.457 68.4262 210.457L114.298 210.457Z" fill="#43B71B"/>
</g>
<defs>
<clipPath id="clip0_41_6083">
<rect width="307.479" height="95.4045" fill="white" transform="matrix(-1.19249e-08 -1 -1 1.19249e-08 142.977 307.704)"/>
</clipPath>
</defs>
</svg>
