<svg width="277" height="309" viewBox="0 0 277 309" fill="none" xmlns="http://www.w3.org/2000/svg">
<g clip-path="url(#clip0_122_5702)">
<path fill-rule="evenodd" clip-rule="evenodd" d="M233.766 92.4944H43.1924L30.5509 283.207H246.335L233.766 92.4944ZM236.753 67.6973C242.2 67.6876 247.45 69.7396 251.447 73.4414C255.448 77.1478 257.897 82.2328 258.299 87.6724L258.306 87.7716L271.306 285.022C271.499 287.956 271.09 290.9 270.104 293.67C269.118 296.44 267.576 298.979 265.572 301.132C263.569 303.284 261.147 305.004 258.455 306.186C255.763 307.367 252.857 307.986 249.917 308.004L249.842 308.004L26.9682 308.004C24.0276 307.986 21.1221 307.367 18.4301 306.186C15.7379 305.004 13.3157 303.284 11.3124 301.132C9.30912 298.979 7.76713 296.44 6.78115 293.67C5.79518 290.9 5.38606 287.958 5.57891 285.024L18.6542 87.7673C18.6542 87.7672 18.6542 87.7674 18.6542 87.7673C19.0154 82.3175 21.438 77.2093 25.4298 73.4814C29.4177 69.7572 34.6728 67.6895 40.1287 67.6973C40.1342 67.6973 40.1396 67.6973 40.1451 67.6973L40.1179 80.0959V67.6973H40.1287H236.753ZM236.753 67.6973C236.747 67.6973 236.74 67.6973 236.733 67.6973L236.767 80.0959V67.6973H236.753Z" fill="#787878"/>
<path fill-rule="evenodd" clip-rule="evenodd" d="M137.497 25.3683C132.867 25.0285 128.216 25.646 123.835 27.1821C119.454 28.7182 115.436 31.1402 112.031 34.297C108.627 37.4538 105.909 41.2778 104.047 45.5309C102.187 49.7802 101.221 54.3667 101.209 59.0052V119.631C101.209 126.478 95.6577 132.029 88.8102 132.029C81.9627 132.029 76.4116 126.478 76.4116 119.631V58.9631C76.4293 50.9157 78.104 42.9581 81.3314 35.5861C84.5588 28.2142 89.2698 21.5858 95.1707 16.114C101.072 10.6422 108.036 6.44424 115.63 3.7816C123.078 1.17043 130.974 0.0907034 138.846 0.60531C167.393 0.728332 183.767 12.7743 192.296 26.6481C196.34 33.2259 198.316 39.7128 199.296 44.4974C199.791 46.9108 200.046 48.9584 200.178 50.4643C200.244 51.2194 200.28 51.8449 200.3 52.3195C200.309 52.5571 200.315 52.7575 200.318 52.9182L200.321 53.1294L200.322 53.2122L200.322 53.2478L200.322 53.2642C200.322 53.2719 200.322 53.2796 187.924 53.2796H200.322V119.631C200.322 126.478 194.771 132.029 187.924 132.029C181.076 132.029 175.525 126.478 175.525 119.631V53.3797C175.525 53.3679 175.524 53.353 175.523 53.3349C175.519 53.2196 175.506 52.9798 175.476 52.6336C175.415 51.9368 175.283 50.8378 175.004 49.4752C174.437 46.708 173.318 43.1258 171.171 39.6344C167.364 33.4413 159.104 25.4015 138.405 25.4015C138.102 25.4015 137.799 25.3904 137.497 25.3683Z" fill="#787878"/>
</g>
<defs>
<clipPath id="clip0_122_5702">
<rect width="265.856" height="307.485" fill="white" transform="translate(5.54932 0.592773)"/>
</clipPath>
</defs>
</svg>
