<svg width="309" height="278" viewBox="0 0 309 278" fill="none" xmlns="http://www.w3.org/2000/svg">
<g clip-path="url(#clip0_120_5557)">
<path fill-rule="evenodd" clip-rule="evenodd" d="M25.6119 58.8189V219.608H287.228C294.137 219.608 299.738 225.209 299.738 232.118C299.738 239.027 294.137 244.627 287.228 244.627H21.442C9.94635 244.627 0.592773 235.274 0.592773 223.778V54.649C0.592773 43.1534 9.94635 33.7998 21.442 33.7998H287.228C298.724 33.7998 308.077 43.1534 308.077 54.649V186.833C308.077 193.742 302.477 199.343 295.568 199.343C288.659 199.343 283.058 193.742 283.058 186.833V58.8189H25.6119Z" fill="#43B71B"/>
<path fill-rule="evenodd" clip-rule="evenodd" d="M295.565 113.285H13.0991V79.9258H295.565V113.285Z" fill="#43B71B"/>
<path fill-rule="evenodd" clip-rule="evenodd" d="M38.0435 143.473C38.0435 136.565 43.6442 130.964 50.553 130.964H121.357C128.266 130.964 133.867 136.565 133.867 143.473C133.867 150.382 128.266 155.983 121.357 155.983H50.553C43.6442 155.983 38.0435 150.382 38.0435 143.473Z" fill="#43B71B"/>
</g>
<defs>
<clipPath id="clip0_120_5557">
<rect width="307.485" height="210.828" fill="white" transform="translate(0.592773 33.7998)"/>
</clipPath>
</defs>
</svg>
