<svg width="309" height="278" viewBox="0 0 309 278" fill="none" xmlns="http://www.w3.org/2000/svg">
<g clip-path="url(#clip0_122_5701)">
<path fill-rule="evenodd" clip-rule="evenodd" d="M25.754 58.8199V219.609H287.37C294.279 219.609 299.88 225.21 299.88 232.119C299.88 239.028 294.279 244.628 287.37 244.628H21.5841C10.0884 244.628 0.734863 235.275 0.734863 223.779V54.65C0.734863 43.1544 10.0884 33.8008 21.5841 33.8008H287.37C298.866 33.8008 308.22 43.1544 308.22 54.65V186.834C308.22 193.743 302.619 199.344 295.71 199.344C288.801 199.344 283.2 193.743 283.2 186.834V58.8199H25.754Z" fill="#787878"/>
<path fill-rule="evenodd" clip-rule="evenodd" d="M295.712 113.286H13.2466V79.9268H295.712V113.286Z" fill="#787878"/>
<path fill-rule="evenodd" clip-rule="evenodd" d="M38.1799 143.474C38.1799 136.566 43.7806 130.965 50.6895 130.965H121.494C128.402 130.965 134.003 136.566 134.003 143.474C134.003 150.383 128.402 155.984 121.494 155.984H50.6895C43.7806 155.984 38.1799 150.383 38.1799 143.474Z" fill="#787878"/>
</g>
<defs>
<clipPath id="clip0_122_5701">
<rect width="307.485" height="210.828" fill="white" transform="translate(0.734863 33.8008)"/>
</clipPath>
</defs>
</svg>
