<svg width="22" height="22" viewBox="0 0 22 22" fill="none" xmlns="http://www.w3.org/2000/svg">
<g clip-path="url(#clip0_82_5253)">
<g clip-path="url(#clip1_82_5253)">
<path fill-rule="evenodd" clip-rule="evenodd" d="M10.9894 9.54504C11.6532 10.2089 11.6532 11.2891 10.9894 11.9529L3.2745 19.6678C2.87554 20.0668 2.22871 20.0668 1.82976 19.6678C1.43081 19.2688 1.43081 18.622 1.82976 18.2231L9.30355 10.7493L1.77769 3.24208C1.37824 2.84362 1.37744 2.1968 1.77589 1.79735C2.17435 1.3979 2.82118 1.3971 3.22063 1.79556L10.9894 9.54504Z" fill="#43B71B"/>
<path fill-rule="evenodd" clip-rule="evenodd" d="M19.6672 1.82881C20.0661 2.22776 20.0661 2.87459 19.6672 3.27354L13.8786 9.06211C13.4797 9.46106 12.8328 9.46106 12.4339 9.06211C12.0349 8.66316 12.0349 8.01633 12.4339 7.61738L18.2225 1.82881C18.6214 1.42986 19.2682 1.42986 19.6672 1.82881Z" fill="#43B71B"/>
<path fill-rule="evenodd" clip-rule="evenodd" d="M12.3089 12.3083C12.7078 11.9094 13.3547 11.9094 13.7536 12.3083L19.5422 18.0969C19.9411 18.4958 19.9411 19.1426 19.5422 19.5416C19.1432 19.9406 18.4964 19.9406 18.0974 19.5416L12.3089 13.753C11.9099 13.3541 11.9099 12.7073 12.3089 12.3083Z" fill="#43B71B"/>
</g>
</g>
<defs>
<clipPath id="clip0_82_5253">
<rect width="21.3281" height="21.3281" fill="white"/>
</clipPath>
<clipPath id="clip1_82_5253">
<rect width="25.1104" height="25.2262" fill="white" transform="translate(10.7051 -7.13281) rotate(45)"/>
</clipPath>
</defs>
</svg>
