<svg width="309" height="309" viewBox="0 0 309 309" fill="none" xmlns="http://www.w3.org/2000/svg">
<g clip-path="url(#clip0_120_5521)">
<path d="M210.355 57.8427C226.165 57.8427 238.98 45.0269 238.98 29.2177C238.98 13.4086 226.165 0.592773 210.355 0.592773C194.546 0.592773 181.73 13.4086 181.73 29.2177C181.73 45.0269 194.546 57.8427 210.355 57.8427Z" fill="#43B71B"/>
<path d="M153.109 177.789C168.918 177.789 181.734 164.973 181.734 149.164C181.734 133.355 168.918 120.539 153.109 120.539C137.3 120.539 124.484 133.355 124.484 149.164C124.484 164.973 137.3 177.789 153.109 177.789Z" fill="#43B71B"/>
<path d="M279.759 200.457C295.568 200.457 308.384 187.641 308.384 171.832C308.384 156.023 295.568 143.207 279.759 143.207C263.95 143.207 251.134 156.023 251.134 171.832C251.134 187.641 263.95 200.457 279.759 200.457Z" fill="#43B71B"/>
<path d="M169.671 308.077C185.48 308.077 198.296 295.261 198.296 279.452C198.296 263.643 185.48 250.827 169.671 250.827C153.862 250.827 141.046 263.643 141.046 279.452C141.046 295.261 153.862 308.077 169.671 308.077Z" fill="#43B71B"/>
<path d="M29.2656 238.179C45.0747 238.179 57.8905 225.363 57.8905 209.554C57.8905 193.745 45.0747 180.929 29.2656 180.929C13.4565 180.929 0.640625 193.745 0.640625 209.554C0.640625 225.363 13.4565 238.179 29.2656 238.179Z" fill="#43B71B"/>
<path d="M54.1538 83.2382C69.9629 83.2382 82.7787 70.4224 82.7787 54.6132C82.7787 38.8041 69.9629 25.9883 54.1538 25.9883C38.3446 25.9883 25.5288 38.8041 25.5288 54.6132C25.5288 70.4224 38.3446 83.2382 54.1538 83.2382Z" fill="#43B71B"/>
<path fill-rule="evenodd" clip-rule="evenodd" d="M207.157 18.4342C212.42 17.6009 217.621 20.2513 220.04 24.9991L291.05 164.386C293.469 169.134 292.556 174.899 288.788 178.667L224.233 243.221C219.43 248.025 211.642 248.025 206.839 243.221C202.036 238.418 202.036 230.631 206.839 225.827L265.076 167.591L202.178 44.1277L65.3244 65.7956L43.6565 202.649L175.082 269.603C181.134 272.686 183.541 280.093 180.458 286.145C177.374 292.198 169.968 294.605 163.915 291.521L24.5279 220.511C19.7801 218.092 17.1297 212.891 17.963 207.628L42.4258 53.1217C43.2592 47.8584 47.3872 43.7304 52.6505 42.897L207.157 18.4342Z" fill="#43B71B"/>
<path fill-rule="evenodd" clip-rule="evenodd" d="M214.339 19.4621C220.482 22.3619 223.111 29.6923 220.211 35.835L164.235 154.412C162.548 157.986 159.245 160.532 155.359 161.254C151.472 161.976 147.476 160.786 144.617 158.055L46.0863 63.9414C41.1742 59.2496 40.9957 51.4641 45.6876 46.552C50.3794 41.64 58.1649 41.4615 63.077 46.1533L149.272 128.485L197.966 25.334C200.866 19.1913 208.196 16.5624 214.339 19.4621Z" fill="#43B71B"/>
<path fill-rule="evenodd" clip-rule="evenodd" d="M158.951 138.33C162.45 140.219 164.82 143.683 165.312 147.629L181.705 279.032C182.546 285.773 177.764 291.919 171.023 292.76C164.283 293.601 158.137 288.818 157.296 282.078L143.039 167.798L35.5342 220.585C29.4368 223.579 22.0669 221.063 19.0729 214.966C16.079 208.868 18.5948 201.498 24.6922 198.504L147.686 138.112C151.255 136.359 155.452 136.44 158.951 138.33Z" fill="#43B71B"/>
<path fill-rule="evenodd" clip-rule="evenodd" d="M140.974 147.165C142.072 140.461 148.397 135.918 155.1 137.016L282.086 157.827C288.79 158.925 293.333 165.25 292.235 171.953C291.136 178.657 284.812 183.2 278.108 182.102L151.122 161.291C144.419 160.193 139.875 153.868 140.974 147.165Z" fill="#43B71B"/>
</g>
<defs>
<clipPath id="clip0_120_5521">
<rect width="307.739" height="307.485" fill="white" transform="translate(0.640625 0.592773)"/>
</clipPath>
</defs>
</svg>
