<svg width="309" height="309" viewBox="0 0 309 309" fill="none" xmlns="http://www.w3.org/2000/svg">
<g clip-path="url(#clip0_122_5697)">
<path d="M210.498 57.8427C226.307 57.8427 239.122 45.0269 239.122 29.2177C239.122 13.4086 226.307 0.592773 210.498 0.592773C194.688 0.592773 181.873 13.4086 181.873 29.2177C181.873 45.0269 194.688 57.8427 210.498 57.8427Z" fill="#787878"/>
<path d="M153.251 177.789C169.061 177.789 181.876 164.973 181.876 149.164C181.876 133.355 169.061 120.539 153.251 120.539C137.442 120.539 124.626 133.355 124.626 149.164C124.626 164.973 137.442 177.789 153.251 177.789Z" fill="#787878"/>
<path d="M279.901 200.457C295.71 200.457 308.526 187.641 308.526 171.832C308.526 156.023 295.71 143.207 279.901 143.207C264.092 143.207 251.276 156.023 251.276 171.832C251.276 187.641 264.092 200.457 279.901 200.457Z" fill="#787878"/>
<path d="M169.813 308.077C185.623 308.077 198.438 295.261 198.438 279.452C198.438 263.643 185.623 250.827 169.813 250.827C154.004 250.827 141.188 263.643 141.188 279.452C141.188 295.261 154.004 308.077 169.813 308.077Z" fill="#787878"/>
<path d="M29.4077 238.179C45.2168 238.179 58.0326 225.363 58.0326 209.554C58.0326 193.745 45.2168 180.929 29.4077 180.929C13.5985 180.929 0.782715 193.745 0.782715 209.554C0.782715 225.363 13.5985 238.179 29.4077 238.179Z" fill="#787878"/>
<path d="M54.2959 83.2382C70.105 83.2382 82.9208 70.4224 82.9208 54.6132C82.9208 38.8041 70.105 25.9883 54.2959 25.9883C38.4867 25.9883 25.6709 38.8041 25.6709 54.6132C25.6709 70.4224 38.4867 83.2382 54.2959 83.2382Z" fill="#787878"/>
<path fill-rule="evenodd" clip-rule="evenodd" d="M207.299 18.4342C212.562 17.6009 217.763 20.2513 220.182 24.9991L291.192 164.386C293.611 169.134 292.698 174.899 288.93 178.667L224.375 243.221C219.572 248.025 211.784 248.025 206.981 243.221C202.178 238.418 202.178 230.631 206.981 225.827L265.218 167.591L202.32 44.1277L65.4665 65.7956L43.7986 202.649L175.224 269.603C181.276 272.686 183.683 280.093 180.6 286.145C177.516 292.198 170.11 294.605 164.057 291.521L24.67 220.511C19.9222 218.092 17.2718 212.891 18.1051 207.628L42.5679 53.1217C43.4013 47.8584 47.5293 43.7304 52.7926 42.897L207.299 18.4342Z" fill="#787878"/>
<path fill-rule="evenodd" clip-rule="evenodd" d="M214.481 19.4621C220.624 22.3619 223.253 29.6923 220.353 35.835L164.377 154.412C162.69 157.986 159.387 160.532 155.501 161.254C151.614 161.976 147.618 160.786 144.759 158.055L46.2284 63.9414C41.3163 59.2496 41.1378 51.4641 45.8297 46.552C50.5215 41.64 58.307 41.4615 63.2191 46.1533L149.414 128.485L198.108 25.334C201.008 19.1913 208.338 16.5624 214.481 19.4621Z" fill="#787878"/>
<path fill-rule="evenodd" clip-rule="evenodd" d="M159.093 138.33C162.592 140.219 164.962 143.683 165.454 147.629L181.847 279.032C182.688 285.773 177.906 291.919 171.165 292.76C164.425 293.601 158.279 288.818 157.438 282.078L143.181 167.798L35.6763 220.585C29.5789 223.579 22.2089 221.063 19.215 214.966C16.2211 208.868 18.7369 201.498 24.8343 198.504L147.828 138.112C151.398 136.359 155.594 136.44 159.093 138.33Z" fill="#787878"/>
<path fill-rule="evenodd" clip-rule="evenodd" d="M141.116 147.165C142.214 140.461 148.539 135.918 155.242 137.016L282.229 157.827C288.932 158.925 293.475 165.25 292.377 171.953C291.278 178.657 284.954 183.2 278.25 182.102L151.264 161.291C144.561 160.193 140.017 153.868 141.116 147.165Z" fill="#787878"/>
</g>
<defs>
<clipPath id="clip0_122_5697">
<rect width="307.739" height="307.485" fill="white" transform="translate(0.782715 0.592773)"/>
</clipPath>
</defs>
</svg>
