<svg width="309" height="283" viewBox="0 0 309 283" fill="none" xmlns="http://www.w3.org/2000/svg">
<g clip-path="url(#clip0_122_5704)">
<path d="M308.139 266.574C307.927 264.74 307.349 262.967 306.437 261.361C305.526 259.755 304.3 258.349 302.833 257.227C301.366 256.105 299.689 255.29 297.9 254.83C296.112 254.37 294.249 254.276 292.423 254.552C281.29 255.808 270.025 255.171 259.106 252.666C260.33 251.058 261.459 249.378 262.484 247.637C267.829 239.208 269.974 229.143 268.533 219.267C267.091 209.391 262.157 200.36 254.627 193.81C251.142 190.897 247.145 188.658 242.84 187.21C234.08 183.755 224.344 183.702 215.547 187.06C206.75 190.419 199.528 196.947 195.299 205.361C191.068 212.72 189.233 221.214 190.05 229.663C190.866 238.112 194.294 246.097 199.857 252.509L190.035 253.687C173.69 255.338 139.901 255.18 117.506 255.102H106.741H51.7358C49.3739 255.174 47.0098 255.069 44.6637 254.787L28.1621 201.825C28.042 201.495 28.042 201.134 28.1621 200.804L87.7249 71.62H88.1178L156.167 103.052L158.289 103.837L111.141 205.99C110.341 207.637 109.877 209.428 109.777 211.256C109.678 213.085 109.945 214.915 110.562 216.639C111.18 218.364 112.136 219.947 113.374 221.297C114.611 222.647 116.106 223.736 117.771 224.5C119.435 225.264 121.236 225.688 123.066 225.747C124.897 225.806 126.72 225.499 128.431 224.843C130.141 224.188 131.703 223.197 133.025 221.93C134.347 220.662 135.402 219.143 136.13 217.462L169.565 144.973L203 72.4844C206.01 65.5925 206.217 57.7991 203.576 50.7575C200.935 43.7158 195.655 37.9799 188.856 34.7665L121.042 3.33493C114.057 0.153384 106.097 -0.136807 98.8988 2.52763C91.7004 5.19206 85.8477 10.5949 82.6173 17.5577L3.48831 189.253C0.438644 195.747 -0.066023 203.149 2.07389 209.998L18.8112 263.431C25.0189 283.312 44.6637 282.762 52.5216 282.526H106.898H135.422C156.089 282.526 179.819 282.526 193.492 280.876C206.732 279.931 219.773 277.127 232.232 272.546C252.371 281.095 274.372 284.315 296.116 281.897C299.727 281.426 303.009 279.556 305.257 276.691C307.505 273.826 308.54 270.194 308.139 266.574ZM107.527 29.0302C107.603 28.8591 107.713 28.7049 107.849 28.5764C107.986 28.448 108.146 28.348 108.322 28.2822C108.497 28.2164 108.684 28.1861 108.871 28.1931C109.059 28.2002 109.243 28.2443 109.413 28.323L177.305 59.7546C177.643 59.9387 177.902 60.2403 178.032 60.6024C178.162 60.9645 178.155 61.3618 178.012 61.7191L169.761 79.5565C169.154 79.0901 168.494 78.6946 167.797 78.3778L99.7475 46.9462L107.527 29.0302ZM239.068 233.335C237.119 236.419 234.582 239.089 231.603 241.193C228.718 239.69 225.958 237.955 223.352 236.007C220.615 233.976 218.741 230.992 218.101 227.644C217.46 224.297 218.101 220.831 219.895 217.934C220.739 216.094 222.072 214.52 223.749 213.384C225.425 212.248 227.38 211.593 229.403 211.49C230.911 211.494 232.405 211.788 233.803 212.355C234.925 212.679 235.986 213.183 236.946 213.848C239.788 216.25 241.6 219.651 242.009 223.35C242.418 227.048 241.394 230.763 239.147 233.728L239.068 233.335Z" fill="#787878"/>
</g>
<defs>
<clipPath id="clip0_122_5704">
<rect width="307.479" height="282.02" fill="white" transform="translate(0.734863 0.742188)"/>
</clipPath>
</defs>
</svg>
