<svg width="309" height="283" viewBox="0 0 309 283" fill="none" xmlns="http://www.w3.org/2000/svg">
<g clip-path="url(#clip0_120_5232)">
<path d="M307.997 266.574C307.785 264.74 307.207 262.967 306.295 261.361C305.383 259.755 304.158 258.349 302.691 257.227C301.224 256.105 299.547 255.29 297.758 254.83C295.97 254.37 294.107 254.276 292.281 254.552C281.148 255.808 269.883 255.171 258.963 252.666C260.188 251.058 261.316 249.378 262.342 247.637C267.686 239.208 269.832 229.143 268.391 219.267C266.949 209.391 262.015 200.36 254.484 193.81C251 190.897 247.003 188.658 242.698 187.21C233.938 183.755 224.202 183.702 215.405 187.06C206.608 190.419 199.386 196.947 195.157 205.361C190.926 212.72 189.091 221.214 189.908 229.663C190.724 238.112 194.152 246.097 199.715 252.509L189.893 253.687C173.548 255.338 139.759 255.18 117.364 255.102H106.599H51.5937C49.2318 255.174 46.8677 255.069 44.5216 254.787L28.02 201.825C27.8999 201.495 27.8999 201.134 28.02 200.804L87.5828 71.62H87.9757L156.025 103.052L158.147 103.837L110.999 205.99C110.199 207.637 109.735 209.428 109.635 211.256C109.536 213.085 109.803 214.915 110.42 216.639C111.038 218.364 111.994 219.947 113.231 221.297C114.469 222.647 115.964 223.736 117.629 224.5C119.293 225.264 121.093 225.688 122.924 225.747C124.755 225.806 126.578 225.499 128.288 224.843C129.999 224.188 131.561 223.197 132.883 221.93C134.205 220.662 135.26 219.143 135.987 217.462L169.423 144.973L202.858 72.4844C205.868 65.5925 206.075 57.7991 203.434 50.7575C200.793 43.7158 195.513 37.9799 188.714 34.7665L120.9 3.33493C113.915 0.153384 105.955 -0.136807 98.7567 2.52763C91.5583 5.19206 85.7056 10.5949 82.4752 17.5577L3.34622 189.253C0.296554 195.747 -0.208113 203.149 1.9318 209.998L18.6691 263.431C24.8768 283.312 44.5216 282.762 52.3795 282.526H106.756H135.28C155.946 282.526 179.677 282.526 193.35 280.876C206.59 279.931 219.631 277.127 232.089 272.546C252.229 281.095 274.23 284.315 295.974 281.897C299.585 281.426 302.867 279.556 305.115 276.691C307.363 273.826 308.398 270.194 307.997 266.574ZM107.385 29.0302C107.461 28.8591 107.571 28.7049 107.707 28.5764C107.844 28.448 108.004 28.348 108.18 28.2822C108.355 28.2164 108.542 28.1861 108.729 28.1931C108.917 28.2002 109.101 28.2443 109.271 28.323L177.163 59.7546C177.501 59.9387 177.759 60.2403 177.89 60.6024C178.02 60.9645 178.013 61.3618 177.87 61.7191L169.619 79.5565C169.011 79.0901 168.352 78.6946 167.655 78.3778L99.6054 46.9462L107.385 29.0302ZM238.926 233.335C236.977 236.419 234.44 239.089 231.461 241.193C228.575 239.69 225.816 237.955 223.21 236.007C220.473 233.976 218.599 230.992 217.959 227.644C217.318 224.297 217.959 220.831 219.753 217.934C220.597 216.094 221.93 214.52 223.606 213.384C225.283 212.248 227.238 211.593 229.261 211.49C230.769 211.494 232.263 211.788 233.661 212.355C234.783 212.679 235.844 213.183 236.804 213.848C239.646 216.25 241.458 219.651 241.867 223.35C242.276 227.048 241.252 230.763 239.004 233.728L238.926 233.335Z" fill="#43B71B"/>
</g>
<defs>
<clipPath id="clip0_120_5232">
<rect width="307.479" height="282.02" fill="white" transform="translate(0.592773 0.742188)"/>
</clipPath>
</defs>
</svg>
