<svg width="22" height="22" viewBox="0 0 22 22" fill="none" xmlns="http://www.w3.org/2000/svg">
<g clip-path="url(#clip0_80_5241)">
<path fill-rule="evenodd" clip-rule="evenodd" d="M0.228516 2.12818C0.228516 1.60596 0.651859 1.18262 1.17408 1.18262L20.1596 1.18262C20.6818 1.18262 21.1051 1.60596 21.1051 2.12818C21.1051 2.6504 20.6818 3.07375 20.1596 3.07375H1.17408C0.651859 3.07375 0.228516 2.6504 0.228516 2.12818Z" fill="#43B71B"/>
<path fill-rule="evenodd" clip-rule="evenodd" d="M0.136719 10.2844C0.136719 9.76221 0.560062 9.33887 1.08228 9.33887L20.1524 9.33887C20.6747 9.33887 21.098 9.76221 21.098 10.2844C21.098 10.8067 20.6747 11.23 20.1524 11.23H1.08228C0.560062 11.23 0.136719 10.8067 0.136719 10.2844Z" fill="#43B71B"/>
<path fill-rule="evenodd" clip-rule="evenodd" d="M0.255859 18.6321C0.255859 18.1099 0.679203 17.6865 1.20142 17.6865H20.148C20.6702 17.6865 21.0936 18.1099 21.0936 18.6321C21.0936 19.1543 20.6702 19.5777 20.148 19.5777H1.20142C0.679203 19.5777 0.255859 19.1543 0.255859 18.6321Z" fill="#43B71B"/>
</g>
<defs>
<clipPath id="clip0_80_5241">
<rect width="21.0546" height="18.9629" fill="white" transform="translate(0.136719 1.18262)"/>
</clipPath>
</defs>
</svg>
