<svg width="309" height="308" viewBox="0 0 309 308" fill="none" xmlns="http://www.w3.org/2000/svg">
<g clip-path="url(#clip0_120_5225)">
<path fill-rule="evenodd" clip-rule="evenodd" d="M154.374 25.0304C83.2247 25.0304 25.6114 82.6436 25.6114 153.793C25.6114 193.231 43.3778 228.57 71.3807 252.236C76.6574 256.695 77.32 264.588 72.8606 269.865C68.4012 275.142 60.5085 275.804 55.2317 271.345C21.8555 243.138 0.592773 200.919 0.592773 153.793C0.592773 68.8262 69.4072 0.0117188 154.374 0.0117188C239.341 0.0117188 308.156 68.8262 308.156 153.793C308.156 238.76 239.341 307.575 154.374 307.575C147.465 307.575 141.865 301.974 141.865 295.065C141.865 288.156 147.465 282.556 154.374 282.556C225.524 282.556 283.137 224.943 283.137 153.793C283.137 82.6436 225.524 25.0304 154.374 25.0304Z" fill="#43B71B"/>
<path fill-rule="evenodd" clip-rule="evenodd" d="M78.8969 273.777C82.0926 267.652 89.6487 265.277 95.7739 268.473C99.1197 270.219 102.722 271.803 106.64 273.403C113.037 276.013 116.106 283.315 113.495 289.712C110.884 296.108 103.582 299.177 97.1858 296.566C92.9316 294.83 88.5277 292.912 84.2011 290.654C78.0759 287.459 75.7012 279.902 78.8969 273.777Z" fill="#43B71B"/>
<path fill-rule="evenodd" clip-rule="evenodd" d="M123.62 292.274C124.477 285.419 130.729 280.556 137.584 281.413C143.114 282.105 148.766 282.484 154.38 282.484C161.288 282.484 166.889 288.085 166.889 294.994C166.889 301.902 161.288 307.503 154.38 307.503C147.651 307.503 140.96 307.049 134.481 306.239C127.626 305.382 122.763 299.13 123.62 292.274Z" fill="#43B71B"/>
<path fill-rule="evenodd" clip-rule="evenodd" d="M155.297 64.2988C162.206 64.2988 167.806 69.8994 167.806 76.8082V156.773L214.513 203.48C219.398 208.366 219.398 216.286 214.513 221.171C209.628 226.057 201.708 226.057 196.822 221.171L148.787 173.136C144.976 169.325 142.788 164.157 142.788 158.703V76.8082C142.788 69.8994 148.388 64.2988 155.297 64.2988Z" fill="#43B71B"/>
<path fill-rule="evenodd" clip-rule="evenodd" d="M58.5937 200.707C65.4819 200.175 71.4969 205.328 72.0286 212.216L75.7814 260.836C76.0908 264.844 74.4552 268.756 71.3853 271.352C68.3154 273.947 64.1853 274.909 60.2847 273.937L10.0806 261.427C3.37684 259.757 -0.703514 252.968 0.966854 246.265C2.63722 239.561 9.42578 235.481 16.1295 237.151L49.502 245.466L47.0841 214.142C46.5525 207.253 51.7055 201.238 58.5937 200.707Z" fill="#43B71B"/>
</g>
<defs>
<clipPath id="clip0_120_5225">
<rect width="307.479" height="307.479" fill="white" transform="translate(0.592773 0.0117188)"/>
</clipPath>
</defs>
</svg>
