<svg width="309" height="308" viewBox="0 0 309 308" fill="none" xmlns="http://www.w3.org/2000/svg">
<g clip-path="url(#clip0_122_5703)">
<path fill-rule="evenodd" clip-rule="evenodd" d="M154.516 25.0304C83.3667 25.0304 25.7535 82.6436 25.7535 153.793C25.7535 193.231 43.5199 228.57 71.5228 252.236C76.7995 256.695 77.4621 264.588 73.0027 269.865C68.5433 275.142 60.6506 275.804 55.3738 271.345C21.9976 243.138 0.734863 200.919 0.734863 153.793C0.734863 68.8262 69.5493 0.0117188 154.516 0.0117188C239.483 0.0117188 308.298 68.8262 308.298 153.793C308.298 238.76 239.483 307.575 154.516 307.575C147.608 307.575 142.007 301.974 142.007 295.065C142.007 288.156 147.608 282.556 154.516 282.556C225.666 282.556 283.279 224.943 283.279 153.793C283.279 82.6436 225.666 25.0304 154.516 25.0304Z" fill="#787878"/>
<path fill-rule="evenodd" clip-rule="evenodd" d="M79.039 273.777C82.2347 267.652 89.7908 265.277 95.916 268.473C99.2617 270.219 102.864 271.803 106.782 273.403C113.179 276.013 116.248 283.315 113.637 289.712C111.026 296.108 103.724 299.177 97.3279 296.566C93.0737 294.83 88.6698 292.912 84.3432 290.654C78.218 287.459 75.8433 279.902 79.039 273.777Z" fill="#787878"/>
<path fill-rule="evenodd" clip-rule="evenodd" d="M123.762 292.274C124.619 285.419 130.871 280.556 137.726 281.413C143.256 282.105 148.908 282.484 154.522 282.484C161.43 282.484 167.031 288.085 167.031 294.994C167.031 301.902 161.43 307.503 154.522 307.503C147.793 307.503 141.102 307.049 134.623 306.239C127.768 305.382 122.905 299.13 123.762 292.274Z" fill="#787878"/>
<path fill-rule="evenodd" clip-rule="evenodd" d="M155.439 64.2988C162.348 64.2988 167.948 69.8994 167.948 76.8082V156.773L214.655 203.48C219.541 208.366 219.541 216.286 214.655 221.171C209.77 226.057 201.85 226.057 196.965 221.171L148.929 173.136C145.118 169.325 142.93 164.157 142.93 158.703V76.8082C142.93 69.8994 148.53 64.2988 155.439 64.2988Z" fill="#787878"/>
<path fill-rule="evenodd" clip-rule="evenodd" d="M58.7358 200.707C65.624 200.175 71.639 205.328 72.1707 212.216L75.9235 260.836C76.2329 264.844 74.5973 268.756 71.5274 271.352C68.4575 273.947 64.3274 274.909 60.4268 273.937L10.2227 261.427C3.51893 259.757 -0.561424 252.968 1.10894 246.265C2.77931 239.561 9.56787 235.481 16.2716 237.151L49.6441 245.466L47.2262 214.142C46.6946 207.253 51.8476 201.238 58.7358 200.707Z" fill="#787878"/>
</g>
<defs>
<clipPath id="clip0_122_5703">
<rect width="307.479" height="307.479" fill="white" transform="translate(0.734863 0.0117188)"/>
</clipPath>
</defs>
</svg>
