<svg width="30" height="32" viewBox="0 0 30 32" fill="none" xmlns="http://www.w3.org/2000/svg">
<g clip-path="url(#clip0_41_6095)">
<path d="M22.8763 31.1185H22.7503C20.5835 31.0802 18.4293 30.7789 16.3352 30.2212C15.9573 30.1188 15.5952 30.0165 15.241 29.8906C13.2094 30.5836 11.0887 30.9812 8.94393 31.0713C8.5786 31.0932 8.21952 30.9691 7.94569 30.7263C7.67186 30.4834 7.50571 30.1418 7.48379 29.7764C7.46187 29.4111 7.58598 29.052 7.82881 28.7782C8.07164 28.5044 8.4133 28.3382 8.77863 28.3163C9.73942 28.2677 10.6963 28.1599 11.6438 27.9936C10.3815 27.0187 9.48115 25.6501 9.08562 24.1051C8.82743 23.0679 8.82208 21.984 9.07 20.9443C9.31793 19.9047 9.81189 18.9397 10.5103 18.1307C11.1381 17.3811 11.9396 16.7963 12.8451 16.4272C13.7505 16.0582 14.7325 15.9161 15.7054 16.0133C17.0625 16.1804 18.3335 16.767 19.341 17.6913C20.3486 18.6156 21.0424 19.8314 21.3256 21.1691C21.5757 22.4258 21.4702 23.7273 21.021 24.9274C20.5719 26.1274 19.7969 27.1784 18.7832 27.9621C20.1412 28.1966 21.5144 28.3334 22.892 28.3714H26.5994C26.6149 28.3715 26.6298 28.366 26.6414 28.3558C26.653 28.3457 26.6605 28.3316 26.6624 28.3163V14.3603L15.1623 2.77366H15.0994L3.55204 14.321V28.2848C3.55375 28.3009 3.56093 28.316 3.57239 28.3274C3.58385 28.3389 3.59889 28.3461 3.61501 28.3478H4.57531C4.94065 28.3478 5.29102 28.4929 5.54935 28.7512C5.80768 29.0096 5.95281 29.3599 5.95281 29.7253C5.95281 30.0906 5.80768 30.441 5.54935 30.6993C5.29102 30.9576 4.94065 31.1028 4.57531 31.1028H3.59139C2.84466 31.1007 2.12911 30.8031 1.60109 30.2751C1.07307 29.7471 0.775515 29.0315 0.773438 28.2848V14.3603C0.780257 13.6214 1.07707 12.9147 1.59993 12.3925L13.1394 0.829427C13.3955 0.569344 13.7005 0.362438 14.0369 0.220601C14.3732 0.0787639 14.7343 0.00478937 15.0994 0.00292969C15.4681 0.00340431 15.8331 0.0766568 16.1735 0.218484C16.5139 0.360311 16.823 0.567927 17.0829 0.829427L28.6066 12.3925C28.8621 12.6549 29.0631 12.9653 29.1982 13.3057C29.3333 13.6461 29.3998 14.0099 29.3938 14.3761V28.2848C29.3917 29.0308 29.0939 29.7455 28.5656 30.2723C28.0374 30.7991 27.3218 31.0949 26.5758 31.0949H22.8527L22.8763 31.1185ZM15.0994 18.7289C14.6208 18.7331 14.1489 18.8416 13.7166 19.0469C13.2843 19.2522 12.9019 19.5493 12.5963 19.9175C12.1942 20.3946 11.9093 20.9591 11.7644 21.566C11.6195 22.1728 11.6187 22.8052 11.7619 23.4124C12.1948 25.1363 13.6589 26.2225 15.2174 26.9073C15.8462 26.6214 16.4403 26.2649 16.9885 25.8447C17.6241 25.3878 18.117 24.7599 18.4096 24.0338C18.7022 23.3078 18.7826 22.5136 18.6415 21.7437C18.482 20.9742 18.0899 20.2723 17.5183 19.7331C16.9467 19.1938 16.2232 18.8433 15.4457 18.7289H15.0994Z" fill="#43B71B"/>
</g>
<defs>
<clipPath id="clip0_41_6095">
<rect width="28.644" height="31.1077" fill="white" transform="translate(0.773438 0.00292969)"/>
</clipPath>
</defs>
</svg>
