<svg width="277" height="309" viewBox="0 0 277 309" fill="none" xmlns="http://www.w3.org/2000/svg">
<g clip-path="url(#clip0_120_5520)">
<path fill-rule="evenodd" clip-rule="evenodd" d="M31.0468 84.2484H70.8703C77.7866 84.2484 83.3934 78.6416 83.3934 71.7253C83.3934 64.8089 77.7866 59.2021 70.8703 59.2021H26.8724C15.3642 59.2021 6.00049 68.5659 6.00049 80.074V287.207C6.00049 298.715 15.3642 308.079 26.8724 308.079H249.951C256.867 308.079 262.474 302.472 262.474 295.555C262.474 288.639 256.867 283.032 249.951 283.032H31.0468V84.2484Z" fill="#43B71B"/>
<path fill-rule="evenodd" clip-rule="evenodd" d="M193.344 71.7253C193.344 64.8089 198.951 59.2021 205.867 59.2021H249.948C261.456 59.2021 270.82 68.5659 270.82 80.074V253.979C270.82 260.895 265.213 266.502 258.297 266.502C251.381 266.502 245.774 260.895 245.774 253.979V84.2484H205.867C198.951 84.2484 193.344 78.6416 193.344 71.7253Z" fill="#43B71B"/>
<path fill-rule="evenodd" clip-rule="evenodd" d="M138.814 25.6248C137.546 25.5811 136.143 25.71 134.66 26.056L134.566 26.0781C127.774 27.6075 122.464 34.223 122.464 41.4114V41.5744C122.464 50.7366 115.344 59.3612 104.932 59.3612H83.392V84.0735H139.245C146.161 84.0735 151.768 89.6803 151.768 96.5966C151.768 103.513 146.161 109.12 139.245 109.12H79.2176C67.7095 109.12 58.3457 99.7561 58.3457 88.2479V55.1868C58.3457 43.6787 67.7095 34.3149 79.2176 34.3149H98.0562C100.9 18.5943 112.986 5.2845 129.016 1.65407C132.527 0.838843 136.118 0.470687 139.677 0.59341C146.589 0.831762 151.999 6.62845 151.761 13.5407C151.522 20.4529 145.726 25.8631 138.814 25.6248Z" fill="#43B71B"/>
<path fill-rule="evenodd" clip-rule="evenodd" d="M57.8501 142.278C57.8501 135.362 63.4569 129.755 70.3732 129.755H205.373C212.289 129.755 217.896 135.362 217.896 142.278C217.896 149.194 212.289 154.801 205.373 154.801H70.3732C63.4569 154.801 57.8501 149.194 57.8501 142.278Z" fill="#43B71B"/>
<path fill-rule="evenodd" clip-rule="evenodd" d="M57.8501 183.424C57.8501 176.508 63.4569 170.901 70.3732 170.901H205.373C212.289 170.901 217.896 176.508 217.896 183.424C217.896 190.341 212.289 195.948 205.373 195.948H70.3732C63.4569 195.948 57.8501 190.341 57.8501 183.424Z" fill="#43B71B"/>
<path fill-rule="evenodd" clip-rule="evenodd" d="M147.227 1.65404C163.257 5.28443 175.343 18.5942 178.187 34.3149H196.942C208.45 34.3149 217.814 43.6787 217.814 55.1868V88.2479C217.814 99.756 208.45 109.12 196.942 109.12H136.915C129.998 109.12 124.392 103.513 124.392 96.5966C124.392 89.6803 129.998 84.0735 136.915 84.0735H192.768V59.3612H171.312C160.899 59.3612 153.779 50.7405 153.779 41.5784V41.4158C153.779 34.2275 148.47 27.6071 141.678 26.0777L141.583 26.0564C140.1 25.7104 138.697 25.5811 137.43 25.6248C130.518 25.8631 124.721 20.4529 124.483 13.5407C124.244 6.62845 129.654 0.831762 136.567 0.59341C140.126 0.470688 143.716 0.838836 147.227 1.65404Z" fill="#43B71B"/>
</g>
<defs>
<clipPath id="clip0_120_5520">
<rect width="264.822" height="307.485" fill="white" transform="translate(6.00049 0.592773)"/>
</clipPath>
</defs>
</svg>
