<svg width="277" height="309" viewBox="0 0 277 309" fill="none" xmlns="http://www.w3.org/2000/svg">
<g clip-path="url(#clip0_122_5696)">
<path fill-rule="evenodd" clip-rule="evenodd" d="M31.1888 84.2484H71.0124C77.9287 84.2484 83.5355 78.6416 83.5355 71.7253C83.5355 64.8089 77.9287 59.2021 71.0124 59.2021H27.0145C15.5063 59.2021 6.14258 68.5659 6.14258 80.074V287.207C6.14258 298.715 15.5063 308.079 27.0145 308.079H250.093C257.009 308.079 262.616 302.472 262.616 295.555C262.616 288.639 257.009 283.032 250.093 283.032H31.1888V84.2484Z" fill="#787878"/>
<path fill-rule="evenodd" clip-rule="evenodd" d="M193.486 71.7253C193.486 64.8089 199.093 59.2021 206.009 59.2021H250.09C261.599 59.2021 270.962 68.5659 270.962 80.074V253.979C270.962 260.895 265.355 266.502 258.439 266.502C251.523 266.502 245.916 260.895 245.916 253.979V84.2484H206.009C199.093 84.2484 193.486 78.6416 193.486 71.7253Z" fill="#787878"/>
<path fill-rule="evenodd" clip-rule="evenodd" d="M138.956 25.6248C137.688 25.5811 136.285 25.71 134.802 26.056L134.708 26.0781C127.916 27.6075 122.606 34.223 122.606 41.4114V41.5744C122.606 50.7366 115.486 59.3612 105.074 59.3612H83.5341V84.0735H139.387C146.304 84.0735 151.91 89.6803 151.91 96.5966C151.91 103.513 146.304 109.12 139.387 109.12H79.3597C67.8515 109.12 58.4878 99.7561 58.4878 88.2479V55.1868C58.4878 43.6787 67.8515 34.3149 79.3597 34.3149H98.1983C101.042 18.5943 113.128 5.2845 129.158 1.65407C132.669 0.838843 136.26 0.470687 139.819 0.59341C146.731 0.831762 152.141 6.62845 151.903 13.5407C151.665 20.4529 145.868 25.8631 138.956 25.6248Z" fill="#787878"/>
<path fill-rule="evenodd" clip-rule="evenodd" d="M57.9922 142.278C57.9922 135.362 63.599 129.755 70.5153 129.755H205.515C212.431 129.755 218.038 135.362 218.038 142.278C218.038 149.194 212.431 154.801 205.515 154.801H70.5153C63.599 154.801 57.9922 149.194 57.9922 142.278Z" fill="#787878"/>
<path fill-rule="evenodd" clip-rule="evenodd" d="M57.9922 183.424C57.9922 176.508 63.599 170.901 70.5153 170.901H205.515C212.431 170.901 218.038 176.508 218.038 183.424C218.038 190.341 212.431 195.948 205.515 195.948H70.5153C63.599 195.948 57.9922 190.341 57.9922 183.424Z" fill="#787878"/>
<path fill-rule="evenodd" clip-rule="evenodd" d="M147.369 1.65404C163.399 5.28443 175.485 18.5942 178.329 34.3149H197.084C208.593 34.3149 217.956 43.6787 217.956 55.1868V88.2479C217.956 99.756 208.593 109.12 197.084 109.12H137.057C130.14 109.12 124.534 103.513 124.534 96.5966C124.534 89.6803 130.14 84.0735 137.057 84.0735H192.91V59.3612H171.454C161.041 59.3612 153.921 50.7405 153.921 41.5784V41.4158C153.921 34.2275 148.612 27.6071 141.82 26.0777L141.725 26.0564C140.242 25.7104 138.839 25.5811 137.572 25.6248C130.66 25.8631 124.863 20.4529 124.625 13.5407C124.386 6.62845 129.797 0.831762 136.709 0.59341C140.268 0.470688 143.858 0.838836 147.369 1.65404Z" fill="#787878"/>
</g>
<defs>
<clipPath id="clip0_122_5696">
<rect width="264.822" height="307.485" fill="white" transform="translate(6.14258 0.592773)"/>
</clipPath>
</defs>
</svg>
