<svg width="271" height="257" viewBox="0 0 271 257" fill="none" xmlns="http://www.w3.org/2000/svg">
<g clip-path="url(#clip0_120_5556)">
<path d="M269.161 108.678L237.003 17.8908C235.282 12.9273 232.058 8.62323 227.778 5.57732C223.498 2.53142 218.375 0.895061 213.121 0.895842H135.665H57.9551C52.6803 0.868707 47.5292 2.49282 43.2238 5.54055C38.9185 8.58827 35.6747 12.9068 33.9473 17.8908L1.85263 108.678C0.656296 111.166 0.193268 113.943 0.517739 116.684C0.842211 119.425 1.94076 122.017 3.68481 124.157C8.61272 130.475 19.669 132.117 31.2306 132.244H32.6837C39.1679 132.196 45.6439 131.774 52.0795 130.98C61.3667 129.843 68.2532 128.453 68.3795 128.39C75.4089 126.7 82.1552 123.997 88.4071 120.366C93.0508 122.995 97.9652 125.113 103.065 126.684C113.608 129.742 124.566 131.128 135.538 130.791C146.468 131.105 157.381 129.72 167.886 126.684C173.005 125.113 177.94 122.995 182.606 120.366C188.858 123.997 195.604 126.7 202.634 128.39C214.37 130.75 226.297 132.04 238.266 132.244C250.397 132.244 262.211 130.412 267.328 124.157C269.059 122.01 270.149 119.419 270.473 116.681C270.797 113.943 270.342 111.17 269.161 108.678ZM92.261 84.9232C91.695 88.1508 90.3019 91.1765 88.2176 93.705L87.5858 93.2627C85.7331 91.5544 84.3656 89.3861 83.6221 86.9782C82.8787 84.5703 82.7858 82.0085 83.3528 79.553C83.7578 78.902 84.3022 78.3489 84.9468 77.9337C85.5914 77.5185 86.3201 77.2516 87.0804 77.1522H87.5858C88.2804 77.1729 88.9635 77.3348 89.5935 77.6281C90.2235 77.9213 90.7872 78.3398 91.2501 78.8581C91.8414 79.7394 92.2519 80.7292 92.458 81.7703C92.664 82.8114 92.6615 83.8831 92.4505 84.9232H92.261ZM183.364 93.2627L182.985 93.705C180.833 91.1969 179.373 88.1695 178.752 84.9232C178.533 83.8313 178.543 82.7057 178.782 81.618C179.022 80.5303 179.485 79.5043 180.142 78.6053C180.592 78.0717 181.153 77.6427 181.786 77.3481C182.419 77.0534 183.109 76.9004 183.807 76.8995H184.249C185.009 76.9989 185.738 77.2658 186.382 77.681C187.027 78.0961 187.571 78.6492 187.976 79.3003C188.569 81.8101 188.47 84.4334 187.692 86.8918C186.913 89.3501 185.483 91.5517 183.554 93.2627H183.364ZM207.625 108.173C205.096 107.542 202.606 106.761 200.17 105.835C204.63 101.038 207.565 95.0235 208.599 88.5552C209.634 82.0869 208.723 75.457 205.982 69.5076C203.981 65.8774 201.13 62.7863 197.673 60.4989C194.216 58.2115 190.256 56.7961 186.132 56.3738C182.008 55.9515 177.844 56.5349 173.995 58.074C170.146 59.6132 166.727 62.0623 164.032 65.2115C161.43 68.3278 159.522 71.9618 158.432 75.8723C157.343 79.7827 157.098 83.8802 157.714 87.8926C158.724 94.2722 161.332 100.292 165.295 105.393L161.631 106.657C153.842 108.854 145.778 109.918 137.686 109.816H133.074C124.919 109.944 116.788 108.88 108.94 106.657L105.339 105.393C109.294 100.294 111.881 94.2709 112.857 87.8926C113.489 83.8801 113.252 79.7786 112.163 75.8656C111.073 71.9526 109.155 68.3193 106.539 65.2115C103.847 62.0513 100.426 59.5936 96.5722 58.0506C92.7181 56.5076 88.5465 55.9255 84.4172 56.3546C80.2879 56.7837 76.3251 58.2111 72.8706 60.5136C69.4161 62.8161 66.5738 65.9246 64.5888 69.5708C61.836 75.5071 60.9186 82.1301 61.9542 88.5911C62.9897 95.0521 65.9311 101.057 70.4013 105.835C67.9647 106.761 65.4753 107.542 62.9462 108.173C49.7035 110.641 36.223 111.595 22.7647 111.016L53.2167 25.0932C53.5397 24.1934 54.1307 23.4142 54.9102 22.8606C55.6896 22.3071 56.62 22.0058 57.576 21.9974H135.222H212.616C213.566 22.0004 214.49 22.3006 215.261 22.8557C216.031 23.4109 216.609 24.1933 216.912 25.0932L247.427 111.016C234.095 111.564 220.744 110.611 207.625 108.173Z" fill="#43B71B"/>
<path d="M221.469 160.222C221.482 165.098 220.047 169.868 217.347 173.928C214.647 177.988 210.804 181.156 206.302 183.031C201.801 184.906 196.845 185.403 192.061 184.459C187.278 183.515 182.881 181.174 179.429 177.73C175.977 174.287 173.624 169.897 172.668 165.115C171.712 160.334 172.196 155.377 174.059 150.871C175.923 146.365 179.081 142.513 183.134 139.802C187.187 137.092 191.954 135.646 196.829 135.646C203.353 135.645 209.611 138.233 214.23 142.84C218.849 147.447 221.452 153.698 221.469 160.222Z" fill="#43B71B"/>
<path d="M244.651 256.447C244.042 256.51 243.428 256.51 242.819 256.447C240.449 256.374 238.175 255.496 236.372 253.957C234.569 252.418 233.344 250.31 232.9 247.981C232.584 246.402 226.14 212.98 199.1 212.98C166.436 212.98 165.489 245.833 165.489 246.149C165.489 248.914 164.39 251.565 162.435 253.52C160.48 255.475 157.829 256.573 155.064 256.573H55.3054C48.954 256.574 42.86 254.064 38.3513 249.59C33.8425 245.117 31.2844 239.043 31.2344 232.692V132.238H32.6875C39.1717 132.19 45.6477 131.768 52.0833 130.975V232.692C52.0833 233.546 52.4227 234.366 53.027 234.97C53.6313 235.575 54.4508 235.914 55.3054 235.914H145.587C149.441 218.477 162.835 192.321 198.784 192.321C234.732 192.321 249.958 226.5 253.117 244.569C253.54 247.263 252.89 250.015 251.307 252.235C249.725 254.456 247.335 255.968 244.651 256.447Z" fill="#43B71B"/>
</g>
<defs>
<clipPath id="clip0_120_5556">
<rect width="270.088" height="255.683" fill="white" transform="translate(0.466309 0.895508)"/>
</clipPath>
</defs>
</svg>
