<svg width="271" height="257" viewBox="0 0 271 257" fill="none" xmlns="http://www.w3.org/2000/svg">
<g clip-path="url(#clip0_122_5700)">
<path d="M269.303 108.678L237.145 17.8908C235.424 12.9273 232.2 8.62323 227.92 5.57732C223.64 2.53142 218.517 0.895061 213.263 0.895842H135.807H58.0972C52.8224 0.868707 47.6713 2.49282 43.3659 5.54055C39.0606 8.58827 35.8168 12.9068 34.0894 17.8908L1.99472 108.678C0.798385 111.166 0.335358 113.943 0.659829 116.684C0.984301 119.425 2.08285 122.017 3.82689 124.157C8.75481 130.475 19.811 132.117 31.3727 132.244H32.8258C39.31 132.196 45.786 131.774 52.2216 130.98C61.5088 129.843 68.3953 128.453 68.5216 128.39C75.551 126.7 82.2973 123.997 88.5492 120.366C93.1929 122.995 98.1073 125.113 103.207 126.684C113.75 129.742 124.708 131.128 135.68 130.791C146.61 131.105 157.523 129.72 168.028 126.684C173.147 125.113 178.083 122.995 182.748 120.366C189 123.997 195.747 126.7 202.776 128.39C214.512 130.75 226.439 132.04 238.408 132.244C250.539 132.244 262.353 130.412 267.471 124.157C269.201 122.01 270.291 119.419 270.615 116.681C270.939 113.943 270.484 111.17 269.303 108.678ZM92.4031 84.9232C91.8371 88.1508 90.4439 91.1765 88.3597 93.705L87.7279 93.2627C85.8752 91.5544 84.5077 89.3861 83.7642 86.9782C83.0208 84.5703 82.9279 82.0085 83.4949 79.553C83.8999 78.902 84.4443 78.3489 85.0889 77.9337C85.7335 77.5185 86.4622 77.2516 87.2225 77.1522H87.7279C88.4225 77.1729 89.1056 77.3348 89.7356 77.6281C90.3656 77.9213 90.9293 78.3398 91.3922 78.8581C91.9835 79.7394 92.394 80.7292 92.6001 81.7703C92.8061 82.8114 92.8036 83.8831 92.5926 84.9232H92.4031ZM183.506 93.2627L183.127 93.705C180.975 91.1969 179.516 88.1695 178.894 84.9232C178.675 83.8313 178.685 82.7057 178.924 81.618C179.164 80.5303 179.627 79.5043 180.284 78.6053C180.734 78.0717 181.295 77.6427 181.928 77.3481C182.561 77.0534 183.251 76.9004 183.949 76.8995H184.391C185.151 76.9989 185.88 77.2658 186.524 77.681C187.169 78.0961 187.713 78.6492 188.118 79.3003C188.711 81.8101 188.612 84.4334 187.834 86.8918C187.055 89.3501 185.625 91.5517 183.696 93.2627H183.506ZM207.767 108.173C205.238 107.542 202.748 106.761 200.312 105.835C204.773 101.038 207.707 95.0235 208.742 88.5552C209.776 82.0869 208.865 75.457 206.124 69.5076C204.123 65.8774 201.272 62.7863 197.815 60.4989C194.358 58.2115 190.398 56.7961 186.274 56.3738C182.15 55.9515 177.986 56.5349 174.137 58.074C170.288 59.6132 166.869 62.0623 164.174 65.2115C161.572 68.3278 159.664 71.9618 158.575 75.8723C157.485 79.7827 157.24 83.8802 157.856 87.8926C158.866 94.2722 161.474 100.292 165.437 105.393L161.773 106.657C153.985 108.854 145.92 109.918 137.828 109.816H133.216C125.061 109.944 116.93 108.88 109.082 106.657L105.481 105.393C109.436 100.294 112.023 94.2709 112.999 87.8926C113.631 83.8801 113.395 79.7786 112.305 75.8656C111.215 71.9526 109.297 68.3193 106.681 65.2115C103.989 62.0513 100.568 59.5936 96.7143 58.0506C92.8602 56.5076 88.6886 55.9255 84.5593 56.3546C80.43 56.7837 76.4672 58.2111 73.0127 60.5136C69.5582 62.8161 66.7159 65.9246 64.7309 69.5708C61.9781 75.5071 61.0607 82.1301 62.0963 88.5911C63.1318 95.0521 66.0732 101.057 70.5433 105.835C68.1068 106.761 65.6174 107.542 63.0883 108.173C49.8456 110.641 36.3651 111.595 22.9068 111.016L53.3588 25.0932C53.6817 24.1934 54.2728 23.4142 55.0522 22.8606C55.8317 22.3071 56.7621 22.0058 57.7181 21.9974H135.364H212.758C213.708 22.0004 214.633 22.3006 215.403 22.8557C216.173 23.4109 216.751 24.1933 217.054 25.0932L247.569 111.016C234.237 111.564 220.886 110.611 207.767 108.173Z" fill="#787878"/>
<path d="M221.611 160.222C221.624 165.098 220.189 169.868 217.489 173.928C214.79 177.988 210.946 181.156 206.445 183.031C201.943 184.906 196.987 185.403 192.203 184.459C187.42 183.515 183.023 181.174 179.571 177.73C176.119 174.287 173.766 169.897 172.81 165.115C171.854 160.334 172.339 155.377 174.202 150.871C176.065 146.365 179.223 142.513 183.276 139.802C187.329 137.092 192.096 135.646 196.972 135.646C203.495 135.645 209.753 138.233 214.372 142.84C218.991 147.447 221.594 153.698 221.611 160.222Z" fill="#787878"/>
<path d="M244.793 256.447C244.184 256.51 243.57 256.51 242.961 256.447C240.591 256.374 238.318 255.496 236.514 253.957C234.711 252.418 233.486 250.31 233.042 247.981C232.726 246.402 226.282 212.98 199.242 212.98C166.578 212.98 165.631 245.833 165.631 246.149C165.631 248.914 164.532 251.565 162.577 253.52C160.622 255.475 157.971 256.573 155.206 256.573H55.4475C49.0961 256.574 43.0021 254.064 38.4934 249.59C33.9846 245.117 31.4265 239.043 31.3765 232.692V132.238H32.8296C39.3137 132.19 45.7898 131.768 52.2254 130.975V232.692C52.2254 233.546 52.5648 234.366 53.1691 234.97C53.7733 235.575 54.5929 235.914 55.4475 235.914H145.729C149.583 218.477 162.977 192.321 198.926 192.321C234.874 192.321 250.1 226.5 253.259 244.569C253.682 247.263 253.032 250.015 251.449 252.235C249.867 254.456 247.477 255.968 244.793 256.447Z" fill="#787878"/>
</g>
<defs>
<clipPath id="clip0_122_5700">
<rect width="270.088" height="255.683" fill="white" transform="translate(0.608398 0.895508)"/>
</clipPath>
</defs>
</svg>
