<svg width="303" height="309" viewBox="0 0 303 309" fill="none" xmlns="http://www.w3.org/2000/svg">
<g clip-path="url(#clip0_120_5398)">
<path fill-rule="evenodd" clip-rule="evenodd" d="M153.728 25.5374C134.487 25.5374 118.889 41.1356 118.889 60.3768C118.889 79.6181 134.487 95.2162 153.728 95.2162C172.969 95.2162 188.567 79.6181 188.567 60.3768C188.567 41.1356 172.969 25.5374 153.728 25.5374ZM93.9438 60.3768C93.9438 27.359 120.71 0.592773 153.728 0.592773C186.746 0.592773 213.512 27.359 213.512 60.3768C213.512 93.3947 186.746 120.161 153.728 120.161C120.71 120.161 93.9438 93.3947 93.9438 60.3768Z" fill="#43B71B"/>
<path fill-rule="evenodd" clip-rule="evenodd" d="M25.4119 283.137C27.6048 218.778 80.5169 167.228 145.408 167.228H162.038C218.132 167.228 265.302 205.781 278.408 257.829C280.09 264.509 286.869 268.56 293.549 266.878C300.228 265.196 304.28 258.418 302.598 251.738C286.768 188.874 229.836 142.283 162.038 142.283H145.408C65.3489 142.283 0.396484 207.236 0.396484 287.295C0.396484 298.756 9.72224 308.082 21.1837 308.082H286.179C293.068 308.082 298.652 302.498 298.652 295.61C298.652 288.721 293.068 283.137 286.179 283.137H25.4119Z" fill="#43B71B"/>
</g>
<defs>
<clipPath id="clip0_120_5398">
<rect width="302.579" height="307.485" fill="white" transform="translate(0.396484 0.592773)"/>
</clipPath>
</defs>
</svg>
