<svg width="304" height="309" viewBox="0 0 304 309" fill="none" xmlns="http://www.w3.org/2000/svg">
<g clip-path="url(#clip0_122_5694)">
<path fill-rule="evenodd" clip-rule="evenodd" d="M153.87 25.5374C134.629 25.5374 119.031 41.1356 119.031 60.3768C119.031 79.6181 134.629 95.2162 153.87 95.2162C173.111 95.2162 188.709 79.6181 188.709 60.3768C188.709 41.1356 173.111 25.5374 153.87 25.5374ZM94.0859 60.3768C94.0859 27.359 120.852 0.592773 153.87 0.592773C186.888 0.592773 213.654 27.359 213.654 60.3768C213.654 93.3947 186.888 120.161 153.87 120.161C120.852 120.161 94.0859 93.3947 94.0859 60.3768Z" fill="#787878"/>
<path fill-rule="evenodd" clip-rule="evenodd" d="M25.554 283.137C27.7469 218.778 80.659 167.228 145.55 167.228H162.18C218.274 167.228 265.444 205.781 278.55 257.829C280.232 264.509 287.011 268.56 293.691 266.878C300.37 265.196 304.422 258.418 302.74 251.738C286.91 188.874 229.978 142.283 162.18 142.283H145.55C65.4909 142.283 0.538574 207.236 0.538574 287.295C0.538574 298.756 9.86433 308.082 21.3258 308.082H286.321C293.21 308.082 298.794 302.498 298.794 295.61C298.794 288.721 293.21 283.137 286.321 283.137H25.554Z" fill="#787878"/>
</g>
<defs>
<clipPath id="clip0_122_5694">
<rect width="302.579" height="307.485" fill="white" transform="translate(0.538574 0.592773)"/>
</clipPath>
</defs>
</svg>
