<svg width="307" height="309" viewBox="0 0 307 309" fill="none" xmlns="http://www.w3.org/2000/svg">
<g clip-path="url(#clip0_122_5698)">
<path fill-rule="evenodd" clip-rule="evenodd" d="M25.3398 25.497H95.9019C102.779 25.497 108.354 19.922 108.354 13.0449C108.354 6.16778 102.779 0.592773 95.9019 0.592773H21.1891C9.74619 0.592773 0.435547 9.90342 0.435547 21.3463V96.0591C0.435547 102.936 6.01056 108.511 12.8877 108.511C19.7648 108.511 25.3398 102.936 25.3398 96.0591V25.497Z" fill="#787878"/>
<path fill-rule="evenodd" clip-rule="evenodd" d="M198.589 13.0449C198.589 6.16778 204.164 0.592773 211.041 0.592773H285.754C297.197 0.592773 306.508 9.90342 306.508 21.3463V96.0591C306.508 102.936 300.933 108.511 294.056 108.511C287.179 108.511 281.604 102.936 281.604 96.0591V25.497H211.041C204.164 25.497 198.589 19.922 198.589 13.0449Z" fill="#787878"/>
<path fill-rule="evenodd" clip-rule="evenodd" d="M294.056 200.149C300.933 200.149 306.508 205.724 306.508 212.602V287.314C306.508 298.757 297.197 308.068 285.754 308.068H211.041C204.164 308.068 198.589 302.493 198.589 295.616C198.589 288.739 204.164 283.164 211.041 283.164H281.604V212.602C281.604 205.724 287.179 200.149 294.056 200.149Z" fill="#787878"/>
<path fill-rule="evenodd" clip-rule="evenodd" d="M12.8877 200.149C19.7648 200.149 25.3398 205.724 25.3398 212.602V283.164H95.9019C102.779 283.164 108.354 288.739 108.354 295.616C108.354 302.493 102.779 308.068 95.9019 308.068H21.1891C9.74619 308.068 0.435547 298.757 0.435547 287.314V212.602C0.435547 205.724 6.01056 200.149 12.8877 200.149Z" fill="#787878"/>
<path fill-rule="evenodd" clip-rule="evenodd" d="M73.3193 73.1552V118.315H118.479V73.1552H73.3193ZM48.415 69.0045C48.415 57.5616 57.7257 48.251 69.1686 48.251H122.63C134.073 48.251 143.383 57.5616 143.383 69.0045V122.466C143.383 133.909 134.073 143.219 122.63 143.219H69.1686C57.7257 143.219 48.415 133.909 48.415 122.466V69.0045Z" fill="#787878"/>
<path fill-rule="evenodd" clip-rule="evenodd" d="M188.465 73.1552V118.315H233.625V73.1552H188.465ZM163.561 69.0045C163.561 57.5616 172.872 48.251 184.315 48.251H237.776C249.219 48.251 258.529 57.5616 258.529 69.0045V122.466C258.529 133.909 249.219 143.219 237.776 143.219H184.315C172.872 143.219 163.561 133.909 163.561 122.466V69.0045Z" fill="#787878"/>
<path fill-rule="evenodd" clip-rule="evenodd" d="M73.3193 190.375V235.535H118.479V190.375H73.3193ZM48.415 186.224C48.415 174.781 57.7257 165.471 69.1686 165.471H122.63C134.073 165.471 143.383 174.781 143.383 186.224V239.685C143.383 251.292 133.991 260.439 122.63 260.439H69.1686C57.7257 260.439 48.415 251.128 48.415 239.685V186.224Z" fill="#787878"/>
<path d="M244.252 254.136H216.941C212.375 254.136 208.639 250.401 208.639 245.835V218.523C208.639 213.957 212.375 210.222 216.941 210.222H244.252C248.818 210.222 252.554 213.957 252.554 218.523V245.835C252.554 250.401 248.818 254.136 244.252 254.136Z" fill="#787878"/>
<path fill-rule="evenodd" clip-rule="evenodd" d="M188.465 190.374H246.077C252.954 190.374 258.529 184.799 258.529 177.922C258.529 171.045 252.954 165.47 246.077 165.47H184.315C172.872 165.47 163.561 174.78 163.561 186.223V247.986C163.561 254.863 169.136 260.438 176.013 260.438C182.89 260.438 188.465 254.863 188.465 247.986V190.374Z" fill="#787878"/>
</g>
<defs>
<clipPath id="clip0_122_5698">
<rect width="306.073" height="307.485" fill="white" transform="translate(0.435547 0.592773)"/>
</clipPath>
</defs>
</svg>
