<svg width="307" height="309" viewBox="0 0 307 309" fill="none" xmlns="http://www.w3.org/2000/svg">
<g clip-path="url(#clip0_120_5522)">
<path fill-rule="evenodd" clip-rule="evenodd" d="M25.1977 25.497H95.7598C102.637 25.497 108.212 19.922 108.212 13.0449C108.212 6.16778 102.637 0.592773 95.7598 0.592773H21.047C9.6041 0.592773 0.293457 9.90342 0.293457 21.3463V96.0591C0.293457 102.936 5.86847 108.511 12.7456 108.511C19.6227 108.511 25.1977 102.936 25.1977 96.0591V25.497Z" fill="#43B71B"/>
<path fill-rule="evenodd" clip-rule="evenodd" d="M198.453 13.0449C198.453 6.16778 204.028 0.592773 210.905 0.592773H285.618C297.06 0.592773 306.371 9.90342 306.371 21.3463V96.0591C306.371 102.936 300.796 108.511 293.919 108.511C287.042 108.511 281.467 102.936 281.467 96.0591V25.497H210.905C204.028 25.497 198.453 19.922 198.453 13.0449Z" fill="#43B71B"/>
<path fill-rule="evenodd" clip-rule="evenodd" d="M293.919 200.149C300.796 200.149 306.371 205.724 306.371 212.602V287.314C306.371 298.757 297.06 308.068 285.618 308.068H210.905C204.028 308.068 198.453 302.493 198.453 295.616C198.453 288.739 204.028 283.164 210.905 283.164H281.467V212.602C281.467 205.724 287.042 200.149 293.919 200.149Z" fill="#43B71B"/>
<path fill-rule="evenodd" clip-rule="evenodd" d="M12.7456 200.149C19.6227 200.149 25.1977 205.724 25.1977 212.602V283.164H95.7598C102.637 283.164 108.212 288.739 108.212 295.616C108.212 302.493 102.637 308.068 95.7598 308.068H21.047C9.6041 308.068 0.293457 298.757 0.293457 287.314V212.602C0.293457 205.724 5.86847 200.149 12.7456 200.149Z" fill="#43B71B"/>
<path fill-rule="evenodd" clip-rule="evenodd" d="M73.1826 73.1552V118.315H118.342V73.1552H73.1826ZM48.2783 69.0045C48.2783 57.5616 57.589 48.251 69.0319 48.251H122.493C133.936 48.251 143.247 57.5616 143.247 69.0045V122.466C143.247 133.909 133.936 143.219 122.493 143.219H69.0319C57.589 143.219 48.2783 133.909 48.2783 122.466V69.0045Z" fill="#43B71B"/>
<path fill-rule="evenodd" clip-rule="evenodd" d="M188.317 73.1552V118.315H233.477V73.1552H188.317ZM163.413 69.0045C163.413 57.5616 172.724 48.251 184.167 48.251H237.628C249.071 48.251 258.381 57.5616 258.381 69.0045V122.466C258.381 133.909 249.071 143.219 237.628 143.219H184.167C172.724 143.219 163.413 133.909 163.413 122.466V69.0045Z" fill="#43B71B"/>
<path fill-rule="evenodd" clip-rule="evenodd" d="M73.1826 190.375V235.535H118.342V190.375H73.1826ZM48.2783 186.224C48.2783 174.781 57.589 165.471 69.0319 165.471H122.493C133.936 165.471 143.247 174.781 143.247 186.224V239.685C143.247 251.292 133.855 260.439 122.493 260.439H69.0319C57.589 260.439 48.2783 251.128 48.2783 239.685V186.224Z" fill="#43B71B"/>
<path d="M244.105 254.136H216.793C212.227 254.136 208.492 250.401 208.492 245.835V218.523C208.492 213.957 212.227 210.222 216.793 210.222H244.105C248.671 210.222 252.406 213.957 252.406 218.523V245.835C252.406 250.401 248.671 254.136 244.105 254.136Z" fill="#43B71B"/>
<path fill-rule="evenodd" clip-rule="evenodd" d="M188.318 190.374H245.93C252.807 190.374 258.382 184.799 258.382 177.922C258.382 171.045 252.807 165.47 245.93 165.47H184.167C172.724 165.47 163.414 174.78 163.414 186.223V247.986C163.414 254.863 168.989 260.438 175.866 260.438C182.743 260.438 188.318 254.863 188.318 247.986V190.374Z" fill="#43B71B"/>
</g>
<defs>
<clipPath id="clip0_120_5522">
<rect width="306.073" height="307.485" fill="white" transform="translate(0.293457 0.592773)"/>
</clipPath>
</defs>
</svg>
