<svg width="307" height="308" viewBox="0 0 307 308" fill="none" xmlns="http://www.w3.org/2000/svg">
<g clip-path="url(#clip0_122_5705)">
<path fill-rule="evenodd" clip-rule="evenodd" d="M25.3445 24.9156H95.9054C102.782 24.9156 108.357 19.3406 108.357 12.4636C108.357 5.58663 102.782 0.0117188 95.9054 0.0117188H21.1939C9.75116 0.0117188 0.440674 9.32221 0.440674 20.7649V95.4764C0.440674 102.353 6.01559 107.928 12.8926 107.928C19.7696 107.928 25.3445 102.353 25.3445 95.4764V24.9156Z" fill="#787878"/>
<path fill-rule="evenodd" clip-rule="evenodd" d="M198.591 12.4636C198.591 5.58663 204.166 0.0117188 211.043 0.0117188H285.754C297.197 0.0117188 306.508 9.32221 306.508 20.7649V95.4764C306.508 102.353 300.933 107.928 294.056 107.928C287.179 107.928 281.604 102.353 281.604 95.4764V24.9156H211.043C204.166 24.9156 198.591 19.3406 198.591 12.4636Z" fill="#787878"/>
<path fill-rule="evenodd" clip-rule="evenodd" d="M294.056 199.565C300.933 199.565 306.508 205.14 306.508 212.017V286.729C306.508 298.172 297.197 307.482 285.754 307.482H211.043C204.166 307.482 198.591 301.907 198.591 295.03C198.591 288.153 204.166 282.578 211.043 282.578H281.604V212.017C281.604 205.14 287.179 199.565 294.056 199.565Z" fill="#787878"/>
<path fill-rule="evenodd" clip-rule="evenodd" d="M12.8926 199.565C19.7696 199.565 25.3445 205.14 25.3445 212.017V282.578H95.9054C102.782 282.578 108.357 288.153 108.357 295.03C108.357 301.907 102.782 307.482 95.9054 307.482H21.1939C9.75116 307.482 0.440674 298.172 0.440674 286.729V212.017C0.440674 205.14 6.01559 199.565 12.8926 199.565Z" fill="#787878"/>
<path d="M154.925 228.639C196.187 228.639 229.636 195.189 229.636 153.927C229.636 112.665 196.187 79.2158 154.925 79.2158C113.663 79.2158 80.2134 112.665 80.2134 153.927C80.2134 195.189 113.663 228.639 154.925 228.639Z" fill="#787878"/>
</g>
<defs>
<clipPath id="clip0_122_5705">
<rect width="306.068" height="307.479" fill="white" transform="translate(0.440674 0.0117188)"/>
</clipPath>
</defs>
</svg>
