<svg width="307" height="308" viewBox="0 0 307 308" fill="none" xmlns="http://www.w3.org/2000/svg">
<g clip-path="url(#clip0_120_5239)">
<path fill-rule="evenodd" clip-rule="evenodd" d="M25.2022 24.9156H95.763C102.64 24.9156 108.215 19.3406 108.215 12.4636C108.215 5.58663 102.64 0.0117188 95.763 0.0117188H21.0515C9.60883 0.0117188 0.29834 9.32221 0.29834 20.7649V95.4764C0.29834 102.353 5.87325 107.928 12.7503 107.928C19.6273 107.928 25.2022 102.353 25.2022 95.4764V24.9156Z" fill="#43B71B"/>
<path fill-rule="evenodd" clip-rule="evenodd" d="M198.454 12.4636C198.454 5.58663 204.029 0.0117188 210.906 0.0117188H285.618C297.06 0.0117188 306.371 9.32221 306.371 20.7649V95.4764C306.371 102.353 300.796 107.928 293.919 107.928C287.042 107.928 281.467 102.353 281.467 95.4764V24.9156H210.906C204.029 24.9156 198.454 19.3406 198.454 12.4636Z" fill="#43B71B"/>
<path fill-rule="evenodd" clip-rule="evenodd" d="M293.919 199.565C300.796 199.565 306.371 205.14 306.371 212.017V286.729C306.371 298.172 297.06 307.482 285.618 307.482H210.906C204.029 307.482 198.454 301.907 198.454 295.03C198.454 288.153 204.029 282.578 210.906 282.578H281.467V212.017C281.467 205.14 287.042 199.565 293.919 199.565Z" fill="#43B71B"/>
<path fill-rule="evenodd" clip-rule="evenodd" d="M12.7503 199.565C19.6273 199.565 25.2022 205.14 25.2022 212.017V282.578H95.763C102.64 282.578 108.215 288.153 108.215 295.03C108.215 301.907 102.64 307.482 95.763 307.482H21.0515C9.60883 307.482 0.29834 298.172 0.29834 286.729V212.017C0.29834 205.14 5.87325 199.565 12.7503 199.565Z" fill="#43B71B"/>
<path d="M154.788 228.639C196.05 228.639 229.5 195.189 229.5 153.927C229.5 112.665 196.05 79.2158 154.788 79.2158C113.526 79.2158 80.0767 112.665 80.0767 153.927C80.0767 195.189 113.526 228.639 154.788 228.639Z" fill="#43B71B"/>
</g>
<defs>
<clipPath id="clip0_120_5239">
<rect width="306.068" height="307.479" fill="white" transform="translate(0.29834 0.0117188)"/>
</clipPath>
</defs>
</svg>
