<svg width="277" height="309" viewBox="0 0 277 309" fill="none" xmlns="http://www.w3.org/2000/svg">
<g clip-path="url(#clip0_120_5316)">
<path fill-rule="evenodd" clip-rule="evenodd" d="M233.619 92.4944H43.0447L30.4032 283.207H246.188L233.619 92.4944ZM236.606 67.6973C242.053 67.6876 247.302 69.7396 251.299 73.4414C255.3 77.1478 257.749 82.2328 258.151 87.6724L258.159 87.7716L271.158 285.022C271.351 287.956 270.942 290.9 269.956 293.67C268.97 296.44 267.428 298.979 265.425 301.132C263.421 303.284 260.999 305.004 258.307 306.186C255.615 307.367 252.709 307.986 249.769 308.004L249.694 308.004L26.8204 308.004C23.8799 307.986 20.9744 307.367 18.2824 306.186C15.5902 305.004 13.168 303.284 11.1647 301.132C9.16141 298.979 7.61942 296.44 6.63345 293.67C5.64748 290.9 5.23835 287.958 5.43121 285.024L18.5065 87.7673C18.5065 87.7672 18.5065 87.7674 18.5065 87.7673C18.8677 82.3175 21.2903 77.2093 25.2821 73.4814C29.27 69.7572 34.525 67.6895 39.981 67.6973C39.9865 67.6973 39.9919 67.6973 39.9974 67.6973L39.9702 80.0959V67.6973H39.981H236.606ZM236.606 67.6973C236.599 67.6973 236.592 67.6973 236.585 67.6973L236.619 80.0959V67.6973H236.606Z" fill="#43B71B"/>
<path fill-rule="evenodd" clip-rule="evenodd" d="M137.349 25.3683C132.719 25.0285 128.068 25.646 123.687 27.1821C119.306 28.7182 115.288 31.1402 111.883 34.297C108.479 37.4538 105.761 41.2778 103.899 45.5309C102.039 49.7802 101.073 54.3667 101.061 59.0052V119.631C101.061 126.478 95.5098 132.029 88.6622 132.029C81.8147 132.029 76.2637 126.478 76.2637 119.631V58.9631C76.2814 50.9157 77.9561 42.9581 81.1835 35.5861C84.4109 28.2142 89.1218 21.5858 95.0228 16.114C100.924 10.6422 107.888 6.44424 115.483 3.7816C122.93 1.17043 130.826 0.0907034 138.698 0.60531C167.245 0.728332 183.619 12.7743 192.148 26.6481C196.192 33.2259 198.168 39.7128 199.148 44.4974C199.643 46.9108 199.898 48.9584 200.03 50.4643C200.096 51.2194 200.132 51.8449 200.152 52.3195C200.162 52.5571 200.167 52.7575 200.17 52.9182L200.174 53.1294L200.174 53.2122L200.174 53.2478L200.174 53.2642C200.174 53.2719 200.174 53.2796 187.776 53.2796H200.174V119.631C200.174 126.478 194.623 132.029 187.776 132.029C180.928 132.029 175.377 126.478 175.377 119.631V53.3797C175.377 53.3679 175.376 53.353 175.375 53.3349C175.371 53.2196 175.358 52.9798 175.328 52.6336C175.267 51.9368 175.135 50.8378 174.856 49.4752C174.289 46.708 173.17 43.1258 171.023 39.6344C167.216 33.4413 158.956 25.4015 138.257 25.4015C137.954 25.4015 137.651 25.3904 137.349 25.3683Z" fill="#43B71B"/>
</g>
<defs>
<clipPath id="clip0_120_5316">
<rect width="265.856" height="307.485" fill="white" transform="translate(5.40723 0.592773)"/>
</clipPath>
</defs>
</svg>
