<svg width="309" height="295" viewBox="0 0 309 295" fill="none" xmlns="http://www.w3.org/2000/svg">
<g clip-path="url(#clip0_122_5693)">
<path d="M153.696 50.0741C167.387 50.0741 178.486 38.9751 178.486 25.2836C178.486 11.5922 167.387 0.493164 153.696 0.493164C140.004 0.493164 128.905 11.5922 128.905 25.2836C128.905 38.9751 140.004 50.0741 153.696 50.0741Z" fill="#787878"/>
<path d="M50.8984 115.264C64.5898 115.264 75.6889 104.165 75.6889 90.4731C75.6889 76.7817 64.5898 65.6826 50.8984 65.6826C37.207 65.6826 26.1079 76.7817 26.1079 90.4731C26.1079 104.165 37.207 115.264 50.8984 115.264Z" fill="#787878"/>
<path d="M13.1284 281.777C13.1284 281.777 82.3765 241.038 82.3765 184.103C82.3765 127.167 20.4003 126.341 20.4003 184.103C20.4003 228.064 59.9824 261.697 78.9058 275.249C84.8556 279.546 92.0448 281.777 99.3993 281.777C108.489 281.777 117.166 278.307 123.694 272.109C131.875 264.341 143.444 253.103 154.517 237.402C137.163 212.942 120.719 180.467 120.719 141.215C120.719 99.4019 137.659 78.9084 154.517 79.3216" stroke="#787878" stroke-width="24.5988" stroke-miterlimit="10" stroke-linecap="round" stroke-linejoin="round"/>
<path d="M258.06 115.264C271.751 115.264 282.85 104.165 282.85 90.4731C282.85 76.7817 271.751 65.6826 258.06 65.6826C244.368 65.6826 233.269 76.7817 233.269 90.4731C233.269 104.165 244.368 115.264 258.06 115.264Z" fill="#787878"/>
<path d="M295.824 281.777C295.824 281.777 226.576 241.038 226.576 184.103C226.576 127.167 288.553 126.341 288.553 184.103C288.553 228.064 248.97 261.697 230.047 275.249C224.097 279.546 216.908 281.777 209.554 281.777C200.464 281.777 191.787 278.307 185.259 272.109C177.078 264.341 165.509 253.103 154.436 237.402C171.789 212.942 188.234 180.467 188.234 141.215C188.234 99.4019 171.294 78.9084 154.436 79.3216" stroke="#787878" stroke-width="24.5988" stroke-miterlimit="10" stroke-linecap="round" stroke-linejoin="round"/>
</g>
<defs>
<clipPath id="clip0_122_5693">
<rect width="307.485" height="293.685" fill="white" transform="translate(0.734863 0.493164)"/>
</clipPath>
</defs>
</svg>
