<svg width="309" height="295" viewBox="0 0 309 295" fill="none" xmlns="http://www.w3.org/2000/svg">
<g clip-path="url(#clip0_120_5396)">
<path d="M153.554 50.0741C167.245 50.0741 178.344 38.9751 178.344 25.2836C178.344 11.5922 167.245 0.493164 153.554 0.493164C139.862 0.493164 128.763 11.5922 128.763 25.2836C128.763 38.9751 139.862 50.0741 153.554 50.0741Z" fill="#43B71B"/>
<path d="M50.7563 115.264C64.4477 115.264 75.5468 104.165 75.5468 90.4731C75.5468 76.7817 64.4477 65.6826 50.7563 65.6826C37.0649 65.6826 25.9658 76.7817 25.9658 90.4731C25.9658 104.165 37.0649 115.264 50.7563 115.264Z" fill="#43B71B"/>
<path d="M12.9863 281.777C12.9863 281.777 82.2344 241.038 82.2344 184.103C82.2344 127.167 20.2582 126.341 20.2582 184.103C20.2582 228.064 59.8403 261.697 78.7637 275.249C84.7135 279.546 91.9027 281.777 99.2572 281.777C108.347 281.777 117.024 278.307 123.552 272.109C131.733 264.341 143.302 253.103 154.375 237.402C137.021 212.942 120.577 180.467 120.577 141.215C120.577 99.4019 137.517 78.9084 154.375 79.3216" stroke="#43B71B" stroke-width="24.5988" stroke-miterlimit="10" stroke-linecap="round" stroke-linejoin="round"/>
<path d="M257.917 115.264C271.609 115.264 282.708 104.165 282.708 90.4731C282.708 76.7817 271.609 65.6826 257.917 65.6826C244.226 65.6826 233.127 76.7817 233.127 90.4731C233.127 104.165 244.226 115.264 257.917 115.264Z" fill="#43B71B"/>
<path d="M295.682 281.777C295.682 281.777 226.434 241.038 226.434 184.103C226.434 127.167 288.41 126.341 288.41 184.103C288.41 228.064 248.828 261.697 229.905 275.249C223.955 279.546 216.766 281.777 209.411 281.777C200.322 281.777 191.645 278.307 185.117 272.109C176.936 264.341 165.367 253.103 154.294 237.402C171.647 212.942 188.092 180.467 188.092 141.215C188.092 99.4019 171.151 78.9084 154.294 79.3216" stroke="#43B71B" stroke-width="24.5988" stroke-miterlimit="10" stroke-linecap="round" stroke-linejoin="round"/>
</g>
<defs>
<clipPath id="clip0_120_5396">
<rect width="307.485" height="293.685" fill="white" transform="translate(0.592773 0.493164)"/>
</clipPath>
</defs>
</svg>
