<svg width="309" height="278" viewBox="0 0 309 278" fill="none" xmlns="http://www.w3.org/2000/svg">
<g clip-path="url(#clip0_122_5699)">
<path fill-rule="evenodd" clip-rule="evenodd" d="M64.1576 15.5267C70.2215 17.7784 73.3119 24.5195 71.0602 30.5834L26.0788 151.722C27.2363 151.647 28.4345 151.574 29.6691 151.498C43.5705 150.645 62.0858 149.509 79.0901 143.677C81.5729 142.825 83.9617 141.89 86.2433 140.864C78.7 129.827 74.1352 115.592 74.1352 97.6386C74.1352 87.4166 77.6964 78.7296 84.0736 72.6505C90.3101 66.7056 98.435 64.0294 106.247 64.1729C122.219 64.4664 137.928 76.6683 137.928 97.8728C137.928 116.305 132.425 130.944 123.111 142.192C123.688 142.467 124.269 142.733 124.853 142.988C132.057 146.135 139.43 147.617 145.124 148.286C147.94 148.617 150.263 148.74 151.84 148.782C152.626 148.802 153.221 148.803 153.591 148.799C153.776 148.797 153.904 148.794 153.972 148.792L154.007 148.791L153.999 148.792C154.008 148.791 154.017 148.791 154.026 148.791C160.472 148.539 165.911 153.551 166.183 160.002C166.455 166.464 161.436 171.924 154.974 172.196L154.481 160.494C154.974 172.196 154.968 172.196 154.962 172.196L154.917 172.198L154.835 172.201L154.596 172.208C154.404 172.214 154.147 172.219 153.829 172.222C153.194 172.229 152.314 172.227 151.224 172.198C149.047 172.141 146.008 171.976 142.39 171.55C135.215 170.707 125.43 168.802 115.475 164.453C111.618 162.768 107.69 160.695 103.862 158.146C98.3203 161.336 92.4946 163.843 86.6901 165.834C66.2462 172.846 43.2437 174.199 29.5598 175.004C26.5169 175.183 23.9348 175.335 21.944 175.516L21.8983 175.52C8.21696 176.709 -2.19059 163.738 1.4953 150.74C1.57969 150.442 1.67583 150.148 1.7835 149.858L49.1008 22.4294C51.3525 16.3655 58.0936 13.275 64.1576 15.5267ZM105.206 127.085C110.715 120.357 114.503 111.152 114.503 97.8728C114.503 93.6325 113.093 91.2857 111.739 89.9679C110.241 88.5092 108.106 87.6354 105.816 87.5934C103.536 87.5515 101.569 88.3352 100.236 89.6056C99.0444 90.7416 97.5596 93.025 97.5596 97.6386C97.5596 111.042 100.805 120.4 105.206 127.085Z" fill="#787878"/>
<path fill-rule="evenodd" clip-rule="evenodd" d="M83.2637 26.5032C83.2637 20.0348 88.5074 14.791 94.9759 14.791H154.474C160.942 14.791 166.186 20.0348 166.186 26.5032C166.186 32.9717 160.942 38.2154 154.474 38.2154H94.9759C88.5074 38.2154 83.2637 32.9717 83.2637 26.5032Z" fill="#787878"/>
<path fill-rule="evenodd" clip-rule="evenodd" d="M55.0804 152.223C61.5489 152.223 66.7926 157.466 66.7926 163.935V240.142H153.931C160.4 240.142 165.644 245.386 165.644 251.855C165.644 258.323 160.4 263.567 153.931 263.567H63.2789C53.2893 263.567 43.3682 255.929 43.3682 244.359V163.935C43.3682 157.466 48.6119 152.223 55.0804 152.223Z" fill="#787878"/>
<path fill-rule="evenodd" clip-rule="evenodd" d="M144.094 213.278H154.01C160.479 213.278 165.722 208.034 165.722 201.566C165.722 195.097 160.479 189.854 154.01 189.854H138.55C126.795 189.854 120.669 200.398 120.669 208.905V249.742C120.669 256.21 125.913 261.454 132.382 261.454C138.85 261.454 144.094 256.21 144.094 249.742V213.278Z" fill="#787878"/>
<path fill-rule="evenodd" clip-rule="evenodd" d="M252.786 152.223C259.254 152.223 264.498 157.466 264.498 163.935V244.359C264.498 255.929 254.577 263.567 244.587 263.567H153.935C147.466 263.567 142.223 258.323 142.223 251.855C142.223 245.386 147.466 240.142 153.935 240.142H241.074V163.935C241.074 157.466 246.317 152.223 252.786 152.223Z" fill="#787878"/>
<path fill-rule="evenodd" clip-rule="evenodd" d="M142.223 201.566C142.223 195.097 147.466 189.854 153.935 189.854H169.395C181.15 189.854 187.276 200.398 187.276 208.905V249.742C187.276 256.21 182.032 261.454 175.563 261.454C169.095 261.454 163.851 256.21 163.851 249.742V213.278H153.935C147.466 213.278 142.223 208.034 142.223 201.566Z" fill="#787878"/>
<path fill-rule="evenodd" clip-rule="evenodd" d="M142.764 26.5032C142.764 20.0348 148.008 14.791 154.476 14.791H243.411C251.637 14.791 258.807 19.9002 261.682 27.3741L261.73 27.5007L307.173 149.854C307.281 150.144 307.377 150.439 307.462 150.737C311.148 163.734 300.74 176.706 287.059 175.517L287.013 175.513C285.022 175.332 282.44 175.18 279.397 175.001C265.713 174.196 242.711 172.843 222.267 165.831C216.462 163.84 210.637 161.333 205.095 158.143C201.268 160.692 197.339 162.765 193.482 164.45C183.527 168.799 173.742 170.704 166.568 171.547C162.949 171.973 159.91 172.138 157.733 172.195C156.643 172.224 155.763 172.225 155.128 172.219C154.81 172.216 154.553 172.21 154.361 172.205L154.122 172.198L154.04 172.195L153.995 172.193C153.989 172.193 153.984 172.193 154.476 160.491L153.984 172.193C147.521 171.921 142.502 166.461 142.774 159.998C143.046 153.548 148.485 148.536 154.931 148.788C154.94 148.788 154.949 148.788 154.957 148.789L154.931 148.788L154.985 148.789C155.053 148.791 155.181 148.794 155.366 148.796C155.736 148.8 156.331 148.799 157.117 148.779C158.694 148.737 161.017 148.614 163.833 148.283C169.527 147.614 176.9 146.132 184.104 142.985C184.688 142.729 185.269 142.464 185.847 142.189C176.532 130.941 171.029 116.302 171.029 97.8697C171.029 76.6651 186.738 64.4632 202.71 64.1697C210.522 64.0262 218.647 66.7024 224.883 72.6473C231.261 78.7264 234.822 87.4135 234.822 97.6354C234.822 115.589 230.257 129.824 222.714 140.861C224.995 141.886 227.384 142.822 229.867 143.673C246.871 149.506 265.387 150.642 279.288 151.495C280.522 151.57 281.72 151.644 282.878 151.718L240.722 38.2154H154.476C148.008 38.2154 142.764 32.9717 142.764 26.5032ZM203.751 127.082C208.152 120.397 211.397 111.038 211.397 97.6354C211.397 93.0219 209.913 90.7385 208.721 89.6024C207.388 88.3321 205.421 87.5483 203.141 87.5902C200.851 87.6323 198.717 88.5061 197.218 89.9647C195.864 91.2826 194.454 93.6293 194.454 97.8697C194.454 111.149 198.242 120.354 203.751 127.082Z" fill="#787878"/>
</g>
<defs>
<clipPath id="clip0_122_5699">
<rect width="307.485" height="248.845" fill="white" transform="translate(0.734863 14.791)"/>
</clipPath>
</defs>
</svg>
