<svg width="309" height="278" viewBox="0 0 309 278" fill="none" xmlns="http://www.w3.org/2000/svg">
<g clip-path="url(#clip0_41_6136)">
<path fill-rule="evenodd" clip-rule="evenodd" d="M244.593 15.5755C238.529 17.8272 235.438 24.5682 237.69 30.632L282.671 151.768C281.513 151.694 280.315 151.62 279.08 151.544C265.179 150.692 246.664 149.556 229.66 143.723C227.178 142.872 224.789 141.936 222.507 140.911C230.05 129.874 234.615 115.639 234.615 97.686C234.615 87.4642 231.054 78.7773 224.677 72.6983C218.441 66.7535 210.316 64.0774 202.504 64.2209C186.532 64.5144 170.824 76.7161 170.824 97.9202C170.824 116.352 176.326 130.991 185.641 142.238C185.063 142.514 184.482 142.779 183.898 143.034C176.694 146.182 169.321 147.663 163.627 148.333C160.812 148.664 158.488 148.787 156.911 148.828C156.125 148.849 155.531 148.849 155.16 148.845C154.976 148.844 154.847 148.841 154.78 148.839L154.744 148.838L154.753 148.838C154.744 148.838 154.735 148.838 154.726 148.837C148.28 148.586 142.841 153.598 142.569 160.048C142.297 166.511 147.315 171.97 153.778 172.242L154.271 160.54C153.778 172.242 153.784 172.242 153.79 172.243L153.835 172.244L153.917 172.247L154.156 172.255C154.348 172.26 154.605 172.265 154.922 172.268C155.558 172.275 156.438 172.273 157.528 172.244C159.705 172.187 162.743 172.022 166.362 171.597C173.536 170.753 183.322 168.848 193.276 164.5C197.133 162.815 201.061 160.741 204.889 158.193C210.43 161.382 216.256 163.889 222.06 165.88C242.504 172.892 265.506 174.245 279.19 175.05C282.233 175.229 284.815 175.381 286.805 175.562L286.851 175.566C300.532 176.756 310.94 163.784 307.254 150.786C307.169 150.489 307.073 150.195 306.966 149.905L259.649 22.4781C257.397 16.4143 250.656 13.3239 244.593 15.5755ZM203.545 127.132C198.036 120.404 194.248 111.199 194.248 97.9202C194.248 93.68 195.658 91.3333 197.012 90.0154C198.51 88.5568 200.645 87.683 202.935 87.641C205.215 87.5991 207.182 88.3828 208.515 89.6531C209.706 90.7892 211.191 93.0725 211.191 97.686C211.191 111.089 207.946 120.447 203.545 127.132Z" fill="#43B71B"/>
<path fill-rule="evenodd" clip-rule="evenodd" d="M225.487 26.5519C225.487 20.0835 220.243 14.8398 213.775 14.8398L154.278 14.8398C147.809 14.8399 142.566 20.0835 142.566 26.5519C142.566 33.0202 147.809 38.2639 154.278 38.2639L213.775 38.2639C220.243 38.2639 225.487 33.0202 225.487 26.5519Z" fill="#43B71B"/>
<path fill-rule="evenodd" clip-rule="evenodd" d="M253.67 152.269C247.201 152.269 241.958 157.512 241.958 163.981L241.958 240.187L154.82 240.187C148.352 240.187 143.108 245.43 143.108 251.899C143.108 258.367 148.352 263.611 154.82 263.611L245.471 263.611C255.461 263.611 265.382 255.973 265.382 244.403L265.382 163.981C265.382 157.512 260.138 152.269 253.67 152.269Z" fill="#43B71B"/>
<path fill-rule="evenodd" clip-rule="evenodd" d="M164.658 213.323L154.742 213.323C148.273 213.323 143.03 208.08 143.03 201.611C143.03 195.143 148.273 189.899 154.742 189.899L170.202 189.899C181.957 189.899 188.082 200.443 188.082 208.951L188.082 249.787C188.082 256.255 182.838 261.499 176.37 261.499C169.902 261.499 164.658 256.255 164.658 249.787L164.658 213.323Z" fill="#43B71B"/>
<path fill-rule="evenodd" clip-rule="evenodd" d="M55.9674 152.269C49.4991 152.269 44.2554 157.512 44.2554 163.981L44.2554 244.403C44.2554 255.973 54.1764 263.611 64.1658 263.611L154.817 263.611C161.285 263.611 166.529 258.367 166.529 251.899C166.529 245.43 161.285 240.187 154.817 240.187L67.6795 240.187L67.6794 163.981C67.6794 157.512 62.4358 152.269 55.9674 152.269Z" fill="#43B71B"/>
<path fill-rule="evenodd" clip-rule="evenodd" d="M166.529 201.611C166.529 195.143 161.285 189.899 154.817 189.899L139.357 189.899C127.602 189.899 121.477 200.443 121.477 208.951L121.477 249.787C121.477 256.255 126.72 261.499 133.189 261.499C139.657 261.499 144.901 256.255 144.901 249.787L144.901 213.323L154.817 213.323C161.285 213.323 166.529 208.08 166.529 201.611Z" fill="#43B71B"/>
<path fill-rule="evenodd" clip-rule="evenodd" d="M165.988 26.5519C165.988 20.0835 160.744 14.8398 154.276 14.8398L65.3429 14.8399C57.117 14.8399 49.9465 19.9489 47.072 27.4227L47.0241 27.5493L1.58154 149.901C1.47374 150.191 1.3775 150.485 1.29304 150.783C-2.39281 163.781 8.0146 176.752 21.6957 175.563L21.7414 175.559C23.7321 175.378 26.3142 175.226 29.357 175.047C43.0408 174.242 66.0428 172.889 86.4863 165.877C92.2908 163.886 98.1163 161.379 103.658 158.19C107.485 160.738 111.414 162.811 115.271 164.496C125.225 168.845 135.01 170.75 142.185 171.593C145.804 172.019 148.842 172.184 151.019 172.241C152.109 172.27 152.989 172.272 153.624 172.265C153.942 172.262 154.199 172.257 154.391 172.251L154.63 172.244L154.712 172.241L154.757 172.239C154.763 172.239 154.769 172.239 154.276 160.537L154.769 172.239C161.231 171.967 166.25 166.507 165.978 160.045C165.706 153.594 160.267 148.583 153.821 148.834C153.812 148.834 153.804 148.835 153.795 148.835L153.821 148.834L153.767 148.836C153.7 148.837 153.571 148.84 153.386 148.842C153.016 148.846 152.422 148.846 151.635 148.825C150.058 148.784 147.735 148.66 144.92 148.33C139.226 147.66 131.853 146.178 124.649 143.031C124.064 142.776 123.483 142.511 122.906 142.235C132.221 130.988 137.723 116.349 137.723 97.917C137.723 76.7129 122.014 64.5112 106.043 64.2177C98.231 64.0742 90.1063 66.7503 83.87 72.6951C77.4928 78.7742 73.9317 87.4611 73.9317 97.6828C73.9317 115.636 78.4964 129.871 86.0396 140.907C83.758 141.933 81.3692 142.868 78.8865 143.72C61.8825 149.552 43.3675 150.688 29.4664 151.541C28.232 151.617 27.034 151.69 25.8767 151.765L68.0321 38.2639L154.276 38.2639C160.744 38.2639 165.988 33.0202 165.988 26.5519ZM105.002 127.129C100.601 120.444 97.3557 111.086 97.3557 97.6828C97.3557 93.0693 98.8405 90.786 100.032 89.6499C101.365 88.3796 103.332 87.5959 105.612 87.6378C107.902 87.6799 110.036 88.5536 111.535 90.0122C112.889 91.3301 114.299 93.6768 114.299 97.9171C114.299 111.196 110.511 120.401 105.002 127.129Z" fill="#43B71B"/>
</g>
<defs>
<clipPath id="clip0_41_6136">
<rect width="307.479" height="248.841" fill="white" transform="matrix(-1 8.74228e-08 8.74228e-08 1 308.014 14.8398)"/>
</clipPath>
</defs>
</svg>
