<svg width="29" height="32" viewBox="0 0 29 32" fill="none" xmlns="http://www.w3.org/2000/svg">
<g clip-path="url(#clip0_41_6098)">
<path d="M16.2633 27.8251H11.9809C11.642 27.8251 11.317 27.6904 11.0774 27.4508C10.8377 27.2112 10.7031 26.8862 10.7031 26.5473C10.7031 26.2084 10.8377 25.8834 11.0774 25.6438C11.317 25.4042 11.642 25.2695 11.9809 25.2695H16.2633C16.6022 25.2695 16.9272 25.4042 17.1668 25.6438C17.4065 25.8834 17.5411 26.2084 17.5411 26.5473C17.5411 26.8862 17.4065 27.2112 17.1668 27.4508C16.9272 27.6904 16.6022 27.8251 16.2633 27.8251Z" fill="#43B71B"/>
<path d="M22.5214 27.8015C22.1974 27.7925 21.889 27.6609 21.6585 27.4331C21.428 27.2053 21.2927 26.8985 21.2799 26.5747C21.2671 26.2509 21.3778 25.9343 21.5896 25.6891C21.8014 25.4438 22.0985 25.2882 22.4207 25.2537C23.6597 25.153 24.1399 24.5955 24.1399 23.2558V5.39807C24.1277 4.85444 23.901 4.33768 23.5093 3.9605C23.1176 3.58332 22.5927 3.37631 22.049 3.38463H6.15052C5.60548 3.37424 5.07856 3.58033 4.68519 3.95773C4.29182 4.33513 4.06409 4.85307 4.05189 5.39807V23.2558C4.05189 24.8046 4.69464 25.1763 5.71685 25.2537C5.88943 25.257 6.05956 25.2952 6.21697 25.366C6.37438 25.4369 6.5158 25.5389 6.6327 25.6659C6.7496 25.7929 6.83956 25.9422 6.89715 26.105C6.95474 26.2677 6.97876 26.4404 6.96776 26.6126C6.95677 26.7849 6.91098 26.9532 6.83318 27.1072C6.75537 27.2613 6.64715 27.398 6.51505 27.5091C6.38294 27.6202 6.2297 27.7034 6.06457 27.7537C5.89943 27.8039 5.72583 27.8202 5.55423 27.8015C2.99871 27.6079 1.52734 25.9507 1.52734 23.2558V5.39807C1.54766 4.17924 2.04615 3.0172 2.91532 2.16251C3.7845 1.30782 4.95475 0.828932 6.17375 0.829102H22.049C23.268 0.828932 24.4382 1.30782 25.3074 2.16251C26.1766 3.0172 26.6751 4.17924 26.6954 5.39807V23.2558C26.6954 25.8965 25.1466 27.6002 22.622 27.8015H22.5214Z" fill="#43B71B"/>
<path d="M19.1053 18.0764H9.10773C8.15198 18.0764 7.23527 17.6972 6.55872 17.0221C5.88218 16.347 5.50107 15.4311 5.49902 14.4754V8.22597C5.50107 7.27022 5.88218 6.35432 6.55872 5.67923C7.23527 5.00414 8.15198 4.625 9.10773 4.625H19.1053C20.061 4.625 20.9777 5.00414 21.6543 5.67923C22.3308 6.35432 22.7119 7.27022 22.714 8.22597V14.4754C22.7119 15.4311 22.3308 16.347 21.6543 17.0221C20.9777 17.6972 20.061 18.0764 19.1053 18.0764ZM9.10773 7.05662C8.79144 7.05662 8.48811 7.18227 8.26445 7.40592C8.0408 7.62957 7.91516 7.93291 7.91516 8.2492V14.4986C7.91516 14.8149 8.0408 15.1182 8.26445 15.3419C8.48811 15.5655 8.79144 15.6912 9.10773 15.6912H19.1053C19.4202 15.6831 19.7192 15.5506 19.9368 15.3228C20.1544 15.095 20.2731 14.7904 20.2669 14.4754V8.22597C20.261 7.91901 20.1369 7.62614 19.9206 7.40833C19.7042 7.19052 19.4122 7.06454 19.1053 7.05662H9.10773Z" fill="#43B71B"/>
<path d="M7.60723 23.6822C8.59519 23.6822 9.39609 22.8813 9.39609 21.8934C9.39609 20.9054 8.59519 20.1045 7.60723 20.1045C6.61926 20.1045 5.81836 20.9054 5.81836 21.8934C5.81836 22.8813 6.61926 23.6822 7.60723 23.6822Z" fill="#43B71B"/>
<path d="M22.3735 21.8708C22.3735 22.2262 22.2681 22.5735 22.0707 22.869C21.8733 23.1644 21.5927 23.3947 21.2644 23.5307C20.9361 23.6667 20.5749 23.7022 20.2264 23.6329C19.8779 23.5636 19.5577 23.3925 19.3065 23.1412C19.0552 22.89 18.8841 22.5698 18.8148 22.2213C18.7455 21.8728 18.7811 21.5116 18.917 21.1833C19.053 20.855 19.2833 20.5744 19.5787 20.377C19.8742 20.1796 20.2215 20.0742 20.5769 20.0742C21.0534 20.0742 21.5104 20.2635 21.8473 20.6004C22.1842 20.9374 22.3735 21.3943 22.3735 21.8708Z" fill="#43B71B"/>
<path d="M4.47749 31.9374C4.15905 31.9276 3.85577 31.7991 3.62714 31.5772C3.39851 31.3553 3.26102 31.0561 3.24163 30.738C3.22224 30.42 3.32235 30.1063 3.52233 29.8583C3.7223 29.6102 4.00772 29.4459 4.32261 29.3974C5.13817 29.364 5.91683 29.0484 6.52557 28.5046C7.13432 27.9609 7.53539 27.2226 7.66028 26.416C7.7011 26.0814 7.87168 25.7762 8.1353 25.5662C8.39891 25.3562 8.73446 25.2581 9.06969 25.2931C9.40437 25.3282 9.71142 25.4947 9.92341 25.7561C10.1354 26.0175 10.235 26.3523 10.2003 26.687C10.0087 28.0625 9.35299 29.3313 8.34183 30.2833C7.33067 31.2354 6.02468 31.8135 4.64012 31.9219L4.47749 31.9374Z" fill="#43B71B"/>
<path d="M23.7296 31.9281H23.5747C22.1862 31.8252 20.8752 31.2481 19.8615 30.2936C18.8478 29.3391 18.193 28.0652 18.0068 26.6854C17.9888 26.3571 18.0981 26.0345 18.3119 25.7847C18.5257 25.535 18.8276 25.3772 19.1547 25.3443C19.4819 25.3114 19.8091 25.4059 20.0684 25.608C20.3276 25.8102 20.499 26.1046 20.5468 26.4298C20.6722 27.2349 21.0738 27.9712 21.6829 28.5124C22.2919 29.0536 23.0703 29.3659 23.8845 29.3958C24.2106 29.4317 24.5105 29.5916 24.7219 29.8425C24.9333 30.0933 25.0402 30.4159 25.0203 30.7434C25.0004 31.0709 24.8552 31.3782 24.615 31.6016C24.3747 31.8251 24.0577 31.9475 23.7296 31.9436V31.9281Z" fill="#43B71B"/>
</g>
<defs>
<clipPath id="clip0_41_6098">
<rect width="25.199" height="31.1077" fill="white" transform="translate(1.49609 0.829102)"/>
</clipPath>
</defs>
</svg>
