<svg width="277" height="309" viewBox="0 0 277 309" fill="none" xmlns="http://www.w3.org/2000/svg">
<g clip-path="url(#clip0_122_5683)">
<path d="M137.794 54.4273C152.66 54.4273 164.711 42.376 164.711 27.51C164.711 12.644 152.66 0.592773 137.794 0.592773C122.928 0.592773 110.877 12.644 110.877 27.51C110.877 42.376 122.928 54.4273 137.794 54.4273Z" fill="#43B71B"/>
<path d="M77.4128 180.043C77.4128 180.043 62.1597 162.726 62.1597 141.91C62.1597 120.376 77.4128 104.495 77.4128 104.495" stroke="#43B71B" stroke-width="24.5988" stroke-miterlimit="10" stroke-linecap="round"/>
<path d="M158.422 93.0928L214.5 166.667" stroke="#43B71B" stroke-width="24.5988" stroke-miterlimit="10" stroke-linecap="round"/>
<path d="M137.788 81.7139C156.271 81.7139 169.819 101.633 169.819 138.42C169.909 228.503 77.4033 294.54 77.4033 294.54" stroke="#43B71B" stroke-width="24.5988" stroke-miterlimit="10" stroke-linecap="round"/>
<path d="M137.793 81.7139C119.31 81.7139 105.762 101.633 105.762 138.42C105.672 228.503 198.178 294.54 198.178 294.54" stroke="#43B71B" stroke-width="24.5988" stroke-miterlimit="10" stroke-linecap="round"/>
</g>
<defs>
<clipPath id="clip0_122_5683">
<rect width="179.269" height="307.485" fill="white" transform="translate(48.6958 0.592773)"/>
</clipPath>
</defs>
</svg>
