<svg width="458" height="509" viewBox="0 0 458 509" fill="none" xmlns="http://www.w3.org/2000/svg">
<g clip-path="url(#clip0_26_12039)">
<path d="M228.311 89.7186C252.859 89.7186 272.76 69.8183 272.76 45.27C272.76 20.7216 252.859 0.821289 228.311 0.821289C203.763 0.821289 183.862 20.7216 183.862 45.27C183.862 69.8183 203.763 89.7186 228.311 89.7186Z" fill="#43B71B"/>
<path d="M128.602 297.147C128.602 297.147 103.414 268.552 103.414 234.178C103.414 198.619 128.602 172.395 128.602 172.395" stroke="#43B71B" stroke-width="40.6202" stroke-miterlimit="10" stroke-linecap="round"/>
<path d="M262.411 153.566L355.013 275.059" stroke="#43B71B" stroke-width="40.6202" stroke-miterlimit="10" stroke-linecap="round"/>
<path d="M228.319 134.776C258.84 134.776 281.213 167.668 281.213 228.415C281.361 377.17 128.605 486.217 128.605 486.217" stroke="#43B71B" stroke-width="40.6202" stroke-miterlimit="10" stroke-linecap="round"/>
<path d="M228.309 134.776C197.788 134.776 175.415 167.668 175.415 228.415C175.267 377.17 328.022 486.217 328.022 486.217" stroke="#43B71B" stroke-width="40.6202" stroke-miterlimit="10" stroke-linecap="round"/>
</g>
<defs>
<clipPath id="clip0_26_12039">
<rect width="296.028" height="507.752" fill="white" transform="translate(81.2002 0.821289)"/>
</clipPath>
</defs>
</svg>
