<svg width="277" height="309" viewBox="0 0 277 309" fill="none" xmlns="http://www.w3.org/2000/svg">
<g clip-path="url(#clip0_122_5695)">
<path d="M137.936 54.4273C152.802 54.4273 164.854 42.376 164.854 27.51C164.854 12.644 152.802 0.592773 137.936 0.592773C123.07 0.592773 111.019 12.644 111.019 27.51C111.019 42.376 123.07 54.4273 137.936 54.4273Z" fill="#787878"/>
<path d="M77.5492 180.043C77.5492 180.043 62.2961 162.726 62.2961 141.91C62.2961 120.376 77.5492 104.495 77.5492 104.495" stroke="#787878" stroke-width="24.5988" stroke-miterlimit="10" stroke-linecap="round"/>
<path d="M158.57 93.0928L214.648 166.667" stroke="#787878" stroke-width="24.5988" stroke-miterlimit="10" stroke-linecap="round"/>
<path d="M137.936 81.7139C156.419 81.7139 169.967 101.633 169.967 138.42C170.057 228.503 77.5513 294.54 77.5513 294.54" stroke="#787878" stroke-width="24.5988" stroke-miterlimit="10" stroke-linecap="round"/>
<path d="M137.936 81.7139C119.452 81.7139 105.904 101.633 105.904 138.42C105.814 228.503 198.32 294.54 198.32 294.54" stroke="#787878" stroke-width="24.5988" stroke-miterlimit="10" stroke-linecap="round"/>
</g>
<defs>
<clipPath id="clip0_122_5695">
<rect width="179.269" height="307.485" fill="white" transform="translate(48.8379 0.592773)"/>
</clipPath>
</defs>
</svg>
