<svg width="277" height="309" viewBox="0 0 277 309" fill="none" xmlns="http://www.w3.org/2000/svg">
<g clip-path="url(#clip0_181_5551)">
<path d="M137.796 54.4273C152.662 54.4273 164.713 42.376 164.713 27.51C164.713 12.644 152.662 0.592773 137.796 0.592773C122.93 0.592773 110.879 12.644 110.879 27.51C110.879 42.376 122.93 54.4273 137.796 54.4273Z" fill="#F64D4D"/>
<path d="M77.4118 180.043C77.4118 180.043 62.1587 162.726 62.1587 141.91C62.1587 120.376 77.4118 104.495 77.4118 104.495" stroke="#F64D4D" stroke-width="24.5988" stroke-miterlimit="10" stroke-linecap="round"/>
<path d="M158.433 93.0928L214.511 166.667" stroke="#F64D4D" stroke-width="24.5988" stroke-miterlimit="10" stroke-linecap="round"/>
<path d="M137.795 81.7139C156.279 81.7139 169.827 101.633 169.827 138.42C169.917 228.503 77.411 294.54 77.411 294.54" stroke="#F64D4D" stroke-width="24.5988" stroke-miterlimit="10" stroke-linecap="round"/>
<path d="M137.795 81.7139C119.312 81.7139 105.764 101.633 105.764 138.42C105.674 228.503 198.18 294.54 198.18 294.54" stroke="#F64D4D" stroke-width="24.5988" stroke-miterlimit="10" stroke-linecap="round"/>
</g>
<defs>
<clipPath id="clip0_181_5551">
<rect width="179.269" height="307.485" fill="white" transform="translate(48.7006 0.592773)"/>
</clipPath>
</defs>
</svg>
