<svg width="201" height="201" viewBox="0 0 201 201" fill="none" xmlns="http://www.w3.org/2000/svg">
<g clip-path="url(#clip0_154_6326)">
<path d="M47.3583 27.7598L47.3583 72.0605" stroke="#222222" stroke-width="0.679485" stroke-linecap="round"/>
<path d="M62.1863 72.0605H50.4763" stroke="#222222" stroke-width="0.679485" stroke-linecap="round" stroke-dasharray="1.36 1.36"/>
<path d="M83.7297 9.60352L62.1863 9.60351" stroke="#222222" stroke-width="0.679485" stroke-linecap="round" stroke-dasharray="1.36 1.36"/>
<path d="M87.3042 9.60352L87.3042 17.2686" stroke="#222222" stroke-width="0.679485" stroke-linecap="round" stroke-dasharray="1.36 1.36"/>
<path d="M62.1863 49.9082H50.4763" stroke="#222222" stroke-width="0.679485" stroke-linecap="round" stroke-dasharray="1.36 1.36"/>
<path d="M44.2401 27.7598H32.5263" stroke="#222222" stroke-width="0.679485" stroke-linecap="round"/>
<path d="M62.1863 27.7598H50.4763" stroke="#222222" stroke-width="0.679485" stroke-linecap="round" stroke-dasharray="1.36 1.36"/>
<rect x="0.747824" y="19.0214" width="28.3205" height="15.4743" rx="7.73717" stroke="#424242" stroke-width="0.679485"/>
<path d="M8.16231 26.1837H13.2041V26.7069H8.78064L8.78064 30.315H8.16231L8.16231 26.1837ZM12.8779 26.1837H13.4759V29.6831C13.4759 29.8326 13.4532 29.9458 13.4079 30.0228C13.3626 30.1043 13.2856 30.1655 13.1769 30.2063C13.0637 30.247 12.9142 30.272 12.7284 30.281C12.5473 30.2901 12.314 30.2946 12.0286 30.2946C12.0195 30.2176 11.9969 30.1338 11.9606 30.0432C11.9244 29.9526 11.8859 29.8733 11.8451 29.8054C11.9765 29.8099 12.1011 29.8122 12.2188 29.8122C12.3411 29.8167 12.4476 29.8167 12.5382 29.8122C12.6288 29.8122 12.6922 29.8122 12.7284 29.8122C12.7828 29.8122 12.8213 29.8008 12.844 29.7782C12.8666 29.7601 12.8779 29.7261 12.8779 29.6763V26.1837ZM9.84743 27.8688H12.0761V29.4724H9.84743V29.0172H11.5461V28.3309H9.84743V27.8688ZM9.50769 27.8688H10.0513L10.0513 29.7714H9.50769L9.50769 27.8688ZM7.80218 24.716H13.8224V25.2664H7.80218V24.716ZM9.24269 25.4227L9.79307 25.2392C9.86555 25.357 9.9403 25.4884 10.0173 25.6333C10.0988 25.7783 10.1623 25.8983 10.2076 25.9935L9.63 26.2177C9.58923 26.1135 9.53034 25.9867 9.45333 25.8372C9.38085 25.6832 9.31064 25.545 9.24269 25.4227ZM11.7908 25.28L12.4431 25.4159C12.3343 25.5971 12.2211 25.7806 12.1033 25.9663C11.9855 26.152 11.8791 26.3083 11.784 26.4351L11.2811 26.2924C11.3446 26.1973 11.408 26.0909 11.4714 25.9731C11.5348 25.8553 11.5937 25.7353 11.6481 25.613C11.707 25.4906 11.7545 25.3797 11.7908 25.28ZM10.3706 24.1317L10.9754 23.9822C11.0343 24.1181 11.0932 24.2676 11.152 24.4306C11.2109 24.5937 11.2562 24.7342 11.2879 24.8519L10.656 25.0286C10.6288 24.9108 10.5858 24.7681 10.5269 24.6005C10.4726 24.4284 10.4205 24.2721 10.3706 24.1317ZM9.88141 26.4555H10.4454C10.4273 26.7318 10.3752 26.9674 10.2891 27.1622C10.2076 27.357 10.0694 27.5178 9.87461 27.6446C9.68436 27.7715 9.41483 27.8734 9.06602 27.9504C9.04338 27.887 9.00034 27.8122 8.93692 27.7262C8.87803 27.6356 8.82141 27.5653 8.76705 27.5155C9.06149 27.4612 9.28572 27.3909 9.43974 27.3049C9.59376 27.2188 9.70248 27.1078 9.76589 26.9719C9.82931 26.8315 9.86782 26.6594 9.88141 26.4555ZM11.0637 26.4691H11.6413V27.0331C11.6413 27.1056 11.6481 27.1576 11.6617 27.1894C11.6752 27.2211 11.7115 27.2369 11.7704 27.2369C11.793 27.2369 11.8247 27.2369 11.8655 27.2369C11.9108 27.2369 11.9584 27.2369 12.0082 27.2369C12.0626 27.2369 12.1124 27.2369 12.1577 27.2369C12.203 27.2369 12.237 27.2369 12.2596 27.2369C12.3094 27.2369 12.3751 27.2347 12.4567 27.2301C12.5382 27.2211 12.6016 27.212 12.6469 27.2029C12.6514 27.2754 12.656 27.3502 12.6605 27.4272C12.665 27.4997 12.6741 27.5721 12.6877 27.6446C12.6424 27.6582 12.5812 27.6695 12.5042 27.6786C12.4272 27.6831 12.3502 27.6854 12.2732 27.6854C12.2415 27.6854 12.1962 27.6854 12.1373 27.6854C12.0784 27.6854 12.015 27.6854 11.947 27.6854C11.8791 27.6854 11.8157 27.6854 11.7568 27.6854C11.7024 27.6854 11.6617 27.6854 11.6345 27.6854C11.4759 27.6854 11.3559 27.6605 11.2744 27.6106C11.1928 27.5608 11.1362 27.4883 11.1045 27.3932C11.0773 27.2935 11.0637 27.1712 11.0637 27.0263V26.4691ZM18.6332 26.3876L21.1405 26.3876V26.9719H18.6332V26.3876ZM17.2063 29.4045H20.5018V29.9752H17.2063V29.4045ZM18.3206 25.6537H18.9865V28.1542H18.3206V25.6537ZM16.8665 27.7601H20.8211V30.2335H20.162V28.3581H17.4916V30.247H16.8665V27.7601ZM15.99 24.818L21.3375 24.818V25.4295L15.99 25.4295V24.818ZM15.6978 24.818H16.3569V26.5778C16.3569 26.8496 16.3478 27.1486 16.3297 27.4747C16.3116 27.7964 16.2776 28.127 16.2278 28.4668C16.178 28.8065 16.1032 29.1372 16.0036 29.4588C15.9084 29.7805 15.7839 30.0704 15.6299 30.3286C15.5891 30.2923 15.5325 30.2493 15.46 30.1995C15.392 30.1496 15.3218 30.1021 15.2493 30.0568C15.1769 30.0115 15.1134 29.9798 15.0591 29.9617C15.204 29.717 15.3196 29.4498 15.4056 29.1599C15.4917 28.87 15.5551 28.5755 15.5959 28.2765C15.6366 27.973 15.6638 27.6763 15.6774 27.3864C15.691 27.092 15.6978 26.8224 15.6978 26.5778V24.818ZM18.008 24.1724L18.6468 24.0298C18.7464 24.1747 18.837 24.3355 18.9186 24.5122C19.0001 24.6889 19.0567 24.8451 19.0884 24.981L18.4089 25.1441C18.3863 25.0082 18.3365 24.8497 18.2595 24.6685C18.1824 24.4827 18.0986 24.3174 18.008 24.1724Z" fill="#424242"/>
<rect x="29.4708" y="0.867086" width="28.3205" height="15.4743" rx="7.73717" stroke="#424242" stroke-width="0.679485" stroke-dasharray="1.36 1.36"/>
<path d="M36.4708 7.02379H38.5705V7.60814H36.4708V7.02379ZM37.4153 9.15737L38.0473 8.40994V12.1675H37.4153V9.15737ZM38.0201 8.5866C38.0699 8.62284 38.1424 8.68852 38.2375 8.78365C38.3372 8.87425 38.4414 8.97391 38.5501 9.08263C38.6633 9.19134 38.7652 9.29327 38.8558 9.38839C38.951 9.47899 39.0212 9.54468 39.0665 9.58544L38.6656 10.1222C38.6112 10.0407 38.5387 9.94557 38.4481 9.83685C38.3575 9.72361 38.2624 9.60809 38.1628 9.49032C38.0631 9.37254 37.968 9.26382 37.8774 9.16416C37.7868 9.05998 37.7098 8.97391 37.6464 8.90596L38.0201 8.5866ZM38.3734 7.02379H38.5093L38.618 6.99661L38.9646 7.24122C38.8015 7.64891 38.5908 8.04301 38.3326 8.42353C38.0744 8.79951 37.789 9.14151 37.4765 9.44955C37.1685 9.75305 36.8582 10.0067 36.5456 10.2106C36.5275 10.1517 36.5026 10.0815 36.4708 9.99993C36.4437 9.91386 36.412 9.83006 36.3757 9.74852C36.344 9.66698 36.3123 9.60583 36.2806 9.56506C36.566 9.40198 36.8446 9.19134 37.1164 8.93314C37.3927 8.67493 37.6418 8.39182 37.8638 8.08378C38.0858 7.77575 38.2556 7.46319 38.3734 7.14609V7.02379ZM37.1571 6.12007L37.6532 5.84828C37.78 5.97964 37.9023 6.12687 38.0201 6.28994C38.1424 6.45302 38.2352 6.59798 38.2987 6.72481L37.7687 7.03738C37.7143 6.91054 37.6282 6.76105 37.5105 6.58892C37.3927 6.41678 37.2749 6.2605 37.1571 6.12007ZM38.7539 11.2977H42.6813V11.9297H38.7539V11.2977ZM39.0597 7.95468L42.5251 7.95468V8.57981H39.0597V7.95468ZM40.4866 5.87546H41.1389V11.6035H40.4866V5.87546ZM47.1931 7.18686H50.0334V7.77122H47.1931V7.18686ZM47.2882 8.55942H49.9111V9.15057H47.2882V8.55942ZM47.0436 10.0203L50.1761 10.0203V10.6251L47.0436 10.6251V10.0203ZM47.2475 6.09289L47.7639 5.91623C47.8726 6.08383 47.97 6.27182 48.0561 6.4802C48.1467 6.68404 48.2101 6.86297 48.2463 7.01699L47.6959 7.22084C47.6688 7.06229 47.6121 6.87883 47.5261 6.67045C47.4445 6.45755 47.3517 6.26503 47.2475 6.09289ZM49.2995 5.86187L49.9247 6.00456C49.8341 6.21293 49.7412 6.42357 49.6461 6.63648C49.5509 6.84938 49.4603 7.03058 49.3743 7.18007L48.8443 7.03738C48.8986 6.92866 48.9553 6.80635 49.0141 6.67045C49.073 6.53456 49.1274 6.39639 49.1772 6.25597C49.227 6.11101 49.2678 5.97964 49.2995 5.86187ZM48.2667 7.47225H48.885V12.1743H48.2667V7.47225ZM43.8704 7.31596H47.1252V7.86635H43.8704V7.31596ZM44.2306 6.19481H46.7515V8.9807L44.1898 8.9807V8.43032H46.1535V6.7452H44.2306V6.19481ZM44.5703 9.60583H45.1615V12.1743H44.5703V9.60583ZM44.8149 9.60583H46.8602V11.8277H44.8149V11.2638H46.2283V10.163H44.8149V9.60583ZM44.9848 6.40545L45.5963 6.42584C45.5556 7.09173 45.4876 7.70554 45.3925 8.26724C45.2974 8.82442 45.1547 9.32951 44.9644 9.7825C44.7742 10.231 44.5159 10.6205 44.1898 10.9512C44.1671 10.9104 44.1309 10.8583 44.0811 10.7949C44.0312 10.7315 43.9769 10.6681 43.918 10.6047C43.8636 10.5413 43.8138 10.4914 43.7685 10.4552C44.063 10.1743 44.294 9.83232 44.4616 9.42916C44.6292 9.02147 44.7515 8.56395 44.8285 8.0566C44.9055 7.54472 44.9576 6.99434 44.9848 6.40545Z" fill="#424242"/>
<rect x="65.6439" y="20.0233" width="43.3205" height="15.4705" stroke="#424242" stroke-width="0.679485"/>
<path d="M72.6439 26.1781H74.7436V26.7624H72.6439V26.1781ZM73.5884 28.3117L74.2203 27.5642V31.3218H73.5884V28.3117ZM74.1932 27.7409C74.243 27.7771 74.3155 27.8428 74.4106 27.9379C74.5103 28.0285 74.6144 28.1282 74.7232 28.2369C74.8364 28.3456 74.9383 28.4476 75.0289 28.5427C75.1241 28.6333 75.1943 28.699 75.2396 28.7397L74.8387 29.2765C74.7843 29.195 74.7118 29.0999 74.6212 28.9912C74.5306 28.8779 74.4355 28.7624 74.3359 28.6446C74.2362 28.5268 74.1411 28.4181 74.0505 28.3185C73.9599 28.2143 73.8829 28.1282 73.8195 28.0603L74.1932 27.7409ZM74.5465 26.1781H74.6824L74.7911 26.1509L75.1377 26.3955C74.9746 26.8032 74.7639 27.1973 74.5057 27.5778C74.2475 27.9538 73.9621 28.2958 73.6496 28.6038C73.3415 28.9073 73.0312 29.161 72.7187 29.3649C72.7006 29.306 72.6757 29.2358 72.6439 29.1542C72.6168 29.0682 72.5851 28.9844 72.5488 28.9028C72.5171 28.8213 72.4854 28.7601 72.4537 28.7194C72.7391 28.5563 73.0177 28.3456 73.2895 28.0874C73.5658 27.8292 73.8149 27.5461 74.0369 27.2381C74.2589 26.93 74.4287 26.6175 74.5465 26.3004V26.1781ZM73.3302 25.2744L73.8262 25.0026C73.9531 25.1339 74.0754 25.2812 74.1932 25.4442C74.3155 25.6073 74.4083 25.7523 74.4718 25.8791L73.9418 26.1917C73.8874 26.0648 73.8013 25.9153 73.6836 25.7432C73.5658 25.5711 73.448 25.4148 73.3302 25.2744ZM74.927 30.452H78.8544V31.084H74.927V30.452ZM75.2328 27.109H78.6982V27.7341H75.2328V27.109ZM76.6597 25.0298H77.312V30.7578H76.6597V25.0298ZM81.2394 26.1849L85.0853 26.1849V26.5586L81.2394 26.5586V26.1849ZM81.1579 29.0591H85.1804V29.4328H81.1579V29.0591ZM81.8442 29.6367L82.2519 29.426C82.356 29.5121 82.4602 29.614 82.5644 29.7318C82.6731 29.845 82.7547 29.947 82.809 30.0376L82.381 30.2686C82.3311 30.178 82.2541 30.0738 82.1499 29.956C82.0458 29.8337 81.9438 29.7273 81.8442 29.6367ZM81.9733 27.6322V27.8904H84.3447V27.6322H81.9733ZM81.9733 27.0954V27.3468H84.3447V27.0954H81.9733ZM81.4772 26.8032L84.8747 26.8032V28.1894H81.4772V26.8032ZM83.706 28.8281H84.2428V29.9764C84.2428 30.0897 84.2269 30.1712 84.1952 30.221C84.168 30.2663 84.1114 30.3026 84.0253 30.3297C83.9438 30.3569 83.8351 30.3728 83.6992 30.3773C83.5633 30.3818 83.3957 30.3841 83.1963 30.3841C83.1873 30.3252 83.1692 30.2663 83.142 30.2074C83.1148 30.144 83.0876 30.0874 83.0604 30.0376C83.1782 30.0421 83.2892 30.0444 83.3934 30.0444C83.5021 30.0444 83.5746 30.0444 83.6108 30.0444C83.6471 30.0398 83.672 30.033 83.6856 30.024C83.6992 30.0104 83.706 29.9877 83.706 29.956V28.8281ZM81.2598 28.4815C81.5407 28.4815 81.8623 28.4815 82.2247 28.4815C82.5871 28.477 82.9721 28.4725 83.3798 28.4679C83.792 28.4589 84.2065 28.4521 84.6233 28.4476L84.6097 28.7601C84.2065 28.7737 83.8056 28.7873 83.407 28.8009C83.0084 28.81 82.6278 28.819 82.2655 28.8281C81.9076 28.8371 81.5814 28.8439 81.287 28.8485L81.2598 28.4815ZM84.0049 28.3592L84.3379 28.1282C84.4783 28.2233 84.6165 28.3343 84.7524 28.4612C84.8928 28.588 85.0015 28.699 85.0785 28.7941L84.732 29.0523C84.6504 28.9526 84.5395 28.8371 84.399 28.7058C84.2631 28.5699 84.1318 28.4544 84.0049 28.3592ZM82.877 25.8995H83.4138V28.6038L82.877 28.631V25.8995ZM80.3833 25.2948L85.9822 25.2948V31.3082H85.3707V25.7908L80.9676 25.7908V31.3286H80.3833V25.2948ZM80.6687 30.486H85.6221V30.982H80.6687V30.486ZM87.4227 28.5631C87.6809 28.4815 87.9935 28.3751 88.3604 28.2437C88.7319 28.1124 89.1079 27.9765 89.4884 27.836L89.5971 28.4136C89.2528 28.545 88.904 28.6786 88.5507 28.8145C88.1974 28.9459 87.8757 29.0682 87.5858 29.1814L87.4227 28.5631ZM87.5043 26.3547H89.5359V26.9527H87.5043V26.3547ZM88.3129 25.0298H88.9108V30.6219C88.9108 30.7805 88.8927 30.905 88.8565 30.9956C88.8202 31.0862 88.7545 31.1587 88.6594 31.2131C88.5688 31.2629 88.451 31.2946 88.3061 31.3082C88.1656 31.3263 87.9844 31.3354 87.7625 31.3354C87.758 31.2538 87.7376 31.1542 87.7013 31.0364C87.6696 30.9232 87.6334 30.8235 87.5926 30.7374C87.7285 30.742 87.8531 30.7442 87.9663 30.7442C88.0796 30.7442 88.1566 30.742 88.1974 30.7374C88.2381 30.7374 88.2676 30.7306 88.2857 30.717C88.3038 30.6989 88.3129 30.6672 88.3129 30.6219V25.0298ZM90.6163 25.0841H91.2143V28.0738C91.2143 28.4136 91.1961 28.7397 91.1599 29.0523C91.1237 29.3603 91.0512 29.6525 90.9425 29.9288C90.8383 30.2006 90.682 30.4543 90.4736 30.6899C90.2653 30.9209 89.9867 31.127 89.6379 31.3082C89.6062 31.2629 89.5631 31.2108 89.5088 31.1519C89.4589 31.093 89.4046 31.0364 89.3457 30.982C89.2913 30.9322 89.2392 30.8892 89.1894 30.8529C89.5065 30.6944 89.7579 30.5155 89.9436 30.3161C90.1339 30.1168 90.2766 29.8994 90.3717 29.6638C90.4714 29.4283 90.537 29.1769 90.5688 28.9096C90.6005 28.6423 90.6163 28.3615 90.6163 28.0671V25.0841ZM91.7918 25.0841H92.4034V30.3365C92.4034 30.4815 92.4147 30.5744 92.4373 30.6151C92.46 30.6559 92.5121 30.6763 92.5936 30.6763C92.6117 30.6763 92.6435 30.6763 92.6888 30.6763C92.7341 30.6763 92.7839 30.6763 92.8382 30.6763C92.8971 30.6763 92.9492 30.6763 92.9945 30.6763C93.0443 30.6763 93.0806 30.6763 93.1032 30.6763C93.1576 30.6763 93.1961 30.6514 93.2187 30.6015C93.2459 30.5472 93.2663 30.452 93.2799 30.3161C93.2935 30.1757 93.3026 29.9832 93.3071 29.7386C93.3796 29.7975 93.4679 29.8518 93.5721 29.9017C93.6763 29.9515 93.7714 29.9855 93.8575 30.0036C93.8393 30.3116 93.8054 30.5585 93.7555 30.7442C93.7102 30.9254 93.64 31.0568 93.5449 31.1383C93.4498 31.2199 93.3184 31.2606 93.1508 31.2606C93.1236 31.2606 93.0783 31.2606 93.0149 31.2606C92.956 31.2606 92.8903 31.2606 92.8179 31.2606C92.7499 31.2606 92.6842 31.2606 92.6208 31.2606C92.5619 31.2606 92.5189 31.2606 92.4917 31.2606C92.3105 31.2606 92.1678 31.2335 92.0636 31.1791C91.964 31.1247 91.8938 31.0296 91.853 30.8937C91.8122 30.7578 91.7918 30.5698 91.7918 30.3297V25.0841ZM89.5088 26.1305L89.9912 25.8655C90.0909 26.0105 90.186 26.1668 90.2766 26.3344C90.3717 26.502 90.4555 26.6673 90.528 26.8304C90.605 26.9889 90.6616 27.1339 90.6979 27.2653L90.1882 27.5574C90.152 27.4261 90.0976 27.2788 90.0252 27.1158C89.9572 26.9482 89.8779 26.7783 89.7874 26.6062C89.6968 26.434 89.6039 26.2755 89.5088 26.1305ZM92.1723 28.3456L92.5664 27.9583C92.7205 28.0852 92.879 28.2233 93.0421 28.3728C93.2052 28.5223 93.3569 28.6695 93.4973 28.8145C93.6423 28.9594 93.7601 29.0863 93.8507 29.195L93.4294 29.6503C93.3433 29.5325 93.2301 29.3988 93.0896 29.2494C92.9492 29.0953 92.7975 28.9391 92.6344 28.7805C92.4758 28.6174 92.3218 28.4725 92.1723 28.3456ZM89.2641 29.1338C89.4363 29.0342 89.6424 28.9051 89.8825 28.7465C90.1271 28.5835 90.3762 28.4159 90.6299 28.2437L90.8338 28.7329C90.6299 28.896 90.4193 29.0591 90.2018 29.2222C89.9889 29.3853 89.7896 29.537 89.6039 29.6774L89.2641 29.1338ZM93.1304 25.7908L93.708 26.0897C93.6174 26.2528 93.52 26.425 93.4158 26.6062C93.3161 26.7828 93.2165 26.9527 93.1168 27.1158C93.0217 27.2788 92.9288 27.4238 92.8382 27.5506L92.3966 27.2992C92.4781 27.1633 92.5642 27.0093 92.6548 26.8372C92.7499 26.665 92.8382 26.4861 92.9198 26.3004C93.0058 26.1147 93.0761 25.9448 93.1304 25.7908ZM95.6445 25.6413V26.1985H96.1473V25.6413H95.6445ZM95.1689 25.22H96.6366V26.6265H95.1689V25.22ZM97.3976 25.6413V26.1985H97.9208V25.6413H97.3976ZM96.9219 25.22H98.4032V26.6265H96.9219V25.22ZM98.4236 27.041L101.243 26.7013L101.318 27.2924L98.4983 27.6458L98.4236 27.041ZM99.9592 25.3899L100.448 25.1317C100.548 25.2449 100.646 25.3695 100.741 25.5054C100.84 25.6413 100.931 25.7749 101.012 25.9063C101.094 26.0377 101.157 26.1577 101.203 26.2664L100.686 26.5654C100.646 26.4567 100.587 26.3344 100.51 26.1985C100.433 26.058 100.344 25.9176 100.245 25.7772C100.149 25.6368 100.054 25.5077 99.9592 25.3899ZM95.7736 28.3592V28.8417H97.7849V28.3592H95.7736ZM95.7736 27.4283V27.8972H97.7849V27.4283H95.7736ZM95.2368 26.9391H98.3489V29.3241H95.2368V26.9391ZM94.9582 29.7454H98.5527V30.3161H94.9582V29.7454ZM96.4939 27.109H97.0443V29.1203H97.0782V31.3354H96.4599V29.1203H96.4939V27.109ZM99.0216 25.0637H99.6263C99.6399 25.6571 99.6648 26.2256 99.701 26.7692C99.7373 27.3128 99.7848 27.8156 99.8437 28.2777C99.9071 28.7352 99.9796 29.1361 100.061 29.4804C100.143 29.8201 100.233 30.0874 100.333 30.2822C100.437 30.4724 100.548 30.5721 100.666 30.5811C100.729 30.5857 100.781 30.5019 100.822 30.3297C100.867 30.1576 100.901 29.9085 100.924 29.5823C100.96 29.6276 101.008 29.6752 101.067 29.725C101.13 29.7703 101.191 29.8133 101.25 29.8541C101.314 29.8903 101.364 29.9198 101.4 29.9424C101.35 30.3139 101.284 30.6015 101.203 30.8054C101.126 31.0092 101.04 31.1496 100.944 31.2267C100.854 31.3082 100.761 31.3467 100.666 31.3422C100.43 31.3331 100.224 31.2244 100.048 31.016C99.8754 30.8122 99.7282 30.5245 99.6059 30.1531C99.4836 29.7771 99.3817 29.3309 99.3001 28.8145C99.2231 28.2981 99.162 27.725 99.1167 27.0954C99.0759 26.4612 99.0442 25.784 99.0216 25.0637ZM100.605 27.5846L101.101 27.8632C100.947 28.3298 100.738 28.7828 100.476 29.2222C100.217 29.657 99.9185 30.0534 99.5787 30.4113C99.2435 30.7646 98.8766 31.05 98.478 31.2674C98.4236 31.1949 98.3534 31.1157 98.2673 31.0296C98.1813 30.9435 98.0952 30.8711 98.0091 30.8122C98.4123 30.6219 98.7837 30.3614 99.1235 30.0308C99.4632 29.6956 99.7577 29.3173 100.007 28.896C100.26 28.4747 100.46 28.0376 100.605 27.5846Z" fill="#424242"/>
<rect x="65.6439" y="42.1737" width="46.3205" height="15.4705" stroke="#43B71B" stroke-width="0.679485"/>
<path d="M74.8659 53.0033C74.44 53.0033 74.0618 52.8969 73.7311 52.684C73.405 52.4711 73.149 52.1698 72.9633 51.7803C72.7776 51.3862 72.6847 50.9218 72.6847 50.3873C72.6847 49.8483 72.7776 49.3885 72.9633 49.008C73.149 48.6229 73.405 48.3285 73.7311 48.1246C74.0618 47.9163 74.44 47.8121 74.8659 47.8121C75.2962 47.8121 75.6744 47.9163 76.0006 48.1246C76.3268 48.3285 76.5827 48.6229 76.7684 49.008C76.9541 49.3885 77.047 49.8483 77.047 50.3873C77.047 50.9218 76.9541 51.3862 76.7684 51.7803C76.5827 52.1698 76.3268 52.4711 76.0006 52.684C75.6744 52.8969 75.2962 53.0033 74.8659 53.0033ZM74.8659 52.3442C75.1422 52.3442 75.3823 52.2672 75.5861 52.1132C75.7945 51.9547 75.9553 51.7282 76.0685 51.4337C76.1818 51.1393 76.2384 50.7905 76.2384 50.3873C76.2384 49.9977 76.1818 49.6625 76.0685 49.3817C75.9553 49.0963 75.7945 48.8789 75.5861 48.7294C75.3823 48.5754 75.1422 48.4983 74.8659 48.4983C74.5895 48.4983 74.3472 48.5754 74.1388 48.7294C73.935 48.8789 73.7764 49.0963 73.6632 49.3817C73.5545 49.6625 73.5001 49.9977 73.5001 50.3873C73.5001 50.7905 73.5545 51.1393 73.6632 51.4337C73.7764 51.7282 73.935 51.9547 74.1388 52.1132C74.3472 52.2672 74.5895 52.3442 74.8659 52.3442ZM76.4355 54.2128C76.1048 54.2128 75.8081 54.1539 75.5453 54.0361C75.2826 53.9229 75.0606 53.7644 74.8794 53.5605C74.6983 53.3612 74.5578 53.137 74.4582 52.8878L75.2735 52.8131C75.337 52.9807 75.4298 53.1211 75.5521 53.2344C75.679 53.3476 75.8262 53.4291 75.9938 53.479C76.1614 53.5333 76.3381 53.5605 76.5238 53.5605C76.6325 53.5605 76.7299 53.5537 76.816 53.5401C76.9066 53.5265 76.9881 53.5062 77.0606 53.479L77.2101 54.0769C77.1285 54.1132 77.0198 54.1449 76.8839 54.172C76.748 54.1992 76.5985 54.2128 76.4355 54.2128ZM78.7655 52.9082V47.9004H80.403C80.7473 47.9004 81.0553 47.948 81.3271 48.0431C81.5989 48.1337 81.8141 48.2854 81.9726 48.4983C82.1312 48.7067 82.2105 48.9921 82.2105 49.3545C82.2105 49.7033 82.1312 49.9909 81.9726 50.2174C81.8141 50.4439 81.5989 50.6138 81.3271 50.7271C81.0553 50.8358 80.7473 50.8901 80.403 50.8901H79.5537V52.9082H78.7655ZM79.5537 50.2582H80.3079C80.6703 50.2582 80.9466 50.1835 81.1369 50.034C81.3317 49.88 81.429 49.6535 81.429 49.3545C81.429 49.051 81.3317 48.8404 81.1369 48.7226C80.9466 48.6003 80.6703 48.5391 80.3079 48.5391H79.5537V50.2582ZM81.497 52.9082L80.2535 50.6795L80.8379 50.2242L82.3871 52.9082H81.497ZM83.3254 51.2774V50.6999H85.1193V51.2774H83.3254ZM88.7234 53.0033C88.4109 53.0033 88.1187 52.9467 87.8469 52.8335C87.5796 52.7157 87.3441 52.5458 87.1402 52.3238C86.9364 52.1019 86.7778 51.8324 86.6646 51.5153C86.5513 51.1936 86.4947 50.8267 86.4947 50.4145C86.4947 50.0068 86.5536 49.6421 86.6714 49.3205C86.7892 48.9989 86.95 48.7271 87.1538 48.5051C87.3577 48.2786 87.5977 48.1065 87.8741 47.9887C88.1504 47.871 88.4471 47.8121 88.7642 47.8121C89.0722 47.8121 89.3463 47.8755 89.5864 48.0023C89.8265 48.1292 90.0235 48.2764 90.1775 48.444L89.7562 48.9468C89.6249 48.8154 89.4777 48.709 89.3146 48.6274C89.156 48.5414 88.9771 48.4983 88.7778 48.4983C88.4879 48.4983 88.2319 48.5754 88.01 48.7294C87.7925 48.8834 87.6204 49.1008 87.4936 49.3817C87.3712 49.6625 87.3101 50 87.3101 50.3941C87.3101 50.7882 87.369 51.1302 87.4868 51.4201C87.6045 51.7055 87.7721 51.9252 87.9896 52.0792C88.207 52.2332 88.463 52.3103 88.7574 52.3103C88.9839 52.3103 89.1855 52.2627 89.3621 52.1676C89.5433 52.0679 89.7087 51.9365 89.8582 51.7735L90.2862 52.2763C90.0824 52.5118 89.8514 52.693 89.5932 52.8199C89.3395 52.9422 89.0496 53.0033 88.7234 53.0033ZM93.2793 53.0033C92.9712 53.0033 92.6813 52.9263 92.4095 52.7723C92.1423 52.6138 91.9248 52.3895 91.7572 52.0996C91.5941 51.8052 91.5126 51.4518 91.5126 51.0396C91.5126 50.6229 91.5941 50.2695 91.7572 49.9796C91.9248 49.6852 92.1423 49.4609 92.4095 49.3069C92.6813 49.1529 92.9712 49.0759 93.2793 49.0759C93.5058 49.0759 93.7255 49.1212 93.9384 49.2118C94.1513 49.2979 94.3393 49.4247 94.5023 49.5923C94.6654 49.7599 94.7945 49.966 94.8896 50.2106C94.9848 50.4507 95.0323 50.7271 95.0323 51.0396C95.0323 51.4518 94.9485 51.8052 94.7809 52.0996C94.6179 52.3895 94.4027 52.6138 94.1354 52.7723C93.8727 52.9263 93.5873 53.0033 93.2793 53.0033ZM93.2793 52.351C93.4741 52.351 93.6417 52.2967 93.7821 52.1879C93.927 52.0792 94.038 51.9275 94.115 51.7327C94.192 51.5334 94.2305 51.3024 94.2305 51.0396C94.2305 50.7769 94.192 50.5481 94.115 50.3533C94.038 50.154 93.927 50 93.7821 49.8913C93.6417 49.778 93.4741 49.7214 93.2793 49.7214C93.08 49.7214 92.9078 49.778 92.7629 49.8913C92.6224 50 92.5137 50.154 92.4367 50.3533C92.3597 50.5481 92.3212 50.7769 92.3212 51.0396C92.3212 51.3024 92.3597 51.5334 92.4367 51.7327C92.5137 51.9275 92.6224 52.0792 92.7629 52.1879C92.9078 52.2967 93.08 52.351 93.2793 52.351ZM97.9217 53.0033C97.6137 53.0033 97.3442 52.9263 97.1132 52.7723C96.8821 52.6183 96.7032 52.3941 96.5764 52.0996C96.4495 51.8052 96.3861 51.4518 96.3861 51.0396C96.3861 50.6365 96.4608 50.2877 96.6103 49.9932C96.7644 49.6988 96.9614 49.4723 97.2015 49.3137C97.4461 49.1552 97.7066 49.0759 97.9829 49.0759C98.2003 49.0759 98.3838 49.1144 98.5333 49.1914C98.6873 49.2639 98.839 49.3658 98.9885 49.4972L98.9614 48.8789V47.4927H99.7428V52.9082H99.104L99.0361 52.4869H99.0157C98.8753 52.6319 98.7122 52.7542 98.5265 52.8538C98.3408 52.9535 98.1392 53.0033 97.9217 53.0033ZM98.112 52.3442C98.2705 52.3442 98.4178 52.308 98.5537 52.2355C98.6896 52.163 98.8255 52.0475 98.9614 51.889V50.068C98.8255 49.9456 98.6896 49.8596 98.5537 49.8098C98.4178 49.7554 98.2796 49.7282 98.1392 49.7282C97.967 49.7282 97.8085 49.7826 97.6635 49.8913C97.5231 49.9955 97.4099 50.145 97.3238 50.3397C97.2377 50.53 97.1947 50.761 97.1947 51.0328C97.1947 51.3137 97.2309 51.5538 97.3034 51.7531C97.3759 51.9479 97.4801 52.0951 97.616 52.1947C97.7564 52.2944 97.9217 52.3442 98.112 52.3442ZM103.16 53.0033C102.82 53.0033 102.512 52.9263 102.236 52.7723C101.959 52.6138 101.74 52.3895 101.577 52.0996C101.413 51.8052 101.332 51.4518 101.332 51.0396C101.332 50.7361 101.38 50.4643 101.475 50.2242C101.57 49.9796 101.699 49.7735 101.862 49.6059C102.025 49.4338 102.208 49.3024 102.412 49.2118C102.616 49.1212 102.825 49.0759 103.037 49.0759C103.368 49.0759 103.647 49.1507 103.873 49.3001C104.1 49.4451 104.272 49.6512 104.39 49.9185C104.507 50.1812 104.566 50.4892 104.566 50.8426C104.566 50.9196 104.562 50.9943 104.553 51.0668C104.548 51.1347 104.539 51.1936 104.526 51.2435H102.1C102.122 51.479 102.184 51.6829 102.283 51.855C102.387 52.0226 102.521 52.154 102.684 52.2491C102.852 52.3397 103.042 52.385 103.255 52.385C103.423 52.385 103.579 52.3601 103.724 52.3103C103.869 52.2604 104.009 52.1925 104.145 52.1064L104.417 52.6024C104.245 52.7157 104.052 52.8108 103.839 52.8878C103.631 52.9648 103.404 53.0033 103.16 53.0033ZM102.093 50.6999H103.887C103.887 50.3828 103.814 50.1359 103.669 49.9592C103.529 49.7826 103.323 49.6942 103.051 49.6942C102.897 49.6942 102.752 49.7327 102.616 49.8098C102.48 49.8868 102.365 50 102.27 50.1495C102.179 50.299 102.12 50.4824 102.093 50.6999Z" fill="#43B71B"/>
<rect x="65.6439" y="64.3241" width="43.3205" height="15.4705" stroke="#424242" stroke-width="0.679485"/>
<path d="M74.5125 72.2319H78.8884V72.8571H74.5125V72.2319ZM74.7164 74.7664H78.7321V75.378H74.7164V74.7664ZM76.3879 70.3362H77.0402V74.9906H76.3879V70.3362ZM73.5137 71.2331L74.1388 70.608L74.1456 70.6148V75.6158H73.5137V71.2331ZM74.2203 69.3645L74.8523 69.5616C74.6937 69.9602 74.5057 70.3543 74.2883 70.7439C74.0709 71.1334 73.8353 71.4981 73.5816 71.8378C73.328 72.1776 73.0675 72.4788 72.8002 72.7415C72.7776 72.6872 72.7436 72.6192 72.6983 72.5377C72.653 72.4516 72.6032 72.3656 72.5488 72.2795C72.499 72.1934 72.4537 72.1255 72.4129 72.0757C72.653 71.8582 72.884 71.6068 73.106 71.3214C73.3325 71.0315 73.5409 70.7212 73.7311 70.3905C73.9214 70.0553 74.0845 69.7133 74.2203 69.3645ZM74.927 69.9625H78.6098V70.5672H74.927V69.9625ZM80.159 69.6499H82.4353V70.1935H80.159V69.6499ZM82.8226 73.1289H85.6901V73.6724H82.8226V73.1289ZM80.0707 71.7087H82.6188V72.2795H80.0707V71.7087ZM81.2326 71.9398H81.8374V74.9159C81.8374 75.0654 81.8193 75.1854 81.783 75.276C81.7513 75.3712 81.6834 75.4459 81.5792 75.5003C81.484 75.5456 81.3617 75.5727 81.2122 75.5818C81.0673 75.5954 80.8906 75.6022 80.6823 75.6022C80.6687 75.5161 80.6437 75.4142 80.6075 75.2964C80.5713 75.1832 80.5328 75.0835 80.492 74.9974C80.6324 75.002 80.7615 75.0065 80.8793 75.011C80.9971 75.011 81.0786 75.0088 81.1239 75.0042C81.1647 74.9997 81.1919 74.9929 81.2055 74.9839C81.2236 74.9703 81.2326 74.9431 81.2326 74.9023V71.9398ZM85.4794 73.1289H86.1317C86.1317 73.1289 86.1295 73.1628 86.1249 73.2308C86.1204 73.2942 86.1159 73.3486 86.1113 73.3939C86.0706 73.8015 86.0275 74.139 85.9822 74.4063C85.9415 74.669 85.8962 74.8751 85.8463 75.0246C85.7965 75.1741 85.7376 75.2851 85.6697 75.3576C85.6017 75.4255 85.5315 75.4731 85.459 75.5003C85.3866 75.5274 85.3027 75.5478 85.2076 75.5614C85.1261 75.5705 85.0174 75.575 84.8815 75.575C84.7501 75.575 84.6051 75.5727 84.4466 75.5682C84.4421 75.4776 84.4239 75.3757 84.3922 75.2624C84.3605 75.1492 84.322 75.0518 84.2767 74.9703C84.4126 74.9839 84.5372 74.9929 84.6504 74.9974C84.7682 75.002 84.8543 75.0042 84.9086 75.0042C84.963 75.0042 85.006 74.9997 85.0377 74.9906C85.074 74.9816 85.108 74.9612 85.1397 74.9295C85.185 74.8842 85.228 74.8004 85.2688 74.6781C85.3095 74.5512 85.3458 74.37 85.3775 74.1345C85.4137 73.8989 85.4477 73.5954 85.4794 73.224V73.1289ZM83.9981 72.4833H84.6436C84.6119 72.8321 84.5621 73.1628 84.4942 73.4754C84.4262 73.788 84.322 74.0801 84.1816 74.3519C84.0412 74.6192 83.8464 74.8615 83.5972 75.079C83.3526 75.2964 83.0333 75.4821 82.6392 75.6362C82.6029 75.5591 82.5486 75.4708 82.4761 75.3712C82.4036 75.2715 82.3334 75.1922 82.2655 75.1333C82.6188 75.0065 82.9019 74.8502 83.1148 74.6645C83.3322 74.4788 83.4998 74.2727 83.6176 74.0462C83.7399 73.8197 83.8283 73.5751 83.8826 73.3123C83.937 73.0496 83.9755 72.7733 83.9981 72.4833ZM80.3629 70.9069L80.7638 70.4925C80.954 70.5649 81.1511 70.6533 81.3549 70.7575C81.5633 70.8571 81.7604 70.9636 81.9461 71.0768C82.1363 71.1855 82.2926 71.2897 82.4149 71.3894L81.9869 71.8514C81.8736 71.7518 81.7241 71.6453 81.5384 71.5321C81.3572 71.4143 81.1624 71.301 80.954 71.1923C80.7502 71.0791 80.5531 70.9839 80.3629 70.9069ZM82.4557 71.7087H82.544L82.6324 71.6816L83.0265 71.8107C82.9631 72.1096 82.8838 72.4154 82.7887 72.728C82.6981 73.036 82.6029 73.301 82.5033 73.523L82.0616 73.3055C82.1386 73.1153 82.2134 72.882 82.2858 72.6057C82.3583 72.3248 82.4149 72.0598 82.4557 71.8107V71.7087ZM85.1736 70.2886L85.8463 70.3905C85.6923 70.8073 85.4794 71.1629 85.2076 71.4573C84.9404 71.7518 84.6255 71.9986 84.2631 72.198C83.9007 72.3973 83.4998 72.5626 83.0604 72.694C83.0378 72.6487 83.0016 72.5921 82.9517 72.5241C82.9064 72.4562 82.8566 72.3905 82.8022 72.3271C82.7524 72.2591 82.7049 72.2048 82.6596 72.164C83.0808 72.0643 83.4591 71.9352 83.7943 71.7767C84.134 71.6136 84.4217 71.4098 84.6572 71.1651C84.8928 70.916 85.0649 70.6238 85.1736 70.2886ZM83.7671 69.3169L84.3719 69.4868C84.2631 69.7269 84.134 69.9602 83.9845 70.1867C83.8351 70.4132 83.6742 70.6261 83.5021 70.8254C83.3345 71.0202 83.1646 71.1923 82.9925 71.3418C82.9517 71.3056 82.8996 71.2648 82.8362 71.2195C82.7728 71.1697 82.7071 71.1244 82.6392 71.0836C82.5757 71.0383 82.5169 71.0021 82.4625 70.9749C82.7298 70.7756 82.9789 70.531 83.2099 70.241C83.4455 69.9466 83.6312 69.6386 83.7671 69.3169ZM83.7399 70.4449C83.8985 70.7257 84.1091 70.9817 84.3719 71.2127C84.6346 71.4392 84.9381 71.634 85.2824 71.7971C85.6312 71.9601 86.0049 72.0847 86.4035 72.1708C86.3582 72.2116 86.3084 72.2636 86.254 72.3271C86.2042 72.3905 86.1566 72.4562 86.1113 72.5241C86.066 72.5921 86.0275 72.6555 85.9958 72.7144C85.5791 72.6057 85.194 72.4539 84.8407 72.2591C84.4874 72.0598 84.1725 71.822 83.8962 71.5457C83.6199 71.2693 83.3889 70.9613 83.2031 70.6216L83.7399 70.4449ZM81.1579 71.899L81.586 72.0621C81.4999 72.361 81.3912 72.6691 81.2598 72.9862C81.1284 73.2987 80.9812 73.5909 80.8181 73.8627C80.6596 74.13 80.4852 74.3519 80.2949 74.5286C80.2678 74.438 80.2225 74.3361 80.159 74.2228C80.0956 74.105 80.0367 74.0031 79.9824 73.9171C80.15 73.7676 80.3085 73.5841 80.458 73.3667C80.6075 73.1447 80.7434 72.9069 80.8657 72.6532C80.988 72.3995 81.0854 72.1481 81.1579 71.899ZM83.672 70.0236H86.2472V70.5672H83.4138L83.672 70.0236ZM82.279 69.6499H82.4217L82.5237 69.6227L82.9313 69.8809C82.8317 70.0395 82.7094 70.2025 82.5644 70.3701C82.4195 70.5378 82.2655 70.694 82.1024 70.839C81.9393 70.9839 81.7762 71.1108 81.6131 71.2195C81.5588 71.1697 81.4886 71.1153 81.4025 71.0564C81.321 70.9975 81.2485 70.9477 81.1851 70.9069C81.33 70.8073 81.4727 70.6918 81.6131 70.5604C81.7536 70.429 81.8827 70.2931 82.0005 70.1527C82.1182 70.0123 82.2111 69.8832 82.279 69.7654V69.6499ZM87.4227 72.8639C87.6809 72.7823 87.9935 72.6759 88.3604 72.5445C88.7319 72.4131 89.1079 72.2772 89.4884 72.1368L89.5971 72.7144C89.2528 72.8457 88.904 72.9794 88.5507 73.1153C88.1974 73.2466 87.8757 73.3689 87.5858 73.4822L87.4227 72.8639ZM87.5043 70.6555H89.5359V71.2535H87.5043V70.6555ZM88.3129 69.3305H88.9108V74.9227C88.9108 75.0812 88.8927 75.2058 88.8565 75.2964C88.8202 75.387 88.7545 75.4595 88.6594 75.5138C88.5688 75.5637 88.451 75.5954 88.3061 75.609C88.1656 75.6271 87.9844 75.6362 87.7625 75.6362C87.758 75.5546 87.7376 75.455 87.7013 75.3372C87.6696 75.2239 87.6334 75.1243 87.5926 75.0382C87.7285 75.0427 87.8531 75.045 87.9663 75.045C88.0796 75.045 88.1566 75.0427 88.1974 75.0382C88.2381 75.0382 88.2676 75.0314 88.2857 75.0178C88.3038 74.9997 88.3129 74.968 88.3129 74.9227V69.3305ZM90.6163 69.3849H91.2143V72.3746C91.2143 72.7144 91.1961 73.0405 91.1599 73.3531C91.1237 73.6611 91.0512 73.9533 90.9425 74.2296C90.8383 74.5014 90.682 74.7551 90.4736 74.9906C90.2653 75.2217 89.9867 75.4278 89.6379 75.609C89.6062 75.5637 89.5631 75.5116 89.5088 75.4527C89.4589 75.3938 89.4046 75.3372 89.3457 75.2828C89.2913 75.233 89.2392 75.19 89.1894 75.1537C89.5065 74.9952 89.7579 74.8162 89.9436 74.6169C90.1339 74.4176 90.2766 74.2002 90.3717 73.9646C90.4714 73.7291 90.537 73.4777 90.5688 73.2104C90.6005 72.9431 90.6163 72.6623 90.6163 72.3678V69.3849ZM91.7918 69.3849H92.4034V74.6373C92.4034 74.7823 92.4147 74.8751 92.4373 74.9159C92.46 74.9567 92.5121 74.9771 92.5936 74.9771C92.6117 74.9771 92.6435 74.9771 92.6888 74.9771C92.7341 74.9771 92.7839 74.9771 92.8382 74.9771C92.8971 74.9771 92.9492 74.9771 92.9945 74.9771C93.0443 74.9771 93.0806 74.9771 93.1032 74.9771C93.1576 74.9771 93.1961 74.9521 93.2187 74.9023C93.2459 74.848 93.2663 74.7528 93.2799 74.6169C93.2935 74.4765 93.3026 74.284 93.3071 74.0394C93.3796 74.0983 93.4679 74.1526 93.5721 74.2024C93.6763 74.2523 93.7714 74.2862 93.8575 74.3044C93.8393 74.6124 93.8054 74.8593 93.7555 75.045C93.7102 75.2262 93.64 75.3576 93.5449 75.4391C93.4498 75.5206 93.3184 75.5614 93.1508 75.5614C93.1236 75.5614 93.0783 75.5614 93.0149 75.5614C92.956 75.5614 92.8903 75.5614 92.8179 75.5614C92.7499 75.5614 92.6842 75.5614 92.6208 75.5614C92.5619 75.5614 92.5189 75.5614 92.4917 75.5614C92.3105 75.5614 92.1678 75.5342 92.0636 75.4799C91.964 75.4255 91.8938 75.3304 91.853 75.1945C91.8122 75.0586 91.7918 74.8706 91.7918 74.6305V69.3849ZM89.5088 70.4313L89.9912 70.1663C90.0909 70.3113 90.186 70.4675 90.2766 70.6351C90.3717 70.8028 90.4555 70.9681 90.528 71.1312C90.605 71.2897 90.6616 71.4347 90.6979 71.566L90.1882 71.8582C90.152 71.7269 90.0976 71.5796 90.0252 71.4166C89.9572 71.2489 89.8779 71.0791 89.7874 70.9069C89.6968 70.7348 89.6039 70.5763 89.5088 70.4313ZM92.1723 72.6464L92.5664 72.2591C92.7205 72.386 92.879 72.5241 93.0421 72.6736C93.2052 72.8231 93.3569 72.9703 93.4973 73.1153C93.6423 73.2602 93.7601 73.3871 93.8507 73.4958L93.4294 73.951C93.3433 73.8333 93.2301 73.6996 93.0896 73.5501C92.9492 73.3961 92.7975 73.2398 92.6344 73.0813C92.4758 72.9182 92.3218 72.7733 92.1723 72.6464ZM89.2641 73.4346C89.4363 73.335 89.6424 73.2059 89.8825 73.0473C90.1271 72.8842 90.3762 72.7166 90.6299 72.5445L90.8338 73.0337C90.6299 73.1968 90.4193 73.3599 90.2018 73.523C89.9889 73.686 89.7896 73.8378 89.6039 73.9782L89.2641 73.4346ZM93.1304 70.0916L93.708 70.3905C93.6174 70.5536 93.52 70.7257 93.4158 70.9069C93.3161 71.0836 93.2165 71.2535 93.1168 71.4166C93.0217 71.5796 92.9288 71.7246 92.8382 71.8514L92.3966 71.6C92.4781 71.4641 92.5642 71.3101 92.6548 71.138C92.7499 70.9658 92.8382 70.7869 92.9198 70.6012C93.0058 70.4154 93.0761 70.2456 93.1304 70.0916ZM95.6445 69.9421V70.4992H96.1473V69.9421H95.6445ZM95.1689 69.5208H96.6366V70.9273H95.1689V69.5208ZM97.3976 69.9421V70.4992H97.9208V69.9421H97.3976ZM96.9219 69.5208H98.4032V70.9273H96.9219V69.5208ZM98.4236 71.3418L101.243 71.0021L101.318 71.5932L98.4983 71.9466L98.4236 71.3418ZM99.9592 69.6907L100.448 69.4325C100.548 69.5457 100.646 69.6703 100.741 69.8062C100.84 69.9421 100.931 70.0757 101.012 70.2071C101.094 70.3384 101.157 70.4585 101.203 70.5672L100.686 70.8662C100.646 70.7575 100.587 70.6351 100.51 70.4992C100.433 70.3588 100.344 70.2184 100.245 70.078C100.149 69.9375 100.054 69.8084 99.9592 69.6907ZM95.7736 72.66V73.1424H97.7849V72.66H95.7736ZM95.7736 71.7291V72.198H97.7849V71.7291H95.7736ZM95.2368 71.2399H98.3489V73.6249H95.2368V71.2399ZM94.9582 74.0462H98.5527V74.6169H94.9582V74.0462ZM96.4939 71.4098H97.0443V73.421H97.0782V75.6362H96.4599V73.421H96.4939V71.4098ZM99.0216 69.3645H99.6263C99.6399 69.9579 99.6648 70.5264 99.701 71.07C99.7373 71.6136 99.7848 72.1164 99.8437 72.5785C99.9071 73.036 99.9796 73.4369 100.061 73.7812C100.143 74.1209 100.233 74.3882 100.333 74.583C100.437 74.7732 100.548 74.8729 100.666 74.8819C100.729 74.8865 100.781 74.8027 100.822 74.6305C100.867 74.4584 100.901 74.2092 100.924 73.8831C100.96 73.9284 101.008 73.9759 101.067 74.0258C101.13 74.0711 101.191 74.1141 101.25 74.1549C101.314 74.1911 101.364 74.2206 101.4 74.2432C101.35 74.6147 101.284 74.9023 101.203 75.1062C101.126 75.31 101.04 75.4504 100.944 75.5274C100.854 75.609 100.761 75.6475 100.666 75.643C100.43 75.6339 100.224 75.5252 100.048 75.3168C99.8754 75.113 99.7282 74.8253 99.6059 74.4539C99.4836 74.0779 99.3817 73.6317 99.3001 73.1153C99.2231 72.5989 99.162 72.0258 99.1167 71.3962C99.0759 70.762 99.0442 70.0848 99.0216 69.3645ZM100.605 71.8854L101.101 72.164C100.947 72.6306 100.738 73.0836 100.476 73.523C100.217 73.9578 99.9185 74.3542 99.5787 74.7121C99.2435 75.0654 98.8766 75.3508 98.478 75.5682C98.4236 75.4957 98.3534 75.4165 98.2673 75.3304C98.1813 75.2443 98.0952 75.1718 98.0091 75.113C98.4123 74.9227 98.7837 74.6622 99.1235 74.3315C99.4632 73.9963 99.7577 73.6181 100.007 73.1968C100.26 72.7755 100.46 72.3384 100.605 71.8854Z" fill="#424242"/>
</g>
<defs>
<clipPath id="clip0_154_6326">
<rect width="200" height="200" fill="white" transform="translate(0.408081 0.527344)"/>
</clipPath>
</defs>
</svg>
