<svg width="201" height="201" viewBox="0 0 201 201" fill="none" xmlns="http://www.w3.org/2000/svg">
<g clip-path="url(#clip0_154_6345)">
<path d="M69.463 36.0723L24.463 36.0723" stroke="#222222" stroke-width="0.679485" stroke-linecap="round"/>
<path d="M69.463 50.623L69.463 38.913" stroke="#222222" stroke-width="0.679485" stroke-linecap="round" stroke-dasharray="1.36 1.36"/>
<path d="M24.463 50.623L24.463 38.913" stroke="#222222" stroke-width="0.679485" stroke-linecap="round" stroke-dasharray="1.36 1.36"/>
<path d="M69.463 107.645L69.463 72.4501" stroke="#222222" stroke-width="0.679485" stroke-linecap="round" stroke-dasharray="1.36 1.36"/>
<path d="M24.463 33.2344L24.463 21.5206" stroke="#222222" stroke-width="0.679485" stroke-linecap="round"/>
<path d="M24.463 84.1641L24.463 72.4502" stroke="#222222" stroke-width="0.679485" stroke-linecap="round"/>
<rect x="1.30276" y="0.867086" width="46.3205" height="15.4743" rx="7.73717" stroke="#424242" stroke-width="0.679485"/>
<path d="M10.5247 11.6986C10.0989 11.6986 9.72061 11.5922 9.38993 11.3793C9.06378 11.1664 8.80784 10.8651 8.62211 10.4756C8.43639 10.0815 8.34352 9.61715 8.34352 9.08263C8.34352 8.54357 8.43639 8.08378 8.62211 7.70327C8.80784 7.31823 9.06378 7.02379 9.38993 6.81994C9.72061 6.61156 10.0989 6.50738 10.5247 6.50738C10.955 6.50738 11.3333 6.61156 11.6594 6.81994C11.9856 7.02379 12.2415 7.31823 12.4272 7.70327C12.613 8.08378 12.7058 8.54357 12.7058 9.08263C12.7058 9.61715 12.613 10.0815 12.4272 10.4756C12.2415 10.8651 11.9856 11.1664 11.6594 11.3793C11.3333 11.5922 10.955 11.6986 10.5247 11.6986ZM10.5247 11.0395C10.801 11.0395 11.0411 10.9625 11.2449 10.8085C11.4533 10.65 11.6141 10.4235 11.7274 10.129C11.8406 9.83459 11.8972 9.48579 11.8972 9.08263C11.8972 8.69305 11.8406 8.35784 11.7274 8.07699C11.6141 7.7916 11.4533 7.57417 11.2449 7.42468C11.0411 7.27067 10.801 7.19366 10.5247 7.19366C10.2483 7.19366 10.006 7.27067 9.79762 7.42468C9.59378 7.57417 9.43523 7.7916 9.32198 8.07699C9.21327 8.35784 9.15891 8.69305 9.15891 9.08263C9.15891 9.48579 9.21327 9.83459 9.32198 10.129C9.43523 10.4235 9.59378 10.65 9.79762 10.8085C10.006 10.9625 10.2483 11.0395 10.5247 11.0395ZM12.0943 12.9081C11.7636 12.9081 11.4669 12.8492 11.2042 12.7315C10.9414 12.6182 10.7195 12.4597 10.5383 12.2558C10.3571 12.0565 10.2166 11.8323 10.117 11.5831L10.9324 11.5084C10.9958 11.676 11.0886 11.8164 11.211 11.9297C11.3378 12.0429 11.485 12.1245 11.6526 12.1743C11.8202 12.2286 11.9969 12.2558 12.1826 12.2558C12.2913 12.2558 12.3887 12.249 12.4748 12.2354C12.5654 12.2218 12.6469 12.2015 12.7194 12.1743L12.8689 12.7722C12.7874 12.8085 12.6786 12.8402 12.5427 12.8674C12.4068 12.8945 12.2574 12.9081 12.0943 12.9081ZM14.4243 11.6035V6.59571L16.0618 6.59571C16.4061 6.59571 16.7141 6.64327 16.9859 6.7384C17.2577 6.829 17.4729 6.98075 17.6314 7.19366C17.79 7.40203 17.8693 7.68742 17.8693 8.04981C17.8693 8.39861 17.79 8.68626 17.6314 8.91275C17.4729 9.13925 17.2577 9.30912 16.9859 9.42237C16.7141 9.53109 16.4061 9.58544 16.0618 9.58544H15.2125V11.6035H14.4243ZM15.2125 8.95352H15.9667C16.3291 8.95352 16.6054 8.87878 16.7957 8.72929C16.9905 8.57528 17.0879 8.34878 17.0879 8.04981C17.0879 7.74631 16.9905 7.53566 16.7957 7.41789C16.6054 7.29558 16.3291 7.23443 15.9667 7.23443H15.2125V8.95352ZM17.1558 11.6035L15.9124 9.3748L16.4967 8.91955L18.0459 11.6035H17.1558ZM18.9843 9.97275V9.39519H20.7781V9.97275H18.9843ZM24.3822 11.6986C24.0697 11.6986 23.7775 11.642 23.5057 11.5288C23.2384 11.411 23.0029 11.2411 22.799 11.0192C22.5952 10.7972 22.4366 10.5277 22.3234 10.2106C22.2102 9.88895 22.1535 9.52203 22.1535 9.10981C22.1535 8.70211 22.2124 8.33746 22.3302 8.01583C22.448 7.69421 22.6088 7.42242 22.8126 7.20045C23.0165 6.97396 23.2566 6.80182 23.5329 6.68404C23.8092 6.56627 24.1059 6.50738 24.423 6.50738C24.731 6.50738 25.0051 6.5708 25.2452 6.69763C25.4853 6.82447 25.6823 6.97169 25.8363 7.1393L25.4151 7.64212C25.2837 7.51075 25.1365 7.4043 24.9734 7.32276C24.8148 7.23669 24.6359 7.19366 24.4366 7.19366C24.1467 7.19366 23.8907 7.27067 23.6688 7.42468C23.4513 7.5787 23.2792 7.79613 23.1524 8.07699C23.0301 8.35784 22.9689 8.69532 22.9689 9.08942C22.9689 9.48352 23.0278 9.82553 23.1456 10.1154C23.2634 10.4008 23.431 10.6205 23.6484 10.7745C23.8658 10.9286 24.1218 11.0056 24.4162 11.0056C24.6427 11.0056 24.8443 10.958 25.021 10.8629C25.2022 10.7632 25.3675 10.6319 25.517 10.4688L25.9451 10.9716C25.7412 11.2071 25.5102 11.3883 25.252 11.5152C24.9983 11.6375 24.7084 11.6986 24.3822 11.6986ZM28.9381 11.6986C28.63 11.6986 28.3401 11.6216 28.0683 11.4676C27.8011 11.3091 27.5836 11.0848 27.416 10.7949C27.253 10.5005 27.1714 10.1472 27.1714 9.73493C27.1714 9.31818 27.253 8.96485 27.416 8.67493C27.5836 8.38049 27.8011 8.15626 28.0683 8.00224C28.3401 7.84823 28.63 7.77122 28.9381 7.77122C29.1646 7.77122 29.3843 7.81652 29.5972 7.90712C29.8101 7.99318 29.9981 8.12002 30.1612 8.28763C30.3242 8.45523 30.4533 8.66135 30.5485 8.90596C30.6436 9.14604 30.6912 9.42237 30.6912 9.73493C30.6912 10.1472 30.6073 10.5005 30.4397 10.7949C30.2767 11.0848 30.0615 11.3091 29.7942 11.4676C29.5315 11.6216 29.2461 11.6986 28.9381 11.6986ZM28.9381 11.0463C29.1329 11.0463 29.3005 10.992 29.4409 10.8833C29.5859 10.7745 29.6968 10.6228 29.7738 10.428C29.8509 10.2287 29.8894 9.99767 29.8894 9.73493C29.8894 9.4722 29.8509 9.24344 29.7738 9.04865C29.6968 8.84934 29.5859 8.69532 29.4409 8.5866C29.3005 8.47335 29.1329 8.41673 28.9381 8.41673C28.7388 8.41673 28.5666 8.47335 28.4217 8.5866C28.2812 8.69532 28.1725 8.84934 28.0955 9.04865C28.0185 9.24344 27.98 9.4722 27.98 9.73493C27.98 9.99767 28.0185 10.2287 28.0955 10.428C28.1725 10.6228 28.2812 10.7745 28.4217 10.8833C28.5666 10.992 28.7388 11.0463 28.9381 11.0463ZM33.5806 11.6986C33.2725 11.6986 33.003 11.6216 32.772 11.4676C32.5409 11.3136 32.362 11.0894 32.2352 10.7949C32.1083 10.5005 32.0449 10.1472 32.0449 9.73493C32.0449 9.33177 32.1197 8.98297 32.2691 8.68852C32.4232 8.39408 32.6202 8.16759 32.8603 8.00904C33.1049 7.85049 33.3654 7.77122 33.6417 7.77122C33.8591 7.77122 34.0426 7.80972 34.1921 7.88673C34.3461 7.95921 34.4979 8.06113 34.6473 8.1925L34.6202 7.57417V6.18802H35.4016V11.6035H34.7629L34.6949 11.1822H34.6745C34.5341 11.3272 34.371 11.4495 34.1853 11.5492C33.9996 11.6488 33.798 11.6986 33.5806 11.6986ZM33.7708 11.0395C33.9294 11.0395 34.0766 11.0033 34.2125 10.9308C34.3484 10.8583 34.4843 10.7428 34.6202 10.5843V8.76327C34.4843 8.64096 34.3484 8.55489 34.2125 8.50506C34.0766 8.4507 33.9384 8.42353 33.798 8.42353C33.6259 8.42353 33.4673 8.47788 33.3224 8.5866C33.1819 8.69079 33.0687 8.84028 32.9826 9.03506C32.8965 9.22532 32.8535 9.45634 32.8535 9.72814C32.8535 10.009 32.8897 10.2491 32.9622 10.4484C33.0347 10.6432 33.1389 10.7904 33.2748 10.8901C33.4152 10.9897 33.5806 11.0395 33.7708 11.0395ZM38.8186 11.6986C38.4788 11.6986 38.1708 11.6216 37.8945 11.4676C37.6182 11.3091 37.3985 11.0848 37.2354 10.7949C37.0723 10.5005 36.9908 10.1472 36.9908 9.73493C36.9908 9.43143 37.0383 9.15963 37.1335 8.91955C37.2286 8.67493 37.3577 8.46882 37.5208 8.30122C37.6838 8.12908 37.8673 7.99771 38.0712 7.90712C38.275 7.81652 38.4834 7.77122 38.6963 7.77122C39.027 7.77122 39.3056 7.84596 39.532 7.99545C39.7585 8.14041 39.9307 8.34652 40.0485 8.61378C40.1662 8.87652 40.2251 9.18455 40.2251 9.53788C40.2251 9.61489 40.2206 9.68963 40.2115 9.76211C40.207 9.83006 40.1979 9.88895 40.1844 9.93878L37.7586 9.93878C37.7812 10.1743 37.8424 10.3782 37.9421 10.5503C38.0462 10.7179 38.1799 10.8493 38.3429 10.9444C38.5106 11.035 38.7008 11.0803 38.9137 11.0803C39.0813 11.0803 39.2376 11.0554 39.3826 11.0056C39.5275 10.9557 39.6679 10.8878 39.8038 10.8017L40.0756 11.2977C39.9035 11.411 39.711 11.5061 39.4981 11.5831C39.2897 11.6601 39.0632 11.6986 38.8186 11.6986ZM37.7518 9.39519L39.5456 9.39519C39.5456 9.0781 39.4732 8.83122 39.3282 8.65455C39.1878 8.47788 38.9817 8.38955 38.7099 8.38955C38.5559 8.38955 38.4109 8.42806 38.275 8.50506C38.1391 8.58207 38.0236 8.69532 37.9285 8.84481C37.8379 8.99429 37.779 9.17775 37.7518 9.39519Z" fill="#424242"/>
<rect x="9.80276" y="53.8007" width="28.3205" height="15.4705" stroke="#424242" stroke-width="0.679485"/>
<path d="M19.4188 59.0245H22.4289V61.1921H19.3644V60.7097H21.8309V59.5002H19.4188V59.0245ZM19.0315 59.8739H22.1299V60.3156H19.0315V59.8739ZM22.0484 59.8467H22.9045V60.3291H22.0484V59.8467ZM18.7936 61.4775H22.8706V62.7821H22.2862V61.9939H19.3576V62.7889H18.7936V61.4775ZM19.2489 62.5782H22.2183V63.0743H19.8197V64.6235H19.2489V62.5782ZM21.9261 62.5782H22.4833V64.0731C22.4833 64.2045 22.4697 64.3087 22.4425 64.3857C22.4153 64.4627 22.3564 64.5238 22.2658 64.5691C22.1752 64.6144 22.0642 64.6393 21.9329 64.6439C21.806 64.6529 21.6543 64.6575 21.4776 64.6575C21.4731 64.5805 21.455 64.4944 21.4233 64.3993C21.3915 64.3041 21.3598 64.2203 21.3281 64.1478C21.4459 64.1524 21.5501 64.1546 21.6407 64.1546C21.7358 64.1546 21.8015 64.1524 21.8377 64.1478C21.874 64.1478 21.8966 64.1433 21.9057 64.1343C21.9193 64.1207 21.9261 64.098 21.9261 64.0663V62.5782ZM20.5399 61.9735H21.1175V65.1059H20.5399V61.9735ZM16.6329 62.2793C16.8956 62.2113 17.2082 62.1252 17.5706 62.0211C17.9375 61.9123 18.3089 61.8014 18.6849 61.6881L18.7665 62.2725C18.4267 62.3812 18.0825 62.4899 17.7336 62.5986C17.3894 62.7073 17.0723 62.807 16.7824 62.8976L16.6329 62.2793ZM16.7348 60.1321H18.8344V60.73H16.7348V60.1321ZM17.523 58.8071H18.121V64.3993C18.121 64.5578 18.1028 64.6824 18.0666 64.773C18.0304 64.8636 17.9647 64.9361 17.8695 64.9904C17.7789 65.0402 17.6612 65.0719 17.5162 65.0855C17.3758 65.1037 17.1946 65.1127 16.9726 65.1127C16.9681 65.0312 16.9477 64.9315 16.9115 64.8137C16.8798 64.7005 16.8435 64.6008 16.8028 64.5148C16.9387 64.5193 17.0632 64.5216 17.1765 64.5216C17.2897 64.5216 17.3667 64.5193 17.4075 64.5148C17.4483 64.5148 17.4777 64.508 17.4958 64.4944C17.5139 64.4763 17.523 64.4446 17.523 64.3993V58.8071ZM26.6417 61.1853H30.2226V65.0584H29.611V61.7493H27.2261V65.0923H26.6417V61.1853ZM26.9679 62.6598H29.8828V63.2102H26.9679V62.6598ZM26.9882 64.1818H29.8964V64.7458H26.9882V64.1818ZM28.1094 61.4503H28.6869V64.6167H28.1094V61.4503ZM24.1072 62.354C24.3065 62.3087 24.533 62.2521 24.7867 62.1841C25.0404 62.1162 25.3054 62.0437 25.5817 61.9667C25.8626 61.8897 26.1434 61.8127 26.4243 61.7357L26.5058 62.3132C26.1117 62.431 25.7153 62.5488 25.3167 62.6666C24.9226 62.7798 24.5625 62.884 24.2363 62.9791L24.1072 62.354ZM24.2023 60.1321H26.4243V60.73H24.2023L24.2023 60.1321ZM25.0925 58.8003H25.7108V64.4061C25.7108 64.5691 25.6927 64.696 25.6564 64.7866C25.6202 64.8772 25.5523 64.9451 25.4526 64.9904C25.3529 65.0402 25.2261 65.0719 25.0721 65.0855C24.9181 65.0991 24.7256 65.1059 24.4945 65.1059C24.4855 65.0244 24.4606 64.927 24.4198 64.8137C24.3835 64.705 24.3473 64.6076 24.3111 64.5216C24.456 64.5261 24.5897 64.5306 24.712 64.5352C24.8388 64.5352 24.9226 64.5329 24.9634 64.5284C25.0132 64.5284 25.0472 64.5193 25.0653 64.5012C25.0834 64.4831 25.0925 64.4491 25.0925 64.3993V58.8003ZM26.3088 59.6361H28.2385V60.2272H26.3088V59.6361ZM27.1105 58.7935H27.7493V60.8659H27.1105V58.7935ZM29.0131 58.7935H29.6586V60.8659H29.0131V58.7935ZM28.4899 59.6225H30.4944V60.2204H28.4899V59.6225Z" fill="#424242"/>
<rect x="55.3028" y="53.8007" width="28.3205" height="15.4705" stroke="#424242" stroke-width="0.679485"/>
<path d="M65.1362 59.1468H68.1124V62.3132H67.46V59.8059H65.1362V59.1468ZM65.6051 61.328H67.7726V61.9599H65.6051V61.328ZM65.2789 61.328H65.9516V64.0731C65.9516 64.209 65.9742 64.2973 66.0195 64.3381C66.0694 64.3789 66.1804 64.3993 66.3525 64.3993C66.3842 64.3993 66.4363 64.3993 66.5088 64.3993C66.5858 64.3993 66.6696 64.3993 66.7602 64.3993C66.8553 64.3993 66.9527 64.3993 67.0524 64.3993C67.152 64.3993 67.2403 64.3993 67.3174 64.3993C67.3989 64.3993 67.46 64.3993 67.5008 64.3993C67.6095 64.3993 67.6888 64.3743 67.7386 64.3245C67.793 64.2702 67.8315 64.166 67.8541 64.012C67.8768 63.8579 67.8949 63.6337 67.9085 63.3393C67.9583 63.3755 68.0195 63.4117 68.092 63.448C68.1644 63.4842 68.2369 63.5182 68.3094 63.5499C68.3864 63.5771 68.4566 63.5975 68.52 63.6111C68.4974 63.9689 68.4544 64.2498 68.3909 64.4536C68.3275 64.6529 68.2301 64.7934 68.0988 64.8749C67.9674 64.9564 67.7839 64.9972 67.5484 64.9972C67.5121 64.9972 67.451 64.9972 67.3649 64.9972C67.2834 64.9972 67.186 64.9972 67.0727 64.9972C66.964 64.9972 66.853 64.9972 66.7398 64.9972C66.6311 64.9972 66.5337 64.9972 66.4476 64.9972C66.3661 64.9972 66.3095 64.9972 66.2777 64.9972C66.0241 64.9972 65.8248 64.97 65.6798 64.9157C65.5348 64.8658 65.4307 64.773 65.3672 64.6371C65.3083 64.5057 65.2789 64.3177 65.2789 64.0731V61.328ZM64.0151 61.5182L64.4975 61.3416C64.57 61.4865 64.6402 61.6428 64.7081 61.8104C64.7761 61.978 64.8372 62.1411 64.8916 62.2997C64.946 62.4537 64.9867 62.5896 65.0139 62.7073L64.4975 62.9248C64.4703 62.807 64.4318 62.6666 64.382 62.5035C64.3322 62.3404 64.2755 62.1728 64.2121 62.0007C64.1487 61.8285 64.083 61.6677 64.0151 61.5182ZM63.3424 63.2849L63.8656 63.1626C63.9109 63.4072 63.9516 63.6722 63.9879 63.9576C64.0241 64.2384 64.049 64.4831 64.0626 64.6914L63.5122 64.8205C63.5122 64.6801 63.5032 64.5216 63.4851 64.3449C63.4669 64.1682 63.4443 63.9893 63.4171 63.8081C63.3945 63.6224 63.3695 63.448 63.3424 63.2849ZM62.5542 63.2238L63.1045 63.3121C63.0683 63.6111 63.0162 63.9123 62.9483 64.2158C62.8848 64.5148 62.8146 64.7684 62.7376 64.9768C62.6969 64.9542 62.6448 64.9315 62.5813 64.9089C62.5179 64.8862 62.4522 64.8636 62.3843 64.8409C62.3163 64.8183 62.2597 64.8002 62.2144 64.7866C62.3005 64.5827 62.3707 64.3404 62.4251 64.0595C62.4794 63.7787 62.5225 63.5001 62.5542 63.2238ZM62.4251 61.4095C62.416 61.3688 62.3979 61.3144 62.3707 61.2464C62.3481 61.174 62.3231 61.1015 62.296 61.029C62.2733 60.952 62.2507 60.8886 62.228 60.8388C62.2914 60.8252 62.3548 60.7867 62.4183 60.7232C62.4817 60.6553 62.5496 60.5692 62.6221 60.465C62.6584 60.4152 62.7127 60.3337 62.7852 60.2204C62.8577 60.1072 62.9392 59.9713 63.0298 59.8127C63.1204 59.6542 63.2087 59.4866 63.2948 59.3099C63.3854 59.1287 63.4669 58.9453 63.5394 58.7595L64.1238 59.0041C63.9426 59.3801 63.7342 59.7538 63.4986 60.1253C63.2676 60.4922 63.0343 60.8116 62.7988 61.0834V61.097C62.7988 61.097 62.7807 61.1083 62.7444 61.1309C62.7082 61.1536 62.6629 61.1808 62.6085 61.2125C62.5587 61.2442 62.5157 61.2782 62.4794 61.3144C62.4432 61.3461 62.4251 61.3778 62.4251 61.4095ZM62.4251 61.4095L62.4047 60.9407L62.6901 60.7572L63.9199 60.6621C63.9018 60.7436 63.886 60.8365 63.8724 60.9407C63.8633 61.0403 63.8588 61.1219 63.8588 61.1853C63.5825 61.2125 63.356 61.2374 63.1793 61.26C63.0072 61.2827 62.8713 61.3031 62.7716 61.3212C62.6719 61.3348 62.5949 61.3506 62.5406 61.3688C62.4907 61.3823 62.4522 61.3959 62.4251 61.4095ZM62.4726 62.9655C62.4636 62.9248 62.4454 62.8682 62.4183 62.7957C62.3956 62.7187 62.3707 62.6417 62.3435 62.5646C62.3163 62.4876 62.2892 62.422 62.262 62.3676C62.3481 62.354 62.4319 62.3064 62.5134 62.2249C62.5995 62.1434 62.6991 62.0414 62.8124 61.9191C62.8713 61.8602 62.9573 61.7606 63.0706 61.6202C63.1838 61.4752 63.3084 61.3053 63.4443 61.1106C63.5847 60.9112 63.7251 60.6983 63.8656 60.4718C64.0105 60.2408 64.1396 60.0098 64.2529 59.7788L64.8033 60.1185C64.6266 60.4265 64.4295 60.7323 64.2121 61.0358C63.9992 61.3348 63.7772 61.6202 63.5462 61.892C63.3197 62.1638 63.091 62.4106 62.8599 62.6326V62.653C62.8599 62.653 62.8395 62.6643 62.7988 62.687C62.7625 62.7051 62.7172 62.73 62.6629 62.7617C62.6131 62.7934 62.5678 62.8274 62.527 62.8636C62.4907 62.8999 62.4726 62.9338 62.4726 62.9655ZM62.4726 62.9655L62.4387 62.4763L62.7308 62.2793L64.5722 62.0279C64.5632 62.1094 64.5541 62.2023 64.5451 62.3064C64.5405 62.4106 64.5405 62.4944 64.5451 62.5579C64.1283 62.6258 63.7908 62.6824 63.5326 62.7277C63.2789 62.7685 63.0819 62.8025 62.9415 62.8296C62.801 62.8568 62.6969 62.8817 62.6289 62.9044C62.561 62.9225 62.5089 62.9429 62.4726 62.9655ZM64.1374 63.1422L64.6266 62.9791C64.7036 63.1875 64.7806 63.414 64.8576 63.6586C64.9392 63.9032 64.998 64.1139 65.0343 64.2905L64.5247 64.474C64.4884 64.2928 64.4318 64.0776 64.3548 63.8285C64.2823 63.5793 64.2098 63.3506 64.1374 63.1422ZM70.144 60.5262H71.8088V61.0698H70.144V60.5262ZM69.7703 61.7085H72.0873V62.2589H69.7703V61.7085ZM69.8043 62.6258L70.2459 62.5239C70.2958 62.7141 70.3456 62.9225 70.3954 63.149C70.4453 63.3755 70.4815 63.5703 70.5041 63.7334L70.0421 63.8625C70.0285 63.6903 69.9991 63.491 69.9538 63.2645C69.9085 63.0335 69.8586 62.8206 69.8043 62.6258ZM69.6548 64.3177C69.9583 64.2724 70.3297 64.2135 70.7691 64.1411C71.2131 64.0686 71.6638 63.9938 72.1213 63.9168L72.1553 64.4264C71.7431 64.5125 71.3286 64.5963 70.9118 64.6778C70.4951 64.7594 70.1236 64.8319 69.7975 64.8953L69.6548 64.3177ZM71.734 62.4627L72.1689 62.5782C72.1145 62.7821 72.0579 62.995 71.999 63.217C71.9446 63.4344 71.8926 63.6201 71.8427 63.7741L71.4962 63.6722C71.5279 63.559 71.5573 63.4321 71.5845 63.2917C71.6162 63.1467 71.6457 63.0018 71.6729 62.8568C71.7 62.7119 71.7204 62.5805 71.734 62.4627ZM70.742 60.7504H71.2652V64.3993L70.742 64.4944V60.7504ZM70.8982 58.7867L71.3943 58.9702C71.272 59.2284 71.1247 59.4866 70.9526 59.7448C70.7805 60.003 70.5947 60.2453 70.3954 60.4718C70.2006 60.6983 69.9991 60.8976 69.7907 61.0698C69.7862 61.0245 69.7703 60.9633 69.7431 60.8863C69.7205 60.8093 69.6933 60.73 69.6616 60.6485C69.6299 60.5624 69.6004 60.4967 69.5732 60.4515C69.8269 60.2476 70.0738 60.0007 70.3139 59.7108C70.554 59.4164 70.7488 59.1083 70.8982 58.7867ZM70.8031 59.3915L71.1497 59.0245C71.2901 59.1559 71.4396 59.2986 71.5981 59.4526C71.7612 59.6066 71.9152 59.7561 72.0602 59.9011C72.2096 60.046 72.332 60.1706 72.4271 60.2748L72.0602 60.7029C71.9696 60.5896 71.8518 60.456 71.7068 60.302C71.5619 60.1479 71.4101 59.9917 71.2516 59.8331C71.093 59.67 70.9435 59.5228 70.8031 59.3915ZM75.4236 62.0618L75.8585 62.422C75.7181 62.576 75.5663 62.7323 75.4032 62.8908C75.2402 63.0448 75.0929 63.1762 74.9616 63.2849L74.6082 62.9588C74.6943 62.8817 74.7872 62.7911 74.8868 62.687C74.9865 62.5828 75.0839 62.4763 75.179 62.3676C75.2741 62.2544 75.3557 62.1524 75.4236 62.0618ZM72.332 62.3812L72.7532 62.0754C72.8846 62.2023 73.0205 62.3472 73.1609 62.5103C73.3059 62.6688 73.4169 62.8047 73.4939 62.918L73.0454 63.2645C73.0001 63.1875 72.9367 63.0969 72.8552 62.9927C72.7736 62.8885 72.6876 62.7821 72.597 62.6734C72.5064 62.5646 72.418 62.4673 72.332 62.3812ZM73.1541 59.3847H74.9752V59.8807H73.1541V59.3847ZM72.9435 60.4039H74.8189V60.9067H72.9435V60.4039ZM72.1893 61.3212H75.9672V61.8852H72.1893V61.3212ZM73.7589 61.6541H74.35V64.474C74.35 64.619 74.3342 64.7322 74.3025 64.8137C74.2708 64.8998 74.2051 64.9655 74.1054 65.0108C74.0148 65.0561 73.8993 65.0833 73.7589 65.0923C73.623 65.1059 73.4576 65.1127 73.2628 65.1127C73.2538 65.0312 73.2311 64.9361 73.1949 64.8273C73.1587 64.7231 73.1202 64.6325 73.0794 64.5555C73.2062 64.5601 73.324 64.5623 73.4327 64.5623C73.5414 64.5623 73.6162 64.5623 73.657 64.5623C73.7249 64.5578 73.7589 64.5261 73.7589 64.4672V61.6541ZM72.0534 64.1818C72.221 64.0822 72.4203 63.9553 72.6513 63.8013C72.8823 63.6428 73.1202 63.4797 73.3648 63.3121L73.555 63.7809C73.3602 63.9304 73.1609 64.0822 72.9571 64.2362C72.7578 64.3857 72.5675 64.5284 72.3863 64.6643L72.0534 64.1818ZM73.0862 58.7935L73.6841 58.8615C73.6343 59.0834 73.5777 59.3212 73.5143 59.5749C73.4554 59.8241 73.3942 60.0641 73.3308 60.2952C73.2719 60.5262 73.2153 60.73 73.1609 60.9067H72.5426C72.6015 60.721 72.6649 60.5081 72.7329 60.268C72.8008 60.0234 72.8642 59.772 72.9231 59.5138C72.9865 59.2556 73.0409 59.0155 73.0862 58.7935ZM74.7985 59.3847H74.8664L74.9684 59.3575L75.41 59.4186C75.3783 59.6315 75.3375 59.8626 75.2877 60.1117C75.2379 60.3609 75.1858 60.6077 75.1314 60.8523C75.0816 61.097 75.0318 61.328 74.9819 61.5454L74.3908 61.4707C74.4452 61.2487 74.4972 61.0132 74.5471 60.764C74.6014 60.5103 74.6513 60.268 74.6966 60.037C74.7419 59.8014 74.7758 59.6066 74.7985 59.4526V59.3847ZM74.4587 63.6654L74.8053 63.2849C74.9412 63.3755 75.0839 63.4774 75.2334 63.5907C75.3874 63.7039 75.5346 63.8172 75.675 63.9304C75.8154 64.0391 75.9287 64.1365 76.0148 64.2226L75.6478 64.6575C75.5663 64.5714 75.4576 64.4695 75.3217 64.3517C75.1858 64.2339 75.0408 64.1161 74.8868 63.9984C74.7373 63.8761 74.5946 63.7651 74.4587 63.6654Z" fill="#424242"/>
<rect x="2.80276" y="87.3417" width="43.3205" height="15.4705" stroke="#424242" stroke-width="0.679485" stroke-dasharray="1.36 1.36"/>
<path d="M11.6713 95.2495H16.0472V95.8746H11.6713V95.2495ZM11.8752 97.784H15.8909V98.3955H11.8752L11.8752 97.784ZM13.5467 93.3538H14.199V98.0082H13.5467V93.3538ZM10.6725 94.2507L11.2976 93.6255L11.3044 93.6323L11.3044 98.6333H10.6725L10.6725 94.2507ZM11.3792 92.3821L12.0111 92.5791C11.8525 92.9778 11.6645 93.3719 11.4471 93.7614C11.2297 94.151 10.9941 94.5157 10.7404 94.8554C10.4868 95.1952 10.2263 95.4964 9.95904 95.7591C9.93639 95.7048 9.90241 95.6368 9.85711 95.5553C9.81182 95.4692 9.76199 95.3831 9.70763 95.2971C9.6578 95.211 9.6125 95.1431 9.57173 95.0932C9.81182 94.8758 10.0428 94.6244 10.2648 94.339C10.4913 94.0491 10.6997 93.7388 10.8899 93.4081C11.0802 93.0729 11.2433 92.7309 11.3792 92.3821ZM12.0858 92.98H15.7686V93.5848H12.0858V92.98ZM17.3179 92.6675H19.5941V93.2111H17.3179V92.6675ZM19.9814 96.1464H22.8489V96.69H19.9814V96.1464ZM17.2295 94.7263H19.7776V95.2971H17.2295V94.7263ZM18.3914 94.9573H18.9962V97.9335C18.9962 98.083 18.9781 98.203 18.9418 98.2936C18.9101 98.3887 18.8422 98.4635 18.738 98.5178C18.6429 98.5631 18.5205 98.5903 18.3711 98.5994C18.2261 98.613 18.0494 98.6198 17.8411 98.6198C17.8275 98.5337 17.8026 98.4318 17.7663 98.314C17.7301 98.2007 17.6916 98.1011 17.6508 98.015C17.7912 98.0195 17.9203 98.0241 18.0381 98.0286C18.1559 98.0286 18.2374 98.0263 18.2827 98.0218C18.3235 98.0173 18.3507 98.0105 18.3643 98.0014C18.3824 97.9878 18.3914 97.9607 18.3914 97.9199V94.9573ZM22.6382 96.1464H23.2905C23.2905 96.1464 23.2883 96.1804 23.2837 96.2484C23.2792 96.3118 23.2747 96.3661 23.2701 96.4114C23.2294 96.8191 23.1863 97.1566 23.141 97.4239C23.1003 97.6866 23.055 97.8927 23.0052 98.0422C22.9553 98.1917 22.8964 98.3027 22.8285 98.3751C22.7605 98.4431 22.6903 98.4907 22.6178 98.5178C22.5454 98.545 22.4616 98.5654 22.3664 98.579C22.2849 98.5881 22.1762 98.5926 22.0403 98.5926C21.9089 98.5926 21.764 98.5903 21.6054 98.5858C21.6009 98.4952 21.5828 98.3933 21.5511 98.28C21.5193 98.1668 21.4808 98.0694 21.4355 97.9878C21.5714 98.0014 21.696 98.0105 21.8093 98.015C21.927 98.0195 22.0131 98.0218 22.0675 98.0218C22.1218 98.0218 22.1649 98.0173 22.1966 98.0082C22.2328 97.9992 22.2668 97.9788 22.2985 97.9471C22.3438 97.9018 22.3868 97.818 22.4276 97.6957C22.4684 97.5688 22.5046 97.3876 22.5363 97.1521C22.5725 96.9165 22.6065 96.613 22.6382 96.2416V96.1464ZM21.157 95.5009H21.8025C21.7708 95.8497 21.7209 96.1804 21.653 96.493C21.585 96.8055 21.4808 97.0977 21.3404 97.3695C21.2 97.6368 21.0052 97.8791 20.7561 98.0966C20.5114 98.314 20.1921 98.4997 19.798 98.6537C19.7617 98.5767 19.7074 98.4884 19.6349 98.3887C19.5624 98.2891 19.4922 98.2098 19.4243 98.1509C19.7776 98.0241 20.0607 97.8678 20.2736 97.6821C20.4911 97.4963 20.6587 97.2902 20.7764 97.0637C20.8987 96.8372 20.9871 96.5926 21.0414 96.3299C21.0958 96.0672 21.1343 95.7908 21.157 95.5009ZM17.5217 93.9245L17.9226 93.51C18.1129 93.5825 18.3099 93.6708 18.5138 93.775C18.7221 93.8747 18.9192 93.9811 19.1049 94.0944C19.2952 94.2031 19.4514 94.3073 19.5738 94.407L19.1457 94.869C19.0324 94.7693 18.8829 94.6629 18.6972 94.5496C18.516 94.4319 18.3212 94.3186 18.1129 94.2099C17.909 94.0967 17.712 94.0015 17.5217 93.9245ZM19.6145 94.7263H19.7029L19.7912 94.6991L20.1853 94.8282C20.1219 95.1272 20.0426 95.433 19.9475 95.7455C19.8569 96.0536 19.7617 96.3186 19.6621 96.5405L19.2204 96.3231C19.2974 96.1328 19.3722 95.8996 19.4446 95.6232C19.5171 95.3424 19.5738 95.0774 19.6145 94.8282V94.7263ZM22.3325 93.3062L23.0052 93.4081C22.8511 93.8249 22.6382 94.1805 22.3664 94.4749C22.0992 94.7693 21.7843 95.0162 21.422 95.2155C21.0596 95.4149 20.6587 95.5802 20.2193 95.7116C20.1966 95.6663 20.1604 95.6096 20.1105 95.5417C20.0652 95.4737 20.0154 95.4081 19.9611 95.3446C19.9112 95.2767 19.8637 95.2223 19.8184 95.1816C20.2396 95.0819 20.6179 94.9528 20.9531 94.7943C21.2928 94.6312 21.5805 94.4273 21.8161 94.1827C22.0516 93.9336 22.2237 93.6414 22.3325 93.3062ZM20.9259 92.3345L21.5307 92.5044C21.422 92.7445 21.2928 92.9778 21.1434 93.2043C20.9939 93.4308 20.8331 93.6437 20.6609 93.843C20.4933 94.0378 20.3234 94.2099 20.1513 94.3594C20.1105 94.3231 20.0584 94.2824 19.995 94.2371C19.9316 94.1873 19.8659 94.142 19.798 94.1012C19.7346 94.0559 19.6757 94.0196 19.6213 93.9925C19.8886 93.7932 20.1377 93.5485 20.3687 93.2586C20.6043 92.9642 20.79 92.6561 20.9259 92.3345ZM20.8987 93.4625C21.0573 93.7433 21.2679 93.9993 21.5307 94.2303C21.7934 94.4568 22.0969 94.6516 22.4412 94.8146C22.79 94.9777 23.1637 95.1023 23.5623 95.1884C23.517 95.2291 23.4672 95.2812 23.4128 95.3446C23.363 95.4081 23.3154 95.4737 23.2701 95.5417C23.2249 95.6096 23.1863 95.6731 23.1546 95.7319C22.7379 95.6232 22.3528 95.4715 21.9995 95.2767C21.6462 95.0774 21.3314 94.8396 21.055 94.5632C20.7787 94.2869 20.5477 93.9789 20.362 93.6391L20.8987 93.4625ZM18.3167 94.9166L18.7448 95.0796C18.6587 95.3786 18.55 95.6866 18.4186 96.0037C18.2873 96.3163 18.14 96.6085 17.977 96.8803C17.8184 97.1475 17.644 97.3695 17.4538 97.5462C17.4266 97.4556 17.3813 97.3537 17.3179 97.2404C17.2544 97.1226 17.1956 97.0207 17.1412 96.9346C17.3088 96.7852 17.4673 96.6017 17.6168 96.3843C17.7663 96.1623 17.9022 95.9245 18.0245 95.6708C18.1468 95.4171 18.2442 95.1657 18.3167 94.9166ZM20.8308 93.0412H23.406V93.5848H20.5726L20.8308 93.0412ZM19.4379 92.6675H19.5805L19.6825 92.6403L20.0902 92.8985C19.9905 93.057 19.8682 93.2201 19.7232 93.3877C19.5783 93.5553 19.4243 93.7116 19.2612 93.8566C19.0981 94.0015 18.935 94.1284 18.772 94.2371C18.7176 94.1873 18.6474 94.1329 18.5613 94.074C18.4798 94.0151 18.4073 93.9653 18.3439 93.9245C18.4888 93.8249 18.6315 93.7093 18.772 93.578C18.9124 93.4466 19.0415 93.3107 19.1593 93.1703C19.277 93.0299 19.3699 92.9008 19.4379 92.783V92.6675ZM25.1251 93.8566H30.2145V94.4885H25.7707V98.6537H25.1251V93.8566ZM29.8883 93.8566H30.5406V97.8587C30.5406 98.0445 30.5157 98.1894 30.4659 98.2936C30.4206 98.4023 30.3345 98.4816 30.2077 98.5314C30.0809 98.5858 29.9132 98.6175 29.7049 98.6266C29.501 98.6401 29.2519 98.6469 28.9574 98.6469C28.9529 98.5835 28.9371 98.511 28.9099 98.4295C28.8872 98.3525 28.86 98.2732 28.8283 98.1917C28.7966 98.1147 28.7672 98.0467 28.74 97.9878C28.8759 97.9924 29.0118 97.9969 29.1477 98.0014C29.2836 98.0014 29.4036 98.0014 29.5078 98.0014C29.612 98.0014 29.6845 98.0014 29.7253 98.0014C29.7887 97.9969 29.8317 97.9856 29.8544 97.9675C29.877 97.9448 29.8883 97.9063 29.8883 97.8519V93.8566ZM26.321 92.6335H27.8091V93.1975H26.321V92.6335ZM27.381 92.6335H28.0741C28.0968 93.1001 28.1421 93.5349 28.21 93.9381C28.2825 94.3413 28.3889 94.7082 28.5294 95.0389C28.6698 95.3696 28.851 95.6572 29.073 95.9018C29.2949 96.1464 29.569 96.3435 29.8951 96.493C29.8498 96.5337 29.7977 96.5881 29.7388 96.656C29.6845 96.7195 29.6301 96.7874 29.5758 96.8599C29.5214 96.9278 29.4761 96.9913 29.4399 97.0501C29.1001 96.8644 28.8125 96.6357 28.5769 96.3639C28.3414 96.0921 28.1466 95.7818 27.9926 95.433C27.8431 95.0796 27.7298 94.6946 27.6528 94.2779C27.5758 93.8566 27.5237 93.4104 27.4965 92.9393H27.381V92.6335ZM27.4422 94.0196L28.0401 94.1216C27.9224 94.8282 27.7162 95.4284 27.4218 95.9222C27.1274 96.416 26.7083 96.8055 26.1648 97.0909C26.1376 97.0411 26.0991 96.9845 26.0492 96.921C25.9994 96.8531 25.9451 96.7874 25.8862 96.724C25.8318 96.6606 25.782 96.6107 25.7367 96.5745C26.2304 96.339 26.6155 96.0083 26.8918 95.5825C27.1681 95.1521 27.3516 94.6312 27.4422 94.0196ZM34.0943 93.7546L34.6991 93.9585C34.5541 94.1578 34.3843 94.3526 34.1895 94.5428C33.9947 94.7286 33.7886 94.903 33.5711 95.0661C33.3582 95.2246 33.1476 95.3628 32.9392 95.4805C32.912 95.4398 32.8713 95.3877 32.8169 95.3243C32.7626 95.2608 32.7059 95.1997 32.647 95.1408C32.5927 95.0774 32.5429 95.0275 32.4976 94.9913C32.8056 94.8464 33.1023 94.6652 33.3877 94.4477C33.6776 94.2258 33.9132 93.9947 34.0943 93.7546ZM35.7999 94.1284L36.2347 93.7614C36.434 93.8792 36.6447 94.0151 36.8666 94.1691C37.0886 94.3186 37.2993 94.4704 37.4986 94.6244C37.6979 94.7784 37.861 94.9188 37.9878 95.0457L37.519 95.4669C37.4012 95.3356 37.2449 95.1906 37.0501 95.0321C36.8599 94.8735 36.6537 94.715 36.4318 94.5564C36.2143 94.3979 36.0037 94.2552 35.7999 94.1284ZM33.3537 96.3367H37.2336V98.6333H36.5745V96.9075H33.9788V98.6537H33.3537V96.3367ZM33.6867 97.8655H36.887V98.4363H33.6867V97.8655ZM32.416 92.9325H38.1577V94.2711H37.4986V93.5168H33.0411V94.2711H32.416V92.9325ZM34.767 92.4297L35.4329 92.2802C35.5145 92.407 35.5915 92.5497 35.664 92.7082C35.7364 92.8623 35.7885 92.9959 35.8202 93.1091L35.1204 93.2722C35.0932 93.1635 35.0456 93.0299 34.9777 92.8713C34.9097 92.7082 34.8395 92.561 34.767 92.4297ZM35.2019 94.3662L35.7591 94.6108C35.519 94.9913 35.2291 95.3424 34.8893 95.664C34.5541 95.9811 34.1849 96.2665 33.7818 96.5202C33.3832 96.7738 32.9619 96.989 32.5179 97.1657C32.4726 97.0887 32.4115 97.0003 32.3345 96.9007C32.262 96.801 32.1873 96.7172 32.1103 96.6493C32.5315 96.4998 32.937 96.3118 33.3265 96.0853C33.7206 95.8588 34.0785 95.6006 34.4001 95.3107C34.7217 95.0208 34.989 94.7059 35.2019 94.3662ZM35.4873 94.6108C35.8859 95.0819 36.3321 95.4669 36.8259 95.7659C37.3242 96.0649 37.8632 96.3254 38.4431 96.5473C38.366 96.6153 38.289 96.6991 38.212 96.7987C38.135 96.8939 38.0739 96.989 38.0286 97.0841C37.6299 96.9029 37.254 96.7104 36.9006 96.5066C36.5473 96.2982 36.2121 96.0604 35.895 95.7931C35.5779 95.5258 35.2699 95.2133 34.9709 94.8554L35.4873 94.6108Z" fill="#424242"/>
</g>
<defs>
<clipPath id="clip0_154_6345">
<rect width="200" height="200" fill="white" transform="translate(0.963013 0.527344)"/>
</clipPath>
</defs>
</svg>
