<svg width="596" height="240" viewBox="0 0 596 240" fill="none" xmlns="http://www.w3.org/2000/svg">
<path d="M3.38922 46.6094V12.9816H13.7658C15.5433 12.9816 17.1446 13.4139 18.5698 14.2786C20.011 15.1273 21.1559 16.2883 22.0046 17.7615C22.8533 19.2347 23.2777 20.8841 23.2777 22.7096C23.2777 24.5672 22.8453 26.2325 21.9806 27.7057C21.1159 29.179 19.9629 30.3399 18.5217 31.1886C17.0805 32.0373 15.4952 32.4617 13.7658 32.4617H5.98336V46.6094H3.38922ZM5.98336 29.8675H13.5977C14.8947 29.8675 16.0797 29.5553 17.1526 28.9308C18.2255 28.2902 19.0822 27.4255 19.7227 26.3366C20.3633 25.2477 20.6835 24.0067 20.6835 22.6135C20.6835 21.2364 20.3633 20.0034 19.7227 18.9145C19.0822 17.8096 18.2255 16.9449 17.1526 16.3203C16.0797 15.6798 14.8947 15.3595 13.5977 15.3595H5.98336V29.8675ZM28.3004 46.6094V10.5796H30.8946V46.6094H28.3004ZM56.7591 22.5895H59.3532V46.6094H56.7591L56.687 41.6853C55.8704 43.3507 54.7014 44.6958 53.1801 45.7206C51.6749 46.7295 49.8654 47.2339 47.7516 47.2339C46.0062 47.2339 44.3648 46.9056 42.8276 46.2491C41.3063 45.5765 39.9612 44.6638 38.7922 43.5108C37.6233 42.3418 36.7105 40.9967 36.054 39.4755C35.3974 37.9382 35.0692 36.2888 35.0692 34.5274C35.0692 32.7819 35.3894 31.1486 36.0299 29.6273C36.6865 28.1061 37.5912 26.769 38.7442 25.616C39.8971 24.4471 41.2343 23.5423 42.7555 22.9018C44.2768 22.2452 45.9021 21.917 47.6315 21.917C49.7613 21.917 51.6028 22.4374 53.1561 23.4783C54.7254 24.5031 55.9504 25.8482 56.8311 27.5136L56.7591 22.5895ZM47.7276 44.6878C49.5691 44.6878 51.1464 44.2394 52.4595 43.3427C53.7886 42.4299 54.8055 41.2049 55.5101 39.6676C56.2146 38.1304 56.5669 36.441 56.5669 34.5994C56.5669 32.7099 56.2066 31.0045 55.486 29.4832C54.7815 27.9459 53.7646 26.7289 52.4355 25.8322C51.1224 24.9194 49.5531 24.4631 47.7276 24.4631C45.8701 24.4631 44.1807 24.9194 42.6594 25.8322C41.1542 26.745 39.9532 27.97 39.0565 29.5072C38.1597 31.0445 37.7113 32.7419 37.7113 34.5994C37.7113 36.489 38.1677 38.1944 39.0805 39.7157C40.0092 41.2369 41.2343 42.4459 42.7555 43.3427C44.2768 44.2394 45.9341 44.6878 47.7276 44.6878ZM84.7516 31.8372V46.6094H82.1575V32.2455C82.1575 30.8203 81.8132 29.5233 81.1246 28.3543C80.436 27.1853 79.5073 26.2565 78.3383 25.568C77.1693 24.8794 75.8723 24.5351 74.4471 24.5351C73.0379 24.5351 71.7489 24.8794 70.5799 25.568C69.4109 26.2565 68.4741 27.1853 67.7696 28.3543C67.081 29.5233 66.7367 30.8203 66.7367 32.2455V46.6094H64.1426V22.5895H66.7367V26.2646C67.6014 24.9355 68.7464 23.8786 70.1715 23.0939C71.5967 22.3093 73.15 21.917 74.8314 21.917C76.6729 21.917 78.3383 22.3653 79.8275 23.2621C81.3328 24.1428 82.5258 25.3358 83.4065 26.841C84.3032 28.3463 84.7516 30.0117 84.7516 31.8372ZM89.9451 46.6094V12.9816H110.218V15.5757H92.5393V27.2974H107.336V29.8916H92.5393V44.0152H110.218V46.6094H89.9451ZM140.95 12.9816V15.5757H129.036V46.6094H126.442V15.5757H114.552V12.9816H140.95Z" fill="black"/>
<path d="M3.38922 137.188V103.56H14.1501C15.9436 103.56 17.5609 104 19.0021 104.881C20.4433 105.746 21.5883 106.922 22.437 108.412C23.3017 109.885 23.734 111.542 23.734 113.384C23.734 115.241 23.2937 116.915 22.4129 118.404C21.5482 119.893 20.3873 121.07 18.9301 121.935C17.4889 122.8 15.8956 123.232 14.1501 123.232H6.752V137.188H3.38922ZM6.752 119.869H13.8859C15.0709 119.869 16.1518 119.581 17.1286 119.004C18.1214 118.412 18.906 117.619 19.4825 116.627C20.075 115.618 20.3713 114.481 20.3713 113.216C20.3713 111.951 20.075 110.822 19.4825 109.829C18.906 108.82 18.1214 108.027 17.1286 107.451C16.1518 106.858 15.0709 106.562 13.8859 106.562H6.752V119.869ZM28.6288 137.188V101.158H31.9916V137.188H28.6288ZM57.3337 113.168H60.6965V137.188H57.3337L57.2136 132.72C56.4289 134.241 55.332 135.474 53.9229 136.419C52.5137 137.348 50.8323 137.812 48.8787 137.812C47.1172 137.812 45.4679 137.484 43.9306 136.827C42.3933 136.155 41.0402 135.234 39.8713 134.065C38.7023 132.896 37.7895 131.543 37.133 130.006C36.4764 128.468 36.1482 126.819 36.1482 125.057C36.1482 123.328 36.4684 121.703 37.109 120.181C37.7655 118.66 38.6623 117.323 39.7992 116.17C40.9521 115.017 42.2812 114.12 43.7865 113.48C45.3077 112.823 46.9331 112.495 48.6625 112.495C50.6642 112.495 52.4096 112.975 53.8988 113.936C55.3881 114.881 56.5731 116.122 57.4538 117.659L57.3337 113.168ZM48.8066 134.545C50.5201 134.545 51.9933 134.129 53.2263 133.296C54.4593 132.448 55.4041 131.311 56.0606 129.885C56.7332 128.46 57.0695 126.891 57.0695 125.178C57.0695 123.416 56.7332 121.831 56.0606 120.422C55.3881 118.996 54.4353 117.868 53.2023 117.035C51.9693 116.202 50.504 115.786 48.8066 115.786C47.1092 115.786 45.556 116.21 44.1468 117.059C42.7536 117.892 41.6407 119.02 40.808 120.446C39.9914 121.871 39.583 123.448 39.583 125.178C39.583 126.923 40.0074 128.508 40.8561 129.934C41.7048 131.343 42.8257 132.464 44.2188 133.296C45.628 134.129 47.1573 134.545 48.8066 134.545ZM86.4484 122.319V137.188H83.0856V122.992C83.0856 121.679 82.7653 120.486 82.1248 119.413C81.4843 118.34 80.6276 117.483 79.5547 116.843C78.4818 116.202 77.2888 115.882 75.9757 115.882C74.6787 115.882 73.4857 116.202 72.3968 116.843C71.3239 117.483 70.4672 118.34 69.8266 119.413C69.1861 120.486 68.8658 121.679 68.8658 122.992V137.188H65.5031V113.168H68.8658V116.482C69.7145 115.265 70.8195 114.297 72.1806 113.576C73.5417 112.855 75.0229 112.495 76.6243 112.495C78.4338 112.495 80.0831 112.935 81.5723 113.816C83.0616 114.697 84.2466 115.882 85.1273 117.371C86.008 118.86 86.4484 120.51 86.4484 122.319ZM91.5871 137.188V103.56H112.052V106.922H94.9499V117.491H109.098V120.854H94.9499V133.825H112.052V137.188H91.5871ZM142.78 103.56V106.922H131.25V137.188H127.888V106.922H116.382V103.56H142.78Z" fill="black"/>
<path d="M3.38922 227.771V194.144H14.4864C16.2959 194.144 17.9212 194.584 19.3624 195.465C20.8196 196.346 21.9726 197.538 22.8213 199.044C23.686 200.533 24.1184 202.198 24.1184 204.04C24.1184 205.913 23.678 207.603 22.7973 209.108C21.9325 210.597 20.7636 211.782 19.2904 212.663C17.8332 213.528 16.2318 213.96 14.4864 213.96H7.42455V227.771H3.38922ZM7.42455 209.925H14.1261C15.215 209.925 16.2078 209.661 17.1046 209.132C18.0173 208.588 18.7379 207.859 19.2663 206.946C19.8108 206.018 20.083 204.977 20.083 203.824C20.083 202.655 19.8108 201.614 19.2663 200.701C18.7379 199.772 18.0173 199.044 17.1046 198.515C16.2078 197.971 15.215 197.699 14.1261 197.699H7.42455V209.925ZM28.8634 227.771V191.742H32.8987V227.771H28.8634ZM57.7458 203.752H61.7811V227.771H57.7458L57.5776 223.712C56.825 225.105 55.7842 226.234 54.4551 227.099C53.142 227.964 51.5727 228.396 49.7472 228.396C47.9857 228.396 46.3363 228.068 44.7991 227.411C43.2618 226.739 41.9007 225.818 40.7157 224.649C39.5467 223.464 38.634 222.103 37.9774 220.566C37.3209 219.028 36.9926 217.371 36.9926 215.593C36.9926 213.88 37.3129 212.263 37.9534 210.741C38.5939 209.22 39.4827 207.891 40.6196 206.754C41.7726 205.601 43.1017 204.704 44.6069 204.064C46.1122 203.407 47.7295 203.079 49.4589 203.079C51.3485 203.079 53.0059 203.527 54.431 204.424C55.8562 205.305 57.0092 206.45 57.8899 207.859L57.7458 203.752ZM49.6751 224.481C51.2604 224.481 52.6295 224.096 53.7825 223.328C54.9515 222.543 55.8482 221.486 56.4727 220.157C57.1133 218.828 57.4335 217.363 57.4335 215.762C57.4335 214.128 57.1133 212.655 56.4727 211.342C55.8322 210.013 54.9274 208.964 53.7585 208.195C52.6055 207.411 51.2444 207.018 49.6751 207.018C48.0898 207.018 46.6486 207.411 45.3515 208.195C44.0545 208.98 43.0216 210.037 42.253 211.366C41.5003 212.679 41.124 214.144 41.124 215.762C41.124 217.379 41.5164 218.852 42.301 220.181C43.0857 221.494 44.1265 222.543 45.4236 223.328C46.7207 224.096 48.1378 224.481 49.6751 224.481ZM87.8156 212.831V227.771H83.7803V213.72C83.7803 212.503 83.4841 211.398 82.8916 210.405C82.2991 209.412 81.5064 208.628 80.5136 208.051C79.5208 207.459 78.4159 207.162 77.1989 207.162C75.9979 207.162 74.8929 207.459 73.8841 208.051C72.8913 208.628 72.0986 209.412 71.5061 210.405C70.9137 211.398 70.6174 212.503 70.6174 213.72V227.771H66.5821V203.752H70.6174V206.754C71.4661 205.633 72.539 204.744 73.8361 204.088C75.1331 203.415 76.5423 203.079 78.0636 203.079C79.8571 203.079 81.4904 203.519 82.9636 204.4C84.4529 205.265 85.6298 206.434 86.4945 207.907C87.3753 209.38 87.8156 211.022 87.8156 212.831ZM92.9007 227.771V194.144H113.534V198.179H96.936V207.739H110.531V211.774H96.936V223.736H113.534V227.771H92.9007ZM144.234 194.144V198.179H133.041V227.771H129.006V198.179H117.836V194.144H144.234Z" fill="black"/>
<path d="M223.571 46.6094V12.9816H235.149C236.958 12.9816 238.592 13.4299 240.049 14.3267C241.522 15.2234 242.691 16.4324 243.556 17.9537C244.437 19.4749 244.877 21.1563 244.877 22.9979C244.877 24.8714 244.429 26.5688 243.532 28.0901C242.651 29.5953 241.474 30.7963 240.001 31.693C238.528 32.5898 236.91 33.0382 235.149 33.0382H228.567V46.6094H223.571ZM228.567 28.042H234.645C235.605 28.042 236.478 27.8018 237.263 27.3214C238.063 26.841 238.696 26.2005 239.16 25.3998C239.641 24.5992 239.881 23.6944 239.881 22.6856C239.881 21.6768 239.641 20.772 239.16 19.9714C238.696 19.1547 238.063 18.5141 237.263 18.0498C236.478 17.5694 235.605 17.3292 234.645 17.3292H228.567V28.042ZM249.468 46.6094V10.5796H254.464V46.6094H249.468ZM278.57 22.5895H283.566V46.6094H278.546L278.354 43.1265C277.649 44.3595 276.697 45.3523 275.496 46.105C274.295 46.8576 272.877 47.2339 271.244 47.2339C269.483 47.2339 267.825 46.9056 266.272 46.2491C264.719 45.5765 263.349 44.6478 262.164 43.4628C260.996 42.2778 260.083 40.9167 259.426 39.3794C258.77 37.8261 258.441 36.1607 258.441 34.3833C258.441 32.6699 258.762 31.0605 259.402 29.5553C260.043 28.034 260.931 26.7049 262.068 25.568C263.205 24.431 264.518 23.5423 266.008 22.9018C267.513 22.2452 269.122 21.917 270.836 21.917C272.581 21.917 274.118 22.3173 275.447 23.118C276.793 23.9026 277.906 24.9114 278.786 26.1445L278.57 22.5895ZM271.124 42.4059C272.533 42.4059 273.766 42.0616 274.823 41.373C275.88 40.6685 276.697 39.7237 277.273 38.5387C277.865 37.3537 278.162 36.0406 278.162 34.5994C278.162 33.1422 277.865 31.8212 277.273 30.6362C276.68 29.4512 275.856 28.5144 274.799 27.8258C273.758 27.1213 272.533 26.769 271.124 26.769C269.731 26.769 268.458 27.1213 267.305 27.8258C266.152 28.5304 265.239 29.4752 264.566 30.6602C263.894 31.8452 263.558 33.1583 263.558 34.5994C263.558 36.0567 263.902 37.3777 264.591 38.5627C265.295 39.7317 266.216 40.6685 267.353 41.373C268.506 42.0616 269.763 42.4059 271.124 42.4059ZM309.977 31.5489V46.6094H304.981V32.7739C304.981 31.7011 304.717 30.7242 304.188 29.8435C303.676 28.9628 302.979 28.2662 302.099 27.7538C301.234 27.2254 300.257 26.9611 299.168 26.9611C298.111 26.9611 297.143 27.2254 296.262 27.7538C295.381 28.2662 294.677 28.9628 294.148 29.8435C293.62 30.7242 293.355 31.7011 293.355 32.7739V46.6094H288.359V22.5895H293.355V25.1356C294.188 24.1428 295.213 23.3582 296.43 22.7817C297.647 22.2052 298.96 21.917 300.369 21.917C302.147 21.917 303.764 22.3493 305.221 23.214C306.678 24.0787 307.831 25.2397 308.68 26.6969C309.545 28.1541 309.977 29.7715 309.977 31.5489ZM314.959 46.6094V12.9816H335.833V17.9777H319.956V26.0964H332.734V31.0925H319.956V41.6132H335.833V46.6094H314.959ZM366.574 12.9816V17.9777H355.861V46.6094H350.865V17.9777H340.176V12.9816H366.574Z" fill="black"/>
<path d="M223.571 227.771V194.144H235.966C237.807 194.144 239.464 194.608 240.938 195.537C242.427 196.466 243.612 197.707 244.493 199.26C245.373 200.797 245.814 202.495 245.814 204.352C245.814 206.242 245.365 207.963 244.469 209.516C243.572 211.054 242.371 212.279 240.866 213.191C239.376 214.104 237.743 214.561 235.966 214.561H230.201V227.771H223.571ZM230.201 207.931H235.221C235.958 207.931 236.622 207.755 237.215 207.403C237.807 207.034 238.28 206.546 238.632 205.937C239 205.313 239.184 204.624 239.184 203.872C239.184 203.135 239 202.463 238.632 201.854C238.28 201.23 237.807 200.733 237.215 200.365C236.622 199.997 235.958 199.812 235.221 199.812H230.201V207.931ZM250.078 227.771V191.742H256.707V227.771H250.078ZM279.624 203.752H286.254V227.771H279.6L279.288 225.273C278.664 226.202 277.863 226.955 276.886 227.531C275.909 228.108 274.764 228.396 273.451 228.396C271.658 228.396 269.984 228.06 268.431 227.387C266.878 226.715 265.509 225.786 264.324 224.601C263.139 223.416 262.21 222.047 261.537 220.493C260.881 218.924 260.553 217.243 260.553 215.449C260.553 213.736 260.865 212.135 261.489 210.645C262.114 209.156 262.995 207.843 264.132 206.706C265.268 205.569 266.574 204.68 268.047 204.04C269.536 203.399 271.137 203.079 272.851 203.079C274.324 203.079 275.645 203.391 276.814 204.016C277.999 204.64 279.032 205.433 279.913 206.394L279.624 203.752ZM273.283 222.031C274.372 222.031 275.357 221.751 276.238 221.19C277.118 220.63 277.815 219.877 278.327 218.932C278.84 217.971 279.096 216.915 279.096 215.762C279.096 214.593 278.84 213.536 278.327 212.591C277.815 211.646 277.118 210.894 276.238 210.333C275.357 209.773 274.372 209.492 273.283 209.492C272.178 209.492 271.177 209.773 270.281 210.333C269.384 210.894 268.671 211.654 268.143 212.615C267.614 213.56 267.35 214.609 267.35 215.762C267.35 216.915 267.614 217.971 268.143 218.932C268.687 219.877 269.408 220.63 270.305 221.19C271.201 221.751 272.194 222.031 273.283 222.031ZM313.395 212.495V227.771H306.765V214.32C306.765 213.472 306.557 212.711 306.141 212.038C305.74 211.35 305.196 210.805 304.507 210.405C303.835 210.005 303.082 209.805 302.25 209.805C301.417 209.805 300.656 210.005 299.968 210.405C299.279 210.805 298.735 211.35 298.334 212.038C297.934 212.711 297.734 213.472 297.734 214.32V227.771H291.104L291.08 203.752H297.71L297.734 205.529C298.534 204.76 299.471 204.16 300.544 203.728C301.633 203.295 302.778 203.079 303.979 203.079C305.724 203.079 307.302 203.503 308.711 204.352C310.136 205.201 311.273 206.338 312.122 207.763C312.97 209.172 313.395 210.749 313.395 212.495ZM318.243 227.771V194.144H339.525V200.773H324.873V206.442H336.306V213.071H324.873V221.142H339.525V227.771H318.243ZM370.258 194.144V200.773H360.361V227.771H353.732V200.773H343.836V194.144H370.258Z" fill="black"/>
<path d="M223.571 137.188V103.56H235.581C237.407 103.56 239.056 104.016 240.529 104.929C242.019 105.842 243.196 107.067 244.06 108.604C244.925 110.141 245.357 111.831 245.357 113.672C245.357 115.562 244.909 117.275 244.012 118.812C243.132 120.334 241.947 121.551 240.457 122.463C238.968 123.36 237.343 123.808 235.581 123.808H229.432V137.188H223.571ZM229.432 117.948H234.957C235.789 117.948 236.55 117.739 237.239 117.323C237.927 116.907 238.472 116.346 238.872 115.642C239.288 114.937 239.497 114.152 239.497 113.288C239.497 112.407 239.288 111.614 238.872 110.91C238.472 110.205 237.927 109.645 237.239 109.228C236.55 108.812 235.789 108.604 234.957 108.604H229.432V117.948ZM249.749 137.188V101.158H255.61V137.188H249.749ZM279.12 113.168H284.98V137.188H279.12L278.855 134.209C278.199 135.282 277.326 136.155 276.237 136.827C275.164 137.484 273.891 137.812 272.418 137.812C270.641 137.812 268.975 137.476 267.422 136.803C265.869 136.131 264.499 135.202 263.314 134.017C262.145 132.832 261.225 131.463 260.552 129.909C259.896 128.356 259.567 126.691 259.567 124.913C259.567 123.2 259.88 121.591 260.504 120.085C261.145 118.58 262.033 117.259 263.17 116.122C264.307 114.985 265.62 114.096 267.11 113.456C268.599 112.815 270.2 112.495 271.914 112.495C273.499 112.495 274.916 112.847 276.165 113.552C277.43 114.257 278.503 115.153 279.384 116.242L279.12 113.168ZM272.274 132.167C273.523 132.167 274.628 131.855 275.589 131.231C276.549 130.606 277.302 129.765 277.846 128.708C278.391 127.636 278.663 126.459 278.663 125.178C278.663 123.88 278.391 122.704 277.846 121.647C277.302 120.574 276.541 119.725 275.565 119.101C274.604 118.476 273.507 118.164 272.274 118.164C271.041 118.164 269.912 118.484 268.887 119.125C267.878 119.749 267.07 120.59 266.461 121.647C265.869 122.704 265.572 123.88 265.572 125.178C265.572 126.475 265.877 127.652 266.485 128.708C267.094 129.765 267.902 130.606 268.911 131.231C269.936 131.855 271.057 132.167 272.274 132.167ZM311.769 122.007V137.188H305.908V123.544C305.908 122.599 305.676 121.743 305.211 120.974C304.747 120.189 304.123 119.573 303.338 119.125C302.569 118.66 301.713 118.428 300.768 118.428C299.823 118.428 298.958 118.66 298.174 119.125C297.405 119.573 296.788 120.189 296.324 120.974C295.876 121.743 295.652 122.599 295.652 123.544V137.188H289.791L289.767 113.168H295.628L295.652 115.305C296.468 114.441 297.445 113.76 298.582 113.264C299.719 112.751 300.944 112.495 302.257 112.495C304.002 112.495 305.596 112.927 307.037 113.792C308.478 114.641 309.623 115.786 310.472 117.227C311.337 118.652 311.769 120.245 311.769 122.007ZM316.695 137.188V103.56H337.785V109.421H322.556V116.242H334.638V122.103H322.556V131.327H337.785V137.188H316.695ZM368.522 103.56V109.421H358.241V137.188H352.38V109.421H342.1V103.56H368.522Z" fill="black"/>
<path d="M445.755 46.6094V12.9816H458.437C460.279 12.9816 461.944 13.454 463.434 14.3987C464.939 15.3275 466.132 16.5765 467.013 18.1458C467.893 19.6991 468.334 21.4045 468.334 23.2621C468.334 25.1516 467.877 26.8731 466.964 28.4263C466.068 29.9796 464.867 31.2207 463.361 32.1494C461.856 33.0782 460.215 33.5426 458.437 33.5426H452.961V46.6094H445.755ZM452.961 26.3366H457.621C458.261 26.3366 458.846 26.1765 459.374 25.8562C459.903 25.5199 460.327 25.0796 460.647 24.5351C460.968 23.9907 461.128 23.3902 461.128 22.7336C461.128 22.0771 460.968 21.4766 460.647 20.9321C460.327 20.3877 459.903 19.9553 459.374 19.6351C458.846 19.2988 458.261 19.1307 457.621 19.1307H452.961V26.3366ZM472.449 46.6094V10.5796H479.655V46.6094H472.449ZM502.127 22.5895H509.333V46.6094H502.103L501.767 44.4476C501.175 45.2803 500.422 45.9528 499.509 46.4653C498.612 46.9777 497.564 47.2339 496.363 47.2339C494.569 47.2339 492.888 46.8976 491.318 46.2251C489.765 45.5525 488.396 44.6237 487.211 43.4388C486.026 42.2378 485.097 40.8606 484.425 39.3073C483.768 37.738 483.44 36.0567 483.44 34.2632C483.44 32.5498 483.752 30.9484 484.377 29.4592C485.001 27.97 485.874 26.6649 486.995 25.544C488.132 24.407 489.437 23.5183 490.91 22.8778C492.399 22.2372 493.993 21.917 495.69 21.917C497.067 21.917 498.316 22.2052 499.437 22.7817C500.574 23.3421 501.583 24.0467 502.464 24.8954L502.127 22.5895ZM496.17 40.3162C497.163 40.3162 498.068 40.06 498.885 39.5475C499.701 39.0351 500.35 38.3465 500.83 37.4818C501.311 36.6171 501.551 35.6563 501.551 34.5994C501.551 33.5426 501.311 32.5818 500.83 31.7171C500.35 30.8523 499.701 30.1638 498.885 29.6514C498.068 29.1389 497.163 28.8827 496.17 28.8827C495.178 28.8827 494.273 29.1389 493.456 29.6514C492.655 30.1638 492.015 30.8523 491.535 31.7171C491.07 32.5818 490.838 33.5426 490.838 34.5994C490.838 35.6563 491.078 36.6171 491.559 37.4818C492.039 38.3465 492.679 39.0351 493.48 39.5475C494.297 40.06 495.194 40.3162 496.17 40.3162ZM536.71 31.2607V46.6094H529.504V33.2784C529.504 32.5257 529.32 31.8452 528.951 31.2367C528.583 30.6122 528.095 30.1237 527.486 29.7715C526.878 29.4032 526.197 29.219 525.445 29.219C524.692 29.219 524.003 29.4032 523.379 29.7715C522.77 30.1237 522.282 30.6122 521.914 31.2367C521.561 31.8452 521.385 32.5257 521.385 33.2784V46.6094H514.179L514.155 22.5895H521.361L521.385 24.1028C522.186 23.4142 523.099 22.8778 524.123 22.4934C525.148 22.1091 526.229 21.917 527.366 21.917C529.096 21.917 530.665 22.3413 532.074 23.19C533.483 24.0227 534.604 25.1436 535.437 26.5528C536.286 27.962 536.71 29.5313 536.71 31.2607ZM541.506 46.6094V12.9816H562.932V20.1875H548.712V24.9915H559.665V32.1975H548.712V39.4034H562.932V46.6094H541.506ZM593.661 12.9816V20.1875H584.053V46.6094H576.847V20.1875H567.239V12.9816H593.661Z" fill="black"/>
</svg>
