<svg width="490" height="252" viewBox="0 0 490 252" fill="none" xmlns="http://www.w3.org/2000/svg">
<path d="M38.0344 25.6221V20.3858H11.2763V25.6221H38.0344ZM38.0344 32.8761V27.5437H11.2763V32.8761H38.0344ZM40.3883 18.3682V34.8458H9.01841V18.3682H40.3883ZM25.6882 56.4156H45.2404V58.5294H3.83012V56.4156H23.3823V50.0744H9.30665V48.0567H23.3823V42.5802H10.5557C8.92233 44.742 7.14486 46.7116 5.36739 48.2489C4.93503 47.8165 3.97424 47.0959 3.34972 46.7116C7.04878 43.9733 10.4116 39.6497 12.4773 35.2301L14.7832 35.8546C14.0145 37.3919 13.1018 38.9772 12.093 40.4664H23.3823V36.0468H25.6882V40.4664H42.3099V42.5802H25.6882V48.0567H40.3883V50.0744H25.6882V56.4156ZM96.0183 22.1633L94.5291 23.6045C93.3761 21.9711 90.9742 19.7613 88.8124 18.224L90.2536 16.975C92.3673 18.4642 94.8654 20.626 96.0183 22.1633ZM70.8936 47.3841L71.2298 49.5459C65.8494 51.3234 60.2287 53.1489 56.0493 54.446L55.4248 52.1881C57.2983 51.6597 59.6042 50.9871 62.1503 50.1704V35.9026H56.3375V33.7409H62.1503V22.0192H55.9532V19.8093H70.3171V22.0192H64.3602V33.7409H69.5484V35.9026H64.3602V49.4498L70.8936 47.3841ZM96.1624 30.3781L98.1801 31.483C95.682 35.086 92.2712 39.6017 89.533 42.5321C91.7908 47.5283 95.0095 51.2754 99.8615 54.7342C99.285 55.1666 98.6605 55.8872 98.3242 56.4636C91.8869 51.7558 88.2359 46.5194 85.978 38.737V56.4636C85.978 58.2892 85.4016 58.9617 84.2966 59.3941C83.0476 59.7784 81.0299 59.8264 77.1387 59.8264C76.9946 59.2019 76.6103 58.2411 76.274 57.6166C79.3485 57.7127 81.8947 57.6646 82.6152 57.6166C83.3839 57.5686 83.7202 57.3284 83.7202 56.5117V42.9645C79.3966 47.3361 74.8809 51.7558 71.422 55.1185L69.8847 53.245C73.2955 50.2185 78.724 45.1743 83.7202 40.3223V27.1594H71.6142V24.9976H83.7202V16.3024H85.978V24.9976H99.0448V27.1594H85.978V28.9369C86.6506 33.5007 87.4673 37.2958 88.7163 40.6105C91.3104 37.584 94.3369 33.4046 96.1624 30.3781ZM72.5269 31.5791L74.3524 30.6663C76.7064 33.5487 79.0603 37.3438 80.0691 39.8419L78.0995 40.8507C77.1868 38.3527 74.8328 34.4615 72.5269 31.5791ZM121.047 22.1633L119.173 23.3162C118.357 21.5868 116.82 18.9446 115.426 17.0711L117.3 16.1103C118.693 18.0319 120.278 20.4819 121.047 22.1633ZM129.118 24.5172V26.5829H109.566V24.5172H129.118ZM126.908 36.8634V38.8811H111.679V36.8634H126.908ZM124.89 45.1743H114.225V54.6862H124.89V45.1743ZM127.004 43.1086V56.7519H114.225V59.1539H112.16V43.1086H127.004ZM111.679 32.6359V30.6663H127.052V32.6359H111.679ZM151.84 33.2605V35.5183H141.368V59.7784H139.062V35.5183H129.022V33.2605H139.062V17.1672H141.368V33.2605H151.84ZM184.123 25.7663V28.9369H196.613V25.7663H184.123ZM184.123 21.0103V24.0368H196.613V21.0103H184.123ZM204.396 38.4968V40.3703H161.833V38.4968H181.817V35.4703H165.628V33.6928H181.817V30.7144H166.685V28.9369H181.817V25.7663H161.833V24.0368H181.817V21.0103H166.973V19.2809H181.817V16.2064H184.123V19.2809H198.871V24.0368H204.348V25.7663H198.871V30.7144H184.123V33.6928H200.793V35.4703H184.123V38.4968H204.396ZM169.519 49.1136V52.1401H181.865V49.1136H169.519ZM169.519 44.5018V47.4802H181.865V44.5018H169.519ZM196.71 47.4802V44.5018H184.027V47.4802H196.71ZM196.71 52.1401V49.1136H184.027V52.1401H196.71ZM199.015 53.8215H167.261V42.8684H199.015V53.8215ZM161.833 56.4636H204.444V58.3372H161.833V56.4636Z" fill="black"/>
<path d="M36.8814 115.674V111.494H12.189V115.674H36.8814ZM36.8814 122.688V118.412H12.189V122.688H36.8814ZM40.4844 108.612V125.57H8.68213V108.612H40.4844ZM26.4088 146.131H45.3845V149.302H3.73404V146.131H22.7578V140.943H9.35469V138.06H22.7578V133.545H10.988C9.40273 135.562 7.6733 137.388 6.03995 138.877C5.36739 138.204 3.9262 137.1 3.01345 136.619C6.56838 133.929 9.88312 129.797 11.8047 125.618L15.3116 126.579C14.6871 127.876 13.9185 129.221 13.1498 130.47H22.7578V126.627H26.4088V130.47H42.358V133.545H26.4088V138.06H40.3883V140.943H26.4088V146.131ZM96.787 112.215L94.6252 114.377C93.4722 112.791 91.0702 110.582 88.9565 109.092L91.0222 107.219C93.0879 108.66 95.586 110.774 96.787 112.215ZM70.7494 137.388L71.2779 140.654C65.9455 142.336 60.2768 144.113 55.9532 145.554L55.1846 142.096C56.914 141.615 59.0758 140.991 61.4778 140.27V127.011H56.1454V123.696H61.4778V113.272H55.713V109.909H70.3651V113.272H64.8406V123.696H69.6926V127.011H64.8406V139.261L70.7494 137.388ZM95.4419 121.006L98.5644 122.688C96.0664 126.146 92.7997 130.326 90.2055 133.016C92.3673 137.676 95.4419 141.231 100.006 144.402C99.1889 145.026 98.2282 146.083 97.7478 147.092C92.3673 143.104 88.9084 138.685 86.6506 132.632V146.083C86.6506 148.245 86.0741 149.254 84.777 149.83C83.3839 150.503 81.2221 150.599 77.475 150.599C77.2828 149.638 76.7064 148.101 76.1779 147.14C78.9642 147.236 81.4143 147.188 82.1349 147.188C82.9035 147.14 83.1917 146.9 83.1917 146.083V134.746C79.2525 138.733 75.1691 142.672 71.9024 145.747L69.6926 142.672C72.9593 139.982 78.2436 135.274 83.1917 130.806V118.316H71.5661V115.001H83.1917V106.69H86.6506V115.001H99.237V118.316H86.6506V120.045C87.2751 123.889 87.9957 127.203 89.0045 130.086C91.3104 127.347 93.8565 123.744 95.4419 121.006ZM72.2387 122.592L75.025 121.294C77.1387 124.033 79.3966 127.732 80.2613 130.182L77.3309 131.575C76.4662 129.173 74.3044 125.33 72.2387 122.592ZM121.527 112.647L118.645 114.281C117.924 112.551 116.387 109.861 115.138 107.891L117.828 106.498C119.27 108.468 120.807 110.966 121.527 112.647ZM129.166 114.809V117.739H109.421V114.809H129.166ZM127.052 127.347V130.182H111.535V127.347H127.052ZM123.977 136.715H115.042V144.642H123.977V136.715ZM127.1 133.737V147.62H115.042V149.878H111.919V133.737H127.1ZM111.535 123.937V121.102H127.148V123.937H111.535ZM151.937 123.216V126.723H142.088V150.551H138.485V126.723H129.07V123.216H138.485V107.555H142.088V123.216H151.937ZM161.689 149.157V146.611H204.54V149.157H161.689ZM195.701 137.724V135.274H184.556V137.724H195.701ZM195.701 142.288V139.742H184.556V142.288H195.701ZM170.576 139.742V142.288H181.241V139.742H170.576ZM170.576 135.274V137.724H181.241V135.274H170.576ZM167.165 133.208H199.304V144.353H167.165V133.208ZM184.652 116.539V119.181H195.653V116.539H184.652ZM184.652 111.831V114.281H195.653V111.831H184.652ZM184.652 128.596H204.54V131.095H161.689V128.596H181.097V126.098H165.388V123.841H181.097V121.391H166.541V119.181H181.097V116.539H161.785V114.281H181.097V111.831H166.829V109.621H181.097V106.642H184.652V109.621H199.208V114.281H204.396V116.539H199.208V121.391H184.652V123.841H201.081V126.098H184.652V128.596Z" fill="black"/>
<path d="M291.54 46.0912H322.766V49.6942H291.54V46.0912ZM292.645 38.4049H324.879V42.248H292.645V38.4049ZM285.727 54.0658H327.906V58.0051H285.727V54.0658ZM304.511 34.898H309.218V56.756H304.511V34.898ZM295.047 26.8753V30.4303H318.346V26.8753H295.047ZM295.047 20.0537V23.5125H318.346V20.0537H295.047ZM290.579 16.4987H323.006V33.9372H290.579V16.4987ZM293.413 33.793L297.881 35.0421C297.144 36.6114 296.264 38.1486 295.239 39.6539C294.246 41.1591 293.189 42.5683 292.068 43.8814C290.947 45.1945 289.81 46.3474 288.657 47.3402C288.369 47.052 288.001 46.7317 287.553 46.3794C287.104 46.0272 286.64 45.6909 286.159 45.3706C285.679 45.0183 285.247 44.7301 284.862 44.5059C286.592 43.1928 288.209 41.5915 289.714 39.7019C291.252 37.8124 292.485 35.8427 293.413 33.793ZM353.655 22.7919H381.806V26.9234H353.655V22.7919ZM365.137 14.7213H369.508V53.9217C369.508 55.1387 369.348 56.0835 369.028 56.756C368.74 57.4606 368.211 58.0051 367.443 58.3894C366.706 58.7417 365.729 58.9819 364.512 59.11C363.327 59.2381 361.806 59.3021 359.948 59.3021C359.884 58.8858 359.756 58.4214 359.564 57.909C359.404 57.3966 359.212 56.8681 358.988 56.3237C358.763 55.7792 358.555 55.3148 358.363 54.9305C359.644 54.9625 360.813 54.9786 361.87 54.9786C362.959 54.9786 363.695 54.9786 364.08 54.9786C364.432 54.9786 364.688 54.8985 364.848 54.7384C365.041 54.5782 365.137 54.306 365.137 53.9217V14.7213ZM351.637 50.3667C352.758 49.47 354.104 48.3811 355.673 47.1C357.242 45.819 358.907 44.4418 360.669 42.9686C362.43 41.4634 364.16 39.9581 365.857 38.4529L367.443 41.7196C365.265 43.9614 363.023 46.1873 360.717 48.3971C358.411 50.6069 356.297 52.5926 354.376 54.354L351.637 50.3667ZM354.184 31.1989L357.69 29.6136C358.363 30.5103 359.02 31.4871 359.66 32.544C360.333 33.5689 360.941 34.5937 361.486 35.6185C362.062 36.6114 362.478 37.5081 362.735 38.3088L358.94 40.0862C358.715 39.2856 358.347 38.3728 357.835 37.348C357.322 36.3231 356.746 35.2663 356.105 34.1774C355.465 33.0885 354.824 32.0956 354.184 31.1989ZM377.387 29.3734L381.326 31.4391C380.461 32.592 379.517 33.8091 378.492 35.0901C377.499 36.3391 376.506 37.5401 375.513 38.6931C374.552 39.814 373.64 40.8228 372.775 41.7196L369.604 39.8941C370.437 38.9653 371.334 37.8924 372.295 36.6754C373.255 35.4584 374.184 34.2094 375.081 32.9283C375.978 31.6152 376.746 30.4303 377.387 29.3734ZM371.478 17.4595L374.024 15.1056C375.049 15.7781 376.122 16.5948 377.243 17.5556C378.364 18.4844 379.212 19.3011 379.789 20.0056L377.099 22.6959C376.522 21.9272 375.689 21.0465 374.6 20.0537C373.544 19.0609 372.503 18.1961 371.478 17.4595ZM369.364 27.7881C369.845 30.8626 370.421 33.6169 371.094 36.0509C371.798 38.4849 372.663 40.6627 373.688 42.5843C374.713 44.5059 375.962 46.2513 377.435 47.8206C378.908 49.3579 380.637 50.8311 382.623 52.2403C382.111 52.6246 381.582 53.153 381.038 53.8256C380.493 54.4661 380.077 55.0906 379.789 55.6991C377.643 54.0978 375.785 52.4004 374.216 50.6069C372.679 48.8135 371.35 46.8438 370.229 44.6981C369.14 42.5523 368.211 40.1503 367.443 37.4921C366.706 34.8339 366.081 31.8234 365.569 28.4606L369.364 27.7881ZM337.562 17.6997H352.598V21.9272H337.562V17.6997ZM337.898 31.5832H351.83V35.7627H337.898V31.5832ZM336.937 50.0785C338.282 49.7262 339.82 49.3099 341.549 48.8295C343.279 48.317 345.104 47.7726 347.026 47.1961C348.979 46.5876 350.917 45.9951 352.838 45.4186L353.511 49.502C350.821 50.3667 348.099 51.2315 345.344 52.0962C342.622 52.9609 340.156 53.7455 337.946 54.4501L336.937 50.0785ZM343.038 19.5252H347.314V49.1657L343.038 49.9344V19.5252ZM393.48 29.2293H409.381V32.7842H393.48V29.2293ZM393.48 35.6666H409.285V39.1735H393.48V35.6666ZM391.366 22.7439H411.447V26.3949H391.366V22.7439ZM395.738 42.1519H409.429V56.4678H395.738V52.7207H405.442V45.851H395.738V42.1519ZM393.768 42.1519H397.66V58.6296H393.768V42.1519ZM396.891 16.2105L400.398 14.433C401.102 15.4259 401.791 16.5148 402.463 17.6997C403.136 18.8527 403.664 19.8775 404.049 20.7743L400.398 22.7919C400.045 21.9272 399.533 20.8704 398.861 19.6213C398.188 18.3403 397.531 17.2033 396.891 16.2105ZM411.303 31.0548H434.506V35.5225H411.303V31.0548ZM420.286 15.5379H424.994V59.2541H420.286V15.5379ZM462.994 42.2H467.269V51.8079H462.994V42.2ZM443.585 54.8344H487.109V57.909H443.585V54.8344ZM443.73 22.2635H486.869V24.9057H443.73V22.2635ZM443.634 36.5793H487.109V39.5578H443.634V36.5793ZM447.237 31.8234H483.747V34.4656H447.237V31.8234ZM448.822 17.5556H481.825V29.7097H448.534V27.1155H477.261V20.1498H448.822V17.5556ZM462.753 14.6252H467.365V37.9245H462.753V14.6252ZM453.53 48.301V50.4628H477.261V48.301H453.53ZM453.53 43.8333V45.9471H477.261V43.8333H453.53ZM449.11 41.4314H481.921V52.8648H449.11V41.4314Z" fill="black"/>
<path d="M291.54 137.196H322.862V141.711H291.54V137.196ZM292.789 129.461H325.023V134.265H292.789V129.461ZM285.583 144.978H328.098V149.926H285.583V144.978ZM303.982 126.531H309.939V148.389H303.982V126.531ZM295.911 118.7V121.294H317.241V118.7H295.911ZM295.911 112.119V114.617H317.241V112.119H295.911ZM290.243 107.747H323.198V125.666H290.243V107.747ZM292.741 125.186L298.361 126.819C297.657 128.388 296.808 129.926 295.815 131.431C294.823 132.936 293.766 134.345 292.645 135.658C291.524 136.971 290.419 138.108 289.33 139.069C288.946 138.717 288.465 138.317 287.889 137.868C287.312 137.42 286.72 136.987 286.111 136.571C285.503 136.123 284.958 135.77 284.478 135.514C286.143 134.265 287.713 132.728 289.186 130.902C290.691 129.045 291.876 127.139 292.741 125.186ZM353.559 113.8H381.999V119.085H353.559V113.8ZM364.656 106.066H370.229V144.69C370.229 146.131 370.053 147.268 369.7 148.101C369.38 148.933 368.804 149.574 367.971 150.022C367.138 150.503 366.081 150.823 364.8 150.983C363.551 151.143 362.03 151.223 360.237 151.223C360.173 150.679 360.028 150.07 359.804 149.398C359.58 148.757 359.324 148.101 359.036 147.428C358.779 146.755 358.523 146.163 358.267 145.651C359.452 145.683 360.541 145.715 361.534 145.747C362.559 145.747 363.247 145.731 363.599 145.699C363.984 145.699 364.256 145.635 364.416 145.506C364.576 145.346 364.656 145.09 364.656 144.738V106.066ZM351.349 140.991C352.47 140.19 353.815 139.197 355.385 138.012C356.954 136.827 358.619 135.53 360.381 134.121C362.142 132.712 363.872 131.319 365.569 129.942L367.491 134.025C365.409 136.139 363.247 138.252 361.005 140.366C358.795 142.48 356.73 144.402 354.808 146.131L351.349 140.991ZM353.847 123.216L358.267 121.246C358.907 122.111 359.532 123.056 360.141 124.081C360.749 125.074 361.309 126.066 361.822 127.059C362.334 128.02 362.719 128.885 362.975 129.653L358.219 131.863C358.027 131.095 357.69 130.214 357.21 129.221C356.73 128.196 356.201 127.171 355.625 126.146C355.048 125.09 354.456 124.113 353.847 123.216ZM376.762 121.054L381.758 123.6C380.894 124.753 379.965 125.922 378.972 127.107C378.011 128.292 377.05 129.413 376.09 130.47C375.161 131.527 374.28 132.472 373.448 133.304L369.46 130.998C370.261 130.134 371.11 129.141 372.006 128.02C372.903 126.867 373.768 125.682 374.6 124.465C375.465 123.216 376.186 122.079 376.762 121.054ZM371.67 109.285L374.841 106.306C375.866 106.979 376.938 107.779 378.059 108.708C379.18 109.605 380.029 110.405 380.605 111.11L377.243 114.473C376.698 113.704 375.882 112.823 374.793 111.831C373.736 110.838 372.695 109.989 371.67 109.285ZM369.989 119.997C370.501 122.912 371.094 125.522 371.766 127.828C372.471 130.102 373.319 132.151 374.312 133.977C375.337 135.77 376.538 137.404 377.915 138.877C379.324 140.35 380.974 141.743 382.863 143.056C382.191 143.569 381.518 144.241 380.846 145.074C380.173 145.875 379.661 146.675 379.308 147.476C377.227 145.907 375.417 144.241 373.88 142.48C372.375 140.718 371.078 138.797 369.989 136.715C368.9 134.601 367.971 132.247 367.202 129.653C366.434 127.027 365.777 124.097 365.233 120.862L369.989 119.997ZM337.322 108.804H352.598V114.137H337.322V108.804ZM337.562 122.64H351.926V127.924H337.562V122.64ZM336.601 141.135C337.978 140.783 339.531 140.366 341.261 139.886C343.022 139.373 344.88 138.829 346.834 138.252C348.787 137.676 350.725 137.1 352.646 136.523L353.511 141.663C350.853 142.528 348.147 143.393 345.392 144.257C342.638 145.122 340.108 145.923 337.802 146.659L336.601 141.135ZM342.366 110.966H347.746V140.462L342.366 141.375V110.966ZM393.24 120.718H409.477V125.042H393.24V120.718ZM393.24 127.203H409.381V131.575H393.24V127.203ZM391.174 113.992H411.495V118.556H391.174V113.992ZM395.978 133.881H409.525V148.485H395.978V143.873H404.577V138.445H395.978V133.881ZM393.432 133.881H398.332V150.551H393.432V133.881ZM396.459 107.939L400.926 105.826C401.599 106.818 402.255 107.923 402.896 109.14C403.568 110.325 404.097 111.366 404.481 112.263L399.869 114.761C399.517 113.864 399.005 112.775 398.332 111.494C397.692 110.181 397.067 108.996 396.459 107.939ZM411.303 122.063H434.698V127.732H411.303V122.063ZM419.758 106.883H425.763V151.175H419.758V106.883ZM462.465 133.689H467.798V143.297H462.465V133.689ZM443.393 146.083H487.302V149.878H443.393V146.083ZM443.585 113.512H487.013V116.635H443.585V113.512ZM443.441 127.78H487.35V131.335H443.441V127.78ZM446.9 123.024H484.083V126.098H446.9V123.024ZM448.678 108.9H482.209V121.391H448.389V118.364H476.349V111.927H448.678V108.9ZM462.081 105.97H467.942V129.509H462.081V105.97ZM454.539 140.03V141.759H476.349V140.03H454.539ZM454.539 135.658V137.34H476.349V135.658H454.539ZM448.918 132.872H482.257V144.546H448.918V132.872Z" fill="black"/>
<path d="M10.1714 227.295H21.1725V225.23H11.9008C11.3243 225.95 10.7478 226.623 10.1714 227.295ZM14.543 209.521V211.106H33.903V209.521H14.543ZM14.543 203.131V204.669H33.903V203.131H14.543ZM28.4265 234.789H46.057V240.746H3.2056V234.789H21.1725V232.628H9.30665V228.208C8.77821 228.784 8.24977 229.265 7.72134 229.745C6.37623 228.496 3.54188 226.383 1.90853 225.422C4.88699 223.212 7.72134 219.801 9.45077 216.342H7.6733V197.895H41.157V216.342H12.4773L16.6567 217.543C16.3685 218.216 16.0322 218.84 15.6479 219.513H21.1725V217.111H28.4265V219.513H42.9344V225.23H28.4265V227.295H40.6766V232.628H28.4265V234.789ZM93.9526 211.682L100.006 214.757C97.4595 217.879 94.6252 221.194 92.2712 223.452C94.2889 227.295 97.0272 230.226 100.87 232.82C99.237 234.069 97.4115 236.279 96.5948 238.152C93.232 235.606 90.6859 232.868 88.6683 229.649V234.453C88.6683 237.672 88.0918 239.497 86.2182 240.602C84.3447 241.755 81.7986 242.043 78.2917 242.043C78.0515 240.17 76.8985 237.143 75.9377 235.318C78.0515 235.414 80.2133 235.414 80.9339 235.414C81.6545 235.414 81.9427 235.174 81.9427 234.453V228.592C78.9162 231.523 75.7456 234.357 73.0073 236.855L70.5092 233.06C65.417 234.693 59.8925 236.375 55.4248 237.768L54.0316 231.138C55.6169 230.754 57.4424 230.274 59.4601 229.697V219.032H54.9924V212.643H59.4601V205.293H54.8003V198.856H70.4132V205.293H65.9455V212.643H69.7406V219.032H65.9455V227.872L70.269 226.575L70.7494 229.313C73.824 227.247 78.0515 224.125 81.9427 221.146V210.145H71.2298V203.804H81.9427V196.406H88.6683V203.804H94.0007C92.7516 202.507 91.0702 201.114 89.629 200.057L93.4242 196.502C95.3938 197.799 97.9399 199.769 99.1889 201.162L96.4987 203.804H100.006V210.145H88.6683V212.355C89.0526 214.228 89.4849 216.006 89.9653 217.591C91.4546 215.67 92.9438 213.508 93.9526 211.682ZM71.2779 214.18L76.6583 211.826C78.3397 214.325 80.2613 217.687 80.9819 219.993L75.2652 222.635C74.6407 220.378 72.9112 216.823 71.2779 214.18ZM129.31 204.236V209.665H108.749V204.236H116.579C115.811 202.459 114.706 200.345 113.841 198.664L119.222 196.117C120.519 198.183 121.912 200.873 122.68 202.699L119.798 204.236H129.31ZM127.292 216.294H110.815V211.106H127.292V216.294ZM127.244 217.735V222.924H110.815V217.735H127.244ZM121.431 229.985H116.771V233.925H121.431V229.985ZM127.388 224.509V239.449H116.771V241.371H110.911V224.509H127.388ZM152.657 212.019V218.888H144.25V241.995H136.948V218.888H129.07V212.019H136.948V197.222H144.25V212.019H152.657ZM160.92 240.746V236.327H205.261V240.746H160.92ZM193.155 227.68V226.431H186.093V227.68H193.155ZM193.155 232.003V230.706H186.093V232.003H193.155ZM173.314 230.706V232.003H179.655V230.706H173.314ZM173.314 226.431V227.68H179.655V226.431H173.314ZM166.493 223.26H200.361V235.174H166.493V223.26ZM186.285 207.359V208.512H193.251V207.359H186.285ZM186.285 202.651V203.756H193.251V202.651H186.285ZM186.285 217.879H205.357V222.059H161.016V217.879H179.175V216.727H164.331V213.172H179.175V212.019H165.964V208.512H179.175V207.359H161.208V203.756H179.175V202.651H166.252V199.144H179.175V196.31H186.285V199.144H200.313V203.756H204.924V207.359H200.313V212.019H186.285V213.172H202.186V216.727H186.285V217.879Z" fill="black"/>
</svg>
