<svg width="200" height="201" viewBox="0 0 200 201" fill="none" xmlns="http://www.w3.org/2000/svg">
<g clip-path="url(#clip0_152_6011)">
<path d="M47.5215 52.4805L14.5004 52.4805" stroke="#222222" stroke-width="0.679485" stroke-linecap="round"/>
<path d="M86.0328 0.707031L14.5004 0.707031" stroke="#222222" stroke-width="0.679485" stroke-linecap="round"/>
<path d="M47.5215 103.91L14.5004 103.91" stroke="#222222" stroke-width="0.679485" stroke-linecap="round"/>
<path d="M14.5 67.0273L14.5 55.3173" stroke="#222222" stroke-width="0.679485" stroke-linecap="round" stroke-dasharray="1.36 1.36"/>
<path d="M48.7932 67.0273L48.7932 55.3173" stroke="#222222" stroke-width="0.679485" stroke-linecap="round" stroke-dasharray="1.36 1.36"/>
<path d="M14.5 119.438L14.5 107.728" stroke="#222222" stroke-width="0.679485" stroke-linecap="round" stroke-dasharray="1.36 1.36"/>
<path d="M14.5002 49.6406L14.5002 37.9268" stroke="#222222" stroke-width="0.679485" stroke-linecap="round"/>
<path d="M14.5004 15.6387L14.5004 3.92485" stroke="#222222" stroke-width="0.679485" stroke-linecap="round"/>
<path d="M56.2932 15.6387L56.2932 3.92485" stroke="#222222" stroke-width="0.679485" stroke-linecap="round"/>
<path d="M14.5 101.072L14.5 89.3584" stroke="#222222" stroke-width="0.679485" stroke-linecap="round"/>
<path d="M47.5215 101.072L47.5215 89.3584" stroke="#222222" stroke-width="0.679485" stroke-linecap="round"/>
<rect x="0.339743" y="19.2772" width="28.3205" height="15.4743" rx="7.73717" stroke="#43B71B" stroke-width="0.679485"/>
<path d="M7.43487 24.7748L7.84256 24.4487C7.94222 24.5348 8.04641 24.6321 8.15512 24.7409C8.26837 24.8496 8.37256 24.9583 8.46769 25.067C8.56735 25.1712 8.64662 25.2663 8.70551 25.3524L8.27743 25.7261C8.22307 25.6355 8.14833 25.5359 8.0532 25.4271C7.95807 25.3139 7.85615 25.2007 7.74743 25.0874C7.64325 24.9742 7.53906 24.87 7.43487 24.7748ZM7.19705 26.5755L7.58436 26.2357C7.69307 26.3127 7.80406 26.3988 7.9173 26.4939C8.03055 26.5845 8.13701 26.6797 8.23666 26.7793C8.34085 26.8745 8.42239 26.9605 8.48128 27.0375L8.07359 27.4248C8.0147 27.3433 7.93542 27.2527 7.83577 27.153C7.74064 27.0534 7.63645 26.9537 7.5232 26.8541C7.40996 26.7499 7.30124 26.657 7.19705 26.5755ZM7.33974 30.0273C7.42581 29.8597 7.52094 29.6603 7.62513 29.4293C7.73384 29.1938 7.8403 28.9469 7.94448 28.6887C8.0532 28.4259 8.15059 28.1745 8.23666 27.9344L8.67153 28.2334C8.59 28.4644 8.50166 28.7045 8.40653 28.9537C8.31141 29.1983 8.21401 29.4406 8.11436 29.6807C8.0147 29.9163 7.9173 30.136 7.82218 30.3398L7.33974 30.0273ZM8.83461 28.3761H11.4574V28.8246H8.83461V28.3761ZM9.3714 27.5947H10.975V28.0296H9.3714V27.5947ZM8.62397 29.8914C8.86858 29.8687 9.1517 29.8438 9.47333 29.8166C9.79948 29.7894 10.1438 29.76 10.5061 29.7283C10.8731 29.692 11.2377 29.6558 11.6001 29.6196V30.0816C11.2513 30.1224 10.9025 30.1609 10.5537 30.1971C10.2049 30.2334 9.86969 30.2651 9.54807 30.2923C9.23098 30.324 8.94786 30.3534 8.69871 30.3806L8.62397 29.8914ZM9.02487 29.042L9.38499 28.8993C9.45294 29.0126 9.51409 29.1371 9.56845 29.273C9.62734 29.4089 9.67038 29.5267 9.69756 29.6264L9.31704 29.7894C9.28986 29.6898 9.2491 29.5697 9.19474 29.4293C9.14038 29.2844 9.08375 29.1553 9.02487 29.042ZM10.8799 28.8857L11.2876 29.0216C11.2287 29.1756 11.1652 29.3297 11.0973 29.4837C11.0339 29.6332 10.975 29.7645 10.9206 29.8778L10.5673 29.7487C10.599 29.6671 10.633 29.5765 10.6692 29.4769C10.71 29.3772 10.7485 29.2753 10.7847 29.1711C10.8255 29.0624 10.8572 28.9673 10.8799 28.8857ZM10.18 24.5574H11.3555V24.9923H10.18V24.5574ZM11.24 24.5574H11.6477C11.6477 24.5574 11.6477 24.5823 11.6477 24.6321C11.6477 24.682 11.6454 24.725 11.6409 24.7613C11.6273 25.1599 11.6114 25.4815 11.5933 25.7261C11.5797 25.9707 11.5593 26.1587 11.5322 26.2901C11.5095 26.4169 11.4801 26.5075 11.4438 26.5619C11.4076 26.6208 11.3668 26.6638 11.3215 26.691C11.2762 26.7136 11.2219 26.7295 11.1584 26.7386C11.1177 26.7431 11.0633 26.7453 10.9954 26.7453C10.9274 26.7453 10.8549 26.7431 10.7779 26.7386C10.7779 26.6751 10.7689 26.6027 10.7508 26.5211C10.7326 26.4351 10.71 26.3648 10.6828 26.3105C10.7508 26.3195 10.8096 26.3263 10.8595 26.3309C10.9093 26.3309 10.9478 26.3309 10.975 26.3309C11.0293 26.3354 11.0701 26.3127 11.0973 26.2629C11.1199 26.2312 11.1381 26.1587 11.1517 26.0455C11.1698 25.9322 11.1856 25.7646 11.1992 25.5427C11.2128 25.3162 11.2264 25.0149 11.24 24.6389V24.5574ZM9.80627 24.2788L10.1324 24.6321C9.96482 24.7454 9.77456 24.8451 9.56166 24.9311C9.34875 25.0172 9.14491 25.0919 8.95012 25.1554C8.93653 25.101 8.91615 25.0376 8.88897 24.9651C8.86632 24.8926 8.84367 24.8292 8.82102 24.7748C8.99769 24.7114 9.17662 24.6344 9.35781 24.5438C9.54354 24.4532 9.69303 24.3649 9.80627 24.2788ZM9.45294 25.3932L9.81307 25.2709C9.89008 25.4385 9.96256 25.6242 10.0305 25.828C10.0985 26.0274 10.146 26.2018 10.1732 26.3512L9.79268 26.5007C9.77003 26.3467 9.727 26.1678 9.66358 25.9639C9.60016 25.7601 9.52995 25.5698 9.45294 25.3932ZM9.9082 27.8325H10.3635V29.8982H9.9082V27.8325ZM8.82782 26.8677L8.75987 26.4124L8.90256 26.2425L9.81307 25.7737C9.83572 25.8326 9.8629 25.8983 9.89461 25.9707C9.93085 26.0432 9.96256 26.0998 9.98973 26.1406C9.6817 26.3127 9.44841 26.4441 9.28986 26.5347C9.13585 26.6253 9.02713 26.6955 8.96371 26.7453C8.90029 26.7906 8.85499 26.8314 8.82782 26.8677ZM10.1392 26.426L10.4858 26.6298C10.3589 26.8246 10.2049 27.0126 10.0237 27.1938C9.84704 27.3705 9.65905 27.5336 9.45974 27.683C9.26042 27.828 9.0611 27.9526 8.86179 28.0568C8.83008 27.9888 8.78705 27.9141 8.73269 27.8325C8.67833 27.7465 8.62623 27.674 8.57641 27.6151C8.76666 27.529 8.95918 27.4271 9.15397 27.3093C9.35328 27.187 9.53901 27.0511 9.71115 26.9016C9.88328 26.7521 10.026 26.5936 10.1392 26.426ZM9.98294 27.0171L10.2343 26.6638C10.3974 26.7408 10.5696 26.8314 10.7508 26.9356C10.9365 27.0353 11.1109 27.1394 11.274 27.2482C11.437 27.3524 11.5729 27.452 11.6817 27.5471L11.4099 27.9412C11.3102 27.8461 11.1788 27.7442 11.0158 27.6355C10.8572 27.5222 10.6873 27.4112 10.5061 27.3025C10.3249 27.1938 10.1505 27.0987 9.98294 27.0171ZM11.8787 24.9991H12.3408V28.9197H11.8787V24.9991ZM12.7349 24.306H13.2445V29.8302C13.2445 29.9933 13.2263 30.1179 13.1901 30.2039C13.1539 30.29 13.0905 30.3557 12.9999 30.401C12.9047 30.4463 12.7779 30.4735 12.6193 30.4825C12.4608 30.4961 12.2615 30.5029 12.0214 30.5029C12.0123 30.4304 11.9942 30.3398 11.967 30.2311C11.9444 30.1269 11.9172 30.0341 11.8855 29.9525C12.044 29.957 12.1913 29.9593 12.3272 29.9593C12.4676 29.9593 12.5605 29.9593 12.6058 29.9593C12.6511 29.9548 12.6828 29.9457 12.7009 29.9321C12.7235 29.914 12.7349 29.88 12.7349 29.8302V24.306ZM10.5265 24.8088H10.9274C10.9138 25.1848 10.8708 25.5245 10.7983 25.828C10.7304 26.1315 10.5945 26.3784 10.3906 26.5687C10.368 26.5234 10.3295 26.4713 10.2751 26.4124C10.2208 26.3535 10.1687 26.3082 10.1188 26.2765C10.2774 26.1225 10.3816 25.9186 10.4314 25.665C10.4858 25.4068 10.5175 25.1214 10.5265 24.8088ZM8.82782 26.8677C8.81423 26.8088 8.78931 26.7408 8.75307 26.6638C8.71683 26.5823 8.68059 26.5189 8.64435 26.4736C8.68965 26.4509 8.72816 26.4147 8.75987 26.3648C8.79611 26.3105 8.81423 26.2199 8.81423 26.093V24.7748H9.2423V26.4871C9.2423 26.4871 9.21965 26.5007 9.17435 26.5279C9.13358 26.5506 9.08602 26.5823 9.03166 26.623C8.98183 26.6593 8.93427 26.7 8.88897 26.7453C8.8482 26.7861 8.82782 26.8269 8.82782 26.8677ZM16.3633 28.1791V28.4577H19.353V28.1791H16.3633ZM16.3633 28.8042V29.0896H19.353V28.8042H16.3633ZM16.3633 27.5607V27.8393H19.353V27.5607H16.3633ZM15.7586 27.2074H19.985V29.4429H15.7586L15.7586 27.2074ZM18.2251 29.2323H18.8502V29.8302C18.8502 29.9072 18.8706 29.957 18.9114 29.9797C18.9567 29.9978 19.0541 30.0069 19.2036 30.0069C19.2353 30.0069 19.2942 30.0069 19.3802 30.0069C19.4708 30.0069 19.5682 30.0069 19.6724 30.0069C19.7766 30.0069 19.874 30.0069 19.9646 30.0069C20.0552 30.0069 20.1231 30.0069 20.1684 30.0069C20.25 30.0069 20.3111 29.9956 20.3519 29.9729C20.3927 29.9457 20.4221 29.8914 20.4402 29.8098C20.4583 29.7283 20.4697 29.6037 20.4742 29.4361C20.5376 29.4769 20.6214 29.5154 20.7256 29.5516C20.8343 29.5879 20.9294 29.6128 21.011 29.6264C20.9883 29.8619 20.9498 30.0431 20.8955 30.17C20.8456 30.2968 20.7686 30.3829 20.6644 30.4282C20.5603 30.478 20.4176 30.5029 20.2364 30.5029C20.2047 30.5029 20.1503 30.5029 20.0733 30.5029C20.0008 30.5029 19.917 30.5029 19.8219 30.5029C19.7268 30.5029 19.6316 30.5029 19.5365 30.5029C19.4459 30.5029 19.3621 30.5029 19.2851 30.5029C19.2126 30.5029 19.1628 30.5029 19.1356 30.5029C18.8955 30.5029 18.7075 30.4825 18.5716 30.4417C18.4403 30.4055 18.3497 30.3398 18.2998 30.2447C18.25 30.1496 18.2251 30.0137 18.2251 29.837V29.2323ZM16.7506 29.2662H17.3825C17.3372 29.4656 17.2648 29.64 17.1651 29.7894C17.07 29.9344 16.9318 30.059 16.7506 30.1632C16.5739 30.2673 16.3429 30.3534 16.0575 30.4214C15.7722 30.4893 15.4188 30.5437 14.9975 30.5844C14.9794 30.512 14.9409 30.4259 14.882 30.3262C14.8231 30.2266 14.7688 30.1473 14.719 30.0884C15.0904 30.0658 15.3984 30.0341 15.6431 29.9933C15.8877 29.9525 16.0847 29.9004 16.2342 29.837C16.3882 29.7736 16.5037 29.6966 16.5807 29.606C16.6577 29.5109 16.7144 29.3976 16.7506 29.2662ZM18.5241 25.3048L20.5829 25.3048V25.6854L18.5241 25.6854V25.3048ZM18.4901 24.6525L20.9159 24.6525V25.0738L18.4901 25.0738V24.6525ZM16.2138 24.6593H16.7234V25.298H16.2138V24.6593ZM16.2138 26.0251H16.7234V26.6774H16.2138V26.0251ZM15.3848 25.1757H17.6271V26.2289H15.3848V25.8756H17.0836V25.5427H15.3848V25.1757ZM19.9782 26.2425V26.6638H20.3451V26.2425H19.9782ZM19.2715 26.2425V26.6638L19.6384 26.6638V26.2425L19.2715 26.2425ZM18.5784 26.2425V26.6638H18.9318V26.2425H18.5784ZM18.1368 25.9164L20.8071 25.9164V26.99L18.1368 26.99V25.9164ZM18.4765 24.2856L19.0405 24.3739C18.9453 24.6231 18.823 24.8677 18.6736 25.1078C18.5241 25.3433 18.3293 25.5608 18.0892 25.7601C18.0394 25.7012 17.9714 25.6355 17.8854 25.563C17.8038 25.486 17.7291 25.4317 17.6611 25.4C17.874 25.2369 18.0462 25.0557 18.1775 24.8564C18.3089 24.6571 18.4086 24.4668 18.4765 24.2856ZM17.797 24.4963V24.8836H15.6023V26.5755H17.8514V26.956H15.0451V24.4963H17.797Z" fill="#43B71B"/>
<rect x="34.633" y="19.2772" width="43.3205" height="15.4743" rx="7.73717" stroke="#424242" stroke-width="0.679485" stroke-dasharray="1.36 1.36"/>
<path d="M46.0768 24.7952L46.566 24.4623C46.6929 24.5665 46.8242 24.6865 46.9601 24.8224C47.096 24.9538 47.2229 25.0874 47.3406 25.2233C47.4584 25.3547 47.5535 25.4724 47.626 25.5766L47.1028 25.9436C47.0394 25.8348 46.9511 25.7148 46.8378 25.5834C46.7291 25.4475 46.6068 25.3116 46.4709 25.1757C46.3395 25.0353 46.2082 24.9085 46.0768 24.7952ZM41.6533 26.2561H47.7415V26.8609H41.6533V26.2561ZM41.5378 28.213C41.8096 28.1677 42.1244 28.1111 42.4823 28.0432C42.8447 27.9752 43.2275 27.9027 43.6306 27.8257C44.0338 27.7487 44.4347 27.6694 44.8333 27.5879L44.8809 28.1723C44.514 28.2538 44.1403 28.3353 43.7597 28.4169C43.3838 28.4984 43.0214 28.5777 42.6726 28.6547C42.3238 28.7317 42.0044 28.8019 41.7145 28.8653L41.5378 28.213ZM43.0395 25.033H43.685V29.7962C43.685 29.9865 43.6601 30.1314 43.6103 30.2311C43.565 30.3353 43.4812 30.4123 43.3588 30.4621C43.2365 30.5165 43.078 30.5505 42.8832 30.5641C42.693 30.5822 42.4574 30.589 42.1765 30.5844C42.1675 30.5256 42.1494 30.4576 42.1222 30.3806C42.0995 30.3036 42.0724 30.2243 42.0406 30.1428C42.0089 30.0658 41.9772 29.9978 41.9455 29.9389C42.1494 29.9435 42.3396 29.948 42.5163 29.9525C42.6975 29.9525 42.8175 29.9503 42.8764 29.9457C42.9398 29.9412 42.9829 29.9299 43.0055 29.9117C43.0282 29.8891 43.0395 29.8506 43.0395 29.7962V25.033ZM44.3713 24.34L44.8197 24.8836C44.5434 24.9742 44.2376 25.058 43.9024 25.135C43.5672 25.2074 43.223 25.2731 42.8696 25.332C42.5208 25.3909 42.1811 25.4407 41.8504 25.4815C41.8368 25.4045 41.8119 25.3139 41.7756 25.2097C41.7394 25.1055 41.7009 25.0172 41.6601 24.9447C41.9818 24.8949 42.3079 24.8405 42.6386 24.7816C42.9738 24.7182 43.2909 24.6503 43.5899 24.5778C43.8888 24.5008 44.1493 24.4215 44.3713 24.34ZM45.0508 24.3332H45.7235C45.7144 24.9221 45.7325 25.4928 45.7778 26.0455C45.8231 26.5981 45.8865 27.1123 45.9681 27.5879C46.0541 28.059 46.1538 28.4735 46.267 28.8314C46.3848 29.1847 46.5117 29.461 46.6476 29.6603C46.7835 29.8551 46.9239 29.9525 47.0688 29.9525C47.1549 29.9525 47.2183 29.8619 47.2591 29.6807C47.3044 29.495 47.3361 29.1915 47.3542 28.7702C47.4222 28.8427 47.506 28.9129 47.6056 28.9809C47.7098 29.0488 47.8049 29.0986 47.891 29.1303C47.8548 29.5154 47.8027 29.8144 47.7347 30.0273C47.6713 30.2447 47.5807 30.3964 47.4629 30.4825C47.3452 30.5686 47.1934 30.6116 47.0077 30.6116C46.7812 30.6116 46.5751 30.5301 46.3894 30.367C46.2082 30.2039 46.0451 29.9774 45.9001 29.6875C45.7552 29.3931 45.6306 29.0488 45.5264 28.6547C45.4222 28.2606 45.3339 27.8303 45.2614 27.3637C45.1935 26.8971 45.1414 26.4079 45.1051 25.896C45.0734 25.3796 45.0553 24.8586 45.0508 24.3332ZM46.8922 27.1394L47.4629 27.3773C47.2364 27.7986 46.9646 28.1927 46.6476 28.5596C46.335 28.9265 45.9885 29.2617 45.6079 29.5652C45.232 29.8642 44.8356 30.1247 44.4188 30.3466C44.3735 30.2696 44.3101 30.1813 44.2286 30.0816C44.1471 29.9865 44.0655 29.9027 43.984 29.8302C44.3826 29.6445 44.7654 29.4135 45.1323 29.1371C45.4992 28.8608 45.8344 28.5528 46.1379 28.213C46.4414 27.8733 46.6929 27.5154 46.8922 27.1394ZM49.6916 25.3728H51.7709V29.8778H49.6916V29.3002H51.1797V25.9436H49.6916V25.3728ZM49.3179 25.3728H49.9091V30.401L49.3179 30.401V25.3728ZM49.6645 27.2346H51.4787V27.7918H49.6645V27.2346ZM50.3236 24.2652L51.0234 24.3807C50.951 24.5982 50.874 24.8179 50.7924 25.0398C50.7109 25.2618 50.6361 25.4498 50.5682 25.6038L50.0586 25.4815C50.0903 25.3683 50.1243 25.2414 50.1605 25.101C50.1967 24.956 50.2284 24.8111 50.2556 24.6661C50.2873 24.5166 50.31 24.383 50.3236 24.2652ZM52.7086 25.3388L54.747 25.3388V25.93L52.7086 25.93V25.3388ZM54.5228 25.3388H55.1207C55.1207 25.3388 55.1207 25.3592 55.1207 25.4C55.1207 25.4362 55.1207 25.4792 55.1207 25.5291C55.1207 25.5789 55.1207 25.6174 55.1207 25.6446C55.0981 26.4192 55.0732 27.076 55.046 27.6151C55.0188 28.1496 54.9871 28.589 54.9509 28.9333C54.9192 29.2776 54.8784 29.5448 54.8286 29.7351C54.7833 29.9253 54.7266 30.0635 54.6587 30.1496C54.5726 30.2628 54.4843 30.3398 54.3937 30.3806C54.3031 30.4259 54.1921 30.4576 54.0607 30.4757C53.943 30.4893 53.7889 30.4938 53.5987 30.4893C53.413 30.4893 53.2227 30.4848 53.0279 30.4757C53.0234 30.3851 53.0007 30.2787 52.96 30.1564C52.9237 30.0386 52.8739 29.9367 52.8105 29.8506C53.0325 29.8687 53.2363 29.88 53.422 29.8846C53.6077 29.8891 53.7436 29.8914 53.8297 29.8914C53.8977 29.8914 53.952 29.8846 53.9928 29.871C54.0381 29.8574 54.0811 29.8279 54.1219 29.7826C54.1762 29.7192 54.2238 29.5969 54.2646 29.4157C54.3054 29.23 54.3416 28.9695 54.3733 28.6343C54.405 28.2946 54.4322 27.8642 54.4548 27.3433C54.482 26.8224 54.5047 26.1972 54.5228 25.4679V25.3388ZM52.7969 24.2652L53.4152 24.4079C53.3292 24.7431 53.225 25.0738 53.1027 25.4C52.9849 25.7261 52.8558 26.0342 52.7154 26.3241C52.5749 26.6095 52.4254 26.8609 52.2669 27.0783C52.2307 27.0421 52.1786 27.0013 52.1106 26.956C52.0472 26.9062 51.9815 26.8586 51.9136 26.8133C51.8501 26.768 51.7913 26.7318 51.7369 26.7046C51.8909 26.5098 52.0336 26.281 52.165 26.0183C52.3009 25.7556 52.4209 25.4747 52.5251 25.1757C52.6338 24.8722 52.7244 24.5687 52.7969 24.2652ZM52.4707 27.1938L52.9736 26.9084C53.0959 27.0624 53.2227 27.2346 53.3541 27.4248C53.49 27.6106 53.6145 27.7918 53.7278 27.9684C53.8456 28.1451 53.9407 28.3014 54.0132 28.4373L53.4696 28.777C53.4062 28.6366 53.3178 28.4758 53.2046 28.2946C53.0913 28.1134 52.9713 27.9254 52.8445 27.7306C52.7176 27.5358 52.593 27.3569 52.4707 27.1938ZM56.9961 26.4396H62.0379V26.9628H57.6144V30.5708H56.9961V26.4396ZM61.7117 26.4396H62.3097V29.9389C62.3097 30.0884 62.287 30.2017 62.2417 30.2787C62.1964 30.3602 62.1194 30.4214 62.0107 30.4621C61.8975 30.5029 61.748 30.5278 61.5623 30.5369C61.3811 30.5459 61.1478 30.5505 60.8624 30.5505C60.8533 30.4735 60.8307 30.3897 60.7944 30.2991C60.7582 30.2085 60.7197 30.1292 60.6789 30.0612C60.8103 30.0658 60.9349 30.068 61.0526 30.068C61.1749 30.0726 61.2814 30.0726 61.372 30.068C61.4626 30.068 61.526 30.068 61.5623 30.068C61.6166 30.068 61.6551 30.0567 61.6778 30.0341C61.7004 30.0159 61.7117 29.982 61.7117 29.9321V26.4396ZM58.6812 28.1247H60.9099V29.7283H58.6812V29.273H60.3799V28.5868H58.6812V28.1247ZM58.3415 28.1247H58.8851V30.0273H58.3415V28.1247ZM56.636 24.9719H62.6562V25.5223H56.636V24.9719ZM58.0765 25.6786L58.6269 25.4951C58.6994 25.6129 58.7741 25.7442 58.8511 25.8892C58.9326 26.0342 58.9961 26.1542 59.0414 26.2493L58.4638 26.4736C58.423 26.3694 58.3641 26.2425 58.2871 26.093C58.2147 25.939 58.1444 25.8009 58.0765 25.6786ZM60.6246 25.5359L61.2769 25.6718C61.1682 25.853 61.0549 26.0364 60.9371 26.2221C60.8193 26.4079 60.7129 26.5642 60.6178 26.691L60.1149 26.5483C60.1784 26.4532 60.2418 26.3467 60.3052 26.2289C60.3686 26.1112 60.4275 25.9911 60.4819 25.8688C60.5408 25.7465 60.5883 25.6355 60.6246 25.5359ZM59.2044 24.3875L59.8092 24.238C59.8681 24.3739 59.927 24.5234 59.9858 24.6865C60.0447 24.8496 60.09 24.99 60.1217 25.1078L59.4898 25.2845C59.4626 25.1667 59.4196 25.024 59.3607 24.8564C59.3064 24.6842 59.2543 24.528 59.2044 24.3875ZM58.7152 26.7114H59.2792C59.2611 26.9877 59.209 27.2233 59.1229 27.418C59.0414 27.6128 58.9032 27.7736 58.7084 27.9005C58.5182 28.0273 58.2486 28.1292 57.8998 28.2062C57.8772 28.1428 57.8341 28.0681 57.7707 27.982C57.7118 27.8914 57.6552 27.8212 57.6009 27.7714C57.8953 27.717 58.1195 27.6468 58.2735 27.5607C58.4276 27.4747 58.5363 27.3637 58.5997 27.2278C58.6631 27.0874 58.7016 26.9152 58.7152 26.7114ZM59.8975 26.725H60.4751V27.2889C60.4751 27.3614 60.4819 27.4135 60.4955 27.4452C60.5091 27.4769 60.5453 27.4928 60.6042 27.4928C60.6268 27.4928 60.6585 27.4928 60.6993 27.4928C60.7446 27.4928 60.7922 27.4928 60.842 27.4928C60.8964 27.4928 60.9462 27.4928 60.9915 27.4928C61.0368 27.4928 61.0708 27.4928 61.0934 27.4928C61.1432 27.4928 61.2089 27.4905 61.2905 27.486C61.372 27.4769 61.4354 27.4679 61.4807 27.4588C61.4852 27.5313 61.4898 27.606 61.4943 27.683C61.4988 27.7555 61.5079 27.828 61.5215 27.9005C61.4762 27.9141 61.415 27.9254 61.338 27.9344C61.261 27.939 61.184 27.9412 61.107 27.9412C61.0753 27.9412 61.03 27.9412 60.9711 27.9412C60.9122 27.9412 60.8488 27.9412 60.7808 27.9412C60.7129 27.9412 60.6495 27.9412 60.5906 27.9412C60.5362 27.9412 60.4955 27.9412 60.4683 27.9412C60.3097 27.9412 60.1897 27.9163 60.1082 27.8665C60.0266 27.8167 59.97 27.7442 59.9383 27.6491C59.9111 27.5494 59.8975 27.4271 59.8975 27.2821V26.725ZM67.467 26.6434H69.9743V27.2278H67.467V26.6434ZM66.0401 29.6603H69.3356V30.2311L66.0401 30.2311V29.6603ZM67.1544 25.9096H67.8203V28.4101H67.1544V25.9096ZM65.7003 28.016H69.6549V30.4893H68.9958V28.6139H66.3254V30.5029H65.7003V28.016ZM64.8238 25.0738H70.1713V25.6854H64.8238V25.0738ZM64.5316 25.0738H65.1907V26.8337C65.1907 27.1055 65.1816 27.4044 65.1635 27.7306C65.1454 28.0522 65.1114 28.3829 65.0616 28.7227C65.0118 29.0624 64.937 29.3931 64.8374 29.7147C64.7422 30.0363 64.6177 30.3262 64.4637 30.5844C64.4229 30.5482 64.3663 30.5052 64.2938 30.4553C64.2258 30.4055 64.1556 30.3579 64.0831 30.3126C64.0107 30.2673 63.9472 30.2356 63.8929 30.2175C64.0378 29.9729 64.1534 29.7056 64.2394 29.4157C64.3255 29.1258 64.3889 28.8314 64.4297 28.5324C64.4704 28.2289 64.4976 27.9322 64.5112 27.6423C64.5248 27.3478 64.5316 27.0783 64.5316 26.8337V25.0738ZM66.8419 24.4283L67.4806 24.2856C67.5802 24.4306 67.6708 24.5914 67.7524 24.768C67.8339 24.9447 67.8905 25.101 67.9222 25.2369L67.2427 25.4C67.2201 25.2641 67.1703 25.1055 67.0933 24.9243C67.0163 24.7386 66.9325 24.5733 66.8419 24.4283Z" fill="#424242"/>
<rect x="0.339743" y="70.7089" width="28.3205" height="15.4705" stroke="#34BAF3" stroke-width="0.679485"/>
<path d="M7.33295 77.3189H9.40538V77.9236H7.33295L7.33295 77.3189ZM8.11436 75.79H8.7191V80.2475H8.11436V75.79ZM7.19705 80.2611C7.37825 80.1931 7.58889 80.1116 7.82897 80.0164C8.06906 79.9168 8.32273 79.8126 8.59 79.7039C8.86179 79.5906 9.13132 79.4774 9.39858 79.3641L9.54127 79.9349C9.18341 80.107 8.82102 80.2792 8.4541 80.4513C8.08718 80.6189 7.75423 80.7684 7.45526 80.8998L7.19705 80.2611ZM11.2672 75.7085H11.8719V80.4649H11.2672V75.7085ZM9.18115 78.4808L12.7824 76.9588L13.0202 77.5023L9.42576 79.0516L9.18115 78.4808ZM9.88781 76.354H10.5061V80.8386C10.5061 80.9655 10.5175 81.0628 10.5401 81.1308C10.5628 81.1942 10.6103 81.2372 10.6828 81.2599C10.7598 81.2825 10.8708 81.2939 11.0158 81.2939C11.0565 81.2939 11.1267 81.2939 11.2264 81.2939C11.3261 81.2939 11.437 81.2939 11.5593 81.2939C11.6862 81.2939 11.813 81.2939 11.9399 81.2939C12.0667 81.2939 12.1822 81.2939 12.2864 81.2939C12.3906 81.2939 12.4676 81.2939 12.5174 81.2939C12.6443 81.2939 12.7394 81.269 12.8028 81.2191C12.8708 81.1693 12.9206 81.0787 12.9523 80.9473C12.984 80.816 13.0066 80.6257 13.0202 80.3766C13.0927 80.4264 13.1833 80.474 13.292 80.5193C13.4053 80.5646 13.5049 80.5963 13.591 80.6144C13.5638 80.9315 13.5163 81.1806 13.4483 81.3618C13.3804 81.543 13.2762 81.6721 13.1358 81.7491C12.9999 81.8307 12.8073 81.8714 12.5582 81.8714C12.5174 81.8714 12.4427 81.8714 12.334 81.8714C12.2298 81.8714 12.1075 81.8714 11.967 81.8714C11.8311 81.8714 11.693 81.8714 11.5526 81.8714C11.4167 81.8714 11.2966 81.8714 11.1924 81.8714C11.0882 81.8714 11.0158 81.8714 10.975 81.8714C10.6987 81.8714 10.479 81.842 10.3159 81.7831C10.1573 81.7242 10.0464 81.6178 9.98294 81.4637C9.91952 81.3143 9.88781 81.1036 9.88781 80.8318V76.354ZM12.6193 77.1354H12.5446L12.7824 76.9588L13.2716 77.115L13.2377 77.217C13.2241 77.5341 13.2014 77.8738 13.1697 78.2362C13.138 78.5986 13.1018 78.9542 13.061 79.303C13.0202 79.6473 12.9704 79.953 12.9115 80.2203L12.3883 80.0708C12.42 79.8896 12.4472 79.6812 12.4699 79.4457C12.4925 79.2056 12.5129 78.9519 12.531 78.6846C12.5537 78.4174 12.5718 78.1524 12.5854 77.8897C12.599 77.6224 12.6103 77.371 12.6193 77.1354ZM17.0292 77.1218V77.4956H18.6803V77.1218H17.0292ZM16.506 76.7753H19.2239V77.8489H16.506V76.7753ZM16.7846 79.1127V80.5328H18.925V79.1127H16.7846ZM16.2818 78.739H19.4482V80.9134H16.2818V78.739ZM17.5184 79.6631V79.9825H18.1775V79.6631H17.5184ZM17.1447 79.3641H18.5648V80.2814H17.1447V79.3641ZM15.8809 78.1139H19.8762V78.4808H15.8809V78.1139ZM17.5728 77.6111H18.1232V78.277H17.5728V77.6111ZM15.0043 75.9599H20.7596V82.0073H20.1344V76.4967H15.6023L15.6023 82.0073H15.0043L15.0043 75.9599ZM15.3848 81.2191H20.4538V81.7559H15.3848V81.2191Z" fill="#34BAF3"/>
<rect x="34.633" y="70.7089" width="28.3205" height="15.4705" stroke="#34BAF3" stroke-width="0.679485"/>
<path d="M42.0474 77.8693H47.0892V78.3925H42.6658V82.0005H42.0474V77.8693ZM46.7631 77.8693H47.361V81.3686C47.361 81.5181 47.3384 81.6314 47.2931 81.7084C47.2478 81.7899 47.1708 81.8511 47.062 81.8918C46.9488 81.9326 46.7993 81.9575 46.6136 81.9666C46.4324 81.9756 46.1991 81.9802 45.9137 81.9802C45.9047 81.9031 45.882 81.8193 45.8458 81.7287C45.8095 81.6381 45.771 81.5589 45.7303 81.4909C45.8616 81.4955 45.9862 81.4977 46.104 81.4977C46.2263 81.5022 46.3327 81.5022 46.4233 81.4977C46.5139 81.4977 46.5773 81.4977 46.6136 81.4977C46.6679 81.4977 46.7064 81.4864 46.7291 81.4637C46.7517 81.4456 46.7631 81.4117 46.7631 81.3618V77.8693ZM43.7326 79.5544H45.9613V81.158H43.7326V80.7027H45.4313V80.0164H43.7326V79.5544ZM43.3928 79.5544H43.9364V81.4569H43.3928V79.5544ZM41.6873 76.4016H47.7076V76.952H41.6873V76.4016ZM43.1278 77.1082L43.6782 76.9248C43.7507 77.0426 43.8254 77.1739 43.9024 77.3189C43.984 77.4638 44.0474 77.5839 44.0927 77.679L43.5151 77.9032C43.4744 77.7991 43.4155 77.6722 43.3385 77.5227C43.266 77.3687 43.1958 77.2306 43.1278 77.1082ZM45.6759 76.9656L46.3282 77.1014C46.2195 77.2826 46.1062 77.4661 45.9885 77.6518C45.8707 77.8376 45.7642 77.9938 45.6691 78.1207L45.1663 77.978C45.2297 77.8829 45.2931 77.7764 45.3565 77.6586C45.42 77.5408 45.4788 77.4208 45.5332 77.2985C45.5921 77.1762 45.6397 77.0652 45.6759 76.9656ZM44.2558 75.8172L44.8605 75.6677C44.9194 75.8036 44.9783 75.9531 45.0372 76.1162C45.0961 76.2793 45.1414 76.4197 45.1731 76.5375L44.5412 76.7141C44.514 76.5964 44.4709 76.4537 44.412 76.2861C44.3577 76.1139 44.3056 75.9576 44.2558 75.8172ZM43.7665 78.1411H44.3305C44.3124 78.4174 44.2603 78.6529 44.1742 78.8477C44.0927 79.0425 43.9545 79.2033 43.7597 79.3302C43.5695 79.457 43.3 79.5589 42.9512 79.6359C42.9285 79.5725 42.8855 79.4978 42.8221 79.4117C42.7632 79.3211 42.7065 79.2509 42.6522 79.2011C42.9466 79.1467 43.1709 79.0765 43.3249 78.9904C43.4789 78.9043 43.5876 78.7934 43.651 78.6575C43.7144 78.517 43.7529 78.3449 43.7665 78.1411ZM44.9488 78.1547H45.5264V78.7186C45.5264 78.7911 45.5332 78.8432 45.5468 78.8749C45.5604 78.9066 45.5966 78.9225 45.6555 78.9225C45.6782 78.9225 45.7099 78.9225 45.7506 78.9225C45.7959 78.9225 45.8435 78.9225 45.8933 78.9225C45.9477 78.9225 45.9975 78.9225 46.0428 78.9225C46.0881 78.9225 46.1221 78.9225 46.1447 78.9225C46.1946 78.9225 46.2602 78.9202 46.3418 78.9157C46.4233 78.9066 46.4867 78.8976 46.532 78.8885C46.5366 78.961 46.5411 79.0357 46.5456 79.1127C46.5502 79.1852 46.5592 79.2577 46.5728 79.3302C46.5275 79.3438 46.4664 79.3551 46.3894 79.3641C46.3123 79.3687 46.2353 79.3709 46.1583 79.3709C46.1266 79.3709 46.0813 79.3709 46.0224 79.3709C45.9635 79.3709 45.9001 79.3709 45.8322 79.3709C45.7642 79.3709 45.7008 79.3709 45.6419 79.3709C45.5876 79.3709 45.5468 79.3709 45.5196 79.3709C45.3611 79.3709 45.241 79.346 45.1595 79.2962C45.0779 79.2464 45.0213 79.1739 44.9896 79.0788C44.9624 78.9791 44.9488 78.8568 44.9488 78.7118V78.1547ZM50.8807 76.6054V77.7266H53.456V76.6054H50.8807ZM50.2624 75.9871H54.1151V78.3449H50.2624V75.9871ZM49.2975 78.9972H51.7913V81.9666H51.1525V79.6155H49.9023V82.0141H49.2975L49.2975 78.9972ZM52.4639 78.9972H55.0732V81.9802H54.4277V79.6155H53.0755V82.0141H52.4639V78.9972ZM49.5693 81.0425H51.4175V81.6608L49.5693 81.6608V81.0425ZM52.7629 81.0425H54.7334V81.6608H52.7629V81.0425Z" fill="#34BAF3"/>
<rect x="0.339743" y="124.273" width="43.3205" height="15.4705" stroke="#424242" stroke-width="0.679485" stroke-dasharray="1.36 1.36"/>
<path d="M7.75423 131.434H12.796V131.957H8.37256L8.37256 135.565H7.75423V131.434ZM12.4699 131.434H13.0678V134.933C13.0678 135.083 13.0452 135.196 12.9999 135.273C12.9546 135.354 12.8775 135.416 12.7688 135.456C12.6556 135.497 12.5061 135.522 12.3204 135.531C12.1392 135.54 11.9059 135.545 11.6205 135.545C11.6114 135.468 11.5888 135.384 11.5526 135.293C11.5163 135.203 11.4778 135.123 11.437 135.055C11.5684 135.06 11.693 135.062 11.8108 135.062C11.9331 135.067 12.0395 135.067 12.1301 135.062C12.2207 135.062 12.2841 135.062 12.3204 135.062C12.3747 135.062 12.4132 135.051 12.4359 135.028C12.4585 135.01 12.4699 134.976 12.4699 134.926V131.434ZM9.43935 133.119H11.6681V134.722H9.43935V134.267H11.1381V133.581L9.43935 133.581V133.119ZM9.09961 133.119H9.6432L9.6432 135.021H9.09961L9.09961 133.119ZM7.3941 129.966H13.4143V130.516H7.3941V129.966ZM8.83461 130.673L9.38499 130.489C9.45747 130.607 9.53221 130.738 9.60922 130.883C9.69076 131.028 9.75418 131.148 9.79948 131.243L9.22192 131.468C9.18115 131.364 9.12226 131.237 9.04525 131.087C8.97277 130.933 8.90256 130.795 8.83461 130.673ZM11.3827 130.53L12.035 130.666C11.9263 130.847 11.813 131.031 11.6952 131.216C11.5775 131.402 11.471 131.558 11.3759 131.685L10.8731 131.542C10.9365 131.447 10.9999 131.341 11.0633 131.223C11.1267 131.105 11.1856 130.985 11.24 130.863C11.2989 130.741 11.3464 130.63 11.3827 130.53ZM9.96256 129.382L10.5673 129.232C10.6262 129.368 10.6851 129.518 10.744 129.681C10.8029 129.844 10.8482 129.984 10.8799 130.102L10.2479 130.279C10.2208 130.161 10.1777 130.018 10.1188 129.851C10.0645 129.678 10.0124 129.522 9.96256 129.382ZM9.47333 131.706H10.0373C10.0192 131.982 9.96709 132.217 9.88102 132.412C9.79948 132.607 9.66132 132.768 9.46653 132.895C9.27628 133.021 9.00675 133.123 8.65794 133.2C8.63529 133.137 8.59226 133.062 8.52884 132.976C8.46995 132.886 8.41333 132.815 8.35897 132.766C8.65341 132.711 8.87764 132.641 9.03166 132.555C9.18568 132.469 9.29439 132.358 9.35781 132.222C9.42123 132.081 9.45974 131.909 9.47333 131.706ZM10.6556 131.719H11.2332V132.283C11.2332 132.356 11.24 132.408 11.2536 132.439C11.2672 132.471 11.3034 132.487 11.3623 132.487C11.3849 132.487 11.4167 132.487 11.4574 132.487C11.5027 132.487 11.5503 132.487 11.6001 132.487C11.6545 132.487 11.7043 132.487 11.7496 132.487C11.7949 132.487 11.8289 132.487 11.8515 132.487C11.9014 132.487 11.967 132.485 12.0486 132.48C12.1301 132.471 12.1935 132.462 12.2388 132.453C12.2434 132.525 12.2479 132.6 12.2524 132.677C12.2569 132.75 12.266 132.822 12.2796 132.895C12.2343 132.908 12.1731 132.92 12.0961 132.929C12.0191 132.933 11.9421 132.935 11.8651 132.935C11.8334 132.935 11.7881 132.935 11.7292 132.935C11.6703 132.935 11.6069 132.935 11.539 132.935C11.471 132.935 11.4076 132.935 11.3487 132.935C11.2943 132.935 11.2536 132.935 11.2264 132.935C11.0679 132.935 10.9478 132.91 10.8663 132.861C10.7847 132.811 10.7281 132.738 10.6964 132.643C10.6692 132.544 10.6556 132.421 10.6556 132.276V131.719ZM16.5875 130.17V131.291H19.1628V130.17H16.5875ZM15.9692 129.552H19.8219V131.909H15.9692V129.552ZM15.0043 132.562H17.498V135.531H16.8593V133.18H15.6091L15.6091 135.579H15.0043L15.0043 132.562ZM18.1707 132.562H20.78V135.545H20.1344V133.18H18.7823V135.579H18.1707V132.562ZM15.2761 134.607H17.1243V135.225H15.2761V134.607ZM18.4697 134.607H20.4402V135.225H18.4697V134.607ZM23.7765 132.208V132.725H26.9769V132.208H23.7765ZM23.7765 133.2V133.724H26.9769V133.2H23.7765ZM23.7765 131.223V131.733H26.9769V131.223H23.7765ZM23.1106 130.727H27.6767V134.226H23.1106V130.727ZM25.7742 134.688L26.243 134.274C26.5058 134.36 26.773 134.455 27.0448 134.559C27.3166 134.664 27.5725 134.768 27.8126 134.872C28.0572 134.972 28.2656 135.064 28.4378 135.151L27.8126 135.585C27.6586 135.495 27.4706 135.397 27.2487 135.293C27.0312 135.189 26.7957 135.085 26.542 134.981C26.2928 134.876 26.0369 134.779 25.7742 134.688ZM22.4855 129.606H28.1795V130.197H22.4855V129.606ZM25.0131 129.871L25.781 129.959C25.7221 130.163 25.6587 130.362 25.5907 130.557C25.5273 130.747 25.4684 130.913 25.414 131.053L24.8025 130.944C24.8433 130.79 24.884 130.614 24.9248 130.414C24.9656 130.211 24.995 130.029 25.0131 129.871ZM24.3608 134.233L24.9316 134.661C24.7323 134.779 24.5035 134.895 24.2453 135.008C23.9871 135.121 23.7221 135.225 23.4503 135.32C23.1785 135.42 22.9226 135.506 22.6825 135.579C22.6327 135.506 22.5647 135.42 22.4787 135.32C22.3926 135.225 22.3133 135.146 22.2408 135.083C22.4809 135.015 22.7346 134.935 23.0019 134.845C23.2691 134.75 23.5228 134.65 23.7629 134.546C24.003 134.437 24.2023 134.333 24.3608 134.233ZM31.8488 132.283H33.6698V132.793H31.8488V132.283ZM31.8488 133.452H33.6766V133.961H31.8488V133.452ZM30.4898 134.634H35.1986V135.225H30.4898V134.634ZM30.0889 131.053H35.5452V135.579H34.8929V131.651H30.714V135.579H30.0889V131.053ZM31.5634 131.441H32.1477V134.906H31.5634V131.441ZM33.4116 131.441H33.9959V134.886H33.4116V131.441ZM32.3992 129.98L33.1534 130.143C33.0809 130.378 33.0062 130.618 32.9292 130.863C32.8567 131.108 32.7865 131.316 32.7185 131.488L32.1342 131.332C32.1704 131.205 32.2066 131.062 32.2429 130.904C32.2791 130.745 32.3108 130.584 32.338 130.421C32.3652 130.258 32.3856 130.111 32.3992 129.98ZM29.7967 129.694H35.8713V130.306H29.7967V129.694Z" fill="#424242"/>
</g>
<defs>
<clipPath id="clip0_152_6011">
<rect width="200" height="200" fill="white" transform="translate(0 0.707031)"/>
</clipPath>
</defs>
</svg>
