<svg width="201" height="200" viewBox="0 0 201 200" fill="none" xmlns="http://www.w3.org/2000/svg">
<g clip-path="url(#clip0_152_6164)">
<path d="M47.5172 9.07422L47.5172 75.5254" stroke="#222222" stroke-width="0.679485" stroke-linecap="round"/>
<path d="M62.3448 75.5234H50.6348" stroke="#222222" stroke-width="0.679485" stroke-linecap="round" stroke-dasharray="1.36 1.36"/>
<path d="M62.3448 53.375H50.6348" stroke="#222222" stroke-width="0.679485" stroke-linecap="round" stroke-dasharray="1.36 1.36"/>
<path d="M62.3448 31.2227H50.6348" stroke="#222222" stroke-width="0.679485" stroke-linecap="round" stroke-dasharray="1.36 1.36"/>
<path d="M44.399 9.07422L32.6852 9.07422" stroke="#222222" stroke-width="0.679485" stroke-linecap="round"/>
<path d="M62.3448 9.07422L50.6348 9.07422" stroke="#222222" stroke-width="0.679485" stroke-linecap="round" stroke-dasharray="1.36 1.36"/>
<rect x="0.906759" y="0.335836" width="28.3205" height="15.4743" rx="7.73717" stroke="#424242" stroke-width="0.679485"/>
<path d="M8.32125 7.49817L13.363 7.49817V8.02138H8.93958L8.93958 11.6294H8.32125L8.32125 7.49817ZM13.0369 7.49817H13.6348V10.9975C13.6348 11.147 13.6122 11.2603 13.5669 11.3373C13.5216 11.4188 13.4446 11.48 13.3358 11.5207C13.2226 11.5615 13.0731 11.5864 12.8874 11.5955C12.7062 11.6045 12.4729 11.6091 12.1875 11.6091C12.1785 11.5321 12.1558 11.4482 12.1196 11.3576C12.0833 11.2671 12.0448 11.1878 12.0041 11.1198C12.1354 11.1244 12.26 11.1266 12.3778 11.1266C12.5001 11.1312 12.6065 11.1312 12.6971 11.1266C12.7877 11.1266 12.8511 11.1266 12.8874 11.1266C12.9417 11.1266 12.9802 11.1153 13.0029 11.0927C13.0255 11.0745 13.0369 11.0406 13.0369 10.9907V7.49817ZM10.0064 9.1833H12.2351V10.7869H10.0064V10.3316H11.7051V9.64535H10.0064V9.1833ZM9.66663 9.1833H10.2102L10.2102 11.0859H9.66663L9.66663 9.1833ZM7.96112 6.03049L13.9814 6.03049V6.58087L7.96112 6.58087V6.03049ZM9.40163 6.73715L9.95201 6.55369C10.0245 6.67147 10.0992 6.80283 10.1762 6.94779C10.2578 7.09275 10.3212 7.21279 10.3665 7.30792L9.78893 7.53215C9.74816 7.42796 9.68928 7.30112 9.61227 7.15164C9.53979 6.99762 9.46957 6.85946 9.40163 6.73715ZM11.9497 6.59446L12.602 6.73036C12.4933 6.91155 12.38 7.09501 12.2623 7.28074C12.1445 7.46646 12.038 7.62275 11.9429 7.74958L11.4401 7.60689C11.5035 7.51176 11.5669 7.40531 11.6303 7.28753C11.6938 7.16976 11.7526 7.04971 11.807 6.92741C11.8659 6.8051 11.9135 6.69412 11.9497 6.59446ZM10.5296 5.44613L11.1343 5.29664C11.1932 5.43254 11.2521 5.58203 11.311 5.7451C11.3699 5.90818 11.4152 6.04861 11.4469 6.16638L10.815 6.34305C10.7878 6.22527 10.7447 6.08258 10.6859 5.91497C10.6315 5.74284 10.5794 5.58656 10.5296 5.44613ZM10.0403 7.76997H10.6043C10.5862 8.04629 10.5341 8.28185 10.448 8.47663C10.3665 8.67142 10.2283 8.83223 10.0335 8.95907C9.84329 9.0859 9.57376 9.18783 9.22496 9.26484C9.20231 9.20142 9.15928 9.12667 9.09586 9.04061C9.03697 8.95001 8.98035 8.87979 8.92599 8.82996C9.22043 8.77561 9.44466 8.70539 9.59868 8.61932C9.75269 8.53326 9.86141 8.42227 9.92483 8.28638C9.98825 8.14595 10.0268 7.97381 10.0403 7.76997ZM11.2226 7.78356L11.8002 7.78356V8.34753C11.8002 8.42001 11.807 8.4721 11.8206 8.50381C11.8342 8.53552 11.8704 8.55138 11.9293 8.55138C11.952 8.55138 11.9837 8.55138 12.0244 8.55138C12.0697 8.55138 12.1173 8.55138 12.1671 8.55138C12.2215 8.55138 12.2713 8.55138 12.3166 8.55138C12.3619 8.55138 12.3959 8.55138 12.4185 8.55138C12.4684 8.55138 12.5341 8.54911 12.6156 8.54458C12.6971 8.53552 12.7605 8.52646 12.8058 8.5174C12.8104 8.58988 12.8149 8.66462 12.8194 8.74163C12.824 8.81411 12.833 8.88659 12.8466 8.95907C12.8013 8.97266 12.7402 8.98398 12.6632 8.99304C12.5861 8.99757 12.5091 8.99984 12.4321 8.99984C12.4004 8.99984 12.3551 8.99984 12.2962 8.99984C12.2373 8.99984 12.1739 8.99984 12.106 8.99984C12.038 8.99984 11.9746 8.99984 11.9157 8.99984C11.8614 8.99984 11.8206 8.99984 11.7934 8.99984C11.6349 8.99984 11.5148 8.97492 11.4333 8.92509C11.3517 8.87526 11.2951 8.80279 11.2634 8.70766C11.2362 8.608 11.2226 8.48569 11.2226 8.34074V7.78356ZM18.7921 7.70202H21.2994V8.28638H18.7921V7.70202ZM17.3652 10.7189H20.6607V11.2897H17.3652V10.7189ZM18.4795 6.96818H19.1454V9.46868H18.4795V6.96818ZM17.0254 9.07458H20.9801V11.5479H20.321V9.67253H17.6506V11.5615H17.0254V9.07458ZM16.1489 6.13241H21.4965V6.74395H16.1489V6.13241ZM15.8567 6.13241H16.5158V7.89228C16.5158 8.16407 16.5068 8.46304 16.4887 8.7892C16.4705 9.11082 16.4366 9.4415 16.3867 9.78124C16.3369 10.121 16.2622 10.4517 16.1625 10.7733C16.0674 11.0949 15.9428 11.3848 15.7888 11.643C15.748 11.6068 15.6914 11.5638 15.6189 11.5139C15.551 11.4641 15.4808 11.4165 15.4083 11.3712C15.3358 11.3259 15.2724 11.2942 15.218 11.2761C15.363 11.0315 15.4785 10.7642 15.5646 10.4743C15.6506 10.1844 15.714 9.88996 15.7548 9.59099C15.7956 9.28748 15.8228 8.99078 15.8363 8.70086C15.8499 8.40642 15.8567 8.13689 15.8567 7.89228V6.13241ZM18.167 5.4869L18.8057 5.34421C18.9054 5.48916 18.996 5.64997 19.0775 5.82664C19.159 6.00331 19.2157 6.15959 19.2474 6.29549L18.5679 6.45856C18.5452 6.32266 18.4954 6.16412 18.4184 5.98292C18.3414 5.7972 18.2576 5.63185 18.167 5.4869Z" fill="#424242"/>
<rect x="65.8028" y="1.33779" width="28.3205" height="15.4705" stroke="#424242" stroke-width="0.679485"/>
<path d="M72.8979 6.83344L73.3056 6.50728C73.4052 6.59335 73.5094 6.69074 73.6181 6.79946C73.7314 6.90818 73.8356 7.0169 73.9307 7.12561C74.0304 7.2298 74.1096 7.32493 74.1685 7.411L73.7404 7.78471C73.6861 7.69412 73.6113 7.59446 73.5162 7.48574C73.4211 7.37249 73.3192 7.25925 73.2104 7.146C73.1063 7.03275 73.0021 6.92856 72.8979 6.83344ZM72.6601 8.63407L73.0474 8.29433C73.1561 8.37134 73.2671 8.4574 73.3803 8.55253C73.4936 8.64313 73.6 8.73826 73.6997 8.83792C73.8039 8.93304 73.8854 9.01911 73.9443 9.09612L73.5366 9.48343C73.4777 9.40189 73.3984 9.31129 73.2988 9.21163C73.2037 9.11198 73.0995 9.01232 72.9862 8.91266C72.873 8.80847 72.7643 8.71561 72.6601 8.63407ZM72.8028 12.0859C72.8888 11.9182 72.984 11.7189 73.0881 11.4879C73.1969 11.2524 73.3033 11.0055 73.4075 10.7473C73.5162 10.4845 73.6136 10.2331 73.6997 9.99304L74.1345 10.292C74.053 10.523 73.9647 10.7631 73.8695 11.0123C73.7744 11.2569 73.677 11.4992 73.5774 11.7393C73.4777 11.9749 73.3803 12.1946 73.2852 12.3984L72.8028 12.0859ZM74.2976 10.4347H76.9204V10.8832H74.2976V10.4347ZM74.8344 9.6533H76.438V10.0882H74.8344V9.6533ZM74.087 11.95C74.3316 11.9273 74.6147 11.9024 74.9363 11.8752C75.2625 11.848 75.6068 11.8186 75.9692 11.7869C76.3361 11.7506 76.7007 11.7144 77.0631 11.6782V12.1402C76.7143 12.181 76.3655 12.2195 76.0167 12.2557C75.6679 12.292 75.3327 12.3237 75.0111 12.3509C74.694 12.3826 74.4109 12.412 74.1617 12.4392L74.087 11.95ZM74.4879 11.1006L74.848 10.9579C74.916 11.0712 74.9771 11.1957 75.0315 11.3316C75.0904 11.4675 75.1334 11.5853 75.1606 11.685L74.7801 11.848C74.7529 11.7484 74.7121 11.6283 74.6577 11.4879C74.6034 11.343 74.5468 11.2138 74.4879 11.1006ZM76.3429 10.9443L76.7506 11.0802C76.6917 11.2342 76.6283 11.3883 76.5603 11.5423C76.4969 11.6918 76.438 11.8231 76.3836 11.9364L76.0303 11.8073C76.062 11.7257 76.096 11.6351 76.1322 11.5355C76.173 11.4358 76.2115 11.3339 76.2477 11.2297C76.2885 11.121 76.3202 11.0259 76.3429 10.9443ZM75.643 6.616L76.8185 6.616V7.05087L75.643 7.05087V6.616ZM76.703 6.616H77.1107C77.1107 6.616 77.1107 6.64091 77.1107 6.69074C77.1107 6.74057 77.1084 6.78361 77.1039 6.81985C77.0903 7.21848 77.0745 7.5401 77.0563 7.78471C77.0427 8.02933 77.0224 8.21732 76.9952 8.34869C76.9725 8.47552 76.9431 8.56612 76.9068 8.62048C76.8706 8.67937 76.8298 8.7224 76.7845 8.74958C76.7392 8.77223 76.6849 8.78809 76.6215 8.79715C76.5807 8.80168 76.5263 8.80394 76.4584 8.80394C76.3904 8.80394 76.318 8.80168 76.241 8.79715C76.241 8.73373 76.2319 8.66125 76.2138 8.57971C76.1957 8.49364 76.173 8.42343 76.1458 8.36907C76.2138 8.37813 76.2727 8.38493 76.3225 8.38946C76.3723 8.38946 76.4108 8.38946 76.438 8.38946C76.4924 8.39399 76.5331 8.37134 76.5603 8.32151C76.583 8.2898 76.6011 8.21732 76.6147 8.10407C76.6328 7.99082 76.6486 7.82322 76.6622 7.60125C76.6758 7.37476 76.6894 7.07352 76.703 6.69754V6.616ZM75.2693 6.33741L75.5954 6.69074C75.4278 6.80399 75.2376 6.90365 75.0247 6.98972C74.8118 7.07579 74.6079 7.15053 74.4131 7.21395C74.3995 7.15959 74.3792 7.09617 74.352 7.02369C74.3293 6.95121 74.3067 6.88779 74.284 6.83344C74.4607 6.77002 74.6396 6.69301 74.8208 6.60241C75.0066 6.51181 75.156 6.42348 75.2693 6.33741ZM74.916 7.45177L75.2761 7.32946C75.3531 7.49707 75.4256 7.68279 75.4935 7.88664C75.5615 8.08595 75.609 8.26035 75.6362 8.40984L75.2557 8.55933C75.233 8.40531 75.19 8.22638 75.1266 8.02253C75.0632 7.81869 74.993 7.62843 74.916 7.45177ZM75.3712 9.89112H75.8265V11.9568H75.3712V9.89112ZM74.2908 8.92625L74.2229 8.47099L74.3656 8.30112L75.2761 7.83228C75.2987 7.89117 75.3259 7.95685 75.3576 8.02933C75.3939 8.10181 75.4256 8.15843 75.4527 8.1992C75.1447 8.37134 74.9114 8.5027 74.7529 8.5933C74.5989 8.6839 74.4901 8.75411 74.4267 8.80394C74.3633 8.84924 74.318 8.89001 74.2908 8.92625ZM75.6022 8.48458L75.9488 8.68843C75.8219 8.88322 75.6679 9.07121 75.4867 9.2524C75.3101 9.42907 75.1221 9.59214 74.9227 9.74163C74.7234 9.88659 74.5241 10.0112 74.3248 10.1153C74.2931 10.0474 74.2501 9.97266 74.1957 9.89112C74.1413 9.80505 74.0892 9.73257 74.0394 9.67368C74.2297 9.58762 74.4222 9.48569 74.617 9.36791C74.8163 9.24561 75.002 9.10971 75.1742 8.96022C75.3463 8.81074 75.489 8.65219 75.6022 8.48458ZM75.446 9.07574L75.6974 8.7224C75.8604 8.79941 76.0326 8.89001 76.2138 8.9942C76.3995 9.09386 76.5739 9.19804 76.737 9.30676C76.9001 9.41095 77.0359 9.51061 77.1447 9.60573L76.8729 9.99984C76.7732 9.90471 76.6418 9.80279 76.4788 9.69407C76.3202 9.58082 76.1504 9.46984 75.9692 9.36112C75.788 9.2524 75.6136 9.15727 75.446 9.07574ZM77.3417 7.05767H77.8038V10.9783H77.3417V7.05767ZM78.1979 6.36459H78.7075V11.8888C78.7075 12.0519 78.6894 12.1765 78.6531 12.2625C78.6169 12.3486 78.5535 12.4143 78.4629 12.4596C78.3677 12.5049 78.2409 12.5321 78.0824 12.5411C77.9238 12.5547 77.7245 12.5615 77.4844 12.5615C77.4753 12.489 77.4572 12.3984 77.43 12.2897C77.4074 12.1855 77.3802 12.0927 77.3485 12.0111C77.5071 12.0156 77.6543 12.0179 77.7902 12.0179C77.9306 12.0179 78.0235 12.0179 78.0688 12.0179C78.1141 12.0134 78.1458 12.0043 78.1639 11.9907C78.1865 11.9726 78.1979 11.9386 78.1979 11.8888V6.36459ZM75.9895 6.86741H76.3904C76.3768 7.24339 76.3338 7.58313 76.2613 7.88664C76.1934 8.19014 76.0575 8.43702 75.8536 8.62728C75.831 8.58198 75.7925 8.52988 75.7381 8.47099C75.6838 8.41211 75.6317 8.36681 75.5818 8.3351C75.7404 8.18108 75.8446 7.97724 75.8944 7.72356C75.9488 7.46536 75.9805 7.17997 75.9895 6.86741ZM74.2908 8.92625C74.2772 8.86736 74.2523 8.79941 74.2161 8.7224C74.1798 8.64087 74.1436 8.57745 74.1074 8.53215C74.1527 8.5095 74.1912 8.47326 74.2229 8.42343C74.2591 8.36907 74.2772 8.27847 74.2772 8.15164V6.83344H74.7053V8.54574C74.7053 8.54574 74.6827 8.55933 74.6374 8.58651C74.5966 8.60916 74.549 8.64087 74.4947 8.68163C74.4448 8.71787 74.3973 8.75864 74.352 8.80394C74.3112 8.84471 74.2908 8.88548 74.2908 8.92625ZM81.8263 10.2377V10.5162H84.8161V10.2377H81.8263ZM81.8263 10.8628V11.1482H84.8161V10.8628H81.8263ZM81.8263 9.61932V9.89791H84.8161V9.61932H81.8263ZM81.2216 9.26599H85.448V11.5015H81.2216V9.26599ZM83.6881 11.2909H84.3132V11.8888C84.3132 11.9658 84.3336 12.0156 84.3744 12.0383C84.4197 12.0564 84.5171 12.0655 84.6666 12.0655C84.6983 12.0655 84.7572 12.0655 84.8432 12.0655C84.9338 12.0655 85.0312 12.0655 85.1354 12.0655C85.2396 12.0655 85.337 12.0655 85.4276 12.0655C85.5182 12.0655 85.5861 12.0655 85.6314 12.0655C85.713 12.0655 85.7741 12.0541 85.8149 12.0315C85.8557 12.0043 85.8851 11.95 85.9032 11.8684C85.9213 11.7869 85.9327 11.6623 85.9372 11.4947C86.0006 11.5355 86.0844 11.574 86.1886 11.6102C86.2973 11.6465 86.3925 11.6714 86.474 11.685C86.4513 11.9205 86.4128 12.1017 86.3585 12.2285C86.3087 12.3554 86.2316 12.4415 86.1275 12.4868C86.0233 12.5366 85.8806 12.5615 85.6994 12.5615C85.6677 12.5615 85.6133 12.5615 85.5363 12.5615C85.4638 12.5615 85.38 12.5615 85.2849 12.5615C85.1898 12.5615 85.0946 12.5615 84.9995 12.5615C84.9089 12.5615 84.8251 12.5615 84.7481 12.5615C84.6756 12.5615 84.6258 12.5615 84.5986 12.5615C84.3585 12.5615 84.1705 12.5411 84.0346 12.5003C83.9033 12.4641 83.8127 12.3984 83.7628 12.3033C83.713 12.2082 83.6881 12.0723 83.6881 11.8956V11.2909ZM82.2136 11.3248H82.8455C82.8002 11.5241 82.7278 11.6985 82.6281 11.848C82.533 11.993 82.3948 12.1176 82.2136 12.2218C82.037 12.3259 81.8059 12.412 81.5205 12.48C81.2352 12.5479 80.8818 12.6023 80.4606 12.643C80.4424 12.5706 80.4039 12.4845 80.345 12.3848C80.2862 12.2852 80.2318 12.2059 80.182 12.147C80.5534 12.1244 80.8614 12.0927 81.1061 12.0519C81.3507 12.0111 81.5477 11.959 81.6972 11.8956C81.8512 11.8322 81.9667 11.7552 82.0438 11.6646C82.1208 11.5694 82.1774 11.4562 82.2136 11.3248ZM83.9871 7.36343H86.0459V7.74395H83.9871V7.36343ZM83.9531 6.71113H86.3789V7.13241H83.9531V6.71113ZM81.6768 6.71792H82.1864V7.35664H81.6768V6.71792ZM81.6768 8.08369H82.1864V8.73599H81.6768V8.08369ZM80.8479 7.23433H83.0902V8.28753H80.8479V7.9342H82.5466V7.60125H80.8479V7.23433ZM85.4412 8.30112V8.7224H85.8081V8.30112H85.4412ZM84.7345 8.30112V8.7224H85.1014V8.30112H84.7345ZM84.0414 8.30112V8.7224H84.3948V8.30112H84.0414ZM83.5998 7.97497H86.2701V9.04856H83.5998V7.97497ZM83.9395 6.34421L84.5035 6.43254C84.4084 6.68168 84.2861 6.9263 84.1366 7.16638C83.9871 7.40194 83.7923 7.61937 83.5522 7.81869C83.5024 7.7598 83.4344 7.69412 83.3484 7.62164C83.2668 7.54463 83.1921 7.49027 83.1241 7.45856C83.337 7.29549 83.5092 7.11429 83.6405 6.91497C83.7719 6.71566 83.8716 6.5254 83.9395 6.34421ZM83.26 6.55485V6.94215H81.0653V8.63407H83.3144V9.01458H80.5081V6.55485H83.26Z" fill="#424242"/>
<rect x="65.8028" y="23.4882" width="43.3205" height="15.4705" stroke="#424242" stroke-width="0.679485"/>
<path d="M77.2466 29.0042L77.7358 28.6713C77.8627 28.7755 77.994 28.8955 78.1299 29.0314C78.2658 29.1628 78.3927 29.2964 78.5104 29.4323C78.6282 29.5637 78.7233 29.6814 78.7958 29.7856L78.2726 30.1525C78.2092 30.0438 78.1209 29.9238 78.0076 29.7924C77.8989 29.6565 77.7766 29.5206 77.6407 29.3847C77.5093 29.2443 77.378 29.1175 77.2466 29.0042ZM72.8231 30.4651H78.9113V31.0698H72.8231V30.4651ZM72.7076 32.422C72.9794 32.3767 73.2942 32.3201 73.6521 32.2521C74.0145 32.1842 74.3973 32.1117 74.8004 32.0347C75.2036 31.9577 75.6045 31.8784 76.0031 31.7969L76.0507 32.3813C75.6838 32.4628 75.3101 32.5443 74.9295 32.6259C74.5536 32.7074 74.1912 32.7867 73.8424 32.8637C73.4936 32.9407 73.1742 33.0109 72.8843 33.0743L72.7076 32.422ZM74.2093 29.242H74.8548V34.0052C74.8548 34.1955 74.8299 34.3404 74.7801 34.4401C74.7348 34.5443 74.651 34.6213 74.5286 34.6711C74.4063 34.7255 74.2478 34.7594 74.053 34.773C73.8628 34.7912 73.6272 34.798 73.3463 34.7934C73.3373 34.7345 73.3192 34.6666 73.292 34.5896C73.2693 34.5126 73.2422 34.4333 73.2104 34.3518C73.1787 34.2748 73.147 34.2068 73.1153 34.1479C73.3192 34.1524 73.5094 34.157 73.6861 34.1615C73.8673 34.1615 73.9873 34.1592 74.0462 34.1547C74.1096 34.1502 74.1527 34.1389 74.1753 34.1207C74.198 34.0981 74.2093 34.0596 74.2093 34.0052V29.242ZM75.5411 28.549L75.9895 29.0925C75.7132 29.1831 75.4074 29.2669 75.0722 29.344C74.737 29.4164 74.3928 29.4821 74.0394 29.541C73.6906 29.5999 73.3509 29.6497 73.0202 29.6905C73.0066 29.6135 72.9817 29.5229 72.9454 29.4187C72.9092 29.3145 72.8707 29.2262 72.8299 29.1537C73.1516 29.1039 73.4777 29.0495 73.8084 28.9906C74.1436 28.9272 74.4607 28.8593 74.7597 28.7868C75.0586 28.7098 75.3191 28.6305 75.5411 28.549ZM76.2206 28.5422H76.8933C76.8842 29.131 76.9023 29.7018 76.9476 30.2545C76.9929 30.8071 77.0563 31.3213 77.1379 31.7969C77.2239 32.268 77.3236 32.6825 77.4368 33.0404C77.5546 33.3937 77.6815 33.67 77.8174 33.8693C77.9533 34.0641 78.0937 34.1615 78.2386 34.1615C78.3247 34.1615 78.3881 34.0709 78.4289 33.8897C78.4742 33.704 78.5059 33.4005 78.524 32.9792C78.592 33.0517 78.6758 33.1219 78.7754 33.1898C78.8796 33.2578 78.9747 33.3076 79.0608 33.3393C79.0246 33.7244 78.9725 34.0233 78.9045 34.2362C78.8411 34.4537 78.7505 34.6054 78.6327 34.6915C78.515 34.7776 78.3632 34.8206 78.1775 34.8206C77.951 34.8206 77.7449 34.7391 77.5592 34.576C77.378 34.4129 77.2149 34.1864 77.0699 33.8965C76.925 33.6021 76.8004 33.2578 76.6962 32.8637C76.592 32.4696 76.5037 32.0392 76.4312 31.5727C76.3633 31.1061 76.3112 30.6169 76.2749 30.105C76.2432 29.5886 76.2251 29.0676 76.2206 28.5422ZM78.062 31.3484L78.6327 31.5863C78.4062 32.0075 78.1344 32.4016 77.8174 32.7686C77.5048 33.1355 77.1583 33.4707 76.7777 33.7742C76.4018 34.0732 76.0054 34.3336 75.5886 34.5556C75.5433 34.4786 75.4799 34.3903 75.3984 34.2906C75.3169 34.1955 75.2353 34.1117 75.1538 34.0392C75.5524 33.8535 75.9352 33.6224 76.3021 33.3461C76.669 33.0698 77.0042 32.7618 77.3077 32.422C77.6112 32.0823 77.8627 31.7244 78.062 31.3484ZM80.8614 29.5818H82.9407V34.0868H80.8614V33.5092H82.3495V30.1525H80.8614V29.5818ZM80.4877 29.5818H81.0789V34.61H80.4877V29.5818ZM80.8343 31.4436H82.6485V32.0007H80.8343V31.4436ZM81.4934 28.4742L82.1932 28.5897C82.1208 28.8072 82.0438 29.0269 81.9622 29.2488C81.8807 29.4708 81.8059 29.6588 81.738 29.8128L81.2284 29.6905C81.2601 29.5772 81.2941 29.4504 81.3303 29.31C81.3665 29.165 81.3982 29.0201 81.4254 28.8751C81.4571 28.7256 81.4798 28.592 81.4934 28.4742ZM83.8784 29.5478L85.9168 29.5478V30.139L83.8784 30.139V29.5478ZM85.6926 29.5478H86.2905C86.2905 29.5478 86.2905 29.5682 86.2905 29.609C86.2905 29.6452 86.2905 29.6882 86.2905 29.7381C86.2905 29.7879 86.2905 29.8264 86.2905 29.8536C86.2679 30.6282 86.243 31.285 86.2158 31.8241C86.1886 32.3586 86.1569 32.798 86.1207 33.1423C86.089 33.4865 86.0482 33.7538 85.9984 33.9441C85.9531 34.1343 85.8964 34.2725 85.8285 34.3586C85.7424 34.4718 85.6541 34.5488 85.5635 34.5896C85.4729 34.6349 85.3619 34.6666 85.2305 34.6847C85.1128 34.6983 84.9587 34.7028 84.7685 34.6983C84.5828 34.6983 84.3925 34.6938 84.1977 34.6847C84.1932 34.5941 84.1705 34.4877 84.1298 34.3653C84.0935 34.2476 84.0437 34.1456 83.9803 34.0596C84.2023 34.0777 84.4061 34.089 84.5918 34.0936C84.7775 34.0981 84.9134 34.1003 84.9995 34.1003C85.0675 34.1003 85.1218 34.0936 85.1626 34.08C85.2079 34.0664 85.2509 34.0369 85.2917 33.9916C85.346 33.9282 85.3936 33.8059 85.4344 33.6247C85.4752 33.439 85.5114 33.1785 85.5431 32.8433C85.5748 32.5036 85.602 32.0732 85.6246 31.5523C85.6518 31.0313 85.6745 30.4062 85.6926 29.6769V29.5478ZM83.9667 28.4742L84.585 28.6169C84.499 28.9521 84.3948 29.2828 84.2725 29.609C84.1547 29.9351 84.0256 30.2431 83.8852 30.5331C83.7447 30.8184 83.5952 31.0698 83.4367 31.2873C83.4005 31.251 83.3484 31.2103 83.2804 31.165C83.217 31.1151 83.1513 31.0676 83.0834 31.0223C83.0199 30.977 82.9611 30.9407 82.9067 30.9136C83.0607 30.7188 83.2034 30.49 83.3348 30.2273C83.4707 29.9645 83.5907 29.6837 83.6949 29.3847C83.8036 29.0812 83.8942 28.7777 83.9667 28.4742ZM83.6405 31.4028L84.1434 31.1174C84.2657 31.2714 84.3925 31.4436 84.5239 31.6338C84.6598 31.8195 84.7843 32.0007 84.8976 32.1774C85.0154 32.3541 85.1105 32.5104 85.183 32.6463L84.6394 32.986C84.576 32.8456 84.4876 32.6848 84.3744 32.5036C84.2611 32.3224 84.1411 32.1344 84.0143 31.9396C83.8874 31.7448 83.7628 31.5659 83.6405 31.4028ZM88.1659 30.6486H93.2077V31.1718H88.7842V34.7798H88.1659V30.6486ZM92.8815 30.6486H93.4795V34.1479C93.4795 34.2974 93.4568 34.4106 93.4115 34.4877C93.3662 34.5692 93.2892 34.6303 93.1805 34.6711C93.0673 34.7119 92.9178 34.7368 92.7321 34.7459C92.5509 34.7549 92.3176 34.7594 92.0322 34.7594C92.0231 34.6824 92.0005 34.5986 91.9642 34.508C91.928 34.4174 91.8895 34.3382 91.8487 34.2702C91.9801 34.2748 92.1047 34.277 92.2224 34.277C92.3447 34.2815 92.4512 34.2815 92.5418 34.277C92.6324 34.277 92.6958 34.277 92.7321 34.277C92.7864 34.277 92.8249 34.2657 92.8476 34.243C92.8702 34.2249 92.8815 34.1909 92.8815 34.1411V30.6486ZM89.851 32.3337H92.0797V33.9373H89.851V33.482H91.5497V32.7957H89.851V32.3337ZM89.5113 32.3337H90.0549V34.2362H89.5113V32.3337ZM87.8058 29.1809H93.826V29.7313H87.8058V29.1809ZM89.2463 29.8875L89.7967 29.7041C89.8692 29.8219 89.9439 29.9532 90.0209 30.0982C90.1024 30.2431 90.1659 30.3632 90.2112 30.4583L89.6336 30.6825C89.5928 30.5784 89.5339 30.4515 89.4569 30.302C89.3845 30.148 89.3142 30.0098 89.2463 29.8875ZM91.7944 29.7448L92.4467 29.8807C92.338 30.0619 92.2247 30.2454 92.1069 30.4311C91.9891 30.6169 91.8827 30.7731 91.7876 30.9L91.2847 30.7573C91.3482 30.6622 91.4116 30.5557 91.475 30.4379C91.5384 30.3201 91.5973 30.2001 91.6517 30.0778C91.7106 29.9555 91.7581 29.8445 91.7944 29.7448ZM90.3742 28.5965L90.979 28.447C91.0379 28.5829 91.0968 28.7324 91.1556 28.8955C91.2145 29.0586 91.2598 29.199 91.2915 29.3168L90.6596 29.4934C90.6324 29.3757 90.5894 29.233 90.5305 29.0654C90.4762 28.8932 90.4241 28.7369 90.3742 28.5965ZM89.885 30.9204H90.449C90.4309 31.1967 90.3788 31.4322 90.2927 31.627C90.2112 31.8218 90.073 31.9826 89.8782 32.1095C89.688 32.2363 89.4184 32.3382 89.0696 32.4152C89.047 32.3518 89.0039 32.2771 88.9405 32.191C88.8816 32.1004 88.825 32.0302 88.7707 31.9804C89.0651 31.926 89.2893 31.8558 89.4433 31.7697C89.5974 31.6836 89.7061 31.5727 89.7695 31.4368C89.8329 31.2963 89.8714 31.1242 89.885 30.9204ZM91.0673 30.9339H91.6449V31.4979C91.6449 31.5704 91.6517 31.6225 91.6653 31.6542C91.6789 31.6859 91.7151 31.7018 91.774 31.7018C91.7966 31.7018 91.8283 31.7018 91.8691 31.7018C91.9144 31.7018 91.962 31.7018 92.0118 31.7018C92.0662 31.7018 92.116 31.7018 92.1613 31.7018C92.2066 31.7018 92.2406 31.7018 92.2632 31.7018C92.313 31.7018 92.3787 31.6995 92.4603 31.695C92.5418 31.6859 92.6052 31.6769 92.6505 31.6678C92.655 31.7403 92.6596 31.815 92.6641 31.892C92.6686 31.9645 92.6777 32.037 92.6913 32.1095C92.646 32.123 92.5848 32.1344 92.5078 32.1434C92.4308 32.148 92.3538 32.1502 92.2768 32.1502C92.2451 32.1502 92.1998 32.1502 92.1409 32.1502C92.082 32.1502 92.0186 32.1502 91.9506 32.1502C91.8827 32.1502 91.8193 32.1502 91.7604 32.1502C91.706 32.1502 91.6653 32.1502 91.6381 32.1502C91.4795 32.1502 91.3595 32.1253 91.278 32.0755C91.1964 32.0257 91.1398 31.9532 91.1081 31.858C91.0809 31.7584 91.0673 31.6361 91.0673 31.4911V30.9339ZM98.6368 30.8524H101.144V31.4368H98.6368V30.8524ZM97.2099 33.8693H100.505V34.4401H97.2099V33.8693ZM98.3242 30.1186H98.9901V32.6191H98.3242V30.1186ZM96.8701 32.225L100.825 32.225V34.6983H100.166V32.8229H97.4952V34.7119H96.8701V32.225ZM95.9936 29.2828H101.341V29.8943H95.9936V29.2828ZM95.7014 29.2828H96.3605V31.0427C96.3605 31.3145 96.3514 31.6134 96.3333 31.9396C96.3152 32.2612 96.2812 32.5919 96.2314 32.9316C96.1816 33.2714 96.1068 33.6021 96.0072 33.9237C95.912 34.2453 95.7875 34.5352 95.6335 34.7934C95.5927 34.7572 95.5361 34.7142 95.4636 34.6643C95.3956 34.6145 95.3254 34.5669 95.2529 34.5216C95.1805 34.4763 95.117 34.4446 95.0627 34.4265C95.2076 34.1819 95.3232 33.9146 95.4092 33.6247C95.4953 33.3348 95.5587 33.0404 95.5995 32.7414C95.6402 32.4379 95.6674 32.1412 95.681 31.8513C95.6946 31.5568 95.7014 31.2873 95.7014 31.0427V29.2828ZM98.0117 28.6373L98.6504 28.4946C98.75 28.6396 98.8406 28.8004 98.9222 28.977C99.0037 29.1537 99.0603 29.31 99.092 29.4459L98.4125 29.609C98.3899 29.4731 98.3401 29.3145 98.2631 29.1333C98.1861 28.9476 98.1023 28.7822 98.0117 28.6373Z" fill="#424242"/>
<rect x="65.8028" y="45.6386" width="43.3205" height="15.4705" stroke="#424242" stroke-width="0.679485"/>
<path d="M76.8321 53.4784L77.4844 53.6687C77.2307 54.2802 76.8955 54.8012 76.4788 55.2315C76.0665 55.6573 75.5818 56.0084 75.0247 56.2847C74.4675 56.5565 73.8469 56.7785 73.1629 56.9506C73.1402 56.9008 73.1063 56.8396 73.061 56.7671C73.0157 56.6947 72.9658 56.6222 72.9115 56.5497C72.8616 56.4772 72.8163 56.4183 72.7756 56.373C73.446 56.2371 74.0485 56.0492 74.583 55.8091C75.1175 55.5645 75.5751 55.2519 75.9556 54.8714C76.3361 54.4909 76.6283 54.0266 76.8321 53.4784ZM74.5626 52.3165L75.1877 52.5611C75.0292 52.7559 74.848 52.9507 74.6442 53.1455C74.4448 53.3403 74.2365 53.5237 74.019 53.6959C73.8016 53.8635 73.5932 54.013 73.3939 54.1443C73.3577 54.099 73.3078 54.0469 73.2444 53.9881C73.181 53.9292 73.1176 53.8703 73.0542 53.8114C72.9907 53.748 72.9341 53.7004 72.8843 53.6687C73.0881 53.56 73.292 53.4331 73.4958 53.2882C73.7042 53.1387 73.9013 52.9824 74.087 52.8193C74.2727 52.6517 74.4313 52.4841 74.5626 52.3165ZM74.916 53.5124C75.2285 54.2734 75.7245 54.8918 76.404 55.3674C77.0835 55.8385 77.9397 56.1579 78.9725 56.3255C78.9317 56.3663 78.8841 56.4206 78.8298 56.4886C78.78 56.561 78.7324 56.6335 78.6871 56.706C78.6418 56.7785 78.6056 56.8442 78.5784 56.903C77.8581 56.7671 77.2262 56.561 76.6826 56.2847C76.1436 56.0039 75.6792 55.6483 75.2897 55.2179C74.9046 54.7876 74.5875 54.2802 74.3384 53.6959L74.916 53.5124ZM72.8911 51.5419H78.8162V52.167H72.8911V51.5419ZM76.5943 52.6631L77.1039 52.2961C77.3032 52.432 77.5139 52.586 77.7358 52.7582C77.9623 52.9303 78.1752 53.1025 78.3745 53.2746C78.5738 53.4467 78.7347 53.6053 78.857 53.7502L78.3134 54.1715C78.2001 54.0266 78.0484 53.8657 77.8581 53.6891C77.6679 53.5079 77.4618 53.329 77.2398 53.1523C77.0178 52.9711 76.8027 52.808 76.5943 52.6631ZM75.2489 50.7741L75.8604 50.5634C75.9556 50.7039 76.0507 50.8602 76.1458 51.0323C76.2409 51.2044 76.3112 51.3517 76.3565 51.474L75.7177 51.7186C75.677 51.5917 75.6113 51.44 75.5207 51.2633C75.4346 51.0867 75.344 50.9236 75.2489 50.7741ZM83.029 51.8545L83.4367 51.5011C83.6496 51.5781 83.8784 51.6665 84.123 51.7661C84.3676 51.8658 84.6009 51.9677 84.8228 52.0719C85.0493 52.1761 85.2396 52.2735 85.3936 52.3641L84.9587 52.7582C84.8183 52.6721 84.6371 52.5747 84.4152 52.466C84.1977 52.3573 83.9667 52.2486 83.7221 52.1399C83.482 52.0311 83.251 51.936 83.029 51.8545ZM82.3835 52.3437H85.8353V52.8193H82.9611V55.8498H82.3835V52.3437ZM85.611 52.3437H86.1886V55.2859C86.1886 55.4263 86.1705 55.5328 86.1343 55.6052C86.1025 55.6777 86.0391 55.7366 85.944 55.7819C85.8534 55.8227 85.7334 55.8476 85.5839 55.8566C85.4389 55.8657 85.2577 55.8702 85.0403 55.8702C85.0312 55.7932 85.0108 55.7094 84.9791 55.6188C84.9474 55.5282 84.9134 55.4489 84.8772 55.381C85.0176 55.3855 85.1467 55.3878 85.2645 55.3878C85.3823 55.3878 85.4616 55.3878 85.5023 55.3878C85.5431 55.3833 85.5703 55.3742 85.5839 55.3606C85.602 55.347 85.611 55.3198 85.611 55.2791V52.3437ZM82.4243 50.8964H85.7469V51.3788H82.4243V50.8964ZM82.73 53.3222H85.8081V53.7842H82.73V53.3222ZM82.73 54.3006H85.8081V54.7831H82.73V54.3006ZM83.9803 52.5543H84.5375V55.8363H83.9803V52.5543ZM85.5295 50.8964H85.6722L85.8013 50.8624L86.1886 51.1682C86.0346 51.3131 85.8602 51.4581 85.6654 51.6031C85.4706 51.748 85.2668 51.8839 85.0539 52.0108C84.841 52.1331 84.6303 52.2418 84.422 52.3369C84.3812 52.278 84.3268 52.2123 84.2589 52.1399C84.1955 52.0674 84.1388 52.0108 84.089 51.97C84.2702 51.8884 84.4514 51.7933 84.6326 51.6846C84.8183 51.5759 84.9905 51.4626 85.149 51.3449C85.3075 51.2271 85.4344 51.1161 85.5295 51.0119V50.8964ZM80.4606 50.9304L80.9362 50.6382C81.0449 50.7469 81.1536 50.8647 81.2623 50.9915C81.3756 51.1184 81.482 51.2407 81.5817 51.3584C81.6814 51.4762 81.7629 51.5804 81.8263 51.671L81.3371 52.0243C81.2737 51.9292 81.1921 51.8182 81.0925 51.6914C80.9973 51.5646 80.8932 51.4355 80.7799 51.3041C80.6712 51.1682 80.5647 51.0436 80.4606 50.9304ZM80.2431 52.2146H81.7108V52.7378H80.2431V52.2146ZM81.5341 55.2587C81.6655 55.5577 81.8467 55.7796 82.0777 55.9246C82.3088 56.0695 82.5896 56.1647 82.9203 56.21C83.2555 56.2553 83.6383 56.2779 84.0686 56.2779C84.3087 56.2779 84.576 56.2734 84.8704 56.2643C85.1649 56.2553 85.4616 56.2439 85.7605 56.2304C86.0595 56.2168 86.329 56.1986 86.5691 56.176C86.5374 56.2213 86.508 56.2802 86.4808 56.3527C86.4536 56.4251 86.4287 56.4999 86.406 56.5769C86.3879 56.6539 86.3721 56.7218 86.3585 56.7807C86.1365 56.7943 85.8964 56.8057 85.6382 56.8147C85.38 56.8238 85.1173 56.8306 84.85 56.8351C84.5828 56.8396 84.32 56.8419 84.0618 56.8419C83.6632 56.8419 83.3076 56.8238 82.995 56.7875C82.687 56.7513 82.4129 56.6856 82.1729 56.5905C81.9373 56.4954 81.7312 56.3572 81.5545 56.176C81.3779 55.9903 81.2261 55.7457 81.0993 55.4422L81.5341 55.2587ZM81.507 53.8861H81.6632L81.7652 53.8725L82.0777 53.9881C81.9645 54.7264 81.772 55.3425 81.5002 55.8363C81.2284 56.3255 80.9 56.6992 80.5149 56.9574C80.4877 56.9121 80.4492 56.86 80.3994 56.8011C80.3496 56.7468 80.2975 56.6924 80.2431 56.638C80.1888 56.5882 80.1389 56.5497 80.0936 56.5225C80.4606 56.296 80.7663 55.9699 81.0109 55.5441C81.2555 55.1183 81.4209 54.6019 81.507 53.9948V53.8861ZM80.3518 54.4977V54.022L80.6168 53.8861H81.704V54.3957H80.7663C80.6803 54.3957 80.5964 54.4071 80.5149 54.4297C80.4334 54.4478 80.379 54.4705 80.3518 54.4977ZM80.3518 54.4977C80.3428 54.4478 80.3224 54.389 80.2907 54.321C80.2635 54.2531 80.2363 54.1851 80.2091 54.1172C80.182 54.0447 80.157 53.9881 80.1344 53.9473C80.1888 53.9337 80.2431 53.9133 80.2975 53.8861C80.3518 53.8544 80.4107 53.8046 80.4741 53.7366C80.5285 53.6868 80.6032 53.6007 80.6984 53.4784C80.7935 53.3561 80.8954 53.2202 81.0041 53.0707C81.1174 52.9167 81.2216 52.7695 81.3167 52.6291C81.4164 52.4841 81.4956 52.3663 81.5545 52.2758V52.2554L81.738 52.1806L82.1389 52.3641C82.0573 52.4819 81.9599 52.62 81.8467 52.7786C81.738 52.9326 81.6225 53.0934 81.5002 53.261C81.3779 53.4241 81.2555 53.5826 81.1332 53.7366C81.0155 53.8861 80.9067 54.0152 80.8071 54.124C80.8071 54.124 80.7844 54.1375 80.7391 54.1647C80.6938 54.1874 80.6395 54.2191 80.5761 54.2598C80.5172 54.2961 80.4651 54.3369 80.4198 54.3822C80.3745 54.4229 80.3518 54.4614 80.3518 54.4977ZM93.3232 50.6858L93.7105 51.2293C93.4342 51.3154 93.1216 51.3947 92.7728 51.4672C92.4285 51.5351 92.073 51.5963 91.706 51.6506C91.3436 51.7005 90.9948 51.7435 90.6596 51.7797C90.646 51.7027 90.6211 51.6144 90.5849 51.5147C90.5486 51.4105 90.5124 51.3222 90.4762 51.2497C90.7253 51.2225 90.979 51.1886 91.2372 51.1478C91.4999 51.1025 91.7559 51.0572 92.005 51.0119C92.2587 50.9621 92.4965 50.91 92.7185 50.8556C92.945 50.8013 93.1465 50.7446 93.3232 50.6858ZM90.8023 52.9009H93.9551V53.5124H90.8023V52.9009ZM92.2428 53.2338H92.8815V56.9098H92.2428V53.2338ZM87.6359 54.1783C87.8488 54.1285 88.0889 54.0696 88.3562 54.0016C88.628 53.9292 88.9156 53.8522 89.2191 53.7706C89.5226 53.6846 89.8239 53.6007 90.1228 53.5192L90.1976 54.1104C89.7854 54.2372 89.3663 54.3618 88.9405 54.4841C88.5192 54.6019 88.141 54.706 87.8058 54.7966L87.6359 54.1783ZM87.7378 51.97H90.15V52.5679H87.7378V51.97ZM88.6416 50.6382H89.2735V56.2032C89.2735 56.3663 89.2531 56.4931 89.2123 56.5837C89.1761 56.6743 89.1059 56.7468 89.0017 56.8011C88.902 56.8464 88.7752 56.8759 88.6212 56.8895C88.4672 56.9076 88.2724 56.9166 88.0368 56.9166C88.0278 56.8306 88.0051 56.7309 87.9689 56.6177C87.9326 56.5044 87.8941 56.4048 87.8533 56.3187C87.9938 56.3232 88.1274 56.3277 88.2542 56.3323C88.3811 56.3323 88.4672 56.3323 88.5124 56.3323C88.5577 56.3277 88.5895 56.3164 88.6076 56.2983C88.6302 56.2802 88.6416 56.2485 88.6416 56.2032V50.6382ZM90.4762 51.2497H91.1081V53.3561C91.1081 53.7729 91.0877 54.1874 91.0469 54.5996C91.0107 55.0118 90.9314 55.415 90.8091 55.8091C90.6913 56.2032 90.5101 56.5814 90.2655 56.9438C90.2021 56.8759 90.1206 56.8034 90.0209 56.7264C89.9212 56.6494 89.8307 56.5837 89.7491 56.5293C89.9665 56.1941 90.1251 55.8498 90.2248 55.4965C90.3289 55.1386 90.3969 54.7808 90.4286 54.4229C90.4603 54.0605 90.4762 53.7049 90.4762 53.3561V51.2497ZM97.8486 51.2022H101.042V56.6856H100.376V51.8137H98.4873V56.74H97.8486V51.2022ZM98.2155 55.5237H100.702V56.1352H98.2155V55.5237ZM95.0763 54.2938C95.2847 54.244 95.5202 54.1851 95.7829 54.1172C96.0502 54.0492 96.3311 53.9745 96.6255 53.8929C96.9245 53.8114 97.2189 53.7298 97.5088 53.6483L97.5904 54.2395C97.1827 54.3618 96.7682 54.4818 96.3469 54.5996C95.9302 54.7174 95.5564 54.8261 95.2258 54.9257L95.0763 54.2938ZM95.1646 51.8477L97.5088 51.8477V52.4456L95.1646 52.4456V51.8477ZM96.0955 50.6382H96.7478V56.21C96.7478 56.3776 96.7274 56.5067 96.6867 56.5973C96.6459 56.6924 96.5734 56.7671 96.4692 56.8215C96.3696 56.8713 96.2405 56.903 96.0819 56.9166C95.9279 56.9348 95.7331 56.9415 95.4976 56.937C95.4885 56.851 95.4636 56.749 95.4228 56.6313C95.3866 56.518 95.3458 56.4161 95.3005 56.3255C95.4455 56.33 95.5814 56.3345 95.7082 56.3391C95.835 56.3391 95.9211 56.3368 95.9664 56.3323C96.0117 56.3323 96.0434 56.3232 96.0615 56.3051C96.0842 56.287 96.0955 56.253 96.0955 56.2032V50.6382Z" fill="#424242"/>
<rect x="65.8028" y="67.789" width="43.3205" height="15.4705" stroke="#43B71B" stroke-width="0.679485"/>
<path d="M76.8321 75.6288L77.4844 75.8191C77.2307 76.4306 76.8955 76.9516 76.4788 77.3819C76.0665 77.8077 75.5818 78.1588 75.0247 78.4351C74.4675 78.7069 73.8469 78.9289 73.1629 79.101C73.1402 79.0512 73.1063 78.99 73.061 78.9175C73.0157 78.8451 72.9658 78.7726 72.9115 78.7001C72.8616 78.6276 72.8163 78.5687 72.7756 78.5234C73.446 78.3875 74.0485 78.1995 74.583 77.9595C75.1175 77.7149 75.5751 77.4023 75.9556 77.0218C76.3361 76.6413 76.6283 76.1769 76.8321 75.6288ZM74.5626 74.4669L75.1877 74.7115C75.0292 74.9063 74.848 75.1011 74.6442 75.2959C74.4448 75.4907 74.2365 75.6741 74.019 75.8463C73.8016 76.0139 73.5932 76.1634 73.3939 76.2947C73.3577 76.2494 73.3078 76.1973 73.2444 76.1384C73.181 76.0796 73.1176 76.0207 73.0542 75.9618C72.9907 75.8984 72.9341 75.8508 72.8843 75.8191C73.0881 75.7104 73.292 75.5835 73.4958 75.4386C73.7042 75.2891 73.9013 75.1328 74.087 74.9697C74.2727 74.8021 74.4313 74.6345 74.5626 74.4669ZM74.916 75.6628C75.2285 76.4238 75.7245 77.0422 76.404 77.5178C77.0835 77.9889 77.9397 78.3083 78.9725 78.4759C78.9317 78.5166 78.8841 78.571 78.8298 78.6389C78.78 78.7114 78.7324 78.7839 78.6871 78.8564C78.6418 78.9289 78.6056 78.9945 78.5784 79.0534C77.8581 78.9175 77.2262 78.7114 76.6826 78.4351C76.1436 78.1543 75.6792 77.7987 75.2897 77.3683C74.9046 76.938 74.5875 76.4306 74.3384 75.8463L74.916 75.6628ZM72.8911 73.6923H78.8162V74.3174H72.8911V73.6923ZM76.5943 74.8134L77.1039 74.4465C77.3032 74.5824 77.5139 74.7364 77.7358 74.9086C77.9623 75.0807 78.1752 75.2528 78.3745 75.425C78.5738 75.5971 78.7347 75.7557 78.857 75.9006L78.3134 76.3219C78.2001 76.1769 78.0484 76.0161 77.8581 75.8395C77.6679 75.6583 77.4618 75.4793 77.2398 75.3027C77.0178 75.1215 76.8027 74.9584 76.5943 74.8134ZM75.2489 72.9245L75.8604 72.7138C75.9556 72.8543 76.0507 73.0105 76.1458 73.1827C76.2409 73.3548 76.3112 73.502 76.3565 73.6243L75.7177 73.869C75.677 73.7421 75.6113 73.5904 75.5207 73.4137C75.4346 73.237 75.344 73.074 75.2489 72.9245ZM81.7991 74.6708V75.2415H84.9384V74.6708H81.7991ZM81.7991 73.6176V74.1747H84.9384V73.6176H81.7991ZM81.1672 73.0944H85.5975V75.7647H81.1672V73.0944ZM81.5681 76.2743H85.5975V76.8383H81.5681V76.2743ZM85.4412 76.2743H86.0935C86.0935 76.2743 86.0912 76.2902 86.0867 76.3219C86.0867 76.3536 86.0844 76.3921 86.0799 76.4374C86.0799 76.4782 86.0776 76.5122 86.0731 76.5393C86.0278 77.0422 85.9802 77.4521 85.9304 77.7692C85.8806 78.0863 85.8262 78.3309 85.7673 78.5031C85.713 78.6752 85.6496 78.7998 85.5771 78.8768C85.5091 78.9538 85.4344 79.0059 85.3528 79.0331C85.2713 79.0648 85.1784 79.0851 85.0743 79.0942C84.9837 79.1033 84.8614 79.1078 84.7073 79.1078C84.5578 79.1078 84.397 79.1033 84.2249 79.0942C84.2204 79.0127 84.2023 78.9198 84.1705 78.8156C84.1434 78.7114 84.1049 78.6208 84.055 78.5438C84.2136 78.5574 84.3608 78.5665 84.4967 78.571C84.6326 78.5755 84.73 78.5778 84.7889 78.5778C84.8478 78.5778 84.8953 78.571 84.9316 78.5574C84.9678 78.5484 85.0018 78.528 85.0335 78.4963C85.0878 78.4419 85.1377 78.3377 85.183 78.1837C85.2328 78.0297 85.2781 77.8054 85.3189 77.511C85.3642 77.2166 85.4049 76.836 85.4412 76.3695V76.2743ZM82.037 75.4861L82.6553 75.6832C82.4922 75.955 82.2997 76.2177 82.0777 76.4714C81.8603 76.7205 81.6293 76.9493 81.3847 77.1577C81.14 77.366 80.8932 77.5495 80.644 77.7081C80.6123 77.6673 80.5647 77.6175 80.5013 77.5586C80.4424 77.4997 80.3813 77.4431 80.3179 77.3887C80.259 77.3298 80.2023 77.2845 80.148 77.2528C80.524 77.049 80.8796 76.793 81.2148 76.485C81.5545 76.1724 81.8286 75.8395 82.037 75.4861ZM82.7436 76.4578L83.3552 76.6481C83.1876 76.9652 82.9882 77.2664 82.7572 77.5518C82.5262 77.8326 82.277 78.0931 82.0098 78.3332C81.747 78.5687 81.4775 78.7748 81.2012 78.9515C81.1695 78.9107 81.1219 78.8609 81.0585 78.802C80.9996 78.7431 80.9385 78.6842 80.875 78.6254C80.8161 78.571 80.7618 78.5257 80.712 78.4895C81.1332 78.263 81.5228 77.9731 81.8807 77.6197C82.2431 77.2619 82.5307 76.8746 82.7436 76.4578ZM84.1434 76.4986L84.7549 76.6481C84.5782 77.1599 84.3427 77.631 84.0482 78.0614C83.7583 78.4917 83.4412 78.8496 83.097 79.135C83.0652 79.0987 83.0177 79.0557 82.9543 79.0059C82.8908 78.956 82.8252 78.9062 82.7572 78.8564C82.6938 78.8066 82.6394 78.7681 82.5941 78.7409C82.9384 78.4872 83.2442 78.1656 83.5114 77.776C83.7787 77.3819 83.9893 76.9561 84.1434 76.4986ZM90.5849 73.1351H93.561V76.3015H92.9087V73.7942H90.5849V73.1351ZM91.0537 75.3163H93.2213V75.9482H91.0537V75.3163ZM90.7276 75.3163H91.4003V78.0614C91.4003 78.1973 91.4229 78.2856 91.4682 78.3264C91.518 78.3672 91.629 78.3875 91.8012 78.3875C91.8329 78.3875 91.885 78.3875 91.9574 78.3875C92.0344 78.3875 92.1183 78.3875 92.2088 78.3875C92.304 78.3875 92.4014 78.3875 92.501 78.3875C92.6007 78.3875 92.689 78.3875 92.766 78.3875C92.8476 78.3875 92.9087 78.3875 92.9495 78.3875C93.0582 78.3875 93.1375 78.3626 93.1873 78.3128C93.2417 78.2584 93.2802 78.1543 93.3028 78.0002C93.3255 77.8462 93.3436 77.622 93.3572 77.3275C93.407 77.3638 93.4682 77.4 93.5406 77.4363C93.6131 77.4725 93.6856 77.5065 93.7581 77.5382C93.8351 77.5654 93.9053 77.5857 93.9687 77.5993C93.9461 77.9572 93.903 78.2381 93.8396 78.4419C93.7762 78.6412 93.6788 78.7816 93.5474 78.8632C93.4161 78.9447 93.2326 78.9855 92.9971 78.9855C92.9608 78.9855 92.8997 78.9855 92.8136 78.9855C92.7321 78.9855 92.6347 78.9855 92.5214 78.9855C92.4127 78.9855 92.3017 78.9855 92.1885 78.9855C92.0797 78.9855 91.9824 78.9855 91.8963 78.9855C91.8147 78.9855 91.7581 78.9855 91.7264 78.9855C91.4727 78.9855 91.2734 78.9583 91.1285 78.9039C90.9835 78.8541 90.8793 78.7613 90.8159 78.6254C90.757 78.494 90.7276 78.306 90.7276 78.0614V75.3163ZM89.4637 75.5065L89.9462 75.3299C90.0186 75.4748 90.0889 75.6311 90.1568 75.7987C90.2248 75.9663 90.2859 76.1294 90.3403 76.2879C90.3946 76.4419 90.4354 76.5778 90.4626 76.6956L89.9462 76.9131C89.919 76.7953 89.8805 76.6549 89.8307 76.4918C89.7808 76.3287 89.7242 76.1611 89.6608 75.989C89.5974 75.8168 89.5317 75.656 89.4637 75.5065ZM88.791 77.2732L89.3142 77.1509C89.3595 77.3955 89.4003 77.6605 89.4365 77.9459C89.4728 78.2267 89.4977 78.4713 89.5113 78.6797L88.9609 78.8088C88.9609 78.6684 88.9519 78.5098 88.9337 78.3332C88.9156 78.1565 88.893 77.9776 88.8658 77.7964C88.8431 77.6107 88.8182 77.4363 88.791 77.2732ZM88.0028 77.212L88.5532 77.3004C88.517 77.5993 88.4649 77.9006 88.3969 78.2041C88.3335 78.5031 88.2633 78.7567 88.1863 78.9651C88.1455 78.9425 88.0934 78.9198 88.03 78.8972C87.9666 78.8745 87.9009 78.8519 87.833 78.8292C87.765 78.8066 87.7084 78.7884 87.6631 78.7748C87.7492 78.571 87.8194 78.3287 87.8737 78.0478C87.9281 77.7669 87.9711 77.4884 88.0028 77.212ZM87.8737 75.3978C87.8647 75.357 87.8466 75.3027 87.8194 75.2347C87.7967 75.1623 87.7718 75.0898 87.7446 75.0173C87.722 74.9403 87.6993 74.8769 87.6767 74.827C87.7401 74.8134 87.8035 74.7749 87.8669 74.7115C87.9304 74.6436 87.9983 74.5575 88.0708 74.4533C88.107 74.4035 88.1614 74.322 88.2339 74.2087C88.3063 74.0955 88.3879 73.9596 88.4785 73.801C88.5691 73.6425 88.6574 73.4749 88.7435 73.2982C88.8341 73.117 88.9156 72.9335 88.9881 72.7478L89.5724 72.9924C89.3913 73.3684 89.1829 73.7421 88.9473 74.1136C88.7163 74.4805 88.483 74.7999 88.2475 75.0717V75.0852C88.2475 75.0852 88.2293 75.0966 88.1931 75.1192C88.1569 75.1419 88.1116 75.169 88.0572 75.2008C88.0074 75.2325 87.9643 75.2664 87.9281 75.3027C87.8919 75.3344 87.8737 75.3661 87.8737 75.3978ZM87.8737 75.3978L87.8533 74.929L88.1387 74.7455L89.3686 74.6504C89.3505 74.7319 89.3346 74.8248 89.321 74.929C89.312 75.0286 89.3074 75.1102 89.3074 75.1736C89.0311 75.2008 88.8046 75.2257 88.628 75.2483C88.4558 75.271 88.3199 75.2914 88.2203 75.3095C88.1206 75.3231 88.0436 75.3389 87.9892 75.357C87.9394 75.3706 87.9009 75.3842 87.8737 75.3978ZM87.9213 76.9538C87.9122 76.9131 87.8941 76.8564 87.8669 76.784C87.8443 76.7069 87.8194 76.6299 87.7922 76.5529C87.765 76.4759 87.7378 76.4102 87.7107 76.3559C87.7967 76.3423 87.8805 76.2947 87.9621 76.2132C88.0481 76.1316 88.1478 76.0297 88.261 75.9074C88.3199 75.8485 88.406 75.7489 88.5192 75.6084C88.6325 75.4635 88.7571 75.2936 88.893 75.0988C89.0334 74.8995 89.1738 74.6866 89.3142 74.4601C89.4592 74.2291 89.5883 73.9981 89.7015 73.767L90.2519 74.1068C90.0753 74.4148 89.8782 74.7206 89.6608 75.0241C89.4479 75.3231 89.2259 75.6084 88.9949 75.8802C88.7684 76.152 88.5396 76.3989 88.3086 76.6209V76.6413C88.3086 76.6413 88.2882 76.6526 88.2475 76.6752C88.2112 76.6934 88.1659 76.7183 88.1116 76.75C88.0617 76.7817 88.0164 76.8157 87.9757 76.8519C87.9394 76.8881 87.9213 76.9221 87.9213 76.9538ZM87.9213 76.9538L87.8873 76.4646L88.1795 76.2675L90.0209 76.0161C90.0118 76.0977 90.0028 76.1905 89.9937 76.2947C89.9892 76.3989 89.9892 76.4827 89.9937 76.5461C89.577 76.6141 89.2395 76.6707 88.9813 76.716C88.7276 76.7568 88.5306 76.7908 88.3901 76.8179C88.2497 76.8451 88.1455 76.87 88.0776 76.8927C88.0096 76.9108 87.9575 76.9312 87.9213 76.9538ZM89.586 77.1305L90.0753 76.9674C90.1523 77.1758 90.2293 77.4023 90.3063 77.6469C90.3878 77.8915 90.4467 78.1022 90.483 78.2788L89.9733 78.4623C89.9371 78.2811 89.8805 78.0659 89.8035 77.8168C89.731 77.5676 89.6585 77.3389 89.586 77.1305ZM95.5927 74.5145H97.2574V75.0581H95.5927V74.5145ZM95.219 75.6968H97.536V76.2472H95.219V75.6968ZM95.2529 76.6141L95.6946 76.5122C95.7444 76.7024 95.7943 76.9108 95.8441 77.1373C95.8939 77.3638 95.9302 77.5586 95.9528 77.7216L95.4908 77.8507C95.4772 77.6786 95.4477 77.4793 95.4024 77.2528C95.3571 77.0218 95.3073 76.8089 95.2529 76.6141ZM95.1035 78.306C95.407 78.2607 95.7784 78.2018 96.2178 78.1293C96.6617 78.0569 97.1125 77.9821 97.57 77.9051L97.604 78.4147C97.1917 78.5008 96.7773 78.5846 96.3605 78.6661C95.9438 78.7477 95.5723 78.8201 95.2461 78.8836L95.1035 78.306ZM97.1827 76.451L97.6176 76.5665C97.5632 76.7704 97.5066 76.9833 97.4477 77.2052C97.3933 77.4227 97.3412 77.6084 97.2914 77.7624L96.9449 77.6605C96.9766 77.5472 97.006 77.4204 97.0332 77.28C97.0649 77.135 97.0943 76.9901 97.1215 76.8451C97.1487 76.7002 97.1691 76.5688 97.1827 76.451ZM96.1906 74.7387H96.7138V78.3875L96.1906 78.4827V74.7387ZM96.3469 72.775L96.8429 72.9585C96.7206 73.2167 96.5734 73.4749 96.4013 73.7331C96.2291 73.9913 96.0434 74.2336 95.8441 74.4601C95.6493 74.6866 95.4477 74.8859 95.2394 75.0581C95.2348 75.0128 95.219 74.9516 95.1918 74.8746C95.1691 74.7976 95.142 74.7183 95.1103 74.6368C95.0785 74.5507 95.0491 74.485 95.0219 74.4397C95.2756 74.2359 95.5225 73.989 95.7626 73.6991C96.0026 73.4046 96.1974 73.0966 96.3469 72.775ZM96.2518 73.3797L96.5983 73.0128C96.7388 73.1442 96.8882 73.2869 97.0468 73.4409C97.2099 73.5949 97.3639 73.7444 97.5088 73.8893C97.6583 74.0343 97.7806 74.1589 97.8758 74.2631L97.5088 74.6911C97.4182 74.5779 97.3005 74.4443 97.1555 74.2902C97.0105 74.1362 96.8588 73.9799 96.7002 73.8214C96.5417 73.6583 96.3922 73.5111 96.2518 73.3797ZM100.872 76.0501L101.307 76.4102C101.167 76.5643 101.015 76.7205 100.852 76.8791C100.689 77.0331 100.542 77.1645 100.41 77.2732L100.057 76.947C100.143 76.87 100.236 76.7794 100.335 76.6752C100.435 76.5711 100.533 76.4646 100.628 76.3559C100.723 76.2426 100.804 76.1407 100.872 76.0501ZM97.7806 76.3695L98.2019 76.0637C98.3333 76.1905 98.4692 76.3355 98.6096 76.4986C98.7546 76.6571 98.8655 76.793 98.9425 76.9063L98.4941 77.2528C98.4488 77.1758 98.3854 77.0852 98.3038 76.981C98.2223 76.8768 98.1362 76.7704 98.0456 76.6616C97.955 76.5529 97.8667 76.4555 97.7806 76.3695ZM98.6028 73.3729H100.424V73.869H98.6028V73.3729ZM98.3922 74.3922H100.268V74.895H98.3922V74.3922ZM97.6379 75.3095H101.416V75.8734H97.6379V75.3095ZM99.2075 75.6424H99.7987V78.4623C99.7987 78.6072 99.7828 78.7205 99.7511 78.802C99.7194 78.8881 99.6537 78.9538 99.5541 78.9991C99.4635 79.0444 99.348 79.0716 99.2075 79.0806C99.0716 79.0942 98.9063 79.101 98.7115 79.101C98.7025 79.0195 98.6798 78.9243 98.6436 78.8156C98.6073 78.7114 98.5688 78.6208 98.5281 78.5438C98.6549 78.5484 98.7727 78.5506 98.8814 78.5506C98.9901 78.5506 99.0649 78.5506 99.1056 78.5506C99.1736 78.5461 99.2075 78.5144 99.2075 78.4555V75.6424ZM97.502 78.1701C97.6696 78.0704 97.869 77.9436 98.1 77.7896C98.331 77.631 98.5688 77.468 98.8134 77.3004L99.0037 77.7692C98.8089 77.9187 98.6096 78.0704 98.4058 78.2245C98.2064 78.374 98.0162 78.5166 97.835 78.6525L97.502 78.1701ZM98.5349 72.7818L99.1328 72.8497C99.083 73.0717 99.0263 73.3095 98.9629 73.5632C98.904 73.8123 98.8429 74.0524 98.7795 74.2835C98.7206 74.5145 98.664 74.7183 98.6096 74.895H97.9913C98.0502 74.7093 98.1136 74.4964 98.1815 74.2563C98.2495 74.0117 98.3129 73.7602 98.3718 73.502C98.4352 73.2438 98.4896 73.0038 98.5349 72.7818ZM100.247 73.3729H100.315L100.417 73.3458L100.859 73.4069C100.827 73.6198 100.786 73.8508 100.736 74.1C100.687 74.3491 100.634 74.596 100.58 74.8406C100.53 75.0852 100.48 75.3163 100.431 75.5337L99.8395 75.459C99.8938 75.237 99.9459 75.0014 99.9957 74.7523C100.05 74.4986 100.1 74.2563 100.145 74.0252C100.191 73.7897 100.225 73.5949 100.247 73.4409V73.3729ZM99.9074 77.6537L100.254 77.2732C100.39 77.3638 100.533 77.4657 100.682 77.579C100.836 77.6922 100.983 77.8054 101.124 77.9187C101.264 78.0274 101.377 78.1248 101.463 78.2109L101.097 78.6457C101.015 78.5597 100.906 78.4578 100.77 78.34C100.634 78.2222 100.49 78.1044 100.335 77.9866C100.186 77.8643 100.043 77.7534 99.9074 77.6537Z" fill="#43B71B"/>
</g>
<defs>
<clipPath id="clip0_152_6164">
<rect width="200" height="200" fill="white" transform="translate(0.567017 -0.00390625)"/>
</clipPath>
</defs>
</svg>
