<svg width="201" height="201" viewBox="0 0 201 201" fill="none" xmlns="http://www.w3.org/2000/svg">
<g clip-path="url(#clip0_154_6284)">
<path d="M47.6533 27.7598L47.6533 72.0605" stroke="#222222" stroke-width="0.679485" stroke-linecap="round"/>
<path d="M62.4813 72.0605H50.7713" stroke="#222222" stroke-width="0.679485" stroke-linecap="round" stroke-dasharray="1.36 1.36"/>
<path d="M84.0248 9.60352L62.4813 9.60351" stroke="#222222" stroke-width="0.679485" stroke-linecap="round" stroke-dasharray="1.36 1.36"/>
<path d="M87.5992 9.60352L87.5992 17.2686" stroke="#222222" stroke-width="0.679485" stroke-linecap="round" stroke-dasharray="1.36 1.36"/>
<path d="M62.4813 49.9082H50.7713" stroke="#222222" stroke-width="0.679485" stroke-linecap="round" stroke-dasharray="1.36 1.36"/>
<path d="M44.5352 27.7598H32.8213" stroke="#222222" stroke-width="0.679485" stroke-linecap="round"/>
<path d="M62.4813 27.7598H50.7713" stroke="#222222" stroke-width="0.679485" stroke-linecap="round" stroke-dasharray="1.36 1.36"/>
<rect x="1.04287" y="19.0214" width="28.3205" height="15.4743" rx="7.73717" stroke="#424242" stroke-width="0.679485"/>
<path d="M8.45735 26.1837H13.4991V26.7069H9.07568L9.07568 30.315H8.45735L8.45735 26.1837ZM13.173 26.1837H13.7709V29.6831C13.7709 29.8326 13.7483 29.9458 13.703 30.0228C13.6577 30.1043 13.5807 30.1655 13.472 30.2063C13.3587 30.247 13.2092 30.272 13.0235 30.281C12.8423 30.2901 12.609 30.2946 12.3236 30.2946C12.3146 30.2176 12.2919 30.1338 12.2557 30.0432C12.2194 29.9526 12.1809 29.8733 12.1402 29.8054C12.2715 29.8099 12.3961 29.8122 12.5139 29.8122C12.6362 29.8167 12.7426 29.8167 12.8332 29.8122C12.9238 29.8122 12.9873 29.8122 13.0235 29.8122C13.0779 29.8122 13.1164 29.8008 13.139 29.7782C13.1617 29.7601 13.173 29.7261 13.173 29.6763V26.1837ZM10.1425 27.8688H12.3712V29.4724H10.1425V29.0172H11.8412V28.3309H10.1425V27.8688ZM9.80273 27.8688H10.3463L10.3463 29.7714H9.80273L9.80273 27.8688ZM8.09723 24.716H14.1175V25.2664H8.09723V24.716ZM9.53773 25.4227L10.0881 25.2392C10.1606 25.357 10.2353 25.4884 10.3123 25.6333C10.3939 25.7783 10.4573 25.8983 10.5026 25.9935L9.92504 26.2177C9.88427 26.1135 9.82538 25.9867 9.74838 25.8372C9.6759 25.6832 9.60568 25.545 9.53773 25.4227ZM12.0858 25.28L12.7381 25.4159C12.6294 25.5971 12.5161 25.7806 12.3984 25.9663C12.2806 26.152 12.1741 26.3083 12.079 26.4351L11.5762 26.2924C11.6396 26.1973 11.703 26.0909 11.7664 25.9731C11.8299 25.8553 11.8888 25.7353 11.9431 25.613C12.002 25.4906 12.0496 25.3797 12.0858 25.28ZM10.6657 24.1317L11.2704 23.9822C11.3293 24.1181 11.3882 24.2676 11.4471 24.4306C11.506 24.5937 11.5513 24.7342 11.583 24.8519L10.9511 25.0286C10.9239 24.9108 10.8809 24.7681 10.822 24.6005C10.7676 24.4284 10.7155 24.2721 10.6657 24.1317ZM10.1765 26.4555H10.7404C10.7223 26.7318 10.6702 26.9674 10.5841 27.1622C10.5026 27.357 10.3644 27.5178 10.1697 27.6446C9.9794 27.7715 9.70987 27.8734 9.36107 27.9504C9.33842 27.887 9.29539 27.8122 9.23197 27.7262C9.17308 27.6356 9.11645 27.5653 9.0621 27.5155C9.35654 27.4612 9.58077 27.3909 9.73479 27.3049C9.8888 27.2188 9.99752 27.1078 10.0609 26.9719C10.1244 26.8315 10.1629 26.6594 10.1765 26.4555ZM11.3588 26.4691H11.9363V27.0331C11.9363 27.1056 11.9431 27.1576 11.9567 27.1894C11.9703 27.2211 12.0065 27.2369 12.0654 27.2369C12.0881 27.2369 12.1198 27.2369 12.1605 27.2369C12.2058 27.2369 12.2534 27.2369 12.3032 27.2369C12.3576 27.2369 12.4074 27.2369 12.4527 27.2369C12.498 27.2369 12.532 27.2369 12.5546 27.2369C12.6045 27.2369 12.6702 27.2347 12.7517 27.2301C12.8332 27.2211 12.8967 27.212 12.942 27.2029C12.9465 27.2754 12.951 27.3502 12.9555 27.4272C12.9601 27.4997 12.9691 27.5721 12.9827 27.6446C12.9374 27.6582 12.8763 27.6695 12.7993 27.6786C12.7223 27.6831 12.6452 27.6854 12.5682 27.6854C12.5365 27.6854 12.4912 27.6854 12.4323 27.6854C12.3735 27.6854 12.31 27.6854 12.2421 27.6854C12.1741 27.6854 12.1107 27.6854 12.0518 27.6854C11.9975 27.6854 11.9567 27.6854 11.9295 27.6854C11.771 27.6854 11.6509 27.6605 11.5694 27.6106C11.4879 27.5608 11.4312 27.4883 11.3995 27.3932C11.3723 27.2935 11.3588 27.1712 11.3588 27.0263V26.4691ZM18.9282 26.3876L21.4355 26.3876V26.9719H18.9282V26.3876ZM17.5013 29.4045H20.7968V29.9752H17.5013V29.4045ZM18.6157 25.6537H19.2816V28.1542H18.6157V25.6537ZM17.1616 27.7601H21.1162V30.2335H20.4571V28.3581H17.7867V30.247H17.1616V27.7601ZM16.285 24.818L21.6326 24.818V25.4295L16.285 25.4295V24.818ZM15.9928 24.818H16.6519V26.5778C16.6519 26.8496 16.6429 27.1486 16.6248 27.4747C16.6066 27.7964 16.5727 28.127 16.5228 28.4668C16.473 28.8065 16.3983 29.1372 16.2986 29.4588C16.2035 29.7805 16.0789 30.0704 15.9249 30.3286C15.8841 30.2923 15.8275 30.2493 15.755 30.1995C15.6871 30.1496 15.6169 30.1021 15.5444 30.0568C15.4719 30.0115 15.4085 29.9798 15.3541 29.9617C15.4991 29.717 15.6146 29.4498 15.7007 29.1599C15.7867 28.87 15.8502 28.5755 15.8909 28.2765C15.9317 27.973 15.9589 27.6763 15.9725 27.3864C15.986 27.092 15.9928 26.8224 15.9928 26.5778V24.818ZM18.3031 24.1724L18.9418 24.0298C19.0415 24.1747 19.1321 24.3355 19.2136 24.5122C19.2951 24.6889 19.3518 24.8451 19.3835 24.981L18.704 25.1441C18.6813 25.0082 18.6315 24.8497 18.5545 24.6685C18.4775 24.4827 18.3937 24.3174 18.3031 24.1724Z" fill="#424242"/>
<rect x="29.7659" y="0.867086" width="28.3205" height="15.4743" rx="7.73717" stroke="#424242" stroke-width="0.679485" stroke-dasharray="1.36 1.36"/>
<path d="M36.7659 7.02379H38.8655V7.60814H36.7659V7.02379ZM37.7104 9.15737L38.3423 8.40994V12.1675H37.7104V9.15737ZM38.3151 8.5866C38.3649 8.62284 38.4374 8.68852 38.5326 8.78365C38.6322 8.87425 38.7364 8.97391 38.8451 9.08263C38.9584 9.19134 39.0603 9.29327 39.1509 9.38839C39.246 9.47899 39.3162 9.54468 39.3615 9.58544L38.9606 10.1222C38.9063 10.0407 38.8338 9.94557 38.7432 9.83685C38.6526 9.72361 38.5575 9.60809 38.4578 9.49032C38.3582 9.37254 38.263 9.26382 38.1724 9.16416C38.0818 9.05998 38.0048 8.97391 37.9414 8.90596L38.3151 8.5866ZM38.6684 7.02379H38.8043L38.9131 6.99661L39.2596 7.24122C39.0965 7.64891 38.8859 8.04301 38.6277 8.42353C38.3695 8.79951 38.0841 9.14151 37.7715 9.44955C37.4635 9.75305 37.1532 10.0067 36.8406 10.2106C36.8225 10.1517 36.7976 10.0815 36.7659 9.99993C36.7387 9.91386 36.707 9.83006 36.6708 9.74852C36.6391 9.66698 36.6073 9.60583 36.5756 9.56506C36.861 9.40198 37.1396 9.19134 37.4114 8.93314C37.6877 8.67493 37.9369 8.39182 38.1588 8.08378C38.3808 7.77575 38.5507 7.46319 38.6684 7.14609V7.02379ZM37.4522 6.12007L37.9482 5.84828C38.075 5.97964 38.1973 6.12687 38.3151 6.28994C38.4374 6.45302 38.5303 6.59798 38.5937 6.72481L38.0637 7.03738C38.0093 6.91054 37.9233 6.76105 37.8055 6.58892C37.6877 6.41678 37.5699 6.2605 37.4522 6.12007ZM39.049 11.2977H42.9764V11.9297H39.049V11.2977ZM39.3547 7.95468L42.8201 7.95468V8.57981H39.3547V7.95468ZM40.7816 5.87546H41.434V11.6035H40.7816V5.87546ZM47.4882 7.18686H50.3284V7.77122H47.4882V7.18686ZM47.5833 8.55942H50.2061V9.15057H47.5833V8.55942ZM47.3387 10.0203L50.4711 10.0203V10.6251L47.3387 10.6251V10.0203ZM47.5425 6.09289L48.0589 5.91623C48.1676 6.08383 48.265 6.27182 48.3511 6.4802C48.4417 6.68404 48.5051 6.86297 48.5414 7.01699L47.991 7.22084C47.9638 7.06229 47.9072 6.87883 47.8211 6.67045C47.7396 6.45755 47.6467 6.26503 47.5425 6.09289ZM49.5946 5.86187L50.2197 6.00456C50.1291 6.21293 50.0362 6.42357 49.9411 6.63648C49.846 6.84938 49.7554 7.03058 49.6693 7.18007L49.1393 7.03738C49.1937 6.92866 49.2503 6.80635 49.3092 6.67045C49.3681 6.53456 49.4224 6.39639 49.4723 6.25597C49.5221 6.11101 49.5629 5.97964 49.5946 5.86187ZM48.5618 7.47225H49.1801V12.1743H48.5618V7.47225ZM44.1655 7.31596H47.4202V7.86635H44.1655V7.31596ZM44.5256 6.19481H47.0465V8.9807L44.4848 8.9807V8.43032H46.4486V6.7452H44.5256V6.19481ZM44.8654 9.60583H45.4565V12.1743H44.8654V9.60583ZM45.11 9.60583H47.1552V11.8277H45.11V11.2638H46.5233V10.163H45.11V9.60583ZM45.2798 6.40545L45.8914 6.42584C45.8506 7.09173 45.7827 7.70554 45.6875 8.26724C45.5924 8.82442 45.4497 9.32951 45.2595 9.7825C45.0692 10.231 44.811 10.6205 44.4848 10.9512C44.4622 10.9104 44.426 10.8583 44.3761 10.7949C44.3263 10.7315 44.2719 10.6681 44.213 10.6047C44.1587 10.5413 44.1089 10.4914 44.0636 10.4552C44.358 10.1743 44.589 9.83232 44.7566 9.42916C44.9242 9.02147 45.0465 8.56395 45.1236 8.0566C45.2006 7.54472 45.2527 6.99434 45.2798 6.40545Z" fill="#424242"/>
<rect x="65.939" y="20.0233" width="43.3205" height="15.4705" stroke="#43B71B" stroke-width="0.679485"/>
<path d="M72.939 26.1781H75.0386V26.7624H72.939V26.1781ZM73.8835 28.3117L74.5154 27.5642V31.3218H73.8835V28.3117ZM74.4882 27.7409C74.538 27.7771 74.6105 27.8428 74.7056 27.9379C74.8053 28.0285 74.9095 28.1282 75.0182 28.2369C75.1315 28.3456 75.2334 28.4476 75.324 28.5427C75.4191 28.6333 75.4893 28.699 75.5346 28.7397L75.1337 29.2765C75.0794 29.195 75.0069 29.0999 74.9163 28.9912C74.8257 28.8779 74.7306 28.7624 74.6309 28.6446C74.5312 28.5268 74.4361 28.4181 74.3455 28.3185C74.2549 28.2143 74.1779 28.1282 74.1145 28.0603L74.4882 27.7409ZM74.8415 26.1781H74.9774L75.0862 26.1509L75.4327 26.3955C75.2696 26.8032 75.059 27.1973 74.8008 27.5778C74.5426 27.9538 74.2572 28.2958 73.9446 28.6038C73.6366 28.9073 73.3263 29.161 73.0137 29.3649C72.9956 29.306 72.9707 29.2358 72.939 29.1542C72.9118 29.0682 72.8801 28.9844 72.8439 28.9028C72.8121 28.8213 72.7804 28.7601 72.7487 28.7194C73.0341 28.5563 73.3127 28.3456 73.5845 28.0874C73.8608 27.8292 74.11 27.5461 74.3319 27.2381C74.5539 26.93 74.7238 26.6175 74.8415 26.3004V26.1781ZM73.6253 25.2744L74.1213 25.0026C74.2481 25.1339 74.3704 25.2812 74.4882 25.4442C74.6105 25.6073 74.7034 25.7523 74.7668 25.8791L74.2368 26.1917C74.1824 26.0648 74.0964 25.9153 73.9786 25.7432C73.8608 25.5711 73.743 25.4148 73.6253 25.2744ZM75.2221 30.452H79.1495V31.084H75.2221V30.452ZM75.5278 27.109H78.9932V27.7341H75.5278V27.109ZM76.9547 25.0298H77.607V30.7578H76.9547V25.0298ZM81.5345 26.1849L85.3804 26.1849V26.5586L81.5345 26.5586V26.1849ZM81.4529 29.0591H85.4755V29.4328H81.4529V29.0591ZM82.1392 29.6367L82.5469 29.426C82.6511 29.5121 82.7553 29.614 82.8595 29.7318C82.9682 29.845 83.0497 29.947 83.1041 30.0376L82.676 30.2686C82.6262 30.178 82.5492 30.0738 82.445 29.956C82.3408 29.8337 82.2389 29.7273 82.1392 29.6367ZM82.2683 27.6322V27.8904H84.6397V27.6322H82.2683ZM82.2683 27.0954V27.3468H84.6397V27.0954H82.2683ZM81.7723 26.8032L85.1697 26.8032V28.1894H81.7723V26.8032ZM84.001 28.8281H84.5378V29.9764C84.5378 30.0897 84.5219 30.1712 84.4902 30.221C84.4631 30.2663 84.4064 30.3026 84.3204 30.3297C84.2388 30.3569 84.1301 30.3728 83.9942 30.3773C83.8583 30.3818 83.6907 30.3841 83.4914 30.3841C83.4823 30.3252 83.4642 30.2663 83.437 30.2074C83.4099 30.144 83.3827 30.0874 83.3555 30.0376C83.4733 30.0421 83.5843 30.0444 83.6884 30.0444C83.7972 30.0444 83.8696 30.0444 83.9059 30.0444C83.9421 30.0398 83.967 30.033 83.9806 30.024C83.9942 30.0104 84.001 29.9877 84.001 29.956V28.8281ZM81.5549 28.4815C81.8357 28.4815 82.1573 28.4815 82.5197 28.4815C82.8821 28.477 83.2672 28.4725 83.6748 28.4679C84.0871 28.4589 84.5016 28.4521 84.9183 28.4476L84.9047 28.7601C84.5016 28.7737 84.1007 28.7873 83.702 28.8009C83.3034 28.81 82.9229 28.819 82.5605 28.8281C82.2026 28.8371 81.8765 28.8439 81.582 28.8485L81.5549 28.4815ZM84.3 28.3592L84.6329 28.1282C84.7734 28.2233 84.9115 28.3343 85.0474 28.4612C85.1878 28.588 85.2966 28.699 85.3736 28.7941L85.027 29.0523C84.9455 28.9526 84.8345 28.8371 84.6941 28.7058C84.5582 28.5699 84.4268 28.4544 84.3 28.3592ZM83.172 25.8995H83.7088V28.6038L83.172 28.631V25.8995ZM80.6783 25.2948L86.2773 25.2948V31.3082H85.6657V25.7908L81.2627 25.7908V31.3286H80.6783V25.2948ZM80.9637 30.486H85.9172V30.982H80.9637V30.486ZM87.7178 28.5631C87.976 28.4815 88.2886 28.3751 88.6555 28.2437C89.0269 28.1124 89.4029 27.9765 89.7834 27.836L89.8921 28.4136C89.5479 28.545 89.1991 28.6786 88.8457 28.8145C88.4924 28.9459 88.1708 29.0682 87.8809 29.1814L87.7178 28.5631ZM87.7993 26.3547H89.831V26.9527H87.7993V26.3547ZM88.6079 25.0298H89.2059V30.6219C89.2059 30.7805 89.1877 30.905 89.1515 30.9956C89.1153 31.0862 89.0496 31.1587 88.9544 31.2131C88.8639 31.2629 88.7461 31.2946 88.6011 31.3082C88.4607 31.3263 88.2795 31.3354 88.0575 31.3354C88.053 31.2538 88.0326 31.1542 87.9964 31.0364C87.9647 30.9232 87.9284 30.8235 87.8877 30.7374C88.0236 30.742 88.1481 30.7442 88.2614 30.7442C88.3746 30.7442 88.4516 30.742 88.4924 30.7374C88.5332 30.7374 88.5626 30.7306 88.5807 30.717C88.5989 30.6989 88.6079 30.6672 88.6079 30.6219V25.0298ZM90.9114 25.0841H91.5093V28.0738C91.5093 28.4136 91.4912 28.7397 91.455 29.0523C91.4187 29.3603 91.3462 29.6525 91.2375 29.9288C91.1333 30.2006 90.977 30.4543 90.7687 30.6899C90.5603 30.9209 90.2817 31.127 89.9329 31.3082C89.9012 31.2629 89.8582 31.2108 89.8038 31.1519C89.754 31.093 89.6996 31.0364 89.6407 30.982C89.5864 30.9322 89.5343 30.8892 89.4844 30.8529C89.8015 30.6944 90.0529 30.5155 90.2387 30.3161C90.4289 30.1168 90.5716 29.8994 90.6668 29.6638C90.7664 29.4283 90.8321 29.1769 90.8638 28.9096C90.8955 28.6423 90.9114 28.3615 90.9114 28.0671V25.0841ZM92.0869 25.0841H92.6984V30.3365C92.6984 30.4815 92.7097 30.5744 92.7324 30.6151C92.755 30.6559 92.8071 30.6763 92.8887 30.6763C92.9068 30.6763 92.9385 30.6763 92.9838 30.6763C93.0291 30.6763 93.0789 30.6763 93.1333 30.6763C93.1922 30.6763 93.2443 30.6763 93.2896 30.6763C93.3394 30.6763 93.3756 30.6763 93.3983 30.6763C93.4526 30.6763 93.4911 30.6514 93.5138 30.6015C93.541 30.5472 93.5614 30.452 93.5749 30.3161C93.5885 30.1757 93.5976 29.9832 93.6021 29.7386C93.6746 29.7975 93.7629 29.8518 93.8671 29.9017C93.9713 29.9515 94.0664 29.9855 94.1525 30.0036C94.1344 30.3116 94.1004 30.5585 94.0506 30.7442C94.0053 30.9254 93.9351 31.0568 93.8399 31.1383C93.7448 31.2199 93.6135 31.2606 93.4458 31.2606C93.4187 31.2606 93.3734 31.2606 93.3099 31.2606C93.2511 31.2606 93.1854 31.2606 93.1129 31.2606C93.0449 31.2606 92.9793 31.2606 92.9158 31.2606C92.857 31.2606 92.8139 31.2606 92.7867 31.2606C92.6055 31.2606 92.4629 31.2335 92.3587 31.1791C92.259 31.1247 92.1888 31.0296 92.148 30.8937C92.1073 30.7578 92.0869 30.5698 92.0869 30.3297V25.0841ZM89.8038 26.1305L90.2862 25.8655C90.3859 26.0105 90.481 26.1668 90.5716 26.3344C90.6668 26.502 90.7506 26.6673 90.823 26.8304C90.9 26.9889 90.9567 27.1339 90.9929 27.2653L90.4833 27.5574C90.4471 27.4261 90.3927 27.2788 90.3202 27.1158C90.2523 26.9482 90.173 26.7783 90.0824 26.6062C89.9918 26.434 89.8989 26.2755 89.8038 26.1305ZM92.4674 28.3456L92.8615 27.9583C93.0155 28.0852 93.1741 28.2233 93.3371 28.3728C93.5002 28.5223 93.652 28.6695 93.7924 28.8145C93.9373 28.9594 94.0551 29.0863 94.1457 29.195L93.7244 29.6503C93.6384 29.5325 93.5251 29.3988 93.3847 29.2494C93.2443 29.0953 93.0925 28.9391 92.9294 28.7805C92.7709 28.6174 92.6169 28.4725 92.4674 28.3456ZM89.5592 29.1338C89.7313 29.0342 89.9374 28.9051 90.1775 28.7465C90.4221 28.5835 90.6713 28.4159 90.925 28.2437L91.1288 28.7329C90.925 28.896 90.7143 29.0591 90.4969 29.2222C90.284 29.3853 90.0847 29.537 89.8989 29.6774L89.5592 29.1338ZM93.4255 25.7908L94.003 26.0897C93.9124 26.2528 93.815 26.425 93.7108 26.6062C93.6112 26.7828 93.5115 26.9527 93.4119 27.1158C93.3167 27.2788 93.2239 27.4238 93.1333 27.5506L92.6916 27.2992C92.7732 27.1633 92.8592 27.0093 92.9498 26.8372C93.0449 26.665 93.1333 26.4861 93.2148 26.3004C93.3009 26.1147 93.3711 25.9448 93.4255 25.7908ZM95.9396 25.6413V26.1985H96.4424V25.6413H95.9396ZM95.4639 25.22H96.9316V26.6265H95.4639V25.22ZM97.6926 25.6413V26.1985H98.2158V25.6413H97.6926ZM97.217 25.22H98.6983V26.6265H97.217V25.22ZM98.7187 27.041L101.539 26.7013L101.613 27.2924L98.7934 27.6458L98.7187 27.041ZM100.254 25.3899L100.744 25.1317C100.843 25.2449 100.941 25.3695 101.036 25.5054C101.135 25.6413 101.226 25.7749 101.307 25.9063C101.389 26.0377 101.452 26.1577 101.498 26.2664L100.981 26.5654C100.941 26.4567 100.882 26.3344 100.805 26.1985C100.728 26.058 100.639 25.9176 100.54 25.7772C100.445 25.6368 100.349 25.5077 100.254 25.3899ZM96.0687 28.3592V28.8417H98.0799V28.3592H96.0687ZM96.0687 27.4283V27.8972H98.0799V27.4283H96.0687ZM95.5319 26.9391H98.6439V29.3241H95.5319V26.9391ZM95.2533 29.7454H98.8478V30.3161H95.2533V29.7454ZM96.7889 27.109H97.3393V29.1203H97.3733V31.3354H96.7549V29.1203H96.7889V27.109ZM99.3166 25.0637H99.9213C99.9349 25.6571 99.9598 26.2256 99.9961 26.7692C100.032 27.3128 100.08 27.8156 100.139 28.2777C100.202 28.7352 100.275 29.1361 100.356 29.4804C100.438 29.8201 100.528 30.0874 100.628 30.2822C100.732 30.4724 100.843 30.5721 100.961 30.5811C101.024 30.5857 101.076 30.5019 101.117 30.3297C101.163 30.1576 101.197 29.9085 101.219 29.5823C101.255 29.6276 101.303 29.6752 101.362 29.725C101.425 29.7703 101.486 29.8133 101.545 29.8541C101.609 29.8903 101.659 29.9198 101.695 29.9424C101.645 30.3139 101.579 30.6015 101.498 30.8054C101.421 31.0092 101.335 31.1496 101.24 31.2267C101.149 31.3082 101.056 31.3467 100.961 31.3422C100.725 31.3331 100.519 31.2244 100.343 31.016C100.17 30.8122 100.023 30.5245 99.901 30.1531C99.7786 29.7771 99.6767 29.3309 99.5952 28.8145C99.5182 28.2981 99.457 27.725 99.4117 27.0954C99.371 26.4612 99.3392 25.784 99.3166 25.0637ZM100.9 27.5846L101.396 27.8632C101.242 28.3298 101.033 28.7828 100.771 29.2222C100.512 29.657 100.214 30.0534 99.8738 30.4113C99.5386 30.7646 99.1716 31.05 98.773 31.2674C98.7187 31.1949 98.6484 31.1157 98.5624 31.0296C98.4763 30.9435 98.3902 30.8711 98.3042 30.8122C98.7073 30.6219 99.0788 30.3614 99.4185 30.0308C99.7583 29.6956 100.053 29.3173 100.302 28.896C100.556 28.4747 100.755 28.0376 100.9 27.5846Z" fill="#43B71B"/>
<rect x="65.939" y="42.1737" width="46.3205" height="15.4705" stroke="#424242" stroke-width="0.679485"/>
<path d="M75.1609 53.0033C74.7351 53.0033 74.3568 52.8969 74.0262 52.684C73.7 52.4711 73.4441 52.1698 73.2583 51.7803C73.0726 51.3862 72.9798 50.9218 72.9798 50.3873C72.9798 49.8483 73.0726 49.3885 73.2583 49.008C73.4441 48.6229 73.7 48.3285 74.0262 48.1246C74.3568 47.9163 74.7351 47.8121 75.1609 47.8121C75.5912 47.8121 75.9695 47.9163 76.2956 48.1246C76.6218 48.3285 76.8777 48.6229 77.0635 49.008C77.2492 49.3885 77.342 49.8483 77.342 50.3873C77.342 50.9218 77.2492 51.3862 77.0635 51.7803C76.8777 52.1698 76.6218 52.4711 76.2956 52.684C75.9695 52.8969 75.5912 53.0033 75.1609 53.0033ZM75.1609 52.3442C75.4372 52.3442 75.6773 52.2672 75.8812 52.1132C76.0895 51.9547 76.2503 51.7282 76.3636 51.4337C76.4768 51.1393 76.5335 50.7905 76.5335 50.3873C76.5335 49.9977 76.4768 49.6625 76.3636 49.3817C76.2503 49.0963 76.0895 48.8789 75.8812 48.7294C75.6773 48.5754 75.4372 48.4983 75.1609 48.4983C74.8846 48.4983 74.6422 48.5754 74.4339 48.7294C74.23 48.8789 74.0715 49.0963 73.9582 49.3817C73.8495 49.6625 73.7951 49.9977 73.7951 50.3873C73.7951 50.7905 73.8495 51.1393 73.9582 51.4337C74.0715 51.7282 74.23 51.9547 74.4339 52.1132C74.6422 52.2672 74.8846 52.3442 75.1609 52.3442ZM76.7305 54.2128C76.3998 54.2128 76.1031 54.1539 75.8404 54.0361C75.5777 53.9229 75.3557 53.7644 75.1745 53.5605C74.9933 53.3612 74.8529 53.137 74.7532 52.8878L75.5686 52.8131C75.632 52.9807 75.7249 53.1211 75.8472 53.2344C75.974 53.3476 76.1212 53.4291 76.2888 53.479C76.4565 53.5333 76.6331 53.5605 76.8188 53.5605C76.9276 53.5605 77.025 53.5537 77.111 53.5401C77.2016 53.5265 77.2832 53.5062 77.3556 53.479L77.5051 54.0769C77.4236 54.1132 77.3149 54.1449 77.179 54.172C77.0431 54.1992 76.8936 54.2128 76.7305 54.2128ZM79.0605 52.9082V47.9004H80.6981C81.0423 47.9004 81.3504 47.948 81.6222 48.0431C81.894 48.1337 82.1091 48.2854 82.2677 48.4983C82.4262 48.7067 82.5055 48.9921 82.5055 49.3545C82.5055 49.7033 82.4262 49.9909 82.2677 50.2174C82.1091 50.4439 81.894 50.6138 81.6222 50.7271C81.3504 50.8358 81.0423 50.8901 80.6981 50.8901H79.8487V52.9082H79.0605ZM79.8487 50.2582H80.6029C80.9653 50.2582 81.2417 50.1835 81.4319 50.034C81.6267 49.88 81.7241 49.6535 81.7241 49.3545C81.7241 49.051 81.6267 48.8404 81.4319 48.7226C81.2417 48.6003 80.9653 48.5391 80.6029 48.5391H79.8487V50.2582ZM81.792 52.9082L80.5486 50.6795L81.1329 50.2242L82.6822 52.9082H81.792ZM83.6205 51.2774V50.6999H85.4143V51.2774H83.6205ZM89.0185 53.0033C88.7059 53.0033 88.4137 52.9467 88.1419 52.8335C87.8747 52.7157 87.6391 52.5458 87.4353 52.3238C87.2314 52.1019 87.0729 51.8324 86.9596 51.5153C86.8464 51.1936 86.7898 50.8267 86.7898 50.4145C86.7898 50.0068 86.8486 49.6421 86.9664 49.3205C87.0842 48.9989 87.245 48.7271 87.4489 48.5051C87.6527 48.2786 87.8928 48.1065 88.1691 47.9887C88.4454 47.871 88.7421 47.8121 89.0592 47.8121C89.3673 47.8121 89.6413 47.8755 89.8814 48.0023C90.1215 48.1292 90.3186 48.2764 90.4726 48.444L90.0513 48.9468C89.9199 48.8154 89.7727 48.709 89.6096 48.6274C89.4511 48.5414 89.2721 48.4983 89.0728 48.4983C88.7829 48.4983 88.527 48.5754 88.305 48.7294C88.0876 48.8834 87.9154 49.1008 87.7886 49.3817C87.6663 49.6625 87.6051 50 87.6051 50.3941C87.6051 50.7882 87.664 51.1302 87.7818 51.4201C87.8996 51.7055 88.0672 51.9252 88.2846 52.0792C88.5021 52.2332 88.758 52.3103 89.0524 52.3103C89.2789 52.3103 89.4805 52.2627 89.6572 52.1676C89.8384 52.0679 90.0037 51.9365 90.1532 51.7735L90.5813 52.2763C90.3774 52.5118 90.1464 52.693 89.8882 52.8199C89.6345 52.9422 89.3446 53.0033 89.0185 53.0033ZM93.5743 53.0033C93.2663 53.0033 92.9764 52.9263 92.7046 52.7723C92.4373 52.6138 92.2199 52.3895 92.0523 52.0996C91.8892 51.8052 91.8076 51.4518 91.8076 51.0396C91.8076 50.6229 91.8892 50.2695 92.0523 49.9796C92.2199 49.6852 92.4373 49.4609 92.7046 49.3069C92.9764 49.1529 93.2663 49.0759 93.5743 49.0759C93.8008 49.0759 94.0205 49.1212 94.2334 49.2118C94.4463 49.2979 94.6343 49.4247 94.7974 49.5923C94.9605 49.7599 95.0896 49.966 95.1847 50.2106C95.2798 50.4507 95.3274 50.7271 95.3274 51.0396C95.3274 51.4518 95.2436 51.8052 95.076 52.0996C94.9129 52.3895 94.6977 52.6138 94.4305 52.7723C94.1677 52.9263 93.8823 53.0033 93.5743 53.0033ZM93.5743 52.351C93.7691 52.351 93.9367 52.2967 94.0771 52.1879C94.2221 52.0792 94.3331 51.9275 94.4101 51.7327C94.4871 51.5334 94.5256 51.3024 94.5256 51.0396C94.5256 50.7769 94.4871 50.5481 94.4101 50.3533C94.3331 50.154 94.2221 50 94.0771 49.8913C93.9367 49.778 93.7691 49.7214 93.5743 49.7214C93.375 49.7214 93.2029 49.778 93.0579 49.8913C92.9175 50 92.8088 50.154 92.7317 50.3533C92.6547 50.5481 92.6162 50.7769 92.6162 51.0396C92.6162 51.3024 92.6547 51.5334 92.7317 51.7327C92.8088 51.9275 92.9175 52.0792 93.0579 52.1879C93.2029 52.2967 93.375 52.351 93.5743 52.351ZM98.2168 53.0033C97.9088 53.0033 97.6392 52.9263 97.4082 52.7723C97.1772 52.6183 96.9982 52.3941 96.8714 52.0996C96.7446 51.8052 96.6812 51.4518 96.6812 51.0396C96.6812 50.6365 96.7559 50.2877 96.9054 49.9932C97.0594 49.6988 97.2564 49.4723 97.4965 49.3137C97.7411 49.1552 98.0016 49.0759 98.2779 49.0759C98.4954 49.0759 98.6788 49.1144 98.8283 49.1914C98.9823 49.2639 99.1341 49.3658 99.2836 49.4972L99.2564 48.8789V47.4927H100.038V52.9082H99.3991L99.3311 52.4869H99.3108C99.1703 52.6319 99.0073 52.7542 98.8215 52.8538C98.6358 52.9535 98.4342 53.0033 98.2168 53.0033ZM98.407 52.3442C98.5656 52.3442 98.7128 52.308 98.8487 52.2355C98.9846 52.163 99.1205 52.0475 99.2564 51.889V50.068C99.1205 49.9456 98.9846 49.8596 98.8487 49.8098C98.7128 49.7554 98.5746 49.7282 98.4342 49.7282C98.2621 49.7282 98.1035 49.7826 97.9586 49.8913C97.8182 49.9955 97.7049 50.145 97.6188 50.3397C97.5328 50.53 97.4897 50.761 97.4897 51.0328C97.4897 51.3137 97.526 51.5538 97.5985 51.7531C97.6709 51.9479 97.7751 52.0951 97.911 52.1947C98.0514 52.2944 98.2168 52.3442 98.407 52.3442ZM103.455 53.0033C103.115 53.0033 102.807 52.9263 102.531 52.7723C102.254 52.6138 102.035 52.3895 101.872 52.0996C101.709 51.8052 101.627 51.4518 101.627 51.0396C101.627 50.7361 101.675 50.4643 101.77 50.2242C101.865 49.9796 101.994 49.7735 102.157 49.6059C102.32 49.4338 102.504 49.3024 102.707 49.2118C102.911 49.1212 103.12 49.0759 103.333 49.0759C103.663 49.0759 103.942 49.1507 104.168 49.3001C104.395 49.4451 104.567 49.6512 104.685 49.9185C104.802 50.1812 104.861 50.4892 104.861 50.8426C104.861 50.9196 104.857 50.9943 104.848 51.0668C104.843 51.1347 104.834 51.1936 104.821 51.2435H102.395C102.417 51.479 102.479 51.6829 102.578 51.855C102.682 52.0226 102.816 52.154 102.979 52.2491C103.147 52.3397 103.337 52.385 103.55 52.385C103.718 52.385 103.874 52.3601 104.019 52.3103C104.164 52.2604 104.304 52.1925 104.44 52.1064L104.712 52.6024C104.54 52.7157 104.347 52.8108 104.134 52.8878C103.926 52.9648 103.699 53.0033 103.455 53.0033ZM102.388 50.6999H104.182C104.182 50.3828 104.109 50.1359 103.964 49.9592C103.824 49.7826 103.618 49.6942 103.346 49.6942C103.192 49.6942 103.047 49.7327 102.911 49.8098C102.775 49.8868 102.66 50 102.565 50.1495C102.474 50.299 102.415 50.4824 102.388 50.6999Z" fill="#424242"/>
<rect x="65.939" y="64.3241" width="43.3205" height="15.4705" stroke="#424242" stroke-width="0.679485"/>
<path d="M74.8076 72.2319H79.1835V72.8571H74.8076V72.2319ZM75.0114 74.7664H79.0272V75.378H75.0114V74.7664ZM76.6829 70.3362H77.3353V74.9906H76.6829V70.3362ZM73.8087 71.2331L74.4339 70.608L74.4406 70.6148V75.6158H73.8087V71.2331ZM74.5154 69.3645L75.1473 69.5616C74.9888 69.9602 74.8008 70.3543 74.5833 70.7439C74.3659 71.1334 74.1303 71.4981 73.8767 71.8378C73.623 72.1776 73.3625 72.4788 73.0953 72.7415C73.0726 72.6872 73.0386 72.6192 72.9933 72.5377C72.948 72.4516 72.8982 72.3656 72.8439 72.2795C72.794 72.1934 72.7487 72.1255 72.708 72.0757C72.948 71.8582 73.1791 71.6068 73.401 71.3214C73.6275 71.0315 73.8359 70.7212 74.0262 70.3905C74.2164 70.0553 74.3795 69.7133 74.5154 69.3645ZM75.2221 69.9625H78.9049V70.5672H75.2221V69.9625ZM80.4541 69.6499H82.7304V70.1935H80.4541V69.6499ZM83.1177 73.1289H85.9851V73.6724H83.1177V73.1289ZM80.3658 71.7087H82.9138V72.2795H80.3658V71.7087ZM81.5277 71.9398H82.1324V74.9159C82.1324 75.0654 82.1143 75.1854 82.0781 75.276C82.0464 75.3712 81.9784 75.4459 81.8742 75.5003C81.7791 75.5456 81.6568 75.5727 81.5073 75.5818C81.3623 75.5954 81.1857 75.6022 80.9773 75.6022C80.9637 75.5161 80.9388 75.4142 80.9026 75.2964C80.8663 75.1832 80.8278 75.0835 80.787 74.9974C80.9275 75.002 81.0566 75.0065 81.1743 75.011C81.2921 75.011 81.3737 75.0088 81.419 75.0042C81.4597 74.9997 81.4869 74.9929 81.5005 74.9839C81.5186 74.9703 81.5277 74.9431 81.5277 74.9023V71.9398ZM85.7745 73.1289H86.4268C86.4268 73.1289 86.4245 73.1628 86.42 73.2308C86.4154 73.2942 86.4109 73.3486 86.4064 73.3939C86.3656 73.8015 86.3226 74.139 86.2773 74.4063C86.2365 74.669 86.1912 74.8751 86.1414 75.0246C86.0916 75.1741 86.0327 75.2851 85.9647 75.3576C85.8968 75.4255 85.8266 75.4731 85.7541 75.5003C85.6816 75.5274 85.5978 75.5478 85.5027 75.5614C85.4211 75.5705 85.3124 75.575 85.1765 75.575C85.0451 75.575 84.9002 75.5727 84.7416 75.5682C84.7371 75.4776 84.719 75.3757 84.6873 75.2624C84.6556 75.1492 84.6171 75.0518 84.5718 74.9703C84.7077 74.9839 84.8322 74.9929 84.9455 74.9974C85.0633 75.002 85.1493 75.0042 85.2037 75.0042C85.2581 75.0042 85.3011 74.9997 85.3328 74.9906C85.369 74.9816 85.403 74.9612 85.4347 74.9295C85.48 74.8842 85.523 74.8004 85.5638 74.6781C85.6046 74.5512 85.6408 74.37 85.6725 74.1345C85.7088 73.8989 85.7427 73.5954 85.7745 73.224V73.1289ZM84.2932 72.4833H84.9387C84.907 72.8321 84.8572 73.1628 84.7892 73.4754C84.7213 73.788 84.6171 74.0801 84.4766 74.3519C84.3362 74.6192 84.1414 74.8615 83.8923 75.079C83.6477 75.2964 83.3283 75.4821 82.9342 75.6362C82.898 75.5591 82.8436 75.4708 82.7711 75.3712C82.6987 75.2715 82.6284 75.1922 82.5605 75.1333C82.9138 75.0065 83.1969 74.8502 83.4099 74.6645C83.6273 74.4788 83.7949 74.2727 83.9127 74.0462C84.035 73.8197 84.1233 73.5751 84.1777 73.3123C84.232 73.0496 84.2705 72.7733 84.2932 72.4833ZM80.6579 70.9069L81.0588 70.4925C81.2491 70.5649 81.4461 70.6533 81.65 70.7575C81.8584 70.8571 82.0554 70.9636 82.2411 71.0768C82.4314 71.1855 82.5877 71.2897 82.71 71.3894L82.2819 71.8514C82.1687 71.7518 82.0192 71.6453 81.8334 71.5321C81.6522 71.4143 81.4575 71.301 81.2491 71.1923C81.0452 71.0791 80.8482 70.9839 80.6579 70.9069ZM82.7508 71.7087H82.8391L82.9274 71.6816L83.3215 71.8107C83.2581 72.1096 83.1788 72.4154 83.0837 72.728C82.9931 73.036 82.898 73.301 82.7983 73.523L82.3566 73.3055C82.4337 73.1153 82.5084 72.882 82.5809 72.6057C82.6534 72.3248 82.71 72.0598 82.7508 71.8107V71.7087ZM85.4687 70.2886L86.1414 70.3905C85.9874 70.8073 85.7745 71.1629 85.5027 71.4573C85.2354 71.7518 84.9206 71.9986 84.5582 72.198C84.1958 72.3973 83.7949 72.5626 83.3555 72.694C83.3328 72.6487 83.2966 72.5921 83.2468 72.5241C83.2015 72.4562 83.1516 72.3905 83.0973 72.3271C83.0475 72.2591 82.9999 72.2048 82.9546 72.164C83.3759 72.0643 83.7541 71.9352 84.0893 71.7767C84.4291 71.6136 84.7167 71.4098 84.9523 71.1651C85.1878 70.916 85.36 70.6238 85.4687 70.2886ZM84.0622 69.3169L84.6669 69.4868C84.5582 69.7269 84.4291 69.9602 84.2796 70.1867C84.1301 70.4132 83.9693 70.6261 83.7972 70.8254C83.6296 71.0202 83.4597 71.1923 83.2875 71.3418C83.2468 71.3056 83.1947 71.2648 83.1313 71.2195C83.0678 71.1697 83.0022 71.1244 82.9342 71.0836C82.8708 71.0383 82.8119 71.0021 82.7575 70.9749C83.0248 70.7756 83.274 70.531 83.505 70.241C83.7405 69.9466 83.9263 69.6386 84.0622 69.3169ZM84.035 70.4449C84.1935 70.7257 84.4042 70.9817 84.6669 71.2127C84.9296 71.4392 85.2331 71.634 85.5774 71.7971C85.9262 71.9601 86.2999 72.0847 86.6986 72.1708C86.6533 72.2116 86.6034 72.2636 86.5491 72.3271C86.4992 72.3905 86.4517 72.4562 86.4064 72.5241C86.3611 72.5921 86.3226 72.6555 86.2909 72.7144C85.8741 72.6057 85.4891 72.4539 85.1357 72.2591C84.7824 72.0598 84.4676 71.822 84.1913 71.5457C83.9149 71.2693 83.6839 70.9613 83.4982 70.6216L84.035 70.4449ZM81.4529 71.899L81.881 72.0621C81.7949 72.361 81.6862 72.6691 81.5549 72.9862C81.4235 73.2987 81.2763 73.5909 81.1132 73.8627C80.9546 74.13 80.7802 74.3519 80.59 74.5286C80.5628 74.438 80.5175 74.3361 80.4541 74.2228C80.3907 74.105 80.3318 74.0031 80.2774 73.9171C80.445 73.7676 80.6036 73.5841 80.7531 73.3667C80.9026 73.1447 81.0384 72.9069 81.1608 72.6532C81.2831 72.3995 81.3805 72.1481 81.4529 71.899ZM83.967 70.0236H86.5423V70.5672H83.7088L83.967 70.0236ZM82.5741 69.6499H82.7168L82.8187 69.6227L83.2264 69.8809C83.1267 70.0395 83.0044 70.2025 82.8595 70.3701C82.7145 70.5378 82.5605 70.694 82.3974 70.839C82.2343 70.9839 82.0713 71.1108 81.9082 71.2195C81.8538 71.1697 81.7836 71.1153 81.6975 71.0564C81.616 70.9975 81.5435 70.9477 81.4801 70.9069C81.6251 70.8073 81.7678 70.6918 81.9082 70.5604C82.0486 70.429 82.1777 70.2931 82.2955 70.1527C82.4133 70.0123 82.5061 69.8832 82.5741 69.7654V69.6499ZM87.7178 72.8639C87.976 72.7823 88.2886 72.6759 88.6555 72.5445C89.0269 72.4131 89.4029 72.2772 89.7834 72.1368L89.8921 72.7144C89.5479 72.8457 89.1991 72.9794 88.8457 73.1153C88.4924 73.2466 88.1708 73.3689 87.8809 73.4822L87.7178 72.8639ZM87.7993 70.6555H89.831V71.2535H87.7993V70.6555ZM88.6079 69.3305H89.2059V74.9227C89.2059 75.0812 89.1877 75.2058 89.1515 75.2964C89.1153 75.387 89.0496 75.4595 88.9544 75.5138C88.8639 75.5637 88.7461 75.5954 88.6011 75.609C88.4607 75.6271 88.2795 75.6362 88.0575 75.6362C88.053 75.5546 88.0326 75.455 87.9964 75.3372C87.9647 75.2239 87.9284 75.1243 87.8877 75.0382C88.0236 75.0427 88.1481 75.045 88.2614 75.045C88.3746 75.045 88.4516 75.0427 88.4924 75.0382C88.5332 75.0382 88.5626 75.0314 88.5807 75.0178C88.5989 74.9997 88.6079 74.968 88.6079 74.9227V69.3305ZM90.9114 69.3849H91.5093V72.3746C91.5093 72.7144 91.4912 73.0405 91.455 73.3531C91.4187 73.6611 91.3462 73.9533 91.2375 74.2296C91.1333 74.5014 90.977 74.7551 90.7687 74.9906C90.5603 75.2217 90.2817 75.4278 89.9329 75.609C89.9012 75.5637 89.8582 75.5116 89.8038 75.4527C89.754 75.3938 89.6996 75.3372 89.6407 75.2828C89.5864 75.233 89.5343 75.19 89.4844 75.1537C89.8015 74.9952 90.0529 74.8162 90.2387 74.6169C90.4289 74.4176 90.5716 74.2002 90.6668 73.9646C90.7664 73.7291 90.8321 73.4777 90.8638 73.2104C90.8955 72.9431 90.9114 72.6623 90.9114 72.3678V69.3849ZM92.0869 69.3849H92.6984V74.6373C92.6984 74.7823 92.7097 74.8751 92.7324 74.9159C92.755 74.9567 92.8071 74.9771 92.8887 74.9771C92.9068 74.9771 92.9385 74.9771 92.9838 74.9771C93.0291 74.9771 93.0789 74.9771 93.1333 74.9771C93.1922 74.9771 93.2443 74.9771 93.2896 74.9771C93.3394 74.9771 93.3756 74.9771 93.3983 74.9771C93.4526 74.9771 93.4911 74.9521 93.5138 74.9023C93.541 74.848 93.5614 74.7528 93.5749 74.6169C93.5885 74.4765 93.5976 74.284 93.6021 74.0394C93.6746 74.0983 93.7629 74.1526 93.8671 74.2024C93.9713 74.2523 94.0664 74.2862 94.1525 74.3044C94.1344 74.6124 94.1004 74.8593 94.0506 75.045C94.0053 75.2262 93.9351 75.3576 93.8399 75.4391C93.7448 75.5206 93.6135 75.5614 93.4458 75.5614C93.4187 75.5614 93.3734 75.5614 93.3099 75.5614C93.2511 75.5614 93.1854 75.5614 93.1129 75.5614C93.0449 75.5614 92.9793 75.5614 92.9158 75.5614C92.857 75.5614 92.8139 75.5614 92.7867 75.5614C92.6055 75.5614 92.4629 75.5342 92.3587 75.4799C92.259 75.4255 92.1888 75.3304 92.148 75.1945C92.1073 75.0586 92.0869 74.8706 92.0869 74.6305V69.3849ZM89.8038 70.4313L90.2862 70.1663C90.3859 70.3113 90.481 70.4675 90.5716 70.6351C90.6668 70.8028 90.7506 70.9681 90.823 71.1312C90.9 71.2897 90.9567 71.4347 90.9929 71.566L90.4833 71.8582C90.4471 71.7269 90.3927 71.5796 90.3202 71.4166C90.2523 71.2489 90.173 71.0791 90.0824 70.9069C89.9918 70.7348 89.8989 70.5763 89.8038 70.4313ZM92.4674 72.6464L92.8615 72.2591C93.0155 72.386 93.1741 72.5241 93.3371 72.6736C93.5002 72.8231 93.652 72.9703 93.7924 73.1153C93.9373 73.2602 94.0551 73.3871 94.1457 73.4958L93.7244 73.951C93.6384 73.8333 93.5251 73.6996 93.3847 73.5501C93.2443 73.3961 93.0925 73.2398 92.9294 73.0813C92.7709 72.9182 92.6169 72.7733 92.4674 72.6464ZM89.5592 73.4346C89.7313 73.335 89.9374 73.2059 90.1775 73.0473C90.4221 72.8842 90.6713 72.7166 90.925 72.5445L91.1288 73.0337C90.925 73.1968 90.7143 73.3599 90.4969 73.523C90.284 73.686 90.0847 73.8378 89.8989 73.9782L89.5592 73.4346ZM93.4255 70.0916L94.003 70.3905C93.9124 70.5536 93.815 70.7257 93.7108 70.9069C93.6112 71.0836 93.5115 71.2535 93.4119 71.4166C93.3167 71.5796 93.2239 71.7246 93.1333 71.8514L92.6916 71.6C92.7732 71.4641 92.8592 71.3101 92.9498 71.138C93.0449 70.9658 93.1333 70.7869 93.2148 70.6012C93.3009 70.4154 93.3711 70.2456 93.4255 70.0916ZM95.9396 69.9421V70.4992H96.4424V69.9421H95.9396ZM95.4639 69.5208H96.9316V70.9273H95.4639V69.5208ZM97.6926 69.9421V70.4992H98.2158V69.9421H97.6926ZM97.217 69.5208H98.6983V70.9273H97.217V69.5208ZM98.7187 71.3418L101.539 71.0021L101.613 71.5932L98.7934 71.9466L98.7187 71.3418ZM100.254 69.6907L100.744 69.4325C100.843 69.5457 100.941 69.6703 101.036 69.8062C101.135 69.9421 101.226 70.0757 101.307 70.2071C101.389 70.3384 101.452 70.4585 101.498 70.5672L100.981 70.8662C100.941 70.7575 100.882 70.6351 100.805 70.4992C100.728 70.3588 100.639 70.2184 100.54 70.078C100.445 69.9375 100.349 69.8084 100.254 69.6907ZM96.0687 72.66V73.1424H98.0799V72.66H96.0687ZM96.0687 71.7291V72.198H98.0799V71.7291H96.0687ZM95.5319 71.2399H98.6439V73.6249H95.5319V71.2399ZM95.2533 74.0462H98.8478V74.6169H95.2533V74.0462ZM96.7889 71.4098H97.3393V73.421H97.3733V75.6362H96.7549V73.421H96.7889V71.4098ZM99.3166 69.3645H99.9213C99.9349 69.9579 99.9598 70.5264 99.9961 71.07C100.032 71.6136 100.08 72.1164 100.139 72.5785C100.202 73.036 100.275 73.4369 100.356 73.7812C100.438 74.1209 100.528 74.3882 100.628 74.583C100.732 74.7732 100.843 74.8729 100.961 74.8819C101.024 74.8865 101.076 74.8027 101.117 74.6305C101.163 74.4584 101.197 74.2092 101.219 73.8831C101.255 73.9284 101.303 73.9759 101.362 74.0258C101.425 74.0711 101.486 74.1141 101.545 74.1549C101.609 74.1911 101.659 74.2206 101.695 74.2432C101.645 74.6147 101.579 74.9023 101.498 75.1062C101.421 75.31 101.335 75.4504 101.24 75.5274C101.149 75.609 101.056 75.6475 100.961 75.643C100.725 75.6339 100.519 75.5252 100.343 75.3168C100.17 75.113 100.023 74.8253 99.901 74.4539C99.7786 74.0779 99.6767 73.6317 99.5952 73.1153C99.5182 72.5989 99.457 72.0258 99.4117 71.3962C99.371 70.762 99.3392 70.0848 99.3166 69.3645ZM100.9 71.8854L101.396 72.164C101.242 72.6306 101.033 73.0836 100.771 73.523C100.512 73.9578 100.214 74.3542 99.8738 74.7121C99.5386 75.0654 99.1716 75.3508 98.773 75.5682C98.7187 75.4957 98.6484 75.4165 98.5624 75.3304C98.4763 75.2443 98.3902 75.1718 98.3042 75.113C98.7073 74.9227 99.0788 74.6622 99.4185 74.3315C99.7583 73.9963 100.053 73.6181 100.302 73.1968C100.556 72.7755 100.755 72.3384 100.9 71.8854Z" fill="#424242"/>
</g>
<defs>
<clipPath id="clip0_154_6284">
<rect width="200" height="200" fill="white" transform="translate(0.703125 0.527344)"/>
</clipPath>
</defs>
</svg>
